<?xml version="1.0" encoding="utf-8"?>
<!-- Generator: Adobe Illustrator 23.0.2, SVG Export Plug-In . SVG Version: 6.00 Build 0)  -->
<svg version="1.1" id="Ebene_1" xmlns="http://www.w3.org/2000/svg" xmlns:xlink="http://www.w3.org/1999/xlink" x="0px" y="0px"
	 viewBox="0 0 172.91 172.91" style="enable-background:new 0 0 172.91 172.91;" xml:space="preserve">
<style type="text/css">
	.st0{fill:#FFDC01;}
	.st1{fill:#FFFFFF;}
	.st2{fill:none;stroke:#000000;stroke-width:1.5;stroke-miterlimit:10;}
	.st3{fill:none;stroke:#000000;stroke-width:2;stroke-miterlimit:10;}
</style>
<path class="st0" d="M116.59,137.31H59.52c-10.32,0-18.77-8.44-18.77-18.77V61.48c0-10.32,8.44-18.77,18.77-18.77h57.06
	c10.32,0,18.77,8.44,18.77,18.77v57.06C135.35,128.86,126.91,137.31,116.59,137.31z"/>
<path class="st1" d="M136.48,90.51h-36.6c-7.75,0-14.1-6.34-14.1-14.1v-36.6c0-7.75,6.34-14.1,14.1-14.1h36.6
	c7.75,0,14.1,6.34,14.1,14.1v36.6C150.57,84.16,144.23,90.51,136.48,90.51z"/>
<circle class="st0" cx="141.54" cy="141.76" r="9.86"/>
<circle class="st0" cx="154.87" cy="157.35" r="4.93"/>
<circle class="st0" cx="27.15" cy="43.63" r="9.86"/>
<circle class="st0" cx="45.48" cy="30.88" r="4.93"/>
<ellipse class="st0" cx="32.81" cy="23.8" rx="5.79" ry="5.79"/>
<circle class="st0" cx="18.67" cy="22.55" r="2.47"/>
<g>
	<path class="st2" d="M148.11,80.07l-0.23-29.7l-13.8-8.12c-0.93,1.74-2.09,3.36-3.13,4.76l0.35,23.2h0.12L148.11,80.07z"/>
	<path class="st2" d="M128.39,49.91l-0.35,0.35l-0.35-0.35c-0.12-0.12-2.2-2.2-4.18-5.1l-9.16,5.45h-0.12l0.23,29.58l-0.23-29.58
		L97.42,40.16l-0.23,29.58l17.17,10.21l16.94-9.86l-0.35-23.2C129.67,48.63,128.51,49.79,128.39,49.91z"/>
	<path class="st3" d="M128.04,27.75c-4.41,0-8,3.6-8,8c0,3.13,1.62,6.38,3.48,9.05c1.97,2.9,4.06,4.99,4.18,5.1l0.35,0.35l0.35-0.35
		c0.12-0.12,1.28-1.28,2.55-3.02c1.04-1.28,2.2-2.9,3.13-4.76c1.16-2.09,1.97-4.41,1.97-6.5C136.05,31.35,132.45,27.75,128.04,27.75
		z M128.04,31.11c2.44,0,4.41,1.97,4.41,4.41c0,2.44-1.97,4.41-4.41,4.41c-2.44,0-4.41-1.97-4.41-4.41
		C123.64,33.09,125.61,31.11,128.04,31.11z"/>
	<path class="st3" d="M132.57,35.52c0-2.44-1.97-4.41-4.41-4.41c-2.55,0-4.52,1.97-4.52,4.41c0,2.44,1.97,4.41,4.41,4.41
		C130.48,39.93,132.57,37.96,132.57,35.52z"/>
</g>
</svg>
