<?xml version="1.0" encoding="utf-8"?>
<!-- Generator: Adobe Illustrator 23.0.2, SVG Export Plug-In . SVG Version: 6.00 Build 0)  -->
<svg version="1.1" id="Ebene_1" xmlns="http://www.w3.org/2000/svg" xmlns:xlink="http://www.w3.org/1999/xlink" x="0px" y="0px"
	 viewBox="0 0 172.91 172.91" style="enable-background:new 0 0 172.91 172.91;" xml:space="preserve">
<style type="text/css">
	.st0{fill:#FFDC01;enable-background:new    ;}
	.st1{fill:#FFFFFF;enable-background:new    ;}
	.st2{fill:none;stroke:#030304;stroke-miterlimit:10;}
	.st3{fill:none;stroke:#030304;stroke-width:3;stroke-linecap:round;stroke-miterlimit:10;}
</style>
<g>
	<path class="st0" d="M116.59,137.31H59.52c-10.32,0-18.77-8.44-18.77-18.77V61.48c0-10.32,8.44-18.77,18.77-18.77h57.06
		c10.32,0,18.77,8.44,18.77,18.77v57.06C135.35,128.86,126.91,137.31,116.59,137.31z"/>
	<path class="st1" d="M136.48,152.79h-36.6c-7.75,0-14.1-6.34-14.1-14.1v-36.6c0-7.75,6.34-14.1,14.1-14.1h36.6
		c7.75,0,14.1,6.34,14.1,14.1v36.6C150.57,146.44,144.23,152.79,136.48,152.79z"/>
	<circle class="st0" cx="17.63" cy="108.35" r="9.86"/>
	<circle class="st0" cx="30.96" cy="123.94" r="4.93"/>
	<circle class="st0" cx="120.57" cy="29.15" r="9.86"/>
	<circle class="st0" cx="139.09" cy="41.62" r="4.93"/>
	<circle class="st0" cx="141.11" cy="27.25" r="5.79"/>
	<circle class="st0" cx="137.15" cy="13.61" r="2.47"/>
</g>
<g>
	<circle class="st2" cx="115.74" cy="116.08" r="21.5"/>
	<line class="st3" x1="131.54" y1="132.18" x2="141.04" y2="140.98"/>
</g>
</svg>
