<?xml version="1.0" encoding="utf-8"?>
<!-- Generator: Adobe Illustrator 23.0.2, SVG Export Plug-In . SVG Version: 6.00 Build 0)  -->
<svg version="1.1" id="Ebene_1" xmlns="http://www.w3.org/2000/svg" xmlns:xlink="http://www.w3.org/1999/xlink" x="0px" y="0px"
	 viewBox="0 0 172.91 172.91" style="enable-background:new 0 0 172.91 172.91;" xml:space="preserve">
<style type="text/css">
	.st0{fill:#FFDC01;}
	.st1{fill:#FFFFFF;}
	.st2{fill:none;stroke:#000000;stroke-width:2;stroke-miterlimit:10;}
	.st3{fill:none;stroke:#000000;stroke-width:3;stroke-linecap:round;stroke-miterlimit:10;}
	.st4{fill:none;stroke:#000000;stroke-miterlimit:10;}
	.st5{fill:none;stroke:#000000;stroke-width:3.5;stroke-linecap:round;stroke-miterlimit:10;}
</style>
<path class="st0" d="M116.59,137.31H59.52c-10.32,0-18.77-8.44-18.77-18.77V61.48c0-10.32,8.44-18.77,18.77-18.77h57.06
	c10.32,0,18.77,8.44,18.77,18.77v57.06C135.35,128.86,126.91,137.31,116.59,137.31z"/>
<path class="st1" d="M72.48,90.51h-36.6c-7.75,0-14.1-6.34-14.1-14.1v-36.6c0-7.75,6.34-14.1,14.1-14.1h36.6
	c7.75,0,14.1,6.34,14.1,14.1v36.6C86.57,84.16,80.23,90.51,72.48,90.51z"/>
<circle class="st0" cx="141.54" cy="141.76" r="9.86"/>
<circle class="st0" cx="154.87" cy="157.35" r="4.93"/>
<circle class="st0" cx="140.97" cy="36.69" r="9.86"/>
<circle class="st0" cx="116.31" cy="31.7" r="4.93"/>
<ellipse class="st0" cx="146.63" cy="16.87" rx="5.79" ry="5.79"/>
<circle class="st0" cx="132.49" cy="15.61" r="2.47"/>
<path class="st2" d="M67.1,75.33H34c-3.1,0-5.7-2.6-5.7-5.7v-33c0-3.1,2.6-5.7,5.7-5.7h33.1c3.1,0,5.7,2.6,5.7,5.7v33.1
	C72.8,72.73,70.2,75.33,67.1,75.33z"/>
<line class="st3" x1="39.7" y1="28.93" x2="39.7" y2="33.53"/>
<line class="st3" x1="63.8" y1="28.93" x2="63.8" y2="33.53"/>
<line class="st4" x1="29.3" y1="42.33" x2="73.6" y2="42.33"/>
<polyline class="st5" points="40.4,58.53 48.6,66.63 63.3,52.03 "/>
</svg>
