<?xml version="1.0" encoding="utf-8"?>
<!-- Generator: Adobe Illustrator 23.0.2, SVG Export Plug-In . SVG Version: 6.00 Build 0)  -->
<svg version="1.1" id="Ebene_1" xmlns="http://www.w3.org/2000/svg" xmlns:xlink="http://www.w3.org/1999/xlink" x="0px" y="0px"
	 viewBox="0 0 51 51" style="enable-background:new 0 0 51 51;" xml:space="preserve">
<style type="text/css">
	.st0{stroke:#000000;stroke-miterlimit:10;}
</style>
<path class="st0" d="M49.6,16.1L37.2,3.7c-0.2-0.2-0.5-0.2-0.8,0l-5.6,5.6c-2.2-0.1-4,0.1-5.5,0.3c-1.5-0.3-3.2-0.4-5.5-0.3
	l-5.6-5.6c-0.2-0.2-0.5-0.2-0.8,0L1.2,16.1c-0.2,0.2-0.2,0.5,0,0.8l5.6,5.6c-0.6,3.5-0.2,6.3,1.7,9.3l-2.9,2.9c-0.6,0.6-1,1.5-1,2.4
	c0,0.9,0.4,1.8,1,2.4s1.5,1,2.3,1l-0.7,0.7c-0.6,0.6-1,1.5-1,2.4c0,0.9,0.4,1.8,1,2.4c0.6,0.6,1.5,1,2.4,1c0.9,0,1.8-0.4,2.4-1
	l0.7-0.7c0,0.9,0.4,1.7,1,2.3c0.6,0.6,1.6,1,2.4,1c0.9,0,1.8-0.3,2.4-1l2.6-2.6l1.8,1.8c0.6,0.6,1.5,1,2.4,1c0.9,0,1.8-0.4,2.4-1
	c0.6-0.6,1-1.5,1-2.3l3.2,3.2c0.6,0.6,1.6,1,2.4,1c0.9,0,1.8-0.3,2.4-1c0.6-0.6,1-1.5,1-2.3l0.7,0.7c0.6,0.6,1.6,1,2.4,1
	c0.9,0,1.8-0.3,2.4-1c1.4-1.4,1.4-3.5,0-4.9l-0.7-0.7c0.9,0,1.7-0.4,2.3-1c0.6-0.6,1-1.5,1-2.4c0-0.9-0.4-1.8-1-2.4l-3.1-3.1
	c1.8-3,2.4-6.1,1.9-9.1l5.6-5.6C49.8,16.7,49.8,16.4,49.6,16.1z M9.6,38.8c-0.4,0.4-1,0.7-1.7,0.7s-1.2-0.3-1.7-0.7s-0.7-1-0.7-1.7
	s0.3-1.2,0.7-1.7l2.8-2.8c0.7,1,1.6,1.9,2.6,3l0.5,0.5L9.6,38.8L9.6,38.8z M11.3,45.4c-0.4,0.4-1,0.7-1.7,0.7s-1.2-0.3-1.7-0.7
	c-0.4-0.4-0.7-1-0.7-1.7s0.3-1.2,0.7-1.7l5.1-5.1l1.8,1.8l0,0l1.6,1.6l-2.6,2.6l0,0l0,0L11.3,45.4z M17.9,47.1
	c-0.9,0.9-2.4,0.9-3.4,0c-0.9-0.9-0.9-2.4,0-3.4l2.6-2.6l3.4,3.4L17.9,47.1z M45.1,37.1c0,0.6-0.3,1.2-0.7,1.7
	c-0.9,0.9-2.4,0.9-3.4,0l-6.6-6.6l-4.1-4.1c-0.2-0.2-0.5-0.2-0.8,0c-0.2,0.2-0.2,0.5,0,0.8l4.1,4.1l6.6,6.6l2.5,2.5
	c0.9,0.9,0.9,2.4,0,3.4c-0.9,0.9-2.4,0.9-3.4,0L37.1,43l0,0L26.7,32.3c-0.2-0.2-0.5-0.2-0.8,0c-0.2,0.2-0.2,0.5,0,0.8l10.3,10.6l0,0
	l0,0c0.9,0.9,0.9,2.4,0,3.4c-0.9,0.9-2.4,0.9-3.4,0L28,42.1l0,0l0,0l-6.1-6.1c-0.2-0.2-0.5-0.2-0.8,0s-0.2,0.5,0,0.8l6.1,6.1
	c0.9,0.9,0.9,2.4,0,3.4c-0.4,0.4-1,0.7-1.7,0.7c-0.6,0-1.2-0.3-1.7-0.7l-2.2-2.2l0,0l0,0l-6.9-6.9l0,0l-1.4-1.4l0,0l0,0l-0.9-0.9
	c-4.3-4.3-5.5-7.7-4.6-12.5v-0.1c0-0.1,0-0.1,0-0.1c0-0.1,0-0.1,0-0.1c0-0.1,0-0.1-0.1-0.1c0-0.1-0.1-0.1-0.1-0.1c0,0,0-0.1-0.1-0.1
	l-5.4-5.4L13.8,4.8l5.4,5.4l0,0c0.1,0.1,0.2,0.2,0.3,0.2h0.1l0,0l0,0c1.1-0.1,2.1,0,3,0c-2.1,0.9-3.6,2.3-5.6,4.4l-6.2,6.3
	c-0.6,0.6-1,1.5-1,2.4s0.4,1.8,1,2.4s1.6,1,2.4,1s1.8-0.3,2.4-1l4.4-4.4c0.6,0.1,1.2,0.2,1.9,0.2c2.2,0,4.4-0.8,6.7-2.2l15.8,15.8
	C44.9,35.9,45.1,36.5,45.1,37.1z M41.3,30.8L29.5,19c0.2-0.2,0.4-0.3,0.6-0.4c0.2-0.2,0.3-0.5,0.1-0.8c-0.2-0.2-0.5-0.3-0.8-0.1
	c-3.3,2.5-6.5,3.5-9.5,2.8H20c-0.1,0-0.1,0-0.1,0c-0.1,0-0.1,0-0.1,0c-0.1,0-0.1,0-0.1,0.1c-0.1,0-0.1,0.1-0.1,0.1
	c0,0-0.1,0-0.1,0.1l-4.6,4.6c-0.9,0.9-2.4,0.9-3.4,0c-0.4-0.4-0.7-1-0.7-1.7s0.3-1.2,0.7-1.7l6.3-6.3c4-4,5.8-5.4,13.2-5.2l0,0l0,0
	h0.1c0.1,0,0.2-0.1,0.3-0.2l5.4-5.4l11.6,11.6L43,21.9c0,0,0,0.1-0.1,0.1c0,0.1-0.1,0.1-0.1,0.1c0,0.1-0.1,0.1-0.1,0.1
	c0,0.1,0,0.1,0,0.1c0,0.1,0,0.1,0,0.1v0.1C43.5,25.2,42.9,28,41.3,30.8z"/>
</svg>
