<?xml version="1.0" encoding="utf-8"?>
<!-- Generator: Adobe Illustrator 23.0.2, SVG Export Plug-In . SVG Version: 6.00 Build 0)  -->
<svg version="1.1" id="Ebene_1" xmlns="http://www.w3.org/2000/svg" xmlns:xlink="http://www.w3.org/1999/xlink" x="0px" y="0px"
	 viewBox="0 0 51 51" style="enable-background:new 0 0 51 51;" xml:space="preserve">
<style type="text/css">
	.st0{stroke:#000000;stroke-width:0.25;stroke-miterlimit:10;}
	.st1{fill:none;stroke:#000000;stroke-width:2;stroke-miterlimit:10;}
</style>
<g>
	<g>
		<g>
			<path class="st0" d="M25.8,36.4c-7.9,0-14.3-6.4-14.3-14.3S17.9,8,25.8,8S40,14.3,40,22.3C40,30.1,33.7,36.4,25.8,36.4z
				 M25.8,8.4C18.1,8.4,12,14.5,12,22.2S18.1,36,25.8,36s13.8-6.2,13.8-13.8S33.4,8.4,25.8,8.4z"/>
		</g>
		<g>
			<rect x="11.8" y="22" class="st0" width="28.3" height="0.5"/>
		</g>
	</g>
	<g>
		<path class="st0" d="M25.6,16.2c-1.5,0-3-0.2-4.2-0.4c-3.9-0.8-6.5-2.2-6.6-2.4v-0.3l0.3,0.3l-0.2-0.2h0.2c0-0.1-0.1-0.2-0.1-0.2
			c0.1,0.1,0.8,0.5,1.8,1c1,0.4,2.6,1,4.6,1.4c3.5,0.6,8.9,0.7,15-2.3l0.2,0.4C32.6,15.6,28.8,16.2,25.6,16.2z"/>
	</g>
	<g>
		<path class="st0" d="M36.6,31.2c-6-3.1-11.5-3-15-2.3c-2,0.4-3.7,1-4.6,1.4c-1.2,0.5-1.7,0.9-1.8,1c0,0,0.1-0.1,0.1-0.2h-0.2
			l-0.2,0.2V31c0.2-0.2,2.7-1.7,6.6-2.4c3.6-0.7,9.2-0.8,15.3,2.3L36.6,31.2z"/>
	</g>
	<g>
		<path class="st0" d="M25.8,36.4c-4.1,0-7.4-6.4-7.4-14.3c0-3.8,0.8-7.3,2.1-10c1.4-2.7,3.3-4.2,5.3-4.2s3.9,1.5,5.3,4.2
			c1.4,2.7,2.1,6.3,2.1,10C33.2,30.1,29.9,36.4,25.8,36.4z M25.8,8.4c-3.9,0-6.9,6.2-6.9,13.8c0,3.7,0.8,7.2,2.1,9.8
			s3.1,4.1,4.9,4.1s3.6-1.4,4.9-4.1s2.1-6.2,2.1-9.8C32.8,14.5,29.6,8.4,25.8,8.4z"/>
	</g>
	<g>
		<rect x="25.6" y="8.2" class="st0" width="0.5" height="28.1"/>
	</g>
</g>
<path class="st1" d="M34.9,1.7h-18c-6.4,0-11.6,5.2-11.6,11.6v18c0,6.4,5.2,11.6,11.6,11.6h10.2c0,0,0.2,6.5,10.3,6.5
	c-4.1,0.1-4.4-3.1-4.3-6.5h1.8c6.4,0,11.6-5.2,11.6-11.6v-18C46.5,6.9,41.3,1.7,34.9,1.7z"/>
</svg>
