<?xml version="1.0" encoding="utf-8"?>
<!-- Generator: Adobe Illustrator 23.0.2, SVG Export Plug-In . SVG Version: 6.00 Build 0)  -->
<svg version="1.1" id="Ebene_1" xmlns="http://www.w3.org/2000/svg" xmlns:xlink="http://www.w3.org/1999/xlink" x="0px" y="0px"
	 viewBox="0 0 51 51" style="enable-background:new 0 0 51 51;" xml:space="preserve">
<style type="text/css">
	.st0{fill:none;stroke:#000000;stroke-width:1.5;stroke-miterlimit:10;}
	.st1{fill:none;stroke:#000000;stroke-width:2;stroke-miterlimit:10;}
</style>
<g>
	<path class="st0" d="M47.1,48.2l-0.2-25.6l-11.9-7c-0.8,1.5-1.8,2.9-2.7,4.1l0.3,20h0.1L47.1,48.2z"/>
	<path class="st0" d="M30.1,22.2l-0.3,0.3l-0.3-0.3c-0.1-0.1-1.9-1.9-3.6-4.4L18,22.5h-0.1L18.1,48l-0.2-25.5L3.4,13.8L3.2,39.3
		L18,48.1l14.6-8.5l-0.3-20C31.2,21.1,30.2,22.1,30.1,22.2z"/>
	<path class="st1" d="M29.8,3.1c-3.8,0-6.9,3.1-6.9,6.9c0,2.7,1.4,5.5,3,7.8c1.7,2.5,3.5,4.3,3.6,4.4l0.3,0.3l0.3-0.3
		c0.1-0.1,1.1-1.1,2.2-2.6c0.9-1.1,1.9-2.5,2.7-4.1c1-1.8,1.7-3.8,1.7-5.6C36.7,6.2,33.6,3.1,29.8,3.1z M29.8,6
		c2.1,0,3.8,1.7,3.8,3.8s-1.7,3.8-3.8,3.8S26,11.9,26,9.8S27.7,6,29.8,6z"/>
	<path class="st1" d="M33.7,9.8C33.7,7.7,32,6,29.9,6C27.7,6,26,7.7,26,9.8s1.7,3.8,3.8,3.8S33.7,11.9,33.7,9.8z"/>
</g>
</svg>
