<?xml version="1.0" encoding="utf-8"?>
<!-- Generator: Adobe Illustrator 23.0.2, SVG Export Plug-In . SVG Version: 6.00 Build 0)  -->
<svg version="1.1" id="Ebene_1" xmlns="http://www.w3.org/2000/svg" xmlns:xlink="http://www.w3.org/1999/xlink" x="0px" y="0px"
	 viewBox="0 0 51 51" style="enable-background:new 0 0 51 51;" xml:space="preserve">
<style type="text/css">
	.st0{fill:none;stroke:#000000;stroke-width:0.75;stroke-miterlimit:10;}
	.st1{fill:none;stroke:#000000;stroke-width:2;stroke-miterlimit:10;}
	.st2{fill:none;}
	.st3{font-family:'Quicksand-Medium';}
	.st4{font-size:11.3321px;}
</style>
<path class="st0" d="M30,23.6c-0.9-1-1.8-2.2-2.7-3.2c-0.4-0.5-0.8-1-1.1-1.4l0,0c0.5-1.5,0.8-2.6,0.9-3.5c0.2-2.3-0.1-3.7-0.8-4.5
	c-0.5-0.5-1.2-0.7-1.8-0.5c-0.5,0.2-1.1,0.6-1.5,1.7c-0.5,1.7-0.3,4.6,1.3,7c-0.7,1.8-1.6,3.9-2.7,5.8c-2,0.7-3.6,1.6-4.8,2.8
	c-1.5,1.5-2.1,2.9-1.7,4c0.3,0.7,0.9,1.1,1.7,1.1c0.5,0,1.1-0.2,1.7-0.6c1.4-0.9,3.3-4,4.3-5.8c2.1-0.6,4.1-0.9,5.1-1
	c0.5,0,0.9-0.1,1.4-0.1c1.8,1.9,3.3,2.9,4.7,3.2c0.3,0.1,0.5,0.1,0.8,0.1c1.1,0,2-0.4,2.5-1.2c0.3-0.6,0.3-1.2,0-1.8
	c-0.8-1.3-3-2-6.4-2C30.5,23.6,30.3,23.6,30,23.6z"/>
<path class="st1" d="M33.5,8.6V3.5H11.4C10,3.5,8.9,4.6,8.9,6v39.4c0,1.4,1.1,2.5,2.5,2.5h29.7c1.4,0,2.5-1.1,2.5-2.5V13.9h-4.8
	C35.9,13.9,33.5,11.5,33.5,8.6z"/>
<line class="st1" x1="33.8" y1="3.1" x2="43.9" y2="13.6"/>
<rect x="15.8" y="36.4" class="st2" width="24.8" height="9.3"/>
<text transform="matrix(1 0 0 1 15.8335 44.8243)" class="st3 st4">PDF</text>
</svg>
