<?xml version="1.0" encoding="utf-8"?>
<!-- Generator: Adobe Illustrator 23.0.2, SVG Export Plug-In . SVG Version: 6.00 Build 0)  -->
<svg version="1.1" id="Ebene_1" xmlns="http://www.w3.org/2000/svg" xmlns:xlink="http://www.w3.org/1999/xlink" x="0px" y="0px"
	 viewBox="0 0 51 51" style="enable-background:new 0 0 51 51;" xml:space="preserve">
<style type="text/css">
	.st0{fill:none;stroke:#000000;stroke-miterlimit:10;}
	.st1{fill:none;stroke:#000000;stroke-width:2;stroke-miterlimit:10;}
</style>
<path class="st0" d="M44,25.6c0,1.2-0.1,2.5-0.4,3.6l5.1,3.8c0.6,0.5,0.8,1.3,0.4,1.9l-3.2,5.4c-0.4,0.6-1.2,0.9-2,0.6l-6-2.3
	c-1.9,1.6-4.1,2.9-6.5,3.6l-0.9,6.1c-0.1,0.7-0.8,1.3-1.5,1.3h-6.4c-0.8,0-1.4-0.6-1.5-1.3L20,42.2c-2.4-0.8-4.7-2-6.5-3.6l-6,2.3
	c-0.7,0.3-1.6,0-2-0.6l-3.2-5.4c-0.4-0.6-0.2-1.5,0.4-1.9l5.1-3.8c-0.3-1.2-0.4-2.4-0.4-3.6s0.1-2.5,0.4-3.6l-5.1-3.8
	c-0.6-0.5-0.8-1.3-0.4-1.9l3.2-5.4c0.4-0.6,1.2-0.9,2-0.6l6,2.3C15.4,11,17.6,9.7,20,9l0.9-6.1C21,2,21.7,1.4,22.5,1.4h6.4
	c0.7,0,1.4,0.6,1.5,1.3l0.9,6.1c2.4,0.8,4.7,2,6.5,3.6l6-2.3c0.7-0.3,1.6,0,2,0.6l3.2,5.4c0.4,0.6,0.2,1.5-0.4,1.9l-5.1,3.8
	C43.8,23.1,44,24.3,44,25.6L44,25.6z"/>
<circle class="st1" cx="25.4" cy="25.7" r="10.3"/>
</svg>
