<?xml version="1.0" encoding="utf-8"?>
<!-- Generator: Adobe Illustrator 23.0.2, SVG Export Plug-In . SVG Version: 6.00 Build 0)  -->
<svg version="1.1" id="Ebene_1" xmlns="http://www.w3.org/2000/svg" xmlns:xlink="http://www.w3.org/1999/xlink" x="0px" y="0px"
	 viewBox="0 0 51 51" style="enable-background:new 0 0 51 51;" xml:space="preserve">
<style type="text/css">
	.st0{fill:none;}
</style>
<path class="st0" d="M32.5,10.1"/>
<g transform="translate(0,-952.36218)">
	<path d="M31.7,961.2c0.2,0,0.4,0.1,0.6,0.2l17.1,14.2c0.5,0.4,0.6,1.1,0.2,1.6c0,0.1-0.1,0.1-0.2,0.2l-17.1,14.2
		c-0.5,0.4-1.2,0.3-1.6-0.1c-0.2-0.2-0.3-0.5-0.3-0.7v-6.2c-3,0-17.4,0.3-27.7,9.4c-0.5,0.4-1.2,0.4-1.6-0.1
		c-0.3-0.3-0.4-0.7-0.2-1.1c4.8-14.7,19.3-21.1,29.6-23.9v-6.6c0-0.6,0.5-1.1,1.1-1.1C31.6,961.2,31.7,961.2,31.7,961.2z
		 M32.7,964.8v5c0,0.5-0.4,1-0.9,1.1c-9,2.3-21.5,7.6-27.2,18.9c11.7-7.9,25.9-7.5,26.9-7.4c0.6,0,1.1,0.5,1.1,1.1v4.9l14.2-11.8
		C46.9,976.6,32.7,964.8,32.7,964.8z"/>
</g>
</svg>
