<svg
   fill="#000000"
   width="196"
   height="221"
   viewBox="0 0 196 221"
   id="svg16"
   xmlns="http://www.w3.org/2000/svg"><defs
     id="defs1"><clipPath
       id="a"><path
         fill="#ffffff"
         d="M -20,0 H 175.5 V 221 H -20 Z"
         id="path1" /></clipPath></defs><g
     clip-path="url(#a)"
     transform="matrix(0.78106,0,0,0.78106,-29.279,41.998)"
     id="g13"><path
       fill="#cccccc"
       d="m -20,220.425 c 0,0.319 0.255,0.575 0.574,0.575 h 194.353 a 0.572,0.572 0 0 0 0.573,-0.575 0.572,0.572 0 0 0 -0.573,-0.575 H -19.426 A 0.572,0.572 0 0 0 -20,220.425 Z"
       id="path2" /><path
       fill="#3f3d56"
       d="M 149.501,221 H 64.479 C 54.112,221 45.678,212.54 45.678,202.141 V 18.859 C 45.678,8.46 54.112,0 64.478,0 h 85.023 c 10.367,0 18.801,8.46 18.801,18.86 v 183.28 c 0,10.399 -8.434,18.859 -18.801,18.859 z"
       id="path3" /><path
       fill="#3f3d56"
       d="m 168.302,67.417 a 0.797,0.797 0 0 0 -0.795,0.798 v 25.53 c 0,0.44 0.357,0.798 0.795,0.798 a 0.798,0.798 0 0 0 0.796,-0.798 v -25.53 a 0.798,0.798 0 0 0 -0.796,-0.798 z"
       id="path4" /><path
       fill="#ffffff"
       d="m 166.513,18.86 v 183.278 c 0,9.051 -7.023,16.455 -15.904,17.029 h -0.004 c -0.131,0.008 -0.262,0.016 -0.397,0.02 -0.235,0.012 -0.47,0.016 -0.708,0.016 l -2.474,-0.183 c -1.615,-0.12 -3.965,-0.3 -6.896,-0.535 -0.879,-0.068 -1.806,-0.144 -2.784,-0.223 -1.949,-0.16 -4.088,-0.335 -6.383,-0.535 -0.915,-0.076 -1.861,-0.159 -2.827,-0.243 -4.94,-0.427 -10.472,-0.926 -16.306,-1.492 a 550.42,550.42 0 0 1 -2.982,-0.287 c -0.263,-0.028 -0.529,-0.052 -0.796,-0.08 -4.16,-0.411 -60.585,-11.349 -60.585,-13.488 V 18.859 c 0,-9.426 7.616,-17.065 17.014,-17.065 h 10.157 c 1.622,0 2.927,1.268 3.066,2.892 0.012,0.107 0.024,0.215 0.044,0.323 0.294,1.631 1.785,2.768 3.44,2.768 h 51.605 c 1.654,0 3.145,-1.137 3.44,-2.768 0.019,-0.108 0.031,-0.216 0.043,-0.323 0.14,-1.624 1.444,-2.892 3.067,-2.892 H 149.5 c 9.397,0 17.013,7.639 17.013,17.065 z"
       id="path5" /><path
       fill="#3f3d56"
       d="m 45.28,48.269 a 0.797,0.797 0 0 0 -0.795,0.798 v 6.383 c 0,0.44 0.356,0.797 0.795,0.797 A 0.797,0.797 0 0 0 46.075,55.45 V 49.067 A 0.797,0.797 0 0 0 45.28,48.269 Z m 0,19.148 a 0.797,0.797 0 0 0 -0.795,0.798 V 80.58 c 0,0.44 0.356,0.798 0.795,0.798 A 0.797,0.797 0 0 0 46.075,80.58 V 68.215 A 0.797,0.797 0 0 0 45.28,67.417 Z m 0,17.553 a 0.797,0.797 0 0 0 -0.795,0.797 v 12.367 c 0,0.44 0.356,0.797 0.795,0.797 a 0.797,0.797 0 0 0 0.795,-0.797 V 85.767 A 0.797,0.797 0 0 0 45.28,84.969 Z"
       id="path6" /><path
       fill="#e6e6e6"
       d="M 74.36,4.588 H 59.15 A 0.15,0.15 0 0 0 59,4.738 v 1.694 c 0,0.083 0.067,0.15 0.15,0.15 h 15.21 a 0.15,0.15 0 0 0 0.15,-0.15 V 4.738 a 0.15,0.15 0 0 0 -0.15,-0.15 z m 67.496,1.994 c 0.878,0 1.591,-0.714 1.591,-1.595 0,-0.882 -0.713,-1.596 -1.591,-1.596 -0.879,0 -1.591,0.714 -1.591,1.596 0,0.88 0.712,1.595 1.591,1.595 z m 4.375,0 c 0.878,0 1.59,-0.714 1.59,-1.595 0,-0.882 -0.712,-1.596 -1.59,-1.596 -0.879,0 -1.591,0.714 -1.591,1.596 0,0.88 0.712,1.595 1.591,1.595 z m 4.374,0 c 0.879,0 1.591,-0.714 1.591,-1.595 0,-0.882 -0.712,-1.596 -1.591,-1.596 -0.878,0 -1.591,0.714 -1.591,1.596 0,0.88 0.713,1.595 1.591,1.595 z M 140.725,46 h -67.47 a 1.933,1.933 0 0 1 -1.927,-1.934 c 0,-1.066 0.865,-1.933 1.928,-1.933 h 67.469 a 1.9335,1.9335 0 0 1 0,3.867 z"
       id="path7" /><path
       fill="currentColor"
       d="m 152.069,198.997 h -25.06 a 1.933,1.933 0 0 1 -1.927,-1.934 c 0,-1.066 0.864,-1.933 1.927,-1.933 h 25.06 a 1.9335,1.9335 0 0 1 0,3.867 z m -66.987,0 h -25.06 a 1.9335,1.9335 0 0 1 0,-3.867 h 25.06 a 1.9335,1.9335 0 0 1 0,3.867 z"
       id="path8" /><path
       fill="#3f3d56"
       d="M 153.997,51.196 H 59.983 v 0.483 h 94.014 z"
       id="path9" /><path
       fill="#e6e6e6"
       d="m 140.725,75.488 h -67.47 a 1.934,1.934 0 0 1 0,-3.868 h 67.47 c 1.062,0 1.927,0.868 1.927,1.934 a 1.933,1.933 0 0 1 -1.927,1.934 z"
       id="path10" /><path
       fill="#3f3d56"
       d="M 153.997,80.683 H 59.983 v 0.484 h 94.014 z"
       id="path11" /><path
       fill="#e6e6e6"
       d="m 140.725,104.975 h -67.47 a 1.932,1.932 0 0 1 -1.927,-1.933 c 0,-1.067 0.865,-1.934 1.928,-1.934 h 67.469 c 1.062,0 1.927,0.867 1.927,1.934 a 1.932,1.932 0 0 1 -1.927,1.933 z"
       id="path12" /><path
       fill="#3f3d56"
       d="M 153.997,110.171 H 59.983 v 0.483 h 94.014 z m 0,25.137 H 59.983 v 0.483 h 94.014 z m 0,25.137 H 59.983 v 0.483 h 94.014 z"
       id="path13" /></g><g
     style="fill:none"
     transform="matrix(0.78106,0,0,0.78106,71.751,57.708)"
     id="g15"><path
       fill="#ffffff"
       d="M 148.873,56 H 10.129 C 4.544,56 0,53.967 0,51.468 V 4.532 C 0,2.033 4.544,0 10.13,0 h 138.743 c 5.585,0 10.13,2.033 10.13,4.532 v 46.936 c 0,2.499 -4.545,4.532 -10.13,4.532 z"
       id="path14" /><path
       fill="#4b6eda"
       d="M 40.671196,30.104551 H 39.846474 L 39.553409,29.82238 c 1.058563,-1.227504 1.640504,-2.794686 1.639639,-4.415587 0,-6.046065 -7.309194,-9.0731 -11.584233,-4.798748 -4.275038,4.274352 -1.249176,11.584032 4.796889,11.585003 1.621275,0.0011 3.188889,-0.580831 4.416676,-1.639639 l 0.28326,0.291975 v 0.825812 L 44.32416,36.881 45.881,35.325249 Z m -6.264403,0 c -2.596173,0.0036 -4.701863,-2.101584 -4.698846,-4.697758 -0.0036,-2.596599 2.102247,-4.702467 4.698846,-4.698846 2.596174,-0.0031 4.701376,2.102673 4.697758,4.698846 0.0031,2.595748 -2.10201,4.700773 -4.697758,4.697758 z"
       id="path15" /><ellipse
       style="fill:none;stroke:#4b6eda;stroke-width:1.28031"
       id="path17"
       cx="36.43449"
       cy="27.996717"
       rx="20.50769"
       ry="20.100252" /><rect
       width="149"
       height="50"
       x="4"
       y="3"
       stroke="#3f3d56"
       stroke-width="2"
       rx="9"
       id="rect15" /><ellipse
       style="fill:none;stroke:#4b6eda;stroke-width:1.28031"
       id="ellipse18"
       cx="85.243164"
       cy="27.996717"
       rx="20.50769"
       ry="20.100252" /><g
       id="g18"
       transform="matrix(0.0551879,0,0,0.0551879,71.763649,12.915374)"
       style="stroke:#4b6eda;stroke-opacity:1"><line
         x1="48"
         y1="112"
         x2="336"
         y2="112"
         style="fill:none;stroke:#4b6eda;stroke-width:32px;stroke-linecap:round;stroke-linejoin:round;stroke-opacity:1"
         id="line1" /><line
         x1="192"
         y1="64"
         x2="192"
         y2="112"
         style="fill:none;stroke:#4b6eda;stroke-width:32px;stroke-linecap:round;stroke-linejoin:round;stroke-opacity:1"
         id="line2" /><polyline
         points="272 448 368 224 464 448"
         style="fill:none;stroke:#4b6eda;stroke-width:32px;stroke-linecap:round;stroke-linejoin:round;stroke-opacity:1"
         id="polyline2" /><line
         x1="301.5"
         y1="384"
         x2="434.5"
         y2="384"
         style="fill:none;stroke:#4b6eda;stroke-width:32px;stroke-linecap:round;stroke-linejoin:round;stroke-opacity:1"
         id="line3" /><path
         d="m 281.3,112 c 0,0 -24.3,94 -82.3,165 C 141,348 80,384 80,384"
         style="fill:none;stroke:#4b6eda;stroke-width:32px;stroke-linecap:round;stroke-linejoin:round;stroke-opacity:1"
         id="path3-2" /><path
         d="m 256,336 c 0,0 -35,-27 -72,-75 -37,-48 -56,-85 -56,-85"
         style="fill:none;stroke:#4b6eda;stroke-width:32px;stroke-linecap:round;stroke-linejoin:round;stroke-opacity:1"
         id="path4-7" /></g></g><path
     d="m 167.357,74.96 a 1.5625,1.5625 0 1 0 3.125,0 1.5625,1.5625 0 0 0 -3.125,0 z m 0,5.468 a 1.5625,1.5625 0 1 0 3.125,0 1.5625,1.5625 0 0 0 -3.125,0 z m 0,5.467 a 1.5625,1.5625 0 1 0 3.125,0 1.5625,1.5625 0 0 0 -3.125,0 z"
     fill="#3f3d56"
     id="path16" /></svg>
