<svg width="196" height="221" viewBox="0 0 196 221" xml:space="preserve" xmlns="http://www.w3.org/2000/svg"><defs><clipPath id="a"><path fill="#fff" d="M-20 0h195.5v221H-20Z"/></clipPath></defs><g clip-path="url(#a)" transform="matrix(.78106 0 0 .78106 -29.279 41.998)"><path fill="#ccc" d="M-20 220.425c0 .319.255.575.574.575h194.353a.572.572 0 0 0 .573-.575.572.572 0 0 0-.573-.575H-19.426a.572.572 0 0 0-.574.575Z"/><path fill="#3f3d56" d="M149.501 221H64.479c-10.367 0-18.801-8.46-18.801-18.859V18.859C45.678 8.46 54.112 0 64.478 0h85.023c10.367 0 18.801 8.46 18.801 18.86v183.28c0 10.399-8.434 18.859-18.801 18.859z"/><path fill="#3f3d56" d="M168.302 67.417a.797.797 0 0 0-.795.798v25.53c0 .44.357.798.795.798a.798.798 0 0 0 .796-.798v-25.53a.798.798 0 0 0-.796-.798z"/><path fill="#fff" d="M166.513 18.86v183.278c0 9.051-7.023 16.455-15.904 17.029h-.004c-.131.008-.262.016-.397.02-.235.012-.47.016-.708.016l-2.474-.183c-1.615-.12-3.965-.3-6.896-.535-.879-.068-1.806-.144-2.784-.223-1.949-.16-4.088-.335-6.383-.535-.915-.076-1.861-.159-2.827-.243-4.94-.427-10.472-.926-16.306-1.492a550.42 550.42 0 0 1-2.982-.287c-.263-.028-.529-.052-.796-.08-4.16-.411-60.585-11.349-60.585-13.488V18.859c0-9.426 7.616-17.065 17.014-17.065h10.157c1.622 0 2.927 1.268 3.066 2.892.012.107.024.215.044.323.294 1.631 1.785 2.768 3.44 2.768h51.605c1.654 0 3.145-1.137 3.44-2.768.019-.108.031-.216.043-.323.14-1.624 1.444-2.892 3.067-2.892H149.5c9.397 0 17.013 7.639 17.013 17.065z"/><path fill="#3f3d56" d="M45.28 48.269a.797.797 0 0 0-.795.798v6.383c0 .44.356.797.795.797a.797.797 0 0 0 .795-.797v-6.383a.797.797 0 0 0-.795-.798Zm0 19.148a.797.797 0 0 0-.795.798V80.58c0 .44.356.798.795.798a.797.797 0 0 0 .795-.798V68.215a.797.797 0 0 0-.795-.798Zm0 17.553a.797.797 0 0 0-.795.797v12.367c0 .44.356.797.795.797a.797.797 0 0 0 .795-.797V85.767a.797.797 0 0 0-.795-.798Z"/><path fill="#e6e6e6" d="M74.36 4.588H59.15a.15.15 0 0 0-.15.15v1.694c0 .083.067.15.15.15h15.21a.15.15 0 0 0 .15-.15V4.738a.15.15 0 0 0-.15-.15zm67.496 1.994c.878 0 1.591-.714 1.591-1.595 0-.882-.713-1.596-1.591-1.596-.879 0-1.591.714-1.591 1.596 0 .88.712 1.595 1.591 1.595zm4.375 0c.878 0 1.59-.714 1.59-1.595 0-.882-.712-1.596-1.59-1.596-.879 0-1.591.714-1.591 1.596 0 .88.712 1.595 1.591 1.595zm4.374 0c.879 0 1.591-.714 1.591-1.595 0-.882-.712-1.596-1.591-1.596-.878 0-1.591.714-1.591 1.596 0 .88.713 1.595 1.591 1.595zM140.725 46h-67.47a1.933 1.933 0 0 1-1.927-1.934c0-1.066.865-1.933 1.928-1.933h67.469a1.933 1.933 0 0 1 0 3.867z"/><path fill="currentColor" d="M152.069 198.997h-25.06a1.933 1.933 0 0 1-1.927-1.934c0-1.066.864-1.933 1.927-1.933h25.06a1.933 1.933 0 0 1 0 3.867zm-66.987 0h-25.06a1.933 1.933 0 0 1 0-3.867h25.06a1.933 1.933 0 0 1 0 3.867z"/><path fill="#3f3d56" d="M153.997 51.196H59.983v.483h94.014z"/><path fill="#e6e6e6" d="M140.725 75.488h-67.47a1.934 1.934 0 0 1 0-3.868h67.47c1.062 0 1.927.868 1.927 1.934a1.933 1.933 0 0 1-1.927 1.934z"/><path fill="#3f3d56" d="M153.997 80.683H59.983v.484h94.014z"/><path fill="#e6e6e6" d="M140.725 104.975h-67.47a1.932 1.932 0 0 1-1.927-1.933c0-1.067.865-1.934 1.928-1.934h67.469c1.062 0 1.927.867 1.927 1.934a1.932 1.932 0 0 1-1.927 1.933z"/><path fill="#3f3d56" d="M153.997 110.171H59.983v.483h94.014zm0 25.137H59.983v.483h94.014zm0 25.137H59.983v.483h94.014z"/></g><g style="fill:none" transform="matrix(.78106 0 0 .78106 71.751 57.708)"><path fill="#fff" d="M148.873 56H10.129C4.544 56 0 53.967 0 51.468V4.532C0 2.033 4.544 0 10.13 0h138.743c5.585 0 10.13 2.033 10.13 4.532v46.936c0 2.499-4.545 4.532-10.13 4.532z" style="stroke-width:.984646"/><path fill="#232323" d="M65.62 23.512a14.895 14.895 0 0 1 2.207-4.057c1.662-2.188 3.763-3.748 6.3-4.69a13.929 13.929 0 0 1 5.083-.889c1.351.016 2.686.211 3.98.623 3.815 1.224 6.701 3.613 8.575 7.252.94 1.826 1.44 3.78 1.557 5.839.079 1.403-.022 2.79-.37 4.154-.253.997-.638 1.945-1.034 2.892-.206.493-.401.997-.602 1.5a.422.422 0 0 0 0 .331c.607 1.463 1.203 2.925 1.81 4.387.148.363.333.715.27 1.127v.07c-.016.076-.022.157-.059.222-.216.407-.533.7-.981.813-.38.092-.75.005-1.098-.146-1.414-.623-2.829-1.246-4.243-1.88-.232-.103-.438-.108-.654.022-.037.027-.08.043-.116.07a14.033 14.033 0 0 1-6.127 1.928 13.875 13.875 0 0 1-3.816-.222c-2.406-.476-4.575-1.484-6.438-3.12-3.362-2.951-5.019-6.726-5.114-10.474 0-2.486.295-4.144.87-5.752zm6.703-4.815c-1.05.758-1.937 1.679-2.723 2.746h1.768c.327 0 .654-.011.981 0 .1 0 .153-.044.185-.13.327-.834.744-1.62 1.24-2.362.354-.53.744-1.034 1.12-1.554.025-.033.052-.065.094-.13-.971.368-1.852.834-2.67 1.424zm1.53 10.377a18.63 18.63 0 0 0 .502 3.661c.02.092.074.087.137.087h9.061c.1 0 .137-.027.164-.13.38-1.57.549-3.168.49-4.788a18.63 18.63 0 0 0-.485-3.623c-.016-.065-.032-.098-.11-.098H74.36c-.084.39-.169.78-.243 1.175a17.105 17.105 0 0 0-.269 3.71zm5.172-12.154c-1.43 1.294-2.68 2.724-3.599 4.463h7.193c-.116-.682-2.517-3.667-3.594-4.463Zm4.085.374c.317.433.623.84.913 1.256.58.829 1.071 1.717 1.478 2.649.068.157.163.238.343.238.744 0 1.493 0 2.237.006h.385c-1.403-1.929-3.171-3.315-5.361-4.15zm7.325 13.838c.2-.829.295-1.679.3-2.54.011-1.495-.263-2.93-.765-4.328-.026-.07-.052-.108-.137-.108-1.113 0-2.232-.01-3.346-.022h-.084a20.953 20.953 0 0 1 0 8.688h3.567c.159-.569.333-1.126.47-1.695zm-6.602 8.276c.586-.265 1.14-.585 1.668-.953.585-.412 1.192-.46 1.841-.173.707.314 1.42.623 2.127.931.032.011.069.022.1.038-.205-.504-.4-1.002-.601-1.495-.09-.227-.185-.45-.29-.671a2.342 2.342 0 0 1-.217-.905c0-.206.037-.417.058-.634h-.063c-.913 0-1.826 0-2.734.006-.079 0-.121.016-.153.097-.596 1.441-1.43 2.736-2.396 3.938a.308.308 0 0 0-.074.13c.248-.103.496-.2.734-.309zm-4.824.628c.898-.536 3.198-3.368 3.605-4.435h-7.199c.924 1.733 2.18 3.157 3.594 4.436zm-9.166-4.056c.596.785 1.319 1.43 2.1 2.01a13.87 13.87 0 0 0 2.908 1.651c.031.011.063.022.116.044-.174-.277-.338-.531-.496-.786-.628-1.024-1.256-2.042-1.874-3.066-.121-.205-.258-.297-.506-.292-.802.01-1.605 0-2.412-.01h-.158c.116.167.21.313.311.454zm-2.507-6.976a12.37 12.37 0 0 0 .755 3.71c.02.065.052.114.132.114 1.118 0 2.237.01 3.361.016h.074a21.184 21.184 0 0 1 0-8.699h-.148c-1.097.006-2.195.017-3.293.017-.079 0-.116.027-.137.097-.549 1.533-.818 3.109-.75 4.745zm-26.237 1.657h-.757l-.269-.259a6.201 6.201 0 0 0 1.505-4.053 6.229 6.229 0 1 0-6.23 6.229 6.201 6.201 0 0 0 4.054-1.505l.26.268v.758l4.79 4.782 1.429-1.428zm-5.75 0a4.307 4.307 0 0 1-4.313-4.312 4.307 4.307 0 0 1 4.313-4.313 4.307 4.307 0 0 1 4.312 4.313 4.307 4.307 0 0 1-4.312 4.312z"/><rect width="149" height="50" x="4" y="3" stroke="#3f3d56" stroke-width="2" rx="9"/></g><path d="M167.357 74.96a1.562 1.562 0 1 0 3.125 0 1.562 1.562 0 0 0-3.125 0zm0 5.468a1.562 1.562 0 1 0 3.125 0 1.562 1.562 0 0 0-3.125 0zm0 5.467a1.562 1.562 0 1 0 3.125 0 1.562 1.562 0 0 0-3.125 0z" fill="#3f3d56"/></svg>