<?xml version="1.0" encoding="UTF-8" standalone="no"?>
<svg
   width="196"
   height="221"
   viewBox="0 0 196 221"
   fill="none"
   version="1.1"
   id="svg35"
   sodipodi:docname="welcome.svg"
   xml:space="preserve"
   xmlns:inkscape="http://www.inkscape.org/namespaces/inkscape"
   xmlns:sodipodi="http://sodipodi.sourceforge.net/DTD/sodipodi-0.dtd"
   xmlns="http://www.w3.org/2000/svg"
   xmlns:svg="http://www.w3.org/2000/svg"><sodipodi:namedview
     id="namedview35"
     pagecolor="#ffffff"
     bordercolor="#999999"
     borderopacity="1"
     inkscape:showpageshadow="2"
     inkscape:pageopacity="0"
     inkscape:pagecheckerboard="0"
     inkscape:deskcolor="#d1d1d1" /><defs
     id="defs35"><clipPath
       id="a"><path
         fill="#ffffff"
         d="M -20,0 H 175.5 V 221 H -20 Z"
         id="path13" /></clipPath></defs><g
     style="fill:none"
     id="g35"
     transform="matrix(0.78105781,0,0,0.78105781,-0.75435978,40.796889)"><g
       clip-path="url(#a)"
       transform="translate(-36.52,1.538)"
       id="g12"><path
         fill="#cccccc"
         d="m -20,220.425 c 0,0.319 0.255,0.575 0.574,0.575 h 194.353 a 0.572,0.572 0 0 0 0.573,-0.575 0.572,0.572 0 0 0 -0.573,-0.575 H -19.426 A 0.572,0.572 0 0 0 -20,220.425 Z"
         id="path1" /><path
         fill="#3f3d56"
         d="M 149.501,221 H 64.479 C 54.112,221 45.678,212.54 45.678,202.141 V 18.859 C 45.678,8.46 54.112,0 64.478,0 h 85.023 c 10.367,0 18.801,8.46 18.801,18.86 v 183.28 c 0,10.399 -8.434,18.859 -18.801,18.859 z"
         id="path2" /><path
         fill="#3f3d56"
         d="m 168.302,67.417 a 0.797,0.797 0 0 0 -0.795,0.798 v 25.53 c 0,0.44 0.357,0.798 0.795,0.798 a 0.798,0.798 0 0 0 0.796,-0.798 v -25.53 a 0.798,0.798 0 0 0 -0.796,-0.798 z"
         id="path3" /><path
         fill="#ffffff"
         d="m 166.513,18.86 v 183.278 c 0,9.051 -7.023,16.455 -15.904,17.029 h -0.004 c -0.131,0.008 -0.262,0.016 -0.397,0.02 -0.235,0.012 -0.47,0.016 -0.708,0.016 l -2.474,-0.183 c -1.615,-0.12 -3.965,-0.3 -6.896,-0.535 -0.879,-0.068 -1.806,-0.144 -2.784,-0.223 -1.949,-0.16 -4.088,-0.335 -6.383,-0.535 -0.915,-0.076 -1.861,-0.159 -2.827,-0.243 -4.94,-0.427 -10.472,-0.926 -16.306,-1.492 a 550.42,550.42 0 0 1 -2.982,-0.287 c -0.263,-0.028 -0.529,-0.052 -0.796,-0.08 -4.16,-0.411 -60.585,-11.349 -60.585,-13.488 V 18.859 c 0,-9.426 7.616,-17.065 17.014,-17.065 h 10.157 c 1.622,0 2.927,1.268 3.066,2.892 0.012,0.107 0.024,0.215 0.044,0.323 0.294,1.631 1.785,2.768 3.44,2.768 h 51.605 c 1.654,0 3.145,-1.137 3.44,-2.768 0.019,-0.108 0.031,-0.216 0.043,-0.323 0.14,-1.624 1.444,-2.892 3.067,-2.892 H 149.5 c 9.397,0 17.013,7.639 17.013,17.065 z"
         id="path4" /><path
         fill="#3f3d56"
         d="m 45.28,48.269 a 0.797,0.797 0 0 0 -0.795,0.798 v 6.383 c 0,0.44 0.356,0.797 0.795,0.797 A 0.797,0.797 0 0 0 46.075,55.45 V 49.067 A 0.797,0.797 0 0 0 45.28,48.269 Z m 0,19.148 a 0.797,0.797 0 0 0 -0.795,0.798 V 80.58 c 0,0.44 0.356,0.798 0.795,0.798 A 0.797,0.797 0 0 0 46.075,80.58 V 68.215 A 0.797,0.797 0 0 0 45.28,67.417 Z m 0,17.553 a 0.797,0.797 0 0 0 -0.795,0.797 v 12.367 c 0,0.44 0.356,0.797 0.795,0.797 a 0.797,0.797 0 0 0 0.795,-0.797 V 85.767 A 0.797,0.797 0 0 0 45.28,84.969 Z"
         id="path5" /><path
         fill="#e6e6e6"
         d="M 74.36,4.588 H 59.15 A 0.15,0.15 0 0 0 59,4.738 v 1.694 c 0,0.083 0.067,0.15 0.15,0.15 h 15.21 a 0.15,0.15 0 0 0 0.15,-0.15 V 4.738 a 0.15,0.15 0 0 0 -0.15,-0.15 z m 67.496,1.994 c 0.878,0 1.591,-0.714 1.591,-1.595 0,-0.882 -0.713,-1.596 -1.591,-1.596 -0.879,0 -1.591,0.714 -1.591,1.596 0,0.88 0.712,1.595 1.591,1.595 z m 4.375,0 c 0.878,0 1.59,-0.714 1.59,-1.595 0,-0.882 -0.712,-1.596 -1.59,-1.596 -0.879,0 -1.591,0.714 -1.591,1.596 0,0.88 0.712,1.595 1.591,1.595 z m 4.374,0 c 0.879,0 1.591,-0.714 1.591,-1.595 0,-0.882 -0.712,-1.596 -1.591,-1.596 -0.878,0 -1.591,0.714 -1.591,1.596 0,0.88 0.713,1.595 1.591,1.595 z M 140.725,46 h -67.47 a 1.933,1.933 0 0 1 -1.927,-1.934 c 0,-1.066 0.865,-1.933 1.928,-1.933 h 67.469 a 1.9335,1.9335 0 0 1 0,3.867 z"
         id="path6" /><path
         fill="currentColor"
         d="m 152.069,198.997 h -25.06 a 1.933,1.933 0 0 1 -1.927,-1.934 c 0,-1.066 0.864,-1.933 1.927,-1.933 h 25.06 a 1.9335,1.9335 0 0 1 0,3.867 z m -66.987,0 h -25.06 a 1.9335,1.9335 0 0 1 0,-3.867 h 25.06 a 1.9335,1.9335 0 0 1 0,3.867 z"
         id="path7" /><path
         fill="#3f3d56"
         d="M 153.997,51.196 H 59.983 v 0.483 h 94.014 z"
         id="path8" /><path
         fill="#e6e6e6"
         d="m 140.725,75.488 h -67.47 a 1.934,1.934 0 0 1 0,-3.868 h 67.47 c 1.062,0 1.927,0.868 1.927,1.934 a 1.933,1.933 0 0 1 -1.927,1.934 z"
         id="path9" /><path
         fill="#3f3d56"
         d="M 153.997,80.683 H 59.983 v 0.484 h 94.014 z"
         id="path10" /><path
         fill="#e6e6e6"
         d="m 140.725,104.975 h -67.47 a 1.932,1.932 0 0 1 -1.927,-1.933 c 0,-1.067 0.865,-1.934 1.928,-1.934 h 67.469 c 1.062,0 1.927,0.867 1.927,1.934 a 1.932,1.932 0 0 1 -1.927,1.933 z"
         id="path11" /><path
         fill="#3f3d56"
         d="M 153.997,110.171 H 59.983 v 0.483 h 94.014 z m 0,25.137 H 59.983 v 0.483 h 94.014 z m 0,25.137 H 59.983 v 0.483 h 94.014 z"
         id="path12" /></g><g
       style="fill:none"
       transform="translate(92.83,21.652)"
       id="g15"><path
         fill="#ffffff"
         d="M 148.873,56 H 10.129 C 4.544,56 0,53.967 0,51.468 V 4.532 C 0,2.033 4.544,0 10.13,0 h 138.743 c 5.585,0 10.13,2.033 10.13,4.532 v 46.936 c 0,2.499 -4.545,4.532 -10.13,4.532 z"
         style="stroke-width:0.984646"
         id="path14" /><path
         fill="#232323"
         d="m 65.62,23.512 a 14.895,14.895 0 0 1 2.207,-4.057 c 1.662,-2.188 3.763,-3.748 6.3,-4.69 a 13.929,13.929 0 0 1 5.083,-0.889 c 1.351,0.016 2.686,0.211 3.98,0.623 3.815,1.224 6.701,3.613 8.575,7.252 0.94,1.826 1.44,3.78 1.557,5.839 0.079,1.403 -0.022,2.79 -0.37,4.154 -0.253,0.997 -0.638,1.945 -1.034,2.892 -0.206,0.493 -0.401,0.997 -0.602,1.5 a 0.422,0.422 0 0 0 0,0.331 c 0.607,1.463 1.203,2.925 1.81,4.387 0.148,0.363 0.333,0.715 0.27,1.127 v 0.07 c -0.016,0.076 -0.022,0.157 -0.059,0.222 -0.216,0.407 -0.533,0.7 -0.981,0.813 -0.38,0.092 -0.75,0.005 -1.098,-0.146 -1.414,-0.623 -2.829,-1.246 -4.243,-1.88 -0.232,-0.103 -0.438,-0.108 -0.654,0.022 -0.037,0.027 -0.08,0.043 -0.116,0.07 a 14.033,14.033 0 0 1 -6.127,1.928 13.875,13.875 0 0 1 -3.816,-0.222 c -2.406,-0.476 -4.575,-1.484 -6.438,-3.12 -3.362,-2.951 -5.019,-6.726 -5.114,-10.474 0,-2.486 0.295,-4.144 0.87,-5.752 z m 6.703,-4.815 c -1.05,0.758 -1.937,1.679 -2.723,2.746 h 1.768 c 0.327,0 0.654,-0.011 0.981,0 0.1,0 0.153,-0.044 0.185,-0.13 0.327,-0.834 0.744,-1.62 1.24,-2.362 0.354,-0.53 0.744,-1.034 1.12,-1.554 0.025,-0.033 0.052,-0.065 0.094,-0.13 -0.971,0.368 -1.852,0.834 -2.67,1.424 z m 1.53,10.377 c 0.043,1.24 0.217,2.459 0.502,3.661 0.02,0.092 0.074,0.087 0.137,0.087 h 9.061 c 0.1,0 0.137,-0.027 0.164,-0.13 0.38,-1.57 0.549,-3.168 0.49,-4.788 A 18.63,18.63 0 0 0 83.722,24.281 C 83.706,24.216 83.69,24.183 83.612,24.183 H 74.36 c -0.084,0.39 -0.169,0.78 -0.243,1.175 a 17.105,17.105 0 0 0 -0.269,3.71 z M 79.025,16.92 c -1.43,1.294 -2.68,2.724 -3.599,4.463 h 7.193 C 82.503,20.701 80.102,17.716 79.025,16.92 Z m 4.085,0.374 c 0.317,0.433 0.623,0.84 0.913,1.256 0.58,0.829 1.071,1.717 1.478,2.649 0.068,0.157 0.163,0.238 0.343,0.238 0.744,0 1.493,0 2.237,0.006 h 0.385 c -1.403,-1.929 -3.171,-3.315 -5.361,-4.15 z m 7.325,13.838 c 0.2,-0.829 0.295,-1.679 0.3,-2.54 0.011,-1.495 -0.263,-2.93 -0.765,-4.328 -0.026,-0.07 -0.052,-0.108 -0.137,-0.108 -1.113,0 -2.232,-0.01 -3.346,-0.022 h -0.084 c 0.607,2.904 0.607,5.801 0,8.688 h 3.567 c 0.159,-0.569 0.333,-1.126 0.47,-1.695 z m -6.602,8.276 c 0.586,-0.265 1.14,-0.585 1.668,-0.953 0.585,-0.412 1.192,-0.46 1.841,-0.173 0.707,0.314 1.42,0.623 2.127,0.931 0.032,0.011 0.069,0.022 0.1,0.038 -0.205,-0.504 -0.4,-1.002 -0.601,-1.495 -0.09,-0.227 -0.185,-0.45 -0.29,-0.671 A 2.342,2.342 0 0 1 88.461,36.18 c 0,-0.206 0.037,-0.417 0.058,-0.634 h -0.063 c -0.913,0 -1.826,0 -2.734,0.006 -0.079,0 -0.121,0.016 -0.153,0.097 -0.596,1.441 -1.43,2.736 -2.396,3.938 a 0.308,0.308 0 0 0 -0.074,0.13 c 0.248,-0.103 0.496,-0.2 0.734,-0.309 z m -4.824,0.628 c 0.898,-0.536 3.198,-3.368 3.605,-4.435 h -7.199 c 0.924,1.733 2.18,3.157 3.594,4.436 z M 69.843,35.98 c 0.596,0.785 1.319,1.43 2.1,2.01 a 13.87,13.87 0 0 0 2.908,1.651 c 0.031,0.011 0.063,0.022 0.116,0.044 -0.174,-0.277 -0.338,-0.531 -0.496,-0.786 -0.628,-1.024 -1.256,-2.042 -1.874,-3.066 -0.121,-0.205 -0.258,-0.297 -0.506,-0.292 -0.802,0.01 -1.605,0 -2.412,-0.01 h -0.158 c 0.116,0.167 0.21,0.313 0.311,0.454 z m -2.507,-6.976 c 0.053,1.278 0.322,2.513 0.755,3.71 0.02,0.065 0.052,0.114 0.132,0.114 1.118,0 2.237,0.01 3.361,0.016 h 0.074 a 21.184,21.184 0 0 1 0,-8.699 H 71.51 c -1.097,0.006 -2.195,0.017 -3.293,0.017 -0.079,0 -0.116,0.027 -0.137,0.097 -0.549,1.533 -0.818,3.109 -0.75,4.745 z m -26.237,1.657 h -0.757 l -0.269,-0.259 a 6.201,6.201 0 0 0 1.505,-4.053 6.229,6.229 0 1 0 -6.23,6.229 6.201,6.201 0 0 0 4.054,-1.505 l 0.26,0.268 v 0.758 l 4.79,4.782 1.429,-1.428 z m -5.75,0 a 4.307,4.307 0 0 1 -4.313,-4.312 4.307,4.307 0 0 1 4.313,-4.313 4.307,4.307 0 0 1 4.312,4.313 4.307,4.307 0 0 1 -4.312,4.312 z"
         id="path15" /><rect
         width="149"
         height="50"
         x="4"
         y="3"
         stroke="#3f3d56"
         stroke-width="2"
         rx="9"
         id="rect15" /></g><g
       fill="#3f3d56"
       style="fill:none"
       id="g16"><path
         d="m 215.236,43.74 a 2,2 0 1 0 4,0 2,2 0 0 0 -4,0 z m 0,7 a 2,2 0 1 0 4,0 2,2 0 0 0 -4,0 z m 0,7 a 2,2 0 1 0 4,0 2,2 0 0 0 -4,0 z"
         id="path16" /></g></g></svg>
