<svg width="239" height="271" viewBox="0 0 239 271" xmlns="http://www.w3.org/2000/svg"><g clip-path="url(#a)"><path d="M153.654 200.64a2.971 2.971 0 0 0 4.286-1.936 2.965 2.965 0 0 0-.133-1.776l.164-.816a7.972 7.972 0 0 1 12.263 1.711 7.957 7.957 0 0 1 1.133 4.514c-.367 8.932.074 18.57-5.868 25.771 27.121-22.141 39.486-59.86 31.204-93.785-4.064-5.658-5.96-13.174-4.137-19.985 2.287 2.222 6.745 1.625 6.064-2.222-.366-1.52-.744-3.036-1.109-4.557 15.62-6.089 19.698 17.116 1.195 26.564a94.944 94.944 0 0 1 2.453 19.659 39.938 39.938 0 0 1 10.147-15.724c4.434-3.989 10.298-6.335 15.753-9.011 6.637-3.265 14.004 3.208 11.391 10.119-4.419-.565-7.546 4.712-3.536 7.547-7.043 11.817-20.547 19.328-34.267 19.448a95.341 95.341 0 0 1-12.461 38.232c8.764-13.316 25.727-9.482 39.132-10.049a4.616 4.616 0 0 1 4.345 7.246 26.732 26.732 0 0 0-5.282.215 4.034 4.034 0 0 0-3.364 3.202 4.027 4.027 0 0 0 1.888 4.241c-11.76 10.77-29.981 13.085-44.282 6.213a98.076 98.076 0 0 1-14.234 14.524l-21.261-10.125c.037-.273.084-.549.128-.818a26.8 26.8 0 0 0 6.05 2.452c-2.268-8.639-4.795-13.699 2.337-20.854h.001ZM116.085 180.205a2.96 2.96 0 0 1-1.498.964 2.96 2.96 0 0 1-1.781-.068 2.959 2.959 0 0 1-1.968-2.77l-.46-.694a7.975 7.975 0 0 0-8.677 2.021 7.96 7.96 0 0 0-1.379 8.794c3.712 8.133 6.942 17.226 15.164 21.656-33.477-10.286-59.17-40.558-64.308-75.099 1.628-6.771.546-14.446-3.713-20.067-1.28 2.92-5.633 4.047-6.455.227-.235-1.545-.457-3.092-.693-4.638-16.766.247-11.782 23.275 8.922 25.052a94.938 94.938 0 0 0 5.15 19.131 39.986 39.986 0 0 0-15.333-10.738c-5.613-2.023-11.93-1.986-17.991-2.409-7.38-.522-11.76 8.249-6.73 13.664 3.879-2.188 8.767 1.52 6.124 5.658 10.984 8.29 26.326 10.157 39.078 5.097a95.403 95.403 0 0 0 25.975 30.711c-13.144-9.029-27.406.914-40.035 5.441a4.613 4.613 0 0 0-1.288 8.349 26.694 26.694 0 0 1 4.973-1.792 4.036 4.036 0 0 1 4.324 1.697 4.027 4.027 0 0 1-.147 4.64c14.957 5.543 32.706.82 43.356-10.934a98.178 98.178 0 0 0 18.666 8.087l15.867-17.39c-.136-.239-.285-.476-.427-.709a26.758 26.758 0 0 1-4.677 4.551c-1.161-8.856-.731-14.494-10.038-18.433l-.001.001ZM120.169 106.722a2.966 2.966 0 0 0 2.477-3.995 2.968 2.968 0 0 0-1.101-1.4 250.13 250.13 0 0 1-.319-.769 7.958 7.958 0 0 1 6.523-6.062 7.976 7.976 0 0 1 8.071 3.768c4.68 7.62 10.425 15.375 9.511 24.662 10.157-33.488-.627-71.688-26.434-95.237-6.531-2.433-12.299-7.616-14.587-14.286 3.138.571 6.506-2.408 3.794-5.222-1.152-1.058-2.312-2.106-3.464-3.165 9.569-13.756 25.904 3.235 15.816 21.385a95.054 95.054 0 0 1 13.008 14.954 39.91 39.91 0 0 1-.352-18.705c1.455-5.781 5.014-10.995 8.049-16.255 3.688-6.408 13.416-5.138 15.103 2.054-3.984 1.993-3.635 8.115 1.276 8.235.749 13.733-6.27 27.49-17.593 35.233a95.33 95.33 0 0 1 10.991 38.68c-.155-15.937 16.065-22.203 26.877-30.141a4.619 4.619 0 0 1 7.651 3.595 26.665 26.665 0 0 0-4.265 3.12 4.027 4.027 0 0 0 2.928 7.001c-3.751 15.492-17.586 27.564-33.293 29.825a97.987 97.987 0 0 1-3.71 19.986l-23.301 3.438c-.122-.247-.236-.502-.35-.75a26.794 26.794 0 0 0 6.391-1.335c-6.704-5.908-11.626-8.7-9.698-18.613l.001-.001Z" fill="#F2F2F2"/><path d="M143.604 99.258c-10.608 0-16.362-1.295-18.371-4.06-1.773-2.439-.585-5.657.792-9.384.989-2.678 2.11-5.714 2.11-8.718 0-14.614 7.417-22.024 22.043-22.024 7.278 0 15.092 3.863 20.903 10.332 5.282 5.882 7.914 12.921 7.22 19.313-.57 5.242-3.012 8.69-7.686 10.85l-.273.126-.078-.291a12.43 12.43 0 0 0-2.014-4.172 14.257 14.257 0 0 1-1.457 5.657l-.049.1-.108.031c-5.291 1.506-11.569 1.913-16.448 2.1a171.1 171.1 0 0 1-6.584.14Z" fill="#2F2E41"/><path d="M146.495 119.619a7.943 7.943 0 0 0-5.221-5.039 7.95 7.95 0 0 0-7.139 1.31l-34.893 20.842-10.918-26.617a7.737 7.737 0 0 0-.276-9.102 7.75 7.75 0 0 0-8.751-2.548 7.751 7.751 0 0 0-5.126 7.531 7.75 7.75 0 0 0 5.588 7.195c.673 7.676 4.413 41.981 17.424 40.734 10.936-1.048 38.094-19.118 46.529-25.384a7.928 7.928 0 0 0 2.783-8.922Z" fill="#FFB6B6"/><path d="M172.789 271H142.42l-5.093-25.157L135.675 271h-28.21a574.498 574.498 0 0 1 3.086-59.148l.35-1.19.552-1.904.35-1.195 5.838-20.028.461-1.59h35.152a51.425 51.425 0 0 1 5.579 6.157 70.688 70.688 0 0 1 1.784 2.369 74.98 74.98 0 0 1 1.307 1.899 63.753 63.753 0 0 1 8.666 19.036v.005c.309 1.159.582 2.345.821 3.559v.005c.212 1.078.4 2.172.547 3.291.111.815.208 1.64.279 2.475a56.747 56.747 0 0 1-.441 13.883l.993 32.376Z" fill="#2F2E41"/><path d="M11.773 40.968c1.973-.762 3.14-2.492 2.61-3.863-.531-1.37-2.56-1.863-4.533-1.1-1.972.762-3.14 2.492-2.61 3.862.532 1.371 2.561 1.864 4.533 1.101Z" fill="#E6E6E6"/><path d="M36.605 37.786c1.973-.763 3.14-2.492 2.61-3.863-.531-1.371-2.56-1.864-4.533-1.101-1.972.763-3.14 2.492-2.61 3.863.532 1.37 2.561 1.863 4.533 1.1Z" fill="#3F3D56"/><path d="M9.62 62.135c1.972-.763 3.14-2.492 2.61-3.863-.532-1.37-2.561-1.864-4.533-1.101-1.973.763-3.141 2.492-2.61 3.863.531 1.37 2.56 1.864 4.533 1.1Z" fill="currentColor"/><path d="M2.436 71.472c.905-.214 1.389-1.441 1.081-2.74-.308-1.3-1.29-2.18-2.196-1.966-.904.214-1.388 1.44-1.08 2.74.307 1.3 1.29 2.18 2.195 1.966Z" fill="#E6E6E6"/><path d="M2.288 87.279c.905-.214 1.39-1.441 1.081-2.74-.308-1.3-1.29-2.18-2.195-1.966-.905.214-1.389 1.44-1.081 2.74.308 1.3 1.29 2.18 2.195 1.966Z" fill="#3F3D56"/><path d="M24.083 54.538c.905-.214 1.388-1.44 1.08-2.74-.307-1.3-1.29-2.18-2.195-1.965-.905.214-1.389 1.44-1.081 2.74.308 1.3 1.29 2.18 2.196 1.965Z" fill="#E6E6E6"/><path d="M11.004 51.365c.905-.214 1.389-1.44 1.081-2.74-.308-1.3-1.29-2.18-2.196-1.965-.904.213-1.388 1.44-1.08 2.74.307 1.3 1.29 2.18 2.195 1.965Z" fill="currentColor"/><path d="M24.866 36.81c.905-.215 1.39-1.442 1.081-2.74-.308-1.3-1.29-2.18-2.195-1.966-.905.214-1.39 1.44-1.081 2.74.308 1.3 1.29 2.18 2.195 1.965Z" fill="#3F3D56"/><path d="M31.313 146.215c.954-1.12.422-3.137-1.189-4.507-1.61-1.369-3.689-1.572-4.642-.453-.954 1.119-.422 3.137 1.189 4.507 1.61 1.369 3.689 1.572 4.642.453Z" fill="#E6E6E6"/><path d="M16.689 125.914c.953-1.12.42-3.137-1.19-4.507-1.61-1.369-3.689-1.572-4.642-.453-.954 1.119-.421 3.137 1.189 4.506 1.61 1.37 3.689 1.573 4.643.454Z" fill="#3F3D56"/><path d="M50.969 138.028c.953-1.119.421-3.136-1.19-4.506-1.61-1.37-3.688-1.572-4.642-.453-.954 1.119-.421 3.137 1.19 4.506 1.61 1.37 3.688 1.573 4.642.453Z" fill="currentColor"/><path d="M60.733 138.253c.998-.89 1.304-2.172.685-2.865-.62-.693-1.93-.534-2.927.355-.997.889-1.303 2.172-.684 2.865.619.693 1.93.534 2.926-.355Z" fill="#E6E6E6"/><path d="M74.717 130.856c.997-.889 1.303-2.172.684-2.865-.619-.693-1.93-.534-2.926.355-.997.889-1.304 2.172-.685 2.865.62.693 1.93.534 2.927-.355Z" fill="#3F3D56"/><path d="M35.523 127.297c.997-.889 1.303-2.171.684-2.865-.62-.693-1.93-.534-2.927.356-.997.889-1.303 2.172-.684 2.865.619.693 1.93.534 2.927-.356Z" fill="#E6E6E6"/><path d="M38.957 140.298c.997-.889 1.303-2.171.684-2.864-.619-.694-1.93-.534-2.926.355-.998.889-1.304 2.172-.685 2.865.62.693 1.93.534 2.927-.356Z" fill="currentColor"/><path d="M19.545 135.05c.997-.889 1.303-2.171.684-2.865-.619-.693-1.929-.534-2.926.356-.997.889-1.304 2.172-.685 2.865.62.693 1.93.534 2.927-.356Z" fill="#3F3D56"/><path d="M129.563 16.01c1.32-.649 1.634-2.712.7-4.608-.933-1.896-2.76-2.907-4.08-2.258-1.32.649-1.634 2.711-.7 4.607.933 1.897 2.76 2.908 4.08 2.259Z" fill="#E6E6E6"/><path d="M134.912 40.445c1.32-.648 1.634-2.711.7-4.608-.933-1.896-2.76-2.907-4.08-2.258-1.32.649-1.634 2.712-.7 4.608.933 1.896 2.76 2.907 4.08 2.258Z" fill="#3F3D56"/><path d="M108.27 15.721c1.32-.648 1.634-2.711.7-4.607-.933-1.896-2.76-2.908-4.08-2.259-1.32.649-1.634 2.712-.7 4.608.933 1.896 2.76 2.907 4.08 2.258Z" fill="currentColor"/><path d="M97.078 7.967c1.269-.42 2.06-1.476 1.767-2.358-.292-.881-1.558-1.255-2.827-.835-1.268.42-2.06 1.475-1.767 2.357.293.882 1.558 1.256 2.827.836Z" fill="#E6E6E6"/><path d="M81.304 9.205c1.269-.42 2.06-1.476 1.767-2.358-.292-.881-1.558-1.256-2.826-.835-1.27.42-2.06 1.475-1.768 2.357.293.882 1.559 1.256 2.827.836Z" fill="#3F3D56"/><path d="M115.858 28.027c1.269-.42 2.06-1.476 1.768-2.358-.293-.881-1.559-1.256-2.827-.835-1.269.42-2.06 1.476-1.768 2.357.293.882 1.559 1.256 2.827.836Z" fill="#E6E6E6"/><path d="M117.876 14.733c1.268-.42 2.06-1.476 1.767-2.358-.293-.882-1.558-1.256-2.827-.835-1.268.42-2.06 1.475-1.767 2.357.292.882 1.558 1.256 2.827.836Z" fill="currentColor"/><path d="M133.604 27.253c1.268-.42 2.059-1.475 1.767-2.357-.293-.882-1.558-1.256-2.827-.836-1.269.42-2.06 1.476-1.767 2.358.292.882 1.558 1.256 2.827.835Z" fill="#3F3D56"/><path d="m138.473 103.326 16.731-.861 7.771 12.268s14.621 2.442 13.607 19.655c-1.013 17.214-17.789 32.319-17.789 32.319l.717 8.964-1.246 3.555.16 1.997 1.699 2.114.175 2.186-1.505 3.46 2.047 3.312-43.039-4.166-1.574-5.728 2.296-3.076-1.283-4.012 1.928-3.858 1.006-12.258s-10.999-16.508 1.627-28.942l5.067-8.607 5.67-6.911 5.935-11.411Z" fill="currentColor"/><path d="M146.791 99.862c9.791 0 17.728-7.93 17.728-17.712s-7.937-17.711-17.728-17.711-17.728 7.93-17.728 17.711c0 9.782 7.937 17.712 17.728 17.712Z" fill="#FFB6B6"/><path d="M144.417 81.077a81.39 81.39 0 0 1-4.58-.13l-.273-.014.036-.271a12.39 12.39 0 0 0-.372-5.049 14.28 14.28 0 0 1-3.482 4.915l-.085.077-.114-.012a87.61 87.61 0 0 1-12.289-2.24l-.154-.04-.031-.155a23.085 23.085 0 0 1-.466-4.495c0-4.716 1.711-8.686 4.819-11.178 3.383-2.712 8.232-3.546 13.659-2.35h17.353a7.207 7.207 0 0 1 5.086 2.108 7.194 7.194 0 0 1 2.11 5.081v10.98l-.189.05a83.085 83.085 0 0 1-21.028 2.723Z" fill="#2F2E41"/><path d="M23.452 61.376a3.122 3.122 0 0 0-1.863 3.996l18.72 51.32a3.122 3.122 0 0 0 4 1.862l72.658-26.456a3.12 3.12 0 0 0 1.863-3.996l-18.721-51.32a3.12 3.12 0 0 0-4-1.862L23.453 61.376Z" fill="#CCC"/><path d="m89.925 99.115-44.474 16.194a3.365 3.365 0 0 1-4.304-2.004l-16.98-46.547a3.356 3.356 0 0 1 2.005-4.301l68.552-24.96A3.365 3.365 0 0 1 99.03 39.5l8.204 22.49a28.971 28.971 0 0 1-.97 22.139 29.01 29.01 0 0 1-16.338 14.986Z" fill="#fff"/><path d="m57.924 65.488-10.569 3.849a1.078 1.078 0 0 1-1.16-.284 1.073 1.073 0 0 1 .425-1.733l10.568-3.848a1.075 1.075 0 0 1 1.342 1.461c-.12.258-.339.458-.606.555ZM83.12 60.986 48.86 73.461a1.075 1.075 0 0 1-1.343-1.462 1.073 1.073 0 0 1 .607-.555l34.26-12.475a1.076 1.076 0 0 1 1.44 1.055 1.072 1.072 0 0 1-.705.962ZM84.846 65.72l-34.26 12.475a1.074 1.074 0 0 1-.735-2.017l34.26-12.474a1.075 1.075 0 0 1 .735 2.016ZM86.573 70.454l-34.26 12.475a1.076 1.076 0 0 1-1.442-1.055 1.075 1.075 0 0 1 .707-.962l34.26-12.475a1.074 1.074 0 0 1 .735 2.017ZM88.3 75.188 54.04 87.662a1.075 1.075 0 0 1-1.341-1.461c.12-.258.338-.458.605-.555l34.26-12.475a1.074 1.074 0 0 1 .736 2.017Z" fill="currentColor"/><path d="m197.006 88.335-18.758 44.846a7.858 7.858 0 0 1-14.54-.166 7.848 7.848 0 0 1 .187-6.194l20.914-45.987 11.529-28.479a6.842 6.842 0 0 1 1.411-10.775 6.856 6.856 0 0 1 10.048 4.161 6.839 6.839 0 0 1-2.699 7.38l-8.092 35.214Z" fill="#FFB6B6"/></g><defs><clipPath id="a"><path fill="#fff" d="M0 0h239v271H0z"/></clipPath></defs></svg>