<svg fill="#000000" width="234.947" height="276.466" viewBox="0 0 234.947 276.466" xml:space="preserve" xmlns="http://www.w3.org/2000/svg"><path d="M19.696 275.07c.055-.094 1.352-2.354 1.802-7.046.412-4.306.147-11.562-3.459-21.684-6.831-19.177 1.574-34.65 1.66-34.803l-.415-.251c-.021.039-2.19 3.984-3.471 10.265a46.636 46.636 0 0 0 1.777 24.963c6.819 19.143 1.75 28.206 1.697 28.295zM22.61 210.32c-1.602 0-2.9-1.515-2.9-3.383s1.298-3.382 2.9-3.382c1.6 0 2.899 1.514 2.899 3.382s-1.298 3.383-2.9 3.383z" fill="#f1f1f1"/><path d="M12.462 221.917c-1.868 0-3.382-1.298-3.382-2.9 0-1.601 1.514-2.9 3.382-2.9s3.383 1.299 3.383 2.9c0 1.602-1.515 2.9-3.383 2.9zM19.227 230.614a3.382 3.382 0 1 1 0-6.765 3.382 3.382 0 0 1 0 6.765zM10.53 237.379a3.382 3.382 0 1 1-.001-6.764 3.382 3.382 0 0 1 0 6.764zM22.126 248.01a3.382 3.382 0 1 1 0-6.765 3.382 3.382 0 0 1 0 6.765zM18.171 276.036s3.58-8.284-7.159-14.496zM21.643 275.07s1.548-7.798 13.53-7.731z" fill="#f1f1f1"/><path d="M118.39 170.628a3.392 3.392 0 0 1-2.824-.695 3.467 3.467 0 0 1-.933-1.175 3.52 3.52 0 0 1-.354-1.464l-25.953-24.739 5.84-4.717 23.718 25.863a3.433 3.433 0 0 1 2.253.985 3.532 3.532 0 0 1 .338 4.633 3.446 3.446 0 0 1-2.085 1.309z" fill="#daaf87"/><path d="m91.544 146.938 5.107-6.178c.145-.175.252-.381.314-.604a1.658 1.658 0 0 0-.197-1.323 1.582 1.582 0 0 0-.475-.479l-6.65-4.296a4.238 4.238 0 0 0-3.149-1.037 4.284 4.284 0 0 0-2.94 1.562 4.56 4.56 0 0 0-1.012 3.248 4.515 4.515 0 0 0 1.504 3.038l5.139 6.082c.147.174.329.314.533.409a1.517 1.517 0 0 0 1.297-.008c.203-.097.384-.238.529-.414z" fill="#cbcbcb"/><path d="M105.723 269.27h6.548l3.115-25.126h-9.664z" fill="#daaf87"/><path d="m104.756 275.07 20.294-.001v-.274c0-2.234-.832-4.376-2.313-5.956-1.482-1.58-3.491-2.467-5.586-2.467h-12.395z" fill="#2f2e41"/><path d="M54.503 269.27h6.547l3.116-25.126H54.5z" fill="#daaf87"/><path d="m53.535 275.07 20.295-.001v-.274c0-2.234-.833-4.376-2.314-5.956-1.482-1.58-3.49-2.467-5.586-2.467H53.535zM71.244 160.351l-6.462-23.645 8.383-4.667h11.702l4.552 4.823s7.604 5.24 5.763 11.044l-2.969 13.223 4.541 21 22.88 31.423 5.416 30.865-21.32 5.536-23.054-44.957-11.178 49.779-20.795-1.036 7.165-60.357s2.043-18.386 12.75-29.867z" fill="#2f2e41"/><path d="M58.417 181.256a3.517 3.517 0 0 1-.804-1.279 3.58 3.58 0 0 1 .242-2.958 3.48 3.48 0 0 1 1.002-1.123l4.958-34.192L70.93 144l-7.124 32.93c.44.737.6 1.614.45 2.463-.151.85-.601 1.614-1.266 2.147a3.4 3.4 0 0 1-2.34.746 3.417 3.417 0 0 1-2.234-1.031z" fill="#daaf87"/><path d="m62.73 147.541 8.291.917c.236.026.475.003.701-.067a1.67 1.67 0 0 0 .608-.341c.175-.155.313-.343.405-.553a1.53 1.53 0 0 0 .127-.665l-.268-7.978a4.277 4.277 0 0 0-.979-3.23A4.643 4.643 0 0 0 68.544 134a4.729 4.729 0 0 0-3.37.93 4.36 4.36 0 0 0-1.702 2.941l-2.15 7.685a1.522 1.522 0 0 0 .23 1.302c.134.188.308.347.511.464.203.118.43.193.667.22z" fill="#cbcbcb"/><path d="M92.192 125.344v-10.355c0-3.68-1.375-7.209-3.821-9.811-2.447-2.602-5.766-4.064-9.226-4.064-3.46 0-6.778 1.462-9.225 4.064-2.447 2.602-3.821 6.131-3.821 9.811v10.355c0 .494.185.967.514 1.317.328.35.774.546 1.238.546H90.44c.465 0 .91-.197 1.24-.546.328-.35.512-.823.513-1.317z" fill="#2f2e41"/><path d="M82.044 126.241c-5.07 0-9.18-4.327-9.18-9.664 0-5.338 4.11-9.664 9.18-9.664 5.07 0 9.181 4.326 9.181 9.664 0 5.337-4.11 9.664-9.18 9.664z" fill="#daaf87"/><path d="M96.057 115.414a10.365 10.365 0 0 0-3.107-7.375 10.694 10.694 0 0 0-7.49-3.06h-2a10.693 10.693 0 0 0-7.49 3.06 10.364 10.364 0 0 0-3.107 7.375v.196h4.226l1.441-3.973.288 3.973h2.184l.727-2.004.146 2.004h14.182z" fill="#2f2e41"/><path d="M83.145 127.42a1.814 1.814 0 0 0 .142-1.912c-2.13-4.095-5.11-11.661-1.153-16.327l.284-.336H70.93v17.439l10.436 1.861a1.787 1.787 0 0 0 1.78-.725z" fill="#2f2e41"/><path d="M-.196 275.07h148.052a.353.353 0 0 0 .274-.142.548.548 0 0 0 .114-.342.545.545 0 0 0-.114-.341.353.353 0 0 0-.274-.142H-.196a.354.354 0 0 0-.275.142.546.546 0 0 0-.114.34c0 .13.041.252.114.343a.354.354 0 0 0 .275.142z" fill="#cbcbcb"/><path d="m131.975 157.205-8.097-1.925a1.728 1.728 0 0 0-1.163.132 1.791 1.791 0 0 0-.827.847l-8.294 17.65a1.507 1.507 0 0 0-.015 1.236 1.43 1.43 0 0 0 .911.81l8.228 2.399c.44.128.912.088 1.326-.114.414-.202.742-.551.923-.983l5.292-12.614.16.091 1.008-2.39-.167-.087c.174-1.063 2.814-4.553.715-5.052z" fill="#3f3d56"/><path d="M124.778 155.463c-.766-.226-1.894-.536-2.295.466l-7.992 17.784a.816.816 0 0 0-.007.656.75.75 0 0 0 .466.435l8.067 2.566c1.35 1.624 8.194-18.912 8.73-19.126a.95.95 0 0 0-.023-.756.893.893 0 0 0-.233-.3.842.842 0 0 0-.331-.167c-.335 0-1.122-.488-1.328-.004.006.579-4.373-.901-4.594-.839a.606.606 0 0 1-.363-.262.665.665 0 0 1-.097-.453z" fill="currentColor"/><g transform="matrix(.77385 0 0 .77385 115 34.768)"><path d="M92.733 62.713a61.004 61.004 0 0 0-23.931 3.585 60.873 60.873 0 0 0-20.636 12.605 4.783 4.783 0 0 1-3.268 1.281 4.804 4.804 0 0 1-3.269-1.292l-5.392-5.038a4.82 4.82 0 0 1-1.533-3.508 4.798 4.798 0 0 1 1.514-3.51A78.033 78.033 0 0 1 90.29 45.694a78.376 78.376 0 0 1 53.816 22.025 4.806 4.806 0 0 1 1.048 5.441c-.27.6-.66 1.138-1.147 1.58l-5.443 4.937a4.775 4.775 0 0 1-3.268 1.245 4.8 4.8 0 0 1-3.247-1.314 61.165 61.165 0 0 0-39.317-16.895Z" fill="currentColor"/><path d="M92.284 72.126a61.158 61.158 0 0 1 38.763 16.369 4.812 4.812 0 0 1 1.521 3.544 4.776 4.776 0 0 1-1.576 3.514l-4.065 3.689a4.781 4.781 0 0 1-3.228 1.241 4.805 4.805 0 0 1-3.228-1.257 46.27 46.27 0 0 0-30.79-12.097 46.076 46.076 0 0 0-30.94 11.568 4.798 4.798 0 0 1-3.25 1.222 4.818 4.818 0 0 1-3.23-1.288l-4.019-3.751a4.807 4.807 0 0 1-1.537-3.53 4.784 4.784 0 0 1 1.552-3.516 60.868 60.868 0 0 1 20.439-12.241 60.996 60.996 0 0 1 23.588-3.467z" fill="currentColor"/><path d="M90.54 108.826a33.761 33.761 0 0 0-23.294 7.755 4.836 4.836 0 0 1-3.234 1.152 4.851 4.851 0 0 1-3.189-1.283l-1.942-1.816a4.834 4.834 0 0 1-1.525-3.646 4.802 4.802 0 0 1 1.714-3.554 46.082 46.082 0 0 1 30.219-10.897 46.27 46.27 0 0 1 30.051 11.481 4.785 4.785 0 0 1 1.17 5.501 4.755 4.755 0 0 1-1.171 1.605l-1.97 1.79a4.834 4.834 0 0 1-3.204 1.228 4.855 4.855 0 0 1-3.218-1.206 33.863 33.863 0 0 0-20.407-8.11z" fill="currentColor"/><circle cx="91.842" cy="134.144" r="11.595" fill="currentColor"/><rect x="29.992" y="42.417" width="11.838" height="141.515" rx="5.919" transform="rotate(-44.592 29.992 42.417)" stroke="#fff" stroke-width="3"/></g></svg>