<svg fill="#000000" width="294" height="248" viewBox="0 0 294 248" xmlns="http://www.w3.org/2000/svg"><g clip-path="url(#a)"><path d="m43.597 237.561 5.703 1.593 8.866-21.22-8.418-2.351-6.151 21.978Z" fill="#A0616A"/><path d="m58.82 247.517-17.926-5.006 1.936-6.919 11.694 3.266a6.46 6.46 0 0 1 4.49 7.967l-.194.692Z" fill="#2F2E41"/><path d="M111.635 242.023h5.923l2.817-22.821-8.741.001.001 22.82Z" fill="#A0616A"/><path d="m128.981 247.516-18.614.001-.001-7.184 12.142-.001a6.476 6.476 0 0 1 5.98 3.99c.325.785.493 1.626.493 2.475v.719Z" fill="#2F2E41"/><path d="m67.624 147.28-13.632 33.361 55.664 12.492.71-18.664-25.276-26.895-17.466-.294Z" fill="#B3B3B3"/><path d="M97.825 95.311c6.167-3.367 8.433-11.09 5.062-17.25-3.37-6.16-11.102-8.424-17.268-5.056-6.166 3.367-8.433 11.09-5.062 17.25 3.37 6.16 11.102 8.424 17.268 5.056Z" fill="#A0616A"/><path d="m100.814 145.434-25.196-10.303-2.243-14.776a16.964 16.964 0 0 1 2.88-12.305 16.993 16.993 0 0 1 10.592-6.909l3.333-.669a17.173 17.173 0 0 1 15.36 4.551 16.353 16.353 0 0 1 4.806 14.719 14.25 14.25 0 0 1-2.696 6.274c-7.915 10.34-6.899 18.935-6.888 19.021l.052.397Z" fill="currentColor"/><path d="m111.073 183.969-12.627-20.061 3.977-36.491-5.494-27.293.292.008a12.453 12.453 0 0 1 8.498 3.64 12.43 12.43 0 0 1 3.641 8.491l5.345 26.744-3.632 44.962Z" fill="#2F2E41"/><path d="M111.362 237.709a2.307 2.307 0 0 1-2.259-1.849l-5.532-27.48a43.074 43.074 0 0 0-5.618-14.215l-15.61-25.224a.802.802 0 0 0-1.424.113l-25.664 61.587a2.31 2.31 0 0 1-2.589 1.371l-6.856-1.396a2.297 2.297 0 0 1-1.812-2.642l5.593-32.925a84.888 84.888 0 0 1 5.79-19.509l18.94-43.729 27.953 9.17 1.844 19.552 12.915 31.241a21.404 21.404 0 0 1 1.58 6.775l2.386 36.106a2.312 2.312 0 0 1-2.113 2.447l-7.334.599a2.434 2.434 0 0 1-.19.008Z" fill="#2F2E41"/><path d="m60.37 192.916-8.861-8.403 16.747-64.511a27.037 27.037 0 0 1 15.928-18.178l.329-.133-.895 39.263-23.247 51.962ZM88.757 96.823c-3.144-2.718-4.1-7.788-2.174-11.526 1.927-3.739 6.532-5.751 10.47-4.575 3.71 1.107 7.926-2.587 7.474-6.548-.452-3.96-5.384-6.54-8.742-4.573a14.238 14.238 0 0 0-15.163 2.95c-3.946 3.861-5.443 10.174-3.671 15.481 1.77 5.308 6.715 9.327 11.806 8.791Z" fill="#2F2E41"/><path d="M77.626 200.13a2.222 2.222 0 0 1-.482.124l-20.231 2.821a2.178 2.178 0 0 1-2.344-1.38l-17.414-45.267a2.178 2.178 0 0 1 .72-2.523c.25-.19.538-.324.845-.392l19.025-4.241c.147-.033.289-.085.422-.155l18.505-9.665a2.19 2.19 0 0 1 .45-.174l20.365-5.424a2.181 2.181 0 0 1 2.605 1.327l15.184 39.47a2.177 2.177 0 0 1-.287 2.088l-5.252 7.044a2.181 2.181 0 0 1-.969.735l-11.477 4.406a1.634 1.634 0 0 0-.238.113l-19.124 10.949a2.373 2.373 0 0 1-.303.144Z" fill="#fff"/><path d="m87.039 139.888-2.587.689-6.853 1.826-.012.003-9.382 4.901-3.482 1.819h-.002l-5.23 2.732-.143.032-5.432 1.21-2.626.586-10.709 2.388 16.812 43.698 11.035-1.538 2.706-.378 5.767-.805.067-.009 18.531-10.61 11.276-4.329 5.148-6.905-14.634-38.039-10.25 2.729Z" fill="#E6E6E6"/><path d="m99.7 143.426-55.75 21.403.954 2.481 55.75-21.402-.954-2.482ZM102.882 151.698l-55.75 21.403.955 2.482 55.75-21.403-.955-2.482ZM109.31 168.408l-55.75 21.403.955 2.482 55.75-21.403-.955-2.482Z" fill="#fff"/><path d="m87.038 139.888 16.691 43.385-2.484.954-16.793-43.649 2.587-.69ZM68.205 147.307l-3.427 9.526-1.189 3.304-2.772 7.71-.594 1.649-.594 1.656-.783 2.174-5.618 15.62-1.46-3.797 4.58-12.738 1.037-2.883.151-.421 1.226-3.41 1.547-4.3 1.188-3.305 3.224-8.966h.002l3.482-1.819Z" fill="#fff"/><path opacity=".1" d="m95.903 186.277-.404.155-18.531 10.61-.067.009-17.553-45.161.144-.032 5.23-2.732 3.483-1.819 9.382-4.901.013-.003 18.303 43.874Z"/><path d="M77.71 200.347c-.172.066-.351.112-.534.137l-20.231 2.822a2.412 2.412 0 0 1-2.593-1.528l-17.415-45.266a2.413 2.413 0 0 1 .796-2.793 2.41 2.41 0 0 1 .936-.433l19.025-4.242c.127-.028.25-.073.365-.133l18.505-9.665a2.4 2.4 0 0 1 .498-.194l20.365-5.423a2.418 2.418 0 0 1 2.882 1.469l15.184 39.469a2.407 2.407 0 0 1-.317 2.311l-5.252 7.044a2.413 2.413 0 0 1-1.073.813l-11.476 4.406c-.071.027-.14.06-.206.098l-19.124 10.949c-.108.061-.22.115-.336.159Zm-39.048-46.089a1.488 1.488 0 0 0-.854 1.92l17.414 45.266a1.483 1.483 0 0 0 1.594.939l20.231-2.821c.189-.027.37-.088.535-.183l19.123-10.948c.108-.062.22-.115.335-.16l11.477-4.405c.263-.101.491-.274.659-.5l5.252-7.044a1.483 1.483 0 0 0 .195-1.421l-15.184-39.469a1.484 1.484 0 0 0-1.772-.903l-20.365 5.423a1.585 1.585 0 0 0-.305.119l-18.506 9.665a2.423 2.423 0 0 1-.593.217l-19.026 4.242a1.528 1.528 0 0 0-.21.063Z" fill="#E6E6E6"/><path d="m53.916 153.1 17.218 44.756-2.706.378-17.138-44.548 2.626-.586Z" fill="#fff"/><path d="M58.868 171.165a1.24 1.24 0 1 0 .002-2.482 1.24 1.24 0 0 0-.002 2.482Z" fill="#3F3D56"/><path d="M102.904 172.488a1.242 1.242 0 1 0 0-2.483 1.242 1.242 0 0 0 0 2.483ZM103.407 148.838c1.41 3.664-.287 15.807-.883 19.705a.704.704 0 0 1-.447.554.706.706 0 0 1-.704-.113c-3.056-2.495-12.456-10.378-13.865-14.042a8.497 8.497 0 0 1 2.085-9.221 8.526 8.526 0 0 1 12.04.311 8.51 8.51 0 0 1 1.774 2.806Z" fill="currentColor"/><path d="M95.457 156.499a4.611 4.611 0 0 0 4.613-4.609 4.61 4.61 0 0 0-4.613-4.608 4.61 4.61 0 0 0-4.613 4.608 4.611 4.611 0 0 0 4.613 4.609Z" fill="#fff"/><path d="M89.532 141.947a4.852 4.852 0 0 1 2.657-3.133 4.855 4.855 0 0 1 4.11.023l8.235-7.436 5.745 3.897-11.778 10.339a4.885 4.885 0 0 1-8.97-3.69Z" fill="#A0616A"/><path d="m102.801 144.374-6.455-8.751 14.716-9.409-10.548-15.036a6.089 6.089 0 0 1 .968-8.072 6.099 6.099 0 0 1 8.138.075l13.207 12.037a11.055 11.055 0 0 1 3.564 9.139 11.046 11.046 0 0 1-5.116 8.371l-18.474 11.646Z" fill="#2F2E41"/><path d="M52.226 167.336a4.85 4.85 0 0 0 .674-7.41l4.267-10.238-5.595-4.108-5.823 14.542a4.877 4.877 0 0 0 3.114 8.071 4.885 4.885 0 0 0 3.363-.857Z" fill="#A0616A"/><path d="m55.109 156.942-10.092-2.348 7.52-21.663a35.5 35.5 0 0 1 5.657-10.342l12.27-15.586a6.866 6.866 0 0 1 9.614-1.166 6.853 6.853 0 0 1 1.202 9.601L67.665 132.99 55.11 156.942Z" fill="#2F2E41"/><path d="M178.094 248H.466a.468.468 0 0 1-.466-.466.465.465 0 0 1 .466-.465h177.628a.466.466 0 0 1 0 .931Z" fill="#CCC"/><path d="M246.994 247.767h-4.196V2.096a2.098 2.098 0 0 1 4.196 0v245.671Z" fill="#E6E6E6"/><path d="M277.397 248h-65.27a.466.466 0 0 1 0-.931h65.27a.467.467 0 0 1 .33.795.467.467 0 0 1-.33.136Z" fill="#CCC"/><path d="M276.109 32.135h-61.05a2.1 2.1 0 0 1-2.098-2.095V12.341a2.096 2.096 0 0 1 2.098-2.096h61.055c.358 0 .71.092 1.022.266l15.788 8.802a2.094 2.094 0 0 1 .008 3.655l-15.792 8.896c-.315.177-.67.27-1.031.27Z" fill="currentColor"/><path d="M270.538 70.325h-61.051c-.361 0-.715-.093-1.03-.27l-15.793-8.896a2.104 2.104 0 0 1-1.067-1.83 2.096 2.096 0 0 1 1.075-1.826l15.789-8.801a2.1 2.1 0 0 1 1.022-.266h61.055a2.102 2.102 0 0 1 2.098 2.095V68.23a2.1 2.1 0 0 1-2.098 2.096ZM270.771 107.816H209.72c-.36 0-.715-.093-1.03-.27l-15.793-8.896a2.104 2.104 0 0 1-1.067-1.83 2.096 2.096 0 0 1 1.075-1.826l15.789-8.801a2.1 2.1 0 0 1 1.022-.266h61.055a2.102 2.102 0 0 1 2.098 2.095v17.698a2.103 2.103 0 0 1-2.098 2.096Z" fill="#E6E6E6"/></g><defs><clipPath id="a"><path fill="#fff" d="M0 0h294v248H0z"/></clipPath></defs></svg>