<svg width="288" height="201" viewBox="0 0 288 201" xmlns="http://www.w3.org/2000/svg"><g clip-path="url(#a)"><path d="M274.595 39.1H13.405a13.402 13.402 0 0 1-9.474-3.942A13.474 13.474 0 0 1 0 25.66V13.44a13.474 13.474 0 0 1 3.93-9.499A13.402 13.402 0 0 1 13.406 0h261.19a13.401 13.401 0 0 1 9.474 3.941 13.474 13.474 0 0 1 3.931 9.5v12.218a13.474 13.474 0 0 1-3.931 9.5 13.402 13.402 0 0 1-9.474 3.94ZM13.405.815a12.59 12.59 0 0 0-8.9 3.702A12.657 12.657 0 0 0 .812 13.44V25.66a12.657 12.657 0 0 0 3.693 8.924 12.59 12.59 0 0 0 8.9 3.702h261.19a12.59 12.59 0 0 0 8.9-3.702 12.658 12.658 0 0 0 3.693-8.924V13.44a12.657 12.657 0 0 0-3.693-8.923 12.59 12.59 0 0 0-8.9-3.702H13.405Z" fill="#3F3D56"/><path d="M229.506 79.682H56.056c-4.262 0-7.718 3.465-7.718 7.739s3.456 7.738 7.718 7.738h173.45c4.263 0 7.718-3.464 7.718-7.738 0-4.274-3.455-7.739-7.718-7.739Z" fill="currentColor"/><path d="M229.506 128.891H56.056c-4.262 0-7.718 3.465-7.718 7.739 0 4.273 3.456 7.738 7.718 7.738h173.45c4.263 0 7.718-3.465 7.718-7.738 0-4.274-3.455-7.739-7.718-7.739ZM229.506 178.1H56.056c-4.262 0-7.718 3.465-7.718 7.738 0 4.274 3.456 7.739 7.718 7.739h173.45c4.263 0 7.718-3.465 7.718-7.739 0-4.273-3.455-7.738-7.718-7.738Z" fill="#E6E6E6"/><path d="M262.609 27.91a1.215 1.215 0 0 1-1.693.3l-6.632-4.628a1.218 1.218 0 0 1-.298-1.697 1.215 1.215 0 0 1 1.693-.3l6.632 4.627a1.22 1.22 0 0 1 .298 1.698Z" fill="currentColor"/><path d="M255.08 22.653a8.63 8.63 0 0 1-3.941 3.101 8.606 8.606 0 0 1-9.361-2.08 8.671 8.671 0 0 1-1.665-9.468 8.64 8.64 0 0 1 3.262-3.813 8.61 8.61 0 0 1 9.586.21 8.678 8.678 0 0 1 2.119 12.05Zm-12.37-8.685a6.5 6.5 0 0 0-.157 7.209 6.476 6.476 0 0 0 2.852 2.453 6.456 6.456 0 0 0 7.082-1.252 6.506 6.506 0 0 0-.763-10.004 6.467 6.467 0 0 0-9.014 1.594Z" fill="currentColor"/><path d="M267.08 102.542H20.92a.407.407 0 0 1 0-.814h246.16a.404.404 0 0 1 .406.407.406.406 0 0 1-.406.407ZM267.08 151.771H20.92a.407.407 0 0 1 0-.814h246.16a.404.404 0 0 1 .406.407.406.406 0 0 1-.406.407ZM267.08 201H20.92a.407.407 0 0 1 0-.815h246.16c.108 0 .211.043.287.12a.406.406 0 0 1-.287.695Z" fill="#3F3D56"/></g><defs><clipPath id="a"><path fill="#fff" d="M0 0h288v201H0z"/></clipPath></defs></svg>