<svg fill="#000000" width="241.828" height="256.858" viewBox="0 0 241.828 256.858" xml:space="preserve" xmlns="http://www.w3.org/2000/svg"><defs><clipPath id="a"><path fill="#fff" d="M0 0h196v221H0z"/></clipPath></defs><g clip-path="url(#a)" transform="matrix(.96726 0 0 .96726 29.326 41.764)"><path d="M75.146 135.35c1.114 2.157.904 4.481-.468 5.19-1.372.709-3.387-.465-4.5-2.622-.488-.944-.722-1.921-.716-2.779l-4.605-9.2 4.361-2.07 4.077 9.289c.703.492 1.363 1.248 1.85 2.192z" fill="#ffb6b6"/><path d="M40.877 218.361h3.926l1.868-15.152h-5.795z" fill="#a0616a"/><path d="M54.329 218.272c.122.206.187.871.187 1.111 0 .736-.597 1.333-1.333 1.333H41.024a.91.91 0 0 1-.91-.91v-.506s-.6-1.522.638-3.399c0 0 1.539 1.469 3.839-.832l.678-1.229 4.91 3.592 2.72.335c.596.074 1.124-.011 1.43.505z" fill="#2f2e41"/><path d="M22.457 218.361h3.927l1.867-15.152h-5.795z" fill="#a0616a"/><path d="M35.91 218.272c.121.206.186.871.186 1.111 0 .736-.597 1.333-1.333 1.333H22.604a.91.91 0 0 1-.909-.91v-.506s-.601-1.522.637-3.399c0 0 1.54 1.469 3.84-.832l.677-1.229 4.91 3.592 2.72.335c.596.074 1.124-.011 1.43.505zM16.9 128.961l-1.654 10.113 5.146 32.73 1.286 39.534h6.948l3.528-37.327-.368-24.64 8.27 62.334h7.22l.683-78.147z" fill="#2f2e41"/><path d="M25.538 76.556h13.006l11.253 6.62c-1.752-.446-3.105 15.81-3.15 30.175-.004.954-.949 2.052-.94 2.984.007.803.967 1.445.984 2.224.016.729.035 1.445.06 2.146.019.583-1.07 1.354-1.044 1.914.032.716 1.182 1.213 1.224 1.887.263 4.14.715 7.421 1.395 9.052 0 0-29.037 8.09-31.242-4.413 0 0 .126-4.495.108-10.701-.002-.55-.47-1.05-.474-1.626-.003-.428.459-.927.454-1.366-.003-.362-.45-.682-.454-1.051-.003-.219.436-.486.432-.708-.176-11.802-.968-26.675-3.742-30.517Z" fill="currentColor"/><path d="M38.402 76.556s8.428 3.064 11.102 5.505c1.422 1.298 10.952 25.754 10.952 25.754l13.237 23.065-6.88 2.615-14.076-21.267-6.248-13.974z" fill="currentColor"/><path d="M20.921 136.223c1.23 2.093 1.146 4.425-.185 5.207-1.332.783-3.408-.28-4.637-2.373-.538-.917-.825-1.879-.865-2.736l-5.098-8.937 4.243-2.304 4.574 9.054c.73.453 1.43 1.172 1.968 2.089z" fill="#a0616a"/><path d="m23.7 87.956-3.676-8.458s-8.638 2.758-8.638 6.803c0 0-5.145 30.892-4.41 38.615l4.778 8.458 6.8-5.333-4.227-9.745z" fill="currentColor"/><path d="m16.14 142.908 4.336-8.615 5.062 6.988-4.556 4.413z" fill="#2f2e41"/><path d="M31.918 74.126c4.646 0 8.412-3.768 8.412-8.416 0-4.648-3.766-8.416-8.412-8.416-4.645 0-8.412 3.768-8.412 8.416 0 4.648 3.767 8.416 8.412 8.416z" fill="#a0616a"/><path d="M38.478 56.308c-1.462-.468-2.154-2.208-3.49-2.962-1.48-.834-3.249-1.355-4.88-.883-1 .29-1.872.93-2.873 1.217a3.03 3.03 0 0 1-.546.102c-1.077.103-2.001.749-2.54 1.688l-.013.024c-.316.54-.765.989-1.164 1.472-1.454 1.763-2.241 4.055-2.225 6.341a10.274 10.274 0 0 0 2.605 6.724l.419-.193 3.042 2.628c-.552-1.991-1.11-4.053-.817-6.1.292-2.045 1.667-4.087 3.695-4.482.767-.15 1.576-.059 2.32-.296.745-.237 1.431-1.003 1.176-1.742.461 1.22 2.18 1.147 3.365 1.693 2.649 1.221 1.679-.666 3.979 1.13.777-4.308 3.752-4.5-2.053-6.361z" fill="#2f2e41"/><path d="M0 220.425c0 .319.256.575.575.575h194.85a.573.573 0 0 0 .575-.575.573.573 0 0 0-.575-.575H.575a.573.573 0 0 0-.575.575Z" fill="#ccc"/><path d="M169.935 221h-85.24c-10.394 0-18.85-8.46-18.85-18.859V18.859C65.846 8.46 74.302 0 84.696 0h85.24c10.393 0 18.849 8.46 18.849 18.86V202.14c0 10.399-8.456 18.859-18.849 18.859z" fill="#3f3d56"/><path d="M188.784 67.417a.798.798 0 0 0-.797.798v25.53a.798.798 0 0 0 1.594 0v-25.53a.798.798 0 0 0-.797-.798z" fill="#3f3d56"/><path d="M186.99 18.86v183.278c0 9.051-7.041 16.455-15.944 17.029h-.004c-.132.008-.264.016-.399.02-.235.012-.471.016-.71.016l-2.48-.183c-1.619-.12-3.975-.3-6.913-.535-.882-.068-1.811-.143-2.791-.223-1.954-.16-4.099-.335-6.4-.535-.917-.076-1.866-.159-2.834-.243-4.952-.427-10.499-.926-16.348-1.492-.988-.092-1.985-.188-2.99-.287-.263-.028-.53-.052-.797-.08-4.171-.411-60.74-11.349-60.74-13.487V18.859c0-9.426 7.635-17.065 17.057-17.065H94.88c1.627 0 2.934 1.268 3.074 2.892.012.107.024.215.044.323.295 1.631 1.79 2.768 3.449 2.768h51.736c1.659 0 3.154-1.137 3.449-2.768.02-.108.032-.216.044-.323.14-1.624 1.447-2.892 3.074-2.892h10.183c9.422 0 17.057 7.639 17.057 17.065z" fill="#fff"/><path d="M65.447 48.269a.798.798 0 0 0-.797.798v6.383a.798.798 0 0 0 1.594 0v-6.383a.798.798 0 0 0-.797-.798zM65.447 67.417a.798.798 0 0 0-.797.798V80.58a.798.798 0 0 0 1.594 0V68.215a.798.798 0 0 0-.797-.798zM65.447 84.97a.798.798 0 0 0-.797.797v12.367a.798.798 0 0 0 1.594 0V85.767a.798.798 0 0 0-.797-.798z" fill="#3f3d56"/><path d="M94.602 4.588h-15.25a.15.15 0 0 0-.15.15v1.694c0 .083.067.15.15.15h15.25a.15.15 0 0 0 .15-.15V4.738a.15.15 0 0 0-.15-.15zM162.27 6.582a1.595 1.595 0 1 0 0-3.19 1.595 1.595 0 0 0 0 3.19zM166.656 6.582a1.595 1.595 0 1 0-.002-3.19 1.595 1.595 0 0 0 .002 3.19zM171.041 6.582a1.595 1.595 0 1 0 0-3.19 1.595 1.595 0 0 0 0 3.19zM161.136 46H93.494a1.935 1.935 0 0 1-1.932-1.934c0-1.066.867-1.933 1.932-1.933h67.642c1.065 0 1.932.867 1.932 1.933A1.935 1.935 0 0 1 161.136 46zM172.509 198.997h-25.124a1.936 1.936 0 0 1-1.932-1.934c0-1.066.867-1.933 1.932-1.933h25.124c1.066 0 1.933.867 1.933 1.933a1.936 1.936 0 0 1-1.933 1.934zM105.351 198.997H80.227a1.936 1.936 0 0 1-1.932-1.934c0-1.066.867-1.933 1.932-1.933h25.124c1.066 0 1.933.867 1.933 1.933a1.936 1.936 0 0 1-1.933 1.934z" fill="#e6e6e6"/><path d="M174.442 51.196H80.188v.483h94.254z" fill="currentColor"/><path d="M161.136 75.488H93.494a1.935 1.935 0 0 1-1.932-1.934c0-1.066.867-1.934 1.932-1.934h67.642c1.065 0 1.932.868 1.932 1.934a1.935 1.935 0 0 1-1.932 1.934z" fill="#e6e6e6"/><path d="M174.442 80.683H80.188v.484h94.254z" fill="currentColor"/><path d="M161.136 104.975H93.494a1.935 1.935 0 0 1-1.932-1.933c0-1.067.867-1.934 1.932-1.934h67.642c1.065 0 1.932.867 1.932 1.934a1.935 1.935 0 0 1-1.932 1.933z" fill="#e6e6e6"/><path d="M174.442 110.171H80.188v.483h94.254zM174.442 135.308H80.188v.483h94.254zM174.442 160.445H80.188v.483h94.254z" fill="currentColor"/><path d="M127.978 178.127c15.477 0 28.023-12.553 28.023-28.037 0-15.485-12.546-28.038-28.023-28.038-15.476 0-28.023 12.553-28.023 28.038 0 15.484 12.547 28.037 28.023 28.037z" fill="currentColor"/></g></svg>