<svg id="Ebene_1" data-name="Ebene 1" xmlns="http://www.w3.org/2000/svg" viewBox="0 0 98.42 97.09">
    <defs>
        <style>.cls-1{fill:#576574;}</style>
    </defs>
    <title>Zeichenfläche 6</title>
    <path class="cls-1"
          d="M87.77,10.34H76.08V2.73a2.73,2.73,0,0,0-5.46,0v7.61H27.8V2.73a2.73,2.73,0,1,0-5.45,0v7.61H10.65A10.68,10.68,0,0,0,0,21V86.4A10.69,10.69,0,0,0,10.65,97.09H87.77A10.68,10.68,0,0,0,98.42,86.4V21A10.67,10.67,0,0,0,87.77,10.34ZM93,86.4a5.22,5.22,0,0,1-5.2,5.23H10.65A5.21,5.21,0,0,1,5.46,86.4V36.9H93Zm0-55H5.46V21a5.21,5.21,0,0,1,5.19-5.22h11.7v9a2.73,2.73,0,1,0,5.45,0v-9H70.62v9a2.73,2.73,0,0,0,5.46,0v-9H87.77A5.21,5.21,0,0,1,93,21ZM81.91,76.74H76.56V71.29h5.35Zm-25.7-5.45h5.36v5.45H56.21Zm25.7-15.81H76.56V50h5.35Zm-20.34,0H56.21V50h5.36ZM16.86,71.29h5.35v5.45H16.86Zm19.68,0h5.35v5.45H36.54ZM22.18,55.48H16.82V50h5.36Zm19.69,0H36.52V50h5.35Z"/>
</svg>