<svg id="screenshot" viewBox="601 -76.66666666666667 24 24" width="24" height="24" version="1.1" xmlns="http://www.w3.org/2000/svg" xmlns:xlink="http://www.w3.org/1999/xlink" style="-webkit-print-color-adjust: exact;"><g id="shape-d41c3920-9f8c-11ec-a149-b71a8ea6d39c" enable-background="new 0 0 24 24" height="24px" width="24px"><g id="shape-d41cae50-9f8c-11ec-a149-b71a8ea6d39c"><g id="shape-d41d2380-9f8c-11ec-a149-b71a8ea6d39c"><rect fill="none" x="601" y="-76.66666666666667" transform="matrix(1,0,0,1,0,0)" width="24" height="24"/></g></g><g id="shape-d41d98b0-9f8c-11ec-a149-b71a8ea6d39c"><g id="shape-d41f9480-9f8c-11ec-a149-b71a8ea6d39c"><path d="M621,-64.66666666666667C621,-65.76666666666667,620.0999999999999,-66.66666666666667,619,-66.66666666666667L619,-69.66666666666667C619,-70.76666666666667,618.0999999999999,-71.66666666666667,617,-71.66666666666667L609,-71.66666666666667C607.9000000000001,-71.66666666666667,607,-70.76666666666667,607,-69.66666666666667L607,-66.66666666666667C605.9000000000001,-66.66666666666667,605,-65.76666666666667,605,-64.66666666666667L605,-59.66666666666667L606.3299999999999,-59.66666666666667L607,-57.66666666666667L608,-57.66666666666667L608.6700000000001,-59.66666666666667L617.3399999999999,-59.66666666666667L618,-57.66666666666667L619,-57.66666666666667L619.6700000000001,-59.66666666666667L621,-59.66666666666667L621,-64.66666666666667ZZM617,-66.66666666666667L614,-66.66666666666667L614,-69.66666666666667L617,-69.66666666666667L617,-66.66666666666667ZZM609,-69.66666666666667L612,-69.66666666666667L612,-66.66666666666667L609,-66.66666666666667L609,-69.66666666666667ZZM607,-64.66666666666667L619,-64.66666666666667L619,-61.66666666666667L607,-61.66666666666667L607,-64.66666666666667ZZ" style="fill: rgb(0, 0, 0);"/></g></g></g></svg>