<svg id="screenshot" viewBox="1040 71.3572807017544 24 24" width="24" height="24" version="1.1" xmlns="http://www.w3.org/2000/svg" xmlns:xlink="http://www.w3.org/1999/xlink" style="-webkit-print-color-adjust: exact;"><g id="shape-15e2eb10-a90b-11ec-a783-f10e96f08dc2" height="24px" width="24px"><g id="shape-15e5d140-a90b-11ec-a783-f10e96f08dc2"><path fill="none" d="M1040,71.3572807017544L1064,71.3572807017544L1064,95.3572807017544L1040,95.3572807017544L1040,71.3572807017544ZZ"/></g><g id="shape-15e8b770-a90b-11ec-a783-f10e96f08dc2"><path d="M1055,89.8572807017544C1052.49,89.8572807017544,1050.32,88.4372807017544,1049.24,86.3572807017544L1055,86.3572807017544L1055,84.3572807017544L1048.58,84.3572807017544C1048.53,84.0272807017544,1048.5,83.69728070175441,1048.5,83.3572807017544C1048.5,83.0172807017544,1048.53,82.6872807017544,1048.58,82.3572807017544L1055,82.3572807017544L1055,80.3572807017544L1049.24,80.3572807017544C1050.32,78.2772807017544,1052.5,76.8572807017544,1055,76.8572807017544C1056.61,76.8572807017544,1058.09,77.44728070175441,1059.23,78.4272807017544L1061,76.6572807017544C1059.41,75.22728070175441,1057.3,74.3572807017544,1055,74.3572807017544C1051.08,74.3572807017544,1047.76,76.86728070175441,1046.52,80.3572807017544L1043,80.3572807017544L1043,82.3572807017544L1046.06,82.3572807017544C1046.02,82.6872807017544,1046,83.0172807017544,1046,83.3572807017544C1046,83.69728070175441,1046.02,84.0272807017544,1046.06,84.3572807017544L1043,84.3572807017544L1043,86.3572807017544L1046.52,86.3572807017544C1047.76,89.84728070175441,1051.08,92.3572807017544,1055,92.3572807017544C1057.31,92.3572807017544,1059.41,91.4872807017544,1061,90.05728070175441L1059.22,88.28728070175441C1058.09,89.2672807017544,1056.62,89.8572807017544,1055,89.8572807017544ZZ" style="fill: rgb(0, 0, 0);"/></g></g></svg>