<svg id="screenshot" viewBox="721 23.16666666666663 24 24.000000000000057" width="24" height="24.000000000000057" version="1.1" xmlns="http://www.w3.org/2000/svg" xmlns:xlink="http://www.w3.org/1999/xlink" style="-webkit-print-color-adjust: exact;"><g id="shape-222c8fac-9fb7-11ec-a149-b71a8ea6d39c" height="24px" width="24px"><g id="shape-222c8fa9-9fb7-11ec-a149-b71a8ea6d39c"><path fill="none" d="M721,23.16666666666663L745,23.16666666666663L745,47.166666666666686L721,47.166666666666686L721,23.16666666666663ZZ"/></g><g id="shape-222c8fad-9fb7-11ec-a149-b71a8ea6d39c"><ellipse cx="725.5" cy="32.66666666666663" rx="2.5" ry="2.5" transform="matrix(0.9999999999999999,1.7453292519943295e-8,-1.7453292519943295e-8,0.9999999999999999,5.701409691027948e-7,-0.000012662363715776337)" style="fill: rgb(0, 0, 0);"/></g><g id="shape-222c8fb1-9fb7-11ec-a149-b71a8ea6d39c"><ellipse cx="730" cy="28.66666666666663" rx="2.5" ry="2.5" transform="matrix(0.9999999999999999,1.7453292519943295e-8,-1.7453292519943295e-8,0.9999999999999999,5.003278147341916e-7,-0.000012740903535757298)" style="fill: rgb(0, 0, 0);"/></g><g id="shape-222c8fb2-9fb7-11ec-a149-b71a8ea6d39c"><ellipse cx="736" cy="28.66666666666663" rx="2.5" ry="2.5" transform="matrix(0.9999999999999999,1.7453292519943295e-8,-1.7453292519943295e-8,0.9999999999999999,5.003278147341916e-7,-0.000012845623292179198)" style="fill: rgb(0, 0, 0);"/></g><g id="shape-222c8fa4-9fb7-11ec-a149-b71a8ea6d39c"><ellipse cx="740.5" cy="32.66666666666663" rx="2.5" ry="2.5" transform="matrix(0.9999999999999999,1.7453292519943295e-8,-1.7453292519943295e-8,0.9999999999999999,5.701409691027948e-7,-0.000012924163101502018)" style="fill: rgb(0, 0, 0);"/></g><g id="shape-222c8fa6-9fb7-11ec-a149-b71a8ea6d39c"><path d="M738.3399999999999,38.0266666666667C737.47,37.006666666666604,736.74,36.1366666666666,735.8599999999999,35.11666666666662C735.4000000000001,34.576666666666654,734.81,34.03666666666669,734.1099999999999,33.79666666666668C734,33.756666666666604,733.8900000000001,33.72666666666663,733.78,33.70666666666665C733.53,33.666666666666686,733.26,33.666666666666686,733,33.666666666666686C732.74,33.666666666666686,732.47,33.666666666666686,732.21,33.71666666666664C732.0999999999999,33.73666666666662,731.99,33.766666666666595,731.8800000000001,33.80666666666667C731.1800000000001,34.04666666666668,730.5999999999999,34.586666666666645,730.1300000000001,35.12666666666661C729.26,36.14666666666659,728.53,37.016666666666595,727.6500000000001,38.03666666666669C726.3399999999999,39.346666666666636,724.73,40.79666666666668,725.03,42.826666666666654C725.3199999999999,43.846666666666636,726.05,44.85666666666663,727.3599999999999,45.14666666666659C728.0899999999999,45.29666666666668,730.4200000000001,44.70666666666665,732.9000000000001,44.70666666666665L733.0799999999999,44.70666666666665C735.56,44.70666666666665,737.8900000000001,45.28666666666669,738.6199999999999,45.14666666666659C739.9300000000001,44.85666666666663,740.6600000000001,43.836666666666645,740.95,42.826666666666654C741.26,40.78666666666669,739.6500000000001,39.336666666666645,738.3399999999999,38.0266666666667ZZ" style="fill: rgb(0, 0, 0);"/></g></g></svg>