<svg id="screenshot" viewBox="601 -16.000000000000007 24 24" width="24" height="24" version="1.1" xmlns="http://www.w3.org/2000/svg" xmlns:xlink="http://www.w3.org/1999/xlink" style="-webkit-print-color-adjust: exact;"><g id="shape-d7250c50-9f8c-11ec-a149-b71a8ea6d39c" enable-background="new 0 0 24 24" height="24px" width="24px"><g id="shape-d7255a70-9f8c-11ec-a149-b71a8ea6d39c"><g id="shape-d725a890-9f8c-11ec-a149-b71a8ea6d39c"><rect fill="none" x="601" y="-16.000000000000007" transform="matrix(1,0,0,1,0,0)" width="24" height="24"/></g></g><g id="shape-d725cfa0-9f8c-11ec-a149-b71a8ea6d39c"><g id="shape-d725f6b0-9f8c-11ec-a149-b71a8ea6d39c"><g id="shape-d7261dc0-9f8c-11ec-a149-b71a8ea6d39c"><g id="shape-d728dce0-9f8c-11ec-a149-b71a8ea6d39c"><path d="M616,-15.000000000000007L610,-15.000000000000007L610,-13.000000000000007L616,-13.000000000000007L616,-15.000000000000007ZZM612,-2.000000000000007L614,-2.000000000000007L614,-8.000000000000007L612,-8.000000000000007L612,-2.000000000000007ZZM620.03,-8.61000000000002L621.45,-10.030000000000008C621.02,-10.54,620.55,-11.020000000000003,620.04,-11.440000000000005L618.6199999999999,-10.020000000000017C617.0699999999999,-11.260000000000012,615.1199999999999,-12.000000000000007,613,-12.000000000000007C608.03,-12.000000000000007,604,-7.970000000000006,604,-3.000000000000007C604,1.9699999999999918,608.02,5.999999999999993,613,5.999999999999993C617.98,5.999999999999993,622,1.9699999999999918,622,-3.000000000000007C622,-5.120000000000012,621.26,-7.07,620.03,-8.61000000000002ZZM613,3.999999999999993C609.1300000000001,3.999999999999993,606,0.8699999999999974,606,-3.000000000000007C606,-6.870000000000012,609.1300000000001,-10.000000000000007,613,-10.000000000000007C616.8699999999999,-10.000000000000007,620,-6.870000000000012,620,-3.000000000000007C620,0.8699999999999974,616.8699999999999,3.999999999999993,613,3.999999999999993ZZ" style="fill: rgb(0, 0, 0);"/></g></g></g></g></g></svg>