<?xml version="1.0" encoding="UTF-8"?>
<svg xmlns="http://www.w3.org/2000/svg" xmlns:xlink="http://www.w3.org/1999/xlink" width="800px" height="800px"
     viewBox="0 0 800 800" version="1.1">
    <g id="surface1">
        <path style=" stroke:none;fill-rule:nonzero;fill:rgb(100%,0%,0%);fill-opacity:1;"
              d="M 539.425781 635.289062 L 275.378906 635.289062 C 227.632812 635.289062 188.539062 596.242188 188.539062 548.445312 L 188.539062 284.449219 C 188.539062 236.703125 227.585938 197.605469 275.378906 197.605469 L 539.378906 197.605469 C 587.125 197.605469 626.222656 236.65625 626.222656 284.449219 L 626.222656 548.445312 C 626.222656 596.195312 587.171875 635.289062 539.425781 635.289062 Z M 539.425781 635.289062 "/>
        <path style=" stroke:none;fill-rule:nonzero;fill:rgb(100%,100%,100%);fill-opacity:1;"
              d="M 335.34375 418.761719 L 166.003906 418.761719 C 130.148438 418.761719 100.769531 389.429688 100.769531 353.523438 L 100.769531 184.1875 C 100.769531 148.332031 130.101562 118.953125 166.003906 118.953125 L 335.34375 118.953125 C 371.199219 118.953125 400.578125 148.285156 400.578125 184.1875 L 400.578125 353.523438 C 400.53125 389.382812 371.199219 418.761719 335.34375 418.761719 Z M 335.34375 418.761719 "/>
        <path style=" stroke:none;fill-rule:nonzero;fill:rgb(100%,0%,0%);fill-opacity:1;"
              d="M 700.480469 655.878906 C 700.480469 681.074219 680.054688 701.496094 654.859375 701.496094 C 629.667969 701.496094 609.242188 681.074219 609.242188 655.878906 C 609.242188 630.683594 629.667969 610.257812 654.859375 610.257812 C 680.054688 610.257812 700.480469 630.683594 700.480469 655.878906 Z M 700.480469 655.878906 "/>
        <path style=" stroke:none;fill-rule:nonzero;fill:rgb(100%,0%,0%);fill-opacity:1;"
              d="M 739.34375 728.007812 C 739.34375 740.605469 729.132812 750.816406 716.535156 750.816406 C 703.9375 750.816406 693.726562 740.605469 693.726562 728.007812 C 693.726562 715.410156 703.9375 705.199219 716.535156 705.199219 C 729.132812 705.199219 739.34375 715.410156 739.34375 728.007812 Z M 739.34375 728.007812 "/>
        <path style=" stroke:none;fill-rule:nonzero;fill:rgb(100%,0%,0%);fill-opacity:1;"
              d="M 697.84375 169.753906 C 697.84375 194.949219 677.417969 215.371094 652.222656 215.371094 C 627.027344 215.371094 606.605469 194.949219 606.605469 169.753906 C 606.605469 144.558594 627.027344 124.132812 652.222656 124.132812 C 677.417969 124.132812 697.84375 144.558594 697.84375 169.753906 Z M 697.84375 169.753906 "/>
        <path style=" stroke:none;fill-rule:nonzero;fill:rgb(100%,0%,0%);fill-opacity:1;"
              d="M 560.9375 146.664062 C 560.9375 159.261719 550.726562 169.476562 538.128906 169.476562 C 525.53125 169.476562 515.320312 159.261719 515.320312 146.664062 C 515.320312 134.070312 525.53125 123.855469 538.128906 123.855469 C 550.726562 123.855469 560.9375 134.070312 560.9375 146.664062 Z M 560.9375 146.664062 "/>
        <path style=" stroke:none;fill-rule:nonzero;fill:rgb(100%,0%,0%);fill-opacity:1;"
              d="M 705.199219 78.050781 C 705.199219 63.257812 693.207031 51.261719 678.410156 51.261719 C 663.617188 51.261719 651.621094 63.257812 651.621094 78.050781 C 651.621094 92.847656 663.617188 104.839844 678.410156 104.839844 C 693.207031 104.839844 705.199219 92.847656 705.199219 78.050781 Z M 705.199219 78.050781 "/>
        <path style=" stroke:none;fill-rule:nonzero;fill:rgb(100%,0%,0%);fill-opacity:1;"
              d="M 624.417969 72.222656 C 624.417969 78.535156 619.300781 83.652344 612.988281 83.652344 C 606.679688 83.652344 601.5625 78.535156 601.5625 72.222656 C 601.5625 65.910156 606.679688 60.792969 612.988281 60.792969 C 619.300781 60.792969 624.417969 65.910156 624.417969 72.222656 Z M 624.417969 72.222656 "/>
        <path style="fill:none;stroke-width:2;stroke-linecap:butt;stroke-linejoin:miter;stroke:rgb(0%,0%,0%);stroke-opacity:1;stroke-miterlimit:10;"
              d="M 67.099718 75.329829 L 34.000286 75.329829 C 30.900064 75.329829 28.29966 72.730269 28.29966 69.630046 L 28.29966 36.630241 C 28.29966 33.530018 30.900064 30.929614 34.000286 30.929614 L 67.099718 30.929614 C 70.19994 30.929614 72.800345 33.530018 72.800345 36.630241 L 72.800345 69.729672 C 72.800345 72.730269 70.19994 75.329829 67.099718 75.329829 Z M 67.099718 75.329829 "
              transform="matrix(4.626684,0,0,4.626684,0,0)"/>
        <path style="fill:none;stroke-width:3;stroke-linecap:round;stroke-linejoin:miter;stroke:rgb(0%,0%,0%);stroke-opacity:1;stroke-miterlimit:10;"
              d="M 39.700068 28.930342 L 39.700068 33.530018 " transform="matrix(4.626684,0,0,4.626684,0,0)"/>
        <path style="fill:none;stroke-width:3;stroke-linecap:round;stroke-linejoin:miter;stroke:rgb(0%,0%,0%);stroke-opacity:1;stroke-miterlimit:10;"
              d="M 63.800244 28.930342 L 63.800244 33.530018 " transform="matrix(4.626684,0,0,4.626684,0,0)"/>
        <path style="fill:none;stroke-width:1;stroke-linecap:butt;stroke-linejoin:miter;stroke:rgb(0%,0%,0%);stroke-opacity:1;stroke-miterlimit:10;"
              d="M 29.30014 42.330023 L 73.599884 42.330023 " transform="matrix(4.626684,0,0,4.626684,0,0)"/>
        <path style="fill:none;stroke-width:3.5;stroke-linecap:round;stroke-linejoin:miter;stroke:rgb(0%,0%,0%);stroke-opacity:1;stroke-miterlimit:10;"
              d="M 40.399982 58.530204 L 48.599699 66.630294 L 63.299582 52.030037 "
              transform="matrix(4.626684,0,0,4.626684,0,0)"/>
    </g>
</svg>
