<?xml version="1.0" encoding="UTF-8"?>
<svg xmlns="http://www.w3.org/2000/svg" xmlns:xlink="http://www.w3.org/1999/xlink" width="800px" height="800px"
     viewBox="0 0 800 800" version="1.1">
    <g id="surface1">
        <path style=" stroke:none;fill-rule:nonzero;fill:rgb(100%,0%,0%);fill-opacity:1;"
              d="M 539.425781 635.289062 L 275.378906 635.289062 C 227.632812 635.289062 188.539062 596.242188 188.539062 548.445312 L 188.539062 284.449219 C 188.539062 236.703125 227.585938 197.605469 275.378906 197.605469 L 539.378906 197.605469 C 587.125 197.605469 626.222656 236.65625 626.222656 284.449219 L 626.222656 548.445312 C 626.222656 596.195312 587.171875 635.289062 539.425781 635.289062 Z M 539.425781 635.289062 "/>
        <path style=" stroke:none;fill-rule:nonzero;fill:rgb(100%,100%,100%);fill-opacity:1;"
              d="M 631.449219 418.761719 L 462.113281 418.761719 C 426.257812 418.761719 396.878906 389.429688 396.878906 353.523438 L 396.878906 184.1875 C 396.878906 148.332031 426.210938 118.953125 462.113281 118.953125 L 631.449219 118.953125 C 667.308594 118.953125 696.6875 148.285156 696.6875 184.1875 L 696.6875 353.523438 C 696.640625 389.382812 667.308594 418.761719 631.449219 418.761719 Z M 631.449219 418.761719 "/>
        <path style=" stroke:none;fill-rule:nonzero;fill:rgb(100%,0%,0%);fill-opacity:1;"
              d="M 700.480469 655.878906 C 700.480469 681.074219 680.054688 701.496094 654.859375 701.496094 C 629.667969 701.496094 609.242188 681.074219 609.242188 655.878906 C 609.242188 630.683594 629.667969 610.257812 654.859375 610.257812 C 680.054688 610.257812 700.480469 630.683594 700.480469 655.878906 Z M 700.480469 655.878906 "/>
        <path style=" stroke:none;fill-rule:nonzero;fill:rgb(100%,0%,0%);fill-opacity:1;"
              d="M 739.34375 728.007812 C 739.34375 740.605469 729.132812 750.816406 716.535156 750.816406 C 703.9375 750.816406 693.726562 740.605469 693.726562 728.007812 C 693.726562 715.410156 703.9375 705.199219 716.535156 705.199219 C 729.132812 705.199219 739.34375 715.410156 739.34375 728.007812 Z M 739.34375 728.007812 "/>
        <path style=" stroke:none;fill-rule:nonzero;fill:rgb(100%,0%,0%);fill-opacity:1;"
              d="M 171.234375 201.863281 C 171.234375 227.058594 150.808594 247.480469 125.613281 247.480469 C 100.417969 247.480469 79.996094 227.058594 79.996094 201.863281 C 79.996094 176.667969 100.417969 156.242188 125.613281 156.242188 C 150.808594 156.242188 171.234375 176.667969 171.234375 201.863281 Z M 171.234375 201.863281 "/>
        <path style=" stroke:none;fill-rule:nonzero;fill:rgb(100%,0%,0%);fill-opacity:1;"
              d="M 233.230469 142.871094 C 233.230469 155.46875 223.019531 165.679688 210.421875 165.679688 C 197.824219 165.679688 187.613281 155.46875 187.613281 142.871094 C 187.613281 130.273438 197.824219 120.0625 210.421875 120.0625 C 223.019531 120.0625 233.230469 130.273438 233.230469 142.871094 Z M 233.230469 142.871094 "/>
        <path style=" stroke:none;fill-rule:nonzero;fill:rgb(100%,0%,0%);fill-opacity:1;"
              d="M 161.515625 85.15625 C 147.726562 79.800781 132.203125 86.636719 126.847656 100.425781 C 121.488281 114.214844 128.328125 129.738281 142.117188 135.097656 C 155.90625 140.453125 171.429688 133.617188 176.785156 119.828125 C 182.144531 106.035156 175.308594 90.515625 161.515625 85.15625 Z M 161.515625 85.15625 "/>
        <path style=" stroke:none;fill-rule:nonzero;fill:rgb(100%,0%,0%);fill-opacity:1;"
              d="M 97.808594 104.332031 C 97.808594 110.644531 92.691406 115.757812 86.378906 115.757812 C 80.070312 115.757812 74.953125 110.644531 74.953125 104.332031 C 74.953125 98.019531 80.070312 92.902344 86.378906 92.902344 C 92.691406 92.902344 97.808594 98.019531 97.808594 104.332031 Z M 97.808594 104.332031 "/>
        <path style="fill-rule:nonzero;fill:rgb(0%,0%,0%);fill-opacity:1;stroke-width:0.25;stroke-linecap:butt;stroke-linejoin:miter;stroke:rgb(0%,0%,0%);stroke-opacity:1;stroke-miterlimit:10;"
              d="M 123.080175 69.979581 C 113.720408 69.979581 106.140398 62.400416 106.140398 53.039805 C 106.140398 43.680038 113.720408 36.329674 123.080175 36.329674 C 132.439942 36.329674 139.900063 43.789795 139.900063 53.270295 C 139.900063 62.520305 132.439942 69.979581 123.080175 69.979581 Z M 123.080175 36.810074 C 113.960185 36.810074 106.729711 44.039704 106.729711 53.159694 C 106.729711 62.279683 113.960185 69.510158 123.080175 69.510158 C 132.200164 69.510158 139.429795 62.159794 139.429795 53.159694 C 139.429795 44.159593 132.080275 36.810074 123.080175 36.810074 Z M 123.080175 36.810074 "
              transform="matrix(4.626684,0,0,4.626684,0,0)"/>
        <path style="fill-rule:nonzero;fill:rgb(0%,0%,0%);fill-opacity:1;stroke-width:0.25;stroke-linecap:butt;stroke-linejoin:miter;stroke:rgb(0%,0%,0%);stroke-opacity:1;stroke-miterlimit:10;"
              d="M 106.489933 52.919916 L 140.019951 52.919916 L 140.019951 53.510073 L 106.489933 53.510073 Z M 106.489933 52.919916 "
              transform="matrix(4.626684,0,0,4.626684,0,0)"/>
        <path style="fill-rule:nonzero;fill:rgb(0%,0%,0%);fill-opacity:1;stroke-width:0.25;stroke-linecap:butt;stroke-linejoin:miter;stroke:rgb(0%,0%,0%);stroke-opacity:1;stroke-miterlimit:10;"
              d="M 122.840397 46.049952 C 121.059796 46.049952 119.29017 45.810174 117.859948 45.579684 C 113.240009 44.629861 110.160049 42.969992 110.04016 42.740346 L 110.04016 42.379836 L 110.399827 42.740346 L 110.160049 42.499725 L 110.399827 42.499725 C 110.399827 42.379836 110.279938 42.259947 110.279938 42.259947 C 110.399827 42.379836 111.229761 42.850104 112.410074 43.44026 C 113.590388 43.909684 115.490034 44.619729 117.859948 45.100129 C 122.009619 45.810174 128.400028 45.930063 135.629658 42.379836 L 135.87028 42.850104 C 131.129608 45.339906 126.630402 46.049952 122.840397 46.049952 Z M 122.840397 46.049952 "
              transform="matrix(4.626684,0,0,4.626684,0,0)"/>
        <path style="fill-rule:nonzero;fill:rgb(0%,0%,0%);fill-opacity:1;stroke-width:0.25;stroke-linecap:butt;stroke-linejoin:miter;stroke:rgb(0%,0%,0%);stroke-opacity:1;stroke-miterlimit:10;"
              d="M 135.87028 63.819663 C 128.759694 60.150391 122.250241 60.27028 118.099725 61.100214 C 115.729811 61.569637 113.720408 62.279683 112.649852 62.760082 C 111.229761 63.350239 110.639604 63.829794 110.519715 63.940396 C 110.519715 63.940396 110.639604 63.819663 110.639604 63.699774 L 110.399827 63.699774 L 110.160049 63.940396 L 110.160049 63.579885 C 110.399827 63.340108 113.359897 61.569637 117.979836 60.739703 C 122.250241 59.909769 128.879583 59.78988 136.110058 63.459996 Z M 135.87028 63.819663 "
              transform="matrix(4.626684,0,0,4.626684,0,0)"/>
        <path style="fill-rule:nonzero;fill:rgb(0%,0%,0%);fill-opacity:1;stroke-width:0.25;stroke-linecap:butt;stroke-linejoin:miter;stroke:rgb(0%,0%,0%);stroke-opacity:1;stroke-miterlimit:10;"
              d="M 123.080175 69.979581 C 118.219614 69.979581 114.30972 62.400416 114.30972 53.039805 C 114.30972 48.539754 115.260388 44.390083 116.800367 41.190235 C 118.460236 37.990387 120.710261 36.209786 123.080175 36.209786 C 125.450089 36.209786 127.700114 37.990387 129.359982 41.190235 C 131.019851 44.390083 131.849785 48.650356 131.849785 53.039805 C 131.839654 62.520305 127.92976 69.979581 123.080175 69.979581 Z M 123.080175 36.810074 C 118.460236 36.810074 114.910008 44.159593 114.910008 53.159694 C 114.910008 57.539855 115.859831 61.690371 117.399811 64.77033 C 118.939791 67.850289 121.069927 69.630046 123.210195 69.630046 C 125.340331 69.630046 127.479755 67.970178 129.019735 64.77033 C 130.559714 61.569637 131.510382 57.419966 131.510382 53.159694 C 131.37023 44.039704 127.580225 36.810074 123.080175 36.810074 Z M 123.080175 36.810074 "
              transform="matrix(4.626684,0,0,4.626684,0,0)"/>
        <path style="fill-rule:nonzero;fill:rgb(0%,0%,0%);fill-opacity:1;stroke-width:0.25;stroke-linecap:butt;stroke-linejoin:miter;stroke:rgb(0%,0%,0%);stroke-opacity:1;stroke-miterlimit:10;"
              d="M 122.840397 36.570296 L 123.42971 36.570296 L 123.42971 69.859693 L 122.840397 69.859693 Z M 122.840397 36.570296 "
              transform="matrix(4.626684,0,0,4.626684,0,0)"/>
        <path style="fill:none;stroke-width:2;stroke-linecap:butt;stroke-linejoin:miter;stroke:rgb(0%,0%,0%);stroke-opacity:1;stroke-miterlimit:10;"
              d="M 133.860033 28.870398 L 112.529963 28.870398 C 104.949953 28.870398 98.790035 35.030316 98.790035 42.610326 L 98.790035 63.940396 C 98.790035 71.520405 104.949953 77.680324 112.529963 77.680324 L 124.610023 77.680324 C 124.610023 77.680324 124.849801 85.380223 136.809972 85.380223 C 131.950255 85.500111 131.599876 81.710106 131.719765 77.680324 L 133.849901 77.680324 C 141.429911 77.680324 147.58983 71.520405 147.58983 63.940396 L 147.58983 42.610326 C 147.599961 35.030316 141.440042 28.870398 133.860033 28.870398 Z M 133.860033 28.870398 "
              transform="matrix(4.626684,0,0,4.626684,0,0)"/>
    </g>
</svg>
