<svg width="372" height="372" viewBox="0 0 372 372" fill="none" xmlns="http://www.w3.org/2000/svg">
<path d="M372.38 186.19C372.38 227.03 359.23 264.8 336.93 295.5C333.74 299.9 330.36 304.15 326.8 308.25C292.66 347.54 242.32 372.38 186.19 372.38C83.36 372.38 0 289.02 0 186.19C0 83.36 83.36 0 186.19 0C289.02 0 372.38 83.36 372.38 186.19Z" fill="#E55129"/>
<path d="M240.06 295.5V293.04C240.06 264.08 240.06 235.11 240.05 206.13C240.05 194.04 230.23 184.2 218.18 184.16C205.26 184.11 192.33 184.14 179.4 184.18C177.85 184.18 176.27 184.37 174.78 184.73C164.56 187.15 157.61 195.89 157.61 206.39C157.6 235.31 157.61 264.24 157.61 293.15V295.41C157.06 295.46 156.77 295.5 156.51 295.5C143.52 295.5 130.52 295.63 117.55 295.43C110.91 295.34 105.43 292.36 101.19 287.25C97.51 282.81 96.03 277.63 96.04 271.92C96.12 249.91 96.2 227.89 96.24 205.88C96.27 190.68 96.24 175.47 96.24 160.25C96.24 159.75 96.27 159.26 96.24 158.76C96 154.84 93.46 152.39 89.54 152.36C87.81 152.34 86.09 152.39 84.36 152.32C77.1 152.01 72.28 146.06 73.87 139.38C74.56 136.5 76.43 134.45 78.67 132.76C97.91 118.25 117.13 103.75 136.37 89.28C145.1 82.73 153.9 76.22 162.68 69.7C168.76 65.19 174.76 60.54 181 56.23C187.08 52.02 193.97 50.89 201.25 51.87C207.1 52.66 211.99 55.51 216.62 58.98C232.34 70.72 248.1 82.44 263.81 94.15C266.69 96.28 270.85 95.9 272.7 93.38C275.15 90.06 274.59 86.3 271.34 83.89C265.23 79.36 259.1 74.84 252.99 70.3C242.82 62.73 232.59 55.22 222.47 47.61C207.01 36 186.65 35.98 171.22 47.57C160.69 55.48 150.01 63.23 139.47 71.14C116.34 88.51 93.19 105.83 70.2 123.4C62.78 129.06 59.51 136.85 61.51 146.27C63.76 156.89 70.89 163.31 81.67 164.7C83.07 164.88 83.64 165.31 83.62 166.83C83.53 172.45 83.62 178.1 83.6 183.72C83.54 198.2 83.41 212.68 83.37 227.17C83.33 242.2 83.37 257.25 83.39 272.28C83.4 274.07 83.53 275.87 83.75 277.64C86.02 294.91 100.7 307.95 118.12 308.09C134.38 308.24 150.67 308.38 166.92 308.38C190.89 308.38 214.85 308.14 238.8 308.16C268.13 308.17 297.47 308.21 326.8 308.25C330.36 304.15 333.74 299.9 336.93 295.5H240.06ZM227.47 295.35H170.23V207.14C170.23 200.7 174.21 196.74 180.64 196.74H217.25C223.44 196.76 227.47 200.77 227.47 207.01V295.35Z" fill="white" stroke="white" stroke-width="5" stroke-miterlimit="10"/>
</svg>
