<svg width="150" height="72" viewBox="0 0 150 72" fill="none" xmlns="http://www.w3.org/2000/svg">
<path d="M61.8763 25.3416C61.7332 25.3416 61.6181 25.2963 61.5309 25.2055C61.4402 25.1148 61.3948 24.9997 61.3948 24.8602V12.3494C61.3948 12.2099 61.4402 12.0947 61.5309 12.004C61.6216 11.9133 61.7367 11.868 61.8763 11.868H63.6276C63.8195 11.868 63.9625 11.9133 64.0498 12.004C64.1405 12.0947 64.1963 12.1645 64.2242 12.2168L69.3632 20.241V12.3494C69.3632 12.2099 69.4085 12.0947 69.4992 12.004C69.5899 11.9133 69.6981 11.868 69.8272 11.868H71.7914C71.9309 11.868 72.0495 11.9133 72.1368 12.004C72.2275 12.0947 72.2728 12.2099 72.2728 12.3494V24.8567C72.2728 24.9858 72.2275 25.0974 72.1368 25.1951C72.046 25.2928 71.9309 25.3381 71.7914 25.3381H70.0191C69.8272 25.3381 69.6876 25.2893 69.6039 25.1951C69.5202 25.0974 69.4609 25.0311 69.4225 24.9927L64.3045 17.2162V24.8567C64.3045 24.9962 64.2591 25.1148 64.1684 25.2021C64.0777 25.2893 63.9625 25.3381 63.823 25.3381H61.8797L61.8763 25.3416Z" fill="#E55129"/>
<path d="M79.3725 25.5335C77.8967 25.5335 76.728 25.1218 75.8593 24.302C74.9941 23.4821 74.5336 22.2889 74.4847 20.7225V19.8956C74.537 18.9083 74.7603 18.057 75.158 17.3453C75.5558 16.6336 76.114 16.0894 76.8327 15.7091C77.5513 15.3323 78.3921 15.1404 79.355 15.1404C80.4331 15.1404 81.3332 15.3602 82.0588 15.8033C82.7845 16.2464 83.3288 16.8499 83.6951 17.614C84.0614 18.378 84.2428 19.2537 84.2428 20.241V20.6841C84.2428 20.8132 84.194 20.9213 84.0998 21.012C84.0021 21.1027 83.8905 21.1481 83.7649 21.1481H77.4711V21.3016C77.4851 21.7133 77.5653 22.0866 77.7118 22.4285C77.8584 22.7669 78.0712 23.0425 78.3468 23.2449C78.6224 23.4507 78.9538 23.5519 79.3376 23.5519C79.6586 23.5519 79.9202 23.5065 80.1261 23.4158C80.3319 23.3251 80.5029 23.2169 80.6354 23.0879C80.7715 22.9588 80.8692 22.8506 80.932 22.7599C81.0471 22.6308 81.1413 22.5506 81.2111 22.5192C81.2808 22.4878 81.3925 22.4703 81.5495 22.4703H83.552C83.6811 22.4703 83.7858 22.5052 83.8695 22.575C83.9533 22.6448 83.9881 22.746 83.9742 22.8716C83.9602 23.0774 83.8556 23.3286 83.6567 23.6321C83.4578 23.9321 83.1648 24.2287 82.781 24.5183C82.3973 24.8078 81.9193 25.0486 81.3471 25.2404C80.775 25.4323 80.1191 25.53 79.376 25.53L79.3725 25.5335ZM77.4676 19.3932H81.239V19.3549C81.239 18.8944 81.1657 18.4931 81.0192 18.1512C80.8727 17.8128 80.6564 17.5442 80.3738 17.3523C80.0912 17.1604 79.7528 17.0627 79.355 17.0627C78.9573 17.0627 78.6154 17.1604 78.3363 17.3523C78.0537 17.5442 77.8374 17.8128 77.6909 18.1512C77.5444 18.4897 77.4711 18.8909 77.4711 19.3549V19.3932H77.4676Z" fill="#E55129"/>
<path d="M90.9378 25.3416C90.1423 25.3416 89.462 25.209 88.8968 24.9474C88.3317 24.6857 87.906 24.2775 87.6165 23.7263C87.3269 23.1751 87.1838 22.4808 87.1838 21.647V17.607H85.6837C85.5441 17.607 85.4255 17.5616 85.3383 17.4709C85.2476 17.3802 85.2022 17.2651 85.2022 17.1255V15.8173C85.2022 15.6777 85.2476 15.5591 85.3383 15.4719C85.429 15.3846 85.5441 15.3358 85.6837 15.3358H87.1838V12.161C87.1838 12.0215 87.2327 11.9028 87.3269 11.8156C87.4246 11.7249 87.5362 11.6796 87.6618 11.6796H89.5492C89.6888 11.6796 89.8074 11.7249 89.8946 11.8156C89.9853 11.9063 90.0307 12.0215 90.0307 12.161V15.3358H92.4379C92.567 15.3358 92.6752 15.3812 92.7659 15.4719C92.8566 15.5626 92.902 15.6777 92.902 15.8173V17.1255C92.902 17.2651 92.8566 17.3837 92.7659 17.4709C92.6752 17.5582 92.567 17.607 92.4379 17.607H90.0307V21.4167C90.0307 21.9052 90.1179 22.2854 90.2923 22.5611C90.4668 22.8367 90.7703 22.9762 91.2064 22.9762H92.6124C92.7415 22.9762 92.8496 23.0216 92.9403 23.1123C93.031 23.203 93.0764 23.3112 93.0764 23.4402V24.8637C93.0764 25.0032 93.031 25.1218 92.9403 25.209C92.8496 25.2963 92.7415 25.3451 92.6124 25.3451H90.9378V25.3416Z" fill="#E55129"/>
<path d="M94.7475 25.3416C94.6184 25.3416 94.5103 25.2963 94.4196 25.2056C94.3289 25.1148 94.2835 24.9997 94.2835 24.8602V23.5693C94.2835 23.4402 94.3114 23.3251 94.3707 23.2239C94.43 23.1228 94.4963 23.0251 94.5731 22.9344L99.2864 17.5651H94.9185C94.7754 17.5651 94.6603 17.5198 94.5731 17.4291C94.4824 17.3384 94.437 17.2302 94.437 17.1011V15.8103C94.437 15.6707 94.4824 15.5521 94.5731 15.4649C94.6638 15.3777 94.7789 15.3288 94.9185 15.3288H102.423C102.562 15.3288 102.681 15.3742 102.768 15.4649C102.859 15.5556 102.904 15.6707 102.904 15.8103V17.1953C102.904 17.3105 102.88 17.4151 102.828 17.5023C102.775 17.593 102.712 17.6838 102.636 17.771L98.0165 23.1018H102.828C102.957 23.1018 103.065 23.1472 103.155 23.2379C103.246 23.3286 103.292 23.4367 103.292 23.5658V24.8567C103.292 24.9962 103.246 25.1148 103.155 25.2021C103.065 25.2928 102.957 25.3381 102.828 25.3381H94.744L94.7475 25.3416Z" fill="#E55129"/>
<path d="M107.911 25.3416C107.729 25.3416 107.593 25.2963 107.496 25.2056C107.398 25.1148 107.325 24.9997 107.276 24.8602L104.523 15.9498C104.499 15.887 104.485 15.8207 104.485 15.7579C104.485 15.6428 104.527 15.5416 104.61 15.4614C104.694 15.3777 104.792 15.3358 104.907 15.3358H106.599C106.766 15.3358 106.895 15.3812 106.983 15.4719C107.073 15.5626 107.129 15.6463 107.157 15.7231L108.908 21.6679L110.775 15.7614C110.799 15.6707 110.862 15.58 110.956 15.4823C111.054 15.3846 111.19 15.3393 111.372 15.3393H112.467C112.645 15.3393 112.785 15.3881 112.882 15.4823C112.98 15.58 113.039 15.6707 113.064 15.7614L114.93 21.6679L116.681 15.7231C116.695 15.6463 116.748 15.5626 116.845 15.4719C116.943 15.3812 117.065 15.3358 117.222 15.3358H118.914C119.029 15.3358 119.131 15.3777 119.214 15.4614C119.298 15.5451 119.34 15.6428 119.34 15.7579C119.34 15.8207 119.333 15.887 119.322 15.9498L116.552 24.8602C116.514 24.9997 116.448 25.1183 116.35 25.2056C116.252 25.2963 116.116 25.3416 115.935 25.3416H114.452C114.271 25.3416 114.131 25.2963 114.03 25.2056C113.929 25.1148 113.849 24.9997 113.8 24.8602L111.933 19.163L110.028 24.8602C109.99 24.9997 109.92 25.1183 109.816 25.2056C109.714 25.2963 109.571 25.3416 109.393 25.3416H107.911Z" fill="#E55129"/>
<path d="M125.288 25.5335C123.813 25.5335 122.644 25.1218 121.775 24.302C120.91 23.4821 120.449 22.2889 120.401 20.7225V19.8956C120.453 18.9083 120.676 18.057 121.074 17.3453C121.472 16.6336 122.03 16.0894 122.748 15.7091C123.467 15.3323 124.308 15.1404 125.271 15.1404C126.349 15.1404 127.249 15.3602 127.975 15.8033C128.7 16.2464 129.245 16.8499 129.611 17.614C129.977 18.378 130.159 19.2537 130.159 20.241V20.6841C130.159 20.8132 130.11 20.9213 130.016 21.012C129.918 21.1027 129.806 21.1481 129.681 21.1481H123.387V21.3016C123.401 21.7133 123.481 22.0866 123.628 22.4285C123.774 22.7669 123.987 23.0425 124.263 23.2449C124.538 23.4507 124.87 23.5519 125.253 23.5519C125.574 23.5519 125.836 23.5065 126.042 23.4158C126.248 23.3251 126.419 23.2169 126.551 23.0879C126.687 22.9588 126.785 22.8506 126.848 22.7599C126.963 22.6308 127.057 22.5506 127.127 22.5192C127.197 22.4878 127.308 22.4703 127.465 22.4703H129.468C129.597 22.4703 129.702 22.5052 129.785 22.575C129.869 22.6448 129.904 22.746 129.89 22.8716C129.876 23.0774 129.771 23.3286 129.573 23.6321C129.374 23.9321 129.081 24.2287 128.697 24.5183C128.313 24.8078 127.835 25.0486 127.263 25.2404C126.691 25.4323 126.035 25.53 125.292 25.53L125.288 25.5335ZM123.383 19.3932H127.155V19.3549C127.155 18.8944 127.082 18.4931 126.935 18.1512C126.788 17.8128 126.572 17.5442 126.29 17.3523C126.007 17.1604 125.669 17.0627 125.271 17.0627C124.873 17.0627 124.531 17.1604 124.252 17.3523C123.97 17.5442 123.753 17.8128 123.607 18.1512C123.46 18.4897 123.387 18.8909 123.387 19.3549V19.3932H123.383Z" fill="#E55129"/>
<path d="M132.541 25.3416C132.412 25.3416 132.304 25.2963 132.214 25.2055C132.123 25.1148 132.077 24.9997 132.077 24.8602V15.8138C132.077 15.6847 132.123 15.573 132.214 15.4753C132.304 15.3777 132.412 15.3323 132.541 15.3323H134.429C134.558 15.3323 134.67 15.3811 134.764 15.4753C134.862 15.573 134.907 15.6847 134.907 15.8138V16.5848C135.228 16.1871 135.622 15.88 136.09 15.6603C136.557 15.4439 137.101 15.3323 137.715 15.3323H138.542C138.671 15.3323 138.779 15.3777 138.87 15.4684C138.961 15.5591 139.006 15.6742 139.006 15.8138V17.4674C139.006 17.6105 138.961 17.7256 138.87 17.8128C138.779 17.9 138.671 17.9489 138.542 17.9489H136.85C136.285 17.9489 135.842 18.1059 135.521 18.4199C135.2 18.7339 135.039 19.1804 135.039 19.7561V24.8567C135.039 24.9962 134.994 25.1148 134.903 25.2021C134.813 25.2893 134.698 25.3381 134.558 25.3381H132.538L132.541 25.3416Z" fill="#E55129"/>
<path d="M140.932 25.3416C140.789 25.3416 140.674 25.2963 140.587 25.2056C140.496 25.1148 140.451 24.9997 140.451 24.8602V12.1575C140.451 12.018 140.496 11.8994 140.587 11.8121C140.677 11.7249 140.792 11.6761 140.932 11.6761H142.819C142.948 11.6761 143.057 11.7214 143.147 11.8121C143.238 11.9028 143.283 12.018 143.283 12.1575V18.6606L146.249 15.6603C146.35 15.5695 146.444 15.4928 146.528 15.43C146.612 15.3672 146.744 15.3323 146.922 15.3323H149.096C149.225 15.3323 149.326 15.3742 149.403 15.4579C149.479 15.5416 149.518 15.6393 149.518 15.7545C149.518 15.8068 149.504 15.8626 149.479 15.9289C149.455 15.9917 149.41 16.044 149.343 16.0824L145.628 19.8154L149.825 24.6055C149.94 24.7067 149.999 24.8113 149.999 24.9125C149.999 25.0276 149.957 25.1288 149.874 25.209C149.79 25.2928 149.692 25.3346 149.574 25.3346H147.341C147.149 25.3346 147.009 25.3032 146.926 25.2369C146.842 25.1741 146.748 25.0974 146.647 25.0067L143.28 21.2353V24.8532C143.28 24.9927 143.235 25.1114 143.144 25.1986C143.053 25.2893 142.945 25.3346 142.816 25.3346H140.928L140.932 25.3416Z" fill="#E55129"/>
<path d="M66.7466 44.7776C65.5779 44.7776 64.5731 44.5857 63.7253 44.2019C62.8775 43.8182 62.2182 43.2356 61.7437 42.461C61.2692 41.6865 61.0111 40.7062 60.9727 39.527C60.9587 38.9758 60.9552 38.428 60.9552 37.8803C60.9552 37.3325 60.9622 36.7813 60.9727 36.2161C61.0111 35.0614 61.2727 34.088 61.7507 33.2995C62.2286 32.5111 62.8985 31.918 63.7532 31.5202C64.608 31.1225 65.6023 30.9237 66.7466 30.9237C67.8909 30.9237 68.8678 31.1225 69.719 31.5202C70.5738 31.918 71.2436 32.5111 71.7286 33.2995C72.2135 34.088 72.4717 35.0614 72.4996 36.2161C72.524 36.7813 72.538 37.336 72.538 37.8803C72.538 38.4245 72.524 38.9758 72.4996 39.527C72.4612 40.7062 72.2031 41.6865 71.7286 42.461C71.2541 43.239 70.5947 43.8182 69.7469 44.2019C68.8992 44.5857 67.9014 44.7776 66.7466 44.7776ZM66.7466 42.2936C67.4897 42.2936 68.1037 42.0668 68.5852 41.6098C69.0666 41.1562 69.3178 40.4271 69.3457 39.4258C69.3702 38.8606 69.3841 38.3338 69.3841 37.8384C69.3841 37.343 69.3702 36.8232 69.3457 36.2685C69.3318 35.6021 69.2097 35.0544 68.9794 34.6322C68.7492 34.2101 68.4421 33.8996 68.0654 33.6972C67.6886 33.4984 67.249 33.4007 66.7466 33.4007C66.2442 33.4007 65.8046 33.5019 65.4174 33.6972C65.0336 33.8961 64.7266 34.2066 64.5033 34.6322C64.28 35.0544 64.1544 35.6021 64.1265 36.2685C64.1126 36.8197 64.1056 37.343 64.1056 37.8384C64.1056 38.3338 64.1126 38.8606 64.1265 39.4258C64.1649 40.4271 64.4231 41.1562 64.8976 41.6098C65.372 42.0668 65.9861 42.2936 66.7466 42.2936Z" fill="#E55129"/>
<path d="M80.5238 44.7776C79.7911 44.7776 79.1841 44.652 78.6957 44.4008C78.2072 44.1496 77.8095 43.8321 77.5025 43.4484V44.1043C77.5025 44.2438 77.4571 44.3624 77.3664 44.4496C77.2757 44.5404 77.1606 44.5857 77.021 44.5857H75.1929C75.0499 44.5857 74.9348 44.5404 74.8475 44.4496C74.7568 44.3589 74.7115 44.2438 74.7115 44.1043V31.4016C74.7115 31.2621 74.7568 31.1434 74.8475 31.0562C74.9382 30.969 75.0534 30.9202 75.1929 30.9202H77.1746C77.3036 30.9202 77.4118 30.9655 77.5025 31.0562C77.5932 31.1469 77.6386 31.2621 77.6386 31.4016V35.5951C77.9595 35.2358 78.3572 34.9427 78.8317 34.7194C79.3062 34.4962 79.8714 34.381 80.5238 34.381C81.1762 34.381 81.7728 34.4927 82.2647 34.7194C82.7601 34.9427 83.1787 35.2567 83.5241 35.6614C83.8695 36.0661 84.1347 36.5441 84.3231 37.0953C84.508 37.6465 84.6091 38.2571 84.6196 38.9234C84.6336 39.1537 84.6405 39.37 84.6405 39.5688C84.6405 39.7677 84.6336 39.991 84.6196 40.2317C84.5952 40.912 84.487 41.5295 84.3021 42.0877C84.1172 42.6459 83.8521 43.1274 83.5137 43.5321C83.1753 43.9368 82.7566 44.2438 82.2647 44.4566C81.7693 44.6694 81.1901 44.7741 80.5238 44.7741V44.7776ZM79.6586 42.468C80.147 42.468 80.5308 42.3634 80.8133 42.1505C81.0959 41.9377 81.2983 41.6586 81.4204 41.3132C81.5425 40.9678 81.6158 40.5876 81.6402 40.1794C81.6646 39.7817 81.6646 39.3839 81.6402 38.9862C81.6158 38.5745 81.539 38.1978 81.4204 37.8524C81.2983 37.507 81.0959 37.2279 80.8133 37.0151C80.5308 36.8022 80.147 36.6976 79.6586 36.6976C79.198 36.6976 78.8213 36.7988 78.5317 37.0046C78.2421 37.2104 78.0258 37.4686 77.8758 37.7826C77.7293 38.0966 77.649 38.435 77.6351 38.7943C77.6211 39.0246 77.6176 39.2618 77.6176 39.506C77.6176 39.7503 77.6246 39.9945 77.6351 40.2387C77.6595 40.6225 77.7362 40.9818 77.8653 41.3167C77.9944 41.6516 78.2037 41.9273 78.5003 42.1436C78.7968 42.3634 79.1806 42.4715 79.6551 42.4715L79.6586 42.468Z" fill="#E55129"/>
<path d="M90.397 44.7776C89.7551 44.7776 89.1864 44.6729 88.684 44.4601C88.1851 44.2473 87.7595 43.9403 87.4141 43.5356C87.0687 43.1309 86.8036 42.6494 86.6256 42.0912C86.4442 41.533 86.3361 40.9155 86.2977 40.2352C86.2837 39.991 86.2768 39.7712 86.2768 39.5723C86.2768 39.3735 86.2837 39.1572 86.2977 38.9269C86.3221 38.2606 86.4303 37.65 86.6152 37.0988C86.8001 36.5476 87.0652 36.0696 87.4036 35.6649C87.742 35.2602 88.1677 34.9462 88.6736 34.7229C89.1794 34.4997 89.7551 34.3845 90.397 34.3845C91.0389 34.3845 91.6355 34.4962 92.11 34.7229C92.5845 34.9462 92.9752 35.2393 93.2857 35.5986V31.4051C93.2857 31.2656 93.3311 31.1469 93.4218 31.0597C93.5125 30.9725 93.6276 30.9237 93.7672 30.9237H95.7488C95.8779 30.9237 95.986 30.969 96.0767 31.0597C96.1675 31.1504 96.2128 31.2656 96.2128 31.4051V44.1078C96.2128 44.2473 96.1675 44.3659 96.0767 44.4531C95.986 44.5404 95.8779 44.5892 95.7488 44.5892H93.8997C93.7707 44.5892 93.6625 44.5438 93.5718 44.4531C93.4811 44.3624 93.4357 44.2473 93.4357 44.1078V43.4519C93.1148 43.8356 92.7101 44.1531 92.2216 44.4043C91.7332 44.6555 91.1262 44.7811 90.3935 44.7811L90.397 44.7776ZM91.2832 42.468C91.7576 42.468 92.1414 42.3599 92.4275 42.1401C92.717 41.9238 92.9264 41.6447 93.0624 41.3132C93.1985 40.9783 93.2718 40.619 93.2822 40.2352C93.3067 39.991 93.3206 39.7468 93.3206 39.5026C93.3206 39.2584 93.3067 39.0211 93.2822 38.7909C93.2683 38.4315 93.1915 38.0966 93.052 37.7791C92.9089 37.4651 92.6961 37.2035 92.4065 37.0011C92.117 36.7953 91.7437 36.6941 91.2797 36.6941C90.7912 36.6941 90.4075 36.7988 90.1249 37.0116C89.8423 37.2244 89.6399 37.5035 89.5178 37.8489C89.3957 38.1943 89.3225 38.5745 89.298 38.9827C89.2597 39.3805 89.2597 39.7782 89.298 40.1759C89.3225 40.5876 89.3957 40.9644 89.5178 41.3098C89.6399 41.6551 89.8423 41.9342 90.1249 42.1471C90.4075 42.3599 90.7912 42.4645 91.2797 42.4645L91.2832 42.468Z" fill="#E55129"/>
<path d="M101.596 44.7776C100.916 44.7776 100.305 44.645 99.7679 44.3834C99.2306 44.1217 98.798 43.7659 98.477 43.3158C98.156 42.8657 97.9956 42.3669 97.9956 41.8156C97.9956 40.9051 98.3654 40.1864 99.1015 39.6596C99.8376 39.1328 100.811 38.7734 102.018 38.5815L104.541 38.2152V37.8698C104.541 37.3709 104.425 36.9837 104.195 36.715C103.965 36.4464 103.56 36.3103 102.985 36.3103C102.562 36.3103 102.22 36.3941 101.966 36.5615C101.708 36.729 101.509 36.9453 101.369 37.2174C101.268 37.3849 101.118 37.4686 100.926 37.4686H99.098C98.955 37.4686 98.8468 37.4267 98.7701 37.343C98.6933 37.2593 98.6619 37.1616 98.6724 37.0465C98.6724 36.8302 98.7561 36.572 98.9236 36.2754C99.091 35.9789 99.3457 35.6893 99.6946 35.3998C100.04 35.1102 100.483 34.8695 101.024 34.6776C101.561 34.4857 102.224 34.388 103.005 34.388C103.787 34.388 104.506 34.4857 105.085 34.6776C105.66 34.8695 106.124 35.1381 106.47 35.487C106.815 35.8324 107.073 36.2336 107.241 36.6906C107.408 37.1476 107.492 37.6361 107.492 38.1629V44.1078C107.492 44.2473 107.447 44.3659 107.356 44.4531C107.265 44.5404 107.15 44.5892 107.011 44.5892H105.123C104.994 44.5892 104.886 44.5438 104.795 44.4531C104.704 44.3624 104.659 44.2473 104.659 44.1078V43.396C104.492 43.6403 104.268 43.867 103.986 44.0798C103.703 44.2927 103.368 44.4601 102.974 44.5892C102.58 44.7183 102.123 44.7811 101.599 44.7811L101.596 44.7776ZM102.367 42.775C102.789 42.775 103.169 42.6843 103.501 42.5064C103.836 42.3285 104.097 42.0529 104.289 41.6796C104.481 41.3063 104.579 40.8388 104.579 40.2736V39.9456L102.789 40.2352C102.095 40.3503 101.589 40.5248 101.268 40.755C100.947 40.9853 100.787 41.2679 100.787 41.6028C100.787 41.847 100.86 42.0598 101.006 42.2378C101.153 42.4192 101.348 42.5518 101.593 42.6425C101.837 42.7332 102.091 42.7785 102.364 42.7785L102.367 42.775Z" fill="#E55129"/>
<path d="M114.26 44.7776C113.322 44.7776 112.498 44.6032 111.787 44.2578C111.075 43.9124 110.513 43.4065 110.102 42.7471C109.69 42.0877 109.467 41.2958 109.428 40.3713C109.414 40.1654 109.407 39.9073 109.407 39.5933C109.407 39.2793 109.414 39.0176 109.428 38.8153C109.467 37.8803 109.686 37.0814 110.091 36.4185C110.496 35.7591 111.058 35.2532 111.776 34.9078C112.495 34.5625 113.322 34.388 114.26 34.388C115.118 34.388 115.851 34.5066 116.455 34.7439C117.058 34.9811 117.55 35.2811 117.937 35.637C118.321 35.9963 118.607 36.3731 118.796 36.7639C118.981 37.1546 119.082 37.5 119.092 37.7931C119.106 37.9221 119.064 38.0338 118.967 38.1315C118.869 38.2292 118.757 38.2745 118.632 38.2745H116.573C116.444 38.2745 116.347 38.2396 116.273 38.1699C116.2 38.1001 116.134 37.9989 116.071 37.8698C115.89 37.4198 115.659 37.0988 115.377 36.9069C115.094 36.715 114.742 36.6173 114.32 36.6173C113.74 36.6173 113.287 36.8022 112.952 37.1755C112.617 37.5488 112.439 38.1245 112.415 38.906C112.401 39.4049 112.401 39.8619 112.415 40.2736C112.453 41.069 112.634 41.6482 112.962 42.004C113.29 42.3634 113.74 42.5413 114.32 42.5413C114.77 42.5413 115.129 42.4436 115.398 42.2517C115.666 42.0598 115.893 41.7389 116.071 41.2888C116.123 41.1597 116.186 41.062 116.263 40.9923C116.34 40.9225 116.441 40.8876 116.57 40.8876H118.628C118.757 40.8876 118.869 40.9365 118.963 41.0306C119.061 41.1283 119.099 41.24 119.089 41.3691C119.075 41.5889 119.015 41.8435 118.907 42.1401C118.799 42.4366 118.625 42.7367 118.387 43.0437C118.15 43.3507 117.847 43.6368 117.473 43.9019C117.1 44.1636 116.65 44.3764 116.116 44.5369C115.582 44.6974 114.965 44.7776 114.26 44.7776Z" fill="#E55129"/>
<path d="M121.458 44.5857C121.315 44.5857 121.199 44.5404 121.112 44.4496C121.021 44.3589 120.976 44.2438 120.976 44.1043V31.4016C120.976 31.2621 121.021 31.1434 121.112 31.0562C121.203 30.969 121.318 30.9202 121.458 30.9202H123.537C123.666 30.9202 123.774 30.9655 123.865 31.0562C123.956 31.1469 124.001 31.2621 124.001 31.4016V35.7312C124.346 35.3195 124.772 34.9951 125.271 34.7508C125.77 34.5066 126.373 34.3845 127.078 34.3845C127.835 34.3845 128.505 34.5555 129.088 34.8939C129.67 35.2323 130.131 35.7277 130.462 36.3766C130.797 37.0255 130.961 37.8105 130.961 38.735V44.1043C130.961 44.2438 130.916 44.3624 130.825 44.4496C130.734 44.5369 130.619 44.5857 130.48 44.5857H128.383C128.254 44.5857 128.146 44.5404 128.055 44.4496C127.964 44.3589 127.919 44.2438 127.919 44.1043V38.8502C127.919 38.1698 127.751 37.6396 127.42 37.2628C127.085 36.886 126.611 36.6941 125.996 36.6941C125.382 36.6941 124.908 36.8825 124.545 37.2628C124.179 37.6396 123.997 38.1698 123.997 38.8502V44.1043C123.997 44.2438 123.952 44.3624 123.861 44.4496C123.771 44.5369 123.662 44.5857 123.533 44.5857H121.454H121.458Z" fill="#E55129"/>
<path d="M140.088 44.7776C139.125 44.7776 138.284 44.6206 137.565 44.3066C136.847 43.9926 136.288 43.5391 135.891 42.9495C135.493 42.3599 135.294 41.6656 135.294 40.8702C135.294 40.305 135.406 39.8061 135.629 39.37C135.852 38.9339 136.166 38.5397 136.564 38.1873C136.962 37.8349 137.419 37.5105 137.932 37.2139C137.405 36.6487 137.032 36.1359 136.805 35.6754C136.581 35.2149 136.466 34.7404 136.466 34.252C136.466 33.6624 136.62 33.1181 136.927 32.6157C137.234 32.1168 137.691 31.7086 138.294 31.3946C138.898 31.0807 139.634 30.9237 140.506 30.9237C141.326 30.9237 142.027 31.0737 142.603 31.3772C143.182 31.6772 143.622 32.0784 143.932 32.5808C144.239 33.0797 144.393 33.6275 144.393 34.2171C144.393 34.7439 144.274 35.2149 144.037 35.63C143.8 36.0487 143.475 36.422 143.064 36.7569C142.652 37.0918 142.184 37.4128 141.658 37.7198L144.18 40.2422C144.309 40.0259 144.47 39.7224 144.661 39.3386C144.853 38.9548 145.028 38.4594 145.181 37.8559C145.22 37.65 145.356 37.5488 145.586 37.5488H147.261C147.376 37.5488 147.47 37.5837 147.54 37.6535C147.609 37.7233 147.644 37.8175 147.644 37.9326C147.63 38.1768 147.575 38.4629 147.47 38.7909C147.369 39.1188 147.226 39.4607 147.048 39.82C146.866 40.1794 146.671 40.5318 146.451 40.8771C146.231 41.2225 146.015 41.5435 145.795 41.84L147.892 43.9577C147.983 44.0589 148.028 44.1566 148.028 44.2473C148.028 44.3485 147.997 44.4322 147.93 44.4985C147.868 44.5613 147.777 44.5962 147.662 44.5962H145.45C145.321 44.5962 145.22 44.5752 145.143 44.5299C145.066 44.4845 144.996 44.4427 144.93 44.4043L143.967 43.4798C143.454 43.9019 142.879 44.2264 142.244 44.4531C141.609 44.6799 140.887 44.7916 140.077 44.7916L140.088 44.7776ZM140.088 42.5657C140.51 42.5657 140.911 42.4994 141.291 42.3634C141.668 42.2273 142.02 42.0075 142.341 41.7005L139.495 38.9095C139.097 39.1293 138.755 39.3874 138.476 39.6875C138.193 39.9875 138.054 40.3503 138.054 40.776C138.054 41.1493 138.151 41.4702 138.343 41.7389C138.535 42.0075 138.79 42.2133 139.104 42.3564C139.418 42.4994 139.749 42.5692 140.095 42.5692L140.088 42.5657ZM140.164 36.1184C140.485 35.9405 140.778 35.7626 141.051 35.5882C141.319 35.4137 141.532 35.2218 141.686 35.009C141.839 34.7962 141.916 34.5555 141.916 34.2868C141.916 33.8891 141.78 33.5751 141.511 33.3449C141.242 33.1146 140.908 32.9995 140.51 32.9995C140.137 32.9995 139.812 33.1146 139.529 33.3449C139.247 33.5751 139.107 33.8891 139.107 34.2868C139.107 34.4683 139.139 34.6427 139.205 34.8171C139.268 34.9916 139.379 35.18 139.533 35.3858C139.686 35.5916 139.899 35.8359 140.168 36.1184H140.164Z" fill="#E55129"/>
<path d="M63.5893 63.8298C63.3834 63.8298 63.2194 63.7705 63.0973 63.6554C62.9752 63.5402 62.902 63.4007 62.8775 63.2332L60.6831 50.8969C60.6691 50.8725 60.6622 50.8446 60.6622 50.8202V50.7608C60.6622 50.6597 60.7005 50.5655 60.7773 50.4817C60.8541 50.398 60.9517 50.3561 61.0669 50.3561H63.0869C63.4218 50.3561 63.6067 50.4922 63.6451 50.7608L65.0894 58.9002L66.6489 53.838C66.6873 53.7368 66.7501 53.6251 66.8408 53.51C66.9315 53.3949 67.078 53.3356 67.2839 53.3356H68.498C68.7038 53.3356 68.8503 53.3949 68.941 53.51C69.0317 53.6251 69.0876 53.7333 69.1155 53.838L70.6924 58.8792L72.1158 50.7574C72.1542 50.4887 72.3461 50.3527 72.695 50.3527H74.715C74.8301 50.3527 74.9278 50.3945 75.0045 50.4783C75.0813 50.562 75.1197 50.6562 75.1197 50.7574V50.8167C75.1197 50.8411 75.1127 50.869 75.0987 50.8934L72.9043 63.2297C72.8799 63.3972 72.8031 63.5367 72.6845 63.6519C72.5659 63.767 72.3984 63.8263 72.1926 63.8263H70.6331C70.4273 63.8263 70.2703 63.7705 70.1621 63.6623C70.054 63.5542 69.9807 63.4426 69.9423 63.3239L67.8839 57.3581L65.843 63.3239C65.8046 63.4391 65.7314 63.5507 65.6232 63.6623C65.5151 63.7705 65.3511 63.8263 65.1313 63.8263H63.5927L63.5893 63.8298Z" fill="#E55129"/>
<path d="M81.239 64.0217C80.1749 64.0217 79.2818 63.8438 78.5631 63.4914C77.8444 63.139 77.2967 62.6366 76.9164 61.9808C76.5396 61.3249 76.3303 60.5643 76.2919 59.6921C76.2779 59.4374 76.2744 59.1444 76.2744 58.8164C76.2744 58.4885 76.2814 58.2024 76.2919 57.9617C76.3303 57.0755 76.5501 56.3115 76.9478 55.6626C77.3455 55.0137 77.9037 54.5148 78.6224 54.1624C79.3411 53.81 80.2133 53.6321 81.239 53.6321C82.2647 53.6321 83.1194 53.81 83.8381 54.1624C84.5568 54.5148 85.115 55.0172 85.5127 55.6626C85.9104 56.3115 86.1268 57.0755 86.1686 57.9617C86.193 58.2059 86.207 58.492 86.207 58.8164C86.207 59.1409 86.193 59.434 86.1686 59.6921C86.1302 60.5643 85.9209 61.3284 85.5441 61.9808C85.1673 62.6332 84.6161 63.139 83.8974 63.4914C83.1787 63.8438 82.2926 64.0217 81.2425 64.0217H81.239ZM81.239 61.904C81.867 61.904 82.3414 61.7086 82.6624 61.3179C82.9834 60.9271 83.1578 60.3515 83.1822 59.5944C83.1962 59.4026 83.1997 59.1444 83.1997 58.8234C83.1997 58.5024 83.1927 58.2478 83.1822 58.0524C83.1578 57.3093 82.9834 56.7371 82.6624 56.3394C82.3414 55.9417 81.867 55.7428 81.239 55.7428C80.611 55.7428 80.133 55.9417 79.8051 56.3394C79.4771 56.7371 79.3027 57.3093 79.2748 58.0524C79.2608 58.2443 79.2539 58.5024 79.2539 58.8234C79.2539 59.1444 79.2608 59.3991 79.2748 59.5944C79.2992 60.3515 79.4771 60.9271 79.8051 61.3179C80.133 61.7086 80.611 61.904 81.239 61.904Z" fill="#E55129"/>
<path d="M88.705 63.8298C88.5619 63.8298 88.4468 63.7845 88.3596 63.6938C88.2689 63.6031 88.2235 63.4879 88.2235 63.3484V50.6457C88.2235 50.5062 88.2689 50.3876 88.3596 50.3003C88.4503 50.2131 88.5654 50.1643 88.705 50.1643H90.7843C90.9134 50.1643 91.0215 50.2096 91.1122 50.3003C91.2029 50.391 91.2483 50.5062 91.2483 50.6457V54.9753C91.5937 54.5636 92.0193 54.2392 92.5182 53.995C93.0171 53.7507 93.6206 53.6286 94.3254 53.6286C95.0824 53.6286 95.7523 53.7996 96.3349 54.138C96.9175 54.4764 97.3781 54.9718 97.7095 55.6207C98.0444 56.2696 98.2084 57.0546 98.2084 57.9791V63.3484C98.2084 63.4879 98.163 63.6065 98.0723 63.6938C97.9816 63.781 97.8665 63.8298 97.7269 63.8298H95.6302C95.5011 63.8298 95.393 63.7845 95.3022 63.6938C95.2115 63.6031 95.1662 63.4879 95.1662 63.3484V58.0943C95.1662 57.414 94.9987 56.8837 94.6673 56.5069C94.3324 56.1301 93.8579 55.9382 93.2439 55.9382C92.6298 55.9382 92.1554 56.1266 91.7925 56.5069C91.4262 56.8837 91.2448 57.414 91.2448 58.0943V63.3484C91.2448 63.4879 91.1994 63.6065 91.1087 63.6938C91.018 63.781 90.9099 63.8298 90.7808 63.8298H88.7015H88.705Z" fill="#E55129"/>
<path d="M100.982 63.8298C100.853 63.8298 100.745 63.7845 100.654 63.6938C100.563 63.603 100.518 63.4879 100.518 63.3484V54.302C100.518 54.1624 100.563 54.0438 100.654 53.9566C100.745 53.8694 100.853 53.8205 100.982 53.8205H102.869C103.009 53.8205 103.128 53.8659 103.215 53.9566C103.305 54.0473 103.351 54.1624 103.351 54.302V55.0521C103.686 54.6404 104.115 54.302 104.642 54.0333C105.169 53.7647 105.81 53.6286 106.567 53.6286C107.325 53.6286 107.987 53.7996 108.56 54.138C109.132 54.4764 109.578 54.9718 109.906 55.6207C110.234 56.2696 110.398 57.0546 110.398 57.9791V63.3484C110.398 63.4879 110.349 63.6065 110.255 63.6938C110.157 63.7845 110.046 63.8298 109.917 63.8298H107.876C107.733 63.8298 107.618 63.7845 107.53 63.6938C107.44 63.603 107.394 63.4879 107.394 63.3484V58.0943C107.394 57.414 107.23 56.8837 106.902 56.5069C106.574 56.1301 106.097 55.9382 105.469 55.9382C104.841 55.9382 104.384 56.1266 104.024 56.5069C103.665 56.8837 103.487 57.414 103.487 58.0943V63.3484C103.487 63.4879 103.442 63.6065 103.351 63.6938C103.26 63.781 103.152 63.8298 103.023 63.8298H100.982Z" fill="#E55129"/>
<path d="M117.166 64.0217C115.691 64.0217 114.522 63.61 113.653 62.7902C112.788 61.9703 112.327 60.7771 112.279 59.2107V58.3838C112.331 57.3965 112.554 56.5452 112.952 55.8335C113.35 55.1218 113.908 54.5776 114.627 54.1973C115.345 53.8205 116.186 53.6286 117.149 53.6286C118.227 53.6286 119.127 53.8484 119.853 54.2915C120.578 54.7346 121.123 55.3381 121.489 56.1022C121.855 56.8662 122.037 57.7419 122.037 58.7292V59.1723C122.037 59.3014 121.988 59.4095 121.894 59.5002C121.796 59.591 121.684 59.6363 121.559 59.6363H115.265V59.7898C115.279 60.2015 115.359 60.5748 115.506 60.9167C115.652 61.2551 115.865 61.5307 116.141 61.7331C116.416 61.9389 116.748 62.0401 117.132 62.0401C117.452 62.0401 117.714 61.9947 117.92 61.904C118.126 61.8133 118.297 61.7052 118.429 61.5761C118.565 61.447 118.663 61.3388 118.726 61.2481C118.841 61.119 118.935 61.0388 119.005 61.0074C119.075 60.976 119.186 60.9586 119.343 60.9586H121.346C121.475 60.9586 121.58 60.9934 121.663 61.0632C121.747 61.133 121.782 61.2342 121.768 61.3598C121.754 61.5656 121.649 61.8168 121.451 62.1203C121.252 62.4204 120.959 62.7169 120.575 63.0065C120.191 63.296 119.713 63.5368 119.141 63.7286C118.569 63.9205 117.913 64.0182 117.17 64.0182L117.166 64.0217ZM115.262 57.8815H119.033V57.8431C119.033 57.3826 118.96 56.9813 118.813 56.6394C118.667 56.301 118.45 56.0324 118.168 55.8405C117.885 55.6486 117.547 55.5509 117.149 55.5509C116.751 55.5509 116.409 55.6486 116.13 55.8405C115.848 56.0324 115.631 56.301 115.485 56.6394C115.338 56.9779 115.265 57.3791 115.265 57.8431V57.8815H115.262Z" fill="#E55129"/>
<path d="M124.423 63.8298C124.294 63.8298 124.186 63.7845 124.095 63.6938C124.004 63.603 123.959 63.4879 123.959 63.3484V54.302C123.959 54.1624 124.004 54.0438 124.095 53.9566C124.186 53.8694 124.294 53.8205 124.423 53.8205H126.31C126.45 53.8205 126.569 53.8659 126.656 53.9566C126.747 54.0473 126.792 54.1624 126.792 54.302V55.0521C127.127 54.6404 127.556 54.302 128.083 54.0333C128.61 53.7647 129.252 53.6286 130.009 53.6286C130.766 53.6286 131.429 53.7996 132.001 54.138C132.573 54.4764 133.019 54.9718 133.347 55.6207C133.675 56.2696 133.839 57.0546 133.839 57.9791V63.3484C133.839 63.4879 133.79 63.6065 133.696 63.6938C133.599 63.7845 133.487 63.8298 133.358 63.8298H131.317C131.174 63.8298 131.059 63.7845 130.971 63.6938C130.881 63.603 130.835 63.4879 130.835 63.3484V58.0943C130.835 57.414 130.671 56.8837 130.344 56.5069C130.016 56.1301 129.538 55.9382 128.91 55.9382C128.282 55.9382 127.825 56.1266 127.465 56.5069C127.106 56.8837 126.928 57.414 126.928 58.0943V63.3484C126.928 63.4879 126.883 63.6065 126.792 63.6938C126.701 63.781 126.593 63.8298 126.464 63.8298H124.423Z" fill="#E55129"/>
<path d="M133.25 68.2187C124.423 68.2326 115.6 68.1908 106.77 68.1838C87.2711 68.1768 67.7653 68.1803 48.2631 68.1803H47.5932V67.5279C47.5932 59.8317 47.5967 52.1354 47.5932 44.4357C47.5932 41.2225 44.9836 38.6094 41.7844 38.599C38.3514 38.585 34.915 38.592 31.4785 38.6025C31.0669 38.6025 30.6482 38.6548 30.2505 38.749C27.5362 39.3909 25.6907 41.7144 25.6907 44.5055C25.6907 52.1878 25.6907 59.8735 25.6907 67.5558V68.1559C25.5441 68.1698 25.4674 68.1803 25.3976 68.1803C21.9472 68.1803 18.4933 68.2152 15.0464 68.1629C13.2811 68.1385 11.8263 67.3465 10.6994 65.9894C9.72253 64.8102 9.3283 63.4321 9.33179 61.9145C9.35272 56.0673 9.37365 50.2166 9.38412 44.3694C9.3911 40.3294 9.38412 36.2894 9.38412 32.2459C9.38412 32.1133 9.3911 31.9808 9.38412 31.8482C9.32132 30.8085 8.6445 30.1561 7.60484 30.1491C7.14432 30.1422 6.68729 30.1561 6.22678 30.1387C4.29748 30.0549 3.0171 28.4745 3.43924 26.6987C3.62415 25.9347 4.11955 25.3905 4.71614 24.9404C9.82719 21.0853 14.9348 17.2337 20.0458 13.3891C22.3659 11.6482 24.7033 9.91773 27.0373 8.18729C28.6526 6.98715 30.247 5.75212 31.9042 4.60781C33.5195 3.48791 35.3511 3.18787 37.2839 3.44953C38.8399 3.65886 40.1377 4.41592 41.3692 5.33696C45.5453 8.45593 49.7318 11.5714 53.9079 14.6834C54.6719 15.2486 55.7779 15.1474 56.2698 14.4776C56.9187 13.5949 56.7722 12.5971 55.907 11.9552C54.2847 10.7515 52.6554 9.5514 51.0331 8.34429C48.3293 6.33475 45.6116 4.33917 42.9217 2.31568C38.8154 -0.7684 33.4044 -0.771889 29.305 2.30521C26.507 4.40895 23.6707 6.46732 20.8692 8.56757C14.7254 13.1832 8.57472 17.7849 2.46587 22.4529C0.491225 23.9566 -0.37748 26.0289 0.152814 28.5304C0.749395 31.3528 2.6438 33.0588 5.50809 33.4286C5.88139 33.4739 6.0314 33.5891 6.02792 33.9938C6.00349 35.487 6.02792 36.9872 6.02094 38.4803C6.00698 42.3285 5.9721 46.1766 5.96163 50.0247C5.95116 54.0194 5.96163 58.0175 5.96512 62.0122C5.96512 62.4866 6.00349 62.9646 6.0628 63.4356C6.66636 68.0233 10.5668 71.4877 15.1929 71.5261C19.5155 71.5644 23.8416 71.6028 28.1607 71.6028C34.5277 71.6028 40.8948 71.54 47.2583 71.5435C63.3869 71.5505 79.5155 71.5854 95.6372 71.5993C108.124 71.6098 120.606 71.6028 133.089 71.6028C133.208 71.6028 133.33 71.6098 133.445 71.5993C134.178 71.54 134.764 71.2435 135.039 70.5248C135.465 69.4118 134.711 68.2152 133.25 68.2187ZM44.2475 68.1419H29.0399V44.7043C29.0399 42.9913 30.097 41.9412 31.8065 41.9412H41.5332C43.1764 41.9447 44.2475 43.0123 44.2475 44.6694V68.1419Z" fill="#E55129"/>
</svg>
