<?xml version="1.0" encoding="UTF-8"?>
<svg width="25px" height="23px" viewBox="0 0 25 23" version="1.1" xmlns="http://www.w3.org/2000/svg" xmlns:xlink="http://www.w3.org/1999/xlink">
    <!-- Generator: Sketch 64 (93537) - https://sketch.com -->
    <title>Group 3@1.5x</title>
    <desc>Created with Sketch.</desc>
    <defs>
        <polygon id="path-1" points="0 -3.55271368e-15 24.94 -3.55271368e-15 24.94 22.0535 0 22.0535"></polygon>
    </defs>
    <g id="Mobil" stroke="none" stroke-width="1" fill="none" fill-rule="evenodd">
        <g id="Mobile-Copy-9" transform="translate(-180.000000, -88.000000)">
            <g id="Group-3" transform="translate(180.000000, 88.000000)">
                <mask id="mask-2" fill="white">
                    <use xlink:href="#path-1"></use>
                </mask>
                <g id="Clip-2"></g>
                <path d="M2.312,6.8235 L2.312,10.6785 L1.671,10.6785 C1.545,10.6785 1.443,10.5765 1.443,10.4505 L1.443,7.0525 C1.443,6.9265 1.545,6.8235 1.671,6.8235 L2.312,6.8235 Z M7.423,5.1795 L7.423,12.3235 C6.372,12.3235 4.617,12.3225 4.317,12.3225 L4.273,12.3225 C4.164,12.3085 4.149,12.3055 4.079,12.2755 C3.882,12.1865 3.755,11.9915 3.755,11.7775 L3.755,5.7245 C3.755,5.4245 4,5.1795 4.301,5.1795 L7.423,5.1795 Z M10.086,20.6115 L7.534,20.6115 L5.054,13.7655 L7.605,13.7655 L10.086,20.6115 Z M20.484,1.5115 L20.484,15.9885 C16.878,13.9965 12.971,12.7895 8.866,12.3985 L8.866,5.1025 C12.972,4.7115 16.88,3.5035 20.484,1.5115 L20.484,1.5115 Z M23.497,8.7505 C23.497,9.7155 22.845,10.5605 21.927,10.8145 L21.927,6.6855 C22.845,6.9395 23.497,7.7855 23.497,8.7505 L23.497,8.7505 Z M21.927,5.2125 L21.927,1.3475 C21.927,0.8655 21.679,0.4315 21.263,0.1875 C20.845,-0.0575 20.343,-0.0635 19.921,0.1745 C16.271,2.2165 12.3,3.4085 8.124,3.7185 C8.06,3.7195 5.595,3.7305 4.301,3.7365 C3.331,3.7365 2.508,4.4355 2.343,5.3805 L1.671,5.3805 C0.75,5.3805 0,6.1305 0,7.0525 L0,10.4505 C0,11.3725 0.75,12.1225 1.671,12.1225 L2.343,12.1225 C2.454,12.7515 2.868,13.2975 3.45,13.5745 L6.204,21.1765 C6.395,21.7015 6.899,22.0535 7.458,22.0535 L10.24,22.0535 C10.675,22.0535 11.084,21.8415 11.334,21.4845 C11.583,21.1285 11.644,20.6715 11.495,20.2625 L9.181,13.8825 C12.972,14.3025 16.584,15.4615 19.921,17.3265 C20.336,17.5575 20.855,17.5535 21.263,17.3125 C21.678,17.0685 21.927,16.6355 21.927,16.1535 L21.927,12.2895 C23.652,12.0115 24.94,10.5095 24.94,8.7505 C24.94,6.9915 23.652,5.4895 21.927,5.2125 L21.927,5.2125 Z" id="Fill-1" fill="#4A4A4A" mask="url(#mask-2)"></path>
            </g>
        </g>
    </g>
</svg>