<svg width="23" height="23" viewBox="0 0 23 23" fill="none" xmlns="http://www.w3.org/2000/svg">
<path fill-rule="evenodd" clip-rule="evenodd" d="M22.945 22.0574L18.8859 12.5881C18.78 12.3394 18.5354 12.1787 18.2648 12.1787H15.6865C16.73 10.3563 17.5887 8.33923 17.5887 6.63171C17.5887 -2.15657 5.41244 -2.26441 5.41244 6.63171C5.41244 8.33923 6.2702 10.3563 7.31368 12.1787H4.73543C4.46482 12.1787 4.22018 12.3394 4.11433 12.5881L0.0552297 22.0574C-0.135493 22.5027 0.191032 23 0.677325 23H22.3229C22.8072 23 23.1357 22.5037 22.945 22.0574V22.0574ZM17.8184 13.5317L19.8215 18.2029C19.7586 18.2359 13.2401 21.621 13.1931 21.647H11.7772C11.7422 21.607 12.0458 21.9136 7.63721 17.505L10.0866 16.2518C10.5849 16.8889 10.9354 17.2943 10.9893 17.3562C11.2589 17.6667 11.7412 17.6667 12.0109 17.3562C12.1237 17.2264 13.5027 15.6287 14.8607 13.5317H17.8184ZM11.5006 1.35635C13.7803 1.35635 16.2357 3.00696 16.2357 6.63171C16.2357 9.67929 12.8187 14.2157 11.5006 15.8524C10.1815 14.2147 6.76548 9.67929 6.76548 6.63171C6.76548 2.98798 9.14302 1.35635 11.5006 1.35635V1.35635ZM5.18178 13.5317C8.45901 13.5317 8.08656 13.5317 8.13848 13.5297C8.51993 14.1189 8.90237 14.6681 9.25785 15.1564L3.14374 18.2848L5.18178 13.5317ZM2.30995 20.232L6.37205 18.153L9.86697 21.647H1.70283L2.30995 20.232ZM16.1259 21.647L20.3557 19.4501L21.2974 21.647H16.1259ZM13.5 6C13.5 4.89764 12.6026 4 11.5005 4C10.3974 4 9.5 4.89764 9.5 6C9.5 7.10236 10.3974 8 11.5005 8C12.6026 8 13.5 7.10236 13.5 6M10.8333 6C10.8333 5.63287 11.1325 5.33366 11.5005 5.33366C11.8675 5.33366 12.1667 5.63287 12.1667 6C12.1667 6.36811 11.8675 6.66634 11.5005 6.66634C11.1325 6.66634 10.8333 6.36811 10.8333 6" fill="#000000"/>
</svg>
