<svg id="Ebene_1" xmlns="http://www.w3.org/2000/svg" viewBox="0 0 51 51"><style>.st0,.st1{fill:none;stroke:#000;stroke-width:1.5;stroke-miterlimit:10}.st1{stroke-width:2}</style><path class="st0" d="M47.1 48.2l-.2-25.6-11.9-7c-.8 1.5-1.8 2.9-2.7 4.1l.3 20h.1l14.4 8.5z"/><path class="st0" d="M30.1 22.2l-.3.3-.3-.3c-.1-.1-1.9-1.9-3.6-4.4L18 22.5h-.1l.2 25.5-.2-25.5-14.5-8.7-.2 25.5L18 48.1l14.6-8.5-.3-20c-1.1 1.5-2.1 2.5-2.2 2.6z"/><path class="st1" d="M29.8 3.1a7 7 0 0 0-6.9 6.9c0 2.7 1.4 5.5 3 7.8 1.7 2.5 3.5 4.3 3.6 4.4l.3.3.3-.3c.1-.1 1.1-1.1 2.2-2.6.9-1.1 1.9-2.5 2.7-4.1a12 12 0 0 0 1.7-5.6c0-3.7-3.1-6.8-6.9-6.8zm0 2.9a3.8 3.8 0 1 1 0 7.6 3.8 3.8 0 0 1 0-7.6z"/><path class="st1" d="M33.7 9.8C33.7 7.7 32 6 29.9 6a3.8 3.8 0 1 0-.1 7.6c2.1 0 3.9-1.7 3.9-3.8z"/></svg>