<?xml version="1.0" encoding="utf-8"?>
<!-- Generator: Adobe Illustrator 23.0.2, SVG Export Plug-In . SVG Version: 6.00 Build 0)  -->
<svg version="1.1" id="Ebene_1" xmlns="http://www.w3.org/2000/svg" xmlns:xlink="http://www.w3.org/1999/xlink" x="0px" y="0px"
	 viewBox="0 0 172.91 172.91" style="enable-background:new 0 0 172.91 172.91;" xml:space="preserve">
<style type="text/css">
	.st0{fill:#FFDC01;}
	.st1{fill:#FFFFFF;}
	.st2{stroke:#000000;stroke-width:0.25;stroke-miterlimit:10;}
	.st3{fill:none;stroke:#000000;stroke-width:2;stroke-miterlimit:10;}
</style>
<path class="st0" d="M116.59,137.31H59.52c-10.32,0-18.77-8.44-18.77-18.77V61.48c0-10.32,8.44-18.77,18.77-18.77h57.06
	c10.32,0,18.77,8.44,18.77,18.77v57.06C135.35,128.86,126.91,137.31,116.59,137.31z"/>
<path class="st1" d="M136.48,90.51h-36.6c-7.75,0-14.1-6.34-14.1-14.1v-36.6c0-7.75,6.34-14.1,14.1-14.1h36.6
	c7.75,0,14.1,6.34,14.1,14.1v36.6C150.57,84.16,144.23,90.51,136.48,90.51z"/>
<circle class="st0" cx="141.54" cy="141.76" r="9.86"/>
<circle class="st0" cx="154.87" cy="157.35" r="4.93"/>
<circle class="st0" cx="27.15" cy="43.63" r="9.86"/>
<circle class="st0" cx="45.48" cy="30.88" r="4.93"/>
<ellipse transform="matrix(0.3621 -0.9321 0.9321 0.3621 -1.2512 45.7667)" class="st0" cx="32.81" cy="23.8" rx="5.79" ry="5.79"/>
<circle class="st0" cx="18.67" cy="22.55" r="2.47"/>
<g>
	<g>
		<g>
			<path class="st2" d="M123.08,69.98c-9.36,0-16.94-7.58-16.94-16.94s7.58-16.71,16.94-16.71s16.82,7.46,16.82,16.94
				C139.9,62.52,132.44,69.98,123.08,69.98z M123.08,36.81c-9.12,0-16.35,7.23-16.35,16.35s7.23,16.35,16.35,16.35
				s16.35-7.35,16.35-16.35S132.08,36.81,123.08,36.81z"/>
		</g>
		<g>
			<rect x="106.49" y="52.92" class="st2" width="33.53" height="0.59"/>
		</g>
	</g>
	<g>
		<path class="st2" d="M122.84,46.05c-1.78,0-3.55-0.24-4.98-0.47c-4.62-0.95-7.7-2.61-7.82-2.84v-0.36l0.36,0.36l-0.24-0.24h0.24
			c0-0.12-0.12-0.24-0.12-0.24c0.12,0.12,0.95,0.59,2.13,1.18c1.18,0.47,3.08,1.18,5.45,1.66c4.15,0.71,10.54,0.83,17.77-2.72
			l0.24,0.47C131.13,45.34,126.63,46.05,122.84,46.05z"/>
	</g>
	<g>
		<path class="st2" d="M135.87,63.82c-7.11-3.67-13.62-3.55-17.77-2.72c-2.37,0.47-4.38,1.18-5.45,1.66
			c-1.42,0.59-2.01,1.07-2.13,1.18c0,0,0.12-0.12,0.12-0.24h-0.24l-0.24,0.24v-0.36c0.24-0.24,3.2-2.01,7.82-2.84
			c4.27-0.83,10.9-0.95,18.13,2.72L135.87,63.82z"/>
	</g>
	<g>
		<path class="st2" d="M123.08,69.98c-4.86,0-8.77-7.58-8.77-16.94c0-4.5,0.95-8.65,2.49-11.85c1.66-3.2,3.91-4.98,6.28-4.98
			c2.37,0,4.62,1.78,6.28,4.98c1.66,3.2,2.49,7.46,2.49,11.85C131.84,62.52,127.93,69.98,123.08,69.98z M123.08,36.81
			c-4.62,0-8.17,7.35-8.17,16.35c0,4.38,0.95,8.53,2.49,11.61c1.54,3.08,3.67,4.86,5.81,4.86c2.13,0,4.27-1.66,5.81-4.86
			c1.54-3.2,2.49-7.35,2.49-11.61C131.37,44.04,127.58,36.81,123.08,36.81z"/>
	</g>
	<g>
		<rect x="122.84" y="36.57" class="st2" width="0.59" height="33.29"/>
	</g>
</g>
<path class="st3" d="M133.86,28.87h-21.33c-7.58,0-13.74,6.16-13.74,13.74v21.33c0,7.58,6.16,13.74,13.74,13.74h12.08
	c0,0,0.24,7.7,12.2,7.7c-4.86,0.12-5.21-3.67-5.09-7.7h2.13c7.58,0,13.74-6.16,13.74-13.74V42.61
	C147.6,35.03,141.44,28.87,133.86,28.87z"/>
</svg>
