<?xml version="1.0" encoding="UTF-8"?>
<svg xmlns="http://www.w3.org/2000/svg" xmlns:xlink="http://www.w3.org/1999/xlink" width="800px" height="800px"
     viewBox="0 0 800 800" version="1.1">
    <g id="surface1">
        <path style=" stroke:none;fill-rule:nonzero;fill:rgb(100%,86.27451%,0.392157%);fill-opacity:1;"
              d="M 539.425781 635.289062 L 275.378906 635.289062 C 227.632812 635.289062 188.539062 596.242188 188.539062 548.445312 L 188.539062 284.449219 C 188.539062 236.703125 227.585938 197.605469 275.378906 197.605469 L 539.378906 197.605469 C 587.125 197.605469 626.222656 236.65625 626.222656 284.449219 L 626.222656 548.445312 C 626.222656 596.195312 587.171875 635.289062 539.425781 635.289062 Z M 539.425781 635.289062 "/>
        <path style=" stroke:none;fill-rule:nonzero;fill:rgb(100%,100%,100%);fill-opacity:1;"
              d="M 365.832031 696.132812 L 196.496094 696.132812 C 160.636719 696.132812 131.257812 666.796875 131.257812 630.894531 L 131.257812 461.558594 C 131.257812 425.703125 160.59375 396.320312 196.496094 396.320312 L 365.832031 396.320312 C 401.6875 396.320312 431.066406 425.65625 431.066406 461.558594 L 431.066406 630.894531 C 431.023438 666.75 401.6875 696.132812 365.832031 696.132812 Z M 365.832031 696.132812 "/>
        <path style=" stroke:none;fill-rule:nonzero;fill:rgb(100%,86.27451%,0.392157%);fill-opacity:1;"
              d="M 700.480469 655.878906 C 700.480469 681.074219 680.054688 701.496094 654.859375 701.496094 C 629.667969 701.496094 609.242188 681.074219 609.242188 655.878906 C 609.242188 630.683594 629.667969 610.257812 654.859375 610.257812 C 680.054688 610.257812 700.480469 630.683594 700.480469 655.878906 Z M 700.480469 655.878906 "/>
        <path style=" stroke:none;fill-rule:nonzero;fill:rgb(100%,86.27451%,0.392157%);fill-opacity:1;"
              d="M 739.34375 728.007812 C 739.34375 740.605469 729.132812 750.816406 716.535156 750.816406 C 703.9375 750.816406 693.726562 740.605469 693.726562 728.007812 C 693.726562 715.410156 703.9375 705.199219 716.535156 705.199219 C 729.132812 705.199219 739.34375 715.410156 739.34375 728.007812 Z M 739.34375 728.007812 "/>
        <path style=" stroke:none;fill-rule:nonzero;fill:rgb(100%,86.27451%,0.392157%);fill-opacity:1;"
              d="M 713.203125 186.5 C 713.203125 211.695312 692.777344 232.121094 667.585938 232.121094 C 642.390625 232.121094 621.964844 211.695312 621.964844 186.5 C 621.964844 161.308594 642.390625 140.882812 667.585938 140.882812 C 692.777344 140.882812 713.203125 161.308594 713.203125 186.5 Z M 713.203125 186.5 "/>
        <path style=" stroke:none;fill-rule:nonzero;fill:rgb(100%,86.27451%,0.392157%);fill-opacity:1;"
              d="M 585.414062 161.933594 C 585.414062 174.53125 575.203125 184.742188 562.605469 184.742188 C 550.007812 184.742188 539.796875 174.53125 539.796875 161.933594 C 539.796875 149.335938 550.007812 139.125 562.605469 139.125 C 575.203125 139.125 585.414062 149.335938 585.414062 161.933594 Z M 585.414062 161.933594 "/>
        <path style=" stroke:none;fill-rule:nonzero;fill:rgb(100%,86.27451%,0.392157%);fill-opacity:1;"
              d="M 715.933594 99.425781 C 715.933594 84.632812 703.941406 72.640625 689.144531 72.640625 C 674.351562 72.640625 662.355469 84.632812 662.355469 99.425781 C 662.355469 114.222656 674.351562 126.214844 689.144531 126.214844 C 703.941406 126.214844 715.933594 114.222656 715.933594 99.425781 Z M 715.933594 99.425781 "/>
        <path style=" stroke:none;fill-rule:nonzero;fill:rgb(100%,86.27451%,0.392157%);fill-opacity:1;"
              d="M 633.4375 126.355469 C 633.4375 132.667969 628.324219 137.78125 622.011719 137.78125 C 615.699219 137.78125 610.582031 132.667969 610.582031 126.355469 C 610.582031 120.042969 615.699219 114.925781 622.011719 114.925781 C 628.324219 114.925781 633.4375 120.042969 633.4375 126.355469 Z M 633.4375 126.355469 "/>
        <path style="fill-rule:nonzero;fill:rgb(0%,0%,0%);fill-opacity:1;stroke-width:1;stroke-linecap:butt;stroke-linejoin:miter;stroke:rgb(0%,0%,0%);stroke-opacity:1;stroke-miterlimit:10;"
              d="M 81.130081 109.91014 L 68.730036 97.510095 C 68.52994 97.309999 68.230218 97.309999 67.929652 97.510095 L 62.33034 103.110252 C 60.130128 103.009782 58.330108 103.209878 56.82981 103.409974 C 55.330356 103.110252 53.629961 103.009782 51.330123 103.110252 L 45.729967 97.510095 C 45.529871 97.309999 45.230149 97.309999 44.929583 97.510095 L 32.729634 109.91014 C 32.530382 110.110236 32.530382 110.409958 32.729634 110.70968 L 38.32979 116.309836 C 37.730347 119.810251 38.129694 122.609907 40.030185 125.609659 L 37.130058 128.509785 C 36.52977 129.110073 36.129578 130.010083 36.129578 130.910093 C 36.129578 131.810104 36.52977 132.710114 37.130058 133.310402 C 37.730347 133.909846 38.630357 134.310038 39.429897 134.310038 L 38.729983 135.009952 C 38.129694 135.61024 37.730347 136.51025 37.730347 137.41026 C 37.730347 138.31027 38.129694 139.21028 38.729983 139.809724 C 39.330271 140.410012 40.230281 140.810204 41.130291 140.810204 C 42.030301 140.810204 42.930311 140.410012 43.529755 139.809724 L 44.229669 139.10981 C 44.229669 140.00982 44.629861 140.810204 45.230149 141.409648 C 45.829593 142.009936 46.830073 142.410128 47.629613 142.410128 C 48.529623 142.410128 49.429633 142.110406 50.029921 141.409648 L 52.630326 138.810088 L 54.430346 140.610108 C 55.02979 141.210396 55.9298 141.609744 56.82981 141.609744 C 57.72982 141.609744 58.62983 141.210396 59.230118 140.610108 C 59.830406 140.00982 60.229754 139.10981 60.229754 138.31027 L 63.429602 141.510118 C 64.02989 142.110406 65.03037 142.509754 65.82991 142.509754 C 66.72992 142.509754 67.62993 142.210032 68.230218 141.510118 C 68.829662 140.90983 69.229854 140.00982 69.229854 139.21028 L 69.929768 139.910194 C 70.530057 140.509638 71.529692 140.90983 72.330077 140.90983 C 73.230087 140.90983 74.130097 140.610108 74.730385 139.910194 C 76.130213 138.510366 76.130213 136.40978 74.730385 135.009952 L 74.029627 134.310038 C 74.929637 134.310038 75.730021 133.909846 76.330309 133.310402 C 76.929753 132.710114 77.329945 131.810104 77.329945 130.910093 C 77.329945 130.010083 76.929753 129.110073 76.330309 128.509785 L 73.230087 125.410407 C 75.030107 122.409811 75.630395 119.309589 75.129733 116.309836 L 80.729889 110.70968 C 81.330177 110.509584 81.330177 110.209862 81.130081 109.91014 Z M 41.130291 132.609643 C 40.730099 133.009835 40.129811 133.310402 39.429897 133.310402 C 38.729983 133.310402 38.230165 133.009835 37.730347 132.609643 C 37.229684 132.210296 37.029588 131.610007 37.029588 130.910093 C 37.029588 130.210179 37.330155 129.710361 37.730347 129.209699 L 40.530003 126.410043 C 41.229917 127.409679 42.129927 128.309689 43.130407 129.409795 L 43.630225 129.909613 Z M 42.829841 139.21028 C 42.429649 139.609628 41.830205 139.910194 41.130291 139.910194 C 40.430377 139.910194 39.929715 139.609628 39.429897 139.21028 C 39.029704 138.810088 38.729983 138.2098 38.729983 137.509886 C 38.729983 136.809972 39.029704 136.310154 39.429897 135.810336 L 44.530235 130.709997 L 47.930179 134.109942 Z M 49.429633 140.90983 C 48.529623 141.80984 47.030169 141.80984 46.029689 140.90983 C 45.129679 140.00982 45.129679 138.510366 46.029689 137.509886 L 48.630093 134.910326 L 52.030037 138.31027 Z M 76.630031 130.910093 C 76.630031 131.510382 76.330309 132.109825 75.930117 132.609643 C 75.030107 133.509653 73.529809 133.509653 72.530173 132.609643 L 65.93038 126.009851 L 61.829678 121.909993 C 61.629582 121.709897 61.32986 121.709897 61.030138 121.909993 C 60.830042 122.110089 60.830042 122.409811 61.030138 122.710377 L 74.229723 135.909962 C 75.129733 136.809972 75.129733 138.31027 74.229723 139.309906 C 73.329713 140.209916 71.830259 140.209916 70.829778 139.309906 L 68.630411 136.809972 L 58.229638 126.110321 C 58.030386 125.910225 57.72982 125.910225 57.430098 126.110321 C 57.230002 126.310417 57.230002 126.610139 57.430098 126.909861 L 67.7304 137.509886 C 68.630411 138.409896 68.630411 139.910194 67.7304 140.90983 C 66.83039 141.80984 65.330092 141.80984 64.329612 140.90983 L 59.52984 135.909962 L 53.429865 129.809987 C 53.229769 129.609891 52.930047 129.609891 52.630326 129.809987 C 52.329759 130.010083 52.430229 130.309805 52.630326 130.610372 L 58.7303 136.710346 C 59.63031 137.610356 59.63031 139.10981 58.7303 140.11029 C 58.330108 140.509638 57.72982 140.810204 57.029906 140.810204 C 56.429618 140.810204 55.830174 140.509638 55.330356 140.11029 L 43.929947 128.709881 C 39.629993 124.409927 38.430261 121.009983 39.330271 116.210211 L 39.330271 116.10974 C 39.330271 116.010115 39.330271 116.010115 39.330271 116.010115 C 39.330271 115.909644 39.330271 115.909644 39.330271 115.909644 C 39.330271 115.810019 39.330271 115.810019 39.229801 115.810019 C 39.229801 115.710393 39.130175 115.710393 39.130175 115.710393 C 39.130175 115.710393 39.130175 115.609922 39.029704 115.609922 L 33.629644 110.209862 L 45.329775 98.610202 L 50.729835 104.010262 C 50.830305 104.109888 50.929931 104.210358 51.030401 104.210358 L 51.130027 104.210358 C 52.230133 104.109888 53.229769 104.210358 54.129779 104.210358 C 52.030037 105.110368 50.529739 106.510196 48.529623 108.609938 L 42.330023 114.910008 C 41.729735 115.510297 41.330387 116.410307 41.330387 117.310317 C 41.330387 118.210327 41.729735 119.110337 42.330023 119.709781 C 42.930311 120.310069 43.929947 120.710261 44.730331 120.710261 C 45.529871 120.710261 46.530351 120.409695 47.129795 119.709781 L 51.530219 115.310201 C 52.129663 115.409826 52.729951 115.510297 53.429865 115.510297 C 55.630078 115.510297 57.83029 114.709912 60.130128 113.310084 L 75.930117 129.110073 C 76.429935 129.710361 76.630031 130.309805 76.630031 130.910093 Z M 72.829895 124.610023 L 61.030138 112.810266 C 61.230234 112.61017 61.43033 112.5097 61.629582 112.410074 C 61.829678 112.209978 61.930148 111.910256 61.730052 111.60969 C 61.529956 111.409594 61.230234 111.309968 60.929668 111.510064 C 57.630194 114.009998 54.430346 115.009634 51.429749 114.30972 L 51.530219 114.30972 C 51.429749 114.30972 51.429749 114.30972 51.429749 114.30972 C 51.330123 114.30972 51.330123 114.30972 51.330123 114.30972 C 51.229653 114.30972 51.229653 114.30972 51.229653 114.41019 C 51.130027 114.41019 51.130027 114.509816 51.130027 114.509816 C 51.130027 114.509816 51.030401 114.509816 51.030401 114.610287 L 46.429881 119.209963 C 45.529871 120.109973 44.030417 120.109973 43.029937 119.209963 C 42.629745 118.809771 42.330023 118.210327 42.330023 117.510413 C 42.330023 116.809654 42.629745 116.309836 43.029937 115.810019 L 49.330007 109.509948 C 53.33024 105.509716 55.13026 104.109888 62.529592 104.309984 L 62.630062 104.309984 C 62.729688 104.309984 62.830158 104.210358 62.929784 104.109888 L 68.329844 98.709827 L 79.930349 110.310332 L 74.530289 115.710393 C 74.530289 115.710393 74.530289 115.810019 74.429819 115.810019 C 74.429819 115.909644 74.330193 115.909644 74.330193 115.909644 C 74.330193 116.010115 74.229723 116.010115 74.229723 116.010115 C 74.229723 116.10974 74.229723 116.10974 74.229723 116.10974 C 74.229723 116.210211 74.229723 116.210211 74.229723 116.210211 L 74.229723 116.309836 C 75.030107 119.009867 74.429819 121.810367 72.829895 124.610023 Z M 72.829895 124.610023 "
              transform="matrix(4.626684,0,0,4.626684,0,0)"/>
    </g>
</svg>
