<?xml version="1.0" encoding="UTF-8"?>
<svg xmlns="http://www.w3.org/2000/svg" xmlns:xlink="http://www.w3.org/1999/xlink" width="800px" height="800px"
     viewBox="0 0 800 800" version="1.1">
    <g id="surface1">
        <path style=" stroke:none;fill-rule:nonzero;fill:rgb(100%,86.27451%,0.392157%);fill-opacity:1;"
              d="M 539.425781 635.292969 L 275.378906 635.292969 C 227.636719 635.292969 188.535156 596.238281 188.535156 548.449219 L 188.535156 284.449219 C 188.535156 236.703125 227.589844 197.605469 275.378906 197.605469 L 539.378906 197.605469 C 587.125 197.605469 626.222656 236.65625 626.222656 284.449219 L 626.222656 548.449219 C 626.222656 596.191406 587.171875 635.292969 539.425781 635.292969 Z M 539.425781 635.292969 "/>
        <path style=" stroke:none;fill-rule:nonzero;fill:rgb(100%,100%,100%);fill-opacity:1;"
              d="M 631.449219 706.910156 L 462.113281 706.910156 C 426.253906 706.910156 396.875 677.578125 396.875 641.675781 L 396.875 472.339844 C 396.875 436.480469 426.207031 407.105469 462.113281 407.105469 L 631.449219 407.105469 C 667.308594 407.105469 696.6875 436.4375 696.6875 472.339844 L 696.6875 641.675781 C 696.640625 677.53125 667.308594 706.910156 631.449219 706.910156 Z M 631.449219 706.910156 "/>
        <path style=" stroke:none;fill-rule:nonzero;fill:rgb(100%,86.27451%,0.392157%);fill-opacity:1;"
              d="M 127.1875 501.300781 C 127.1875 526.496094 106.765625 546.921875 81.566406 546.921875 C 56.375 546.921875 35.949219 526.496094 35.949219 501.300781 C 35.949219 476.105469 56.375 455.683594 81.566406 455.683594 C 106.765625 455.683594 127.1875 476.105469 127.1875 501.300781 Z M 127.1875 501.300781 "/>
        <path style=" stroke:none;fill-rule:nonzero;fill:rgb(100%,86.27451%,0.392157%);fill-opacity:1;"
              d="M 166.050781 573.433594 C 166.050781 586.027344 155.839844 596.238281 143.238281 596.238281 C 130.644531 596.238281 120.433594 586.027344 120.433594 573.433594 C 120.433594 560.832031 130.644531 550.621094 143.238281 550.621094 C 155.839844 550.621094 166.050781 560.832031 166.050781 573.433594 Z M 166.050781 573.433594 "/>
        <path style=" stroke:none;fill-rule:nonzero;fill:rgb(100%,86.27451%,0.392157%);fill-opacity:1;"
              d="M 603.457031 134.871094 C 603.457031 160.0625 583.035156 180.484375 557.839844 180.484375 C 532.644531 180.484375 512.21875 160.0625 512.21875 134.871094 C 512.21875 109.671875 532.644531 89.25 557.839844 89.25 C 583.035156 89.25 603.457031 109.671875 603.457031 134.871094 Z M 603.457031 134.871094 "/>
        <path style=" stroke:none;fill-rule:nonzero;fill:rgb(100%,86.27451%,0.392157%);fill-opacity:1;"
              d="M 666.332031 192.5625 C 666.332031 205.160156 656.125 215.371094 643.527344 215.371094 C 630.925781 215.371094 620.714844 205.160156 620.714844 192.5625 C 620.714844 179.964844 630.925781 169.753906 643.527344 169.753906 C 656.125 169.753906 666.332031 179.964844 666.332031 192.5625 Z M 666.332031 192.5625 "/>
        <path style=" stroke:none;fill-rule:nonzero;fill:rgb(100%,86.27451%,0.392157%);fill-opacity:1;"
              d="M 679.660156 126.078125 C 679.660156 140.871094 667.667969 152.863281 652.871094 152.863281 C 638.078125 152.863281 626.082031 140.871094 626.082031 126.078125 C 626.082031 111.28125 638.078125 99.285156 652.871094 99.285156 C 667.667969 99.285156 679.660156 111.28125 679.660156 126.078125 Z M 679.660156 126.078125 "/>
        <path style=" stroke:none;fill-rule:nonzero;fill:rgb(100%,86.27451%,0.392157%);fill-opacity:1;"
              d="M 645.980469 62.96875 C 645.980469 69.28125 640.859375 74.394531 634.550781 74.394531 C 628.238281 74.394531 623.121094 69.28125 623.121094 62.96875 C 623.121094 56.65625 628.238281 51.542969 634.550781 51.542969 C 640.859375 51.542969 645.980469 56.65625 645.980469 62.96875 Z M 645.980469 62.96875 "/>
        <path style="fill:none;stroke-width:1;stroke-linecap:butt;stroke-linejoin:miter;stroke:rgb(1.176471%,1.176471%,1.568627%);stroke-opacity:1;stroke-miterlimit:10;"
              d="M 137.24057 116.0802 C 137.24057 127.954255 127.614852 137.580818 115.740797 137.580818 C 103.865054 137.580818 94.24018 127.954255 94.24018 116.0802 C 94.24018 104.206146 103.865054 94.580427 115.740797 94.580427 C 127.614852 94.580427 137.24057 104.206146 137.24057 116.0802 Z M 137.24057 116.0802 "
              transform="matrix(4.626684,0,0,4.626684,0,0)"/>
        <path style="fill:none;stroke-width:3;stroke-linecap:round;stroke-linejoin:miter;stroke:rgb(1.176471%,1.176471%,1.568627%);stroke-opacity:1;stroke-miterlimit:10;"
              d="M 131.539943 132.180757 L 141.039862 140.979918 " transform="matrix(4.626684,0,0,4.626684,0,0)"/>
    </g>
</svg>
