<svg id="Ebene_1" xmlns="http://www.w3.org/2000/svg" viewBox="-3.35 0 50 50"><style>.st0{stroke:#000000;stroke-width:0.5;stroke-miterlimit:10;} .st1{fill:none;stroke:#000000;stroke-miterlimit:10;}</style><path class="st0" d="M21.5 36.3c-8.2 0-14.8-6.6-14.8-14.8S13.4 6.8 21.5 6.8s14.8 6.6 14.8 14.8c0 8.1-6.6 14.7-14.8 14.7zm0-29.1c-7.9 0-14.3 6.4-14.3 14.3s6.4 14.3 14.3 14.3 14.3-6.4 14.3-14.3S29.4 7.2 21.5 7.2z"/><path class="st0" d="M7 21.3h29.3v.5H7zM21.3 15.3c-1.6 0-3.1-.2-4.4-.4-4-.8-6.7-2.3-6.8-2.5v-.3l.3.3-.2-.2h.2c0-.1-.1-.2-.1-.2.1.1.8.5 1.9 1 1 .4 2.7 1 4.8 1.4 3.6.6 9.2.7 15.5-2.4l.2.4c-4.1 2.3-8.1 2.9-11.4 2.9zM32.7 30.9c-6.2-3.2-11.9-3.1-15.5-2.4-2.1.4-3.8 1-4.8 1.4-1.2.5-1.8.9-1.9 1 0 0 .1-.1.1-.2h-.2l-.2.2v-.3c.2-.2 2.8-1.8 6.8-2.5 3.7-.7 9.5-.8 15.9 2.4l-.2.4z"/><path class="st0" d="M21.5 36.3c-4.2 0-7.7-6.6-7.7-14.8 0-3.9.8-7.6 2.2-10.4 1.5-2.8 3.4-4.4 5.5-4.4s4 1.6 5.5 4.4c1.4 2.8 2.2 6.5 2.2 10.4 0 8.2-3.4 14.8-7.7 14.8zm0-29.1c-4 0-7.2 6.4-7.2 14.3 0 3.8.8 7.5 2.2 10.2s3.2 4.2 5.1 4.2 3.7-1.5 5.1-4.2 2.2-6.4 2.2-10.2c-.1-7.9-3.4-14.3-7.4-14.3z"/><g><path class="st0" d="M21.3 7h.5v29.1h-.5z"/></g><path class="st1" d="M31 .3H12.3C5.7.3.3 5.7.3 12.3V31c0 6.6 5.4 12 12 12h10.6s.2 6.7 10.7 6.7c-4.2.1-4.6-3.2-4.5-6.7H31c6.6 0 12-5.4 12-12V12.3c0-6.6-5.4-12-12-12z"/></svg>
