<svg width="100" height="100" viewBox="0 0 100 100" fill="none" xmlns="http://www.w3.org/2000/svg">
<path d="M100 100H0V0C33.3333 0 66.6667 0 100 0V100ZM88.03 72.9033C85.61 70.6833 83.03 68.7833 80.1367 67.3767C75.6767 65.21 70.9367 65.1533 66.14 65.7967C62.9933 66.22 60.09 67.4133 57.1933 68.6433C55.4567 69.3833 53.7267 70.1833 51.9233 70.7233C48.3933 71.78 44.7433 71.83 41.09 71.7C39.74 71.6533 38.39 71.5667 37.04 71.48C36.0933 71.42 35.1433 71.2333 34.2 71.26C32.1567 71.3167 30.2167 71.8533 28.39 72.7733C27.73 73.1033 27.1967 73.59 27.22 74.4033C27.2533 75.6567 27.63 76.7667 28.66 77.5867C30.2267 78.8367 31.9967 79.4633 34.0033 79.5167C38.29 79.6267 42.58 79.7733 46.8667 79.9033C49.0933 79.97 51.32 80.04 53.55 80.0967C53.9833 80.1067 54.2467 80.1967 54.0433 80.7733C53.8133 80.7733 53.5667 80.78 53.3233 80.7733C46.9333 80.6033 40.5433 80.4033 34.15 80.2767C32.2233 80.24 30.53 79.6667 28.93 78.6533C27.65 77.84 26.93 76.69 26.6633 75.2267C26.4233 73.9133 26.8367 73.0333 28.01 72.35C28.33 72.1633 28.66 72.0033 29.11 71.76C28.88 71.5833 28.69 71.4567 28.5233 71.3033C26.4067 69.36 24.2833 67.4233 22.18 65.4633C21.21 64.5567 20.0967 63.8967 18.9067 63.3233C17.9067 62.8433 16.8733 62.9933 15.8433 62.99C15.75 62.99 15.6467 63.05 15.5633 63.1067C14.9567 63.5133 14.8633 63.79 15.3367 64.4367C17.9333 67.9767 20.5233 71.52 23.1867 75.0067C24.51 76.74 25.8667 78.4667 27.63 79.8067C29.2533 81.0433 30.8367 82.3333 32.48 83.5367C36.2233 86.2767 40.0067 88.9667 43.7533 91.7C44.9233 92.5533 46.1967 92.93 47.6267 92.7233C48.3867 92.6133 49.1533 92.5067 49.8933 92.3033C56.0233 90.6133 62.1467 88.8933 68.28 87.2133C68.9467 87.03 69.7033 86.88 70.36 87.0067C72.3133 87.3867 74.2433 87.8933 76.17 88.3933C76.6 88.5067 76.83 88.4567 77.0933 88.0867C79.31 84.9867 81.5467 81.9033 83.7767 78.8133C85.1767 76.8733 86.57 74.9267 88.0233 72.9L88.03 72.9033ZM50.0667 6.63333C41.63 6.63333 33.1933 6.63333 24.76 6.63333C24.1889 6.63333 23.9022 6.91222 23.9 7.47C23.9 15.72 23.8933 23.9667 23.9 32.2167C23.9033 35.2067 24.2 38.1733 25.0633 41.04C28.8167 53.4667 36.9867 61.33 49.5667 64.58C49.8367 64.65 50.16 64.67 50.4233 64.59C52.1533 64.07 53.9233 63.6367 55.5867 62.95C68.1333 57.7867 76.1133 45.8267 76.1233 32.25C76.13 23.98 76.1233 15.71 76.1233 7.44333C76.1233 6.90778 75.8511 6.64 75.3067 6.64C66.89 6.64 58.4767 6.64 50.06 6.64L50.0667 6.63333ZM81.5633 96.4333C82.18 95.6567 82.72 95.06 83.17 94.3967C85.76 90.5833 87.8667 86.49 90 82.4167C91.35 79.8367 92.64 77.2233 93.9467 74.6167C94.2867 73.94 94.2667 73.9267 93.5433 73.6567C93.1533 73.51 92.7433 73.4 92.3833 73.1967C91.31 72.59 90.1433 73.09 89.47 74.0167C85.4567 79.54 81.5033 85.11 77.5067 90.6467C77.26 90.9867 77.3167 91.24 77.51 91.48C78.8133 93.0933 80.1367 94.6933 81.56 96.43L81.5633 96.4333ZM31.29 70.9833C31.2567 70.9067 31.2467 70.86 31.22 70.8333C27.68 67.5167 24.16 64.17 20.5767 60.9033C19.57 59.9867 18.2167 59.69 16.8667 59.6367C16.07 59.6067 15.6633 60.1367 15.7367 60.9233C15.76 61.17 15.8433 61.4167 15.8467 61.6633C15.8533 62.1 16.0633 62.21 16.4767 62.22C17.1767 62.24 17.92 62.21 18.57 62.4267C19.98 62.8933 21.25 63.64 22.3567 64.6633C24.7133 66.84 27.0867 68.9967 29.46 71.1533C29.5967 71.2767 29.83 71.4 29.99 71.37C30.43 71.2867 30.8567 71.12 31.2933 70.9867L31.29 70.9833ZM21.0567 60.3333C21.1533 60.4467 21.21 60.53 21.28 60.5967C24.6933 63.8 28.13 66.98 31.51 70.2233C32.2 70.8867 32.83 70.7267 33.6133 70.46C33.4733 70.26 33.2633 70.1467 33.1033 69.9867C30.5667 67.4333 28.06 64.8467 25.49 62.3267C24.7433 61.5967 23.8267 61.0367 22.97 60.43C22.4 60.0267 21.7733 60 21.0567 60.3333ZM35.2767 70.6133C35.3067 70.5533 35.3367 70.4933 35.3667 70.4333C35.3 70.3367 35.2433 70.2333 35.1667 70.14C32.6267 67.0333 29.5433 64.4767 26.6 61.7833C26.4 61.6033 26.0833 61.55 25.8233 61.4367C25.7967 61.4833 25.77 61.53 25.7433 61.5767C25.8333 61.6833 25.9167 61.8 26.0133 61.9C28.7833 64.69 31.55 67.4867 34.34 70.2567C34.5567 70.47 34.96 70.4967 35.2767 70.6133Z" fill="#FE0000"/>
<path d="M88.03 72.9033C86.5767 74.93 85.1833 76.8733 83.7833 78.8167C81.5567 81.9067 79.3167 84.99 77.1 88.09C76.8367 88.46 76.61 88.51 76.1767 88.3967C74.25 87.8933 72.32 87.3867 70.3667 87.01C69.71 86.8833 68.9533 87.0333 68.2867 87.2167C62.1533 88.8967 56.03 90.6167 49.9 92.3067C49.1633 92.51 48.3933 92.6167 47.6333 92.7267C46.2033 92.9367 44.9333 92.56 43.76 91.7033C40.01 88.97 36.23 86.28 32.4867 83.54C30.84 82.3367 29.26 81.0467 27.6367 79.81C25.8733 78.4667 24.52 76.7433 23.1933 75.01C20.5267 71.5233 17.94 67.9767 15.3433 64.44C14.87 63.7967 14.9633 63.5167 15.57 63.11C15.6533 63.0533 15.7567 62.9933 15.85 62.9933C16.88 62.9967 17.9167 62.8467 18.9133 63.3267C20.1033 63.9 21.2133 64.56 22.1867 65.4667C24.29 67.4267 26.4133 69.3633 28.53 71.3067C28.6967 71.46 28.8867 71.5867 29.1167 71.7633C28.6667 72.0033 28.3333 72.1667 28.0167 72.3533C26.84 73.0367 26.43 73.9133 26.67 75.23C26.9367 76.6933 27.6533 77.8467 28.9367 78.6567C30.5367 79.67 32.23 80.2433 34.1567 80.28C40.5467 80.4067 46.9367 80.6067 53.33 80.7767C53.5733 80.7833 53.82 80.7767 54.05 80.7767C54.2533 80.2 53.9867 80.11 53.5567 80.1C51.33 80.0467 49.1033 79.9767 46.8733 79.9067C42.5867 79.7767 38.3 79.6267 34.01 79.52C32.0033 79.47 30.2333 78.84 28.6667 77.59C27.6367 76.77 27.26 75.66 27.2267 74.4067C27.2033 73.5933 27.7367 73.1067 28.3967 72.7767C30.2233 71.8567 32.1667 71.32 34.2067 71.2633C35.15 71.2367 36.1 71.42 37.0467 71.4833C38.3967 71.57 39.7433 71.6567 41.0967 71.7033C44.75 71.8333 48.4 71.7833 51.93 70.7267C53.7333 70.1867 55.4633 69.3867 57.2 68.6467C60.0933 67.4133 62.9967 66.22 66.1467 65.8C70.9433 65.1567 75.6833 65.2133 80.1433 67.38C83.0367 68.7867 85.6167 70.6867 88.0367 72.9067L88.03 72.9033Z" fill="white"/>
<path d="M50.0667 6.63333C58.4833 6.63333 66.8967 6.63333 75.3133 6.63333C75.8578 6.63333 76.13 6.90111 76.13 7.43667C76.13 15.7067 76.1367 23.9767 76.13 32.2433C76.12 45.82 68.14 57.78 55.5933 62.9433C53.93 63.6267 52.16 64.06 50.43 64.5833C50.1667 64.6633 49.8433 64.6433 49.5733 64.5733C36.9933 61.3233 28.8233 53.4633 25.07 41.0333C24.2033 38.1667 23.91 35.2 23.9067 32.21C23.8967 23.96 23.9067 15.7133 23.9067 7.46333C23.9067 6.90778 24.1933 6.62889 24.7667 6.62667C33.2033 6.62667 41.64 6.62667 50.0733 6.62667L50.0667 6.63333ZM25.64 8.17667C25.6267 8.40667 25.6033 8.61 25.6033 8.81C25.6033 16.7267 25.6033 24.64 25.6033 32.5567C25.6033 34.8133 25.8067 37.0533 26.35 39.2433C29.18 50.5733 36.1033 58.1967 47.0867 62.18C49.0567 62.8933 50.8733 62.8933 52.87 62.2133C65.9133 57.7767 74.4033 45.9867 74.4233 32.1133C74.4333 24.3867 74.4233 16.6567 74.4233 8.93C74.4233 8.68667 74.4 8.44667 74.3867 8.17667H25.64Z" fill="white"/>
<path d="M81.5633 96.4333C80.14 94.6967 78.8167 93.0967 77.5133 91.4833C77.32 91.2433 77.2633 90.99 77.51 90.65C81.5067 85.11 85.46 79.5433 89.4733 74.02C90.1467 73.0933 91.3133 72.5933 92.3867 73.2C92.7467 73.4033 93.1567 73.5133 93.5467 73.66C94.27 73.93 94.29 73.9433 93.95 74.62C92.6433 77.2233 91.3533 79.8367 90.0033 82.42C87.8733 86.4967 85.7633 90.5867 83.1733 94.4C82.7233 95.0633 82.1833 95.6633 81.5667 96.4367L81.5633 96.4333Z" fill="white"/>
<path d="M31.29 70.9833C30.8533 71.1167 30.4267 71.2833 29.9867 71.3667C29.8267 71.3967 29.5933 71.2733 29.4567 71.15C27.08 68.9933 24.71 66.8367 22.3533 64.66C21.2467 63.64 19.9767 62.89 18.5667 62.4233C17.9167 62.21 17.1767 62.2367 16.4733 62.2167C16.06 62.2033 15.8533 62.0933 15.8433 61.66C15.84 61.4133 15.7567 61.17 15.7333 60.92C15.66 60.1333 16.0667 59.6033 16.8633 59.6333C18.2133 59.6867 19.5667 59.9833 20.5733 60.9C24.16 64.17 27.6767 67.5133 31.2167 70.83C31.2433 70.8567 31.25 70.9033 31.2867 70.98L31.29 70.9833Z" fill="white"/>
<path d="M21.0567 60.3333C21.7733 60 22.4 60.0267 22.97 60.43C23.83 61.0367 24.7467 61.5967 25.49 62.3267C28.06 64.8467 30.5667 67.4333 33.1033 69.9867C33.2633 70.1467 33.4733 70.26 33.6133 70.46C32.83 70.7267 32.2 70.8833 31.51 70.2233C28.13 66.9833 24.6933 63.8 21.28 60.5967C21.21 60.53 21.1533 60.4467 21.0567 60.3333Z" fill="white"/>
<path d="M35.2767 70.6167C34.96 70.5033 34.5567 70.4767 34.34 70.26C31.55 67.49 28.7833 64.6933 26.0133 61.9033C25.9133 61.8033 25.8333 61.69 25.7433 61.58C25.77 61.5333 25.7967 61.4867 25.8233 61.44C26.0867 61.5533 26.4033 61.6033 26.6 61.7867C29.5467 64.48 32.6267 67.0333 35.1667 70.1433C35.24 70.2333 35.3 70.3367 35.3667 70.4367C35.3367 70.4967 35.3067 70.5567 35.2767 70.6167Z" fill="white"/>
<path d="M25.64 8.18H74.39C74.4033 8.45 74.4267 8.69333 74.4267 8.93333C74.4267 16.66 74.4367 24.39 74.4267 32.1167C74.41 45.9867 65.9167 57.78 52.8733 62.2167C50.8733 62.8967 49.0567 62.8967 47.09 62.1833C36.1067 58.2 29.18 50.58 26.3533 39.2467C25.8067 37.0567 25.6033 34.8167 25.6067 32.56C25.6067 24.6433 25.6067 16.73 25.6067 8.81333C25.6067 8.61 25.63 8.40667 25.6433 8.18H25.64ZM49.9733 32.67C43.8633 30.1367 37.9033 27.6667 31.9433 25.1933C31.91 25.25 31.88 25.3033 31.8467 25.36C34.2967 27.7867 36.7433 30.2167 39.2367 32.69C36.6933 35.22 34.22 37.68 31.7433 40.1433L31.8267 40.2733C37.8167 37.7967 43.8033 35.3167 49.7933 32.84C49.8233 32.8833 49.8567 32.9267 49.8867 32.97C47.41 38.94 44.9367 44.91 42.46 50.88C42.5133 50.9133 42.5667 50.95 42.6233 50.9833C45.07 48.5233 47.52 46.0633 50.08 43.49C52.5633 45.9833 55.01 48.4433 57.46 50.9C57.4833 50.8867 57.51 50.87 57.5333 50.8567C55.0633 44.8767 52.5933 38.8933 50.06 32.76C56.2067 35.3067 62.1933 37.79 68.18 40.2733L68.3033 40.0967C65.8333 37.6333 63.3633 35.1733 60.7733 32.5933C63.2467 30.1367 65.7 27.6967 68.2433 25.17C62.1667 27.68 56.19 30.1467 50.06 32.68C52.6133 26.5233 55.1 20.5267 57.59 14.5267C57.5367 14.4867 57.4833 14.45 57.4333 14.41C54.9667 16.8933 52.4967 19.3767 49.8767 22.0133C47.3967 19.5133 44.95 17.05 42.4867 14.57C44.9667 20.5633 47.4433 26.5467 49.98 32.67H49.9733Z" fill="#FE0000"/>
<path d="M49.9733 32.67C47.4367 26.5433 44.96 20.56 42.48 14.57C44.9433 17.0533 47.39 19.5133 49.87 22.0133C52.49 19.3767 54.96 16.8933 57.4267 14.41C57.48 14.45 57.5333 14.4867 57.5833 14.5267C55.0967 20.5233 52.61 26.52 50.0533 32.68C56.1833 30.15 62.16 27.68 68.2367 25.17C65.6933 27.6967 63.24 30.1367 60.7667 32.5933C63.3533 35.1733 65.8233 37.6333 68.2967 40.0967L68.1733 40.2733C62.1867 37.79 56.1967 35.3067 50.0533 32.76C52.5867 38.8933 55.0567 44.8767 57.5267 50.8567C57.5033 50.87 57.4767 50.8867 57.4533 50.9C55.0033 48.44 52.5567 45.9833 50.0733 43.49C47.5133 46.0633 45.0633 48.5233 42.6167 50.9833C42.5633 50.95 42.51 50.9133 42.4533 50.88C44.93 44.91 47.4033 38.94 49.88 32.97C49.85 32.9267 49.8167 32.8833 49.7867 32.84C43.7967 35.3167 37.81 37.7967 31.82 40.2733L31.7367 40.1433C34.2133 37.68 36.6867 35.22 39.23 32.69C36.7367 30.2167 34.2867 27.79 31.84 25.36C31.8733 25.3033 31.9033 25.25 31.9367 25.1933C37.8967 27.6633 43.8567 30.1367 49.9667 32.67H49.9733Z" fill="white"/>
</svg>
