<svg xmlns="http://www.w3.org/2000/svg" width="335" height="130" fill="none" viewBox="0 0 335 130"><g clip-path="url(#a)"><path fill="#fe0000" d="M100.37 0H12.43C5.565 0 0 5.565 0 12.43v87.94c0 6.865 5.565 12.43 12.43 12.43h87.94c6.865 0 12.43-5.565 12.43-12.43V12.43C112.8 5.565 107.235 0 100.37 0Z"/><path fill="#fff" d="M99.3 82.24c-1.64 2.29-3.21 4.48-4.79 6.67-2.51 3.49-5.04 6.96-7.54 10.46-.3.42-.55.47-1.04.35-2.17-.57-4.35-1.14-6.55-1.56-.74-.14-1.59.03-2.35.23-6.92 1.9-13.83 3.84-20.74 5.74-.83.23-1.7.35-2.56.47-1.61.24-3.05-.19-4.37-1.15-4.23-3.08-8.49-6.12-12.72-9.21-1.86-1.36-3.64-2.81-5.47-4.21-1.99-1.52-3.52-3.46-5.01-5.41-3.01-3.93-5.93-7.93-8.85-11.92-.53-.73-.43-1.04.26-1.5.09-.06.21-.13.32-.13 1.16 0 2.33-.17 3.46.38 1.34.65 2.59 1.39 3.69 2.41 2.37 2.21 4.77 4.4 7.16 6.59.19.17.4.32.66.52-.51.27-.88.46-1.24.67-1.33.77-1.79 1.76-1.52 3.24.3 1.65 1.11 2.95 2.56 3.87 1.8 1.14 3.71 1.79 5.89 1.83 7.21.14 14.42.37 21.63.56h.81c.23-.65-.07-.75-.56-.76-2.51-.06-5.02-.14-7.54-.22-4.84-.15-9.67-.32-14.51-.44-2.26-.06-4.26-.77-6.03-2.18-1.16-.92-1.59-2.18-1.62-3.59-.03-.92.58-1.47 1.32-1.84 2.06-1.04 4.25-1.64 6.55-1.71 1.06-.03 2.14.18 3.2.25 1.52.1 3.04.2 4.57.25 4.12.15 8.24.09 12.22-1.1 2.03-.61 3.99-1.51 5.94-2.35 3.26-1.39 6.54-2.74 10.09-3.21 5.41-.73 10.76-.66 15.79 1.78 3.26 1.59 6.17 3.73 8.9 6.23z"/><path fill="#fff" d="M56.48 7.48h28.48c.61 0 .92.3.92.91v27.98C85.87 51.68 76.87 65.18 62.71 71c-1.88.77-3.87 1.26-5.82 1.85-.3.09-.66.07-.97-.01-14.19-3.67-23.41-12.53-27.64-26.55-.98-3.23-1.31-6.58-1.31-9.95-.01-9.31 0-18.61 0-27.91 0-.63.32-.94.97-.94h28.55zM28.93 9.22c-.02.26-.04.49-.04.71v26.79c0 2.55.23 5.07.84 7.54 3.19 12.78 11 21.38 23.39 25.87 2.22.8 4.27.8 6.52.04 14.71-5 24.29-18.3 24.31-33.95.01-8.72 0-17.44 0-26.15 0-.27-.03-.55-.04-.85H28.92ZM92 108.78c-1.61-1.96-3.1-3.76-4.57-5.58-.22-.27-.28-.56 0-.94 4.51-6.25 8.97-12.53 13.49-18.76.76-1.05 2.08-1.61 3.29-.92.41.23.87.35 1.31.52.82.3.84.32.45 1.08-1.47 2.94-2.93 5.88-4.45 8.8-2.4 4.6-4.78 9.21-7.7 13.51-.51.75-1.12 1.43-1.81 2.3zM35.3 80.07c-.49.15-.97.34-1.47.43-.18.03-.44-.11-.6-.24-2.68-2.43-5.35-4.87-8.01-7.32-1.25-1.15-2.68-2-4.27-2.52-.73-.24-1.57-.21-2.36-.23-.47-.02-.7-.14-.71-.63 0-.28-.1-.55-.12-.83-.08-.89.38-1.49 1.27-1.45 1.52.06 3.05.39 4.18 1.43 4.05 3.69 8.01 7.46 12.01 11.2.03.03.04.08.08.17zM23.75 68.06c.81-.38 1.52-.35 2.16.11.97.68 2 1.32 2.84 2.14 2.9 2.84 5.73 5.76 8.59 8.64.18.18.42.31.58.53-.88.3-1.59.48-2.37-.27-3.81-3.65-7.69-7.25-11.54-10.86-.08-.08-.14-.17-.25-.3zM39.79 79.66c-.36-.13-.81-.16-1.06-.4-3.15-3.12-6.27-6.28-9.39-9.43-.11-.11-.2-.24-.3-.36.03-.05.06-.11.09-.16.3.13.65.18.88.39 3.32 3.04 6.8 5.92 9.66 9.43.08.1.15.22.23.33-.03.07-.07.14-.1.2z"/><path fill="#fe0000" d="M28.92 9.23h54.99c.02.3.04.58.04.85 0 8.72.01 17.44 0 26.15-.02 15.65-9.6 28.95-24.31 33.95-2.26.77-4.31.77-6.52-.04-12.39-4.49-20.2-13.09-23.39-25.87-.62-2.47-.85-5-.84-7.54V9.94c0-.23.03-.46.04-.71zm27.45 27.62c-6.89-2.86-13.62-5.64-20.34-8.43-.04.06-.07.12-.11.19 2.76 2.74 5.52 5.48 8.34 8.27-2.87 2.85-5.66 5.63-8.45 8.41l.09.15c6.76-2.79 13.51-5.59 20.27-8.38.03.05.07.1.11.15-2.79 6.73-5.58 13.47-8.38 20.2l.18.12c2.76-2.77 5.52-5.55 8.41-8.45 2.8 2.81 5.56 5.59 8.32 8.36.03-.02.06-.03.08-.05-2.79-6.75-5.57-13.49-8.43-20.41 6.93 2.87 13.69 5.67 20.44 8.48l.14-.2-8.49-8.46 8.43-8.37c-6.85 2.83-13.6 5.61-20.51 8.47 2.88-6.94 5.69-13.71 8.49-20.48-.06-.05-.12-.09-.18-.13-2.78 2.8-5.57 5.6-8.52 8.58l-8.34-8.4c2.8 6.76 5.59 13.51 8.45 20.42z"/><path fill="#fff" d="M56.37 36.85c-2.86-6.91-5.66-13.66-8.45-20.42l8.34 8.4c2.96-2.97 5.74-5.78 8.52-8.58.06.05.12.09.18.13-2.8 6.76-5.61 13.53-8.49 20.48 6.91-2.85 13.66-5.64 20.51-8.47l-8.43 8.37c2.92 2.91 5.7 5.69 8.49 8.46l-.14.2c-6.75-2.8-13.51-5.6-20.44-8.48 2.86 6.92 5.64 13.67 8.43 20.41-.03.02-.06.03-.08.05-2.76-2.77-5.52-5.55-8.32-8.36-2.89 2.9-5.65 5.68-8.41 8.45l-.18-.12c2.79-6.73 5.58-13.47 8.38-20.2-.03-.05-.07-.1-.11-.15-6.76 2.79-13.51 5.59-20.27 8.38l-.09-.15c2.79-2.78 5.58-5.55 8.45-8.41-2.81-2.79-5.58-5.53-8.34-8.27.04-.06.07-.12.11-.19 6.72 2.79 13.45 5.58 20.34 8.43z"/><path fill="currentColor" d="M127.52 79.2v-2.99c2.65-.19 4.22-.38 4.71-.56.28-.09.5-.26.67-.49.21-.3.35-.75.42-1.34.16-1.34.3-4.25.42-8.75.07-2.18.11-5.93.11-11.25 0-4.76-.04-8.97-.11-12.64s-.22-5.85-.46-6.56c-.09-.33-.24-.58-.44-.76-.2-.18-.58-.31-1.14-.4-1.55-.26-2.94-.41-4.18-.46v-2.99c4.83.14 8.16.21 9.98.21 2.41 0 4.84-.07 7.28-.21l3.09 6.96 2.46 5.27 11.18 23.06c2.39-4.62 4.18-8.2 5.38-10.76l4.64-9.74c2.58-5.44 4.15-8.78 4.73-10.04.58-1.26 1.22-2.84 1.95-4.76 3.07.16 5.04.25 5.91.25L194.6 30v2.99h-.49c-2.37-.02-3.87.25-4.5.83-.63.58-.95 1.68-.95 3.32 0 1.95-.01 3.42-.04 4.43l-.18 9.88v12.34c0 3 .01 4.76.04 5.27.19 2.98.35 4.8.49 5.48.07.33.2.59.39.79.19.2.46.35.81.46.35.11 1.83.24 4.43.4v2.99l-11.21-.21-10.97.21v-2.99c2.91-.09 4.56-.26 4.97-.51.41-.25.7-.8.88-1.67.18-.87.26-3.77.26-8.72V39.7l-8.16 16.49-3.9 8.19c-1.03 2.16-2.48 5.29-4.36 9.39-1.15 2.48-2.05 4.49-2.71 6.01h-2.39c-.84-1.97-2.06-4.66-3.66-8.09-2.72-5.86-4.78-10.23-6.19-13.11l-9.25-18.88v17.26c0 2.88.04 6.31.12 10.28.08 3.97.17 6.22.26 6.75.09.53.24.91.44 1.14.2.23.55.43 1.05.6.5.17 1.94.32 4.31.46v2.99c-2.62-.14-5.31-.21-8.05-.21-3.59 0-6.43.07-8.54.21zM231.34 76.56v2.64c-2.7-.12-5.09-.18-7.17-.18-1.97 0-3.88.06-5.73.18l-.32-.39.32-4.61c-.84.54-3.33 2.39-7.45 5.55-1.05.23-2.06.35-3.02.35-2.55 0-4.55-.75-5.99-2.25-1.44-1.5-2.16-3.66-2.16-6.47 0-1.9.32-3.46.97-4.68.65-1.22 1.34-2.12 2.07-2.69.73-.57 1.88-1.13 3.43-1.67 3.7-1.31 7.76-2.34 12.16-3.09.05-2.79-.53-4.91-1.72-6.36-1.22-1.45-3.07-2.18-5.55-2.18-1.01 0-1.97.13-2.88.39-.4.12-.87.35-1.41.7l-1.48 3.55-2.39-.53.21-4.54c1.73-1.17 3.39-2.19 4.96-3.06 1.57-.87 2.67-1.39 3.3-1.58.87-.26 2.09-.39 3.66-.39 2.55 0 4.66.37 6.31 1.11 1.65.74 2.87 1.61 3.66 2.62a8.86 8.86 0 0 1 1.62 3.23c.3 1.14.44 2.6.44 4.36 0 .75-.06 2.71-.18 5.87-.07 2.11-.11 3.83-.11 5.17 0 4.17.12 6.7.35 7.59.09.42.28.7.56.84.38.19 1.56.35 3.55.49zm-12.9-14.34c-1.99.42-3.81.93-5.47 1.53-1.66.6-2.79 1.34-3.43 2.21-.64.87-.95 1.99-.95 3.32 0 1.5.38 2.66 1.14 3.48.76.82 1.76 1.23 3.01 1.23 1.05 0 2.12-.3 3.18-.91 1.06-.61 1.9-1.38 2.51-2.32v-8.54zM254.86 76.39v2.81c-2.93-.19-5.99-.28-9.18-.28-3.19 0-6.77.09-10.76.28v-2.78c2.23-.07 3.57-.16 4.04-.28.35-.09.62-.23.79-.4.17-.17.3-.45.37-.83.16-.7.28-2.92.35-6.64.07-3.72.11-7.03.11-9.91v-11.6c0-3.68-.08-7.04-.25-10.09-.09-1.64-.21-2.61-.35-2.92-.09-.16-.22-.29-.39-.39-.28-.19-.73-.33-1.34-.42-.35-.05-1.41-.11-3.16-.18v-2.6c2.91-.3 5.23-.64 6.96-1 1.73-.36 4.07-1 7-1.92l.74.42-.28 7.1c-.12 3.98-.19 8.87-.21 14.66v9c0 3.4.02 5.94.07 7.63.09 4.2.16 6.73.21 7.61.05.88.13 1.44.25 1.67.07.16.19.3.35.42.21.16.57.29 1.09.39.21.05 1.41.13 3.59.25zM258.59 52.45v-1.58l3.16-2c.52-.33 1.01-.68 1.48-1.05v-4.71c0-1.69-.09-3.77-.28-6.26 2.27-.75 3.75-1.25 4.43-1.51.12-.05 1.61-.74 4.46-2.07l.91.7-.35 3.66-.25 4.04-.32 6.15h1.16c3.12 0 5.47-.12 7.07-.35l-.6 4.75c-.28.05-.54.07-.77.07l-3.45-.07h-3.41v11.74c0 3.61.04 5.74.11 6.4.09 1.1.49 1.96 1.18 2.58.69.62 1.69.93 3.01.93.8.02 1.44 0 1.92-.05s1.1-.17 1.85-.33l.56 1.44-1.27 1.27c-1.03 1.05-1.93 1.98-2.71 2.78-.91.4-1.73.66-2.44.79s-1.45.19-2.2.19c-2.72 0-4.86-.7-6.42-2.09-1.56-1.39-2.34-3.13-2.34-5.22l.14-11.6v-8.68h-.95c-1.29 0-2.52.04-3.69.11zM313.57 73.79l-1.55 3.45c-1.92 1.17-3.9 2.04-5.94 2.6-1.52.4-3.26.6-5.2.6-2.32 0-4.37-.27-6.13-.81-1.76-.54-3.28-1.28-4.54-2.21-1.26-.93-2.36-2.09-3.3-3.45-.94-1.36-1.63-2.93-2.06-4.71-.43-1.78-.63-3.73-.63-5.84 0-3.07.41-5.81 1.23-8.23.56-1.69 1.22-2.91 1.97-3.66.47-.47 1.69-1.35 3.66-2.64 1.97-1.29 3.4-2.13 4.29-2.53 1.64-.73 3.57-1.09 5.8-1.09 3.14 0 5.72.66 7.73 1.97 2.01 1.31 3.44 2.99 4.27 5.03.83 2.04 1.25 4.51 1.25 7.42 0 .66-.02 1.29-.07 1.9-.59.19-1.48.4-2.67.63-1.59.3-2.67.47-3.23.49-1.76.14-4.08.22-6.96.25s-4.48.05-4.78.07c-.3.02-.64.04-1.02.04h-2.32c.19 3.7 1.34 6.63 3.45 8.77 2.11 2.14 4.71 3.22 7.8 3.22 1.34 0 2.57-.15 3.69-.44 1.12-.29 2.6-.9 4.43-1.81l.84.98zm-8.37-14.55c.09-3.73-.41-6.34-1.51-7.84-1.12-1.48-2.58-2.21-4.36-2.21-1.78 0-3.34.77-4.54 2.32-1.22 1.57-1.78 4.15-1.69 7.73 1.38.21 3.69.32 6.93.32 2.06 0 3.79-.11 5.17-.32z"/></g><defs><clipPath id="a"><path fill="#fff" d="M0 0h314.41v112.8H0z"/></clipPath></defs></svg>