<?xml version="1.0" encoding="UTF-8" standalone="no"?>
<svg
   width="335"
   height="130"
   viewBox="0 0 335 130"
   fill="none"
   version="1.1"
   id="svg14"
   sodipodi:docname="app-logo.svg"
   inkscape:version="1.4.2 (ebf0e940d0, 2025-05-08)"
   xmlns:inkscape="http://www.inkscape.org/namespaces/inkscape"
   xmlns:sodipodi="http://sodipodi.sourceforge.net/DTD/sodipodi-0.dtd"
   xmlns="http://www.w3.org/2000/svg"
   xmlns:svg="http://www.w3.org/2000/svg">
  <sodipodi:namedview
     id="namedview14"
     pagecolor="#ffffff"
     bordercolor="#000000"
     borderopacity="0.25"
     inkscape:showpageshadow="2"
     inkscape:pageopacity="0.0"
     inkscape:pagecheckerboard="0"
     inkscape:deskcolor="#d1d1d1"
     inkscape:zoom="1.3880952"
     inkscape:cx="240.25729"
     inkscape:cy="69.879931"
     inkscape:window-width="1920"
     inkscape:window-height="999"
     inkscape:window-x="0"
     inkscape:window-y="0"
     inkscape:window-maximized="1"
     inkscape:current-layer="svg14" />
  <g
     clip-path="url(#clip0_2359_41)"
     id="g14">
    <path
       d="M 100.37,0 H 12.43 C 5.5651,0 0,5.5651 0,12.43 v 87.94 c 0,6.865 5.5651,12.43 12.43,12.43 h 87.94 c 6.865,0 12.43,-5.565 12.43,-12.43 V 12.43 C 112.8,5.5651 107.235,0 100.37,0 Z"
       fill="#fe0000"
       id="path1" />
    <path
       d="m 99.3,82.24 c -1.64,2.29 -3.21,4.48 -4.79,6.67 -2.51,3.49 -5.04,6.96 -7.54,10.46 -0.3,0.42 -0.55,0.47 -1.04,0.35 -2.17,-0.57 -4.35,-1.14 -6.55,-1.56 -0.74,-0.14 -1.59,0.03 -2.35,0.23 -6.92,1.9 -13.83,3.84 -20.74,5.74 -0.83,0.23 -1.7,0.35 -2.56,0.47 -1.61,0.24 -3.05,-0.19 -4.37,-1.15 C 45.13,100.37 40.87,97.33 36.64,94.24 34.78,92.88 33,91.43 31.17,90.03 29.18,88.51 27.65,86.57 26.16,84.62 23.15,80.69 20.23,76.69 17.31,72.7 c -0.53,-0.73 -0.43,-1.04 0.26,-1.5 0.09,-0.06 0.21,-0.13 0.32,-0.13 1.16,0 2.33,-0.17 3.46,0.38 1.34,0.65 2.59,1.39 3.69,2.41 2.37,2.21 4.77,4.4 7.16,6.59 0.19,0.17 0.4,0.32 0.66,0.52 -0.51,0.27 -0.88,0.46 -1.24,0.67 -1.33,0.77 -1.79,1.76 -1.52,3.24 0.3,1.65 1.11,2.95 2.56,3.87 1.8,1.14 3.71,1.79 5.89,1.83 7.21,0.14 14.42,0.37 21.63,0.56 0.27,0 0.55,0 0.81,0 0.23,-0.65 -0.07,-0.75 -0.56,-0.76 -2.51,-0.06 -5.02,-0.14 -7.54,-0.22 -4.84,-0.15 -9.67,-0.32 -14.51,-0.44 -2.26,-0.06 -4.26,-0.77 -6.03,-2.18 -1.16,-0.92 -1.59,-2.18 -1.62,-3.59 -0.03,-0.92 0.58,-1.47 1.32,-1.84 2.06,-1.04 4.25,-1.64 6.55,-1.71 1.06,-0.03 2.14,0.18 3.2,0.25 1.52,0.1 3.04,0.2 4.57,0.25 4.12,0.15 8.24,0.09 12.22,-1.1 2.03,-0.61 3.99,-1.51 5.94,-2.35 3.26,-1.39 6.54,-2.74 10.09,-3.21 5.41,-0.73 10.76,-0.66 15.79,1.78 3.26,1.59 6.17,3.73 8.9,6.23 z"
       fill="#ffffff"
       id="path2" />
    <path
       d="m 56.48,7.48001 h 28.48 c 0.61,0 0.92,0.3 0.92,0.91 0,9.32999 0,18.65999 0,27.97999 -0.01,15.31 -9.01,28.81 -23.17,34.63 -1.88,0.77 -3.87,1.26 -5.82,1.85 -0.3,0.09 -0.66,0.07 -0.97,-0.01 C 41.73,69.17 32.51,60.31 28.28,46.29 27.3,43.06 26.97,39.71 26.97,36.34 c -0.01,-9.31 0,-18.61 0,-27.90999 0,-0.63 0.32,-0.94 0.97,-0.94 h 28.55 z m -27.55,1.74 c -0.02,0.26 -0.04,0.49 -0.04,0.71 V 36.72 c 0,2.55 0.23,5.07 0.84,7.54 3.19,12.78 11,21.38 23.39,25.87 2.22,0.8 4.27,0.8 6.52,0.04 14.71,-5 24.29,-18.3 24.31,-33.95 0.01,-8.72 0,-17.44 0,-26.15 0,-0.26999 -0.03,-0.54999 -0.04,-0.84999 H 28.92 Z"
       fill="#ffffff"
       id="path3" />
    <path
       d="m 92,108.78 c -1.61,-1.96 -3.1,-3.76 -4.57,-5.58 -0.22,-0.27 -0.28,-0.56 0,-0.94 4.51,-6.25 8.97,-12.53 13.49,-18.76 0.76,-1.05 2.08,-1.61 3.29,-0.92 0.41,0.23 0.87,0.35 1.31,0.52 0.82,0.3 0.84,0.32 0.45,1.08 -1.47,2.94 -2.93,5.88 -4.45,8.8 -2.4,4.6 -4.78,9.21 -7.7,13.51 -0.51,0.75 -1.12,1.43 -1.81,2.3 z"
       fill="#ffffff"
       id="path4" />
    <path
       d="m 35.3,80.07 c -0.49,0.15 -0.97,0.34 -1.47,0.43 -0.18,0.03 -0.44,-0.11 -0.6,-0.24 -2.68,-2.43 -5.35,-4.87 -8.01,-7.32 -1.25,-1.15 -2.68,-2 -4.27,-2.52 -0.73,-0.24 -1.57,-0.21 -2.36,-0.23 -0.47,-0.02 -0.7,-0.14 -0.71,-0.63 0,-0.28 -0.1,-0.55 -0.12,-0.83 -0.08,-0.89 0.38,-1.49 1.27,-1.45 1.52,0.06 3.05,0.39 4.18,1.43 4.05,3.69 8.01,7.46 12.01,11.2 0.03,0.03 0.04,0.08 0.08,0.17 z"
       fill="#ffffff"
       id="path5" />
    <path
       d="m 23.75,68.06 c 0.81,-0.38 1.52,-0.35 2.16,0.11 0.97,0.68 2,1.32 2.84,2.14 2.9,2.84 5.73,5.76 8.59,8.64 0.18,0.18 0.42,0.31 0.58,0.53 -0.88,0.3 -1.59,0.48 -2.37,-0.27 -3.81,-3.65 -7.69,-7.25 -11.54,-10.86 -0.08,-0.08 -0.14,-0.17 -0.25,-0.3 z"
       fill="#ffffff"
       id="path6" />
    <path
       d="m 39.79,79.66 c -0.36,-0.13 -0.81,-0.16 -1.06,-0.4 -3.15,-3.12 -6.27,-6.28 -9.39,-9.43 -0.11,-0.11 -0.2,-0.24 -0.3,-0.36 0.03,-0.05 0.06,-0.11 0.09,-0.16 0.3,0.13 0.65,0.18 0.88,0.39 3.32,3.04 6.8,5.92 9.66,9.43 0.08,0.1 0.15,0.22 0.23,0.33 -0.03,0.07 -0.07,0.14 -0.1,0.2 z"
       fill="#ffffff"
       id="path7" />
    <path
       d="m 28.92,9.23001 h 54.99 c 0.02,0.3 0.04,0.58 0.04,0.84999 0,8.72 0.01,17.44 0,26.15 -0.02,15.65 -9.6,28.95 -24.31,33.95 -2.26,0.77 -4.31,0.77 -6.52,-0.04 C 40.73,65.65 32.92,57.05 29.73,44.27 29.11,41.8 28.88,39.27 28.89,36.73 V 9.94001 c 0,-0.23 0.03,-0.46 0.04,-0.71 z M 56.37,36.85 c -6.89,-2.86 -13.62,-5.64 -20.34,-8.43 -0.04,0.06 -0.07,0.12 -0.11,0.19 2.76,2.74 5.52,5.48 8.34,8.27 -2.87,2.85 -5.66,5.63 -8.45,8.41 l 0.09,0.15 c 6.76,-2.79 13.51,-5.59 20.27,-8.38 0.03,0.05 0.07,0.1 0.11,0.15 -2.79,6.73 -5.58,13.47 -8.38,20.2 0.06,0.04 0.12,0.08 0.18,0.12 2.76,-2.77 5.52,-5.55 8.41,-8.45 2.8,2.81 5.56,5.59 8.32,8.36 0.03,-0.02 0.06,-0.03 0.08,-0.05 -2.79,-6.75 -5.57,-13.49 -8.43,-20.41 6.93,2.87 13.69,5.67 20.44,8.48 l 0.14,-0.2 c -2.79,-2.78 -5.57,-5.55 -8.49,-8.46 2.79,-2.77 5.56,-5.52 8.43,-8.37 -6.85,2.83 -13.6,5.61 -20.51,8.47 2.88,-6.94 5.69,-13.71 8.49,-20.48 -0.06,-0.05 -0.12,-0.09 -0.18,-0.13 -2.78,2.8 -5.57,5.6 -8.52,8.58 -2.8,-2.82 -5.56,-5.6 -8.34,-8.4 2.8,6.76 5.59,13.51 8.45,20.42 z"
       fill="#fe0000"
       id="path8" />
    <path
       d="m 56.37,36.85 c -2.86,-6.91 -5.66,-13.66 -8.45,-20.42 2.78,2.8 5.54,5.58 8.34,8.4 2.96,-2.97 5.74,-5.78 8.52,-8.58 0.06,0.05 0.12,0.09 0.18,0.13 -2.8,6.76 -5.61,13.53 -8.49,20.48 6.91,-2.85 13.66,-5.64 20.51,-8.47 -2.87,2.85 -5.64,5.6 -8.43,8.37 2.92,2.91 5.7,5.69 8.49,8.46 l -0.14,0.2 c -6.75,-2.8 -13.51,-5.6 -20.44,-8.48 2.86,6.92 5.64,13.67 8.43,20.41 -0.03,0.02 -0.06,0.03 -0.08,0.05 -2.76,-2.77 -5.52,-5.55 -8.32,-8.36 -2.89,2.9 -5.65,5.68 -8.41,8.45 -0.06,-0.04 -0.12,-0.08 -0.18,-0.12 2.79,-6.73 5.58,-13.47 8.38,-20.2 -0.03,-0.05 -0.07,-0.1 -0.11,-0.15 -6.76,2.79 -13.51,5.59 -20.27,8.38 l -0.09,-0.15 c 2.79,-2.78 5.58,-5.55 8.45,-8.41 -2.81,-2.79 -5.58,-5.53 -8.34,-8.27 0.04,-0.06 0.07,-0.12 0.11,-0.19 6.72,2.79 13.45,5.58 20.34,8.43 z"
       fill="#ffffff"
       id="path9" />
    <path
       d="m 127.52,79.2 v -2.99 c 2.65,-0.19 4.22,-0.38 4.71,-0.56 0.28,-0.09 0.5,-0.26 0.67,-0.49 0.21,-0.3 0.35,-0.75 0.42,-1.34 0.16,-1.34 0.3,-4.25 0.42,-8.75 0.07,-2.18 0.11,-5.93 0.11,-11.25 0,-4.76 -0.04,-8.97 -0.11,-12.64 -0.07,-3.67 -0.22,-5.85 -0.46,-6.56 -0.09,-0.33 -0.24,-0.58 -0.44,-0.76 -0.2,-0.18 -0.58,-0.31 -1.14,-0.4 -1.55,-0.26 -2.94,-0.41 -4.18,-0.46 v -2.99 c 4.83,0.14 8.16,0.21 9.98,0.21 2.41,0 4.84,-0.07 7.28,-0.21 l 3.09,6.96 2.46,5.27 11.18,23.06 c 2.39,-4.62 4.18,-8.2 5.38,-10.76 l 4.64,-9.74 c 2.58,-5.44 4.15,-8.78 4.73,-10.04 0.58,-1.26 1.22,-2.84 1.95,-4.76 3.07,0.16 5.04,0.25 5.91,0.25 L 194.6,30 v 2.99 h -0.49 c -2.37,-0.02 -3.87,0.25 -4.5,0.83 -0.63,0.58 -0.95,1.68 -0.95,3.32 0,1.95 -0.01,3.42 -0.04,4.43 l -0.18,9.88 v 12.34 c 0,3 0.01,4.76 0.04,5.27 0.19,2.98 0.35,4.8 0.49,5.48 0.07,0.33 0.2,0.59 0.39,0.79 0.19,0.2 0.46,0.35 0.81,0.46 0.35,0.11 1.83,0.24 4.43,0.4 v 2.99 l -11.21,-0.21 -10.97,0.21 v -2.99 c 2.91,-0.09 4.56,-0.26 4.97,-0.51 0.41,-0.25 0.7,-0.8 0.88,-1.67 0.18,-0.87 0.26,-3.77 0.26,-8.72 V 39.7 l -8.16,16.49 -3.9,8.19 c -1.03,2.16 -2.48,5.29 -4.36,9.39 -1.15,2.48 -2.05,4.49 -2.71,6.01 h -2.39 c -0.84,-1.97 -2.06,-4.66 -3.66,-8.09 -2.72,-5.86 -4.78,-10.23 -6.19,-13.11 L 137.91,39.7 v 17.26 c 0,2.88 0.04,6.31 0.12,10.28 0.08,3.97 0.17,6.22 0.26,6.75 0.09,0.53 0.24,0.91 0.44,1.14 0.2,0.23 0.55,0.43 1.05,0.6 0.5,0.17 1.94,0.32 4.31,0.46 v 2.99 c -2.62,-0.14 -5.31,-0.21 -8.05,-0.21 -3.59,0 -6.43,0.07 -8.54,0.21 z"
       fill="currentColor"
       id="path10" />
    <path
       d="m 231.34,76.56 v 2.64 c -2.7,-0.12 -5.09,-0.18 -7.17,-0.18 -1.97,0 -3.88,0.06 -5.73,0.18 l -0.32,-0.39 0.32,-4.61 c -0.84,0.54 -3.33,2.39 -7.45,5.55 -1.05,0.23 -2.06,0.35 -3.02,0.35 -2.55,0 -4.55,-0.75 -5.99,-2.25 -1.44,-1.5 -2.16,-3.66 -2.16,-6.47 0,-1.9 0.32,-3.46 0.97,-4.68 0.65,-1.22 1.34,-2.12 2.07,-2.69 0.73,-0.57 1.88,-1.13 3.43,-1.67 3.7,-1.31 7.76,-2.34 12.16,-3.09 0.05,-2.79 -0.53,-4.91 -1.72,-6.36 -1.22,-1.45 -3.07,-2.18 -5.55,-2.18 -1.01,0 -1.97,0.13 -2.88,0.39 -0.4,0.12 -0.87,0.35 -1.41,0.7 l -1.48,3.55 -2.39,-0.53 0.21,-4.54 c 1.73,-1.17 3.39,-2.19 4.96,-3.06 1.57,-0.87 2.67,-1.39 3.3,-1.58 0.87,-0.26 2.09,-0.39 3.66,-0.39 2.55,0 4.66,0.37 6.31,1.11 1.65,0.74 2.87,1.61 3.66,2.62 0.79,1.01 1.32,2.09 1.62,3.23 0.3,1.14 0.44,2.6 0.44,4.36 0,0.75 -0.06,2.71 -0.18,5.87 -0.07,2.11 -0.11,3.83 -0.11,5.17 0,4.17 0.12,6.7 0.35,7.59 0.09,0.42 0.28,0.7 0.56,0.84 0.38,0.19 1.56,0.35 3.55,0.49 z m -12.9,-14.34 c -1.99,0.42 -3.81,0.93 -5.47,1.53 -1.66,0.6 -2.79,1.34 -3.43,2.21 -0.64,0.87 -0.95,1.99 -0.95,3.32 0,1.5 0.38,2.66 1.14,3.48 0.76,0.82 1.76,1.23 3.01,1.23 1.05,0 2.12,-0.3 3.18,-0.91 1.06,-0.61 1.9,-1.38 2.51,-2.32 v -8.54 z"
       fill="currentColor"
       id="path11" />
    <path
       d="m 254.86,76.39 v 2.81 c -2.93,-0.19 -5.99,-0.28 -9.18,-0.28 -3.19,0 -6.77,0.09 -10.76,0.28 v -2.78 c 2.23,-0.07 3.57,-0.16 4.04,-0.28 0.35,-0.09 0.62,-0.23 0.79,-0.4 0.17,-0.17 0.3,-0.45 0.37,-0.83 0.16,-0.7 0.28,-2.92 0.35,-6.64 0.07,-3.72 0.11,-7.03 0.11,-9.91 v -11.6 c 0,-3.68 -0.08,-7.04 -0.25,-10.09 -0.09,-1.64 -0.21,-2.61 -0.35,-2.92 -0.09,-0.16 -0.22,-0.29 -0.39,-0.39 -0.28,-0.19 -0.73,-0.33 -1.34,-0.42 -0.35,-0.05 -1.41,-0.11 -3.16,-0.18 v -2.6 c 2.91,-0.3 5.23,-0.64 6.96,-1 1.73,-0.36 4.07,-1 7,-1.92 l 0.74,0.42 -0.28,7.1 c -0.12,3.98 -0.19,8.87 -0.21,14.66 v 9 c 0,3.4 0.02,5.94 0.07,7.63 0.09,4.2 0.16,6.73 0.21,7.61 0.05,0.88 0.13,1.44 0.25,1.67 0.07,0.16 0.19,0.3 0.35,0.42 0.21,0.16 0.57,0.29 1.09,0.39 0.21,0.05 1.41,0.13 3.59,0.25 z"
       fill="currentColor"
       id="path12" />
    <path
       d="m 258.59,52.45 v -1.58 l 3.16,-2 c 0.52,-0.33 1.01,-0.68 1.48,-1.05 v -4.71 c 0,-1.69 -0.09,-3.77 -0.28,-6.26 2.27,-0.75 3.75,-1.25 4.43,-1.51 0.12,-0.05 1.61,-0.74 4.46,-2.07 l 0.91,0.7 -0.35,3.66 -0.25,4.04 -0.32,6.15 h 1.16 c 3.12,0 5.47,-0.12 7.07,-0.35 l -0.6,4.75 c -0.28,0.05 -0.54,0.07 -0.77,0.07 l -3.45,-0.07 h -3.41 v 11.74 c 0,3.61 0.04,5.74 0.11,6.4 0.09,1.1 0.49,1.96 1.18,2.58 0.69,0.62 1.69,0.93 3.01,0.93 0.8,0.02 1.44,0 1.92,-0.05 0.48,-0.05 1.1,-0.17 1.85,-0.33 l 0.56,1.44 -1.27,1.27 c -1.03,1.05 -1.93,1.98 -2.71,2.78 -0.91,0.4 -1.73,0.66 -2.44,0.79 -0.71,0.13 -1.45,0.19 -2.2,0.19 -2.72,0 -4.86,-0.7 -6.42,-2.09 -1.56,-1.39 -2.34,-3.13 -2.34,-5.22 l 0.14,-11.6 v -8.68 h -0.95 c -1.29,0 -2.52,0.04 -3.69,0.11 z"
       fill="currentColor"
       id="path13" />
    <path
       d="m 313.57,73.79 -1.55,3.45 c -1.92,1.17 -3.9,2.04 -5.94,2.6 -1.52,0.4 -3.26,0.6 -5.2,0.6 -2.32,0 -4.37,-0.27 -6.13,-0.81 -1.76,-0.54 -3.28,-1.28 -4.54,-2.21 -1.26,-0.93 -2.36,-2.09 -3.3,-3.45 -0.94,-1.36 -1.63,-2.93 -2.06,-4.71 -0.43,-1.78 -0.63,-3.73 -0.63,-5.84 0,-3.07 0.41,-5.81 1.23,-8.23 0.56,-1.69 1.22,-2.91 1.97,-3.66 0.47,-0.47 1.69,-1.35 3.66,-2.64 1.97,-1.29 3.4,-2.13 4.29,-2.53 1.64,-0.73 3.57,-1.09 5.8,-1.09 3.14,0 5.72,0.66 7.73,1.97 2.01,1.31 3.44,2.99 4.27,5.03 0.83,2.04 1.25,4.51 1.25,7.42 0,0.66 -0.02,1.29 -0.07,1.9 -0.59,0.19 -1.48,0.4 -2.67,0.63 -1.59,0.3 -2.67,0.47 -3.23,0.49 -1.76,0.14 -4.08,0.22 -6.96,0.25 -2.88,0.03 -4.48,0.05 -4.78,0.07 -0.3,0.02 -0.64,0.04 -1.02,0.04 h -2.32 c 0.19,3.7 1.34,6.63 3.45,8.77 2.11,2.14 4.71,3.22 7.8,3.22 1.34,0 2.57,-0.15 3.69,-0.44 1.12,-0.29 2.6,-0.9 4.43,-1.81 l 0.84,0.98 z M 305.2,59.24 c 0.09,-3.73 -0.41,-6.34 -1.51,-7.84 -1.12,-1.48 -2.58,-2.21 -4.36,-2.21 -1.78,0 -3.34,0.77 -4.54,2.32 -1.22,1.57 -1.78,4.15 -1.69,7.73 1.38,0.21 3.69,0.32 6.93,0.32 2.06,0 3.79,-0.11 5.17,-0.32 z"
       fill="currentColor"
       id="path14" />
  </g>
  <defs
     id="defs14">
    <clipPath
       id="clip0_2359_41">
      <rect
         width="314.41"
         height="112.8"
         fill="#ffffff"
         id="rect14"
         x="0"
         y="0" />
    </clipPath>
  </defs>
</svg>
