<?xml version="1.0" encoding="utf-8"?>
<!-- Generator: Adobe Illustrator 23.0.2, SVG Export Plug-In . SVG Version: 6.00 Build 0)  -->
<svg version="1.1" id="Ebene_1" xmlns="http://www.w3.org/2000/svg" xmlns:xlink="http://www.w3.org/1999/xlink" x="0px" y="0px"
	 viewBox="0 0 172.91 172.91" style="enable-background:new 0 0 172.91 172.91;" xml:space="preserve">
<style type="text/css">
	.st0{fill:#FF0000;}
	.st1{fill:#FFFFFF;}
	.st2{stroke:#000000;stroke-miterlimit:10;}
</style>
<path class="st0" d="M116.59,137.31H59.52c-10.32,0-18.77-8.44-18.77-18.77V61.48c0-10.32,8.44-18.77,18.77-18.77h57.06
	c10.32,0,18.77,8.44,18.77,18.77v57.06C135.35,128.86,126.91,137.31,116.59,137.31z"/>
<path class="st1" d="M79.07,150.46h-36.6c-7.75,0-14.1-6.34-14.1-14.1v-36.6c0-7.75,6.34-14.1,14.1-14.1h36.6
	c7.75,0,14.1,6.34,14.1,14.1v36.6C93.16,144.11,86.82,150.46,79.07,150.46z"/>
<circle class="st0" cx="141.54" cy="141.76" r="9.86"/>
<circle class="st0" cx="154.87" cy="157.35" r="4.93"/>
<circle class="st0" cx="144.29" cy="40.31" r="9.86"/>
<circle class="st0" cx="121.6" cy="35" r="4.93"/>
<ellipse class="st0" cx="148.95" cy="21.49" rx="5.79" ry="5.79"/>
<circle class="st0" cx="134.44" cy="27.31" r="2.47"/>
<path class="st2" d="M81.13,109.91l-12.4-12.4c-0.2-0.2-0.5-0.2-0.8,0l-5.6,5.6c-2.2-0.1-4,0.1-5.5,0.3c-1.5-0.3-3.2-0.4-5.5-0.3
	l-5.6-5.6c-0.2-0.2-0.5-0.2-0.8,0l-12.2,12.4c-0.2,0.2-0.2,0.5,0,0.8l5.6,5.6c-0.6,3.5-0.2,6.3,1.7,9.3l-2.9,2.9
	c-0.6,0.6-1,1.5-1,2.4c0,0.9,0.4,1.8,1,2.4c0.6,0.6,1.5,1,2.3,1l-0.7,0.7c-0.6,0.6-1,1.5-1,2.4c0,0.9,0.4,1.8,1,2.4
	c0.6,0.6,1.5,1,2.4,1s1.8-0.4,2.4-1l0.7-0.7c0,0.9,0.4,1.7,1,2.3c0.6,0.6,1.6,1,2.4,1c0.9,0,1.8-0.3,2.4-1l2.6-2.6l1.8,1.8
	c0.6,0.6,1.5,1,2.4,1c0.9,0,1.8-0.4,2.4-1c0.6-0.6,1-1.5,1-2.3l3.2,3.2c0.6,0.6,1.6,1,2.4,1c0.9,0,1.8-0.3,2.4-1
	c0.6-0.6,1-1.5,1-2.3l0.7,0.7c0.6,0.6,1.6,1,2.4,1c0.9,0,1.8-0.3,2.4-1c1.4-1.4,1.4-3.5,0-4.9l-0.7-0.7c0.9,0,1.7-0.4,2.3-1
	c0.6-0.6,1-1.5,1-2.4c0-0.9-0.4-1.8-1-2.4l-3.1-3.1c1.8-3,2.4-6.1,1.9-9.1l5.6-5.6C81.33,110.51,81.33,110.21,81.13,109.91z
	 M41.13,132.61c-0.4,0.4-1,0.7-1.7,0.7c-0.7,0-1.2-0.3-1.7-0.7c-0.5-0.4-0.7-1-0.7-1.7c0-0.7,0.3-1.2,0.7-1.7l2.8-2.8
	c0.7,1,1.6,1.9,2.6,3l0.5,0.5L41.13,132.61L41.13,132.61z M42.83,139.21c-0.4,0.4-1,0.7-1.7,0.7s-1.2-0.3-1.7-0.7
	c-0.4-0.4-0.7-1-0.7-1.7c0-0.7,0.3-1.2,0.7-1.7l5.1-5.1l1.8,1.8l0,0l1.6,1.6l-2.6,2.6l0,0l0,0L42.83,139.21z M49.43,140.91
	c-0.9,0.9-2.4,0.9-3.4,0c-0.9-0.9-0.9-2.4,0-3.4l2.6-2.6l3.4,3.4L49.43,140.91z M76.63,130.91c0,0.6-0.3,1.2-0.7,1.7
	c-0.9,0.9-2.4,0.9-3.4,0l-6.6-6.6l-4.1-4.1c-0.2-0.2-0.5-0.2-0.8,0c-0.2,0.2-0.2,0.5,0,0.8l4.1,4.1l6.6,6.6l2.5,2.5
	c0.9,0.9,0.9,2.4,0,3.4c-0.9,0.9-2.4,0.9-3.4,0l-2.2-2.5l0,0l-10.4-10.7c-0.2-0.2-0.5-0.2-0.8,0c-0.2,0.2-0.2,0.5,0,0.8l10.3,10.6
	l0,0l0,0c0.9,0.9,0.9,2.4,0,3.4c-0.9,0.9-2.4,0.9-3.4,0l-4.8-5l0,0l0,0l-6.1-6.1c-0.2-0.2-0.5-0.2-0.8,0s-0.2,0.5,0,0.8l6.1,6.1
	c0.9,0.9,0.9,2.4,0,3.4c-0.4,0.4-1,0.7-1.7,0.7c-0.6,0-1.2-0.3-1.7-0.7l-2.2-2.2l0,0l0,0l-6.9-6.9l0,0l-1.4-1.4l0,0l0,0l-0.9-0.9
	c-4.3-4.3-5.5-7.7-4.6-12.5v-0.1c0-0.1,0-0.1,0-0.1c0-0.1,0-0.1,0-0.1c0-0.1,0-0.1-0.1-0.1c0-0.1-0.1-0.1-0.1-0.1s0-0.1-0.1-0.1
	l-5.4-5.4l11.7-11.6l5.4,5.4l0,0c0.1,0.1,0.2,0.2,0.3,0.2h0.1l0,0l0,0c1.1-0.1,2.1,0,3,0c-2.1,0.9-3.6,2.3-5.6,4.4l-6.2,6.3
	c-0.6,0.6-1,1.5-1,2.4c0,0.9,0.4,1.8,1,2.4c0.6,0.6,1.6,1,2.4,1c0.8,0,1.8-0.3,2.4-1l4.4-4.4c0.6,0.1,1.2,0.2,1.9,0.2
	c2.2,0,4.4-0.8,6.7-2.2l15.8,15.8C76.43,129.71,76.63,130.31,76.63,130.91z M72.83,124.61l-11.8-11.8c0.2-0.2,0.4-0.3,0.6-0.4
	c0.2-0.2,0.3-0.5,0.1-0.8c-0.2-0.2-0.5-0.3-0.8-0.1c-3.3,2.5-6.5,3.5-9.5,2.8h0.1c-0.1,0-0.1,0-0.1,0c-0.1,0-0.1,0-0.1,0
	c-0.1,0-0.1,0-0.1,0.1c-0.1,0-0.1,0.1-0.1,0.1s-0.1,0-0.1,0.1l-4.6,4.6c-0.9,0.9-2.4,0.9-3.4,0c-0.4-0.4-0.7-1-0.7-1.7
	c0-0.7,0.3-1.2,0.7-1.7l6.3-6.3c4-4,5.8-5.4,13.2-5.2l0,0l0,0h0.1c0.1,0,0.2-0.1,0.3-0.2l5.4-5.4l11.6,11.6l-5.4,5.4
	c0,0,0,0.1-0.1,0.1c0,0.1-0.1,0.1-0.1,0.1c0,0.1-0.1,0.1-0.1,0.1c0,0.1,0,0.1,0,0.1c0,0.1,0,0.1,0,0.1v0.1
	C75.03,119.01,74.43,121.81,72.83,124.61z"/>
</svg>
