<svg id="Ebene_1" data-name="Ebene 1" xmlns="http://www.w3.org/2000/svg" viewBox="0 0 512 512"><defs><style>.cls-1,.cls-4{fill:#ff0000;}.cls-2,.cls-3{fill:#fff;}.cls-3,.cls-4{stroke:red;stroke-miterlimit:10;stroke-width:0.25px;}</style></defs><title>Zeichenfläche 1</title><g id="Higru_MRot_rounded" data-name="Higru MRot rounded"><path class="cls-1" d="M458.25,512H51.75A52.91,52.91,0,0,1-1,459.25V56.58A56.75,56.75,0,0,1,55.58,0H458.25A52.91,52.91,0,0,1,511,52.75v406.5A52.91,52.91,0,0,1,458.25,512Z"/></g><path class="cls-2" d="M468.26,373.11a7.68,7.68,0,0,1,4.65-.71c1.94.26,3.65,1.26,5.45,2,2.07.89,4.22,1.6,6.34,2.39a5.28,5.28,0,0,1,2,1.18c.41.61.07,1.36-.1,2-.63,1.76-1.54,3.43-2.33,5.11-7.47,15.32-15.26,30.5-23.21,45.57q-6.6,12.45-13.47,24.75c-4,7.09-8.06,14.13-12.38,21-2.52,4-5.09,7.92-7.95,11.65a32.62,32.62,0,0,1-4.29,4.73,4.05,4.05,0,0,1-1.8,1c-.45.06-.67-.38-.93-.63-5.18-5.58-10.47-11.06-15.3-16.94a60.85,60.85,0,0,1-5.14-7.06,12.29,12.29,0,0,1-1.58-3.65c.41-.55.81-1.12,1.22-1.67l.75-1q31.11-43,62.11-86.07c2.17-.79,3.83-2.56,5.92-3.57Z"/><path class="cls-3" d="M84.09,321.33a90.67,90.67,0,0,1,9.74-.34,14.72,14.72,0,0,1,5.81,1.37,72.84,72.84,0,0,1,10,5.18,31.82,31.82,0,0,1,4.63,3.25c5.33,4.62,10.53,9.43,15.76,14.2,8.22,7.59,16.48,15.13,24.61,22.8a37.92,37.92,0,0,0-9.09,4.55,10.67,10.67,0,0,0-4.4,6.9c-.57,3.45.32,6.94,1.46,10.18a20.59,20.59,0,0,0,2.5,5.4,28.1,28.1,0,0,0,6.22,5.9A54.06,54.06,0,0,0,162.68,407a31.48,31.48,0,0,0,7.24,2.11c4.77.49,9.56.63,14.32.9,19.3.79,38.62,1.31,57.93,1.82,8.26.2,16.5.43,24.76.59,4.3.16,8.62.12,12.92.35,0-.41,0-.82,0-1.22-14.95-.35-29.89-.69-44.84-1.1-19.36-.55-38.71-1-58.05-2-2.64-.2-5.29-.24-7.91-.69a41.68,41.68,0,0,1-9.76-3.57,46.47,46.47,0,0,1-10.41-6.92,16.17,16.17,0,0,1-4.08-5.29,34.1,34.1,0,0,1-2.66-9.52,10,10,0,0,1,1.65-6.65,15.16,15.16,0,0,1,5.62-4.41A71.22,71.22,0,0,1,164.36,366a68.58,68.58,0,0,1,15.6-2.21c3,0,6-.19,9-.19,3.72,1.51,7.79,1.73,11.75,1.91,2.29,0,4.56,0,6.86-.12a238.6,238.6,0,0,0,35.67.06,140.25,140.25,0,0,0,27.53-4.67,77.38,77.38,0,0,0,10.63-3.89c10.69-4.71,21.35-9.54,32.26-13.72a133.68,133.68,0,0,1,27.45-7.32,158.88,158.88,0,0,1,33.75-1.75c14.08.86,28.2,3.88,40.84,10.25a121.05,121.05,0,0,1,11.79,7,221.24,221.24,0,0,1,20.57,14.67,77.14,77.14,0,0,1,7.85,7.49q-29.26,40.65-58.63,81.3A236.93,236.93,0,0,0,371,447.55a49.15,49.15,0,0,0-10.67-1.19,29.92,29.92,0,0,0-5.54,1.05c-9.29,2.35-18.52,4.95-27.74,7.53-18.4,5.17-36.76,10.47-55.16,15.66-4.47,1.24-8.93,2.52-13.44,3.65-5.68,1.3-11.5,2.32-17.34,1.91a20.62,20.62,0,0,1-9.66-2.9c-4.61-2.88-9.07-6-13.53-9.09-13.4-9.35-26.6-18.95-39.73-28.67-7.27-5.4-14.51-10.81-21.67-16.35-6-4.63-11.95-9.23-17.65-14.19a84.86,84.86,0,0,1-8.81-9.37c-8.22-9.72-16.11-19.68-23.88-29.72C100.85,359,95.62,352,90.53,345c-3.25-4.55-6.5-9.11-9.38-13.92A19.15,19.15,0,0,1,79,326.5a16,16,0,0,1,5.09-5.17Z"/><path class="cls-3" d="M132.34,313.9a14.1,14.1,0,0,1,5.3.37c1.52.38,2.68,1.54,3.87,2.49,5.89,5,11.43,10.37,17,15.69,4.14,3.89,8.19,7.89,12.44,11.67a73.43,73.43,0,0,1,8.15,8.11c3,3.35,5.87,6.76,8.73,10.21-2.48,0-5,.18-7.41.06-6.27-6.29-12.64-12.48-18.91-18.75-8.44-8.52-16.88-17-25.22-25.65-1.32-1.4-2.68-2.76-4-4.2Z"/><path class="cls-3" d="M108.89,308.73a23.09,23.09,0,0,1,7.2-2.05,7.35,7.35,0,0,1,3.67.83,70.47,70.47,0,0,1,9.64,5.56,10.78,10.78,0,0,1,1.5,1.08c4.57,4.85,9.23,9.57,13.88,14.32,6.33,6.41,12.66,12.85,19,19.24,5,5,10.09,9.92,15.08,14.93a66.51,66.51,0,0,0-10.61,1.26c-2.48-2-4.75-4.3-7.12-6.45-10.8-10.17-21.49-20.42-32.29-30.56-5.05-4.77-10.14-9.52-15.31-14.16-1.55-1.38-3.07-2.74-4.67-4Z"/><path class="cls-3" d="M84.72,306.42A7.81,7.81,0,0,1,90,304.31a24.25,24.25,0,0,1,6.29.83,67,67,0,0,1,10.49,3.69,12.37,12.37,0,0,1,2.84,2.05c5.46,4.69,10.69,9.64,16,14.55,11.14,10.45,22.15,21,33.27,31.51,2.62,2.45,5.22,4.93,7.9,7.3a87.75,87.75,0,0,0-10.9,3.07q-15.71-14.7-31.59-29.18c-3.07-2.78-6.13-5.58-9.27-8.28a42.6,42.6,0,0,0-6.23-4.22A67.53,67.53,0,0,0,99.43,321,18,18,0,0,0,95,319.85c-3.51-.1-7,0-10.51.26-.43-2.66-.83-5.33-1.26-8a6.45,6.45,0,0,1,1.54-5.7Z"/><path class="cls-4" d="M89.72,303.13h1.46c5.78.45,11.28,2.52,16.55,4.81a25.74,25.74,0,0,1,8.36-2.46,9.67,9.67,0,0,1,4.89,1.26,82.5,82.5,0,0,1,10.31,6.15,14.61,14.61,0,0,1,7.73.59,20.88,20.88,0,0,1,3.81,2.8c9.42,8.15,18.18,17,27.33,25.46,1.63,1.52,3.41,2.86,5,4.45,5.08,5.15,9.68,10.73,14.31,16.25a14.29,14.29,0,0,0,4,1.15,65.58,65.58,0,0,0,14.28.57c4.83.39,9.7.61,14.55.69,1.7-.12,3.41.14,5.11,0a181.18,181.18,0,0,0,32.48-2.78,101.27,101.27,0,0,0,15.06-3.91c3.1-1.06,6.09-2.46,9.09-3.78,10.06-4.42,20.09-8.95,30.37-12.8a134.31,134.31,0,0,1,28-7.16,157.3,157.3,0,0,1,34.15-1.4c14.49,1,29,4.42,41.82,11.36,3.75,2,7.28,4.4,10.87,6.69a203.49,203.49,0,0,1,20.47,14.8,84.93,84.93,0,0,1,6.9,6.65c.55-.73-.54.73,0,0,1.93,1.38,5.46,1.69,7.37,2a17.84,17.84,0,0,1,5.42-3.06,10.31,10.31,0,0,1,6.93.75c3,1.4,6.09,2.47,9.16,3.61,1.05.42,2.29,1,2.61,2.23v1.2a28.29,28.29,0,0,1-2.27,5.58c-7.67,15.76-15.68,31.36-23.88,46.87C454,446.46,446,461.21,437.18,475.49A148.83,148.83,0,0,1,427,490.32a23.19,23.19,0,0,1-3.69,3.72,3.64,3.64,0,0,1-2.52.87c-.69-.1-1.11-.71-1.56-1.18-5.8-6.25-11.75-12.37-17-19.09a32.5,32.5,0,0,1-4.89-7.93c-1.08,1.5,1.09-1.49,0,0q-2.83-2.13-5.66-4.2c2.72-3.7,2.13-3,4.87-6.68a228.17,228.17,0,0,0-27.21-7.45,40.23,40.23,0,0,0-9.66-.87,60.78,60.78,0,0,0-6.23,1.38c-8.87,2.27-17.67,4.77-26.48,7.22-19.43,5.46-38.85,11.08-58.29,16.54-4.69,1.28-9.37,2.7-14.16,3.57a49,49,0,0,1-15.32.87,20.21,20.21,0,0,1-8.24-2.78c-5.25-3.26-10.33-6.85-15.4-10.38q-19.23-13.51-38.1-27.54-10.56-7.81-21-15.8c-6.21-4.81-12.44-9.6-18.36-14.73a88.55,88.55,0,0,1-9.19-9.78c-7.8-9.21-15.3-18.67-22.69-28.18-5.38-7-10.69-14-15.85-21.11-2.63-3.65-5.23-7.32-7.71-11.07a70.31,70.31,0,0,1-4-6.82,8,8,0,0,1-.77-2.15v-.53a16.2,16.2,0,0,1,5.43-5.76c-.42-2.76-.87-5.54-1.3-8.3a7.56,7.56,0,0,1,1.93-6.55,8.47,8.47,0,0,1,5.79-2.48m-5,3.29a6.53,6.53,0,0,0-1.58,5.68c.43,2.66.83,5.33,1.26,8,3.49-.24,7-.36,10.51-.26A17.81,17.81,0,0,1,99.39,321a66.44,66.44,0,0,1,9.34,4.62,41.56,41.56,0,0,1,6.23,4.22c3.14,2.7,6.2,5.5,9.27,8.28q15.88,14.49,31.59,29.18a91.72,91.72,0,0,1,10.89-3.07c-2.67-2.37-5.29-4.85-7.89-7.3-11.12-10.49-22.13-21.06-33.27-31.51-5.28-4.91-10.49-9.86-16-14.55a13,13,0,0,0-2.84-2.05,68.35,68.35,0,0,0-10.49-3.69,25.26,25.26,0,0,0-6.29-.83,7.8,7.8,0,0,0-5.24,2.13m24.17,2.31c1.6,1.26,3.12,2.62,4.65,4,5.17,4.64,10.24,9.39,15.31,14.16,10.8,10.14,21.49,20.41,32.28,30.56,2.36,2.17,4.65,4.44,7.13,6.45a66.51,66.51,0,0,1,10.61-1.26c-5-5-10.05-10-15.08-14.93-6.37-6.37-12.7-12.81-19-19.24-4.65-4.77-9.31-9.49-13.88-14.32a10.78,10.78,0,0,0-1.5-1.08,70.47,70.47,0,0,0-9.64-5.56,7.35,7.35,0,0,0-3.67-.83,23.72,23.72,0,0,0-7.18,2.07m23.45,5.17c1.28,1.44,2.66,2.8,4,4.2,8.34,8.63,16.78,17.15,25.22,25.65,6.27,6.29,12.64,12.48,18.91,18.75,2.46.12,4.93-.1,7.41-.06q-4.26-5.18-8.73-10.21a67.85,67.85,0,0,0-8.15-8.11c-4.25-3.78-8.3-7.78-12.44-11.67-5.6-5.3-11.14-10.69-17-15.69-1.21-.93-2.35-2.11-3.87-2.49a14.49,14.49,0,0,0-5.3-.37m-48.25,7.43A17.3,17.3,0,0,0,79,326.46,19.15,19.15,0,0,0,81.11,331c2.88,4.79,6.13,9.35,9.38,13.92,5.07,7.06,10.32,14,15.64,20.9,7.77,10.06,15.68,20,23.88,29.72a86.8,86.8,0,0,0,8.81,9.37c5.7,4.95,11.66,9.58,17.65,14.19q10.74,8.28,21.67,16.35c13.13,9.72,26.33,19.32,39.72,28.67,4.47,3.08,8.93,6.21,13.54,9.09a20.4,20.4,0,0,0,9.66,2.9c5.84.39,11.66-.61,17.34-1.91,4.51-1.13,9-2.41,13.44-3.65,18.4-5.19,36.76-10.49,55.16-15.66,9.24-2.58,18.45-5.2,27.74-7.53a32.63,32.63,0,0,1,5.54-1.06,49.79,49.79,0,0,1,10.67,1.2,236.93,236.93,0,0,1,26.28,7.33q29.37-40.63,58.63-81.3a77.14,77.14,0,0,0-7.85-7.49,216.8,216.8,0,0,0-20.57-14.67,123.48,123.48,0,0,0-11.79-7C403,338,388.87,335,374.81,334.09a157.58,157.58,0,0,0-33.75,1.75,134,134,0,0,0-27.45,7.32c-10.91,4.18-21.57,9-32.26,13.72a78.09,78.09,0,0,1-10.63,3.89,140.25,140.25,0,0,1-27.53,4.67,238.6,238.6,0,0,1-35.67-.06c-2.28.16-4.57.12-6.86.12-4-.18-8-.4-11.75-1.91-3,0-6,.15-9,.19a69.71,69.71,0,0,0-15.6,2.21,71,71,0,0,0-14.93,5.33,15,15,0,0,0-5.62,4.41,10.24,10.24,0,0,0-1.65,6.65,33.25,33.25,0,0,0,2.66,9.52,15.71,15.71,0,0,0,4.08,5.29,46.69,46.69,0,0,0,10.41,6.92,42,42,0,0,0,9.76,3.57c2.61.45,5.27.49,7.91.69,19.34,1,38.69,1.44,58.05,2q22.42.58,44.84,1.1c0,.4,0,.81,0,1.21-4.3-.22-8.62-.18-12.93-.34-8.25-.16-16.49-.39-24.75-.59-19.31-.51-38.61-1-57.93-1.82-4.78-.25-9.57-.39-14.32-.9a31.77,31.77,0,0,1-7.24-2.11,54.72,54.72,0,0,1-11.35-6.23,28.1,28.1,0,0,1-6.22-5.9,20.89,20.89,0,0,1-2.5-5.4c-1.14-3.24-2-6.73-1.46-10.18a10.56,10.56,0,0,1,4.4-6.9,38.3,38.3,0,0,1,9.09-4.55c-8.13-7.67-16.39-15.23-24.61-22.8-5.21-4.77-10.41-9.58-15.77-14.21a32.45,32.45,0,0,0-4.62-3.24,70.65,70.65,0,0,0-10-5.18,15.56,15.56,0,0,0-5.81-1.38c-3.2,0-6.47.09-9.7.39m384.17,51.78c-2.09,1-3.75,2.78-6,3.59q-31.05,43-62.11,86.07a.85.85,0,0,1-.75,1c-.41.55-.81,1.12-1.22,1.67a11.86,11.86,0,0,0,1.58,3.65,63.29,63.29,0,0,0,5.14,7.06c4.83,5.89,10.12,11.36,15.29,16.94.27.25.49.69.94.63a4.26,4.26,0,0,0,1.8-1,32,32,0,0,0,4.28-4.73c2.87-3.73,5.44-7.67,8-11.65,4.32-6.87,8.38-13.91,12.38-21q6.87-12.28,13.47-24.75c7.95-15.07,15.74-30.25,23.21-45.57.79-1.7,1.68-3.35,2.33-5.11.16-.63.51-1.38.1-2a5.18,5.18,0,0,0-2.05-1.18c-2.11-.79-4.26-1.52-6.33-2.39a22.64,22.64,0,0,0-5.45-2,7.44,7.44,0,0,0-4.61.69Z"/><g id="Wappen"><path class="cls-1" d="M401.25,26.54V166.82c0,86.26-63.17,157.24-141.53,172.54-78.34-15.3-141.53-86.28-141.53-172.54V26.54Z"/><path class="cls-2" d="M393.24,34V166.8a167.78,167.78,0,0,1-39.49,107.72c-24.49,29.13-57.82,49.17-94,56.61-36.17-7.44-69.52-27.48-94-56.61a167.74,167.74,0,0,1-39.5-107.72V34Z"/><path class="cls-1" d="M384.84,41.67V166.82a159.43,159.43,0,0,1-37.53,102.33c-22.84,27.16-53.89,46.05-87.59,53.39C226,315.2,195,296.31,172.12,269.15a159.43,159.43,0,0,1-37.53-102.33V41.67Z"/><polygon class="cls-2" points="165.35 128.37 259.72 167.53 165.35 206.56 204.49 167.47 165.35 128.37"/><polygon class="cls-2" points="220.58 261.92 259.72 167.53 298.77 261.92 259.65 222.78 220.58 261.92"/><polygon class="cls-2" points="354.11 206.67 259.72 167.53 354.11 128.47 314.97 167.61 354.11 206.67"/><polygon class="cls-2" points="298.88 73.14 259.72 167.53 220.68 73.14 259.8 112.28 298.88 73.14"/></g></svg>
