<svg width="100" height="100" viewBox="0 0 100 100" fill="none" xmlns="http://www.w3.org/2000/svg">
<g clip-path="url(#clip0_2076_88)">
<path d="M99.9833 14.1776V85.819C99.9833 93.6377 93.6377 99.9833 85.8057 99.9833H14.1643C6.34561 99.9833 0 93.6377 0 85.819V14.1776C0 6.34561 6.34561 0 14.1643 0H85.8057C93.6377 0 99.9833 6.34561 99.9833 14.1776Z" fill="#FBDA16"/>
<path opacity="0.5" d="M100 55.914V85.8224C100 93.6411 93.6544 99.9867 85.8224 99.9867H51.9414L29.6017 76.6172C27.8254 75.2741 26.2223 73.741 24.7192 72.1013C23.4694 70.7415 22.3963 69.2318 21.4164 67.6587C20.4533 66.109 19.6034 64.5026 18.9135 62.8162C18.1303 60.8999 17.4938 58.9368 17.0872 56.9005C16.9605 56.2673 16.8672 55.6274 16.7739 54.9908V54.9842C16.7072 54.5176 16.6439 54.051 16.5706 53.5844C16.4373 52.7079 16.3839 51.8347 16.3639 50.9582V50.9515C16.3473 50.1916 16.3573 49.4318 16.3639 48.6719C16.3773 47.2921 16.5872 45.919 16.8139 44.5592C16.9139 43.9527 17.0305 43.3494 17.1671 42.7529C17.6104 40.7432 18.2303 38.7902 19.0502 36.8972C19.5801 35.6674 20.2166 34.4876 20.8699 33.3144C21.5198 32.1513 22.2696 31.0615 23.0695 30.0083C23.5561 29.3684 24.0593 28.7419 24.5659 28.1153C25.0158 27.5654 25.5491 27.0855 26.0457 26.5756C26.4056 26.209 26.7689 25.839 27.1388 25.4824C27.6254 25.0125 28.1253 24.5592 28.6619 24.1493C29.975 23.1495 31.2815 22.1363 32.7379 21.3298C33.5544 20.8799 34.3509 20.3966 35.1908 20C36.5239 19.3634 37.8904 18.8002 39.2935 18.3303C39.4734 18.2703 39.6501 18.2136 39.83 18.1603C40.7366 17.877 41.6531 17.6437 42.5762 17.4371C43.4661 17.2371 44.3693 17.0938 45.2725 16.9672C45.5358 16.9338 45.7957 16.8972 46.059 16.8639C47.6654 16.6539 49.2818 16.6472 50.8982 16.6939C53.0945 16.7605 55.2575 17.0705 57.3904 17.5937C57.4738 17.6171 57.5937 17.6137 57.6471 17.6804L64.3593 24.6959C65.0125 24.5292 65.6924 24.4393 66.3923 24.4393C69.1152 24.4359 71.5181 25.7157 73.0312 27.722H73.0378L98.4503 54.3043L98.5503 54.4109H98.5603L100 55.914Z" fill="url(#paint0_linear_2076_88)"/>
<path d="M74.7042 32.8179C74.6942 37.2438 70.9948 41.0498 66.3923 41.0198C61.9397 41.0298 58.1503 37.3571 58.1403 32.7679C58.1303 28.122 61.8797 24.4459 66.3756 24.4359C71.0115 24.4293 74.7142 28.1486 74.7009 32.8179H74.7042Z" fill="white"/>
<path d="M83.0195 50.6982C83.0028 52.6612 82.7829 54.5976 82.3996 56.5239C81.973 58.6636 81.3231 60.7299 80.5099 62.7562C79.98 64.0793 79.3334 65.3458 78.6336 66.5822C77.6837 68.262 76.5839 69.8417 75.3241 71.3115C74.4976 72.278 73.6644 73.2411 72.7345 74.111C71.3481 75.4074 69.885 76.6139 68.3019 77.6804C66.6256 78.8069 64.8658 79.77 63.0262 80.5866C61.1331 81.4231 59.1768 82.0763 57.1505 82.5196C56.1473 82.7395 55.1341 82.8762 54.1276 83.0562C52.198 83.3994 50.2583 83.3928 48.3153 83.3494C46.4689 83.3061 44.6359 83.0495 42.8262 82.6729C40.2633 82.1396 37.7837 81.2931 35.4208 80.1566C33.761 79.3568 32.1713 78.4236 30.6415 77.3771C28.4386 75.864 26.4989 74.0543 24.7059 72.098C23.4561 70.7382 22.3796 69.2285 21.4031 67.6554C20.4399 66.1056 19.5867 64.4992 18.8968 62.8162C18.1136 60.8998 17.4804 58.9368 17.0705 56.9005C16.8538 55.7974 16.7272 54.6876 16.5572 53.5811C16.3039 51.948 16.3339 50.3083 16.3506 48.6719C16.3639 47.2888 16.5706 45.9157 16.7972 44.5559C17.2404 41.9163 17.9737 39.3534 19.0335 36.8938C19.5634 35.6641 20.2 34.4843 20.8532 33.3144C21.8963 31.4381 23.2061 29.765 24.5492 28.112C24.5892 28.062 24.6325 28.012 24.6759 27.9653C25.0958 27.4754 25.5791 27.0355 26.0323 26.5722C26.8388 25.749 27.6487 24.9192 28.5619 24.216C26.6255 27.5454 27.1021 31.8714 29.9983 34.7142C30.7782 35.4808 31.6714 36.074 32.6246 36.4939C32.058 37.2071 31.5347 37.957 31.0615 38.7369C30.5916 39.5067 30.1716 40.3066 29.795 41.1398C28.8685 43.1928 28.3086 45.3491 28.0453 47.5687C27.812 49.5851 27.862 51.6047 28.222 53.6211C28.5886 55.6407 29.1551 57.5871 30.045 59.4368C31.2215 61.8797 32.8045 64.036 34.7709 65.8924C35.924 66.9788 37.1871 67.9287 38.5702 68.7385C39.8167 69.4651 41.1031 70.095 42.4529 70.5782C43.3761 70.9115 44.3359 71.1448 45.3024 71.3514C47.0721 71.728 48.8552 71.818 50.6515 71.7714C52.3279 71.7314 53.9643 71.4181 55.5807 70.9882C57.1538 70.5716 58.6402 69.9483 60.06 69.1818C61.3198 68.4953 62.5129 67.6987 63.6127 66.7622C65.2058 65.4091 66.6122 63.8894 67.782 62.1596C67.862 62.0363 68.012 61.9263 67.9087 61.7597C67.812 61.6097 67.6387 61.6564 67.4921 61.6564C66.2989 61.6531 65.1058 61.6531 63.916 61.6531C59.3934 61.6531 54.8708 61.6564 50.3483 61.6531C49.935 61.6531 49.7284 61.4486 49.7284 61.0398V50.6416C49.7284 50.075 49.735 50.0683 50.3049 50.0683H82.3696C83.0195 50.0683 83.0228 50.0717 83.0195 50.6982Z" fill="white"/>
<path d="M74.7042 32.8179C74.6942 37.2438 70.9948 41.0498 66.3923 41.0198C61.9397 41.0298 58.1503 37.3571 58.1403 32.7679C58.1303 28.122 61.8797 24.4459 66.3756 24.4359C71.0115 24.4293 74.7142 28.1486 74.7009 32.8179H74.7042Z" fill="black"/>
<path d="M83.0195 50.6982C83.0028 52.6612 82.7829 54.5976 82.3996 56.5239C81.973 58.6636 81.3231 60.7299 80.5099 62.7562C79.98 64.0793 79.3334 65.3458 78.6336 66.5822C77.6837 68.262 76.5839 69.8417 75.3241 71.3115C74.4976 72.278 73.6644 73.2411 72.7345 74.111C71.3481 75.4074 69.885 76.6139 68.3019 77.6804C66.6256 78.8069 64.8658 79.77 63.0262 80.5866C61.1331 81.4231 59.1768 82.0763 57.1505 82.5196C56.1473 82.7395 55.1341 82.8762 54.1276 83.0562C52.198 83.3994 50.2583 83.3928 48.3153 83.3494C46.4689 83.3061 44.6359 83.0495 42.8262 82.6729C40.2633 82.1396 37.7837 81.2931 35.4208 80.1566C33.761 79.3568 32.1713 78.4236 30.6415 77.3771C28.4386 75.864 26.4989 74.0543 24.7059 72.098C23.4561 70.7382 22.3796 69.2285 21.4031 67.6554C20.4399 66.1056 19.5867 64.4992 18.8968 62.8162C18.1136 60.8998 17.4804 58.9368 17.0705 56.9005C16.8538 55.7974 16.7272 54.6876 16.5572 53.5811C16.3039 51.948 16.3339 50.3083 16.3506 48.6719C16.3639 47.2888 16.5706 45.9157 16.7972 44.5559C17.2404 41.9163 17.9737 39.3534 19.0335 36.8938C19.5634 35.6641 20.2 34.4843 20.8532 33.3144C21.8963 31.4381 23.2061 29.765 24.5492 28.112C24.5892 28.062 24.6325 28.012 24.6759 27.9653C25.0958 27.4754 25.5791 27.0355 26.0323 26.5722C26.8388 25.749 27.6487 24.9192 28.5619 24.216C26.6255 27.5454 27.1021 31.8714 29.9983 34.7142C30.7782 35.4808 31.6714 36.074 32.6246 36.4939C32.058 37.2071 31.5347 37.957 31.0615 38.7369C30.5916 39.5067 30.1716 40.3066 29.795 41.1398C28.8685 43.1928 28.3086 45.3491 28.0453 47.5687C27.812 49.5851 27.862 51.6047 28.222 53.6211C28.5886 55.6407 29.1551 57.5871 30.045 59.4368C31.2215 61.8797 32.8045 64.036 34.7709 65.8924C35.924 66.9788 37.1871 67.9287 38.5702 68.7385C39.8167 69.4651 41.1031 70.095 42.4529 70.5782C43.3761 70.9115 44.3359 71.1448 45.3024 71.3514C47.0721 71.728 48.8552 71.818 50.6515 71.7714C52.3279 71.7314 53.9643 71.4181 55.5807 70.9882C57.1538 70.5716 58.6402 69.9483 60.06 69.1818C61.3198 68.4953 62.5129 67.6987 63.6127 66.7622C65.2058 65.4091 66.6122 63.8894 67.782 62.1596C67.862 62.0363 68.012 61.9263 67.9087 61.7597C67.812 61.6097 67.6387 61.6564 67.4921 61.6564C66.2989 61.6531 65.1058 61.6531 63.916 61.6531C59.3934 61.6531 54.8708 61.6564 50.3483 61.6531C49.935 61.6531 49.7284 61.4486 49.7284 61.0398V50.6416C49.7284 50.075 49.735 50.0683 50.3049 50.0683H82.3696C83.0195 50.0683 83.0228 50.0717 83.0195 50.6982Z" fill="black"/>
<path d="M57.6604 17.767C57.6604 17.897 57.5037 17.937 57.3971 17.997C55.9607 18.8035 54.7375 19.8667 53.6377 21.0798C52.7445 22.0663 51.9513 23.1228 51.3214 24.2993C50.7382 25.3891 50.205 26.4989 49.895 27.692C49.7784 28.1353 49.5617 28.272 49.1151 28.2786C48.7119 28.2853 48.3086 28.3053 47.912 28.3319C46.9855 28.4019 46.0756 28.5286 45.1791 28.7185C43.2628 29.1118 41.4131 29.7817 39.6267 30.7115C37.5037 31.8147 35.6174 33.2245 33.9743 34.9475C33.5011 35.4441 33.0512 35.9607 32.6246 36.4939C31.6714 36.074 30.7782 35.4808 29.9983 34.7142C27.1021 31.8714 26.6256 27.5454 28.5619 24.216C28.5886 24.1926 28.6186 24.1693 28.6452 24.1493C29.9583 23.1461 31.2681 22.133 32.7245 21.3264C33.5377 20.8799 34.3343 20.3933 35.1741 19.9967C35.2808 19.9467 35.3908 19.8933 35.4974 19.8467C36.7272 19.2735 37.987 18.7602 39.2768 18.3269C39.7067 18.1836 40.14 18.0503 40.5766 17.9303C41.2331 17.7437 41.8963 17.5837 42.5596 17.4338C43.706 17.1738 44.8758 17.0138 46.0423 16.8605C47.6487 16.6506 49.2651 16.6439 50.8815 16.6905C53.0778 16.7572 55.2408 17.0672 57.3771 17.5937C57.4871 17.6204 57.6637 17.6071 57.6604 17.767Z" fill="white"/>
<path d="M83.0195 50.6982C83.0028 52.6612 82.7829 54.5976 82.3996 56.5239C81.973 58.6636 81.3231 60.7299 80.5099 62.7562C79.98 64.0793 79.3334 65.3458 78.6336 66.5822C77.6837 68.262 76.5839 69.8417 75.3241 71.3115C74.4976 72.278 73.6644 73.2411 72.7345 74.111C71.3481 75.4074 69.885 76.6139 68.3019 77.6804C66.6256 78.8069 64.8658 79.77 63.0262 80.5866C61.1331 81.4231 59.1768 82.0763 57.1505 82.5196C56.1473 82.7395 55.1341 82.8762 54.1276 83.0562C52.198 83.3994 50.2583 83.3928 48.3153 83.3494C46.4689 83.3061 44.6359 83.0495 42.8262 82.6729C40.2633 82.1396 37.7837 81.2931 35.4208 80.1566C33.761 79.3568 32.1713 78.4236 30.6415 77.3771C28.4386 75.864 26.4989 74.0543 24.7059 72.098C23.4561 70.7382 22.3796 69.2285 21.4031 67.6554C20.4399 66.1056 19.5867 64.4992 18.8968 62.8162C18.1136 60.8998 17.4804 58.9368 17.0705 56.9005C16.8538 55.7974 16.7272 54.6876 16.5572 53.5811C16.3039 51.948 16.3339 50.3083 16.3506 48.6719C16.3639 47.2888 16.5706 45.9157 16.7972 44.5559C17.2404 41.9163 17.9737 39.3534 19.0335 36.8938C19.5634 35.6641 20.2 34.4843 20.8532 33.3144C21.8963 31.4381 23.2061 29.765 24.5492 28.112C24.5892 28.062 24.6325 28.012 24.6759 27.9653C25.0958 27.4754 25.5791 27.0355 26.0323 26.5722C26.8388 25.749 27.6487 24.9192 28.5619 24.216C26.6255 27.5454 27.1021 31.8714 29.9983 34.7142C30.7782 35.4808 31.6714 36.074 32.6246 36.4939C32.058 37.2071 31.5347 37.957 31.0615 38.7369C30.5916 39.5067 30.1716 40.3066 29.795 41.1398C28.8685 43.1928 28.3086 45.3491 28.0453 47.5687C27.812 49.5851 27.862 51.6047 28.222 53.6211C28.5886 55.6407 29.1551 57.5871 30.045 59.4368C31.2215 61.8797 32.8045 64.036 34.7709 65.8924C35.924 66.9788 37.1871 67.9287 38.5702 68.7385C39.8167 69.4651 41.1031 70.095 42.4529 70.5782C43.3761 70.9115 44.3359 71.1448 45.3024 71.3514C47.0721 71.728 48.8552 71.818 50.6515 71.7714C52.3279 71.7314 53.9643 71.4181 55.5807 70.9882C57.1538 70.5716 58.6402 69.9483 60.06 69.1818C61.3198 68.4953 62.5129 67.6987 63.6127 66.7622C65.2058 65.4091 66.6122 63.8894 67.782 62.1596C67.862 62.0363 68.012 61.9263 67.9087 61.7597C67.812 61.6097 67.6387 61.6564 67.4921 61.6564C66.2989 61.6531 65.1058 61.6531 63.916 61.6531C59.3934 61.6531 54.8708 61.6564 50.3483 61.6531C49.935 61.6531 49.7284 61.4486 49.7284 61.0398V50.6416C49.7284 50.075 49.735 50.0683 50.3049 50.0683H82.3696C83.0195 50.0683 83.0228 50.0717 83.0195 50.6982Z" fill="white"/>
<path d="M74.7042 32.8179C74.6942 37.2438 70.9948 41.0498 66.3923 41.0198C61.9397 41.0298 58.1503 37.3571 58.1403 32.7679C58.1303 28.122 61.8797 24.4459 66.3756 24.4359C71.0115 24.4293 74.7142 28.1486 74.7009 32.8179H74.7042Z" fill="white"/>
<path d="M44.5159 36.6139C46.8389 34.3343 47.972 31.3248 47.912 28.3319C46.9855 28.4019 46.0757 28.5286 45.1791 28.7185C45.1358 30.8949 44.2693 33.0578 42.5796 34.7142C39.8934 37.3504 35.9007 37.9437 32.6246 36.4939C31.6714 36.074 30.7782 35.4808 29.9983 34.7142C27.1022 31.8714 26.6256 27.5454 28.5619 24.216C28.9452 23.5527 29.4251 22.9295 29.9983 22.3663C31.5314 20.8599 33.4878 20.02 35.4974 19.8467C36.7272 19.2735 37.987 18.7602 39.2768 18.3269C39.7067 18.1836 40.14 18.0503 40.5766 17.9303C36.3939 16.304 31.4381 17.1505 28.062 20.4666C25.9423 22.5462 24.8125 25.2358 24.6759 27.9653C24.5159 31.0782 25.6457 34.241 28.062 36.6139C28.9652 37.4971 29.9783 38.207 31.0615 38.7369C32.2813 39.3435 33.5911 39.7201 34.9209 39.8734V43.6961H32.1846C31.4281 43.6961 30.8149 44.2993 30.8149 45.0392C30.8149 45.779 31.4281 46.3823 32.1846 46.3823H34.9209V50.1683C34.9209 50.9082 35.5341 51.5114 36.2906 51.5114C37.0472 51.5114 37.6571 50.9082 37.6571 50.1683V46.3823H40.3966C41.1531 46.3823 41.763 45.7824 41.763 45.0392C41.763 44.296 41.1531 43.6961 40.3966 43.6961H37.6571V39.8734C40.1666 39.5834 42.5962 38.4969 44.5159 36.6139Z" fill="#64666C"/>
</g>
<defs>
<linearGradient id="paint0_linear_2076_88" x1="16.3539" y1="58.3303" x2="100" y2="58.3303" gradientUnits="userSpaceOnUse">
<stop stop-color="#CE810F"/>
<stop offset="0.41" stop-color="#CF8511" stop-opacity="0.59"/>
<stop offset="0.74" stop-color="#D18F08" stop-opacity="0.26"/>
<stop offset="1" stop-color="#D49D05" stop-opacity="0"/>
</linearGradient>
<clipPath id="clip0_2076_88">
<rect width="100" height="99.9867" fill="white"/>
</clipPath>
</defs>
</svg>
