<svg id="Ebene_1" data-name="Ebene 1" xmlns="http://www.w3.org/2000/svg" viewBox="0 0 239 205"><defs><style>.cls-1{fill:#fbda16;}.cls-2,.cls-3,.cls-4,.cls-5,.cls-6{fill:none;stroke:#fbda16;}.cls-2,.cls-4,.cls-6{stroke-linecap:round;stroke-linejoin:round;}.cls-2,.cls-3{stroke-width:3.11px;}.cls-3,.cls-5{stroke-miterlimit:10;}.cls-4{stroke-width:2.07px;}.cls-5{stroke-width:2.84px;}.cls-6{stroke-width:3.32px;}.cls-7{fill:#fff;}</style></defs><path class="cls-1" d="M95.72,35.8A29.68,29.68,0,1,0,54.49,63.15c.21.09,11.44,17,11.44,17L76.73,63.5A29.71,29.71,0,0,0,95.72,35.8Z"/><path class="cls-2" d="M194.81,61.4A18.51,18.51,0,1,0,169.1,78.45c.13.06,7.14,10.61,7.14,10.61L183,78.67A18.51,18.51,0,0,0,194.81,61.4Z"/><rect class="cls-3" x="91.62" y="102.94" width="53.84" height="93.18"/><rect class="cls-3" x="61.25" y="138.14" width="28.99" height="57.98"/><rect class="cls-2" x="101.98" y="93.62" width="33.13" height="8.28"/><line class="cls-4" x1="119.23" y1="76.02" x2="119.23" y2="92.59"/><rect class="cls-3" x="109.91" y="178.52" width="15.53" height="17.6"/><rect class="cls-5" x="67.46" y="145.39" width="5.18" height="8.28"/><rect class="cls-5" x="67.46" y="159.88" width="5.18" height="8.28"/><rect class="cls-5" x="67.46" y="174.38" width="5.18" height="8.28"/><rect class="cls-5" x="78.85" y="145.39" width="5.18" height="8.28"/><rect class="cls-5" x="78.85" y="159.88" width="5.18" height="8.28"/><rect class="cls-5" x="78.85" y="174.38" width="5.18" height="8.28"/><path class="cls-2" d="M193.88,146a6.62,6.62,0,0,1-.1-1.67c.25-3.66,4.14-10.35,10.35-10.35,0,0,6.21-12.42,14.5,0,0,0,13,2.07,6.21,12.42,0,0,8.28,5.11,8.28,12.43,0,4.14-2.07,12.42-14.49,12.42H205.17"/><line class="cls-2" x1="212.12" y1="144.35" x2="212.12" y2="183.7"/><polyline class="cls-2" points="205.44 147.46 212.12 152.98 219.45 147.46"/><polyline class="cls-2" points="206.2 159.88 212.12 164.02 219.45 159.88"/><path class="cls-6" d="M17,147.76s4.61-9.22,10.76,0c0,0,9.64,1.54,4.61,9.22,0,0,6.14,3.78,6.14,9.22,0,3.07-1.53,9.22-10.75,9.22H12.35c-4.6,0-10.75-7.69,0-13.83,0,0-3.29-2.94-3.07-6.15C9.47,152.72,12.35,147.76,17,147.76Z"/><line class="cls-2" x1="21.82" y1="154.31" x2="21.82" y2="181.63"/><polyline class="cls-2" points="17.19 156.47 21.82 160.31 26.91 156.47"/><polyline class="cls-2" points="17.72 165.1 21.82 167.97 26.91 165.1"/><rect class="cls-1" x="104.56" y="114.33" width="9.32" height="11.39"/><rect class="cls-1" x="123.2" y="114.33" width="9.32" height="11.39"/><rect class="cls-1" x="104.56" y="130.89" width="9.32" height="11.39"/><rect class="cls-1" x="123.2" y="130.89" width="9.32" height="11.39"/><path class="cls-3" d="M175.14,145.39s6.21-12.42,14.5,0c0,0,13,2.07,6.21,12.42,0,0,8.28,5.11,8.28,12.43,0,4.14-2.07,12.42-14.49,12.42H168.93c-6.21,0-12.42-10.35,2.07-18.63,0,0-6.51-4-6.21-8.29C165,152.07,168.93,145.39,175.14,145.39Z"/><line class="cls-2" x1="183.13" y1="152.63" x2="183.13" y2="191.98"/><polyline class="cls-2" points="176.45 155.74 183.13 161.26 190.46 155.74"/><polyline class="cls-2" points="177.21 168.17 183.13 172.3 190.46 168.17"/><circle class="cls-7" cx="66.04" cy="34.52" r="11.3"/><circle class="cls-1" cx="176.59" cy="60.87" r="6.83"/></svg>