<?xml version="1.0" encoding="UTF-8" standalone="no"?>
<svg
   width="370"
   height="370"
   data-name="Ebene 1"
   version="1.1"
   viewBox="-20 -30 370 370"
   id="svg3"
   xmlns="http://www.w3.org/2000/svg"
   xmlns:svg="http://www.w3.org/2000/svg"
   xmlns:rdf="http://www.w3.org/1999/02/22-rdf-syntax-ns#"
   xmlns:cc="http://creativecommons.org/ns#"
   xmlns:dc="http://purl.org/dc/elements/1.1/">
  <title
     id="title1">Zeichenfläche 1</title>
  <g
     id="Wappen"
     transform="matrix(0.77593192,0,0,0.77593192,-35.126717,10.284475)">
    <path
       id="path1"
       fill="#ff0000"
       d="M 118.18923 26.539027 L 118.18923 166.81893 C 118.18923 253.07893 181.38015 324.06095 259.72015 339.36095 C 338.08015 324.06095 401.25107 253.07893 401.25107 166.81893 L 401.25107 26.539027 L 118.18923 26.539027 z M 126.24909 33.999814 L 393.23903 33.999814 L 393.23903 166.7988 A 167.78 167.78 0 0 1 353.75023 274.51957 C 329.26023 303.64957 295.93036 323.68992 259.75036 331.12992 C 223.58036 323.68992 190.23048 303.64957 165.75048 274.51957 A 167.74 167.74 0 0 1 126.24909 166.7988 L 126.24909 33.999814 z " />
    <path
       fill="#ff0000"
       d="m 134.59,41.67 v 125.15 a 159.43,159.43 0 0 0 37.529,102.33 c 22.88,27.16 53.882,46.049 87.602,53.389 33.7,-7.34 64.75,-26.229 87.59,-53.389 A 159.43,159.43 0 0 0 384.84,166.82 V 41.67 Z m 86.09,31.471 39.121,39.139 39.08,-39.139 -39.16,94.389 94.389,-39.059 -39.139,39.139 39.139,39.061 -94.389,-39.141 39.049,94.391 -39.119,-39.141 -39.07,39.141 39.141,-94.391 -94.371,39.031 39.141,-39.09 -39.141,-39.102 94.371,39.16 z"
       id="path3" />
  </g>
  <metadata
     id="metadata3">
    <rdf:RDF>
      <cc:Work
         rdf:about="">
        <dc:title>Zeichenfläche 1</dc:title>
      </cc:Work>
    </rdf:RDF>
  </metadata>
</svg>
