<svg id="Ebene_1" data-name="Ebene 1" xmlns="http://www.w3.org/2000/svg" viewBox="0 0 86.77 64.69"><defs><style>.cls-1{fill:#fff;}</style></defs><title>Zeichenfläche 13</title><path class="cls-1" d="M80.3,0H6.46A6.46,6.46,0,0,0,0,6.43V58.25a6.46,6.46,0,0,0,6.46,6.44H80.3a6.46,6.46,0,0,0,6.47-6.44V6.43A6.46,6.46,0,0,0,80.3,0Zm3.47,58.25a3.46,3.46,0,0,1-3.47,3.44H6.46A3.45,3.45,0,0,1,3,58.25V6.43A3.45,3.45,0,0,1,6.46,3H80.3a3.46,3.46,0,0,1,3.47,3.43ZM74.5,15.08,56.6,32.74,74.37,50.27a1.5,1.5,0,0,1-2.11,2.14L54.47,34.85,44.6,44.58a1.48,1.48,0,0,1-2.1,0l-10-9.86-18.28,18a1.5,1.5,0,1,1-2.1-2.13l18.25-18L12.24,14.73a1.5,1.5,0,0,1,2.11-2.14l29.2,28.82L72.39,13a1.49,1.49,0,0,1,2.12,0A1.51,1.51,0,0,1,74.5,15.08Z"/></svg>