<svg id="Ebene_1" data-name="Ebene 1" xmlns="http://www.w3.org/2000/svg" viewBox="0 0 76.55 71.55"><defs><style>.cls-1{fill:#fff;}</style></defs><title>Zeichenfläche 11</title><path class="cls-1" d="M38.27,71.55h0a1.61,1.61,0,0,1-.37,0h0l-.09,0L1.19,60.67A1.67,1.67,0,0,1,0,59.07V1.66A1.66,1.66,0,0,1,2.14.07L38.27,10.75,74.41.07a1.66,1.66,0,0,1,2.14,1.59V59.07a1.67,1.67,0,0,1-1.2,1.6L38.75,71.49h0A1.54,1.54,0,0,1,38.27,71.55Zm1.67-57.83V67.66l33.28-9.83V3.89ZM3.33,57.83l33.28,9.83V13.72L3.33,3.89Zm24.73-5.64a1.49,1.49,0,0,1-.47-.07L10.37,47a1.67,1.67,0,1,1,.94-3.2l17.22,5.09a1.66,1.66,0,0,1-.47,3.26Zm20.72-.12a1.66,1.66,0,0,1-.47-3.26l17-5A1.66,1.66,0,1,1,66.3,47l-17,5A1.58,1.58,0,0,1,48.78,52.07Zm0-10.46a1.66,1.66,0,0,1-.47-3.26l17-5a1.66,1.66,0,1,1,.94,3.19l-17,5A1.58,1.58,0,0,1,48.78,41.61Zm-20.72-.07a1.49,1.49,0,0,1-.47-.07L10.37,36.39a1.66,1.66,0,1,1,.94-3.19l17.22,5.08a1.66,1.66,0,0,1-.47,3.26ZM48.78,31.06a1.66,1.66,0,0,1-.47-3.26l17-5A1.66,1.66,0,1,1,66.3,26l-17,5A1.58,1.58,0,0,1,48.78,31.06ZM28.06,31a1.84,1.84,0,0,1-.47-.06L10.37,25.83a1.66,1.66,0,1,1,.94-3.19l17.22,5.08a1.67,1.67,0,0,1,1.12,2.07A1.64,1.64,0,0,1,28.06,31Z"/></svg>