<svg id="Ebene_1" data-name="Ebene 1" xmlns="http://www.w3.org/2000/svg" viewBox="0 0 66.6 85.4"><defs><style>.cls-1{fill:#fff;}</style></defs><title>Zeichenfläche 7</title><path class="cls-1" d="M49.54,66.94H17.06V63.18H49.54Zm0-11.4H17.06V51.78H49.54Zm0-11.39H17.06V40.39H49.54ZM64.72,85.4H1.88A1.88,1.88,0,0,1,0,83.52V1.88A1.88,1.88,0,0,1,1.88,0H43a1.91,1.91,0,0,1,1.38.6l21.32,23a1.86,1.86,0,0,1,.86,1.58V83.52A1.88,1.88,0,0,1,64.72,85.4Zm-61-3.76H62.84V27.09h-20A1.88,1.88,0,0,1,41,25.21V3.76H3.76Zm41-58.31h15.6L44.74,6.49Z"/></svg>