<svg id="Ebene_1" data-name="Ebene 1" xmlns="http://www.w3.org/2000/svg" viewBox="0 0 96.38 60.91"><defs><style>.cls-1{fill:#fff;}</style></defs><title>Zeichenfläche 8</title><path class="cls-1" d="M49.45,19.52H46.66a1.5,1.5,0,0,0,0,3h2.79a1.5,1.5,0,0,0,0-3Z"/><path class="cls-1" d="M32.43,23.15h-6.3V16.84a1.5,1.5,0,0,0-3,0v6.31H16.82a1.5,1.5,0,0,0,0,3h6.31v6.31a1.5,1.5,0,0,0,3,0V26.15h6.3a1.5,1.5,0,0,0,0-3Z"/><path class="cls-1" d="M95,45,89.16,30.1A18.2,18.2,0,0,0,62.62,8.9a1.47,1.47,0,0,0-1.14-.53H34.4a1.46,1.46,0,0,0-.94.34A18.22,18.22,0,0,0,7.23,30.1L1.37,45a10.7,10.7,0,0,0,4,14.51,10.55,10.55,0,0,0,5.33,1.44,10.72,10.72,0,0,0,9.23-5.24l11.5-14,.08-.13a18.26,18.26,0,0,0,6.77-4.82,1.55,1.55,0,0,0,.31,0H57a1.51,1.51,0,0,0,.9-.31,18.37,18.37,0,0,0,7,5.09l.09.13,11.5,14A10.68,10.68,0,0,0,91,59.47,10.7,10.7,0,0,0,95,45Zm-77.5,8.9a1.43,1.43,0,0,0-.14.2A7.7,7.7,0,0,1,4,46.36l.1-.2L9,33.92a18.24,18.24,0,0,0,15.68,9,18.47,18.47,0,0,0,2-.11Zm7.12-14A15.24,15.24,0,1,1,39.86,24.65,15.25,15.25,0,0,1,24.63,39.88ZM40.4,33.75a18.11,18.11,0,0,0-3.32-22.38H59.31A18.1,18.1,0,0,0,56,33.75Zm16.12-9.1A15.24,15.24,0,1,1,71.76,39.88,15.26,15.26,0,0,1,56.52,24.65Zm33,32.23A7.7,7.7,0,0,1,79,54.06a1.43,1.43,0,0,0-.14-.2l-9.1-11.09a18.66,18.66,0,0,0,2,.11,18.21,18.21,0,0,0,15.67-9l4.83,12.25.09.2A7.71,7.71,0,0,1,89.53,56.88Z"/><circle class="cls-1" cx="66.74" cy="19.35" r="2.51"/><circle class="cls-1" cx="66.74" cy="29.95" r="2.51"/><circle class="cls-1" cx="77.34" cy="19.35" r="2.51"/><circle class="cls-1" cx="77.34" cy="29.95" r="2.51"/><path class="cls-1" d="M67.57,3h8.37a1.5,1.5,0,0,0,0-3H67.57a1.5,1.5,0,0,0,0,3Z"/><path class="cls-1" d="M20.16,3h8.37a1.5,1.5,0,0,0,0-3H20.16a1.5,1.5,0,0,0,0,3Z"/></svg>