<svg id="Ebene_1" data-name="Ebene 1" xmlns="http://www.w3.org/2000/svg" viewBox="0 0 40.46 39.9"><defs><style>.cls-1{fill:#79c156;}</style></defs><title>Zeichenfläche 16</title><path class="cls-1" d="M36.08,4.39H31V1.13a1.13,1.13,0,0,0-2.26,0V4.39h-17V1.13a1.13,1.13,0,0,0-2.26,0V4.39H4.39A4.39,4.39,0,0,0,0,8.77V35.51A4.4,4.4,0,0,0,4.39,39.9H36.08a4.39,4.39,0,0,0,4.38-4.39V8.77A4.38,4.38,0,0,0,36.08,4.39ZM38.2,35.51a2.12,2.12,0,0,1-2.12,2.12H4.39a2.13,2.13,0,0,1-2.13-2.12V15.28H38.2ZM38.2,13H2.26V8.77A2.13,2.13,0,0,1,4.39,6.65H9.48V9.26a1.13,1.13,0,0,0,2.26,0V6.65h17V9.26a1.13,1.13,0,1,0,2.26,0V6.65h5.1A2.12,2.12,0,0,1,38.2,8.77ZM34.1,31.27H31.83V29H34.1Zm0-7.78H31.83V21.22H34.1ZM23.2,29h2.27v2.27H23.2Zm2.27-5.51H23.2V21.22h2.27ZM6.51,29H8.78v2.27H6.51Zm8.35,0h2.27v2.27H14.86Zm-6.1-5.51H6.49V21.22H8.76Zm8.36,0H14.85V21.22h2.27Z"/></svg>