<svg id="Ebene_1" data-name="Ebene 1" xmlns="http://www.w3.org/2000/svg" xmlns:xlink="http://www.w3.org/1999/xlink" viewBox="0 0 27.08 36.76"><defs><style>.cls-1{fill:url(#Unbenannter_Verlauf_4);}</style><linearGradient id="Unbenannter_Verlauf_4" x1="-0.48" y1="18.38" x2="27.56" y2="18.38" gradientUnits="userSpaceOnUse"><stop offset="0" stop-color="#6cb5ff"/><stop offset="0.01" stop-color="#6cb5ff"/><stop offset="0.99" stop-color="#2884f8"/><stop offset="1" stop-color="#2884f8"/></linearGradient></defs><title>Zeichenfläche 14</title><path class="cls-1" d="M13.54,36l-.38-.32c.05,0,13-15.35,12.92-22.13A12.54,12.54,0,0,0,1,13.54c-.08,6.78,12.93,22.1,12.92,22.13l-.38.32-.38-.32.38.32-.38.33C13.15,36.24.08,21.17,0,13.54a13.54,13.54,0,0,1,27.08,0C27,21.17,13.93,36.24,13.92,36.32l-.38.44-.38-.44Zm0-28.13a4.88,4.88,0,1,1-4.88,4.87,4.88,4.88,0,0,1,4.88-4.87v-1a5.88,5.88,0,1,0,5.88,5.87,5.87,5.87,0,0,0-5.88-5.87v1Z"/></svg>