<?xml version="1.0" encoding="utf-8"?>
<!-- Generator: Adobe Illustrator 24.0.1, SVG Export Plug-In . SVG Version: 6.00 Build 0)  -->
<svg version="1.1" id="Ebene_1" xmlns="http://www.w3.org/2000/svg" xmlns:xlink="http://www.w3.org/1999/xlink" x="0px" y="0px"
	 viewBox="0 0 1500 1500" style="enable-background:new 0 0 1500 1500;" xml:space="preserve">
<style type="text/css">
	.st0{fill:url(#SVGID_1_);}
	.st1{fill:#FFFFFF;}
</style>
<linearGradient id="SVGID_1_" gradientUnits="userSpaceOnUse" x1="1" y1="790" x2="1505" y2="790">
	<stop  offset="0" style="stop-color:#003C41"/>
	<stop  offset="1" style="stop-color:#00E4BE"/>
</linearGradient>
<rect x="1" y="-227" class="st0" width="1504" height="2034"/>
<g>
	<path class="st1" d="M1309.04,941.72c-0.31,171.19-139.82,310.71-311.02,311.04c-162.13-0.31-295.13-123.27-309.62-282.83h51.48
		c96.32-0.02,174.7-78.41,174.73-174.73V630.75l82.38,0.02l1.36-0.04C1169.39,631.26,1308.73,770.7,1309.04,941.72 M814.9,795.16
		c-0.07,41.32-33.74,74.99-75.02,75.06h-52.86V248.2h52.83c41.32,0.07,74.99,33.74,75.06,75.04V795.16z M587.31,248.2v622.02h-66.26
		l-1.76,0.07c-2.57,0.14-4.94,0.31-7.09,0.45c-3.73,0.25-7,0.5-9.23,0.45c-171.73-0.31-311.7-140.27-312.01-311.95
		c0.31-171.72,140.27-311.68,312.06-312.01c0.05,0,0.13,0,0.18,0c2.19,0,5.35,0.22,9,0.45c2.15,0.14,4.51,0.31,7.09,0.45l0.9,0.05
		L587.31,248.2z M1288.44,651.33c-77.57-77.57-180.71-120.29-290.42-120.31l-1.36,0.05l-76.1-0.04V314.15
		c-0.04-91.85-74.77-166.6-166.62-166.62H587.31v0.95h-63.94c-1.22-0.07-2.51-0.16-3.9-0.25c-4.44-0.31-9.97-0.68-16.54-0.7
		c-109.96,0-213.36,42.83-291.11,120.58C134.09,345.86,91.27,449.23,91.25,559.22c0.02,109.96,42.84,213.34,120.58,291.09
		c77.75,77.75,181.14,120.58,291.16,120.59c6.52-0.04,12.03-0.41,16.47-0.72c1.4-0.09,2.71-0.18,3.93-0.25h65
		c6.86,101.24,50.42,195.38,123.63,266.51c77.01,74.81,178.59,116.02,286.01,116.03c109.71-0.02,212.85-42.74,290.42-120.31
		c77.57-77.55,120.29-180.69,120.31-290.41C1408.73,832.04,1366.01,728.9,1288.44,651.33"/>
</g>
</svg>
