<?xml version="1.0" encoding="utf-8"?>
<!-- Generator: Adobe Illustrator 24.0.1, SVG Export Plug-In . SVG Version: 6.00 Build 0)  -->
<svg version="1.1" id="Ebene_1" xmlns="http://www.w3.org/2000/svg" xmlns:xlink="http://www.w3.org/1999/xlink" x="0px" y="0px"
	 viewBox="0 0 677.59 621.7" style="enable-background:new 0 0 677.59 621.7;" xml:space="preserve">
<g>
	<defs>
		<path id="SVGID_1_" d="M462.95,249.87c86.31,0.26,156.62,70.63,156.78,156.94c-0.16,86.39-70.56,156.8-156.95,156.96
			c-81.82-0.16-148.94-62.21-156.25-142.73h25.98c48.61-0.01,88.16-39.57,88.18-88.18v-82.98l41.58,0.02L462.95,249.87z
			 M305.83,56.82h26.66c20.85,0.04,37.84,17.03,37.88,37.86v238.16c-0.04,20.85-17.03,37.84-37.86,37.88h-26.68V56.82z
			 M212.95,371.21c-86.66-0.16-157.29-70.79-157.45-157.42c0.16-86.66,70.79-157.29,157.48-157.45c0.03,0,0.06,0,0.09,0
			c1.11,0,2.7,0.11,4.54,0.23c1.09,0.07,2.27,0.15,3.58,0.22l0.45,0.02l33.87,0.01v313.9h-33.44l-0.89,0.04
			c-1.3,0.07-2.49,0.15-3.58,0.22c-1.72,0.11-3.24,0.23-4.35,0.23C213.16,371.21,213.05,371.21,212.95,371.21 M255.52,6.02v0.49
			h-32.27c-0.61-0.04-1.27-0.08-1.96-0.13c-2.24-0.15-5.03-0.35-8.35-0.36c-55.5,0.01-107.66,21.62-146.9,60.85
			S5.2,158.28,5.19,213.77c0.01,55.49,21.62,107.66,60.85,146.89c39.23,39.23,91.4,60.85,146.92,60.85c3.29-0.01,6.07-0.2,8.31-0.36
			c0.71-0.05,1.37-0.09,1.98-0.13h32.8c3.46,51.09,25.44,98.6,62.39,134.49c38.87,37.76,90.12,58.55,144.33,58.56
			c55.36-0.01,107.41-21.57,146.55-60.71c39.14-39.14,60.7-91.19,60.71-146.56c-0.01-55.37-21.57-107.41-60.71-146.55
			c-39.14-39.14-91.19-60.7-146.55-60.71l-0.69,0.02l-38.41-0.01V90.11c-0.01-46.35-37.73-84.07-84.08-84.08H255.52z"/>
	</defs>
	<use xlink:href="#SVGID_1_"  style="overflow:visible;fill:#009684;"/>
	<clipPath id="SVGID_2_">
		<use xlink:href="#SVGID_1_"  style="overflow:visible;"/>
	</clipPath>
</g>
</svg>
