<svg width="4328" height="1024" viewBox="0 0 4328 1024" fill="none" xmlns="http://www.w3.org/2000/svg">
<path d="M1183.32 374.15C1177.87 374.15 1173.29 372.287 1169.56 368.56C1165.83 364.833 1163.97 360.247 1163.97 354.8V75.73C1163.97 70.2833 1165.83 65.6967 1169.56 61.97C1173.29 57.9567 1177.87 55.95 1183.32 55.95C1188.77 55.95 1193.35 57.9567 1197.08 61.97C1201.09 65.6967 1203.1 70.2833 1203.1 75.73V187.96C1213.99 175.92 1225.75 166.317 1238.36 159.15C1250.97 151.983 1265.88 148.4 1283.08 148.4C1298.85 148.4 1312.46 152.127 1323.93 159.58C1335.68 167.033 1344.57 177.21 1350.59 190.11C1356.9 203.01 1360.05 217.2 1360.05 232.68V354.8C1360.05 360.247 1358.04 364.833 1354.03 368.56C1350.3 372.287 1345.72 374.15 1340.27 374.15C1334.82 374.15 1330.24 372.287 1326.51 368.56C1322.78 364.833 1320.92 360.247 1320.92 354.8V236.98C1320.92 202.007 1305.15 184.52 1273.62 184.52C1259.29 184.52 1246.39 188.247 1234.92 195.7C1223.74 203.153 1213.13 213.187 1203.1 225.8V354.8C1203.1 360.247 1201.09 364.833 1197.08 368.56C1193.35 372.287 1188.77 374.15 1183.32 374.15ZM1481.9 376.3C1469.29 376.3 1457.53 373.72 1446.64 368.56C1436.03 363.4 1427.58 355.947 1421.27 346.2C1414.96 336.167 1411.81 324.7 1411.81 311.8C1411.81 290.587 1420.12 273.673 1436.75 261.06C1453.66 248.447 1478.32 242.14 1510.71 242.14H1562.74V238.7C1562.74 219.78 1558.01 206.163 1548.55 197.85C1539.38 189.537 1524.9 185.38 1505.12 185.38C1494.23 185.38 1484.48 186.24 1475.88 187.96C1467.57 189.68 1458.25 192.26 1447.93 195.7C1445.64 196.273 1443.77 196.56 1442.34 196.56C1438.04 196.56 1434.31 194.983 1431.16 191.83C1428.01 188.677 1426.43 184.807 1426.43 180.22C1426.43 172.48 1430.16 167.033 1437.61 163.88C1461.98 153.56 1486.77 148.4 1512 148.4C1531.78 148.4 1548.41 152.413 1561.88 160.44C1575.64 168.467 1585.67 178.93 1591.98 191.83C1598.57 204.443 1601.87 218.203 1601.87 233.11V354.8C1601.87 360.247 1599.86 364.833 1595.85 368.56C1592.12 372.287 1587.54 374.15 1582.09 374.15C1576.64 374.15 1572.06 372.287 1568.33 368.56C1564.6 364.833 1562.74 360.247 1562.74 354.8V343.62C1541.53 365.407 1514.58 376.3 1481.9 376.3ZM1496.52 341.9C1509.13 341.9 1521.32 338.89 1533.07 332.87C1544.82 326.563 1554.71 318.823 1562.74 309.65V273.53H1515.87C1472.58 273.53 1450.94 284.853 1450.94 307.5C1450.94 317.82 1454.38 326.133 1461.26 332.44C1468.43 338.747 1480.18 341.9 1496.52 341.9ZM1686.81 374.15C1681.36 374.15 1676.77 372.287 1673.05 368.56C1669.32 364.833 1667.46 360.247 1667.46 354.8V75.73C1667.46 70.2833 1669.32 65.6967 1673.05 61.97C1676.77 57.9567 1681.36 55.95 1686.81 55.95C1692.54 55.95 1697.27 57.8133 1701 61.54C1704.72 65.2666 1706.59 69.9967 1706.59 75.73V354.8C1706.59 360.247 1704.58 364.833 1700.57 368.56C1696.84 372.287 1692.25 374.15 1686.81 374.15ZM1793.89 374.15C1788.44 374.15 1783.85 372.287 1780.13 368.56C1776.4 364.833 1774.54 360.247 1774.54 354.8V75.73C1774.54 70.2833 1776.4 65.6967 1780.13 61.97C1783.85 57.9567 1788.44 55.95 1793.89 55.95C1799.62 55.95 1804.35 57.8133 1808.08 61.54C1811.8 65.2666 1813.67 69.9967 1813.67 75.73V354.8C1813.67 360.247 1811.66 364.833 1807.65 368.56C1803.92 372.287 1799.33 374.15 1793.89 374.15ZM1978.37 376.3C1956.29 376.3 1936.94 371.57 1920.32 362.11C1903.69 352.65 1890.79 339.32 1881.62 322.12C1872.73 304.633 1868.29 284.71 1868.29 262.35C1868.29 239.99 1872.73 220.21 1881.62 203.01C1890.79 185.523 1903.69 172.05 1920.32 162.59C1936.94 153.13 1956.29 148.4 1978.37 148.4C2000.15 148.4 2019.36 153.13 2035.99 162.59C2052.61 172.05 2065.51 185.523 2074.69 203.01C2083.86 220.21 2088.45 239.99 2088.45 262.35C2088.45 284.71 2083.86 304.633 2074.69 322.12C2065.51 339.32 2052.61 352.65 2035.99 362.11C2019.36 371.57 2000.15 376.3 1978.37 376.3ZM1978.37 340.61C1990.12 340.61 2001.3 337.887 2011.91 332.44C2022.8 326.993 2031.69 318.393 2038.57 306.64C2045.73 294.887 2049.32 279.98 2049.32 261.92C2049.32 244.147 2045.73 229.383 2038.57 217.63C2031.69 205.877 2022.8 197.42 2011.91 192.26C2001.3 186.813 1990.12 184.09 1978.37 184.09C1966.33 184.09 1954.86 186.813 1943.97 192.26C1933.36 197.42 1924.62 205.877 1917.74 217.63C1910.86 229.383 1907.42 244.147 1907.42 261.92C1907.42 279.98 1910.86 294.887 1917.74 306.64C1924.62 318.393 1933.36 326.993 1943.97 332.44C1954.86 337.887 1966.33 340.61 1978.37 340.61ZM1219.87 849.3C1207.26 849.3 1195.5 846.72 1184.61 841.56C1174 836.4 1165.55 828.947 1159.24 819.2C1152.93 809.167 1149.78 797.7 1149.78 784.8C1149.78 763.587 1158.09 746.673 1174.72 734.06C1191.63 721.447 1216.29 715.14 1248.68 715.14H1300.71V711.7C1300.71 692.78 1295.98 679.163 1286.52 670.85C1277.35 662.537 1262.87 658.38 1243.09 658.38C1232.2 658.38 1222.45 659.24 1213.85 660.96C1205.54 662.68 1196.22 665.26 1185.9 668.7C1183.61 669.273 1181.74 669.56 1180.31 669.56C1176.01 669.56 1172.28 667.983 1169.13 664.83C1165.98 661.677 1164.4 657.807 1164.4 653.22C1164.4 645.48 1168.13 640.033 1175.58 636.88C1199.95 626.56 1224.74 621.4 1249.97 621.4C1269.75 621.4 1286.38 625.413 1299.85 633.44C1313.61 641.467 1323.64 651.93 1329.95 664.83C1336.54 677.443 1339.84 691.203 1339.84 706.11V827.8C1339.84 833.247 1337.83 837.833 1333.82 841.56C1330.09 845.287 1325.51 847.15 1320.06 847.15C1314.61 847.15 1310.03 845.287 1306.3 841.56C1302.57 837.833 1300.71 833.247 1300.71 827.8V816.62C1279.5 838.407 1252.55 849.3 1219.87 849.3ZM1234.49 814.9C1247.1 814.9 1259.29 811.89 1271.04 805.87C1282.79 799.563 1292.68 791.823 1300.71 782.65V746.53H1253.84C1210.55 746.53 1188.91 757.853 1188.91 780.5C1188.91 790.82 1192.35 799.133 1199.23 805.44C1206.4 811.747 1218.15 814.9 1234.49 814.9ZM1476.38 849.3C1447.71 849.3 1421.62 842.85 1398.12 829.95C1393.24 826.51 1390.81 821.78 1390.81 815.76C1390.81 811.173 1392.38 807.16 1395.54 803.72C1398.69 800.28 1402.7 798.56 1407.58 798.56C1410.16 798.56 1412.74 799.133 1415.32 800.28C1424.49 804.293 1433.66 807.447 1442.84 809.74C1452.01 812.033 1462.33 813.18 1473.8 813.18C1505.62 813.18 1521.53 803.003 1521.53 782.65C1521.53 776.057 1517.8 771.04 1510.35 767.6C1503.18 764.16 1491.28 760.29 1474.66 755.99C1457.74 751.977 1443.7 747.82 1432.52 743.52C1421.62 739.22 1412.16 732.77 1404.14 724.17C1396.4 715.283 1392.53 703.673 1392.53 689.34C1392.53 669.273 1399.69 652.933 1414.03 640.32C1428.65 627.707 1449.43 621.4 1476.38 621.4C1498.45 621.4 1519.23 624.983 1538.73 632.15C1542.74 633.297 1545.75 635.447 1547.76 638.6C1550.05 641.753 1551.2 645.05 1551.2 648.49C1551.2 653.077 1549.48 657.09 1546.04 660.53C1542.88 663.97 1538.87 665.69 1534 665.69C1532.56 665.69 1530.7 665.403 1528.41 664.83C1511.78 659.67 1495.44 657.09 1479.39 657.09C1463.91 657.09 1451.72 659.957 1442.84 665.69C1434.24 671.137 1429.94 678.303 1429.94 687.19C1429.94 695.79 1433.95 702.097 1441.98 706.11C1450 710.123 1462.47 713.993 1479.39 717.72C1496.3 722.02 1510.06 726.32 1520.67 730.62C1531.27 734.633 1540.3 741.083 1547.76 749.97C1555.5 758.857 1559.37 770.753 1559.37 785.66C1559.37 804.007 1552.06 819.2 1537.44 831.24C1523.1 843.28 1502.75 849.3 1476.38 849.3ZM1713.51 849.3C1692.87 849.3 1673.8 844.713 1656.32 835.54C1638.83 826.367 1624.78 813.18 1614.18 795.98C1603.86 778.78 1598.7 758.57 1598.7 735.35C1598.7 712.13 1603.86 691.92 1614.18 674.72C1624.78 657.52 1638.83 644.333 1656.32 635.16C1673.8 625.987 1692.87 621.4 1713.51 621.4C1728.7 621.4 1741.74 623.407 1752.64 627.42C1763.82 631.147 1774.14 636.02 1783.6 642.04C1789.33 645.767 1792.2 650.783 1792.2 657.09C1792.2 661.39 1790.48 665.403 1787.04 669.13C1783.88 672.57 1780.16 674.29 1775.86 674.29C1772.7 674.29 1769.55 673.43 1766.4 671.71C1756.94 666.837 1748.77 663.397 1741.89 661.39C1735.29 659.097 1726.98 657.95 1716.95 657.95C1692.29 657.95 1672.94 665.117 1658.9 679.45C1644.85 693.497 1637.83 712.13 1637.83 735.35C1637.83 758.57 1644.85 777.347 1658.9 791.68C1672.94 805.727 1692.29 812.75 1716.95 812.75C1726.98 812.75 1735.29 811.747 1741.89 809.74C1748.77 807.447 1756.94 803.863 1766.4 798.99C1769.55 797.27 1772.7 796.41 1775.86 796.41C1780.16 796.41 1783.88 798.273 1787.04 802C1790.48 805.44 1792.2 809.31 1792.2 813.61C1792.2 819.917 1789.33 824.933 1783.6 828.66C1774.14 834.68 1763.82 839.697 1752.64 843.71C1741.74 847.437 1728.7 849.3 1713.51 849.3ZM1860.65 847.15C1855.21 847.15 1850.62 845.287 1846.89 841.56C1843.17 837.833 1841.3 833.247 1841.3 827.8V548.73C1841.3 543.283 1843.17 538.697 1846.89 534.97C1850.62 530.957 1855.21 528.95 1860.65 528.95C1866.1 528.95 1870.69 530.957 1874.41 534.97C1878.43 538.697 1880.43 543.283 1880.43 548.73V660.96C1891.33 648.92 1903.08 639.317 1915.69 632.15C1928.31 624.983 1943.21 621.4 1960.41 621.4C1976.18 621.4 1989.8 625.127 2001.26 632.58C2013.02 640.033 2021.9 650.21 2027.92 663.11C2034.23 676.01 2037.38 690.2 2037.38 705.68V827.8C2037.38 833.247 2035.38 837.833 2031.36 841.56C2027.64 845.287 2023.05 847.15 2017.6 847.15C2012.16 847.15 2007.57 845.287 2003.84 841.56C2000.12 837.833 1998.25 833.247 1998.25 827.8V709.98C1998.25 675.007 1982.49 657.52 1950.95 657.52C1936.62 657.52 1923.72 661.247 1912.25 668.7C1901.07 676.153 1890.47 686.187 1880.43 698.8V827.8C1880.43 833.247 1878.43 837.833 1874.41 841.56C1870.69 845.287 1866.1 847.15 1860.65 847.15ZM2159.24 849.3C2146.62 849.3 2134.87 846.72 2123.98 841.56C2113.37 836.4 2104.91 828.947 2098.61 819.2C2092.3 809.167 2089.15 797.7 2089.15 784.8C2089.15 763.587 2097.46 746.673 2114.09 734.06C2131 721.447 2155.65 715.14 2188.05 715.14H2240.08V711.7C2240.08 692.78 2235.35 679.163 2225.89 670.85C2216.71 662.537 2202.24 658.38 2182.46 658.38C2171.56 658.38 2161.82 659.24 2153.22 660.96C2144.9 662.68 2135.59 665.26 2125.27 668.7C2122.97 669.273 2121.11 669.56 2119.68 669.56C2115.38 669.56 2111.65 667.983 2108.5 664.83C2105.34 661.677 2103.77 657.807 2103.77 653.22C2103.77 645.48 2107.49 640.033 2114.95 636.88C2139.31 626.56 2164.11 621.4 2189.34 621.4C2209.12 621.4 2225.74 625.413 2239.22 633.44C2252.98 641.467 2263.01 651.93 2269.32 664.83C2275.91 677.443 2279.21 691.203 2279.21 706.11V827.8C2279.21 833.247 2277.2 837.833 2273.19 841.56C2269.46 845.287 2264.87 847.15 2259.43 847.15C2253.98 847.15 2249.39 845.287 2245.67 841.56C2241.94 837.833 2240.08 833.247 2240.08 827.8V816.62C2218.86 838.407 2191.92 849.3 2159.24 849.3ZM2173.86 814.9C2186.47 814.9 2198.65 811.89 2210.41 805.87C2222.16 799.563 2232.05 791.823 2240.08 782.65V746.53H2193.21C2149.92 746.53 2128.28 757.853 2128.28 780.5C2128.28 790.82 2131.72 799.133 2138.6 805.44C2145.76 811.747 2157.52 814.9 2173.86 814.9ZM2375.02 847.15C2369.57 847.15 2364.99 845.287 2361.26 841.56C2357.53 837.833 2355.67 833.247 2355.67 827.8V659.24H2330.3C2325.71 659.24 2321.7 657.663 2318.26 654.51C2315.11 651.07 2313.53 647.057 2313.53 642.47C2313.53 637.597 2315.11 633.583 2318.26 630.43C2321.7 627.277 2325.71 625.7 2330.3 625.7H2355.67V600.76C2355.67 583.56 2358.68 569.513 2364.7 558.62C2371.01 547.44 2379.03 539.413 2388.78 534.54C2398.81 529.38 2409.28 526.8 2420.17 526.8C2433.64 526.8 2446.11 529.667 2457.58 535.4C2460.45 536.833 2462.74 538.983 2464.46 541.85C2466.47 544.43 2467.47 547.297 2467.47 550.45C2467.47 554.75 2465.89 558.62 2462.74 562.06C2459.59 565.213 2455.86 566.79 2451.56 566.79C2448.41 566.79 2445.11 566.36 2441.67 565.5C2434.79 564.64 2430.92 564.21 2430.06 564.21C2418.31 564.21 2409.42 566.933 2403.4 572.38C2397.67 577.827 2394.8 587.717 2394.8 602.05V625.7H2525.09V600.76C2525.09 583.56 2528.1 569.513 2534.12 558.62C2540.43 547.44 2548.45 539.413 2558.2 534.54C2568.23 529.38 2578.7 526.8 2589.59 526.8C2603.06 526.8 2615.53 529.667 2627 535.4C2629.87 536.833 2632.16 538.983 2633.88 541.85C2635.89 544.43 2636.89 547.297 2636.89 550.45C2636.89 554.75 2635.31 558.62 2632.16 562.06C2629.01 565.213 2625.28 566.79 2620.98 566.79C2617.83 566.79 2614.53 566.36 2611.09 565.5C2604.21 564.64 2600.34 564.21 2599.48 564.21C2587.73 564.21 2578.84 566.933 2572.82 572.38C2567.09 577.827 2564.22 587.717 2564.22 602.05V625.7H2617.97C2622.84 625.7 2626.86 627.277 2630.01 630.43C2633.16 633.583 2634.74 637.597 2634.74 642.47C2634.74 647.057 2633.16 651.07 2630.01 654.51C2626.86 657.663 2622.84 659.24 2617.97 659.24H2564.22V827.8C2564.22 833.247 2562.21 837.833 2558.2 841.56C2554.47 845.287 2549.89 847.15 2544.44 847.15C2538.99 847.15 2534.41 845.287 2530.68 841.56C2526.95 837.833 2525.09 833.247 2525.09 827.8V659.24H2394.8V827.8C2394.8 833.247 2392.79 837.833 2388.78 841.56C2385.05 845.287 2380.47 847.15 2375.02 847.15ZM2757.77 849.3C2722.8 849.3 2695.42 839.41 2675.64 819.63C2656.15 799.563 2646.4 771.47 2646.4 735.35C2646.4 714.997 2650.13 696.22 2657.58 679.02C2665.04 661.82 2676.5 647.917 2691.98 637.31C2707.46 626.703 2726.53 621.4 2749.17 621.4C2770.39 621.4 2788.73 626.417 2804.21 636.45C2819.69 646.197 2831.45 659.383 2839.47 676.01C2847.5 692.35 2851.51 710.267 2851.51 729.76C2851.51 735.207 2849.65 739.793 2845.92 743.52C2842.48 747.247 2837.75 749.11 2831.73 749.11H2685.96C2688.26 769.177 2695.71 784.8 2708.32 795.98C2720.94 807.16 2738.57 812.75 2761.21 812.75C2773.25 812.75 2783.72 811.603 2792.6 809.31C2801.78 807.017 2810.66 803.72 2819.26 799.42C2821.56 798.273 2824.14 797.7 2827 797.7C2831.59 797.7 2835.6 799.277 2839.04 802.43C2842.48 805.583 2844.2 809.597 2844.2 814.47C2844.2 820.777 2840.48 826.08 2833.02 830.38C2821.84 836.687 2810.81 841.417 2799.91 844.57C2789.02 847.723 2774.97 849.3 2757.77 849.3ZM2812.81 717.29C2811.95 703.243 2808.23 691.49 2801.63 682.03C2795.33 672.57 2787.44 665.69 2777.98 661.39C2768.52 656.803 2758.92 654.51 2749.17 654.51C2739.43 654.51 2729.82 656.803 2720.36 661.39C2710.9 665.69 2703.02 672.57 2696.71 682.03C2690.41 691.49 2686.82 703.243 2685.96 717.29H2812.81ZM2922.64 847.15C2917.19 847.15 2912.6 845.287 2908.88 841.56C2905.15 837.833 2903.29 833.247 2903.29 827.8V643.33C2903.29 637.883 2905.15 633.297 2908.88 629.57C2912.6 625.557 2917.19 623.55 2922.64 623.55C2928.08 623.55 2932.67 625.557 2936.4 629.57C2940.41 633.297 2942.42 637.883 2942.42 643.33V660.96C2953.31 648.92 2965.06 639.317 2977.68 632.15C2990.29 624.983 3005.2 621.4 3022.4 621.4C3038.16 621.4 3051.78 625.127 3063.25 632.58C3075 640.033 3083.89 650.21 3089.91 663.11C3096.21 676.01 3099.37 690.2 3099.37 705.68V827.8C3099.37 833.247 3097.36 837.833 3093.35 841.56C3089.62 845.287 3085.03 847.15 3079.59 847.15C3074.14 847.15 3069.55 845.287 3065.83 841.56C3062.1 837.833 3060.24 833.247 3060.24 827.8V709.98C3060.24 675.007 3044.47 657.52 3012.94 657.52C2998.6 657.52 2985.7 661.247 2974.24 668.7C2963.06 676.153 2952.45 686.187 2942.42 698.8V827.8C2942.42 833.247 2940.41 837.833 2936.4 841.56C2932.67 845.287 2928.08 847.15 2922.64 847.15ZM3277.98 849.3C3249.88 849.3 3225.37 838.407 3204.45 816.62V827.8C3204.45 833.247 3202.44 837.833 3198.43 841.56C3194.7 845.287 3190.11 847.15 3184.67 847.15C3179.22 847.15 3174.63 845.287 3170.91 841.56C3167.18 837.833 3165.32 833.247 3165.32 827.8V548.73C3165.32 543.283 3167.18 538.697 3170.91 534.97C3174.63 530.957 3179.22 528.95 3184.67 528.95C3190.4 528.95 3195.13 530.813 3198.86 534.54C3202.58 538.267 3204.45 542.997 3204.45 548.73V654.08C3225.37 632.293 3249.88 621.4 3277.98 621.4C3295.75 621.4 3312.52 625.987 3328.29 635.16C3344.34 644.047 3357.24 657.233 3366.99 674.72C3377.02 691.92 3382.04 712.13 3382.04 735.35C3382.04 758.57 3377.02 778.923 3366.99 796.41C3357.24 813.61 3344.34 826.797 3328.29 835.97C3312.52 844.857 3295.75 849.3 3277.98 849.3ZM3272.39 812.75C3293.6 812.75 3310.66 806.013 3323.56 792.54C3336.46 779.067 3342.91 760.003 3342.91 735.35C3342.91 710.697 3336.46 691.633 3323.56 678.16C3310.66 664.687 3293.6 657.95 3272.39 657.95C3259.2 657.95 3246.73 660.96 3234.98 666.98C3223.51 672.713 3213.33 680.453 3204.45 690.2V780.5C3213.33 790.247 3223.51 798.13 3234.98 804.15C3246.73 809.883 3259.2 812.75 3272.39 812.75ZM3511.41 849.3C3495.64 849.3 3481.88 845.573 3470.13 838.12C3458.66 830.667 3449.77 820.49 3443.47 807.59C3437.45 794.69 3434.44 780.5 3434.44 765.02V642.9C3434.44 637.453 3436.3 632.867 3440.03 629.14C3444.04 625.413 3448.77 623.55 3454.22 623.55C3459.66 623.55 3464.25 625.413 3467.98 629.14C3471.7 632.867 3473.57 637.453 3473.57 642.9V760.72C3473.57 795.693 3489.33 813.18 3520.87 813.18C3535.2 813.18 3547.96 809.453 3559.14 802C3570.6 794.547 3581.35 784.513 3591.39 771.9V642.9C3591.39 637.453 3593.25 632.867 3596.98 629.14C3600.99 625.413 3605.72 623.55 3611.17 623.55C3616.61 623.55 3621.2 625.413 3624.93 629.14C3628.65 632.867 3630.52 637.453 3630.52 642.9V827.37C3630.52 832.817 3628.65 837.547 3624.93 841.56C3621.2 845.287 3616.61 847.15 3611.17 847.15C3605.72 847.15 3600.99 845.287 3596.98 841.56C3593.25 837.547 3591.39 832.817 3591.39 827.37V809.74C3580.49 821.78 3568.74 831.383 3556.13 838.55C3543.51 845.717 3528.61 849.3 3511.41 849.3ZM3717.97 847.15C3712.52 847.15 3707.94 845.287 3704.21 841.56C3700.48 837.833 3698.62 833.247 3698.62 827.8V643.33C3698.62 637.883 3700.48 633.297 3704.21 629.57C3707.94 625.557 3712.52 623.55 3717.97 623.55C3723.42 623.55 3728 625.557 3731.73 629.57C3735.74 633.297 3737.75 637.883 3737.75 643.33V661.82C3757.82 634.873 3780.32 621.4 3805.26 621.4H3807.41C3812.86 621.4 3817.3 623.263 3820.74 626.99C3824.47 630.717 3826.33 635.303 3826.33 640.75C3826.33 646.197 3824.47 650.64 3820.74 654.08C3817.01 657.52 3812.28 659.24 3806.55 659.24H3804.4C3790.64 659.24 3778.03 662.68 3766.56 669.56C3755.09 676.153 3745.49 685.327 3737.75 697.08V827.8C3737.75 833.247 3735.74 837.833 3731.73 841.56C3728 845.287 3723.42 847.15 3717.97 847.15ZM3959.27 948.2C3942.64 948.2 3925.87 946.05 3908.96 941.75C3892.05 937.45 3878.14 932.147 3867.25 925.84C3862.09 922.687 3859.51 917.67 3859.51 910.79C3859.51 906.203 3861.09 902.047 3864.24 898.32C3867.68 894.88 3871.84 893.16 3876.71 893.16C3879 893.16 3881.58 893.733 3884.45 894.88C3906.24 905.773 3929.89 911.22 3955.4 911.22C3999.26 911.22 4021.19 887.857 4021.19 841.13V812.32C4000.84 834.107 3976.33 845 3947.66 845C3930.75 845 3914.26 840.843 3898.21 832.53C3882.44 823.93 3869.4 811.317 3859.08 794.69C3848.76 777.777 3843.6 757.28 3843.6 733.2C3843.6 709.12 3848.76 688.767 3859.08 672.14C3869.4 655.227 3882.44 642.613 3898.21 634.3C3914.26 625.7 3930.75 621.4 3947.66 621.4C3976.33 621.4 4000.84 632.293 4021.19 654.08V643.33C4021.19 637.883 4023.05 633.297 4026.78 629.57C4030.51 625.557 4035.09 623.55 4040.54 623.55C4045.99 623.55 4050.57 625.557 4054.3 629.57C4058.31 633.297 4060.32 637.883 4060.32 643.33V835.54C4060.32 871.66 4051.58 899.467 4034.09 918.96C4016.6 938.453 3991.66 948.2 3959.27 948.2ZM3955.83 809.31C3969.3 809.31 3981.2 806.443 3991.52 800.71C4001.84 794.977 4011.73 787.237 4021.19 777.49V688.91C4011.73 679.163 4001.84 671.423 3991.52 665.69C3981.2 659.957 3969.3 657.09 3955.83 657.09C3934.33 657.09 3916.7 663.683 3902.94 676.87C3889.47 689.77 3882.73 708.547 3882.73 733.2C3882.73 757.853 3889.47 776.773 3902.94 789.96C3916.7 802.86 3934.33 809.31 3955.83 809.31Z" fill="#003C40"/>
<g clip-path="url(#clip0_2_24)">
<mask id="mask0_2_24" style="mask-type:luminance" maskUnits="userSpaceOnUse" x="0" y="0" width="1024" height="1024">
<path d="M1024 0H0V1024H1024V0Z" fill="white"/>
</mask>
<g mask="url(#mask0_2_24)">
<mask id="mask1_2_24" style="mask-type:luminance" maskUnits="userSpaceOnUse" x="0" y="0" width="1024" height="1024">
<path d="M859.91 0H164.09C73.4656 0 0 73.4656 0 164.09V859.91C0 950.534 73.4656 1024 164.09 1024H859.91C950.534 1024 1024 950.534 1024 859.91V164.09C1024 73.4656 950.534 0 859.91 0Z" fill="white"/>
</mask>
<g mask="url(#mask1_2_24)">
<path d="M946.201 -271.316L-271.313 77.8007L77.8033 1295.32L1295.32 946.199L946.201 -271.316Z" fill="url(#paint0_linear_2_24)"/>
</g>
<mask id="mask2_2_24" style="mask-type:luminance" maskUnits="userSpaceOnUse" x="0" y="0" width="1024" height="1024">
<path d="M1024 0H0V1024H1024V0Z" fill="white"/>
</mask>
<g mask="url(#mask2_2_24)">
<path d="M121.2 613.41C121.2 684.28 147.2 748.41 208.04 782.9C253.15 808.5 314.68 806.17 353.27 786.13C362.75 781.2 375.35 768.94 381.45 762.59C382.447 761.554 383.811 760.95 385.248 760.907C386.686 760.864 388.083 761.385 389.14 762.36L410.92 782.23C417.117 787.874 425.198 791.002 433.58 791H481.89C483.355 791 484.76 790.419 485.797 789.384C486.834 788.349 487.417 786.945 487.42 785.48V451.15C487.42 447.774 486.755 444.431 485.463 441.313C484.171 438.194 482.277 435.36 479.889 432.974C477.502 430.587 474.667 428.694 471.548 427.403C468.429 426.112 465.086 425.449 461.71 425.45H309.16C205.35 425.45 121.16 509.6 121.16 613.45" fill="white"/>
<path d="M745 425.44L754.57 394.44L778.42 283.86L779.15 275.86C779.15 265.08 774.44 255.34 767.22 248.04L738.61 220.6L560.05 408.09C555.056 412.859 551.075 418.585 548.343 424.927C545.611 431.268 544.185 438.095 544.15 445V791H718.25C766.719 790.992 813.201 771.733 847.472 737.458C881.743 703.183 900.997 656.699 901 608.23C901 516.35 833.2 438.37 744.92 425.44" fill="white"/>
</g>
</g>
</g>
<defs>
<linearGradient id="paint0_linear_2_24" x1="115.924" y1="618.715" x2="943.243" y2="381.484" gradientUnits="userSpaceOnUse">
<stop stop-color="#003B40"/>
<stop offset="0.51" stop-color="#009281"/>
<stop offset="1" stop-color="#5BBCAC"/>
</linearGradient>
<clipPath id="clip0_2_24">
<rect width="1024" height="1024" fill="white"/>
</clipPath>
</defs>
</svg>
