<?xml version="1.0" encoding="utf-8"?>
<!-- Generator: Adobe Illustrator 24.0.1, SVG Export Plug-In . SVG Version: 6.00 Build 0)  -->
<svg version="1.1" id="Ebene_1" xmlns="http://www.w3.org/2000/svg" xmlns:xlink="http://www.w3.org/1999/xlink" x="0px" y="0px"
	 viewBox="0 0 1366 450" style="enable-background:new 0 0 1366 450;" xml:space="preserve">
<style type="text/css">
	.st0{fill:url(#SVGID_1_);}
	.st1{fill:url(#SVGID_2_);}
	.st2{fill:url(#SVGID_3_);}
</style>
<g>
	<linearGradient id="SVGID_1_" gradientUnits="userSpaceOnUse" x1="24.4255" y1="225" x2="1332.6952" y2="225">
		<stop  offset="0" style="stop-color:#003C41"/>
		<stop  offset="1" style="stop-color:#00E4BE"/>
	</linearGradient>
	<path class="st0" d="M344.14,275.16c-0.08,44.79-36.59,81.3-81.38,81.39c-42.42-0.08-77.22-32.25-81.01-74h13.47
		c25.2,0,45.71-20.52,45.72-45.72V193.8l21.56,0l0.36-0.01C307.61,193.93,344.07,230.42,344.14,275.16 M214.85,236.82
		c-0.02,10.81-8.83,19.62-19.63,19.64h-13.83V93.7h13.82c10.81,0.02,19.62,8.83,19.64,19.63V236.82z M155.3,93.7v162.76h-17.34
		l-0.46,0.02c-0.67,0.04-1.29,0.08-1.86,0.12c-0.98,0.07-1.83,0.13-2.41,0.12c-44.94-0.08-81.56-36.7-81.64-81.63
		c0.08-44.93,36.7-81.55,81.65-81.64c0.01,0,0.03,0,0.05,0c0.57,0,1.4,0.06,2.35,0.12c0.56,0.04,1.18,0.08,1.86,0.12l0.23,0.01
		L155.3,93.7z M338.76,199.18c-20.3-20.3-47.28-31.47-75.99-31.48l-0.36,0.01l-19.91-0.01v-56.75c-0.01-24.03-19.56-43.59-43.6-43.6
		h-43.6v0.25h-16.73c-0.32-0.02-0.66-0.04-1.02-0.07c-1.16-0.08-2.61-0.18-4.33-0.18c-28.77,0-55.83,11.21-76.17,31.55
		C36.71,119.25,25.5,146.3,25.5,175.08c0,28.77,11.21,55.82,31.55,76.17c20.34,20.34,47.4,31.55,76.18,31.55
		c1.71-0.01,3.15-0.11,4.31-0.19c0.37-0.02,0.71-0.05,1.03-0.07h17.01c1.79,26.49,13.19,51.12,32.35,69.73
		c20.15,19.57,46.73,30.36,74.84,30.36c28.71,0,55.69-11.18,75.99-31.48c20.3-20.29,31.47-47.28,31.48-75.99
		C370.23,246.47,359.05,219.48,338.76,199.18"/>
	<linearGradient id="SVGID_2_" gradientUnits="userSpaceOnUse" x1="24.4255" y1="319.7459" x2="1332.6952" y2="319.7459">
		<stop  offset="0" style="stop-color:#003C41"/>
		<stop  offset="1" style="stop-color:#00E4BE"/>
	</linearGradient>
	<path class="st1" d="M682.22,333.66c-4.78,0-8.94-2.05-12.46-6.15v-45.4c1.94-3.3,4.1-5.86,6.48-7.68
		c2.39-1.82,4.83-2.73,7.34-2.73c4.33,0,7.6,2.68,9.81,8.02c2.22,5.35,3.33,13.14,3.33,23.38
		C696.73,323.48,691.89,333.66,682.22,333.66 M659.69,382.64h2.56c5,0,7.51-1.36,7.51-4.1v-37.72c2.27,2.39,4.75,4.27,7.42,5.63
		c2.67,1.37,5.83,2.05,9.47,2.05c8.65,0,15.53-3.98,20.65-11.95c5.12-7.96,7.68-19.11,7.68-33.45c0-9.21-1.08-17.32-3.24-24.32
		c-2.16-7-5.26-12.4-9.3-16.21c-4.04-3.81-8.73-5.72-14.08-5.72c-3.98,0-7.65,1.08-11.01,3.24c-3.36,2.16-6.23,5.29-8.62,9.39
		c-0.11-0.68-0.34-1.99-0.68-3.93c-0.34-1.93-0.86-3.64-1.54-5.12c-0.68-1.48-1.88-2.22-3.58-2.22c-2.39,0-5.09,0.34-8.11,1.02
		c-3.01,0.69-4.52,1.77-4.52,3.25c0,0.57,0.31,2.59,0.94,6.06c0.62,3.47,0.93,8.9,0.93,16.3v93.7
		C652.18,381.28,654.68,382.64,659.69,382.64 M597.91,333.66c-4.78,0-8.93-2.05-12.46-6.15v-45.4c1.94-3.3,4.1-5.86,6.49-7.68
		c2.39-1.82,4.83-2.73,7.34-2.73c4.32,0,7.59,2.68,9.81,8.02c2.22,5.35,3.33,13.14,3.33,23.38
		C612.41,323.48,607.57,333.66,597.91,333.66 M575.38,382.64h2.56c5,0,7.51-1.36,7.51-4.1v-37.72c2.27,2.39,4.75,4.27,7.42,5.63
		c2.67,1.37,5.83,2.05,9.47,2.05c8.65,0,15.53-3.98,20.65-11.95c5.12-7.96,7.68-19.11,7.68-33.45c0-9.21-1.09-17.32-3.25-24.32
		c-2.16-7-5.26-12.4-9.3-16.21c-4.04-3.81-8.73-5.72-14.08-5.72c-3.98,0-7.65,1.08-11.01,3.24c-3.36,2.16-6.23,5.29-8.62,9.39
		c-0.11-0.68-0.34-1.99-0.68-3.93c-0.34-1.93-0.86-3.64-1.54-5.12c-0.68-1.48-1.88-2.22-3.58-2.22c-2.39,0-5.09,0.34-8.1,1.02
		c-3.02,0.69-4.52,1.77-4.52,3.25c0,0.57,0.31,2.59,0.94,6.06c0.62,3.47,0.94,8.9,0.94,16.3v93.7
		C567.87,381.28,570.37,382.64,575.38,382.64 M508.81,333.48c-7.74,0-11.61-4.1-11.61-12.29c0-6.71,2.41-11.29,7.25-13.74
		c4.83-2.45,11.4-3.73,19.71-3.84v21.34C520.31,330.64,515.19,333.48,508.81,333.48 M504.55,348.5c8.42,0,15.42-3.58,20.99-10.75
		c0.79,3.42,1.59,5.89,2.39,7.43c0.79,1.54,2.05,2.3,3.75,2.3c2.39,0,4.98-0.34,7.77-1.02c2.79-0.68,4.18-1.82,4.18-3.41
		c0-0.46-0.34-2.39-1.02-5.81c-0.69-3.41-1.02-8.93-1.02-16.55v-36.87c0-8.42-2.59-15.02-7.77-19.79
		c-5.18-4.78-12.71-7.17-22.61-7.17c-4.67,0-9.16,0.54-13.48,1.62c-4.33,1.08-7.82,2.42-10.5,4.01c-2.67,1.59-4.01,3.19-4.01,4.78
		c0,1.36,0.83,3.35,2.48,5.97c1.65,2.62,3.1,3.93,4.35,3.93c0.46,0,1.76-0.54,3.93-1.62c2.16-1.08,4.58-2.05,7.25-2.9
		c2.67-0.86,5.77-1.28,9.3-1.28c4.78,0,8.25,1.17,10.41,3.5c2.16,2.34,3.25,5.38,3.25,9.13v6.48c-13.55,0.12-24.3,2.62-32.26,7.51
		c-7.97,4.9-11.95,12.86-11.95,23.9c0,8.42,2.19,14.96,6.57,19.63C490.92,346.17,496.92,348.5,504.55,348.5"/>
	<linearGradient id="SVGID_3_" gradientUnits="userSpaceOnUse" x1="24.4255" y1="150.0517" x2="1332.6952" y2="150.0517">
		<stop  offset="0" style="stop-color:#003C41"/>
		<stop  offset="1" style="stop-color:#00E4BE"/>
	</linearGradient>
	<path class="st2" d="M1303.63,219.43c-5.46,0-9.62-0.97-12.46-2.9c-2.84-1.94-4.27-4.84-4.27-8.71c0-2.96,0.69-5.58,2.05-7.85
		c1.37-2.27,3.19-4.1,5.46-5.46c1.82,0.57,4.89,1.19,9.21,1.87c3.98,0.57,7.11,1.17,9.39,1.79c2.27,0.62,4.18,1.73,5.72,3.33
		c1.54,1.59,2.31,3.81,2.31,6.66C1321.04,215.67,1315.24,219.43,1303.63,219.43 M1303.12,151.16c-4.1,0-7.34-1.14-9.73-3.42
		c-2.39-2.27-3.58-6.31-3.58-12.12c0-6.25,1.17-10.58,3.5-12.97c2.33-2.39,5.6-3.58,9.81-3.58c4.1,0,7.37,1.19,9.82,3.58
		c2.45,2.39,3.67,6.72,3.67,12.97c0,5.8-1.22,9.84-3.67,12.12C1310.49,150.02,1307.22,151.16,1303.12,151.16 M1302.27,232.74
		c11.03,0,19.51-2.28,25.43-6.83c5.92-4.55,8.88-10.98,8.88-19.29c0-12.63-7.57-20.19-22.7-22.7l-4.1-0.69
		c-5.35-0.79-9.33-1.79-11.95-2.98c-2.62-1.2-3.92-3.39-3.92-6.57c0-5.92,3.75-8.99,11.26-9.22c8.42-0.34,15.02-3.1,19.8-8.27
		c4.78-5.18,7.17-11.92,7.17-20.23c0-5.46-1.37-10.52-4.1-15.19l0.34-0.34c1.36,0.23,4.27,0.34,8.7,0.34c1.25,0,2.13-0.43,2.65-1.28
		c0.51-0.85,0.77-2.24,0.77-4.18v-2.22c0-2.05-0.29-3.52-0.86-4.44c-0.57-0.91-1.54-1.37-2.9-1.37h-24.58
		c-3.42-0.79-6.38-1.19-8.88-1.19c-9.22,0-16.39,2.65-21.51,7.94c-5.12,5.29-7.68,12.54-7.68,21.76c0,12.17,4.27,20.37,12.8,24.58
		c-5.46,3.98-8.19,9.27-8.19,15.87c0,2.62,0.51,5.01,1.54,7.17c1.02,2.16,2.5,3.92,4.44,5.29v0.51c-4.21,2.05-7.51,4.92-9.9,8.62
		c-2.39,3.7-3.58,7.94-3.58,12.71c0,7.4,2.62,12.94,7.85,16.64C1284.29,230.89,1292.03,232.74,1302.27,232.74 M1231.13,196.9h1.87
		c5.12,0,7.68-1.42,7.68-4.27v-59.9c0.79-2.05,2.39-4.21,4.78-6.49c2.39-2.27,4.95-3.41,7.68-3.41c1.82,0,3.5,0.29,5.03,0.85
		c1.54,0.57,2.59,0.86,3.16,0.86c1.02,0,1.91-1.31,2.65-3.92c0.74-2.62,1.11-4.95,1.11-7c0-5-2.9-7.51-8.7-7.51
		c-6.26,0-11.89,4.32-16.9,12.97c-0.12-0.69-0.37-1.96-0.77-3.84c-0.4-1.87-0.97-3.64-1.71-5.29c-0.74-1.65-1.96-2.48-3.67-2.48
		c-2.39,0-5.01,0.34-7.85,1.02c-2.85,0.69-4.27,1.82-4.27,3.42c0,0.46,0.34,2.39,1.02,5.8c0.68,3.42,1.02,8.88,1.02,16.38v58.54
		C1223.28,195.48,1225.89,196.9,1231.13,196.9 M1158.79,197.92c4.32,0,8.33-1.17,12.03-3.5c3.7-2.33,6.85-5.49,9.47-9.47
		c0.11,0.91,0.34,2.36,0.69,4.35c0.34,1.99,0.82,3.7,1.45,5.12s1.85,2.13,3.67,2.13c2.27,0,4.95-0.34,8.02-1.02
		c3.07-0.69,4.6-1.76,4.6-3.24c0-0.57-0.28-2.56-0.85-5.98c-0.57-3.41-0.86-8.88-0.86-16.38v-58.54c0-2.84-2.45-4.27-7.34-4.27
		h-3.07c-4.89,0-7.34,1.42-7.34,4.27v61.44c-1.59,3.07-3.58,5.52-5.97,7.34c-2.39,1.82-5.01,2.73-7.85,2.73
		c-3.42,0-6-1.08-7.77-3.25c-1.77-2.16-2.65-5.29-2.65-9.39v-58.88c0-2.84-2.5-4.27-7.51-4.27h-2.9c-4.89,0-7.34,1.42-7.34,4.27
		v61.95c0,7.85,1.88,13.91,5.63,18.18C1146.68,195.79,1151.97,197.92,1158.79,197.92 M1086.29,182.91c-2.5,0-4.92-0.88-7.25-2.65
		c-2.33-1.77-4.46-4.24-6.4-7.43V127.1c3.42-4.1,7.51-6.15,12.29-6.15c4.89,0,8.53,2.48,10.92,7.42c2.39,4.95,3.58,12.61,3.58,22.96
		c0,10.36-1.11,18.21-3.33,23.55C1093.89,180.23,1090.61,182.91,1086.29,182.91 M1091.24,197.75c5.23,0,9.84-1.9,13.82-5.72
		c3.98-3.81,7.09-9.19,9.3-16.13c2.22-6.94,3.33-15.07,3.33-24.4c0-14.34-2.53-25.49-7.59-33.45c-5.06-7.96-11.92-11.95-20.56-11.95
		c-3.76,0-6.94,0.68-9.56,2.05c-2.62,1.36-5.06,3.24-7.34,5.63V72.31c0-2.84-2.5-4.27-7.51-4.27h-2.73c-5.01,0-7.51,1.42-7.51,4.27
		v120.33c0,2.85,2.33,4.27,7,4.27h1.19c1.93,0,3.38-0.25,4.35-0.77s1.68-1.56,2.13-3.16c0.69-2.16,1.25-4.78,1.71-7.85
		c2.5,4.1,5.46,7.23,8.88,9.39C1083.56,196.67,1087.26,197.75,1091.24,197.75 M978.46,196.9h3.07c4.89,0,7.34-1.42,7.34-4.27v-61.44
		c1.59-3.07,3.58-5.52,5.97-7.34c2.39-1.82,4.95-2.73,7.68-2.73c6.94,0,10.41,4.5,10.41,13.48v58.03c0,2.85,2.56,4.27,7.68,4.27h2.9
		c4.89,0,7.34-1.42,7.34-4.27v-60.59c0-8.19-1.82-14.56-5.46-19.11c-3.65-4.55-8.88-6.83-15.7-6.83c-4.44,0-8.54,1.17-12.29,3.5
		c-3.75,2.33-6.94,5.49-9.56,9.47c-0.11-0.91-0.34-2.36-0.68-4.36c-0.34-1.99-0.83-3.69-1.45-5.12c-0.62-1.42-1.85-2.14-3.67-2.14
		c-2.16,0-4.81,0.37-7.94,1.11c-3.13,0.74-4.69,1.85-4.69,3.33c0,0.46,0.28,2.39,0.85,5.8c0.57,3.42,0.86,8.88,0.86,16.38v58.54
		C971.12,195.48,973.56,196.9,978.46,196.9 M905.78,145.87c0.45-8.88,1.93-15.36,4.44-19.46c2.5-4.1,6.2-6.15,11.1-6.15
		c4.55,0,7.91,2.1,10.07,6.31c2.16,4.21,3.24,10.64,3.24,19.29H905.78z M924.04,197.75c4.1,0,8.16-0.57,12.2-1.71
		c4.04-1.14,7.34-2.59,9.9-4.36c2.56-1.76,3.84-3.5,3.84-5.21c0-1.36-0.79-3.35-2.39-5.97c-1.6-2.62-3.07-3.92-4.44-3.92
		c-0.34,0-1.39,0.6-3.16,1.79c-1.76,1.19-3.9,2.3-6.4,3.33c-2.5,1.02-5.63,1.54-9.39,1.54c-5.92,0-10.33-1.9-13.23-5.72
		c-2.9-3.81-4.58-9.98-5.04-18.52h39.6c1.02,0,2.39-1.02,4.1-3.07c1.71-2.05,2.56-3.64,2.56-4.78c0-14.68-2.54-25.86-7.6-33.54
		c-5.06-7.68-12.71-11.52-22.96-11.52c-11.04,0-19.48,3.84-25.34,11.52c-5.86,7.68-8.79,19.32-8.79,34.9
		c0,15.13,3.01,26.45,9.04,33.96C902.6,194,911.75,197.75,924.04,197.75 M872.02,107.3h-9.73v-15.7c0-3.75,0.54-6.31,1.62-7.68
		c1.08-1.36,2.7-2.04,4.86-2.04c1.25,0,2.45,0.17,3.58,0.51c1.14,0.34,1.88,0.51,2.22,0.51c1.14,0,2.13-1.25,2.99-3.75
		c0.86-2.5,1.28-4.38,1.28-5.63c0-2.05-1.4-3.58-4.18-4.61c-2.79-1.02-5.77-1.54-8.96-1.54c-5.8,0-10.73,1.77-14.76,5.29
		c-4.04,3.53-6.06,9.56-6.06,18.09v16.56h-31.4v-15.7c0-3.75,0.54-6.31,1.63-7.68c1.08-1.36,2.7-2.04,4.86-2.04
		c1.25,0,2.44,0.17,3.58,0.51c1.13,0.34,1.87,0.51,2.22,0.51c1.14,0,2.13-1.25,2.99-3.75c0.85-2.5,1.28-4.38,1.28-5.63
		c0-2.05-1.4-3.58-4.18-4.61c-2.79-1.02-5.77-1.54-8.96-1.54c-5.8,0-10.73,1.77-14.76,5.29c-4.04,3.53-6.06,9.56-6.06,18.09v16.56
		h-4.1c-1.36,0-2.36,0.48-2.98,1.45c-0.63,0.97-0.94,2.53-0.94,4.69v2.22c0,2.16,0.31,3.73,0.94,4.69c0.62,0.97,1.62,1.45,2.98,1.45
		h4.1v70.83c0,2.85,2.62,4.27,7.85,4.27h1.71c5.23,0,7.85-1.42,7.85-4.27V121.8h31.4v70.83c0,2.85,2.62,4.27,7.85,4.27h1.71
		c5.23,0,7.85-1.42,7.85-4.27V121.8h9.73c1.37,0,2.36-0.48,2.99-1.45c0.62-0.96,0.94-2.53,0.94-4.69v-2.22
		c0-2.16-0.31-3.73-0.94-4.69C874.38,107.78,873.39,107.3,872.02,107.3 M734.32,182.73c-7.74,0-11.61-4.1-11.61-12.29
		c0-6.71,2.42-11.29,7.25-13.74c4.83-2.45,11.4-3.73,19.71-3.84v21.34C745.81,179.89,740.69,182.73,734.32,182.73 M730.05,197.75
		c8.42,0,15.42-3.58,20.99-10.75c0.79,3.42,1.59,5.89,2.39,7.43c0.79,1.54,2.05,2.3,3.75,2.3c2.39,0,4.98-0.34,7.77-1.02
		c2.79-0.68,4.18-1.82,4.18-3.41c0-0.46-0.34-2.39-1.02-5.81c-0.69-3.41-1.02-8.93-1.02-16.55v-36.87c0-8.42-2.59-15.02-7.77-19.79
		c-5.18-4.78-12.71-7.17-22.61-7.17c-4.67,0-9.16,0.54-13.48,1.62c-4.33,1.08-7.82,2.42-10.5,4.01s-4.01,3.19-4.01,4.78
		c0,1.36,0.83,3.35,2.48,5.97c1.65,2.62,3.1,3.93,4.35,3.93c0.46,0,1.76-0.54,3.93-1.62c2.16-1.08,4.58-2.05,7.25-2.9
		c2.67-0.86,5.77-1.28,9.3-1.28c4.78,0,8.25,1.17,10.41,3.5c2.16,2.34,3.25,5.38,3.25,9.13v6.48c-13.55,0.12-24.3,2.62-32.26,7.51
		c-7.97,4.9-11.95,12.86-11.95,23.9c0,8.42,2.19,14.96,6.57,19.63C716.43,195.42,722.43,197.75,730.05,197.75 M632.97,196.9h2.9
		c5.01,0,7.51-1.42,7.51-4.27v-61.44c0.91-2.27,2.59-4.52,5.04-6.74c2.45-2.22,5.32-3.33,8.62-3.33c7.05,0,10.58,4.5,10.58,13.48
		v58.03c0,2.85,2.5,4.27,7.51,4.27h2.9c4.89,0,7.34-1.42,7.34-4.27v-60.59c0-8.65-1.96-15.13-5.89-19.46
		c-3.92-4.32-8.96-6.48-15.1-6.48c-4.33,0-8.28,1.05-11.86,3.16c-3.58,2.1-6.63,4.92-9.13,8.45v-45.4c0-2.84-2.45-4.27-7.34-4.27
		h-3.07c-5.01,0-7.51,1.42-7.51,4.27v120.33C625.46,195.48,627.97,196.9,632.97,196.9 M585.21,197.75c3.07,0,6.46-0.48,10.16-1.45
		c3.69-0.96,6.83-2.19,9.39-3.67c2.56-1.48,3.84-3.01,3.84-4.61c0-1.59-0.71-3.64-2.13-6.14c-1.42-2.5-2.81-3.76-4.18-3.76
		c-0.23,0-0.54,0.17-0.94,0.51c-0.4,0.34-0.88,0.63-1.45,0.86c-1.94,1.14-3.95,2.05-6.06,2.73c-2.11,0.69-4.64,1.02-7.6,1.02
		c-6.6,0-11.32-2.5-14.17-7.51c-2.84-5-4.27-13.14-4.27-24.41c0-10.92,1.51-18.77,4.52-23.55c3.01-4.78,7.59-7.17,13.74-7.17
		c2.62,0,4.92,0.37,6.91,1.11c1.99,0.74,4.07,1.68,6.23,2.81c0.91,0.57,1.65,0.86,2.22,0.86c1.02,0,2.27-1.31,3.75-3.93
		c1.48-2.62,2.22-4.72,2.22-6.31c0-2.39-2.34-4.49-7-6.31c-4.67-1.82-9.79-2.73-15.36-2.73c-11.49,0-20.31,3.53-26.46,10.58
		c-6.14,7.06-9.21,18.72-9.21,34.99c0,16.05,2.96,27.73,8.88,35.07C564.17,194.09,573.15,197.75,585.21,197.75 M508.62,198.1
		c7.96,0,14.48-2.45,19.54-7.34c5.06-4.89,7.59-11.27,7.59-19.12c0-6.94-1.53-12.43-4.6-16.47c-3.07-4.04-7.74-7.65-14-10.84
		c-4.44-2.5-7.74-4.72-9.9-6.66c-2.16-1.93-3.24-4.55-3.24-7.85c0-2.84,1.02-5.06,3.07-6.66c2.05-1.59,4.6-2.39,7.68-2.39
		c3.19,0,5.95,0.66,8.28,1.96c2.33,1.31,3.61,1.96,3.84,1.96c1.02,0,2.25-1.36,3.67-4.09c1.42-2.73,2.13-4.89,2.13-6.49
		c0-2.27-2.08-4.18-6.23-5.72c-4.16-1.54-8.68-2.3-13.57-2.3c-7.63,0-13.86,2.28-18.69,6.83c-4.84,4.55-7.25,10.64-7.25,18.26
		c0,6.48,1.48,11.63,4.44,15.44c2.96,3.82,7.4,7.2,13.31,10.16c4.89,2.5,8.5,4.86,10.84,7.08c2.33,2.22,3.5,5.09,3.5,8.62
		c0,3.41-1.02,6.03-3.07,7.85s-4.95,2.73-8.71,2.73c-2.5,0-4.75-0.43-6.74-1.28c-1.99-0.86-3.84-1.85-5.54-2.99
		c-1.71-1.14-2.73-1.71-3.07-1.71c-1.14,0-2.56,1.31-4.27,3.92c-1.71,2.62-2.56,4.72-2.56,6.31c0,1.6,1.11,3.24,3.33,4.95
		c2.22,1.71,5.14,3.1,8.79,4.18C500.82,197.55,504.63,198.1,508.62,198.1 M433.55,182.73c-7.74,0-11.61-4.1-11.61-12.29
		c0-6.71,2.41-11.29,7.25-13.74c4.83-2.45,11.4-3.73,19.71-3.84v21.34C445.04,179.89,439.92,182.73,433.55,182.73 M429.28,197.75
		c8.42,0,15.42-3.58,20.99-10.75c0.79,3.42,1.59,5.89,2.39,7.43c0.79,1.54,2.05,2.3,3.75,2.3c2.39,0,4.98-0.34,7.77-1.02
		c2.79-0.68,4.18-1.82,4.18-3.41c0-0.46-0.34-2.39-1.02-5.81c-0.69-3.41-1.02-8.93-1.02-16.55v-36.87c0-8.42-2.59-15.02-7.77-19.79
		c-5.18-4.78-12.71-7.17-22.61-7.17c-4.67,0-9.16,0.54-13.48,1.62c-4.33,1.08-7.82,2.42-10.5,4.01c-2.67,1.59-4.01,3.19-4.01,4.78
		c0,1.36,0.83,3.35,2.48,5.97c1.65,2.62,3.1,3.93,4.35,3.93c0.46,0,1.76-0.54,3.93-1.62c2.16-1.08,4.58-2.05,7.25-2.9
		c2.67-0.86,5.77-1.28,9.3-1.28c4.78,0,8.25,1.17,10.41,3.5c2.16,2.34,3.25,5.38,3.25,9.13v6.48c-13.55,0.12-24.3,2.62-32.26,7.51
		c-7.97,4.9-11.95,12.86-11.95,23.9c0,8.42,2.19,14.96,6.57,19.63C415.66,195.42,421.66,197.75,429.28,197.75"/>
</g>
</svg>
