<?xml version="1.0" encoding="utf-8"?>
<!-- Generator: Adobe Illustrator 24.0.1, SVG Export Plug-In . SVG Version: 6.00 Build 0)  -->
<svg version="1.1" id="Ebene_1" xmlns="http://www.w3.org/2000/svg" xmlns:xlink="http://www.w3.org/1999/xlink" x="0px" y="0px"
	 viewBox="0 0 1366 450" style="enable-background:new 0 0 1366 450;" xml:space="preserve">
<style type="text/css">
	.st0{fill:url(#SVGID_1_);}
	.st1{fill:url(#SVGID_2_);}
	.st2{fill:url(#SVGID_3_);stroke:#009684;stroke-width:0.189;stroke-miterlimit:1;}
	.st3{fill:url(#SVGID_4_);}
	.st4{fill:url(#SVGID_5_);stroke:#009684;stroke-width:0.189;stroke-miterlimit:1;}
</style>
<g>
	<linearGradient id="SVGID_1_" gradientUnits="userSpaceOnUse" x1="19" y1="225" x2="1321.0311" y2="225">
		<stop  offset="0" style="stop-color:#003C41"/>
		<stop  offset="0.1152" style="stop-color:#004548"/>
		<stop  offset="0.3069" style="stop-color:#005F5B"/>
		<stop  offset="0.5514" style="stop-color:#00887A"/>
		<stop  offset="0.8363" style="stop-color:#00C1A4"/>
		<stop  offset="0.9944" style="stop-color:#00E4BE"/>
	</linearGradient>
	<path class="st0" d="M316.18,271.39c-0.07,41.42-33.83,75.19-75.26,75.26c-39.23-0.07-71.41-29.83-74.92-68.44h12.46
		c23.31,0,42.27-18.97,42.28-42.28v-39.79l19.93,0l0.33-0.01C282.38,196.27,316.1,230.01,316.18,271.39 M196.61,235.93
		c-0.02,10-8.16,18.14-18.15,18.16h-12.79V103.58h12.78c10,0.02,18.14,8.16,18.16,18.16V235.93z M141.53,103.58v150.51H125.5
		l-0.43,0.02c-0.62,0.03-1.19,0.07-1.72,0.11c-0.9,0.06-1.69,0.12-2.23,0.11c-41.56-0.07-75.42-33.94-75.5-75.49
		c0.07-41.55,33.94-75.42,75.51-75.5c0.01,0,0.03,0,0.04,0c0.53,0,1.29,0.05,2.18,0.11c0.52,0.03,1.09,0.07,1.72,0.11l0.22,0.01
		L141.53,103.58z M311.19,201.12c-18.77-18.77-43.73-29.11-70.28-29.11l-0.33,0.01l-18.41-0.01v-52.48
		c-0.01-22.22-18.09-40.31-40.32-40.32h-40.32v0.23h-15.47c-0.3-0.02-0.61-0.04-0.94-0.06c-1.07-0.07-2.41-0.17-4-0.17
		c-26.61,0-51.63,10.36-70.44,29.18c-18.81,18.81-29.17,43.83-29.18,70.44c0,26.61,10.37,51.62,29.18,70.44
		c18.81,18.81,43.83,29.18,70.45,29.18c1.58-0.01,2.91-0.1,3.98-0.17c0.34-0.02,0.66-0.04,0.95-0.06h15.73
		c1.66,24.5,12.2,47.28,29.92,64.49c18.64,18.1,43.21,28.07,69.21,28.08c26.55,0,51.51-10.34,70.28-29.11
		c18.77-18.77,29.11-43.72,29.11-70.27C340.3,244.85,329.96,219.89,311.19,201.12"/>
	<linearGradient id="SVGID_2_" gradientUnits="userSpaceOnUse" x1="19" y1="316.1473" x2="1321.0311" y2="316.1473">
		<stop  offset="0" style="stop-color:#003C41"/>
		<stop  offset="0.1152" style="stop-color:#004548"/>
		<stop  offset="0.3069" style="stop-color:#005F5B"/>
		<stop  offset="0.5514" style="stop-color:#00887A"/>
		<stop  offset="0.8363" style="stop-color:#00C1A4"/>
		<stop  offset="0.9944" style="stop-color:#00E4BE"/>
	</linearGradient>
	<path class="st1" d="M659.13,325.84c-4.41,0-8.55-0.98-12.42-2.95c-3.88-1.96-7.3-4.57-10.27-7.83V284.9
		c2.97-3.25,6.39-5.86,10.27-7.83c3.88-1.96,8.02-2.95,12.42-2.95c7.09,0,12.78,2.25,17.09,6.75c4.31,4.5,6.47,10.87,6.47,19.1
		c0,8.24-2.16,14.61-6.47,19.1C671.91,323.59,666.21,325.84,659.13,325.84 M629.83,370.37c1.91,0,3.49-0.62,4.74-1.87
		c1.25-1.24,1.87-2.82,1.87-4.74v-36.62c6.99,7.28,15.18,10.91,24.56,10.91c5.94,0,11.56-1.51,16.88-4.52
		c5.31-3.02,9.62-7.42,12.93-13.22c3.31-5.79,4.96-12.57,4.96-20.33c0-7.76-1.65-14.53-4.96-20.32c-3.3-5.8-7.61-10.2-12.93-13.22
		c-5.31-3.02-10.94-4.52-16.88-4.52c-9.39,0-17.57,3.64-24.56,10.91v-3.73c0-1.82-0.65-3.35-1.94-4.6
		c-1.29-1.24-2.85-1.87-4.67-1.87c-1.82,0-3.35,0.63-4.6,1.87c-1.25,1.25-1.87,2.78-1.87,4.6v94.66c0,1.82,0.62,3.38,1.87,4.67
		C626.48,369.72,628.01,370.37,629.83,370.37 M568.5,325.84c-4.41,0-8.55-0.98-12.43-2.95c-3.88-1.96-7.3-4.57-10.27-7.83V284.9
		c2.96-3.25,6.39-5.86,10.27-7.83c3.88-1.96,8.02-2.95,12.43-2.95c7.08,0,12.78,2.25,17.09,6.75c4.31,4.5,6.47,10.87,6.47,19.1
		c0,8.24-2.16,14.61-6.47,19.1C581.28,323.59,575.58,325.84,568.5,325.84 M539.2,370.37c1.92,0,3.49-0.62,4.74-1.87
		c1.24-1.24,1.87-2.82,1.87-4.74v-36.62c6.99,7.28,15.17,10.91,24.56,10.91c5.94,0,11.56-1.51,16.88-4.52
		c5.32-3.02,9.62-7.42,12.93-13.22c3.3-5.79,4.95-12.57,4.95-20.33c0-7.76-1.65-14.53-4.95-20.32c-3.31-5.8-7.61-10.2-12.93-13.22
		c-5.31-3.02-10.94-4.52-16.88-4.52c-9.39,0-17.57,3.64-24.56,10.91v-3.73c0-1.82-0.65-3.35-1.94-4.6
		c-1.29-1.24-2.85-1.87-4.67-1.87c-1.82,0-3.35,0.63-4.6,1.87c-1.25,1.25-1.87,2.78-1.87,4.6v94.66c0,1.82,0.62,3.38,1.87,4.67
		C535.84,369.72,537.38,370.37,539.2,370.37 M475.57,326.56c-5.46,0-9.36-1.05-11.71-3.16c-2.35-2.1-3.52-4.88-3.52-8.33
		c0-7.56,7.23-11.35,21.69-11.35h15.66v12.07c-2.69,3.07-5.99,5.63-9.91,7.69C483.85,325.53,479.78,326.56,475.57,326.56
		 M470.69,338.05c10.91,0,19.92-3.64,27-10.91v3.73c0,1.82,0.62,3.35,1.86,4.6c1.25,1.24,2.78,1.87,4.6,1.87s3.38-0.63,4.67-1.87
		c1.29-1.24,1.94-2.78,1.94-4.6v-40.65c0-4.97-1.08-9.6-3.23-13.86c-2.16-4.26-5.51-7.73-10.05-10.41
		c-4.55-2.68-10.12-4.02-16.73-4.02c-8.43,0-16.71,1.72-24.85,5.17c-2.49,1.06-3.73,2.87-3.73,5.46c0,1.53,0.53,2.83,1.58,3.88
		c1.06,1.06,2.3,1.58,3.74,1.58c0.48,0,1.1-0.1,1.87-0.29c3.45-1.15,6.58-2.01,9.41-2.59c2.82-0.57,6.05-0.86,9.69-0.86
		c6.61,0,11.47,1.39,14.58,4.17c3.11,2.78,4.67,7.33,4.67,13.64v1.15h-17.38c-10.82,0-19.03,2.11-24.63,6.32
		c-5.61,4.21-8.4,9.86-8.4,16.95c0,4.31,1.05,8.12,3.16,11.42c2.1,3.31,4.95,5.82,8.55,7.54
		C462.57,337.19,466.47,338.05,470.69,338.05"/>
	<linearGradient id="SVGID_3_" gradientUnits="userSpaceOnUse" x1="19" y1="316.1473" x2="1321.0311" y2="316.1473">
		<stop  offset="0" style="stop-color:#003C41"/>
		<stop  offset="0.1152" style="stop-color:#004548"/>
		<stop  offset="0.3069" style="stop-color:#005F5B"/>
		<stop  offset="0.5514" style="stop-color:#00887A"/>
		<stop  offset="0.8363" style="stop-color:#00C1A4"/>
		<stop  offset="0.9944" style="stop-color:#00E4BE"/>
	</linearGradient>
	<path class="st2" d="M659.13,325.84c-4.41,0-8.55-0.98-12.42-2.95c-3.88-1.96-7.3-4.57-10.27-7.83V284.9
		c2.97-3.25,6.39-5.86,10.27-7.83c3.88-1.96,8.02-2.95,12.42-2.95c7.09,0,12.78,2.25,17.09,6.75c4.31,4.5,6.47,10.87,6.47,19.1
		c0,8.24-2.16,14.61-6.47,19.1C671.91,323.59,666.21,325.84,659.13,325.84z M629.83,370.37c1.91,0,3.49-0.62,4.74-1.87
		c1.25-1.24,1.87-2.82,1.87-4.74v-36.62c6.99,7.28,15.18,10.91,24.56,10.91c5.94,0,11.56-1.51,16.88-4.52
		c5.31-3.02,9.62-7.42,12.93-13.22c3.31-5.79,4.96-12.57,4.96-20.33c0-7.76-1.65-14.53-4.96-20.32c-3.3-5.8-7.61-10.2-12.93-13.22
		c-5.31-3.02-10.94-4.52-16.88-4.52c-9.39,0-17.57,3.64-24.56,10.91v-3.73c0-1.82-0.65-3.35-1.94-4.6
		c-1.29-1.24-2.85-1.87-4.67-1.87c-1.82,0-3.35,0.63-4.6,1.87c-1.25,1.25-1.87,2.78-1.87,4.6v94.66c0,1.82,0.62,3.38,1.87,4.67
		C626.48,369.72,628.01,370.37,629.83,370.37z M568.5,325.84c-4.41,0-8.55-0.98-12.43-2.95c-3.88-1.96-7.3-4.57-10.27-7.83V284.9
		c2.96-3.25,6.39-5.86,10.27-7.83c3.88-1.96,8.02-2.95,12.43-2.95c7.08,0,12.78,2.25,17.09,6.75c4.31,4.5,6.47,10.87,6.47,19.1
		c0,8.24-2.16,14.61-6.47,19.1C581.28,323.59,575.58,325.84,568.5,325.84z M539.2,370.37c1.92,0,3.49-0.62,4.74-1.87
		c1.24-1.24,1.87-2.82,1.87-4.74v-36.62c6.99,7.28,15.17,10.91,24.56,10.91c5.94,0,11.56-1.51,16.88-4.52
		c5.32-3.02,9.62-7.42,12.93-13.22c3.3-5.79,4.95-12.57,4.95-20.33c0-7.76-1.65-14.53-4.95-20.32c-3.31-5.8-7.61-10.2-12.93-13.22
		c-5.31-3.02-10.94-4.52-16.88-4.52c-9.39,0-17.57,3.64-24.56,10.91v-3.73c0-1.82-0.65-3.35-1.94-4.6
		c-1.29-1.24-2.85-1.87-4.67-1.87c-1.82,0-3.35,0.63-4.6,1.87c-1.25,1.25-1.87,2.78-1.87,4.6v94.66c0,1.82,0.62,3.38,1.87,4.67
		C535.84,369.72,537.38,370.37,539.2,370.37z M475.57,326.56c-5.46,0-9.36-1.05-11.71-3.16c-2.35-2.1-3.52-4.88-3.52-8.33
		c0-7.56,7.23-11.35,21.69-11.35h15.66v12.07c-2.69,3.07-5.99,5.63-9.91,7.69C483.85,325.53,479.78,326.56,475.57,326.56z
		 M470.69,338.05c10.91,0,19.92-3.64,27-10.91v3.73c0,1.82,0.62,3.35,1.86,4.6c1.25,1.24,2.78,1.87,4.6,1.87s3.38-0.63,4.67-1.87
		c1.29-1.24,1.94-2.78,1.94-4.6v-40.65c0-4.97-1.08-9.6-3.23-13.86c-2.16-4.26-5.51-7.73-10.05-10.41
		c-4.55-2.68-10.12-4.02-16.73-4.02c-8.43,0-16.71,1.72-24.85,5.17c-2.49,1.06-3.73,2.87-3.73,5.46c0,1.53,0.53,2.83,1.58,3.88
		c1.06,1.06,2.3,1.58,3.74,1.58c0.48,0,1.1-0.1,1.87-0.29c3.45-1.15,6.58-2.01,9.41-2.59c2.82-0.57,6.05-0.86,9.69-0.86
		c6.61,0,11.47,1.39,14.58,4.17c3.11,2.78,4.67,7.33,4.67,13.64v1.15h-17.38c-10.82,0-19.03,2.11-24.63,6.32
		c-5.61,4.21-8.4,9.86-8.4,16.95c0,4.31,1.05,8.12,3.16,11.42c2.1,3.31,4.95,5.82,8.55,7.54
		C462.57,337.19,466.47,338.05,470.69,338.05z"/>
	<linearGradient id="SVGID_4_" gradientUnits="userSpaceOnUse" x1="19" y1="150.009" x2="1321.0311" y2="150.009">
		<stop  offset="0" style="stop-color:#003C41"/>
		<stop  offset="0.1152" style="stop-color:#004548"/>
		<stop  offset="0.3069" style="stop-color:#005F5B"/>
		<stop  offset="0.5514" style="stop-color:#00887A"/>
		<stop  offset="0.8363" style="stop-color:#00C1A4"/>
		<stop  offset="0.9944" style="stop-color:#00E4BE"/>
	</linearGradient>
	<path class="st3" d="M1309.6,174c-7.18,0-13.05-2.18-17.6-6.54c-4.55-4.35-6.82-10.65-6.82-18.89c0-8.23,2.27-14.53,6.82-18.89
		c4.55-4.35,10.41-6.53,17.6-6.53c4.5,0,8.47,0.96,11.92,2.87c3.45,1.92,6.75,4.5,9.91,7.76v29.59c-3.16,3.26-6.46,5.84-9.91,7.76
		C1318.07,173.04,1314.1,174,1309.6,174 M1310.75,220.39c10.82,0,19.15-3.25,24.99-9.77c5.84-6.51,8.76-15.8,8.76-27.86v-64.21
		c0-1.82-0.65-3.38-1.94-4.67c-1.29-1.29-2.85-1.94-4.67-1.94c-1.82,0-3.35,0.64-4.6,1.94c-1.25,1.29-1.87,2.85-1.87,4.67v3.59
		c-6.8-7.28-14.99-10.92-24.56-10.92c-5.65,0-11.13,1.42-16.45,4.24c-5.31,2.82-9.7,7.03-13.14,12.64
		c-3.45,5.6-5.17,12.42-5.17,20.46c0,8.05,1.72,14.87,5.17,20.47c3.45,5.6,7.83,9.82,13.14,12.64c5.31,2.83,10.79,4.24,16.45,4.24
		c9.57,0,17.76-3.64,24.56-10.91v9.62c0,15.61-7.33,23.41-21.97,23.41c-8.52,0-16.42-1.82-23.7-5.46c-0.96-0.38-1.82-0.57-2.59-0.57
		c-1.63,0-2.99,0.6-4.09,1.79c-1.1,1.19-1.65,2.56-1.65,4.09c0,2.3,0.86,3.98,2.59,5.03c3.64,2.11,8.28,3.88,13.93,5.31
		C1299.59,219.67,1305.2,220.39,1310.75,220.39 M1230.18,186.64c1.82,0,3.38-0.63,4.67-1.87c1.29-1.24,1.94-2.78,1.94-4.6v-43.66
		c2.59-3.93,5.79-7.02,9.62-9.27c3.83-2.25,8.04-3.38,12.64-3.38h0.72c1.92,0,3.5-0.57,4.74-1.72c1.24-1.15,1.87-2.63,1.87-4.45
		c0-1.82-0.6-3.35-1.79-4.6c-1.2-1.24-2.71-1.87-4.52-1.87h-0.72c-8.33,0-15.85,4.51-22.55,13.5v-6.18c0-1.82-0.65-3.38-1.94-4.67
		c-1.29-1.29-2.85-1.94-4.67-1.94c-1.82,0-3.35,0.64-4.6,1.94c-1.24,1.29-1.87,2.85-1.87,4.67v61.62c0,1.82,0.63,3.35,1.87,4.6
		S1228.35,186.64,1230.18,186.64 M1161.23,187.35c5.75,0,10.72-1.2,14.94-3.59c4.21-2.39,8.14-5.61,11.78-9.62v5.89
		c0,1.82,0.65,3.38,1.94,4.67c1.29,1.29,2.85,1.94,4.67,1.94c1.82,0,3.35-0.65,4.6-1.94c1.24-1.29,1.87-2.85,1.87-4.67v-61.62
		c0-1.82-0.63-3.35-1.87-4.6c-1.25-1.24-2.78-1.86-4.6-1.86c-1.82,0-3.37,0.62-4.67,1.86c-1.29,1.25-1.94,2.78-1.94,4.6v43.09
		c-3.35,4.21-6.92,7.56-10.7,10.05c-3.78,2.49-8.07,3.73-12.85,3.73c-10.54,0-15.8-5.84-15.8-17.52v-39.36
		c0-1.82-0.63-3.35-1.87-4.6c-1.25-1.24-2.78-1.86-4.6-1.86c-1.82,0-3.38,0.62-4.67,1.86c-1.29,1.25-1.94,2.78-1.94,4.6v40.79
		c0,5.17,1.03,9.91,3.09,14.22c2.06,4.31,5.03,7.71,8.91,10.2C1151.4,186.11,1155.97,187.35,1161.23,187.35 M1081.38,175.14
		c-4.41,0-8.55-0.98-12.43-2.95c-3.88-1.96-7.3-4.57-10.27-7.83v-30.16c2.97-3.25,6.39-5.87,10.27-7.83
		c3.88-1.96,8.02-2.95,12.43-2.95c7.08,0,12.78,2.25,17.09,6.75c4.31,4.5,6.47,10.87,6.47,19.1c0,8.23-2.16,14.6-6.47,19.1
		C1094.16,172.9,1088.46,175.14,1081.38,175.14 M1083.25,187.35c5.94,0,11.56-1.51,16.88-4.52c5.31-3.02,9.62-7.42,12.93-13.22
		c3.31-5.79,4.96-12.57,4.96-20.32c0-7.76-1.65-14.53-4.96-20.33c-3.3-5.79-7.61-10.2-12.93-13.21c-5.31-3.02-10.94-4.53-16.88-4.53
		c-9.39,0-17.57,3.64-24.56,10.92V86.95c0-1.92-0.63-3.5-1.87-4.74c-1.25-1.24-2.82-1.87-4.74-1.87c-1.82,0-3.35,0.65-4.6,1.94
		c-1.24,1.29-1.86,2.85-1.86,4.67v93.22c0,1.82,0.62,3.35,1.86,4.6c1.25,1.24,2.78,1.87,4.6,1.87c1.82,0,3.38-0.63,4.67-1.87
		c1.29-1.24,1.94-2.78,1.94-4.6v-3.73C1065.68,183.72,1073.86,187.35,1083.25,187.35 M964.62,186.64c1.82,0,3.37-0.63,4.67-1.87
		c1.29-1.24,1.94-2.78,1.94-4.6v-43.09c3.35-4.21,6.92-7.56,10.7-10.05c3.78-2.49,8.06-3.74,12.85-3.74
		c10.53,0,15.8,5.84,15.8,17.52v39.36c0,1.82,0.62,3.35,1.87,4.6c1.24,1.24,2.78,1.87,4.6,1.87c1.82,0,3.38-0.63,4.67-1.87
		c1.29-1.24,1.94-2.78,1.94-4.6v-40.79c0-5.17-1.03-9.91-3.08-14.22c-2.06-4.31-5.03-7.71-8.91-10.2
		c-3.88-2.49-8.45-3.74-13.72-3.74c-5.74,0-10.72,1.2-14.93,3.59c-4.21,2.39-8.14,5.6-11.78,9.62v-5.89c0-1.82-0.65-3.38-1.94-4.67
		c-1.29-1.29-2.85-1.94-4.67-1.94c-1.82,0-3.35,0.64-4.6,1.94c-1.25,1.29-1.87,2.85-1.87,4.67v61.62c0,1.82,0.62,3.35,1.87,4.6
		C961.26,186.01,962.79,186.64,964.62,186.64 M885.62,143.26c0.29-4.69,1.49-8.62,3.59-11.77c2.1-3.16,4.74-5.48,7.9-6.97
		c3.16-1.48,6.37-2.22,9.62-2.22c3.25,0,6.47,0.74,9.62,2.22c3.16,1.49,5.82,3.81,7.97,6.97c2.15,3.16,3.37,7.09,3.66,11.77H885.62z
		 M909.6,187.35c5.75,0,10.44-0.53,14.08-1.58c3.64-1.05,7.33-2.63,11.06-4.74c2.49-1.43,3.74-3.21,3.74-5.31
		c0-1.63-0.58-2.97-1.72-4.02c-1.15-1.06-2.49-1.58-4.02-1.58c-0.96,0-1.82,0.19-2.59,0.57c-2.87,1.44-5.81,2.54-8.83,3.31
		c-3.02,0.76-6.53,1.15-10.55,1.15c-7.56,0-13.46-1.87-17.67-5.6c-4.21-3.74-6.7-8.95-7.47-15.65h48.69c2.01,0,3.61-0.63,4.81-1.87
		c1.2-1.24,1.8-2.78,1.8-4.6c0-6.51-1.34-12.52-4.02-18.03c-2.68-5.51-6.61-9.91-11.78-13.21c-5.17-3.3-11.3-4.96-18.38-4.96
		c-7.56,0-13.93,1.77-19.1,5.31c-5.17,3.55-9,8.19-11.49,13.93c-2.49,5.74-3.73,12.02-3.73,18.82c0,12.07,3.28,21.43,9.84,28.08
		C888.8,184.03,897.92,187.35,909.6,187.35 M781.78,186.64c1.82,0,3.38-0.63,4.67-1.87c1.29-1.24,1.94-2.78,1.94-4.6v-56.31h43.51
		v56.31c0,1.82,0.63,3.35,1.87,4.6c1.24,1.24,2.78,1.87,4.6,1.87c1.82,0,3.38-0.63,4.67-1.87c1.29-1.24,1.94-2.78,1.94-4.6v-56.31
		h17.95c1.63,0,2.96-0.55,4.02-1.65c1.05-1.1,1.58-2.42,1.58-3.95c0-1.63-0.53-2.97-1.58-4.02c-1.06-1.06-2.39-1.58-4.02-1.58
		h-17.95v-7.9c0-4.79,0.98-8.09,2.94-9.91c1.96-1.82,4.91-2.73,8.83-2.73c0.29,0,1.58,0.14,3.88,0.43c1.15,0.29,2.25,0.43,3.3,0.43
		c1.43,0,2.68-0.55,3.73-1.65c1.06-1.1,1.58-2.37,1.58-3.81c0-1.05-0.31-2.03-0.93-2.95c-0.62-0.91-1.41-1.6-2.37-2.08
		c-3.83-1.92-8-2.87-12.5-2.87c-3.64,0-7.11,0.84-10.41,2.51c-3.3,1.68-5.98,4.36-8.04,8.04c-2.06,3.69-3.09,8.4-3.09,14.15v8.33
		h-43.51v-7.9c0-4.79,0.98-8.09,2.94-9.91c1.96-1.82,4.91-2.73,8.83-2.73c0.29,0,1.58,0.14,3.88,0.43c1.15,0.29,2.25,0.43,3.3,0.43
		c1.44,0,2.68-0.55,3.73-1.65c1.06-1.1,1.58-2.37,1.58-3.81c0-1.05-0.31-2.03-0.93-2.95c-0.62-0.91-1.41-1.6-2.37-2.08
		c-3.83-1.92-8-2.87-12.5-2.87c-3.64,0-7.11,0.84-10.41,2.51c-3.3,1.68-5.98,4.36-8.04,8.04c-2.06,3.69-3.08,8.4-3.08,14.15v8.33
		h-8.48c-1.53,0-2.85,0.53-3.95,1.58c-1.1,1.05-1.65,2.39-1.65,4.02c0,1.53,0.55,2.85,1.65,3.95c1.1,1.1,2.42,1.65,3.95,1.65h8.48
		v56.31c0,1.82,0.62,3.35,1.86,4.6C778.43,186.01,779.96,186.64,781.78,186.64 M714.56,175.86c-5.46,0-9.36-1.05-11.71-3.16
		c-2.35-2.1-3.52-4.88-3.52-8.33c0-7.56,7.23-11.35,21.69-11.35h15.65v12.07c-2.68,3.07-5.98,5.63-9.91,7.69
		C722.84,174.84,718.77,175.86,714.56,175.86 M709.68,187.35c10.91,0,19.91-3.64,27-10.91v3.73c0,1.82,0.62,3.35,1.87,4.6
		c1.24,1.24,2.78,1.87,4.6,1.87c1.82,0,3.38-0.63,4.67-1.87c1.29-1.24,1.94-2.78,1.94-4.6v-40.65c0-4.98-1.08-9.6-3.23-13.86
		c-2.16-4.26-5.51-7.73-10.05-10.41c-4.55-2.68-10.13-4.02-16.73-4.02c-8.43,0-16.71,1.72-24.85,5.17
		c-2.49,1.06-3.73,2.88-3.73,5.46c0,1.53,0.52,2.82,1.58,3.88c1.05,1.06,2.3,1.58,3.74,1.58c0.48,0,1.1-0.1,1.86-0.29
		c3.45-1.15,6.58-2.01,9.41-2.59c2.82-0.58,6.06-0.86,9.7-0.86c6.6,0,11.47,1.39,14.58,4.17c3.11,2.78,4.67,7.33,4.67,13.64v1.15
		H719.3c-10.82,0-19.03,2.11-24.63,6.32c-5.6,4.21-8.4,9.86-8.4,16.95c0,4.31,1.05,8.12,3.16,11.42c2.1,3.31,4.95,5.82,8.55,7.54
		C701.56,186.49,705.46,187.35,709.68,187.35 M610,186.64c1.82,0,3.38-0.63,4.67-1.87c1.29-1.24,1.94-2.78,1.94-4.6v-43.09
		c3.35-4.21,6.92-7.56,10.7-10.05c3.78-2.49,8.06-3.74,12.85-3.74c10.53,0,15.8,5.84,15.8,17.52v39.36c0,1.82,0.62,3.35,1.87,4.6
		c1.24,1.24,2.78,1.87,4.6,1.87c1.82,0,3.37-0.63,4.67-1.87c1.29-1.24,1.94-2.78,1.94-4.6v-40.79c0-5.17-1.03-9.91-3.08-14.22
		c-2.06-4.31-5.03-7.71-8.91-10.2c-3.88-2.49-8.45-3.74-13.72-3.74c-5.74,0-10.72,1.2-14.94,3.59c-4.21,2.39-8.14,5.6-11.77,9.62
		V86.95c0-1.82-0.65-3.38-1.94-4.67c-1.29-1.29-2.85-1.94-4.67-1.94c-1.82,0-3.35,0.65-4.59,1.94c-1.25,1.29-1.87,2.85-1.87,4.67
		v93.22c0,1.82,0.62,3.35,1.87,4.6C606.65,186.01,608.18,186.64,610,186.64 M560.89,187.35c5.07,0,9.45-0.65,13.14-1.94
		c3.68-1.29,7.11-2.95,10.27-4.96c1.91-1.24,2.87-2.92,2.87-5.03c0-1.43-0.55-2.75-1.65-3.95c-1.1-1.19-2.37-1.79-3.81-1.79
		c-1.06,0-2.11,0.29-3.16,0.86c-3.16,1.63-5.87,2.8-8.11,3.52c-2.25,0.72-5.05,1.08-8.4,1.08c-8.23,0-14.7-2.37-19.39-7.11
		c-4.69-4.74-7.04-10.99-7.04-18.74c0-7.76,2.35-14,7.04-18.74c4.69-4.74,11.15-7.11,19.39-7.11c3.35,0,6.15,0.36,8.4,1.08
		c2.25,0.72,4.95,1.89,8.11,3.52c1.06,0.57,2.11,0.86,3.16,0.86c1.43,0,2.7-0.6,3.81-1.79c1.1-1.19,1.65-2.51,1.65-3.95
		c0-2.1-0.96-3.78-2.87-5.03c-3.16-2.01-6.59-3.66-10.27-4.95c-3.68-1.29-8.07-1.94-13.14-1.94c-6.9,0-13.27,1.53-19.1,4.6
		c-5.84,3.07-10.51,7.47-14,13.22c-3.49,5.74-5.24,12.5-5.24,20.25c0,7.76,1.75,14.51,5.24,20.25c3.49,5.74,8.16,10.15,14,13.21
		C547.62,185.82,553.99,187.35,560.89,187.35 M481.75,187.35c8.81,0,15.63-2.01,20.47-6.03c4.83-4.02,7.25-9.1,7.25-15.23
		c0-4.97-1.27-8.95-3.81-11.92c-2.54-2.97-5.58-5.15-9.12-6.53c-3.55-1.39-8.14-2.8-13.79-4.24c-5.65-1.24-9.82-2.53-12.49-3.88
		c-2.69-1.34-4.02-3.45-4.02-6.32c0-2.97,1.46-5.38,4.38-7.25c2.92-1.87,6.96-2.8,12.14-2.8c5.36,0,10.82,0.86,16.38,2.59
		c0.76,0.2,1.39,0.29,1.87,0.29c1.63,0,2.99-0.57,4.09-1.72c1.1-1.15,1.65-2.49,1.65-4.02c0-1.15-0.36-2.25-1.08-3.3
		c-0.72-1.06-1.75-1.77-3.09-2.16c-6.51-2.39-13.45-3.59-20.83-3.59c-9,0-15.92,2.11-20.75,6.32c-4.84,4.21-7.26,9.67-7.26,16.37
		c0,4.79,1.32,8.65,3.95,11.57c2.63,2.92,5.79,5.1,9.48,6.53c3.68,1.43,8.35,2.82,14,4.16c5.55,1.44,9.55,2.73,11.99,3.88
		c2.44,1.15,3.66,2.82,3.66,5.03c0,6.8-5.31,10.2-15.94,10.2c-3.83,0-7.28-0.38-10.34-1.15c-3.07-0.76-6.13-1.82-9.19-3.16
		c-0.86-0.38-1.72-0.57-2.59-0.57c-1.63,0-2.97,0.57-4.02,1.72c-1.06,1.15-1.58,2.49-1.58,4.02c0,2.01,0.81,3.59,2.44,4.74
		C463.46,185.2,472.17,187.35,481.75,187.35 M400.89,175.86c-5.46,0-9.36-1.05-11.71-3.16c-2.35-2.1-3.52-4.88-3.52-8.33
		c0-7.56,7.23-11.35,21.69-11.35H423v12.07c-2.68,3.07-5.98,5.63-9.91,7.69C409.17,174.84,405.1,175.86,400.89,175.86 M396,187.35
		c10.91,0,19.91-3.64,27-10.91v3.73c0,1.82,0.63,3.35,1.87,4.6c1.24,1.24,2.78,1.87,4.6,1.87c1.82,0,3.38-0.63,4.67-1.87
		c1.29-1.24,1.94-2.78,1.94-4.6v-40.65c0-4.98-1.08-9.6-3.23-13.86s-5.51-7.73-10.05-10.41c-4.55-2.68-10.13-4.02-16.73-4.02
		c-8.43,0-16.71,1.72-24.85,5.17c-2.49,1.06-3.73,2.88-3.73,5.46c0,1.53,0.53,2.82,1.58,3.88c1.06,1.06,2.3,1.58,3.74,1.58
		c0.48,0,1.1-0.1,1.87-0.29c3.45-1.15,6.58-2.01,9.41-2.59c2.82-0.58,6.05-0.86,9.69-0.86c6.61,0,11.47,1.39,14.58,4.17
		c3.11,2.78,4.67,7.33,4.67,13.64v1.15h-17.38c-10.82,0-19.03,2.11-24.63,6.32c-5.6,4.21-8.4,9.86-8.4,16.95
		c0,4.31,1.05,8.12,3.16,11.42c2.11,3.31,4.96,5.82,8.55,7.54C387.89,186.49,391.79,187.35,396,187.35"/>
	<linearGradient id="SVGID_5_" gradientUnits="userSpaceOnUse" x1="19" y1="150.009" x2="1321.0311" y2="150.009">
		<stop  offset="0" style="stop-color:#003C41"/>
		<stop  offset="0.1152" style="stop-color:#004548"/>
		<stop  offset="0.3069" style="stop-color:#005F5B"/>
		<stop  offset="0.5514" style="stop-color:#00887A"/>
		<stop  offset="0.8363" style="stop-color:#00C1A4"/>
		<stop  offset="0.9944" style="stop-color:#00E4BE"/>
	</linearGradient>
	<path class="st4" d="M1309.6,174c-7.18,0-13.05-2.18-17.6-6.54c-4.55-4.35-6.82-10.65-6.82-18.89c0-8.23,2.27-14.53,6.82-18.89
		c4.55-4.35,10.41-6.53,17.6-6.53c4.5,0,8.47,0.96,11.92,2.87c3.45,1.92,6.75,4.5,9.91,7.76v29.59c-3.16,3.26-6.46,5.84-9.91,7.76
		C1318.07,173.04,1314.1,174,1309.6,174z M1310.75,220.39c10.82,0,19.15-3.25,24.99-9.77c5.84-6.51,8.76-15.8,8.76-27.86v-64.21
		c0-1.82-0.65-3.38-1.94-4.67c-1.29-1.29-2.85-1.94-4.67-1.94c-1.82,0-3.35,0.64-4.6,1.94c-1.25,1.29-1.87,2.85-1.87,4.67v3.59
		c-6.8-7.28-14.99-10.92-24.56-10.92c-5.65,0-11.13,1.42-16.45,4.24c-5.31,2.82-9.7,7.03-13.14,12.64
		c-3.45,5.6-5.17,12.42-5.17,20.46c0,8.05,1.72,14.87,5.17,20.47c3.45,5.6,7.83,9.82,13.14,12.64c5.31,2.83,10.79,4.24,16.45,4.24
		c9.57,0,17.76-3.64,24.56-10.91v9.62c0,15.61-7.33,23.41-21.97,23.41c-8.52,0-16.42-1.82-23.7-5.46c-0.96-0.38-1.82-0.57-2.59-0.57
		c-1.63,0-2.99,0.6-4.09,1.79c-1.1,1.19-1.65,2.56-1.65,4.09c0,2.3,0.86,3.98,2.59,5.03c3.64,2.11,8.28,3.88,13.93,5.31
		C1299.59,219.67,1305.2,220.39,1310.75,220.39z M1230.18,186.64c1.82,0,3.38-0.63,4.67-1.87c1.29-1.24,1.94-2.78,1.94-4.6v-43.66
		c2.59-3.93,5.79-7.02,9.62-9.27c3.83-2.25,8.04-3.38,12.64-3.38h0.72c1.92,0,3.5-0.57,4.74-1.72c1.24-1.15,1.87-2.63,1.87-4.45
		c0-1.82-0.6-3.35-1.79-4.6c-1.2-1.24-2.71-1.87-4.52-1.87h-0.72c-8.33,0-15.85,4.51-22.55,13.5v-6.18c0-1.82-0.65-3.38-1.94-4.67
		c-1.29-1.29-2.85-1.94-4.67-1.94c-1.82,0-3.35,0.64-4.6,1.94c-1.24,1.29-1.87,2.85-1.87,4.67v61.62c0,1.82,0.63,3.35,1.87,4.6
		S1228.35,186.64,1230.18,186.64z M1161.23,187.35c5.75,0,10.72-1.2,14.94-3.59c4.21-2.39,8.14-5.61,11.78-9.62v5.89
		c0,1.82,0.65,3.38,1.94,4.67c1.29,1.29,2.85,1.94,4.67,1.94c1.82,0,3.35-0.65,4.6-1.94c1.24-1.29,1.87-2.85,1.87-4.67v-61.62
		c0-1.82-0.63-3.35-1.87-4.6c-1.25-1.24-2.78-1.86-4.6-1.86c-1.82,0-3.37,0.62-4.67,1.86c-1.29,1.25-1.94,2.78-1.94,4.6v43.09
		c-3.35,4.21-6.92,7.56-10.7,10.05c-3.78,2.49-8.07,3.73-12.85,3.73c-10.54,0-15.8-5.84-15.8-17.52v-39.36
		c0-1.82-0.63-3.35-1.87-4.6c-1.25-1.24-2.78-1.86-4.6-1.86c-1.82,0-3.38,0.62-4.67,1.86c-1.29,1.25-1.94,2.78-1.94,4.6v40.79
		c0,5.17,1.03,9.91,3.09,14.22c2.06,4.31,5.03,7.71,8.91,10.2C1151.4,186.11,1155.97,187.35,1161.23,187.35z M1081.38,175.14
		c-4.41,0-8.55-0.98-12.43-2.95c-3.88-1.96-7.3-4.57-10.27-7.83v-30.16c2.97-3.25,6.39-5.87,10.27-7.83
		c3.88-1.96,8.02-2.95,12.43-2.95c7.08,0,12.78,2.25,17.09,6.75c4.31,4.5,6.47,10.87,6.47,19.1c0,8.23-2.16,14.6-6.47,19.1
		C1094.16,172.9,1088.46,175.14,1081.38,175.14z M1083.25,187.35c5.94,0,11.56-1.51,16.88-4.52c5.31-3.02,9.62-7.42,12.93-13.22
		c3.31-5.79,4.96-12.57,4.96-20.32c0-7.76-1.65-14.53-4.96-20.33c-3.3-5.79-7.61-10.2-12.93-13.21c-5.31-3.02-10.94-4.53-16.88-4.53
		c-9.39,0-17.57,3.64-24.56,10.92V86.95c0-1.92-0.63-3.5-1.87-4.74c-1.25-1.24-2.82-1.87-4.74-1.87c-1.82,0-3.35,0.65-4.6,1.94
		c-1.24,1.29-1.86,2.85-1.86,4.67v93.22c0,1.82,0.62,3.35,1.86,4.6c1.25,1.24,2.78,1.87,4.6,1.87c1.82,0,3.38-0.63,4.67-1.87
		c1.29-1.24,1.94-2.78,1.94-4.6v-3.73C1065.68,183.72,1073.86,187.35,1083.25,187.35z M964.62,186.64c1.82,0,3.37-0.63,4.67-1.87
		c1.29-1.24,1.94-2.78,1.94-4.6v-43.09c3.35-4.21,6.92-7.56,10.7-10.05c3.78-2.49,8.06-3.74,12.85-3.74
		c10.53,0,15.8,5.84,15.8,17.52v39.36c0,1.82,0.62,3.35,1.87,4.6c1.24,1.24,2.78,1.87,4.6,1.87c1.82,0,3.38-0.63,4.67-1.87
		c1.29-1.24,1.94-2.78,1.94-4.6v-40.79c0-5.17-1.03-9.91-3.08-14.22c-2.06-4.31-5.03-7.71-8.91-10.2
		c-3.88-2.49-8.45-3.74-13.72-3.74c-5.74,0-10.72,1.2-14.93,3.59c-4.21,2.39-8.14,5.6-11.78,9.62v-5.89c0-1.82-0.65-3.38-1.94-4.67
		c-1.29-1.29-2.85-1.94-4.67-1.94c-1.82,0-3.35,0.64-4.6,1.94c-1.25,1.29-1.87,2.85-1.87,4.67v61.62c0,1.82,0.62,3.35,1.87,4.6
		C961.26,186.01,962.79,186.64,964.62,186.64z M885.62,143.26c0.29-4.69,1.49-8.62,3.59-11.77c2.1-3.16,4.74-5.48,7.9-6.97
		c3.16-1.48,6.37-2.22,9.62-2.22c3.25,0,6.47,0.74,9.62,2.22c3.16,1.49,5.82,3.81,7.97,6.97c2.15,3.16,3.37,7.09,3.66,11.77H885.62z
		 M909.6,187.35c5.75,0,10.44-0.53,14.08-1.58c3.64-1.05,7.33-2.63,11.06-4.74c2.49-1.43,3.74-3.21,3.74-5.31
		c0-1.63-0.58-2.97-1.72-4.02c-1.15-1.06-2.49-1.58-4.02-1.58c-0.96,0-1.82,0.19-2.59,0.57c-2.87,1.44-5.81,2.54-8.83,3.31
		c-3.02,0.76-6.53,1.15-10.55,1.15c-7.56,0-13.46-1.87-17.67-5.6c-4.21-3.74-6.7-8.95-7.47-15.65h48.69c2.01,0,3.61-0.63,4.81-1.87
		c1.2-1.24,1.8-2.78,1.8-4.6c0-6.51-1.34-12.52-4.02-18.03c-2.68-5.51-6.61-9.91-11.78-13.21c-5.17-3.3-11.3-4.96-18.38-4.96
		c-7.56,0-13.93,1.77-19.1,5.31c-5.17,3.55-9,8.19-11.49,13.93c-2.49,5.74-3.73,12.02-3.73,18.82c0,12.07,3.28,21.43,9.84,28.08
		C888.8,184.03,897.92,187.35,909.6,187.35z M781.78,186.64c1.82,0,3.38-0.63,4.67-1.87c1.29-1.24,1.94-2.78,1.94-4.6v-56.31h43.51
		v56.31c0,1.82,0.63,3.35,1.87,4.6c1.24,1.24,2.78,1.87,4.6,1.87c1.82,0,3.38-0.63,4.67-1.87c1.29-1.24,1.94-2.78,1.94-4.6v-56.31
		h17.95c1.63,0,2.96-0.55,4.02-1.65c1.05-1.1,1.58-2.42,1.58-3.95c0-1.63-0.53-2.97-1.58-4.02c-1.06-1.06-2.39-1.58-4.02-1.58
		h-17.95v-7.9c0-4.79,0.98-8.09,2.94-9.91c1.96-1.82,4.91-2.73,8.83-2.73c0.29,0,1.58,0.14,3.88,0.43c1.15,0.29,2.25,0.43,3.3,0.43
		c1.43,0,2.68-0.55,3.73-1.65c1.06-1.1,1.58-2.37,1.58-3.81c0-1.05-0.31-2.03-0.93-2.95c-0.62-0.91-1.41-1.6-2.37-2.08
		c-3.83-1.92-8-2.87-12.5-2.87c-3.64,0-7.11,0.84-10.41,2.51c-3.3,1.68-5.98,4.36-8.04,8.04c-2.06,3.69-3.09,8.4-3.09,14.15v8.33
		h-43.51v-7.9c0-4.79,0.98-8.09,2.94-9.91c1.96-1.82,4.91-2.73,8.83-2.73c0.29,0,1.58,0.14,3.88,0.43c1.15,0.29,2.25,0.43,3.3,0.43
		c1.44,0,2.68-0.55,3.73-1.65c1.06-1.1,1.58-2.37,1.58-3.81c0-1.05-0.31-2.03-0.93-2.95c-0.62-0.91-1.41-1.6-2.37-2.08
		c-3.83-1.92-8-2.87-12.5-2.87c-3.64,0-7.11,0.84-10.41,2.51c-3.3,1.68-5.98,4.36-8.04,8.04c-2.06,3.69-3.08,8.4-3.08,14.15v8.33
		h-8.48c-1.53,0-2.85,0.53-3.95,1.58c-1.1,1.05-1.65,2.39-1.65,4.02c0,1.53,0.55,2.85,1.65,3.95c1.1,1.1,2.42,1.65,3.95,1.65h8.48
		v56.31c0,1.82,0.62,3.35,1.86,4.6C778.43,186.01,779.96,186.64,781.78,186.64z M714.56,175.86c-5.46,0-9.36-1.05-11.71-3.16
		c-2.35-2.1-3.52-4.88-3.52-8.33c0-7.56,7.23-11.35,21.69-11.35h15.65v12.07c-2.68,3.07-5.98,5.63-9.91,7.69
		C722.84,174.84,718.77,175.86,714.56,175.86z M709.68,187.35c10.91,0,19.91-3.64,27-10.91v3.73c0,1.82,0.62,3.35,1.87,4.6
		c1.24,1.24,2.78,1.87,4.6,1.87c1.82,0,3.38-0.63,4.67-1.87c1.29-1.24,1.94-2.78,1.94-4.6v-40.65c0-4.98-1.08-9.6-3.23-13.86
		c-2.16-4.26-5.51-7.73-10.05-10.41c-4.55-2.68-10.13-4.02-16.73-4.02c-8.43,0-16.71,1.72-24.85,5.17
		c-2.49,1.06-3.73,2.88-3.73,5.46c0,1.53,0.52,2.82,1.58,3.88c1.05,1.06,2.3,1.58,3.74,1.58c0.48,0,1.1-0.1,1.86-0.29
		c3.45-1.15,6.58-2.01,9.41-2.59c2.82-0.58,6.06-0.86,9.7-0.86c6.6,0,11.47,1.39,14.58,4.17c3.11,2.78,4.67,7.33,4.67,13.64v1.15
		H719.3c-10.82,0-19.03,2.11-24.63,6.32c-5.6,4.21-8.4,9.86-8.4,16.95c0,4.31,1.05,8.12,3.16,11.42c2.1,3.31,4.95,5.82,8.55,7.54
		C701.56,186.49,705.46,187.35,709.68,187.35z M610,186.64c1.82,0,3.38-0.63,4.67-1.87c1.29-1.24,1.94-2.78,1.94-4.6v-43.09
		c3.35-4.21,6.92-7.56,10.7-10.05c3.78-2.49,8.06-3.74,12.85-3.74c10.53,0,15.8,5.84,15.8,17.52v39.36c0,1.82,0.62,3.35,1.87,4.6
		c1.24,1.24,2.78,1.87,4.6,1.87c1.82,0,3.37-0.63,4.67-1.87c1.29-1.24,1.94-2.78,1.94-4.6v-40.79c0-5.17-1.03-9.91-3.08-14.22
		c-2.06-4.31-5.03-7.71-8.91-10.2c-3.88-2.49-8.45-3.74-13.72-3.74c-5.74,0-10.72,1.2-14.94,3.59c-4.21,2.39-8.14,5.6-11.77,9.62
		V86.95c0-1.82-0.65-3.38-1.94-4.67c-1.29-1.29-2.85-1.94-4.67-1.94c-1.82,0-3.35,0.65-4.59,1.94c-1.25,1.29-1.87,2.85-1.87,4.67
		v93.22c0,1.82,0.62,3.35,1.87,4.6C606.65,186.01,608.18,186.64,610,186.64z M560.89,187.35c5.07,0,9.45-0.65,13.14-1.94
		c3.68-1.29,7.11-2.95,10.27-4.96c1.91-1.24,2.87-2.92,2.87-5.03c0-1.43-0.55-2.75-1.65-3.95c-1.1-1.19-2.37-1.79-3.81-1.79
		c-1.06,0-2.11,0.29-3.16,0.86c-3.16,1.63-5.87,2.8-8.11,3.52c-2.25,0.72-5.05,1.08-8.4,1.08c-8.23,0-14.7-2.37-19.39-7.11
		c-4.69-4.74-7.04-10.99-7.04-18.74c0-7.76,2.35-14,7.04-18.74c4.69-4.74,11.15-7.11,19.39-7.11c3.35,0,6.15,0.36,8.4,1.08
		c2.25,0.72,4.95,1.89,8.11,3.52c1.06,0.57,2.11,0.86,3.16,0.86c1.43,0,2.7-0.6,3.81-1.79c1.1-1.19,1.65-2.51,1.65-3.95
		c0-2.1-0.96-3.78-2.87-5.03c-3.16-2.01-6.59-3.66-10.27-4.95c-3.68-1.29-8.07-1.94-13.14-1.94c-6.9,0-13.27,1.53-19.1,4.6
		c-5.84,3.07-10.51,7.47-14,13.22c-3.49,5.74-5.24,12.5-5.24,20.25c0,7.76,1.75,14.51,5.24,20.25c3.49,5.74,8.16,10.15,14,13.21
		C547.62,185.82,553.99,187.35,560.89,187.35z M481.75,187.35c8.81,0,15.63-2.01,20.47-6.03c4.83-4.02,7.25-9.1,7.25-15.23
		c0-4.97-1.27-8.95-3.81-11.92c-2.54-2.97-5.58-5.15-9.12-6.53c-3.55-1.39-8.14-2.8-13.79-4.24c-5.65-1.24-9.82-2.53-12.49-3.88
		c-2.69-1.34-4.02-3.45-4.02-6.32c0-2.97,1.46-5.38,4.38-7.25c2.92-1.87,6.96-2.8,12.14-2.8c5.36,0,10.82,0.86,16.38,2.59
		c0.76,0.2,1.39,0.29,1.87,0.29c1.63,0,2.99-0.57,4.09-1.72c1.1-1.15,1.65-2.49,1.65-4.02c0-1.15-0.36-2.25-1.08-3.3
		c-0.72-1.06-1.75-1.77-3.09-2.16c-6.51-2.39-13.45-3.59-20.83-3.59c-9,0-15.92,2.11-20.75,6.32c-4.84,4.21-7.26,9.67-7.26,16.37
		c0,4.79,1.32,8.65,3.95,11.57c2.63,2.92,5.79,5.1,9.48,6.53c3.68,1.43,8.35,2.82,14,4.16c5.55,1.44,9.55,2.73,11.99,3.88
		c2.44,1.15,3.66,2.82,3.66,5.03c0,6.8-5.31,10.2-15.94,10.2c-3.83,0-7.28-0.38-10.34-1.15c-3.07-0.76-6.13-1.82-9.19-3.16
		c-0.86-0.38-1.72-0.57-2.59-0.57c-1.63,0-2.97,0.57-4.02,1.72c-1.06,1.15-1.58,2.49-1.58,4.02c0,2.01,0.81,3.59,2.44,4.74
		C463.46,185.2,472.17,187.35,481.75,187.35z M400.89,175.86c-5.46,0-9.36-1.05-11.71-3.16c-2.35-2.1-3.52-4.88-3.52-8.33
		c0-7.56,7.23-11.35,21.69-11.35H423v12.07c-2.68,3.07-5.98,5.63-9.91,7.69C409.17,174.84,405.1,175.86,400.89,175.86z M396,187.35
		c10.91,0,19.91-3.64,27-10.91v3.73c0,1.82,0.63,3.35,1.87,4.6c1.24,1.24,2.78,1.87,4.6,1.87c1.82,0,3.38-0.63,4.67-1.87
		c1.29-1.24,1.94-2.78,1.94-4.6v-40.65c0-4.98-1.08-9.6-3.23-13.86s-5.51-7.73-10.05-10.41c-4.55-2.68-10.13-4.02-16.73-4.02
		c-8.43,0-16.71,1.72-24.85,5.17c-2.49,1.06-3.73,2.88-3.73,5.46c0,1.53,0.53,2.82,1.58,3.88c1.06,1.06,2.3,1.58,3.74,1.58
		c0.48,0,1.1-0.1,1.87-0.29c3.45-1.15,6.58-2.01,9.41-2.59c2.82-0.58,6.05-0.86,9.69-0.86c6.61,0,11.47,1.39,14.58,4.17
		c3.11,2.78,4.67,7.33,4.67,13.64v1.15h-17.38c-10.82,0-19.03,2.11-24.63,6.32c-5.6,4.21-8.4,9.86-8.4,16.95
		c0,4.31,1.05,8.12,3.16,11.42c2.11,3.31,4.96,5.82,8.55,7.54C387.89,186.49,391.79,187.35,396,187.35z"/>
</g>
</svg>
