<svg width="239" height="271" viewBox="0 0 239 271" fill="none" xmlns="http://www.w3.org/2000/svg">
<g clip-path="url(#clip0_2646_24)">
<path d="M153.654 200.64C154.191 200.926 154.802 201.041 155.406 200.969C156.01 200.896 156.577 200.64 157.03 200.235C157.483 199.83 157.801 199.295 157.94 198.704C158.079 198.112 158.032 197.492 157.807 196.928C157.867 196.627 157.911 196.412 157.971 196.112C159.131 195.03 160.589 194.318 162.156 194.069C163.724 193.82 165.33 194.044 166.769 194.713C168.209 195.382 169.415 196.465 170.234 197.823C171.053 199.182 171.448 200.753 171.367 202.337C171 211.269 171.441 220.907 165.499 228.108C192.62 205.967 204.985 168.248 196.703 134.323C192.639 128.665 190.743 121.149 192.566 114.338C194.853 116.56 199.311 115.963 198.63 112.116C198.264 110.596 197.886 109.08 197.521 107.559C213.141 101.47 217.219 124.675 198.716 134.123C200.217 140.572 201.039 147.161 201.169 153.782C203.258 147.812 206.735 142.423 211.316 138.058C215.75 134.069 221.614 131.723 227.069 129.047C233.706 125.782 241.073 132.255 238.46 139.166C234.041 138.601 230.914 143.878 234.924 146.713C227.881 158.53 214.377 166.041 200.657 166.161C199.269 179.645 195.021 192.678 188.196 204.393C196.96 191.077 213.923 194.911 227.328 194.344C228.217 194.232 229.12 194.381 229.926 194.772C230.732 195.164 231.407 195.782 231.867 196.55C232.328 197.319 232.555 198.204 232.52 199.099C232.486 199.994 232.191 200.86 231.673 201.59C229.909 201.487 228.14 201.559 226.391 201.805C225.568 201.927 224.803 202.3 224.201 202.873C223.599 203.446 223.189 204.191 223.027 205.007C222.865 205.822 222.96 206.667 223.298 207.426C223.636 208.185 224.2 208.822 224.915 209.248C213.155 220.018 194.934 222.333 180.633 215.461C176.405 220.782 171.635 225.649 166.399 229.985L145.138 219.86C145.175 219.587 145.222 219.311 145.266 219.042C147.175 220.103 149.207 220.926 151.316 221.494C149.048 212.855 146.521 207.795 153.653 200.64H153.654Z" fill="#F2F2F2"/>
<path d="M116.085 180.205C115.697 180.672 115.174 181.009 114.587 181.169C114.001 181.33 113.379 181.306 112.806 181.101C112.233 180.897 111.737 180.522 111.385 180.026C111.033 179.531 110.842 178.939 110.838 178.331C110.669 178.076 110.547 177.893 110.378 177.637C108.895 177.073 107.276 176.963 105.73 177.323C104.185 177.683 102.782 178.496 101.701 179.658C100.621 180.82 99.9123 182.277 99.6666 183.844C99.4208 185.411 99.6489 187.015 100.322 188.452C104.034 196.585 107.264 205.678 115.486 210.108C82.0094 199.822 56.3163 169.55 51.1784 135.009C52.8061 128.238 51.7242 120.563 47.4649 114.942C46.1859 117.862 41.8317 118.989 41.0102 115.169C40.7746 113.624 40.5526 112.077 40.317 110.531C23.5513 110.778 28.5353 133.806 49.2386 135.583C50.2835 142.122 52.0098 148.534 54.3892 154.714C50.2008 149.973 44.9456 146.292 39.0558 143.976C33.4429 141.953 27.1269 141.99 21.0645 141.567C13.6842 141.045 9.30551 149.816 14.335 155.231C18.214 153.043 23.1019 156.751 20.4589 160.889C31.4429 169.179 46.7852 171.046 59.5371 165.986C65.913 177.951 74.7681 188.42 85.5124 196.697C72.3677 187.668 58.1059 197.611 45.4769 202.138C44.6109 202.369 43.831 202.847 43.2324 203.514C42.6338 204.181 42.2424 205.007 42.1058 205.892C41.9692 206.778 42.0934 207.683 42.4633 208.499C42.8331 209.315 43.4327 210.006 44.1887 210.487C45.7829 209.727 47.4487 209.126 49.1616 208.695C49.9696 208.498 50.8188 208.555 51.5929 208.859C52.3671 209.163 53.0282 209.698 53.4857 210.392C53.9431 211.086 54.1746 211.905 54.1483 212.735C54.1219 213.566 53.8392 214.368 53.3387 215.032C68.2955 220.575 86.0449 215.852 96.6947 204.098C102.619 207.432 108.875 210.143 115.361 212.185L131.228 194.795C131.092 194.556 130.943 194.319 130.801 194.086C129.434 195.788 127.863 197.316 126.124 198.637C124.963 189.781 125.393 184.143 116.086 180.204L116.085 180.205Z" fill="#F2F2F2"/>
<path d="M120.169 106.722C120.774 106.661 121.346 106.416 121.807 106.019C122.267 105.623 122.595 105.094 122.745 104.505C122.895 103.916 122.861 103.296 122.646 102.727C122.431 102.159 122.047 101.67 121.545 101.327C121.427 101.044 121.343 100.841 121.226 100.558C121.585 99.0135 122.398 97.6112 123.56 96.5312C124.722 95.4511 126.181 94.7424 127.749 94.4959C129.317 94.2495 130.923 94.4765 132.361 95.1478C133.799 95.8192 135.004 96.9043 135.82 98.2641C140.5 105.884 146.245 113.639 145.331 122.926C155.488 89.4384 144.704 51.2379 118.897 27.6888C112.366 25.2559 106.598 20.0726 104.31 13.4033C107.448 13.9741 110.816 10.9952 108.104 8.18106C106.952 7.12252 105.792 6.07487 104.64 5.01626C114.209 -8.74041 130.544 8.25124 120.456 26.4014C125.302 30.9195 129.661 35.9313 133.464 41.355C131.866 35.2357 131.746 28.825 133.112 22.6501C134.567 16.8685 138.126 11.655 141.161 6.39464C144.849 -0.013492 154.577 1.25657 156.264 8.44912C152.28 10.4416 152.629 16.5638 157.54 16.6841C158.289 30.4172 151.27 44.1748 139.947 51.9167C146.32 63.8832 150.066 77.0693 150.938 90.5964C150.783 74.66 167.003 68.3939 177.815 60.4557C178.491 59.8672 179.323 59.488 180.211 59.3643C181.099 59.2405 182.004 59.3776 182.815 59.7588C183.626 60.14 184.309 60.7488 184.779 61.511C185.25 62.2732 185.489 63.1558 185.466 64.0511C183.944 64.9476 182.516 65.9929 181.201 67.1716C180.586 67.731 180.159 68.4668 179.979 69.2781C179.799 70.0894 179.874 70.9364 180.195 71.7032C180.516 72.4699 181.066 73.1188 181.77 73.5609C182.475 74.0029 183.298 74.2165 184.129 74.1724C180.378 89.6638 166.543 101.736 150.836 103.997C150.296 110.769 149.052 117.467 147.126 123.983L123.825 127.421C123.703 127.174 123.589 126.919 123.475 126.671C125.652 126.488 127.798 126.04 129.866 125.336C123.162 119.428 118.24 116.636 120.168 106.723L120.169 106.722Z" fill="#F2F2F2"/>
<path d="M143.604 99.2579C132.996 99.2579 127.242 97.9627 125.233 95.1982C123.46 92.7591 124.648 89.5407 126.025 85.8143C127.014 83.1358 128.135 80.1001 128.135 77.0956C128.135 62.4823 135.552 55.0725 150.178 55.0725C157.456 55.0725 165.27 58.9349 171.081 65.4045C176.363 71.286 178.995 78.3252 178.301 84.717C177.731 89.959 175.289 93.4062 170.615 95.5663L170.342 95.6927L170.264 95.4019C169.86 93.8974 169.177 92.4821 168.25 91.2298C168.16 93.1956 167.664 95.1215 166.793 96.8867L166.744 96.9873L166.636 97.0182C161.345 98.5236 155.067 98.9315 150.188 99.1184C147.813 99.2109 145.619 99.2574 143.604 99.2579Z" fill="#2F2E41"/>
<path d="M146.495 119.619C146.088 118.425 145.403 117.345 144.495 116.468C143.587 115.592 142.482 114.945 141.274 114.58C140.065 114.216 138.787 114.144 137.546 114.372C136.304 114.6 135.135 115.12 134.135 115.89L99.2424 136.732L88.324 110.115C89.2464 108.763 89.7165 107.155 89.667 105.519C89.6175 103.884 89.0509 102.306 88.0484 101.013C87.046 99.7188 85.6592 98.7755 84.087 98.3179C82.5148 97.8603 80.8379 97.912 79.2969 98.4654C77.7559 99.0188 76.4299 100.046 75.509 101.399C74.5882 102.751 74.1199 104.361 74.1713 105.996C74.2227 107.632 74.791 109.209 75.795 110.501C76.7989 111.794 78.1867 112.735 79.7594 113.191C80.4324 120.867 84.1723 155.172 97.1827 153.925C108.119 152.877 135.277 134.807 143.712 128.541C145.062 127.54 146.058 126.136 146.558 124.533C147.058 122.929 147.036 121.209 146.495 119.619Z" fill="#FFB6B6"/>
<path d="M172.789 271H142.42L137.327 245.843L135.675 271H107.465C107.476 251.244 108.506 231.502 110.551 211.852L110.901 210.662L111.453 208.758L111.803 207.563L117.641 187.535L118.102 185.945H153.254C155.277 187.844 157.143 189.903 158.833 192.102C159.406 192.831 160.004 193.62 160.617 194.471C161.043 195.073 161.484 195.706 161.924 196.37C165.841 202.195 168.769 208.627 170.59 215.406V215.411C170.899 216.57 171.172 217.756 171.411 218.97V218.975C171.623 220.053 171.811 221.147 171.958 222.266C172.069 223.081 172.166 223.906 172.237 224.741C172.659 229.369 172.511 234.032 171.796 238.624L172.789 271Z" fill="#2F2E41"/>
<path d="M11.7733 40.9684C13.7456 40.2056 14.9138 38.4761 14.3827 37.1053C13.8516 35.7346 11.8223 35.2417 9.85007 36.0045C7.87785 36.7672 6.70959 38.4968 7.24068 39.8675C7.77178 41.2382 9.80111 41.7311 11.7733 40.9684Z" fill="#E6E6E6"/>
<path d="M36.6054 37.7858C38.5776 37.023 39.7459 35.2935 39.2148 33.9228C38.6837 32.552 36.6543 32.0592 34.6821 32.8219C32.7099 33.5847 31.5416 35.3142 32.0727 36.6849C32.6038 38.0557 34.6331 38.5485 36.6054 37.7858Z" fill="#3F3D56"/>
<path d="M9.61978 62.1349C11.592 61.3722 12.7603 59.6426 12.2292 58.2719C11.6981 56.9011 9.66875 56.4083 7.69652 57.171C5.7243 57.9338 4.55602 59.6633 5.08712 61.0341C5.61821 62.4048 7.64756 62.8977 9.61978 62.1349Z" fill="currentColor"/>
<path d="M2.4362 71.4715C3.34099 71.2576 3.82492 70.0307 3.51707 68.7313C3.20922 67.4318 2.22617 66.5518 1.32137 66.7658C0.416582 66.9797 -0.0673317 68.2066 0.240519 69.5061C0.548369 70.8055 1.53141 71.6855 2.4362 71.4715Z" fill="#E6E6E6"/>
<path d="M2.28849 87.2789C3.19329 87.0649 3.6772 85.838 3.36935 84.5386C3.0615 83.2391 2.07846 82.3591 1.17367 82.5731C0.268877 82.7871 -0.215037 84.0139 0.0928135 85.3134C0.400664 86.6128 1.3837 87.4928 2.28849 87.2789Z" fill="#3F3D56"/>
<path d="M24.0827 54.5382C24.9875 54.3243 25.4714 53.0974 25.1635 51.798C24.8557 50.4985 23.8727 49.6185 22.9679 49.8325C22.0631 50.0465 21.5791 51.2733 21.887 52.5728C22.1948 53.8722 23.1779 54.7522 24.0827 54.5382Z" fill="#E6E6E6"/>
<path d="M11.0043 51.3652C11.9091 51.1513 12.393 49.9244 12.0852 48.6249C11.7773 47.3255 10.7943 46.4455 9.88949 46.6595C8.9847 46.8734 8.50078 48.1003 8.80863 49.3998C9.11648 50.6992 10.0995 51.5792 11.0043 51.3652Z" fill="currentColor"/>
<path d="M24.8664 36.8094C25.7712 36.5954 26.2551 35.3685 25.9472 34.0691C25.6394 32.7696 24.6563 31.8897 23.7515 32.1036C22.8468 32.3176 22.3628 33.5444 22.6707 34.8439C22.9785 36.1434 23.9616 37.0233 24.8664 36.8094Z" fill="#3F3D56"/>
<path d="M31.3134 146.215C32.267 145.095 31.7345 143.078 30.1241 141.708C28.5137 140.339 26.4351 140.136 25.4815 141.255C24.5279 142.374 25.0604 144.392 26.6708 145.762C28.2812 147.131 30.3598 147.334 31.3134 146.215Z" fill="#E6E6E6"/>
<path d="M16.6886 125.914C17.6422 124.794 17.1097 122.777 15.4993 121.407C13.8889 120.038 11.8104 119.835 10.8568 120.954C9.90317 122.073 10.4356 124.091 12.046 125.46C13.6565 126.83 15.735 127.033 16.6886 125.914Z" fill="#3F3D56"/>
<path d="M50.9689 138.028C51.9225 136.909 51.39 134.892 49.7796 133.522C48.1692 132.152 46.0906 131.95 45.137 133.069C44.1834 134.188 44.7159 136.206 46.3263 137.575C47.9367 138.945 50.0153 139.148 50.9689 138.028Z" fill="currentColor"/>
<path d="M60.7334 138.253C61.7305 137.363 62.037 136.081 61.4178 135.388C60.7987 134.695 59.4885 134.854 58.4913 135.743C57.4941 136.632 57.1877 137.915 57.8068 138.608C58.426 139.301 59.7362 139.142 60.7334 138.253Z" fill="#E6E6E6"/>
<path d="M74.7168 130.856C75.7139 129.967 76.0204 128.684 75.4013 127.991C74.7821 127.298 73.4718 127.457 72.4747 128.346C71.4775 129.235 71.1711 130.518 71.7902 131.211C72.4094 131.904 73.7196 131.745 74.7168 130.856Z" fill="#3F3D56"/>
<path d="M35.5225 127.297C36.5196 126.408 36.8261 125.126 36.2069 124.432C35.5878 123.739 34.2775 123.898 33.2804 124.788C32.2832 125.677 31.9768 126.96 32.5959 127.653C33.215 128.346 34.5253 128.187 35.5225 127.297Z" fill="#E6E6E6"/>
<path d="M38.9568 140.298C39.9539 139.409 40.2604 138.127 39.6412 137.434C39.0221 136.74 37.7118 136.9 36.7147 137.789C35.7175 138.678 35.4111 139.961 36.0302 140.654C36.6494 141.347 37.9596 141.188 38.9568 140.298Z" fill="currentColor"/>
<path d="M19.5449 135.05C20.5421 134.161 20.8485 132.879 20.2294 132.185C19.6102 131.492 18.3 131.651 17.3028 132.541C16.3057 133.43 15.9992 134.713 16.6184 135.406C17.2375 136.099 18.5478 135.94 19.5449 135.05Z" fill="#3F3D56"/>
<path d="M129.563 16.01C130.883 15.3613 131.197 13.2985 130.263 11.4024C129.33 9.5064 127.503 8.49523 126.183 9.1439C124.863 9.79258 124.549 11.8555 125.483 13.7515C126.416 15.6475 128.243 16.6587 129.563 16.01Z" fill="#E6E6E6"/>
<path d="M134.912 40.4451C136.232 39.7965 136.546 37.7336 135.612 35.8375C134.679 33.9415 132.852 32.9304 131.532 33.579C130.212 34.2277 129.898 36.2906 130.832 38.1866C131.765 40.0826 133.592 41.0938 134.912 40.4451Z" fill="#3F3D56"/>
<path d="M108.27 15.7212C109.59 15.0726 109.904 13.0097 108.97 11.1137C108.037 9.21765 106.21 8.20646 104.89 8.85513C103.57 9.5038 103.256 11.5667 104.19 13.4627C105.123 15.3588 106.95 16.3699 108.27 15.7212Z" fill="currentColor"/>
<path d="M97.0779 7.96684C98.3466 7.54659 99.1378 6.49113 98.8452 5.60938C98.5526 4.72764 97.287 4.3535 96.0183 4.77375C94.7497 5.19399 93.9584 6.24947 94.251 7.13122C94.5436 8.01296 95.8093 8.38708 97.0779 7.96684Z" fill="#E6E6E6"/>
<path d="M81.3042 9.20476C82.5729 8.78451 83.3642 7.72904 83.0715 6.84729C82.7789 5.96555 81.5133 5.59143 80.2446 6.01167C78.9759 6.43192 78.1847 7.48738 78.4773 8.36912C78.7699 9.25087 80.0356 9.625 81.3042 9.20476Z" fill="#3F3D56"/>
<path d="M115.858 28.0268C117.127 27.6066 117.918 26.5511 117.626 25.6694C117.333 24.7876 116.067 24.4135 114.799 24.8337C113.53 25.254 112.739 26.3095 113.031 27.1912C113.324 28.073 114.59 28.4471 115.858 28.0268Z" fill="#E6E6E6"/>
<path d="M117.876 14.7326C119.144 14.3124 119.936 13.2569 119.643 12.3752C119.35 11.4934 118.085 11.1193 116.816 11.5396C115.548 11.9598 114.756 13.0153 115.049 13.897C115.341 14.7788 116.607 15.1529 117.876 14.7326Z" fill="currentColor"/>
<path d="M133.604 27.2535C134.872 26.8333 135.663 25.7778 135.371 24.896C135.078 24.0143 133.813 23.6402 132.544 24.0604C131.275 24.4807 130.484 25.5361 130.777 26.4179C131.069 27.2996 132.335 27.6738 133.604 27.2535Z" fill="#3F3D56"/>
<path d="M138.473 103.326L155.204 102.465L162.975 114.733C162.975 114.733 177.596 117.175 176.582 134.388C175.569 151.602 158.793 166.707 158.793 166.707L159.51 175.671L158.264 179.226L158.424 181.223L160.123 183.337L160.298 185.523L158.793 188.983L160.84 192.295L117.801 188.129L116.227 182.401L118.523 179.325L117.24 175.313L119.168 171.455L120.174 159.197C120.174 159.197 109.175 142.689 121.801 130.255L126.868 121.648L132.538 114.737L138.473 103.326Z" fill="currentColor"/>
<path d="M146.791 99.8622C156.582 99.8622 164.519 91.9323 164.519 82.1504C164.519 72.3685 156.582 64.4387 146.791 64.4387C137 64.4387 129.063 72.3685 129.063 82.1504C129.063 91.9323 137 99.8622 146.791 99.8622Z" fill="#FFB6B6"/>
<path d="M144.417 81.0768C142.89 81.0768 141.363 81.0338 139.837 80.9478L139.564 80.9325L139.6 80.662C139.825 78.9714 139.698 77.2527 139.228 75.6131C138.43 77.48 137.243 79.1554 135.746 80.5275L135.661 80.6049L135.547 80.5926C131.403 80.1396 127.296 79.3913 123.258 78.3534L123.104 78.3138L123.073 78.1576C122.771 76.6781 122.615 75.1727 122.607 73.6629C122.607 68.9465 124.318 64.9768 127.426 62.4852C130.809 59.7731 135.658 58.9391 141.085 60.1353H158.438C160.346 60.1374 162.175 60.8956 163.524 62.2433C164.873 63.5911 165.632 65.4185 165.634 67.3245V78.3037L165.445 78.3531C158.581 80.1553 151.514 81.0707 144.417 81.0768Z" fill="#2F2E41"/>
<path d="M23.4522 61.3756C22.6753 61.6594 22.0429 62.2396 21.6937 62.9887C21.3444 63.7378 21.3069 64.5948 21.5892 65.3716L40.3098 116.692C40.5939 117.468 41.1745 118.1 41.9243 118.449C42.6741 118.798 43.5319 118.836 44.3093 118.554L116.967 92.0981C117.744 91.8143 118.376 91.2341 118.725 90.485C119.075 89.7359 119.112 88.8789 118.83 88.1021L100.109 36.7813C99.8252 36.0052 99.2446 35.3733 98.4948 35.0244C97.745 34.6754 96.8873 34.6379 96.1098 34.92L23.4522 61.3756Z" fill="#CCCCCC"/>
<path d="M89.9253 99.115L45.4513 115.309C44.6145 115.612 43.6914 115.572 42.8844 115.196C42.0774 114.821 41.4524 114.141 41.1467 113.305L24.1673 66.7577C23.8634 65.9217 23.9038 64.9993 24.2797 64.1931C24.6556 63.3868 25.3362 62.7624 26.1723 62.4569L94.7242 37.4962C95.561 37.1926 96.4842 37.233 97.2912 37.6086C98.0983 37.9842 98.7232 38.6642 99.029 39.4996L107.233 61.9909C109.856 69.2074 109.507 77.1688 106.263 84.1285C103.018 91.0882 97.1424 96.4779 89.9253 99.115Z" fill="white"/>
<path d="M57.9238 65.4883L47.3553 69.3365C47.2228 69.3847 47.082 69.4064 46.9411 69.4004C46.8002 69.3943 46.6618 69.3605 46.5339 69.301C46.4061 69.2415 46.2912 69.1574 46.1958 69.0535C46.1005 68.9497 46.0266 68.828 45.9783 68.6956C45.93 68.5632 45.9082 68.4226 45.9143 68.2818C45.9204 68.141 45.9542 68.0028 46.0138 67.875C46.0733 67.7472 46.1575 67.6325 46.2615 67.5372C46.3654 67.4419 46.4872 67.3681 46.6197 67.3198L57.1882 63.4717C57.4559 63.3742 57.7513 63.387 58.0096 63.5072C58.2678 63.6273 58.4677 63.8451 58.5653 64.1125C58.6628 64.38 58.6501 64.6751 58.5298 64.9332C58.4095 65.1912 58.1915 65.3909 57.9238 65.4883Z" fill="currentColor"/>
<path d="M83.1194 60.9862L48.8597 73.4606C48.7272 73.5091 48.5863 73.5309 48.4453 73.525C48.3042 73.519 48.1657 73.4853 48.0377 73.4258C47.9097 73.3664 47.7947 73.2823 47.6992 73.1783C47.6038 73.0744 47.5298 72.9527 47.4814 72.8202C47.4331 72.6877 47.4114 72.5469 47.4175 72.406C47.4237 72.2651 47.4575 72.1268 47.5172 71.999C47.5769 71.8712 47.6612 71.7563 47.7654 71.6611C47.8695 71.5659 47.9914 71.4921 48.1241 71.4439L82.3838 58.9695C82.5163 58.9213 82.6571 58.8996 82.798 58.9057C82.9389 58.9118 83.0773 58.9455 83.2052 59.005C83.333 59.0645 83.4479 59.1486 83.5433 59.2525C83.6386 59.3564 83.7126 59.478 83.7609 59.6104C83.8092 59.7428 83.8309 59.8834 83.8248 60.0242C83.8187 60.165 83.7849 60.3033 83.7253 60.431C83.6658 60.5588 83.5816 60.6736 83.4776 60.7688C83.3737 60.8641 83.252 60.938 83.1194 60.9862Z" fill="currentColor"/>
<path d="M84.8462 65.7201L50.5865 78.1945C50.454 78.2428 50.3132 78.2645 50.1723 78.2584C50.0314 78.2523 49.893 78.2186 49.7651 78.159C49.6373 78.0995 49.5224 78.0154 49.427 77.9116C49.3317 77.8077 49.2578 77.6861 49.2095 77.5537C49.1612 77.4213 49.1394 77.2806 49.1455 77.1398C49.1516 76.999 49.1854 76.8608 49.245 76.7331C49.3045 76.6053 49.3887 76.4905 49.4927 76.3952C49.5966 76.3 49.7184 76.2261 49.8509 76.1779L84.1106 63.7035C84.3782 63.6064 84.6734 63.6194 84.9313 63.7397C85.1893 63.8599 85.3889 64.0775 85.4864 64.3448C85.5839 64.612 85.5712 64.9069 85.4512 65.1648C85.3311 65.4227 85.1136 65.6224 84.8462 65.7201Z" fill="currentColor"/>
<path d="M86.573 70.454L52.3134 82.9285C52.1808 82.9769 52.0399 82.9988 51.8989 82.9928C51.7578 82.9869 51.6193 82.9532 51.4913 82.8937C51.3633 82.8342 51.2483 82.7501 51.1528 82.6462C51.0574 82.5423 50.9834 82.4206 50.935 82.288C50.8867 82.1555 50.865 82.0148 50.8711 81.8739C50.8773 81.733 50.9112 81.5946 50.9708 81.4668C51.0305 81.339 51.1149 81.2242 51.219 81.129C51.3231 81.0337 51.445 80.9599 51.5777 80.9118L85.8374 68.4374C85.9699 68.3891 86.1107 68.3674 86.2516 68.3735C86.3926 68.3796 86.5309 68.4134 86.6588 68.4729C86.7866 68.5324 86.9015 68.6165 86.9969 68.7203C87.0922 68.8242 87.1662 68.9458 87.2145 69.0782C87.2628 69.2107 87.2845 69.3513 87.2784 69.4921C87.2723 69.6329 87.2385 69.7711 87.179 69.8989C87.1194 70.0266 87.0352 70.1414 86.9312 70.2367C86.8273 70.3319 86.7056 70.4058 86.573 70.454Z" fill="currentColor"/>
<path d="M88.2998 75.1879L54.0402 87.6623C53.7725 87.7598 53.477 87.747 53.2188 87.6268C52.9605 87.5067 52.7606 87.2889 52.6631 87.0215C52.5655 86.7541 52.5783 86.4589 52.6986 86.2009C52.8189 85.9428 53.0368 85.7431 53.3045 85.6457L87.5642 73.1713C87.6967 73.123 87.8375 73.1013 87.9784 73.1074C88.1194 73.1135 88.2577 73.1472 88.3856 73.2067C88.5134 73.2663 88.6283 73.3503 88.7237 73.4542C88.819 73.5581 88.893 73.6797 88.9413 73.8121C88.9896 73.9445 89.0113 74.0852 89.0052 74.226C88.9991 74.3668 88.9653 74.505 88.9057 74.6328C88.8462 74.7605 88.762 74.8753 88.6581 74.9705C88.5541 75.0658 88.4324 75.1397 88.2998 75.1879Z" fill="currentColor"/>
<path d="M197.006 88.3351L178.248 133.181C177.448 135.079 175.933 136.586 174.03 137.377C172.128 138.169 169.99 138.181 168.078 137.412C167.089 137.014 166.191 136.418 165.44 135.662C164.689 134.907 164.1 134.006 163.708 133.015C163.317 132.024 163.131 130.964 163.163 129.899C163.196 128.834 163.444 127.787 163.895 126.821L184.809 80.834L196.338 52.3552C195.341 51.3625 194.675 50.0874 194.429 48.7033C194.184 47.3191 194.371 45.8929 194.964 44.6185C195.558 43.344 196.53 42.2832 197.749 41.58C198.967 40.8768 200.373 40.5653 201.774 40.688C203.176 40.8106 204.506 41.3614 205.583 42.2655C206.661 43.1696 207.434 44.3832 207.797 45.7413C208.16 47.0995 208.096 48.5364 207.613 49.8568C207.13 51.1773 206.252 52.3172 205.098 53.1218L197.006 88.3351Z" fill="#FFB6B6"/>
</g>
<defs>
<clipPath id="clip0_2646_24">
<rect width="239" height="271" fill="white"/>
</clipPath>
</defs>
</svg>
