<?xml version="1.0" encoding="UTF-8" standalone="no"?>
<svg
   width="234.94693"
   height="276.46628"
   viewBox="0 0 234.94693 276.46628"
   fill="none"
   version="1.1"
   id="svg24"
   sodipodi:docname="offline.svg"
   xml:space="preserve"
   inkscape:version="1.3.2 (091e20e, 2023-11-25, custom)"
   xmlns:inkscape="http://www.inkscape.org/namespaces/inkscape"
   xmlns:sodipodi="http://sodipodi.sourceforge.net/DTD/sodipodi-0.dtd"
   xmlns="http://www.w3.org/2000/svg"
   xmlns:svg="http://www.w3.org/2000/svg"><defs
     id="defs24" /><sodipodi:namedview
     id="namedview24"
     pagecolor="#ffffff"
     bordercolor="#999999"
     borderopacity="1"
     inkscape:showpageshadow="2"
     inkscape:pageopacity="0"
     inkscape:pagecheckerboard="0"
     inkscape:deskcolor="#d1d1d1"
     inkscape:zoom="1.7110247"
     inkscape:cx="77.146752"
     inkscape:cy="160.43018"
     inkscape:window-width="1920"
     inkscape:window-height="1009"
     inkscape:window-x="-8"
     inkscape:window-y="-8"
     inkscape:window-maximized="1"
     inkscape:current-layer="svg24" /><path
     d="m 19.696355,275.06977 c 0.055,-0.094 1.3516,-2.354 1.8012,-7.046 0.4123,-4.306 0.1472,-11.562 -3.4586,-21.684 -6.831,-19.177 1.5743,-34.649 1.6601,-34.803 l -0.4146,-0.251 c -0.0218,0.039 -2.1907,3.984 -3.4719,10.265 -1.693,8.328 -1.0765,16.988 1.7771,24.963 6.8193,19.143 1.7495,28.206 1.6976,28.295 z"
     fill="#f1f1f1"
     id="path1" /><path
     d="m 22.609555,210.31977 c -1.6012,0 -2.8992,-1.515 -2.8992,-3.383 0,-1.868 1.298,-3.382 2.8992,-3.382 1.6012,0 2.8993,1.514 2.8993,3.382 0,1.868 -1.2981,3.383 -2.8993,3.383 z"
     fill="#f1f1f1"
     id="path2" /><path
     d="m 12.462255,221.91677 c -1.868,0 -3.3824301,-1.298 -3.3824301,-2.9 0,-1.601 1.5144301,-2.899 3.3824301,-2.899 1.8681,0 3.3825,1.298 3.3825,2.899 0,1.602 -1.5144,2.9 -3.3825,2.9 z"
     fill="#f1f1f1"
     id="path3" /><path
     d="m 19.226955,230.61377 c -1.8681,0 -3.3825,-1.514 -3.3825,-3.382 0,-1.868 1.5144,-3.383 3.3825,-3.383 1.8681,0 3.3824,1.515 3.3824,3.383 0,1.868 -1.5143,3.382 -3.3824,3.382 z"
     fill="#f1f1f1"
     id="path4" /><path
     d="m 10.529155,237.37877 c -1.8680401,0 -3.3824301,-1.514 -3.3824301,-3.382 0,-1.868 1.51439,-3.383 3.3824301,-3.383 1.8681,0 3.3825,1.515 3.3825,3.383 0,1.868 -1.5144,3.382 -3.3825,3.382 z"
     fill="#f1f1f1"
     id="path5" /><path
     d="m 22.126355,248.00977 c -1.8681,0 -3.3825,-1.514 -3.3825,-3.383 0,-1.868 1.5144,-3.382 3.3825,-3.382 1.8681,0 3.3825,1.514 3.3825,3.382 0,1.869 -1.5144,3.383 -3.3825,3.383 z"
     fill="#f1f1f1"
     id="path6" /><path
     d="m 18.170955,276.03577 c 0,0 3.5793,-8.284 -7.1586,-14.496 z"
     fill="#f1f1f1"
     id="path7" /><path
     d="m 21.643055,275.06977 c 0,0 1.548,-7.798 13.5298,-7.731 z"
     fill="#f1f1f1"
     id="path8" /><path
     d="m 118.38955,170.62797 c -0.492,0.1002 -1,0.09 -1.488,-0.0301 -0.488,-0.1201 -0.944,-0.3471 -1.336,-0.665 -0.392,-0.3179 -0.711,-0.719 -0.933,-1.175 -0.222,-0.4559 -0.343,-0.9557 -0.354,-1.4642 l -25.952695,-24.7382 5.8394,-4.7175 23.718295,25.8628 c 0.845,0.038 1.646,0.3883 2.253,0.9848 0.606,0.5964 0.976,1.3974 1.038,2.2513 0.062,0.8539 -0.187,1.7012 -0.7,2.3815 -0.513,0.6803 -1.255,1.1463 -2.085,1.3096 z"
     fill="#daaf87"
     id="path9" /><path
     d="m 91.543855,146.93797 5.1073,-6.1775 c 0.1453,-0.1758 0.2522,-0.3818 0.3134,-0.6041 0.0612,-0.2222 0.0753,-0.4555 0.0413,-0.6839 -0.034,-0.2284 -0.1153,-0.4465 -0.2383,-0.6395 -0.1231,-0.193 -0.285,-0.3564 -0.4748,-0.479 l -6.649,-4.296 c -0.8755,-0.7622 -2.0082,-1.1349 -3.1496,-1.0365 -1.1414,0.0984 -2.1984,0.6599 -2.9393,1.5614 -0.7409,0.9015 -1.1053,2.0694 -1.0131,3.2478 0.0921,1.1783 0.6332,2.2708 1.5046,3.038 l 5.1385,6.0827 c 0.1472,0.1741 0.329,0.3134 0.5331,0.4085 0.204,0.095 0.4255,0.1436 0.6494,0.1423 0.2239,-0.001 0.4449,-0.0523 0.6479,-0.1497 0.203,-0.0973 0.3833,-0.2387 0.5286,-0.4145 z"
     fill="#cbcbcb"
     id="path10" /><path
     d="m 105.72255,269.27077 h 6.548 l 3.115,-25.127 -9.664,0.001 z"
     fill="#daaf87"
     id="path11" /><path
     d="m 104.75555,275.06977 20.294,-0.001 v -0.274 c 0,-2.234 -0.832,-4.376 -2.313,-5.956 -1.482,-1.58 -3.491,-2.467 -5.586,-2.467 v 0 h -12.395 z"
     fill="#2f2e41"
     id="path12" /><path
     d="m 54.502555,269.27077 h 6.5477 l 3.1153,-25.127 -9.6642,0.001 z"
     fill="#daaf87"
     id="path13" /><path
     d="m 53.535255,275.06977 20.2944,-0.001 v -0.274 c -2e-4,-2.234 -0.8325,-4.376 -2.3138,-5.956 -1.4814,-1.58 -3.4905,-2.467 -5.5854,-2.467 h -5e-4 -12.3951 z"
     fill="#2f2e41"
     id="path14" /><path
     d="m 71.244255,160.35097 -6.4623,-23.6447 8.3834,-4.6668 h 11.7019 l 4.5514,4.8223 c 0,0 7.6041,5.2395 5.7636,11.0446 l -2.9692,13.2224 4.541,21.0003 22.879495,31.4227 5.416,30.865 -21.32,5.536 -23.053995,-44.957 -11.1779,49.779 -20.7948,-1.036 7.1655,-60.3564 c 0,0 2.0427,-18.3867 12.7498,-29.867 z"
     fill="#2f2e41"
     id="path15" /><path
     d="m 58.417155,181.25567 c -0.3564,-0.361 -0.631,-0.7974 -0.8045,-1.2786 -0.1735,-0.4811 -0.2417,-0.9953 -0.1998,-1.5064 0.0419,-0.511 0.1929,-1.0064 0.4424,-1.4513 0.2495,-0.4449 0.5913,-0.8285 1.0015,-1.1237 l 4.9579,-34.192 7.116,2.297 -7.1233,32.9305 c 0.4395,0.7373 0.5992,1.6137 0.4488,2.4633 -0.1505,0.8496 -0.6005,1.6133 -1.2649,2.1463 -0.6645,0.5331 -1.4971,0.7985 -2.3401,0.7459 -0.843,-0.0525 -1.6379,-0.4194 -2.234,-1.031 z"
     fill="#daaf87"
     id="path16" /><path
     d="m 62.729655,147.54107 8.2917,0.9171 c 0.2359,0.0261 0.475,0.003 0.7008,-0.0674 0.2258,-0.0705 0.4332,-0.1868 0.6079,-0.3411 0.1747,-0.1543 0.3127,-0.3429 0.4046,-0.553 0.0918,-0.2101 0.1354,-0.4366 0.1278,-0.6643 l -0.2686,-7.9779 c 0.1324,-1.1586 -0.2196,-2.3203 -0.9789,-3.2303 -0.7592,-0.9101 -1.8636,-1.4942 -3.0711,-1.6243 -1.2075,-0.1301 -2.4195,0.2044 -3.3703,0.9302 -0.9508,0.7257 -1.5627,1.7835 -1.7017,2.9414 l -2.1492,7.6846 c -0.0615,0.22 -0.0728,0.4502 -0.0332,0.6748 0.0396,0.2246 0.1293,0.4383 0.2628,0.6267 0.1335,0.1884 0.3078,0.347 0.511,0.4649 0.2031,0.118 0.4304,0.1925 0.6664,0.2186 z"
     fill="#cbcbcb"
     id="path17" /><path
     d="m 92.191955,125.34357 v -10.3544 c 0,-3.6799 -1.3746,-7.20907 -3.8213,-9.81113 -2.4467,-2.60207 -5.7652,-4.0639 -9.2254,-4.0639 -3.4602,0 -6.7786,1.46183 -9.2253,4.0639 -2.4468,2.60206 -3.8213,6.13123 -3.8213,9.81113 v 10.3544 c 5e-4,0.4942 0.1853,0.9679 0.5139,1.3173 0.3285,0.3494 0.774,0.546 1.2386,0.5466 h 22.5882 c 0.4647,-6e-4 0.9101,-0.1972 1.2387,-0.5466 0.3285,-0.3494 0.5133,-0.8231 0.5139,-1.3173 z"
     fill="#2f2e41"
     id="path18" /><path
     d="m 82.044155,126.24097 c -5.0705,0 -9.181,-4.3267 -9.181,-9.6641 0,-5.3374 4.1105,-9.66421 9.181,-9.66421 5.0705,0 9.181,4.32681 9.181,9.66421 0,5.3374 -4.1105,9.6641 -9.181,9.6641 z"
     fill="#daaf87"
     id="path19" /><path
     d="m 96.057155,115.41357 c -0.0032,-2.7663 -1.1207,-5.41832 -3.1074,-7.37435 -1.9867,-1.95603 -4.6803,-3.0563 -7.4899,-3.05942 h -1.9996 c -2.8096,0.003 -5.5032,1.1034 -7.4898,3.05944 -1.9867,1.95603 -3.1042,4.60803 -3.1073,7.37433 v 0.1968 h 4.2255 l 1.4413,-3.9734 0.2882,3.9734 h 2.1838 l 0.7271,-2.0047 0.1455,2.0047 h 14.1826 z"
     fill="#2f2e41"
     id="path20" /><path
     d="m 83.145255,127.41997 c 0.1994,-0.2729 0.3184,-0.5973 0.3435,-0.9356 0.025,-0.3383 -0.045,-0.677 -0.2019,-0.9768 -2.1292,-4.0947 -5.1104,-11.6608 -1.1533,-16.32683 l 0.2844,-0.33528 h -11.4877 v 17.43811 l 10.4357,1.8617 c 0.1056,0.0189 0.2127,0.0284 0.32,0.0286 0.2849,-1e-4 0.5657,-0.0684 0.8194,-0.1994 0.2537,-0.1311 0.473,-0.3211 0.6399,-0.5545 z"
     fill="#2f2e41"
     id="path21" /><path
     d="M -0.19609409,275.06977 H 147.85555 c 0.103,0 0.201,-0.051 0.274,-0.142 0.073,-0.091 0.114,-0.213 0.114,-0.342 0,-0.128 -0.041,-0.251 -0.114,-0.341 -0.073,-0.091 -0.171,-0.142 -0.274,-0.142 H -0.19609409 c -0.103057,0 -0.201889,0.051 -0.274765,0.142 -0.0728603,0.09 -0.11381488,0.213 -0.11381488,0.341 0,0.129 0.0409546,0.251 0.11381488,0.342 0.072876,0.091 0.171708,0.142 0.274765,0.142 z"
     fill="#cbcbcb"
     id="path22" /><path
     d="m 131.97455,157.20457 -8.097,-1.9243 c -0.391,-0.0929 -0.801,-0.0465 -1.163,0.1313 -0.361,0.1779 -0.653,0.4768 -0.827,0.8475 l -8.294,17.6496 c -0.09,0.1927 -0.138,0.403 -0.141,0.6165 -0.002,0.2135 0.041,0.425 0.126,0.6198 0.085,0.1947 0.211,0.3681 0.368,0.5079 0.158,0.1399 0.343,0.2429 0.543,0.3019 l 8.228,2.3991 c 0.441,0.1284 0.912,0.088 1.326,-0.1138 0.414,-0.2018 0.742,-0.5512 0.923,-0.9829 l 5.292,-12.6144 0.161,0.0917 1.007,-2.3899 -0.167,-0.0879 c 0.174,-1.063 2.814,-4.5528 0.715,-5.0521 z"
     fill="#3f3d56"
     id="path23" /><path
     d="m 124.77755,155.46277 c -0.766,-0.2257 -1.894,-0.5359 -2.295,0.4662 l -7.992,17.7843 c -0.046,0.1024 -0.07,0.214 -0.071,0.3272 -0.001,0.1132 0.021,0.2254 0.064,0.3288 0.044,0.1035 0.108,0.1959 0.188,0.2709 0.081,0.075 0.176,0.1309 0.278,0.1639 l 8.067,2.5656 c 1.351,1.624 8.194,-18.9121 8.731,-19.1259 0.048,-0.1202 0.071,-0.2501 0.067,-0.3806 -0.004,-0.1305 -0.035,-0.2585 -0.091,-0.375 -0.056,-0.1165 -0.136,-0.2187 -0.233,-0.2994 -0.098,-0.0807 -0.211,-0.1381 -0.331,-0.168 -0.335,0.001 -1.122,-0.4876 -1.328,-0.004 0.006,0.5791 -4.373,-0.9012 -4.594,-0.8386 -0.148,-0.0362 -0.277,-0.13 -0.363,-0.2626 -0.085,-0.1327 -0.12,-0.2944 -0.097,-0.4528 z"
     fill="currentColor"
     id="path24" /><g
     style="fill:none"
     id="g24"
     transform="matrix(0.77384928,0,0,0.77384928,114.99914,34.767614)"><path
       d="m 92.7332,62.7132 c -8.1401,-0.4145 -16.2771,0.8045 -23.9314,3.585 -7.6543,2.7806 -14.6708,7.0664 -20.6357,12.6047 -0.8869,0.8256 -2.0547,1.2835 -3.2679,1.2814 -1.2131,-0.0021 -2.3814,-0.4641 -3.269,-1.2927 l -5.3926,-5.0375 c -0.4818,-0.4494 -0.8664,-0.9926 -1.1299,-1.5961 -0.2636,-0.6035 -0.4005,-1.2544 -0.4023,-1.9124 -0.0018,-0.6579 0.1316,-1.309 0.3919,-1.9127 0.2603,-0.6038 0.642,-1.1474 1.1213,-1.5972 14.6234,-13.7358 33.9863,-21.3063 54.0736,-21.1418 20.0868,0.1646 39.3578,8.0516 53.8158,22.0256 0.473,0.4578 0.848,1.0077 1.102,1.6157 0.253,0.608 0.379,1.2612 0.369,1.9191 -0.009,0.658 -0.153,1.3068 -0.423,1.9063 -0.27,0.5996 -0.66,1.1371 -1.147,1.5794 l -5.443,4.9368 c -0.892,0.813 -2.059,1.2579 -3.268,1.2451 -1.208,-0.0128 -2.368,-0.4821 -3.247,-1.3139 C 121.402,69.4241 107.438,63.4238 92.7332,62.7132 Z"
       fill="currentColor"
       id="path1-6" /><path
       d="m 92.2841,72.1261 c 14.4429,0.6965 28.1799,6.4973 38.7629,16.3685 0.485,0.4542 0.87,1.0038 1.132,1.6139 0.261,0.6101 0.394,1.2676 0.389,1.9309 -0.006,0.6633 -0.148,1.318 -0.419,1.9228 -0.271,0.6048 -0.665,1.1465 -1.157,1.591 l -4.065,3.6888 c -0.883,0.802 -2.034,1.244 -3.228,1.241 -1.194,-0.003 -2.345,-0.451 -3.228,-1.2574 C 112.045,91.5356 101.078,87.2271 89.6812,87.1295 78.2847,87.032 67.2641,91.1522 58.741,98.6971 57.849,99.4957 56.69,99.9316 55.4914,99.9194 54.2927,99.9073 53.1409,99.4478 52.2617,98.6312 L 48.242,94.8796 c -0.486,-0.4508 -0.8734,-0.9972 -1.138,-1.6047 -0.2645,-0.6075 -0.4003,-1.263 -0.3989,-1.925 0.0014,-0.662 0.14,-1.3163 0.4071,-1.9215 0.2671,-0.6052 0.6568,-1.1482 1.1447,-1.5948 5.9386,-5.386 12.8842,-9.5457 20.439,-12.2411 7.5548,-2.6953 15.5705,-3.8733 23.5882,-3.4664 z"
       fill="currentColor"
       id="path2-6" /><path
       d="m 90.5401,108.826 c -8.4691,-0.428 -16.783,2.34 -23.2945,7.755 -0.8999,0.766 -2.05,1.176 -3.2332,1.152 -1.1833,-0.024 -2.3177,-0.48 -3.1891,-1.283 l -1.9423,-1.816 c -0.4974,-0.466 -0.8906,-1.032 -1.1536,-1.66 -0.2629,-0.629 -0.3896,-1.305 -0.3718,-1.986 0.0178,-0.68 0.1798,-1.349 0.4752,-1.961 0.2955,-0.613 0.7177,-1.156 1.2388,-1.593 8.4336,-7.137 19.1572,-11.0045 30.2189,-10.8974 11.0615,0.1071 21.7255,4.1814 30.0515,11.4814 0.499,0.449 0.897,0.998 1.17,1.611 0.273,0.613 0.414,1.276 0.414,1.946 0,0.67 -0.141,1.332 -0.414,1.944 -0.273,0.612 -0.672,1.158 -1.171,1.605 l -1.97,1.79 c -0.881,0.787 -2.021,1.224 -3.204,1.228 -1.183,0.004 -2.328,-0.425 -3.218,-1.206 -5.715,-4.896 -12.8964,-7.75 -20.4069,-8.11 z"
       fill="currentColor"
       id="path3-3" /><circle
       cx="91.8424"
       cy="134.144"
       r="11.5954"
       fill="currentColor"
       id="circle3" /><rect
       x="29.992201"
       y="42.416901"
       width="11.8383"
       height="141.515"
       rx="5.9191599"
       transform="rotate(-44.592,29.9922,42.4169)"
       fill="#000000"
       stroke="#ffffff"
       stroke-width="3"
       id="rect3" /></g></svg>
