<svg width="288" height="201" viewBox="0 0 288 201" fill="none" xmlns="http://www.w3.org/2000/svg">
<g clip-path="url(#clip0_2607_910)">
<path d="M274.595 39.0995H13.4048C9.85086 39.0954 6.44363 37.6781 3.93061 35.1584C1.41759 32.6387 0.00401405 29.2224 0 25.659V13.4404C0.00401405 9.87705 1.41759 6.46076 3.93061 3.94106C6.44363 1.42136 9.85086 0.00402591 13.4048 0H274.595C278.149 0.00402472 281.556 1.42136 284.069 3.94106C286.582 6.46076 287.996 9.87705 288 13.4404V25.659C287.996 29.2224 286.582 32.6387 284.069 35.1584C281.556 37.6781 278.149 39.0954 274.595 39.0995ZM13.4048 0.814568C10.0663 0.818363 6.86552 2.14981 4.50481 4.5168C2.1441 6.88379 0.816191 10.093 0.812407 13.4404V25.659C0.816191 29.0065 2.1441 32.2157 4.50481 34.5827C6.86552 36.9497 10.0663 38.2811 13.4048 38.2849H274.595C277.934 38.2811 281.134 36.9497 283.495 34.5827C285.856 32.2157 287.184 29.0065 287.188 25.659V13.4404C287.184 10.093 285.856 6.88379 283.495 4.5168C281.134 2.14981 277.934 0.818363 274.595 0.814568H13.4048Z" fill="#3F3D56"/>
<path d="M229.506 79.6824H56.0565C51.794 79.6824 48.3386 83.147 48.3386 87.4208V87.4208C48.3386 91.6946 51.794 95.1592 56.0565 95.1592H229.506C233.769 95.1592 237.224 91.6946 237.224 87.4208C237.224 83.147 233.769 79.6824 229.506 79.6824Z" fill="currentColor"/>
<path d="M229.506 128.891H56.0565C51.794 128.891 48.3386 132.356 48.3386 136.63V136.63C48.3386 140.903 51.794 144.368 56.0565 144.368H229.506C233.769 144.368 237.224 140.903 237.224 136.63C237.224 132.356 233.769 128.891 229.506 128.891Z" fill="#E6E6E6"/>
<path d="M229.506 178.1H56.0565C51.794 178.1 48.3386 181.565 48.3386 185.838V185.838C48.3386 190.112 51.794 193.577 56.0565 193.577H229.506C233.769 193.577 237.224 190.112 237.224 185.838C237.224 181.565 233.769 178.1 229.506 178.1Z" fill="#E6E6E6"/>
<path d="M262.61 27.9099C262.425 28.1747 262.142 28.355 261.825 28.4111C261.507 28.4672 261.181 28.3946 260.917 28.2092L254.285 23.5823C254.021 23.3969 253.841 23.1139 253.785 22.7956C253.729 22.4772 253.801 22.1496 253.986 21.8848C254.171 21.62 254.453 21.4397 254.771 21.3836C255.088 21.3274 255.415 21.4001 255.679 21.5855L262.311 26.2124C262.575 26.3978 262.755 26.6808 262.811 26.9991C262.867 27.3175 262.795 27.6451 262.61 27.9099Z" fill="currentColor"/>
<path d="M255.08 22.653C254.101 24.0549 252.73 25.1342 251.139 25.7544C249.548 26.3747 247.81 26.5081 246.144 26.1377C244.477 25.7673 242.958 24.9098 241.778 23.6736C240.598 22.4375 239.809 20.8781 239.513 19.1928C239.217 17.5075 239.425 15.7719 240.113 14.2056C240.8 12.6392 241.935 11.3123 243.375 10.3928C244.814 9.47333 246.493 9.00246 248.2 9.03978C249.906 9.07709 251.563 9.62091 252.961 10.6025C254.834 11.9203 256.109 13.9292 256.506 16.1884C256.903 18.4475 256.391 20.7724 255.08 22.653ZM242.71 13.9681C241.975 15.0195 241.569 16.2656 241.541 17.5487C241.513 18.8319 241.865 20.0946 242.553 21.177C243.241 22.2595 244.233 23.1131 245.405 23.63C246.577 24.1469 247.875 24.3039 249.135 24.081C250.396 23.8581 251.562 23.2654 252.487 22.3779C253.412 21.4903 254.053 20.3478 254.33 19.0947C254.607 17.8417 254.507 16.5344 254.043 15.3382C253.58 14.142 252.772 13.1106 251.724 12.3744C250.317 11.3892 248.578 11.0037 246.888 11.3024C245.198 11.6012 243.695 12.5599 242.71 13.9681Z" fill="currentColor"/>
<path d="M267.08 102.542H20.9196C20.8119 102.542 20.7086 102.499 20.6324 102.423C20.5562 102.346 20.5134 102.243 20.5134 102.135C20.5134 102.027 20.5562 101.923 20.6324 101.847C20.7086 101.77 20.8119 101.728 20.9196 101.728H267.08C267.188 101.728 267.291 101.77 267.368 101.847C267.444 101.923 267.487 102.027 267.487 102.135C267.487 102.243 267.444 102.346 267.368 102.423C267.291 102.499 267.188 102.542 267.08 102.542Z" fill="#3F3D56"/>
<path d="M267.08 151.771H20.9196C20.8119 151.771 20.7086 151.728 20.6324 151.652C20.5562 151.575 20.5134 151.472 20.5134 151.364C20.5134 151.256 20.5562 151.152 20.6324 151.076C20.7086 151 20.8119 150.957 20.9196 150.957H267.08C267.188 150.957 267.291 151 267.368 151.076C267.444 151.152 267.487 151.256 267.487 151.364C267.487 151.472 267.444 151.575 267.368 151.652C267.291 151.728 267.188 151.771 267.08 151.771Z" fill="#3F3D56"/>
<path d="M267.08 201H20.9196C20.8119 201 20.7086 200.957 20.6324 200.881C20.5562 200.804 20.5134 200.701 20.5134 200.593C20.5134 200.485 20.5562 200.381 20.6324 200.305C20.7086 200.228 20.8119 200.185 20.9196 200.185H267.08C267.188 200.185 267.291 200.228 267.368 200.305C267.444 200.381 267.487 200.485 267.487 200.593C267.487 200.701 267.444 200.804 267.368 200.881C267.291 200.957 267.188 201 267.08 201Z" fill="#3F3D56"/>
<path d="M15.9463 9.66345V28.9904" stroke="black" stroke-width="2"/>
</g>
<defs>
<clipPath id="clip0_2607_910">
<rect width="288" height="201" fill="white"/>
</clipPath>
</defs>
</svg>
