<?xml version="1.0" encoding="UTF-8" standalone="no"?>
<svg
   width="243.24265"
   height="295.98444"
   viewBox="0 0 243.24265 295.98444"
   fill="none"
   version="1.1"
   id="svg41"
   sodipodi:docname="welcome.svg"
   xml:space="preserve"
   inkscape:version="1.3.2 (091e20e, 2023-11-25, custom)"
   xmlns:inkscape="http://www.inkscape.org/namespaces/inkscape"
   xmlns:sodipodi="http://sodipodi.sourceforge.net/DTD/sodipodi-0.dtd"
   xmlns="http://www.w3.org/2000/svg"
   xmlns:svg="http://www.w3.org/2000/svg"><sodipodi:namedview
     id="namedview41"
     pagecolor="#ffffff"
     bordercolor="#999999"
     borderopacity="1"
     inkscape:showpageshadow="2"
     inkscape:pageopacity="0"
     inkscape:pagecheckerboard="0"
     inkscape:deskcolor="#d1d1d1"
     showgrid="false"
     inkscape:zoom="2.1213203"
     inkscape:cx="140.94995"
     inkscape:cy="146.84251"
     inkscape:window-width="1920"
     inkscape:window-height="1009"
     inkscape:window-x="-8"
     inkscape:window-y="-8"
     inkscape:window-maximized="1"
     inkscape:current-layer="svg41" /><defs
     id="defs41"><clipPath
       id="clip0_2592_684"><rect
         width="196"
         height="221"
         fill="#ffffff"
         id="rect35"
         x="0"
         y="0" /></clipPath><clipPath
       id="a"><path
         fill="#ffffff"
         d="M -20,0 H 175.5 V 221 H -20 Z"
         id="path13-8" /></clipPath></defs><g
     style="fill:none"
     id="g41"
     transform="matrix(0.96726423,0,0,0.96726423,29.325621,80.890834)"><g
       clip-path="url(#clip0_2592_684)"
       id="g35"><path
         d="m 75.1459,135.35 c 1.1138,2.157 0.9045,4.481 -0.4676,5.19 -1.3721,0.709 -3.3873,-0.465 -4.5011,-2.622 -0.4876,-0.944 -0.7215,-1.921 -0.7155,-2.779 l -4.6049,-9.2 4.3612,-2.07 4.0766,9.289 c 0.7035,0.492 1.3638,1.248 1.8513,2.192 z"
         fill="#ffb6b6"
         id="path1" /><path
         d="m 40.8771,218.361 h 3.9263 l 1.8677,-15.152 h -5.7948 z"
         fill="#a0616a"
         id="path2" /><path
         d="m 54.329,218.272 c 0.1222,0.206 0.1867,0.871 0.1867,1.111 0,0.736 -0.5966,1.333 -1.3325,1.333 H 41.024 c -0.5021,0 -0.9091,-0.407 -0.9091,-0.91 V 219.3 c 0,0 -0.6015,-1.522 0.6369,-3.399 0,0 1.5392,1.469 3.8391,-0.832 l 0.6782,-1.229 4.9093,3.592 2.7212,0.335 c 0.5953,0.074 1.1232,-0.011 1.4294,0.505 z"
         fill="#2f2e41"
         id="path3" /><path
         d="m 22.4573,218.361 h 3.9263 l 1.8677,-15.152 h -5.7948 z"
         fill="#a0616a"
         id="path4" /><path
         d="m 35.9092,218.272 c 0.1222,0.206 0.1867,0.871 0.1867,1.111 0,0.736 -0.5966,1.333 -1.3325,1.333 H 22.6042 c -0.5021,0 -0.9091,-0.407 -0.9091,-0.91 V 219.3 c 0,0 -0.6015,-1.522 0.6369,-3.399 0,0 1.5392,1.469 3.8391,-0.832 l 0.6782,-1.229 4.9093,3.592 2.7212,0.335 c 0.5953,0.074 1.1232,-0.011 1.4294,0.505 z"
         fill="#2f2e41"
         id="path5" /><path
         d="m 16.8999,128.961 -1.6541,10.113 5.1459,32.73 1.2865,39.534 h 6.9475 l 3.528,-37.327 -0.3676,-24.64 8.2702,62.334 h 7.2195 l 0.6831,-78.147 z"
         fill="#2f2e41"
         id="path6" /><path
         d="m 25.5376,76.556 h 13.0065 l 11.2526,6.6195 c -1.7513,-0.4454 -3.1043,15.8112 -3.1503,30.1755 -0.0031,0.954 -0.9484,2.052 -0.9397,2.984 0.0076,0.803 0.9677,1.445 0.9843,2.224 0.0156,0.729 0.0353,1.445 0.0591,2.146 0.0198,0.583 -1.069,1.354 -1.0434,1.914 0.0328,0.716 1.182,1.213 1.2247,1.887 0.2623,4.14 0.7145,7.421 1.3951,9.052 0,0 -29.0374,8.09 -31.2428,-4.413 0,0 0.1259,-4.495 0.1083,-10.701 -0.0016,-0.55 -0.4703,-1.05 -0.4743,-1.626 -0.003,-0.428 0.4593,-0.927 0.4548,-1.366 -0.0038,-0.362 -0.45,-0.682 -0.4548,-1.051 -0.0029,-0.219 0.4359,-0.486 0.4326,-0.708 C 16.974,101.891 16.182,87.0183 13.4081,83.1755 Z"
         fill="currentColor"
         id="path7" /><path
         d="m 38.4022,76.556 c 0,0 8.428,3.0644 11.1023,5.5055 1.4211,1.2973 10.9515,25.7535 10.9515,25.7535 l 13.2373,23.065 -6.8808,2.615 -14.0754,-21.267 -6.2485,-13.9745 z"
         fill="currentColor"
         id="path8" /><path
         d="m 20.921,136.223 c 1.2293,2.093 1.1463,4.425 -0.1853,5.207 -1.3315,0.783 -3.4075,-0.28 -4.6367,-2.373 -0.5381,-0.917 -0.8247,-1.879 -0.8652,-2.736 l -5.0974,-8.937 4.2423,-2.304 4.5748,9.054 c 0.7291,0.453 1.4294,1.172 1.9675,2.089 z"
         fill="#a0616a"
         id="path9" /><path
         d="M 23.6998,87.9564 20.0241,79.498 c 0,0 -8.6377,2.7582 -8.6377,6.8035 0,0 -5.14584,30.8915 -4.41071,38.6145 l 4.77831,8.458 6.7999,-5.333 -4.227,-9.745 z"
         fill="currentColor"
         id="path10" /><path
         d="m 16.1405,142.908 4.3356,-8.615 5.0615,6.988 -4.5553,4.413 z"
         fill="#2f2e41"
         id="path11" /><path
         d="m 31.9183,74.1261 c 4.6458,0 8.412,-3.7681 8.412,-8.4163 0,-4.6482 -3.7662,-8.4163 -8.412,-8.4163 -4.6458,0 -8.412,3.7681 -8.412,8.4163 0,4.6482 3.7662,8.4163 8.412,8.4163 z"
         fill="#a0616a"
         id="path12" /><path
         d="m 38.4778,56.308 c -1.4618,-0.4684 -2.1535,-2.2081 -3.4906,-2.9622 -1.4788,-0.834 -3.2479,-1.3547 -4.8786,-0.8828 -1.0005,0.2896 -1.8722,0.9295 -2.8734,1.2166 -0.1751,0.0502 -0.3592,0.0848 -0.5462,0.1026 -1.0768,0.1026 -2.0012,0.7487 -2.5393,1.6875 l -0.0141,0.0243 c -0.3159,0.5409 -0.765,0.9889 -1.1635,1.4721 -1.4543,1.7632 -2.2415,4.0548 -2.2253,6.3409 0.0174,2.4573 0.9625,4.8971 2.6047,6.7244 l 0.4195,-0.1935 c 1.0139,0.8761 2.0277,1.7523 3.0415,2.6285 -0.5517,-1.9918 -1.1086,-4.0534 -0.8165,-6.0995 0.2921,-2.0462 1.6673,-4.0876 3.6951,-4.4826 0.7671,-0.1494 1.5761,-0.0591 2.3207,-0.2964 0.7447,-0.2372 1.4305,-1.0031 1.1751,-1.7421 0.4611,1.2196 2.1809,1.1476 3.3646,1.6932 2.6493,1.2213 1.6795,-0.6661 3.9793,1.1292 0.7768,-4.3075 3.7525,-4.4998 -2.053,-6.3602 z"
         fill="#2f2e41"
         id="path13" /><path
         d="M 0,220.425 C 0,220.744 0.256085,221 0.574979,221 H 195.425 c 0.319,0 0.575,-0.256 0.575,-0.575 0,-0.319 -0.256,-0.575 -0.575,-0.575 H 0.574979 C 0.256085,219.85 0,220.106 0,220.425 Z"
         fill="#cccccc"
         id="path14" /><path
         d="M 169.935,221 H 84.6949 C 74.3014,221 65.8456,212.54 65.8456,202.141 V 18.8591 C 65.8456,8.46023 74.3014,0 84.6949,0 h 85.2401 c 10.393,0 18.849,8.46023 18.849,18.8591 V 202.141 c 0,10.399 -8.456,18.859 -18.849,18.859 z"
         fill="#3f3d56"
         id="path15" /><path
         d="m 188.784,67.417 c -0.44,0 -0.797,0.3578 -0.797,0.7978 v 25.5307 c 0,0.44 0.357,0.7978 0.797,0.7978 0.44,0 0.797,-0.3578 0.797,-0.7978 V 68.2148 c 0,-0.44 -0.357,-0.7978 -0.797,-0.7978 z"
         fill="#3f3d56"
         id="path16" /><path
         d="M 186.99,18.8593 V 202.138 c 0,9.051 -7.041,16.455 -15.944,17.029 h -0.004 c -0.132,0.008 -0.264,0.016 -0.399,0.02 -0.235,0.012 -0.471,0.016 -0.71,0.016 0,0 -0.877,-0.064 -2.48,-0.183 -1.619,-0.12 -3.975,-0.3 -6.913,-0.535 -0.882,-0.068 -1.811,-0.143 -2.791,-0.223 -1.954,-0.16 -4.099,-0.335 -6.4,-0.535 -0.917,-0.076 -1.866,-0.159 -2.834,-0.243 -4.952,-0.427 -10.499,-0.926 -16.348,-1.492 -0.988,-0.092 -1.985,-0.188 -2.99,-0.287 -0.263,-0.028 -0.53,-0.052 -0.797,-0.08 -4.171,-0.411 -60.74,-11.349 -60.74,-13.487 V 18.8593 c 0,-9.4264 7.6353,-17.06566 17.0568,-17.06566 h 10.183 c 1.6268,0 2.9345,1.26855 3.0741,2.89215 0.012,0.10771 0.0239,0.2154 0.0439,0.32312 0.295,1.63158 1.7902,2.76848 3.4492,2.76848 h 51.736 c 1.659,0 3.154,-1.1369 3.449,-2.76848 0.02,-0.10772 0.032,-0.21541 0.044,-0.32312 0.14,-1.6236 1.447,-2.89215 3.074,-2.89215 h 10.183 c 9.422,0 17.057,7.63926 17.057,17.06566 z"
         fill="#ffffff"
         id="path17" /><path
         d="m 65.447,48.269 c -0.4398,0 -0.7975,0.3578 -0.7975,0.7978 v 6.3827 c 0,0.44 0.3577,0.7978 0.7975,0.7978 0.4397,0 0.7974,-0.3578 0.7974,-0.7978 v -6.3827 c 0,-0.44 -0.3577,-0.7978 -0.7974,-0.7978 z"
         fill="#3f3d56"
         id="path18" /><path
         d="m 65.447,67.417 c -0.4398,0 -0.7975,0.3578 -0.7975,0.7978 v 12.3664 c 0,0.4401 0.3577,0.7979 0.7975,0.7979 0.4397,0 0.7974,-0.3579 0.7974,-0.7979 V 68.2148 c 0,-0.44 -0.3577,-0.7978 -0.7974,-0.7978 z"
         fill="#3f3d56"
         id="path19" /><path
         d="m 65.447,84.9693 c -0.4398,0 -0.7975,0.3578 -0.7975,0.7978 v 12.3665 c 0,0.44 0.3577,0.7978 0.7975,0.7978 0.4397,0 0.7974,-0.3578 0.7974,-0.7978 V 85.7671 c 0,-0.44 -0.3577,-0.7978 -0.7974,-0.7978 z"
         fill="#3f3d56"
         id="path20" /><path
         d="M 94.6022,4.58759 H 79.3523 c -0.0828,0 -0.1499,0.06713 -0.1499,0.14995 v 1.69467 c 0,0.08282 0.0671,0.14996 0.1499,0.14996 h 15.2499 c 0.0828,0 0.1499,-0.06714 0.1499,-0.14996 V 4.73754 c 0,-0.08282 -0.0671,-0.14995 -0.1499,-0.14995 z"
         fill="#e6e6e6"
         id="path21" /><path
         d="m 162.27,6.5822 c 0.881,0 1.595,-0.7144 1.595,-1.59566 0,-0.88127 -0.714,-1.59567 -1.595,-1.59567 -0.881,0 -1.595,0.7144 -1.595,1.59567 0,0.88126 0.714,1.59566 1.595,1.59566 z"
         fill="#e6e6e6"
         id="path22" /><path
         d="m 166.656,6.5822 c 0.88,0 1.594,-0.7144 1.594,-1.59566 0,-0.88127 -0.714,-1.59567 -1.594,-1.59567 -0.881,0 -1.595,0.7144 -1.595,1.59567 0,0.88126 0.714,1.59566 1.595,1.59566 z"
         fill="#e6e6e6"
         id="path23" /><path
         d="m 171.041,6.5822 c 0.881,0 1.595,-0.7144 1.595,-1.59566 0,-0.88127 -0.714,-1.59567 -1.595,-1.59567 -0.88,0 -1.594,0.7144 -1.594,1.59567 0,0.88126 0.714,1.59566 1.594,1.59566 z"
         fill="#e6e6e6"
         id="path24" /><path
         d="M 161.136,46 H 93.4944 c -1.0657,0 -1.9326,-0.8674 -1.9326,-1.9336 0,-1.0662 0.8669,-1.9336 1.9326,-1.9336 h 67.6416 c 1.065,0 1.932,0.8674 1.932,1.9336 0,1.0662 -0.867,1.9336 -1.932,1.9336 z"
         fill="#e6e6e6"
         id="path25" /><path
         d="m 172.509,198.997 h -25.124 c -1.065,0 -1.932,-0.868 -1.932,-1.934 0,-1.066 0.867,-1.933 1.932,-1.933 h 25.124 c 1.066,0 1.933,0.867 1.933,1.933 0,1.066 -0.867,1.934 -1.933,1.934 z"
         fill="#e6e6e6"
         id="path26" /><path
         d="M 105.351,198.997 H 80.2272 c -1.0657,0 -1.9326,-0.868 -1.9326,-1.934 0,-1.066 0.8669,-1.933 1.9326,-1.933 h 25.1238 c 1.066,0 1.933,0.867 1.933,1.933 0,1.066 -0.867,1.934 -1.933,1.934 z"
         fill="#e6e6e6"
         id="path27" /><path
         d="M 174.442,51.1957 H 80.1881 v 0.4834 h 94.2539 z"
         fill="currentColor"
         id="path28" /><path
         d="M 161.136,75.4876 H 93.4944 c -1.0657,0 -1.9326,-0.8675 -1.9326,-1.9336 0,-1.0662 0.8669,-1.9336 1.9326,-1.9336 h 67.6416 c 1.065,0 1.932,0.8674 1.932,1.9336 0,1.0661 -0.867,1.9336 -1.932,1.9336 z"
         fill="#e6e6e6"
         id="path29" /><path
         d="M 174.442,80.6832 H 80.1881 v 0.4834 h 94.2539 z"
         fill="currentColor"
         id="path30" /><path
         d="M 161.136,104.975 H 93.4944 c -1.0657,0 -1.9326,-0.867 -1.9326,-1.933 0,-1.067 0.8669,-1.934 1.9326,-1.934 h 67.6416 c 1.065,0 1.932,0.867 1.932,1.934 0,1.066 -0.867,1.933 -1.932,1.933 z"
         fill="#e6e6e6"
         id="path31" /><path
         d="M 174.442,110.171 H 80.1881 v 0.483 h 94.2539 z"
         fill="currentColor"
         id="path32" /><path
         d="M 174.442,135.308 H 80.1881 v 0.483 h 94.2539 z"
         fill="currentColor"
         id="path33" /><path
         d="M 174.442,160.445 H 80.1881 v 0.483 h 94.2539 z"
         fill="currentColor"
         id="path34" /><path
         d="m 127.978,178.127 c 15.477,0 28.023,-12.553 28.023,-28.037 0,-15.485 -12.546,-28.038 -28.023,-28.038 -15.476,0 -28.0226,12.553 -28.0226,28.038 0,15.484 12.5466,28.037 28.0226,28.037 z"
         fill="currentColor"
         id="path35" /></g></g></svg>
