<svg width="21" height="21" viewBox="0 0 21 21" fill="none" xmlns="http://www.w3.org/2000/svg">
<path fill-rule="evenodd" clip-rule="evenodd" d="M20.3278 10.8253L18.9638 9.88091C18.7024 9.70009 18.3958 9.60379 18.0783 9.60379H12.0945V7.1854H18.0783C18.3958 7.1854 18.7024 7.0891 18.9638 6.90828L20.3278 5.96392C20.7484 5.67206 21 5.19251 21 4.67955C21 4.16659 20.7484 3.68704 20.3278 3.39518L18.9638 2.45082C18.7024 2.27 18.3958 2.1737 18.0783 2.1737H12.0945V1.59785C12.0945 0.716378 11.38 0 10.5005 0C9.62193 0 8.9065 0.716378 8.9065 1.59785V5.87253H2.92166C2.60424 5.87253 2.29861 5.96785 2.03622 6.14867L0.672189 7.09401C0.251579 7.38489 0 7.86542 0 8.37838C0 8.89134 0.251579 9.37089 0.672189 9.66275L2.03622 10.6071C2.29861 10.7879 2.60424 10.8832 2.92166 10.8832H8.9065V19.7687H7.26337C6.92335 19.7687 6.64818 20.0448 6.64818 20.3839C6.64818 20.7239 6.92335 21 7.26337 21H13.7376C14.0776 21 14.3528 20.7239 14.3528 20.3839C14.3528 20.0448 14.0776 19.7687 13.7376 19.7687H12.0945V14.6155H18.0783C18.3958 14.6155 18.7024 14.5192 18.9638 14.3384L20.3278 13.394C20.7484 13.1031 21 12.6226 21 12.1096C21 11.5967 20.7484 11.1171 20.3278 10.8253ZM12.0945 3.40501H18.0783C18.1442 3.40501 18.2081 3.42466 18.2631 3.462L19.6271 4.40636C19.7559 4.49579 19.7696 4.62747 19.7696 4.67955C19.7696 4.73163 19.7559 4.86331 19.6271 4.95176L18.2631 5.8971C18.2081 5.93444 18.1442 5.95409 18.0783 5.95409H12.0945V3.40501ZM8.9065 9.65292H2.92166C2.85582 9.65292 2.79194 9.63327 2.73691 9.59495L1.37288 8.65059C1.24414 8.56214 1.23038 8.43046 1.23038 8.37838C1.23038 8.32532 1.24414 8.19462 1.37288 8.10519L2.73691 7.16083C2.79194 7.12349 2.85582 7.10285 2.92166 7.10285H8.9065V9.65292ZM10.8641 19.7687H10.1369V1.59785C10.1369 1.39541 10.3 1.23032 10.5005 1.23032C10.701 1.23032 10.8641 1.39541 10.8641 1.59785V19.7687ZM19.6271 12.3828L18.2631 13.3272C18.2081 13.3645 18.1442 13.3852 18.0783 13.3852H12.0945V10.8351H18.0783C18.1442 10.8351 18.2081 10.8547 18.2631 10.8931L19.6271 11.8374C19.7559 11.9259 19.7696 12.0576 19.7696 12.1096C19.7696 12.1617 19.7559 12.2934 19.6271 12.3828Z" fill="#000000"/>
</svg>
