<svg id="Ebene_1" data-name="Ebene 1" xmlns="http://www.w3.org/2000/svg" viewBox="0 0 86.28 69.18"><defs><style>.cls-1{fill:#fff;}</style></defs><title>Zeichenfläche 4</title><path class="cls-1" d="M43.25,69.18a2,2,0,0,1-1.52-.71h0L6.83,39.17l-.13-.12a22.81,22.81,0,0,1,0-32.3A22.9,22.9,0,0,1,39,6.75l4.07,4.05,4.13-4.12a22.91,22.91,0,0,1,32.34,0,22.81,22.81,0,0,1,0,32.3.65.65,0,0,1-.12.11L44.55,68.7A2,2,0,0,1,43.25,69.18Zm-33.78-33,33.8,28.38L76.81,36.09a18.82,18.82,0,0,0,0-26.58,18.92,18.92,0,0,0-26.7,0l-5.4,5.4a2.06,2.06,0,0,1-1,.55,2,2,0,0,1-2-.5L36.22,9.58a18.91,18.91,0,0,0-26.69,0,18.81,18.81,0,0,0-.06,26.58Z"/></svg>