<svg width="23" height="24" viewBox="0 0 23 24" fill="none" xmlns="http://www.w3.org/2000/svg">
<path fill-rule="evenodd" clip-rule="evenodd" d="M10.5204 16.7895C10.6445 16.9237 10.8122 17 10.9865 17C11.1617 17 11.3294 16.9247 11.4525 16.7895L13.8075 14.2259C14.0642 13.9453 14.0642 13.4903 13.8075 13.2097C13.5498 12.9301 13.1321 12.9301 12.8744 13.2097L10.9865 15.2658L10.1263 14.328C9.86866 14.0484 9.45091 14.0484 9.19325 14.328C8.93558 14.6086 8.93558 15.0636 9.19325 15.3442L10.5204 16.7895Z" fill="#000000"/>
<path fill-rule="evenodd" clip-rule="evenodd" d="M11.5 20C14.5327 20 17 17.5327 17 14.5C17 11.4673 14.5327 9 11.5 9C8.46734 9 6 11.4673 6 14.5C6 17.5327 8.46734 20 11.5 20ZM11.5 10.3855C13.7693 10.3855 15.6145 12.2307 15.6145 14.5C15.6145 16.7683 13.7693 18.6145 11.5 18.6145C9.23172 18.6145 7.38545 16.7683 7.38545 14.5C7.38545 12.2307 9.23172 10.3855 11.5 10.3855Z" fill="#000000"/>
<path fill-rule="evenodd" clip-rule="evenodd" d="M20.7522 1.50872H19.484V0.708547C19.484 0.316607 19.1735 0 18.789 0C18.4056 0 18.094 0.316607 18.094 0.708547V1.50872H16.728V0.708547C16.728 0.316607 16.4174 0 16.033 0C15.6495 0 15.338 0.316607 15.338 0.708547V1.50872H7.66201V0.708547C7.66201 0.316607 7.35045 0 6.967 0C6.58256 0 6.272 0.316607 6.272 0.708547V1.50872H4.90596V0.708547C4.90596 0.316607 4.59441 0 4.21096 0C3.82651 0 3.51596 0.316607 3.51596 0.708547V1.50872H2.24777C1.00755 1.50872 0 2.53692 0 3.8003V21.7084C0 22.9718 1.00755 24 2.24777 24H20.7522C21.9924 24 23 22.9718 23 21.7084V3.8003C23 2.53692 21.9914 1.50872 20.7522 1.50872ZM21.61 21.7084C21.61 22.1899 21.2255 22.5829 20.7522 22.5829H2.24777C1.77445 22.5829 1.39001 22.1899 1.39001 21.7084V7.40106H21.61V21.7084ZM1.39001 3.8003C1.39001 3.31877 1.77445 2.92581 2.24777 2.92581H3.51596V3.72598C3.51596 4.11792 3.82651 4.43453 4.21096 4.43453C4.59441 4.43453 4.90596 4.11792 4.90596 3.72598V2.92581H6.272V3.72598C6.272 4.11792 6.58256 4.43453 6.967 4.43453C7.35045 4.43453 7.66201 4.11792 7.66201 3.72598V2.92581H15.338V3.72598C15.338 4.11792 15.6495 4.43453 16.033 4.43453C16.4174 4.43453 16.728 4.11792 16.728 3.72598V2.92581H18.094V3.72598C18.094 4.11792 18.4056 4.43453 18.789 4.43453C19.1735 4.43453 19.485 4.11792 19.485 3.72598V2.92581H20.7522C21.2255 2.92581 21.61 3.31877 21.61 3.8003V5.98397H1.39001V3.8003Z" fill="#000000"/>
</svg>
