<svg id="screenshot" viewBox="1114.4419786503477 1814.3063537312773 18 18" width="18" height="18" version="1.1" xmlns="http://www.w3.org/2000/svg" xmlns:xlink="http://www.w3.org/1999/xlink" style="-webkit-print-color-adjust: exact;"><g id="shape-ed41939a-b99b-11ec-92fc-9125989239cb"><path d="M1130.4419786503477,1830.3063537312773L1116.4419786503477,1830.3063537312773L1116.4419786503477,1816.3063537312773L1123.4419786503477,1816.3063537312773L1123.4419786503477,1814.3063537312773L1116.4419786503477,1814.3063537312773C1115.331978650347,1814.3063537312773,1114.4419786503477,1815.206353731277,1114.4419786503477,1816.3063537312773L1114.4419786503477,1830.3063537312773C1114.4419786503477,1831.4063537312777,1115.331978650347,1832.3063537312773,1116.4419786503477,1832.3063537312773L1130.4419786503477,1832.3063537312773C1131.541978650348,1832.3063537312773,1132.4419786503477,1831.4063537312777,1132.4419786503477,1830.3063537312773L1132.4419786503477,1823.3063537312773L1130.4419786503477,1823.3063537312773L1130.4419786503477,1830.3063537312773ZZM1125.4419786503477,1814.3063537312773L1125.4419786503477,1816.3063537312773L1129.0319786503478,1816.3063537312773L1119.2019786503479,1826.1363537312773L1120.6119786503477,1827.5463537312771L1130.4419786503477,1817.7163537312772L1130.4419786503477,1821.3063537312773L1132.4419786503477,1821.3063537312773L1132.4419786503477,1814.3063537312773L1125.4419786503477,1814.3063537312773ZZ" style="fill: rgb(11, 87, 208);"/></g></svg>