<?xml version="1.0" encoding="UTF-8"?>
<svg id="Ebene_2" data-name="Ebene 2" xmlns="http://www.w3.org/2000/svg" viewBox="0 0 199.69 199.6" fill="#000">
  <g id="Ebene_1-2" data-name="Ebene 1">
    <g>
      <path d="M199.69,189.09c-3.49,3.35-7.22,6.93-10.95,10.51h-.39c-.47-.53-.9-1.09-1.4-1.58-21.5-21.51-43.1-42.93-64.45-64.58-4.74-4.8-10.2-7.68-16.6-9.03-10.25-2.17-19.43,.69-27.67,6.68-3.71,2.69-6.93,6.06-10.19,8.96-3.52-3.51-7.13-7.11-10.87-10.85,10.26-11.75,22.99-19.73,39.59-21.19-.53-.6-.86-1.03-1.24-1.41-6.89-6.89-13.8-13.76-20.65-20.7-.92-.92-1.61-1.1-2.84-.61-10.78,4.3-20.12,10.73-28.28,18.93-1.68,1.7-3.3,3.46-4.89,5.13-3.82-3.87-7.41-7.5-11.09-11.22,9.46-10.38,20.4-19.3,33.31-25.2-6.66-6.68-13.32-13.37-20.38-20.46-4.87,3.76-10.27,7.49-15.17,11.8-4.85,4.28-9.2,9.13-13.92,13.88-3.85-3.59-7.59-7.07-11.48-10.68,8.88-10.03,18.46-19.06,29.77-26.31-.44-.51-.71-.86-1.02-1.18C19.51,30.61,10.14,21.23,.76,11.87c-.22-.23-.51-.38-.76-.57v-.39C3.56,7.23,7.12,3.54,10.55,0c63.1,63.08,125.92,125.88,189.14,189.09Z"/>
      <path d="M111.91,166.56c0,6.94-5.53,12.47-12.47,12.47-6.94,.01-12.49-5.54-12.49-12.47,.01-6.9,5.63-12.54,12.49-12.54s12.47,5.64,12.47,12.54Z"/>
      <path d="M199.49,67.48c-3.82,3.57-7.56,7.05-11.39,10.62-1.79-1.89-3.49-3.66-5.17-5.46-13.27-14.22-29.03-24.63-47.54-30.72-14.15-4.66-28.68-6.63-43.54-5.3-5.98,.53-11.91,1.73-17.87,2.58-.7,.09-1.71,.1-2.13-.3-4.02-3.87-7.94-7.84-12.14-12.03,19.9-6.48,39.89-7.97,60.17-4.79,35.29,5.52,60.67,23.46,79.61,45.4Z"/>
      <path d="M171.85,98.08c-3.61,3.67-7.19,7.3-11.34,11.53-.5-.72-1.01-1.72-1.76-2.49-6.09-6.34-12.67-12.08-20.32-16.52-6.88-3.99-14.18-6.88-21.9-8.79-1.41-.34-2.87-1.16-3.92-2.17-5.09-4.9-10.05-9.93-15.05-14.92,.09-.16,.18-.32,.28-.48,30.01-.27,54.23,12.16,74.01,33.84Z"/>
    </g>
  </g>
</svg>
