<svg width="25" height="22" viewBox="-0.33 0.25 25 22" fill="none" xmlns="http://www.w3.org/2000/svg">
<mask id="mask0" mask-type="alpha" maskUnits="userSpaceOnUse" x="0" y="0" width="25" height="22">
<path fill-rule="evenodd" clip-rule="evenodd" d="M0.0640259 0.6073H24.3662V21.8758H0.0640259V0.6073Z" fill="white"/>
</mask>
<g mask="url(#mask0)">
<path fill-rule="evenodd" clip-rule="evenodd" d="M17.9942 0.8183C17.8602 0.6833 17.6782 0.6073 17.4882 0.6073C17.2982 0.6073 17.1152 0.6833 16.9812 0.8183L14.8742 2.9423C14.7342 3.0823 14.5492 3.1603 14.3532 3.1603H9.99322C9.79722 3.1603 9.61222 3.0823 9.47122 2.9413L7.40022 0.8653C7.26722 0.7303 7.08522 0.6553 6.89522 0.6553H6.89422C6.70522 0.6553 6.52322 0.7313 6.38922 0.8663L0.223222 7.0773C-0.0527778 7.3553 -0.0517778 7.8053 0.225222 8.0833L1.99322 9.8553C2.32822 10.1923 2.51222 10.6413 2.51222 11.1193C2.51222 11.7383 2.68622 12.3293 3.00922 12.8393C2.30722 13.6933 2.35222 14.9633 3.14522 15.7633C3.52922 16.1493 4.03222 16.3733 4.57122 16.4003C4.59622 16.9213 4.80622 17.4353 5.20022 17.8333C5.58422 18.2203 6.08722 18.4433 6.62722 18.4703C6.65122 18.9923 6.86122 19.5063 7.25522 19.9033C7.87622 20.5293 8.76822 20.6873 9.52022 20.4163C9.62422 20.7153 9.79422 20.9963 10.0312 21.2353C10.8782 22.0893 12.2512 22.0893 13.0982 21.2353L13.4002 20.9323C13.5882 20.7423 13.7342 20.5263 13.8382 20.2953C14.6802 21.0403 15.9792 21.0233 16.8002 20.1963C17.1942 19.7993 17.4042 19.2843 17.4292 18.7633C17.9682 18.7363 18.4712 18.5123 18.8552 18.1263C19.2492 17.7283 19.4592 17.2143 19.4842 16.6923C20.0232 16.6663 20.5262 16.4423 20.9102 16.0563C21.6992 15.2613 21.7482 13.9993 21.0592 13.1463C21.5612 12.4383 21.8332 11.5933 21.8332 10.7053C21.8332 10.4973 21.9172 10.2943 22.0622 10.1483L24.1592 8.0343C24.4352 7.7563 24.4352 7.3073 24.1592 7.0293L17.9942 0.8183ZM4.15822 13.6923L5.18522 12.6573C5.47422 12.3663 5.93922 12.3663 6.22822 12.6573C6.52022 12.9513 6.52022 13.4293 6.22822 13.7223L5.20022 14.7573C4.91222 15.0483 4.44622 15.0483 4.15822 14.7573C3.86622 14.4643 3.86622 13.9863 4.15822 13.6923ZM6.21322 15.7633L8.26822 13.6923C8.55722 13.4013 9.02222 13.4013 9.31122 13.6923C9.60222 13.9863 9.60222 14.4643 9.31122 14.7573C8.57822 15.4953 8.53922 15.5353 7.25522 16.8283C6.96722 17.1183 6.50222 17.1183 6.21322 16.8283C5.92222 16.5343 5.92222 16.0563 6.21322 15.7633ZM8.26822 18.8983C7.97622 18.6043 7.97622 18.1273 8.26822 17.8333L9.29522 16.7983C9.58422 16.5073 10.0502 16.5073 10.3382 16.7983C10.6072 17.0693 10.6272 17.4973 10.3992 17.7923C10.3362 17.8503 10.4302 17.7573 9.31122 18.8983C9.02222 19.1893 8.55722 19.1893 8.26822 18.8983ZM12.3872 19.9273L12.0862 20.2303C11.7972 20.5213 11.3322 20.5213 11.0442 20.2303C10.7782 19.9633 10.7552 19.5423 10.9742 19.2483C11.3652 18.8523 11.3462 18.8753 11.4142 18.8013C11.7062 18.5723 12.1212 18.5943 12.3872 18.8623C12.6792 19.1563 12.6792 19.6333 12.3872 19.9273ZM19.8972 15.0503C19.6092 15.3413 19.1442 15.3413 18.8552 15.0503L17.5262 13.7123C17.2492 13.4323 16.7972 13.4313 16.5172 13.7083C16.2382 13.9863 16.2362 14.4373 16.5142 14.7173L17.8422 16.0553C18.1342 16.3493 18.1342 16.8273 17.8422 17.1203C17.5542 17.4113 17.0882 17.4113 16.8002 17.1203L15.4712 15.7823C15.1942 15.5023 14.7422 15.5013 14.4622 15.7783C14.1832 16.0563 14.1812 16.5083 14.4592 16.7873L15.7872 18.1263C16.0792 18.4193 16.0792 18.8973 15.7872 19.1913C15.4992 19.4823 15.0332 19.4823 14.7442 19.1913C13.3462 17.7933 13.4132 17.8243 13.2722 17.7393C12.9092 17.4263 12.4592 17.2443 11.9792 17.2203C11.9532 16.7013 11.7442 16.1893 11.3512 15.7923C11.1492 15.5903 10.9152 15.4323 10.6602 15.3243C11.1432 14.4913 11.0312 13.4003 10.3232 12.6873C9.59722 11.9563 8.51122 11.8673 7.70122 12.3423C7.59622 12.0913 7.44322 11.8563 7.24122 11.6523C6.39322 10.7993 5.02022 10.7993 4.17322 11.6523L4.05922 11.7673C3.98122 11.5633 3.93922 11.3443 3.93922 11.1193C3.93922 10.2623 3.60822 9.4563 3.00422 8.8483L1.73622 7.5783L6.89622 2.3803L8.45922 3.9473C8.80822 4.2993 9.25722 4.5153 9.74022 4.5713L6.55222 8.3973C6.30122 8.7003 6.34122 9.1493 6.64422 9.4023C7.37622 10.0113 8.30122 10.3003 9.25022 10.2143C10.1992 10.1283 11.0572 9.6773 11.6682 8.9443C11.9232 8.6383 12.3532 8.5453 12.7132 8.7193C13.4482 9.0743 14.2562 9.2043 15.0512 9.1033L19.8972 13.9853C20.1892 14.2793 20.1892 14.7573 19.8972 15.0503ZM21.0502 9.1423C20.6352 9.5603 20.4072 10.1153 20.4072 10.7053C20.4072 11.2033 20.2782 11.6813 20.0362 12.1003L16.5662 8.6043C17.2762 8.2103 17.8572 7.6173 18.2432 6.8813C18.4262 6.5323 18.2922 6.1023 17.9432 5.9183C17.5942 5.7353 17.1632 5.8703 16.9802 6.2193C16.5932 6.9573 15.9282 7.4493 15.1842 7.6323C15.1512 7.6363 15.1192 7.6433 15.0872 7.6533C14.5152 7.7713 13.9022 7.7093 13.3342 7.4353C12.3832 6.9753 11.2472 7.2203 10.5712 8.0323C10.2052 8.4713 9.69022 8.7413 9.12122 8.7933C8.79722 8.8223 8.47922 8.7793 8.18322 8.6693L11.4852 4.7063C11.7442 4.6273 12.0132 4.5813 12.2832 4.5813H14.3532C14.9322 4.5813 15.4772 4.3603 15.8872 3.9473L17.4882 2.3333L22.6482 7.5323L21.0502 9.1423Z" fill="#000000"/>
</g>
</svg>
