<svg id="Ebene_1" data-name="Ebene 1" xmlns="http://www.w3.org/2000/svg" viewBox="0 0 95.69 79.96"><defs><style>.cls-1{fill:#fff;}</style></defs><title>Zeichenfläche 3</title><path class="cls-1" d="M86.41,80H9a9,9,0,0,1-9-9v-49a9,9,0,0,1,9-9H29.66V9a9,9,0,0,1,9-9H57a9,9,0,0,1,9,9V12.9H86.41a9,9,0,0,1,9,9V34.08a2,2,0,0,1,.26,1,8.83,8.83,0,0,1-.26,2.14V70.93A9,9,0,0,1,86.41,80ZM4.13,42.48V70.93A4.91,4.91,0,0,0,9,75.83H86.41a4.91,4.91,0,0,0,4.9-4.9V42.82a9,9,0,0,1-4.65,1.29H9.29A8.92,8.92,0,0,1,4.13,42.48Zm0-8.4a2.06,2.06,0,0,1,.25,1A4.91,4.91,0,0,0,9.29,40H86.66a4.92,4.92,0,0,0,4.65-3.33V21.92a4.91,4.91,0,0,0-4.9-4.9H66V22.7a2.07,2.07,0,0,1-4.13,0V17H33.79V22.7a2.07,2.07,0,0,1-4.13,0V17H9a4.91,4.91,0,0,0-4.9,4.9ZM33.79,12.9H61.9V9A4.91,4.91,0,0,0,57,4.13H38.69A4.91,4.91,0,0,0,33.79,9Z"/></svg>