<svg id="Ebene_1" data-name="Ebene 1" xmlns="http://www.w3.org/2000/svg" viewBox="0 0 78.47 74.14"><defs><style>.cls-1{fill:#fff;}</style></defs><title>Zeichenfläche 5</title><path class="cls-1" d="M60.44,74.14H0V27.88H78.47V42.11A14.25,14.25,0,0,1,64.23,56.35H60.44ZM3,71.14H57.44V30.88H3ZM60.44,53.35h3.79A11.25,11.25,0,0,0,75.47,42.11V30.88h-15ZM40.6,23.67a1.5,1.5,0,0,1-1.18-.57A10.52,10.52,0,0,1,39.32,11a7.57,7.57,0,0,0,.09-8.62,1.5,1.5,0,0,1,.27-2.1,1.48,1.48,0,0,1,2.09.25,10.52,10.52,0,0,1,.1,12.06,7.61,7.61,0,0,0-.1,8.61,1.49,1.49,0,0,1-.25,2.11A1.51,1.51,0,0,1,40.6,23.67Zm-12,0a1.53,1.53,0,0,1-1.18-.57A10.53,10.53,0,0,1,27.31,11a7.58,7.58,0,0,0,.08-8.62A1.5,1.5,0,0,1,29.76.57a10.53,10.53,0,0,1,.09,12.06,7.6,7.6,0,0,0-.09,8.61,1.51,1.51,0,0,1-.25,2.11A1.56,1.56,0,0,1,28.58,23.67Zm-12,0a1.53,1.53,0,0,1-1.18-.57A10.53,10.53,0,0,1,15.29,11a7.59,7.59,0,0,0,.09-8.62A1.5,1.5,0,0,1,17.74.57a10.53,10.53,0,0,1,.09,12.06,7.6,7.6,0,0,0-.09,8.61,1.5,1.5,0,0,1-1.18,2.43Z"/></svg>