<svg id="Ebene_1" data-name="Ebene 1" xmlns="http://www.w3.org/2000/svg" viewBox="0 0 92.29 67.79"><defs><style>.cls-1{fill:#fff;}</style></defs><title>Zeichenfläche 10</title><path class="cls-1" d="M91.56.21a1.49,1.49,0,0,0-1.6,0L1.33,10.49a1.5,1.5,0,0,0-.51,2.83L33.37,29.8V55.39a1.5,1.5,0,0,0,.91,1.38,1.52,1.52,0,0,0,.59.12h0L71.72,67.73a1.52,1.52,0,0,0,1.14-.12,1.5,1.5,0,0,0,.72-.9L92.23,1.91A1.49,1.49,0,0,0,91.56.21ZM6.63,12.9,82.79,4.1,35.63,27.6s-.05-.05-.09-.06ZM36.37,30.58,82.12,7.78,36.37,51.86ZM71.12,64.43,38,54.68,87.8,6.48Z"/></svg>