<svg id="Ebene_1" data-name="Ebene 1" xmlns="http://www.w3.org/2000/svg" viewBox="0 0 34.3 34.3"><defs><style>.cls-1{fill:#4a4a4a;}</style></defs><title>Zeichenfläche 22</title><path class="cls-1" d="M17.15,34.3A17.15,17.15,0,1,1,34.3,17.15,17.17,17.17,0,0,1,17.15,34.3ZM25,25.77a22,22,0,0,1-5.67,6.67A15.43,15.43,0,0,0,28,28.12,15.46,15.46,0,0,0,25,25.77ZM6.18,28a15.41,15.41,0,0,0,8.5,4.38,21.73,21.73,0,0,1-5.61-6.62A16,16,0,0,0,6.18,28ZM10.61,25a20.89,20.89,0,0,0,5.64,6.47V23.58A15.58,15.58,0,0,0,10.61,25ZM18,23.58v7.74A21.06,21.06,0,0,0,23.46,25,15.53,15.53,0,0,0,18,23.58Zm7.78.65a16.88,16.88,0,0,1,3.41,2.63A15.38,15.38,0,0,0,32.57,18H27.18A18,18,0,0,1,25.74,24.23ZM1.73,18a15.37,15.37,0,0,0,3.32,8.74,17.23,17.23,0,0,1,3.27-2.51A18,18,0,0,1,6.88,18Zm6.85,0a16.27,16.27,0,0,0,1.28,5.43,17.15,17.15,0,0,1,6.39-1.56V18ZM18,21.88a17,17,0,0,1,6.24,1.54A16,16,0,0,0,25.47,18H18Zm9.23-5.59h5.38a15.35,15.35,0,0,0-3.42-8.85A17.38,17.38,0,0,1,25.81,10,17.72,17.72,0,0,1,27.19,16.29Zm-9.23,0h7.53a16.09,16.09,0,0,0-1.21-5.45A17.16,17.16,0,0,1,18,12.42Zm-9.39,0h7.68V12.42a17.06,17.06,0,0,1-6.46-1.59A16,16,0,0,0,8.57,16.29Zm-6.84,0H6.87A17.72,17.72,0,0,1,8.25,10a17.25,17.25,0,0,1-3.2-2.46A15.34,15.34,0,0,0,1.73,16.29Zm8.79-7a15.46,15.46,0,0,0,5.73,1.43v-8A20.42,20.42,0,0,0,10.52,9.29ZM18,2.84v7.87a15.32,15.32,0,0,0,5.59-1.42A20.31,20.31,0,0,0,18,2.84Zm1.57-.95a21.53,21.53,0,0,1,5.55,6.59A15.46,15.46,0,0,0,28,6.17,15.39,15.39,0,0,0,19.53,1.89ZM6.18,6.28A16.28,16.28,0,0,0,9,8.47a21.47,21.47,0,0,1,5.48-6.53A15.46,15.46,0,0,0,6.18,6.28Z"/></svg>