<svg id="Ebene_1" data-name="Ebene 1" xmlns="http://www.w3.org/2000/svg" viewBox="0 0 84.23 80.24"><defs><style>.cls-1{fill:#fff;}</style></defs><title>Zeichenfläche 9</title><path class="cls-1" d="M62.82,0h-35A15.47,15.47,0,0,0,12.58,12.43,15.3,15.3,0,0,0,0,27.34V49.76A15.39,15.39,0,0,0,15.54,65H32.25a2.48,2.48,0,0,0,.27,0L47.66,79.81a1.52,1.52,0,0,0,1.05.43,1.43,1.43,0,0,0,.58-.12,1.5,1.5,0,0,0,.92-1.38V65h6.17A15.47,15.47,0,0,0,71.65,52.54,15.32,15.32,0,0,0,84.23,37.62V20.93A21.2,21.2,0,0,0,62.82,0ZM56.38,62H49.33a1.53,1.53,0,0,0-.3,0,1.12,1.12,0,0,0-.32,0,1.5,1.5,0,0,0-1.5,1.5v11.7l-13-12.75a4.1,4.1,0,0,0-2-.44H15.54A12.4,12.4,0,0,1,3,49.76V27.34A12.35,12.35,0,0,1,14.33,15.2h1v0H56.38a12.4,12.4,0,0,1,12.54,12.2V49.76A12.4,12.4,0,0,1,56.38,62ZM81.23,37.62c0,6-3.65,11-9.31,12V27.34a15.39,15.39,0,0,0-15.54-15.2H15.72A12.49,12.49,0,0,1,27.85,3h35A18.19,18.19,0,0,1,81.23,20.93ZM56.07,50H15.8V47H56.07Zm0-9.41H15.8v-3H56.07Zm0-9.41H15.8v-3H56.07Z"/></svg>