<svg id="Ebene_1" data-name="Ebene 1" xmlns="http://www.w3.org/2000/svg" viewBox="0 0 38.66 34.44"><defs><style>.cls-1{fill:#4a4a4a;}</style></defs><title>Zeichenfläche 21</title><path class="cls-1" d="M19.33,25.63a.85.85,0,0,0,.65-.3c.36-.43,9-10.58,9-15.69a9.6,9.6,0,1,0-19.2,0c0,5.11,8.58,15.26,9,15.69A.85.85,0,0,0,19.33,25.63Zm0-23.92a7.93,7.93,0,0,1,7.9,7.93c0,3.42-5.21,10.51-7.9,13.8-2.69-3.29-7.9-10.37-7.9-13.8A7.92,7.92,0,0,1,19.33,1.71ZM23.7,9.05a4.37,4.37,0,1,0-4.37,4.37A4.37,4.37,0,0,0,23.7,9.05Zm-7,0a2.67,2.67,0,1,1,2.67,2.67A2.68,2.68,0,0,1,16.66,9.05ZM38.48,34.1a.82.82,0,0,1-.8.33L19.42,31.74,1,34.43H.85a.89.89,0,0,1-.68-.34.89.89,0,0,1-.1-.86L7.35,16.75a.86.86,0,0,1,.78-.51H10.5a.85.85,0,0,1,.85.85.86.86,0,0,1-.85.86H8.69L2.25,32.52,19.3,30h.24L36.4,32.52,30,18H28.22a.86.86,0,0,1-.85-.86.85.85,0,0,1,.85-.85h2.3a.84.84,0,0,1,.78.51l7.29,16.49A.86.86,0,0,1,38.48,34.1Z"/></svg>