<svg id="Ebene_1" data-name="Ebene 1" xmlns="http://www.w3.org/2000/svg" viewBox="0 0 74.33 100.43"><defs><style>.cls-1{fill:#576574;}</style></defs><title>Zeichenfläche 19</title><path class="cls-1" d="M37.17,100.43l-1.82-2.11c-.09-.11-8.87-10.38-17.54-22.86C6,58.42,0,45.5,0,37.06a37.17,37.17,0,0,1,74.33,0c0,8.44-6,21.36-17.81,38.4C47.85,87.94,39.07,98.21,39,98.32Zm0-95.65A32.37,32.37,0,0,0,4.78,37.06c0,7.34,5.85,19.66,16.94,35.64C27.91,81.63,34.17,89.42,37.17,93c3-3.62,9.25-11.41,15.44-20.34,11.09-16,17-28.3,17-35.64A32.37,32.37,0,0,0,37.17,4.78Zm0,48A17.63,17.63,0,1,1,54.79,35.11,17.65,17.65,0,0,1,37.17,52.74Zm0-30.48A12.85,12.85,0,1,0,50,35.11,12.87,12.87,0,0,0,37.17,22.26Z"/></svg>