<svg id="Ebene_1" data-name="Ebene 1" xmlns="http://www.w3.org/2000/svg" viewBox="0 0 59.03 81.21"><defs><style>.cls-1{fill:#fff;}</style></defs><title>Zeichenfläche 12</title><path class="cls-1" d="M57.53,0H1.5A1.5,1.5,0,0,0,0,1.5V69.71a1.5,1.5,0,0,0,1.5,1.5H7.43v8.5a1.49,1.49,0,0,0,2.43,1.17l4-3.17,4,3.17a1.47,1.47,0,0,0,.93.33,1.52,1.52,0,0,0,.66-.15,1.49,1.49,0,0,0,.84-1.35v-8.5H57.53a1.51,1.51,0,0,0,1.5-1.5V1.5A1.5,1.5,0,0,0,57.53,0ZM17.29,76.6l-2.5-2a1.48,1.48,0,0,0-1.86,0l-2.5,2V71.21h6.86ZM56,68.21H3V3H56ZM44.17,26.79H14.37V44.41h29.8Zm-3,14.62H17.37V29.79h23.8Z"/></svg>