<?xml version="1.0" encoding="utf-8"?>
<!-- Generator: Adobe Illustrator 25.2.3, SVG Export Plug-In . SVG Version: 6.00 Build 0)  -->
<svg version="1.1" id="Ebene_1" xmlns="http://www.w3.org/2000/svg" xmlns:xlink="http://www.w3.org/1999/xlink" x="0px" y="0px"
	 viewBox="0 0 349 317" style="enable-background:new 0 0 349 317;" xml:space="preserve">
<style type="text/css">
	.st0{fill:#FBDA16;}
	.st1{fill:none;stroke:#FBDA16;stroke-width:3.1061;stroke-linecap:round;stroke-linejoin:round;stroke-miterlimit:10;}
	.st2{fill:none;stroke:#FBDA16;stroke-width:3.1061;stroke-miterlimit:10;}
	.st3{fill:none;stroke:#FBDA16;stroke-width:2.0707;stroke-linecap:round;stroke-linejoin:round;stroke-miterlimit:10;}
	.st4{fill:none;stroke:#FBDA16;stroke-width:2.8354;stroke-miterlimit:10;}
	.st5{fill:none;stroke:#FBDA16;stroke-width:3.3203;stroke-linecap:round;stroke-linejoin:round;stroke-miterlimit:10;}
	.st6{fill:#FFFFFF;}
</style>
<path class="st0" d="M148.72,87.8c0-16.39-13.29-29.68-29.68-29.68S89.36,71.41,89.36,87.8c0,12.29,7.47,22.84,18.13,27.35
	c0.21,0.09,11.45,17.01,11.45,17.01l10.8-16.67C140.84,111.2,148.72,100.42,148.72,87.8z"/>
<path class="st1" d="M247.81,113.4c0-10.22-8.29-18.51-18.51-18.51c-10.22,0-18.51,8.29-18.51,18.51c0,7.67,4.66,14.24,11.3,17.05
	c0.13,0.06,7.14,10.61,7.14,10.61l6.73-10.39C242.9,127.99,247.81,121.27,247.81,113.4z"/>
<g>
	<rect x="144.62" y="154.94" class="st2" width="53.84" height="93.18"/>
	<rect x="114.25" y="190.14" class="st2" width="28.99" height="57.98"/>
</g>
<rect x="154.98" y="145.62" class="st1" width="33.13" height="8.28"/>
<line class="st3" x1="172.23" y1="128.02" x2="172.23" y2="144.59"/>
<rect x="162.91" y="230.52" class="st2" width="15.53" height="17.6"/>
<rect x="120.46" y="197.39" class="st4" width="5.18" height="8.28"/>
<rect x="120.46" y="211.88" class="st4" width="5.18" height="8.28"/>
<rect x="120.46" y="226.38" class="st4" width="5.18" height="8.28"/>
<rect x="131.85" y="197.39" class="st4" width="5.18" height="8.28"/>
<rect x="131.85" y="211.88" class="st4" width="5.18" height="8.28"/>
<rect x="131.85" y="226.38" class="st4" width="5.18" height="8.28"/>
<path class="st1" d="M246.88,198.02c-0.1-0.54-0.14-1.1-0.11-1.67c0.25-3.67,4.14-10.35,10.35-10.35c0,0,6.21-12.42,14.5,0
	c0,0,13,2.07,6.21,12.42c0,0,8.28,5.1,8.28,12.42c0,4.14-2.07,12.42-14.49,12.42c-9.86,0-8.9,0-13.46,0"/>
<line class="st1" x1="265.12" y1="196.35" x2="265.12" y2="235.7"/>
<polyline class="st1" points="258.44,199.46 265.12,204.98 272.45,199.46 "/>
<polyline class="st1" points="259.2,211.88 265.12,216.02 272.45,211.88 "/>
<g>
	<path class="st5" d="M69.96,199.76c0,0,4.61-9.22,10.76,0c0,0,9.64,1.54,4.61,9.22c0,0,6.15,3.79,6.15,9.22
		c0,3.07-1.54,9.22-10.76,9.22c0,0-10.76,0-15.36,0s-10.76-7.68,0-13.83c0,0-3.29-2.94-3.07-6.15
		C62.47,204.72,65.35,199.76,69.96,199.76z"/>
	<line class="st1" x1="74.82" y1="206.31" x2="74.82" y2="233.63"/>
	<polyline class="st1" points="70.19,208.47 74.82,212.31 79.91,208.47 	"/>
	<polyline class="st1" points="70.72,217.1 74.82,219.97 79.91,217.1 	"/>
</g>
<g>
	<rect x="157.56" y="166.33" class="st0" width="9.32" height="11.39"/>
	<rect x="176.2" y="166.33" class="st0" width="9.32" height="11.39"/>
	<rect x="157.56" y="182.89" class="st0" width="9.32" height="11.39"/>
	<rect x="176.2" y="182.89" class="st0" width="9.32" height="11.39"/>
</g>
<path class="st2" d="M228.14,197.39c0,0,6.21-12.42,14.49,0c0,0,13,2.07,6.21,12.42c0,0,8.28,5.1,8.28,12.42
	c0,4.14-2.07,12.42-14.49,12.42c0,0-14.5,0-20.71,0c-6.21,0-12.42-10.35,2.07-18.64c0,0-6.51-3.96-6.21-8.28
	C218.04,204.07,221.93,197.39,228.14,197.39z"/>
<g>
	<line class="st1" x1="236.13" y1="204.63" x2="236.13" y2="243.98"/>
	<polyline class="st1" points="229.45,207.74 236.13,213.26 243.46,207.74 	"/>
	<polyline class="st1" points="230.21,220.17 236.13,224.3 243.46,220.17 	"/>
</g>
<circle class="st6" cx="119.04" cy="86.52" r="11.3"/>
<circle class="st0" cx="229.59" cy="112.87" r="6.83"/>
</svg>
