<svg id="screenshot" viewBox="249.67804884941233 3870.4817245724207 18 18" width="18" height="18" version="1.1"
     xmlns="http://www.w3.org/2000/svg" xmlns:xlink="http://www.w3.org/1999/xlink"
     style="-webkit-print-color-adjust: exact;">
    <g id="shape-6f546810-8e60-11ec-aa88-313670bc32a0">
        <path d="M265.67804884941233,3886.4817245724207L251.67804884941233,3886.4817245724207L251.67804884941233,3872.4817245724207L258.67804884941233,3872.4817245724207L258.67804884941233,3870.4817245724207L251.67804884941233,3870.4817245724207C250.56804884941232,3870.4817245724207,249.67804884941233,3871.381724572421,249.67804884941233,3872.4817245724207L249.67804884941233,3886.4817245724207C249.67804884941233,3887.5817245724206,250.56804884941232,3888.4817245724207,251.67804884941233,3888.4817245724207L265.67804884941233,3888.4817245724207C266.77804884941236,3888.4817245724207,267.67804884941233,3887.5817245724206,267.67804884941233,3886.4817245724207L267.67804884941233,3879.4817245724207L265.67804884941233,3879.4817245724207L265.67804884941233,3886.4817245724207ZZM260.67804884941233,3870.4817245724207L260.67804884941233,3872.4817245724207L264.2680488494123,3872.4817245724207L254.43804884941233,3882.3117245724206L255.84804884941235,3883.7217245724205L265.67804884941233,3873.8917245724206L265.67804884941233,3877.4817245724207L267.67804884941233,3877.4817245724207L267.67804884941233,3870.4817245724207L260.67804884941233,3870.4817245724207ZZ"
              style="fill: #0b57d0;"/>
    </g>
</svg>