<svg xmlns:xlink="http://www.w3.org/1999/xlink" width="5" xmlns="http://www.w3.org/2000/svg" height="23" id="screenshot-16ba0227-9874-11ec-adc7-1be452497ea4" viewBox="-0.05706370000007155 0.1998678625222965 5 23" style="-webkit-print-color-adjust: exact;" fill="none" version="1.1"><g id="shape-16ba0227-9874-11ec-adc7-1be452497ea4" rx="0" ry="0"><g id="shape-16ba033f-9874-11ec-adc7-1be452497ea4"><g id="fills-16ba033f-9874-11ec-adc7-1be452497ea4"><ellipse rx="2.5" ry="2.5" cx="2.4429362999999285" cy="2.6998678625222965" transform="matrix(1,0,0,1,0,0)" style="fill: rgb(0, 0, 0); fill-opacity: 1;"/></g><g id="strokes-16ba033f-9874-11ec-adc7-1be452497ea4"><g class="stroke-shape"><ellipse rx="2.5" ry="2.5" cx="2.4429362999999285" cy="2.6998678625222965" transform="matrix(1,0,0,1,0,0)" style="fill: none;"/></g></g></g><g id="shape-16ba02a1-9874-11ec-adc7-1be452497ea4"><g id="fills-16ba02a1-9874-11ec-adc7-1be452497ea4"><ellipse rx="2.5" ry="2.5" cx="2.4429362999999285" cy="11.699867862522296" transform="matrix(1,0,0,1,0,0)" style="fill: rgb(0, 0, 0); fill-opacity: 1;"/></g><g id="strokes-16ba02a1-9874-11ec-adc7-1be452497ea4"><g class="stroke-shape"><ellipse rx="2.5" ry="2.5" cx="2.4429362999999285" cy="11.699867862522296" transform="matrix(1,0,0,1,0,0)" style="fill: none;"/></g></g></g><g id="shape-16ba021f-9874-11ec-adc7-1be452497ea4"><g id="fills-16ba021f-9874-11ec-adc7-1be452497ea4"><ellipse rx="2.5" ry="2.5" cx="2.4429362999999285" cy="20.699867862522296" transform="matrix(1,0,0,1,0,0)" style="fill: rgb(0, 0, 0); fill-opacity: 1;"/></g><g id="strokes-16ba021f-9874-11ec-adc7-1be452497ea4"><g class="stroke-shape"><ellipse rx="2.5" ry="2.5" cx="2.4429362999999285" cy="20.699867862522296" transform="matrix(1,0,0,1,0,0)" style="fill: none;"/></g></g></g></g></svg>