<svg width="100" height="100" viewBox="0 0 100 100" fill="none" xmlns="http://www.w3.org/2000/svg">
<g clip-path="url(#clip0_2358_20)">
<path d="M100 0H0V100H100V0Z" fill="#FBDA16"/>
<path opacity="0.5" d="M100 85.8224V55.914L98.5603 54.4076H98.5503L98.4503 54.3043L73.0378 27.722H73.0312C71.5181 25.7157 69.1152 24.4359 66.3923 24.4393C65.6924 24.4393 65.0125 24.5292 64.3593 24.6959L57.6471 17.6804C57.5937 17.6137 57.4738 17.6171 57.3904 17.5937C55.2575 17.0705 53.0945 16.7605 50.8982 16.6939C49.2818 16.6472 47.6654 16.6539 46.059 16.8639C45.7957 16.8972 45.5358 16.9338 45.2725 16.9672C44.3693 17.0938 43.4661 17.2371 42.5762 17.4371C41.6531 17.6437 40.7366 17.877 39.83 18.1603C39.6501 18.2136 39.4734 18.2703 39.2935 18.3303C37.8904 18.8002 36.5239 19.3634 35.1908 20C34.3509 20.3966 33.5544 20.8799 32.7379 21.3298C31.2815 22.1363 29.975 23.1495 28.6619 24.1493C28.1253 24.5592 27.6254 25.0125 27.1388 25.4824C26.7689 25.839 26.4056 26.209 26.0457 26.5756C25.5491 27.0855 25.0158 27.5654 24.5659 28.1153C24.0593 28.7419 23.5561 29.3684 23.0695 30.0083C22.2696 31.0615 21.5198 32.1513 20.8699 33.3144C20.2166 34.4876 19.5801 35.6674 19.0502 36.8972C18.2303 38.7902 17.6104 40.7432 17.1671 42.7495C17.0305 43.3494 16.9139 43.9527 16.8139 44.5592C16.5872 45.919 16.3773 47.2921 16.3639 48.6719C16.3573 49.4318 16.3473 50.1916 16.3639 50.9515V50.9582C16.3839 51.8347 16.4373 52.7079 16.5706 53.5844C16.6439 54.051 16.7072 54.5176 16.7739 54.9842V54.9908C16.8672 55.6274 16.9605 56.2673 17.0872 56.9005C17.4938 58.9368 18.1303 60.8999 18.9135 62.8162C19.6034 64.5026 20.4533 66.109 21.4164 67.6587C22.3963 69.2318 23.4694 70.7415 24.7192 72.1013C26.2223 73.741 27.8254 75.2741 29.6017 76.6172L51.9414 99.9867H85.8224L100 100V85.8224Z" fill="url(#paint0_linear_2358_20)"/>
<path d="M74.7042 32.8179C74.6942 37.2438 70.9948 41.0498 66.3923 41.0198C61.9397 41.0298 58.1503 37.3571 58.1403 32.7679C58.1303 28.122 61.8797 24.4459 66.3756 24.4359C71.0115 24.4293 74.7142 28.1486 74.7009 32.8179H74.7042Z" fill="white"/>
<path d="M83.0162 50.6982C82.9995 52.6579 82.7829 54.5976 82.3996 56.5206C81.973 58.6602 81.3231 60.7266 80.5099 62.7529C79.98 64.0793 79.3301 65.3425 78.6336 66.5789C77.6837 68.2586 76.5839 69.8417 75.3241 71.3115C74.4976 72.278 73.6644 73.2411 72.7345 74.111C71.3448 75.4074 69.885 76.6139 68.2986 77.6804C66.6222 78.8069 64.8625 79.77 63.0228 80.5866C61.1298 81.4231 59.1735 82.0763 57.1471 82.5229C56.144 82.7429 55.1308 82.8762 54.1243 83.0562C52.1946 83.3994 50.255 83.3928 48.3153 83.3494C46.4656 83.3061 44.6326 83.0495 42.8262 82.6729C40.2599 82.1396 37.7804 81.2965 35.4208 80.1566C33.7577 79.3568 32.168 78.4236 30.6382 77.3738C28.4353 75.8607 26.4989 74.051 24.7025 72.098C23.4527 70.7382 22.3763 69.2285 21.3998 67.6554C20.4366 66.1057 19.5834 64.4993 18.8935 62.8129C18.1103 60.8965 17.4771 58.9335 17.0705 56.8972C16.8505 55.794 16.7239 54.6842 16.5539 53.5777C16.3039 51.9447 16.3339 50.305 16.3473 48.6652C16.3606 47.2855 16.5672 45.9124 16.7972 44.5526C17.2371 41.913 17.9703 39.3501 19.0335 36.8905C19.5634 35.6607 20.2 34.4809 20.8532 33.3111C21.8963 31.4348 23.2061 29.7617 24.5492 28.1087C24.9992 27.5587 25.5324 27.0788 26.029 26.5689C26.8588 25.719 27.6987 24.8659 28.6419 24.1426C29.955 23.1395 31.2648 22.1263 32.7212 21.3231C33.5344 20.8732 34.3309 20.3899 35.1708 19.9933C36.5039 19.3601 37.8703 18.7935 39.2734 18.3236C40.3533 17.9637 41.4531 17.6771 42.5562 17.4271C43.7027 17.1671 44.8725 17.0072 46.039 16.8539C47.6454 16.6439 49.2618 16.6372 50.8782 16.6839C53.0745 16.7505 55.2375 17.0605 57.3704 17.5837C57.4804 17.6104 57.6571 17.6004 57.6571 17.757C57.6571 17.887 57.5004 17.927 57.3938 17.987C55.9573 18.7935 54.7342 19.8567 53.6344 21.0698C52.7412 22.0563 51.948 23.1128 51.3181 24.2893C50.7349 25.3791 50.205 26.4856 49.8917 27.6821C49.775 28.1253 49.5584 28.2586 49.1118 28.2686C45.759 28.3253 42.6029 29.1485 39.6201 30.7016C37.4971 31.808 35.6107 33.2145 33.9677 34.9375C32.2246 36.7605 30.8282 38.8235 29.7884 41.1298C28.8618 43.1861 28.3019 45.3391 28.042 47.5587C27.8054 49.5751 27.8587 51.5947 28.2186 53.6111C28.5819 55.6307 29.1518 57.5771 30.0416 59.4268C31.2181 61.8697 32.8012 64.026 34.7675 65.879C35.9207 66.9688 37.1838 67.9187 38.5669 68.7252C39.8134 69.4518 41.0998 70.0817 42.4496 70.5649C43.3761 70.8982 44.3326 71.1315 45.2991 71.3348C47.0655 71.7114 48.8519 71.8014 50.6482 71.758C52.3246 71.7181 53.961 71.4048 55.5774 70.9748C57.1471 70.5583 58.6369 69.9384 60.0566 69.1685C61.3164 68.4819 62.5129 67.6887 63.6127 66.7522C65.2058 65.3958 66.6089 63.8794 67.782 62.1463C67.862 62.0263 68.012 61.913 67.9087 61.7497C67.812 61.5997 67.6387 61.6464 67.4921 61.6464C66.2989 61.6431 65.1091 61.6431 63.916 61.6431C59.3934 61.6431 54.8708 61.6431 50.3483 61.6431C49.7284 61.6431 49.7284 61.6431 49.7284 61.0298V50.6282C49.7284 50.065 49.735 50.055 50.3049 50.055H82.3696C83.0162 50.055 83.0228 50.055 83.0162 50.6849V50.6982Z" fill="white"/>
<path d="M74.7042 32.8179C74.6942 37.2438 70.9948 41.0498 66.3923 41.0198C61.9397 41.0298 58.1503 37.3571 58.1403 32.7679C58.1303 28.122 61.8797 24.4459 66.3756 24.4359C71.0115 24.4293 74.7142 28.1486 74.7009 32.8179H74.7042Z" fill="black"/>
<path d="M83.0162 50.6982C82.9995 52.6579 82.7829 54.5976 82.3996 56.5206C81.973 58.6602 81.3231 60.7266 80.5099 62.7529C79.98 64.0793 79.3301 65.3425 78.6336 66.5789C77.6837 68.2586 76.5839 69.8417 75.3241 71.3115C74.4976 72.278 73.6644 73.2411 72.7345 74.111C71.3448 75.4074 69.885 76.6139 68.2986 77.6804C66.6222 78.8069 64.8625 79.77 63.0228 80.5866C61.1298 81.4231 59.1735 82.0763 57.1471 82.5229C56.144 82.7429 55.1308 82.8762 54.1243 83.0562C52.1946 83.3994 50.255 83.3928 48.3153 83.3494C46.4656 83.3061 44.6326 83.0495 42.8262 82.6729C40.2599 82.1396 37.7804 81.2965 35.4208 80.1566C33.7577 79.3568 32.168 78.4236 30.6382 77.3738C28.4353 75.8607 26.4989 74.051 24.7025 72.098C23.4527 70.7382 22.3763 69.2285 21.3998 67.6554C20.4366 66.1057 19.5834 64.4993 18.8935 62.8129C18.1103 60.8965 17.4771 58.9335 17.0705 56.8972C16.8505 55.794 16.7239 54.6842 16.5539 53.5777C16.3039 51.9447 16.3339 50.305 16.3473 48.6652C16.3606 47.2855 16.5672 45.9124 16.7972 44.5526C17.2371 41.913 17.9703 39.3501 19.0335 36.8905C19.5634 35.6607 20.2 34.4809 20.8532 33.3111C21.8963 31.4348 23.2061 29.7617 24.5492 28.1087C24.9992 27.5587 25.5324 27.0788 26.029 26.5689C26.8588 25.719 27.6987 24.8659 28.6419 24.1426C29.955 23.1395 31.2648 22.1263 32.7212 21.3231C33.5344 20.8732 34.3309 20.3899 35.1708 19.9933C36.5039 19.3601 37.8703 18.7935 39.2734 18.3236C40.3533 17.9637 41.4531 17.6771 42.5562 17.4271C43.7027 17.1671 44.8725 17.0072 46.039 16.8539C47.6454 16.6439 49.2618 16.6372 50.8782 16.6839C53.0745 16.7505 55.2375 17.0605 57.3704 17.5837C57.4804 17.6104 57.6571 17.6004 57.6571 17.757C57.6571 17.887 57.5004 17.927 57.3938 17.987C55.9573 18.7935 54.7342 19.8567 53.6344 21.0698C52.7412 22.0563 51.948 23.1128 51.3181 24.2893C50.7349 25.3791 50.205 26.4856 49.8917 27.6821C49.775 28.1253 49.5584 28.2586 49.1118 28.2686C45.759 28.3253 42.6029 29.1485 39.6201 30.7016C37.4971 31.808 35.6107 33.2145 33.9677 34.9375C32.2246 36.7605 30.8282 38.8235 29.7884 41.1298C28.8618 43.1861 28.3019 45.3391 28.042 47.5587C27.8054 49.5751 27.8587 51.5947 28.2186 53.6111C28.5819 55.6307 29.1518 57.5771 30.0416 59.4268C31.2181 61.8697 32.8012 64.026 34.7675 65.879C35.9207 66.9688 37.1838 67.9187 38.5669 68.7252C39.8134 69.4518 41.0998 70.0817 42.4496 70.5649C43.3761 70.8982 44.3326 71.1315 45.2991 71.3348C47.0655 71.7114 48.8519 71.8014 50.6482 71.758C52.3246 71.7181 53.961 71.4048 55.5774 70.9748C57.1471 70.5583 58.6369 69.9384 60.0566 69.1685C61.3164 68.4819 62.5129 67.6887 63.6127 66.7522C65.2058 65.3958 66.6089 63.8794 67.782 62.1463C67.862 62.0263 68.012 61.913 67.9087 61.7497C67.812 61.5997 67.6387 61.6464 67.4921 61.6464C66.2989 61.6431 65.1091 61.6431 63.916 61.6431C59.3934 61.6431 54.8708 61.6431 50.3483 61.6431C49.7284 61.6431 49.7284 61.6431 49.7284 61.0298V50.6282C49.7284 50.065 49.735 50.055 50.3049 50.055H82.3696C83.0162 50.055 83.0228 50.055 83.0162 50.6849V50.6982Z" fill="black"/>
<path d="M83.0162 50.6982C82.9995 52.6579 82.7829 54.5976 82.3996 56.5206C81.973 58.6602 81.3231 60.7266 80.5099 62.7529C79.98 64.0793 79.3301 65.3425 78.6336 66.5789C77.6837 68.2586 76.5839 69.8417 75.3241 71.3115C74.4976 72.278 73.6644 73.2411 72.7345 74.111C71.3448 75.4074 69.885 76.6139 68.2986 77.6804C66.6222 78.8069 64.8625 79.77 63.0228 80.5866C61.1298 81.4231 59.1735 82.0763 57.1471 82.5229C56.144 82.7429 55.1308 82.8762 54.1243 83.0562C52.1946 83.3994 50.255 83.3928 48.3153 83.3494C46.4656 83.3061 44.6326 83.0495 42.8262 82.6729C40.2599 82.1396 37.7804 81.2965 35.4208 80.1566C33.7577 79.3568 32.168 78.4236 30.6382 77.3738C28.4353 75.8607 26.4989 74.051 24.7025 72.098C23.4527 70.7382 22.3763 69.2285 21.3998 67.6554C20.4366 66.1057 19.5834 64.4993 18.8935 62.8129C18.1103 60.8965 17.4771 58.9335 17.0705 56.8972C16.8505 55.794 16.7239 54.6842 16.5539 53.5777C16.3039 51.9447 16.3339 50.305 16.3473 48.6652C16.3606 47.2855 16.5672 45.9124 16.7972 44.5526C17.2371 41.913 17.9703 39.3501 19.0335 36.8905C19.5634 35.6607 20.2 34.4809 20.8532 33.3111C21.8963 31.4348 23.2061 29.7617 24.5492 28.1087C24.9992 27.5587 25.5324 27.0788 26.029 26.5689C26.8588 25.719 27.6987 24.8659 28.6419 24.1426C29.955 23.1395 31.2648 22.1263 32.7212 21.3231C33.5344 20.8732 34.3309 20.3899 35.1708 19.9933C36.5039 19.3601 37.8703 18.7935 39.2734 18.3236C40.3533 17.9637 41.4531 17.6771 42.5562 17.4271C43.7027 17.1671 44.8725 17.0072 46.039 16.8539C47.6454 16.6439 49.2618 16.6372 50.8782 16.6839C53.0745 16.7505 55.2375 17.0605 57.3704 17.5837C57.4804 17.6104 57.6571 17.6004 57.6571 17.757C57.6571 17.887 57.5004 17.927 57.3938 17.987C55.9573 18.7935 54.7342 19.8567 53.6344 21.0698C52.7412 22.0563 51.948 23.1128 51.3181 24.2893C50.7349 25.3791 50.205 26.4856 49.8917 27.6821C49.775 28.1253 49.5584 28.2586 49.1118 28.2686C45.759 28.3253 42.6029 29.1485 39.6201 30.7016C37.4971 31.808 35.6107 33.2145 33.9677 34.9375C32.2246 36.7605 30.8282 38.8235 29.7884 41.1298C28.8618 43.1861 28.3019 45.3391 28.042 47.5587C27.8054 49.5751 27.8587 51.5947 28.2186 53.6111C28.5819 55.6307 29.1518 57.5771 30.0416 59.4268C31.2181 61.8697 32.8012 64.026 34.7675 65.879C35.9207 66.9688 37.1838 67.9187 38.5669 68.7252C39.8134 69.4518 41.0998 70.0817 42.4496 70.5649C43.3761 70.8982 44.3326 71.1315 45.2991 71.3348C47.0655 71.7114 48.8519 71.8014 50.6482 71.758C52.3246 71.7181 53.961 71.4048 55.5774 70.9748C57.1471 70.5583 58.6369 69.9384 60.0566 69.1685C61.3164 68.4819 62.5129 67.6887 63.6127 66.7522C65.2058 65.3958 66.6089 63.8794 67.782 62.1463C67.862 62.0263 68.012 61.913 67.9087 61.7497C67.812 61.5997 67.6387 61.6464 67.4921 61.6464C66.2989 61.6431 65.1091 61.6431 63.916 61.6431C59.3934 61.6431 54.8708 61.6431 50.3483 61.6431C49.7284 61.6431 49.7284 61.6431 49.7284 61.0298V50.6282C49.7284 50.065 49.735 50.055 50.3049 50.055H82.3696C83.0162 50.055 83.0228 50.055 83.0162 50.6849V50.6982Z" fill="white"/>
<path d="M74.7042 32.8179C74.6942 37.2438 70.9948 41.0498 66.3923 41.0198C61.9397 41.0298 58.1503 37.3571 58.1403 32.7679C58.1303 28.122 61.8797 24.4459 66.3756 24.4359C71.0115 24.4293 74.7142 28.1486 74.7009 32.8179H74.7042Z" fill="white"/>
</g>
<defs>
<linearGradient id="paint0_linear_2358_20" x1="16.3539" y1="58.3369" x2="100" y2="58.3369" gradientUnits="userSpaceOnUse">
<stop stop-color="#CE810F"/>
<stop offset="0.41" stop-color="#CF8511" stop-opacity="0.59"/>
<stop offset="0.74" stop-color="#D18F08" stop-opacity="0.26"/>
<stop offset="1" stop-color="#D49D05" stop-opacity="0"/>
</linearGradient>
<clipPath id="clip0_2358_20">
<rect width="100" height="99.9867" fill="white"/>
</clipPath>
</defs>
</svg>
