<svg width="297" height="80" viewBox="0 0 297 80" fill="none" xmlns="http://www.w3.org/2000/svg">
<mask id="mask0_2263_40" style="mask-type:luminance" maskUnits="userSpaceOnUse" x="61" y="12" width="236" height="68">
<path d="M296.917 12.017H61.1993V80H296.917V12.017Z" fill="white"/>
</mask>
<g mask="url(#mask0_2263_40)">
<path d="M159.639 13.0479H139.221V42.8863H159.639C158.133 41.4114 156.86 39.7185 155.865 37.8591H145.22V30.4054H153.545C153.335 28.7402 153.343 27.0552 153.565 25.394H145.22V18.0593H155.849C156.844 16.2078 158.117 14.5188 159.623 13.0479" fill="currentColor"/>
<path d="M173.726 37.8591C168.251 37.8591 163.814 33.4225 163.814 27.9473C163.814 22.472 168.251 18.0355 173.726 18.0355C176.303 18.0553 178.769 19.102 180.573 20.9416L184.787 16.6478C181.861 13.6941 177.885 12.021 173.726 11.9972C165.079 11.9972 158.053 19.1535 158.053 27.9671C158.053 36.7807 165.075 43.8894 173.726 43.8894C182.377 43.8894 189.351 36.7331 189.351 27.9671H173.726V33.6485H181.655C179.867 36.2732 176.902 37.8472 173.726 37.8551" fill="currentColor"/>
<path d="M277.534 18.0553H284.468V13.0479H264.557V18.0593H271.535V42.8863H277.55V18.0553H277.534ZM256.739 32.7248H248.619L252.703 20.3786L256.739 32.7248ZM258.325 37.7361L259.994 42.8903H266.576L256.569 13.0518H249.059L238.965 42.8903H245.329L247.085 37.7361H258.325ZM225.263 18.0513H235.536V13.0479H219.245V42.8863H235.528V37.8591H225.259V30.4054H233.74V25.394H225.259V18.0553L225.263 18.0513ZM199.675 27.8719V18.1029H202.922C205.907 18.1029 207.751 20.1368 207.751 22.9993C207.751 25.8618 205.82 27.8799 202.395 27.8799H199.675V27.8719ZM199.675 31.0437L207.707 42.8982H214.999L206.922 31.4441C211.43 30.2706 213.849 27.1543 213.849 22.4403C213.849 16.3108 209.944 13.0439 202.7 13.0439H193.656V42.8823H199.671V31.0279V31.0437H199.675Z" fill="currentColor"/>
<path d="M82.803 59.439C81.9467 60.4738 80.6779 61.0804 79.3339 61.0962C78.6361 61.1042 77.9423 60.9416 77.3198 60.6244C76.7172 60.3152 76.178 59.891 75.7339 59.3756C75.282 58.8562 74.9212 58.2615 74.6754 57.6192C74.4177 56.9769 74.2829 56.295 74.2789 55.6051C74.2789 54.8994 74.4018 54.1976 74.6516 53.5355C74.8895 52.8972 75.2423 52.3065 75.6943 51.795C76.1383 51.2994 76.6775 50.895 77.2802 50.6056C77.8987 50.3043 78.5766 50.1536 79.2625 50.1576C79.7502 50.1536 80.2339 50.2131 80.7057 50.332C81.1141 50.4391 81.5066 50.6016 81.8713 50.8197C82.2044 51.0219 82.5017 51.2717 82.7555 51.5651C83.0052 51.8545 83.2154 52.1756 83.3858 52.5166L82.577 53.0479C82.2718 52.4294 81.7881 51.9179 81.1934 51.573C80.6026 51.2519 79.9365 51.0893 79.2625 51.1012C78.6996 51.1012 78.1405 51.232 77.641 51.4977C77.1652 51.7474 76.745 52.0884 76.4079 52.5087C76.0591 52.9369 75.7895 53.4285 75.615 53.9518C75.4326 54.495 75.3414 55.0619 75.3414 55.6329C75.3414 56.2236 75.4445 56.8104 75.6547 57.3654C75.8489 57.8928 76.1423 58.3804 76.515 58.8046C76.8758 59.213 77.3119 59.5421 77.7996 59.7839C78.2912 60.0258 78.8344 60.1526 79.3854 60.1487C80.0039 60.1487 80.6105 60.002 81.1577 59.7165C81.7881 59.3716 82.3392 58.9038 82.7792 58.3408V56.5329H80.3965V55.7003H83.6991V61.009H82.803V59.4231V59.439Z" fill="currentColor"/>
<path d="M89.8127 54.0073C89.1585 54.0113 88.5241 54.2135 87.9889 54.5862C87.4695 54.9549 87.0849 55.4862 86.8946 56.0928V61.0209H85.8598V53.0915H86.8352V54.9946C87.1008 54.4197 87.5092 53.9281 88.0246 53.5633C88.4884 53.2303 89.0395 53.0519 89.6105 53.0479C89.6779 53.04 89.7413 53.04 89.8087 53.0479V54.0073H89.8127Z" fill="currentColor"/>
<path d="M94.3166 61.1716C93.7694 61.1755 93.2302 61.0645 92.7307 60.8425C92.2549 60.6324 91.8267 60.3271 91.4739 59.9465C91.117 59.5619 90.8356 59.1179 90.6452 58.6302C90.447 58.1267 90.3439 57.5875 90.3479 57.0443C90.3439 56.5011 90.443 55.9619 90.6452 55.4584C90.8356 54.9787 91.1131 54.5426 91.4659 54.1659C91.8228 53.7893 92.251 53.4919 92.7228 53.2818C93.7338 52.8457 94.8835 52.8457 95.8945 53.2818C96.3624 53.4919 96.7866 53.7932 97.1355 54.1699C97.8452 54.947 98.2337 55.9619 98.2297 57.0126V57.2544C98.2377 57.3099 98.2377 57.3654 98.2297 57.421H91.4263C91.4501 57.8333 91.5532 58.2337 91.7236 58.6104C91.8822 58.9593 92.1003 59.2764 92.3699 59.546C92.6276 59.8077 92.9368 60.0139 93.2738 60.1606C93.6148 60.3073 93.9875 60.3826 94.3602 60.3826C94.6179 60.3826 94.8756 60.3469 95.1214 60.2755C95.3633 60.2081 95.6011 60.109 95.8192 59.9861C96.0333 59.8632 96.2276 59.7126 96.398 59.5381C96.5646 59.3676 96.6994 59.1694 96.7945 58.9513L97.6905 59.1932C97.5676 59.4866 97.3932 59.7562 97.1751 59.9861C96.9412 60.228 96.6756 60.4381 96.3822 60.6086C96.0769 60.787 95.7478 60.9178 95.4069 61.0051C95.054 61.1081 94.6853 61.1636 94.3166 61.1716ZM97.2465 56.6399C97.1989 55.8589 96.8659 55.1214 96.3108 54.5703C96.0531 54.3166 95.7478 54.1144 95.4148 53.9756C95.0699 53.8329 94.7011 53.7576 94.3285 53.7615C93.9518 53.7615 93.5831 53.8329 93.2342 53.9756C92.8972 54.1144 92.5919 54.3166 92.3302 54.5703C92.0646 54.832 91.8545 55.1412 91.7078 55.4822C91.5492 55.847 91.454 56.2395 91.4263 56.6399H97.2465Z" fill="currentColor"/>
<path d="M101.846 61.1716C101.489 61.1716 101.136 61.1121 100.803 60.9813C100.494 60.8623 100.208 60.6839 99.9663 60.4579C99.4826 60.0059 99.209 59.3716 99.213 58.7095C99.213 58.3725 99.2923 58.0434 99.4548 57.75C99.6253 57.4487 99.8592 57.187 100.141 56.9888C100.458 56.7628 100.815 56.5963 101.191 56.4932C101.628 56.3743 102.079 56.3148 102.531 56.3188C102.944 56.3188 103.356 56.3544 103.764 56.4258C104.145 56.4892 104.518 56.5884 104.875 56.7311V56.0174C104.906 55.4069 104.692 54.8042 104.28 54.3523C103.844 53.9241 103.249 53.702 102.639 53.7377C102.21 53.7377 101.786 53.825 101.39 53.9796C100.934 54.158 100.498 54.3919 100.097 54.6774L99.7324 53.9915C100.601 53.3532 101.639 52.9924 102.714 52.9567C103.574 52.9091 104.423 53.2104 105.057 53.7932C105.648 54.4117 105.957 55.2483 105.909 56.1047V59.6729C105.87 59.8672 105.997 60.0535 106.187 60.0932C106.227 60.1011 106.266 60.1011 106.306 60.0932V61.0051C106.175 61.0328 106.044 61.0487 105.909 61.0526C105.687 61.0645 105.469 60.9971 105.295 60.8544C105.144 60.7117 105.061 60.5134 105.061 60.3073L105.029 59.6848C104.668 60.1566 104.197 60.5333 103.653 60.7791C103.087 61.0407 102.468 61.1716 101.846 61.1676V61.1716ZM102.087 60.3786C102.607 60.3826 103.118 60.2756 103.59 60.0615C103.998 59.8949 104.351 59.6214 104.617 59.2685C104.704 59.1853 104.775 59.0822 104.823 58.9712C104.867 58.876 104.886 58.7769 104.89 58.6738V57.3813C104.542 57.2465 104.185 57.1474 103.82 57.076C103.447 57.0047 103.067 56.969 102.686 56.969C102.06 56.9412 101.441 57.0998 100.906 57.4249C100.482 57.6707 100.224 58.1227 100.22 58.6143C100.22 58.8522 100.268 59.0861 100.363 59.3002C100.458 59.5104 100.593 59.6967 100.759 59.8553C100.934 60.0178 101.14 60.1447 101.362 60.228C101.592 60.3231 101.838 60.3747 102.087 60.3826V60.3786Z" fill="currentColor"/>
<path d="M111.793 60.6403L111.527 60.7632C111.412 60.8147 111.278 60.8663 111.131 60.9139C110.96 60.9694 110.79 61.0169 110.616 61.0526C110.417 61.0923 110.211 61.1121 110.009 61.1121C109.791 61.1121 109.577 61.0804 109.371 61.0209C109.176 60.9654 108.994 60.8702 108.839 60.7394C108.685 60.6086 108.558 60.446 108.475 60.2597C108.379 60.0496 108.332 59.8196 108.336 59.5896V53.9161H107.242V53.0954H108.336V50.4193H109.371V53.0954H111.194V53.9161H109.371V59.3002C109.371 59.554 109.486 59.7918 109.684 59.9465C109.87 60.0852 110.096 60.1566 110.33 60.1526C110.6 60.1606 110.873 60.113 111.123 60.0099C111.27 59.9504 111.412 59.883 111.547 59.8037L111.793 60.6403Z" fill="currentColor"/>
<path d="M117.177 61.0209V50.221H118.259V61.0209H117.177Z" fill="currentColor"/>
<path d="M127.378 61.0209H126.344V56.5923C126.395 55.8827 126.248 55.173 125.923 54.5386C125.642 54.1104 125.15 53.8686 124.639 53.9003C124.325 53.9003 124.02 53.9598 123.727 54.0668C123.422 54.1778 123.136 54.3364 122.882 54.5386C122.633 54.7487 122.411 54.9946 122.224 55.2642C122.026 55.5377 121.875 55.843 121.784 56.1681V61.0209H120.749V53.0915H121.693V54.9073C122.022 54.3245 122.502 53.8408 123.085 53.5078C123.683 53.1549 124.369 52.9686 125.067 52.9765C125.451 52.9646 125.832 53.0479 126.177 53.2184C126.478 53.3769 126.728 53.6148 126.907 53.9043C127.105 54.2373 127.24 54.602 127.303 54.9827C127.386 55.4505 127.43 55.9223 127.426 56.3981V61.0368L127.378 61.0209Z" fill="currentColor"/>
<path d="M133.254 60.6403L132.988 60.7632C132.873 60.8147 132.739 60.8663 132.592 60.9139C132.421 60.9694 132.251 61.0169 132.077 61.0526C131.878 61.0923 131.672 61.1121 131.47 61.1121C131.252 61.1121 131.038 61.0804 130.832 61.0209C130.637 60.9654 130.455 60.8702 130.3 60.7394C130.146 60.6086 130.019 60.446 129.936 60.2597C129.84 60.0496 129.793 59.8196 129.797 59.5896V53.9161H128.703V53.0954H129.797V50.4193H130.832V53.0954H132.655V53.9161H130.832V59.3002C130.832 59.554 130.947 59.7918 131.145 59.9465C131.331 60.0852 131.557 60.1566 131.791 60.1526C132.061 60.1606 132.334 60.113 132.584 60.0099C132.731 59.9504 132.873 59.883 133.008 59.8037L133.254 60.6403Z" fill="currentColor"/>
<path d="M137.742 61.1716C137.195 61.1755 136.656 61.0645 136.156 60.8425C135.68 60.6324 135.252 60.3271 134.899 59.9465C134.543 59.5619 134.261 59.1179 134.071 58.6302C133.873 58.1267 133.769 57.5875 133.773 57.0443C133.769 56.5011 133.869 55.9619 134.071 55.4584C134.261 54.9787 134.539 54.5426 134.891 54.1659C135.248 53.7893 135.676 53.4919 136.148 53.2818C137.159 52.8457 138.309 52.8457 139.32 53.2818C139.788 53.4919 140.212 53.7932 140.561 54.1699C141.271 54.947 141.663 55.9619 141.655 57.0126V57.2544C141.663 57.3099 141.663 57.3654 141.655 57.421H134.852C134.876 57.8333 134.979 58.2337 135.149 58.6104C135.308 58.9593 135.526 59.2764 135.795 59.546C136.053 59.8077 136.362 60.0139 136.699 60.1606C137.04 60.3073 137.413 60.3826 137.786 60.3826C138.043 60.3826 138.301 60.3469 138.547 60.2755C138.789 60.2081 139.027 60.109 139.245 59.9861C139.459 59.8632 139.653 59.7126 139.824 59.5381C139.99 59.3676 140.125 59.1694 140.22 58.9513L141.116 59.1932C140.993 59.4866 140.819 59.7562 140.601 59.9861C140.367 60.228 140.101 60.4381 139.808 60.6086C139.502 60.787 139.173 60.9178 138.832 61.0051C138.48 61.1081 138.111 61.1636 137.742 61.1716ZM140.664 56.6399C140.617 55.8589 140.283 55.1214 139.728 54.5703C139.471 54.3166 139.165 54.1144 138.832 53.9756C138.487 53.8329 138.119 53.7576 137.746 53.7615C137.369 53.7615 137.001 53.8329 136.652 53.9756C136.315 54.1144 136.01 54.3166 135.748 54.5703C135.482 54.832 135.272 55.1412 135.125 55.4822C134.967 55.847 134.872 56.2395 134.844 56.6399H140.664Z" fill="currentColor"/>
<path d="M146.548 61.128C146.028 61.1359 145.513 61.017 145.049 60.787C144.597 60.565 144.193 60.2597 143.86 59.883C143.527 59.5024 143.265 59.0663 143.09 58.5905C142.908 58.1108 142.817 57.5994 142.817 57.084C142.817 56.5448 142.904 56.0056 143.083 55.4981C143.249 55.0144 143.503 54.5703 143.836 54.1818C144.157 53.8091 144.553 53.5038 144.997 53.2858C145.465 53.0598 145.977 52.9448 146.496 52.9527C147.123 52.9369 147.737 53.1153 148.26 53.4642C148.764 53.8091 149.196 54.2452 149.537 54.7487V53.0915H150.465V61.0526C150.473 61.5522 150.366 62.0517 150.152 62.5037C149.953 62.9121 149.668 63.2729 149.315 63.5623C148.95 63.8557 148.53 64.0698 148.082 64.2006C147.594 64.3433 147.091 64.4187 146.583 64.4147C145.818 64.4504 145.057 64.2799 144.379 63.9271C143.828 63.6099 143.36 63.1579 143.023 62.6187L143.661 62.1152C143.955 62.6028 144.391 62.9953 144.91 63.2332C145.434 63.4711 146.005 63.594 146.583 63.5901C146.952 63.5901 147.325 63.5385 147.678 63.4315C148.007 63.3323 148.312 63.1738 148.582 62.9597C148.843 62.7456 149.053 62.476 149.196 62.1667C149.355 61.8178 149.434 61.4332 149.426 61.0487V59.4628C149.121 59.9623 148.693 60.3747 148.177 60.6522C147.686 60.9496 147.123 61.1121 146.548 61.128ZM146.837 60.2597C147.142 60.2597 147.448 60.2042 147.733 60.0932C148.019 59.9861 148.284 59.8355 148.526 59.6452C148.756 59.4668 148.958 59.2527 149.129 59.0148C149.283 58.8007 149.39 58.5588 149.45 58.3011V55.8509C149.339 55.5655 149.184 55.2998 148.994 55.058C148.808 54.8201 148.586 54.61 148.34 54.4355C148.094 54.269 147.828 54.1342 147.547 54.0391C147.277 53.9399 146.992 53.8884 146.702 53.8884C146.29 53.8805 145.882 53.9796 145.513 54.1699C145.168 54.3523 144.867 54.602 144.625 54.9073C144.379 55.2166 144.193 55.5655 144.07 55.9421C143.943 56.3267 143.879 56.7271 143.879 57.1315C143.879 57.5478 143.955 57.9602 144.109 58.3487C144.252 58.7214 144.466 59.0663 144.74 59.3597C145.005 59.6452 145.323 59.8791 145.675 60.0456C146.04 60.2042 146.441 60.2756 146.837 60.2597Z" fill="currentColor"/>
<path d="M156.717 54.0073C156.067 54.0113 155.429 54.2135 154.893 54.5862C154.374 54.9549 153.989 55.4862 153.799 56.0928V61.0209H152.753V53.0915H153.728V54.9946C153.993 54.4197 154.402 53.9281 154.917 53.5633C155.381 53.2303 155.932 53.0519 156.503 53.0479C156.571 53.04 156.634 53.04 156.701 53.0479V53.9915L156.717 54.0073Z" fill="currentColor"/>
<path d="M160.115 61.1716C159.758 61.1716 159.405 61.1121 159.072 60.9813C158.763 60.8623 158.478 60.6839 158.236 60.4579C157.752 60.0059 157.478 59.3716 157.482 58.7095C157.482 58.3725 157.562 58.0434 157.724 57.75C157.895 57.4487 158.129 57.187 158.41 56.9888C158.727 56.7628 159.084 56.5963 159.461 56.4932C159.897 56.3743 160.349 56.3148 160.801 56.3188C161.213 56.3188 161.626 56.3544 162.034 56.4258C162.415 56.4892 162.787 56.5884 163.144 56.7311V56.0174C163.176 55.4069 162.962 54.8042 162.549 54.3523C162.113 53.9241 161.518 53.702 160.908 53.7377C160.48 53.7377 160.056 53.825 159.659 53.9796C159.203 54.158 158.767 54.3919 158.367 54.6774L158.002 53.9915C158.87 53.3532 159.909 52.9924 160.983 52.9567C161.844 52.9091 162.692 53.2104 163.326 53.7932C163.917 54.4117 164.226 55.2483 164.179 56.1047V59.6729C164.139 59.8672 164.266 60.0535 164.456 60.0932C164.496 60.1011 164.536 60.1011 164.575 60.0932V61.0051C164.444 61.0328 164.314 61.0487 164.179 61.0526C163.957 61.0645 163.739 60.9971 163.564 60.8544C163.414 60.7117 163.33 60.5134 163.33 60.3073L163.299 59.6848C162.938 60.1566 162.466 60.5333 161.923 60.7791C161.356 61.0407 160.737 61.1716 160.115 61.1676V61.1716ZM160.357 60.3786C160.868 60.3826 161.372 60.2795 161.84 60.0733C162.248 59.9068 162.601 59.6333 162.866 59.2804C162.954 59.1971 163.025 59.0941 163.073 58.9831C163.116 58.8879 163.136 58.7888 163.14 58.6857V57.3932C162.791 57.2584 162.43 57.1593 162.066 57.0879C161.693 57.0166 161.312 56.9809 160.932 56.9809C160.305 56.9531 159.687 57.1117 159.152 57.4368C158.727 57.6826 158.47 58.1346 158.466 58.6262C158.466 58.8641 158.513 59.098 158.608 59.3121C158.704 59.5223 158.838 59.7086 159.005 59.8672C159.179 60.0297 159.382 60.1566 159.604 60.2399C159.841 60.335 160.099 60.3826 160.357 60.3826V60.3786Z" fill="currentColor"/>
<path d="M170.062 60.6403L169.797 60.7632C169.682 60.8147 169.547 60.8663 169.4 60.9139C169.23 60.9694 169.059 61.0169 168.885 61.0526C168.683 61.0923 168.48 61.1121 168.274 61.1121C168.056 61.1121 167.842 61.0804 167.636 61.0209C167.442 60.9654 167.259 60.8702 167.105 60.7394C166.95 60.6086 166.823 60.446 166.74 60.2597C166.645 60.0496 166.601 59.8196 166.605 59.5896V53.9161H165.511V53.0954H166.605V50.4193H167.64V53.0954H169.464V53.9161H167.64V59.3002C167.64 59.554 167.755 59.7918 167.953 59.9465C168.14 60.0852 168.366 60.1566 168.599 60.1526C168.869 60.1606 169.143 60.113 169.392 60.0099C169.539 59.9504 169.682 59.883 169.817 59.8037L170.062 60.6403Z" fill="currentColor"/>
<path d="M171.355 51.4382V49.9158H172.39V51.4382H171.355ZM171.355 61.0209V53.0915H172.39V61.0209H171.355Z" fill="currentColor"/>
<path d="M178.095 61.1716C177.548 61.1795 177.009 61.0645 176.509 60.8425C176.041 60.6324 175.621 60.331 175.268 59.9544C174.915 59.5738 174.642 59.1297 174.455 58.646C174.261 58.1386 174.162 57.6033 174.166 57.0602C174.166 56.517 174.265 55.9778 174.463 55.4743C174.654 54.9906 174.931 54.5465 175.284 54.1659C175.637 53.7893 176.057 53.484 176.525 53.2699C177.021 53.0399 177.564 52.9289 178.111 52.9369C178.658 52.9289 179.201 53.0439 179.697 53.2699C180.169 53.484 180.593 53.7893 180.946 54.1659C181.298 54.5465 181.576 54.9906 181.766 55.4743C181.965 55.9778 182.068 56.517 182.064 57.0602C182.068 57.6033 181.969 58.1386 181.774 58.646C181.588 59.1297 181.314 59.5738 180.961 59.9544C180.609 60.331 180.184 60.6324 179.713 60.8425C179.205 61.0685 178.65 61.1795 178.095 61.1716ZM175.221 57.0958C175.221 57.5201 175.296 57.9403 175.451 58.3368C175.593 58.7055 175.803 59.0425 176.065 59.3399C176.319 59.6253 176.628 59.8553 176.977 60.0178C177.326 60.1804 177.71 60.2636 178.095 60.2597C178.484 60.2597 178.864 60.1764 179.213 60.0099C179.562 59.8434 179.875 59.6095 180.133 59.324C180.398 59.0267 180.613 58.6857 180.755 58.313C181.061 57.5121 181.061 56.628 180.755 55.8271C180.613 55.4505 180.402 55.1056 180.133 54.8082C179.875 54.5227 179.562 54.2888 179.213 54.1223C178.864 53.9558 178.484 53.8686 178.095 53.8725C177.71 53.8725 177.33 53.9558 176.985 54.1223C176.64 54.2928 176.327 54.5267 176.073 54.8161C175.803 55.1174 175.593 55.4663 175.451 55.843C175.296 56.2434 175.217 56.6676 175.221 57.0958Z" fill="currentColor"/>
<path d="M190.445 61.0209H189.41V56.5923C189.462 55.8827 189.319 55.173 188.994 54.5386C188.712 54.1104 188.221 53.8686 187.709 53.9003C187.396 53.9003 187.091 53.9598 186.797 54.0668C186.492 54.1778 186.207 54.3364 185.953 54.5386C185.691 54.7487 185.457 54.9906 185.263 55.2642C185.065 55.5377 184.914 55.843 184.823 56.1681V61.0209H183.788V53.0915H184.732V54.9073C185.061 54.3245 185.541 53.8408 186.123 53.5078C186.722 53.1549 187.408 52.9686 188.106 52.9765C188.49 52.9646 188.871 53.0479 189.216 53.2184C189.517 53.3769 189.767 53.6148 189.945 53.9043C190.144 54.2373 190.279 54.602 190.342 54.9827C190.425 55.4505 190.469 55.9223 190.465 56.3981V61.0368L190.445 61.0209Z" fill="currentColor"/>
<path d="M192.606 61.0209V59.5302H193.502V61.0209H192.606Z" fill="currentColor"/>
<path d="M127.739 18.0593H134.673V13.0479H114.743V18.0593H121.721V42.8863H127.735V18.0593H127.739ZM92.017 24.0063L104.308 42.8824H110.191V13.0479H104.173V31.6543L91.9259 13.0479H86.0026V42.8824H92.0131V24.0063H92.017ZM80.1229 13.0479H74.1243V42.8863H80.1388V13.0479H80.1229Z" fill="currentColor"/>
</g>
<path d="M69.0154 9.78639V59.2383C69.0154 64.6353 64.6353 69.0154 59.229 69.0154H9.77719C4.38018 69.0154 0 64.6353 0 59.2383V9.78639C0 4.38018 4.38018 0 9.77719 0H59.229C64.6353 0 69.0154 4.38018 69.0154 9.78639Z" fill="#FBDA16"/>
<path opacity="0.5" d="M69.027 38.5957V59.2406C69.027 64.6376 64.6468 69.0177 59.2406 69.0177H35.8535L20.4332 52.8865C19.207 51.9594 18.1005 50.9012 17.0629 49.7693C16.2002 48.8307 15.4595 47.7886 14.7831 46.7027C14.1183 45.633 13.5316 44.5242 13.0554 43.3601C12.5148 42.0373 12.0754 40.6823 11.7948 39.2767C11.7073 38.8396 11.6429 38.3979 11.5785 37.9585V37.9539C11.5325 37.6318 11.4888 37.3097 11.4382 36.9877C11.3462 36.3826 11.3093 35.7799 11.2955 35.1749V35.1703C11.284 34.6458 11.2909 34.1212 11.2955 33.5967C11.3047 32.6443 11.4497 31.6965 11.6061 30.7579C11.6751 30.3392 11.7556 29.9228 11.85 29.511C12.1559 28.1238 12.5838 26.7757 13.1498 25.469C13.5155 24.6201 13.9549 23.8057 14.4058 22.9959C14.8544 22.1931 15.3721 21.4408 15.9242 20.7138C16.2601 20.2721 16.6074 19.8396 16.9571 19.4071C17.2677 19.0276 17.6358 18.6963 17.9785 18.3443C18.227 18.0912 18.4777 17.8359 18.7331 17.5897C19.069 17.2654 19.4141 16.9525 19.7844 16.6695C20.6908 15.9794 21.5926 15.28 22.598 14.7233C23.1616 14.4127 23.7114 14.0791 24.2911 13.8054C25.2114 13.366 26.1546 12.9772 27.1231 12.6528C27.2473 12.6114 27.3692 12.5723 27.4935 12.5355C28.1192 12.34 28.7518 12.1789 29.3891 12.0363C30.0033 11.8983 30.6268 11.7993 31.2502 11.7119C31.4319 11.6889 31.6114 11.6636 31.7931 11.6406C32.902 11.4957 34.0177 11.4911 35.1335 11.5233C36.6495 11.5693 38.1425 11.7832 39.6149 12.1444C39.6724 12.1605 39.7552 12.1582 39.792 12.2042L44.4253 17.0468C44.8762 16.9318 45.3455 16.8697 45.8286 16.8697C47.7081 16.8674 49.3668 17.7508 50.4112 19.1357H50.4158L67.9572 37.4846L68.0262 37.5582H68.0331L69.027 38.5957Z" fill="url(#paint0_linear_2263_40)"/>
<path d="M51.566 22.6532C51.5591 25.7083 49.0056 28.3354 45.8286 28.3147C42.7551 28.3216 40.1394 25.7865 40.1325 22.6187C40.1256 19.4117 42.7137 16.8743 45.8171 16.8674C49.0171 16.8628 51.573 19.4301 51.5637 22.6532H51.566Z" fill="white"/>
<path d="M57.3035 34.9954C57.292 36.3481 57.1425 37.687 56.8779 39.0144C56.5835 40.4914 56.1349 41.9177 55.5735 43.3164C55.2077 44.232 54.7591 45.1039 54.2783 45.9574C53.6227 47.1168 52.8635 48.2096 51.9939 49.2241C51.4234 49.8913 50.8483 50.5561 50.2064 51.1565C49.2471 52.0514 48.2395 52.8842 47.1444 53.6204C45.9873 54.398 44.7726 55.0628 43.5027 55.6264C42.196 56.2039 40.8456 56.6548 39.4469 56.963C38.7545 57.1149 38.0551 57.2069 37.3604 57.3311C36.0284 57.5681 34.6895 57.5635 33.3506 57.5336C32.0738 57.5037 30.8085 57.3265 29.5616 57.0666C27.7902 56.6985 26.0786 56.1165 24.4499 55.3297C23.3019 54.7776 22.2046 54.1334 21.1486 53.4088C19.628 52.3643 18.2914 51.1151 17.0514 49.767C16.1887 48.8284 15.4457 47.7863 14.7716 46.7004C14.1068 45.6307 13.5178 44.5219 13.0416 43.3578C12.501 42.035 12.0639 40.68 11.7832 39.2744C11.6314 38.5129 11.544 37.7468 11.4267 36.9831C11.2541 35.8558 11.2748 34.724 11.284 33.5921C11.2932 32.6397 11.4359 31.6919 11.5946 30.7533C11.8983 28.9313 12.4044 27.1622 13.1382 25.4644C13.504 24.6155 13.9434 23.8011 14.3943 22.9936C15.1144 21.6985 16.0185 20.5436 16.9456 19.4025C17.2562 19.023 17.6242 18.6917 17.967 18.3397C18.5398 17.7531 19.1196 17.1641 19.7706 16.6649C20.677 15.9725 21.5811 15.2731 22.5864 14.7187C23.1478 14.4081 23.6976 14.0745 24.2773 13.8008C25.1975 13.3637 26.1407 12.9726 27.1093 12.6482C27.8546 12.3998 28.6138 12.2019 29.3753 12.0294C30.1666 11.85 30.9741 11.7395 31.7793 11.6337C32.8882 11.4888 34.0039 11.4842 35.1197 11.5164C36.6357 11.5624 38.1287 11.7763 39.6011 12.1375C39.677 12.1559 39.7989 12.149 39.7989 12.2571C39.7989 12.3469 39.6908 12.3745 39.6172 12.4159C38.6256 12.9726 37.7813 13.7065 37.0222 14.5439C36.4056 15.2248 35.8581 15.9541 35.4233 16.7661C35.0207 17.5184 34.6549 18.2822 34.4387 19.1081C34.3582 19.414 34.2086 19.5061 33.9004 19.513C31.5861 19.5521 29.4075 20.1203 27.3485 21.1923C25.8831 21.9561 24.581 22.9269 23.4468 24.1163C22.2437 25.3747 21.2798 26.7987 20.562 28.3907C19.9225 29.8101 19.536 31.2962 19.3565 32.8283C19.1932 34.2202 19.23 35.6143 19.4785 37.0061C19.7292 38.4002 20.1226 39.7437 20.7368 41.0205C21.5489 42.7068 22.6417 44.1952 23.999 45.4743C24.7949 46.2265 25.6668 46.8822 26.6216 47.4389C27.4819 47.9404 28.3699 48.3752 29.3017 48.7088C29.9412 48.9388 30.6014 49.0999 31.2686 49.2402C32.4879 49.5002 33.7209 49.5623 34.9609 49.5324C36.1181 49.5048 37.2476 49.2885 38.3634 48.9918C39.4469 48.7042 40.4752 48.2763 41.4553 47.7449C42.3249 47.271 43.1507 46.7235 43.9099 46.077C45.0096 45.1407 45.9781 44.094 46.7879 42.8977C46.8431 42.8149 46.9466 42.7367 46.8753 42.6239C46.8086 42.5204 46.6889 42.5526 46.5877 42.5526C45.7641 42.5503 44.9428 42.5503 44.1193 42.5503C40.9975 42.5503 37.8757 42.5503 34.7539 42.5503C34.326 42.5503 34.326 42.5503 34.326 42.127V34.9471C34.326 34.5583 34.3306 34.5514 34.724 34.5514H56.8572C57.3035 34.5514 57.3081 34.5514 57.3035 34.9862V34.9954Z" fill="white"/>
<path d="M51.566 22.6532C51.5591 25.7083 49.0055 28.3354 45.8285 28.3147C42.755 28.3216 40.1394 25.7865 40.1325 22.6187C40.1256 19.4117 42.7136 16.8743 45.817 16.8674C49.017 16.8628 51.5729 19.4301 51.5637 22.6532H51.566Z" fill="black"/>
<path d="M57.3035 34.9954C57.292 36.3481 57.1425 37.687 56.8779 39.0144C56.5835 40.4914 56.1349 41.9177 55.5735 43.3164C55.2077 44.232 54.7591 45.1039 54.2783 45.9574C53.6227 47.1168 52.8635 48.2096 51.9939 49.2241C51.4234 49.8913 50.8483 50.5561 50.2064 51.1565C49.2471 52.0514 48.2395 52.8842 47.1444 53.6204C45.9873 54.398 44.7726 55.0628 43.5027 55.6264C42.196 56.2039 40.8456 56.6548 39.4469 56.963C38.7545 57.1149 38.0551 57.2069 37.3604 57.3311C36.0284 57.5681 34.6895 57.5635 33.3506 57.5336C32.0738 57.5037 30.8085 57.3265 29.5616 57.0666C27.7902 56.6985 26.0786 56.1165 24.4499 55.3297C23.3019 54.7776 22.2046 54.1334 21.1486 53.4088C19.628 52.3643 18.2914 51.1151 17.0514 49.767C16.1887 48.8284 15.4457 47.7863 14.7716 46.7004C14.1068 45.6307 13.5178 44.5219 13.0416 43.3578C12.501 42.035 12.0639 40.68 11.7832 39.2744C11.6314 38.5129 11.544 37.7468 11.4267 36.9831C11.2541 35.8558 11.2748 34.724 11.284 33.5921C11.2932 32.6397 11.4359 31.6919 11.5946 30.7533C11.8983 28.9313 12.4044 27.1622 13.1382 25.4644C13.504 24.6155 13.9434 23.8011 14.3943 22.9936C15.1144 21.6985 16.0185 20.5436 16.9456 19.4025C17.2562 19.023 17.6242 18.6917 17.967 18.3397C18.5398 17.7531 19.1196 17.1641 19.7706 16.6649C20.677 15.9725 21.5811 15.2731 22.5864 14.7187C23.1478 14.4081 23.6976 14.0745 24.2773 13.8008C25.1975 13.3637 26.1407 12.9726 27.1093 12.6482C27.8546 12.3998 28.6138 12.2019 29.3753 12.0294C30.1666 11.85 30.9741 11.7395 31.7793 11.6337C32.8882 11.4888 34.0039 11.4842 35.1197 11.5164C36.6357 11.5624 38.1287 11.7763 39.6011 12.1375C39.677 12.1559 39.7989 12.149 39.7989 12.2571C39.7989 12.3469 39.6908 12.3745 39.6172 12.4159C38.6256 12.9726 37.7813 13.7065 37.0222 14.5439C36.4056 15.2248 35.8581 15.9541 35.4233 16.7661C35.0207 17.5184 34.6549 18.2822 34.4387 19.1081C34.3582 19.414 34.2086 19.5061 33.9004 19.513C31.5861 19.5521 29.4075 20.1203 27.3485 21.1923C25.8831 21.9561 24.581 22.9269 23.4468 24.1163C22.2437 25.3747 21.2798 26.7987 20.562 28.3907C19.9225 29.8101 19.536 31.2962 19.3565 32.8283C19.1932 34.2202 19.23 35.6143 19.4785 37.0061C19.7292 38.4002 20.1226 39.7437 20.7368 41.0205C21.5489 42.7068 22.6417 44.1952 23.999 45.4743C24.7949 46.2265 25.6668 46.8822 26.6216 47.4389C27.4819 47.9404 28.3699 48.3752 29.3017 48.7088C29.9412 48.9388 30.6014 49.0999 31.2686 49.2402C32.4879 49.5002 33.7209 49.5623 34.9609 49.5324C36.1181 49.5048 37.2476 49.2885 38.3634 48.9918C39.4469 48.7042 40.4752 48.2763 41.4553 47.7449C42.3249 47.271 43.1507 46.7235 43.9099 46.077C45.0096 45.1407 45.9781 44.094 46.7879 42.8977C46.8431 42.8149 46.9466 42.7367 46.8753 42.6239C46.8086 42.5204 46.6889 42.5526 46.5877 42.5526C45.7641 42.5503 44.9428 42.5503 44.1193 42.5503C40.9975 42.5503 37.8757 42.5503 34.7539 42.5503C34.326 42.5503 34.326 42.5503 34.326 42.127V34.9471C34.326 34.5583 34.3306 34.5514 34.724 34.5514H56.8572C57.3035 34.5514 57.3081 34.5514 57.3035 34.9862V34.9954Z" fill="black"/>
<path d="M57.3035 34.9954C57.292 36.3481 57.1425 37.687 56.8779 39.0144C56.5835 40.4914 56.1349 41.9177 55.5735 43.3164C55.2077 44.232 54.7591 45.1039 54.2783 45.9574C53.6227 47.1168 52.8635 48.2096 51.9939 49.2241C51.4234 49.8913 50.8483 50.5561 50.2064 51.1565C49.2471 52.0514 48.2395 52.8842 47.1444 53.6204C45.9873 54.398 44.7726 55.0628 43.5027 55.6264C42.196 56.2039 40.8456 56.6548 39.4469 56.963C38.7545 57.1149 38.0551 57.2069 37.3604 57.3311C36.0284 57.5681 34.6895 57.5635 33.3506 57.5336C32.0738 57.5037 30.8085 57.3265 29.5616 57.0666C27.7902 56.6985 26.0786 56.1165 24.4499 55.3297C23.3019 54.7776 22.2046 54.1334 21.1486 53.4088C19.628 52.3643 18.2914 51.1151 17.0514 49.767C16.1887 48.8284 15.4457 47.7863 14.7716 46.7004C14.1068 45.6307 13.5178 44.5219 13.0416 43.3578C12.501 42.035 12.0639 40.68 11.7832 39.2744C11.6314 38.5129 11.544 37.7468 11.4267 36.9831C11.2541 35.8558 11.2748 34.724 11.284 33.5921C11.2932 32.6397 11.4359 31.6919 11.5946 30.7533C11.8983 28.9313 12.4044 27.1622 13.1382 25.4644C13.504 24.6155 13.9434 23.8011 14.3943 22.9936C15.1144 21.6985 16.0185 20.5436 16.9456 19.4025C17.2562 19.023 17.6242 18.6917 17.967 18.3397C18.5398 17.7531 19.1196 17.1641 19.7706 16.6649C20.677 15.9725 21.5811 15.2731 22.5864 14.7187C23.1478 14.4081 23.6976 14.0745 24.2773 13.8008C25.1975 13.3637 26.1407 12.9726 27.1093 12.6482C27.8546 12.3998 28.6138 12.2019 29.3753 12.0294C30.1666 11.85 30.9741 11.7395 31.7793 11.6337C32.8882 11.4888 34.0039 11.4842 35.1197 11.5164C36.6357 11.5624 38.1287 11.7763 39.6011 12.1375C39.677 12.1559 39.7989 12.149 39.7989 12.2571C39.7989 12.3469 39.6908 12.3745 39.6172 12.4159C38.6256 12.9726 37.7813 13.7065 37.0222 14.5439C36.4056 15.2248 35.8581 15.9541 35.4233 16.7661C35.0207 17.5184 34.6549 18.2822 34.4387 19.1081C34.3582 19.414 34.2086 19.5061 33.9004 19.513C31.5861 19.5521 29.4075 20.1203 27.3485 21.1923C25.8831 21.9561 24.581 22.9269 23.4468 24.1163C22.2437 25.3747 21.2798 26.7987 20.562 28.3907C19.9225 29.8101 19.536 31.2962 19.3565 32.8283C19.1932 34.2202 19.23 35.6143 19.4785 37.0061C19.7292 38.4002 20.1226 39.7437 20.7368 41.0205C21.5489 42.7068 22.6417 44.1952 23.999 45.4743C24.7949 46.2265 25.6668 46.8822 26.6216 47.4389C27.4819 47.9404 28.3699 48.3752 29.3017 48.7088C29.9412 48.9388 30.6014 49.0999 31.2686 49.2402C32.4879 49.5002 33.7209 49.5623 34.9609 49.5324C36.1181 49.5048 37.2476 49.2885 38.3634 48.9918C39.4469 48.7042 40.4752 48.2763 41.4553 47.7449C42.3249 47.271 43.1507 46.7235 43.9099 46.077C45.0096 45.1407 45.9781 44.094 46.7879 42.8977C46.8431 42.8149 46.9466 42.7367 46.8753 42.6239C46.8086 42.5204 46.6889 42.5526 46.5877 42.5526C45.7641 42.5503 44.9428 42.5503 44.1193 42.5503C40.9975 42.5503 37.8757 42.5503 34.7539 42.5503C34.326 42.5503 34.326 42.5503 34.326 42.127V34.9471C34.326 34.5583 34.3306 34.5514 34.724 34.5514H56.8572C57.3035 34.5514 57.3081 34.5514 57.3035 34.9862V34.9954Z" fill="white"/>
<path d="M51.566 22.6532C51.5591 25.7083 49.0055 28.3354 45.8285 28.3147C42.755 28.3216 40.1394 25.7865 40.1325 22.6187C40.1256 19.4117 42.7136 16.8743 45.817 16.8674C49.017 16.8628 51.5729 19.4301 51.5637 22.6532H51.566Z" fill="white"/>
<defs>
<linearGradient id="paint0_linear_2263_40" x1="11.2886" y1="40.2636" x2="69.027" y2="40.2636" gradientUnits="userSpaceOnUse">
<stop stop-color="#CE810F"/>
<stop offset="0.41" stop-color="#CF8511" stop-opacity="0.59"/>
<stop offset="0.74" stop-color="#D18F08" stop-opacity="0.26"/>
<stop offset="1" stop-color="#D49D05" stop-opacity="0"/>
</linearGradient>
</defs>
</svg>
