<svg width="201" height="54" viewBox="0 0 201 54" fill="none" xmlns="http://www.w3.org/2000/svg">
<g clip-path="url(#clip0_4616_1749)">
<g clip-path="url(#clip1_4616_1749)">
<mask id="mask0_4616_1749" style="mask-type:luminance" maskUnits="userSpaceOnUse" x="41" y="8" width="160" height="46">
<path d="M200.414 8.11206H41.3086V53.9994H200.414V8.11206Z" fill="white"/>
</mask>
<g mask="url(#mask0_4616_1749)">
<path d="M107.753 8.80786H93.9717V28.9483H107.753C106.737 27.9527 105.878 26.8101 105.206 25.555H98.0209V20.5239H103.64C103.498 19.3999 103.504 18.2626 103.654 17.1413H98.0209V12.1905H105.195C105.867 10.9407 106.726 9.80069 107.743 8.80786" fill="white"/>
<path d="M117.262 25.555C113.567 25.555 110.572 22.5604 110.572 18.8647C110.572 15.1689 113.567 12.1744 117.262 12.1744C119.002 12.1877 120.666 12.8943 121.884 14.136L124.728 11.2377C122.753 9.24401 120.069 8.1147 117.262 8.09863C111.426 8.09863 106.683 12.929 106.683 18.878C106.683 24.8271 111.423 29.6253 117.262 29.6253C123.101 29.6253 127.809 24.795 127.809 18.878H117.262V22.7129H122.614C121.407 24.4845 119.406 25.5469 117.262 25.5523" fill="white"/>
<path d="M187.331 12.1878H192.011V8.80788H178.572V12.1905H183.282V28.9483H187.342V12.1878H187.331ZM173.295 22.0895H167.814L170.571 13.756L173.295 22.0895ZM174.365 25.472L175.492 28.951H179.935L173.18 8.81051H168.111L161.298 28.951H165.593L166.779 25.472H174.365ZM152.049 12.1851H158.983V8.80788H147.987V28.9483H158.978V25.555H152.046V20.5239H157.771V17.1413H152.046V12.1878L152.049 12.1851ZM134.778 18.8138V12.2199H136.969C138.984 12.2199 140.229 13.5928 140.229 15.5249C140.229 17.457 138.925 18.8192 136.614 18.8192H134.778V18.8138ZM134.778 20.9547L140.199 28.9563H145.121L139.669 21.225C142.712 20.4329 144.345 18.3295 144.345 15.1476C144.345 11.0103 141.709 8.80518 136.819 8.80518H130.715V28.9456H134.775V20.9441V20.9547H134.778Z" fill="white"/>
<path d="M55.8908 40.1211C55.3128 40.8196 54.4564 41.229 53.5492 41.2397C53.0782 41.2451 52.6099 41.1353 52.1898 40.9212C51.783 40.7125 51.4191 40.4262 51.1193 40.0783C50.8143 39.7277 50.5707 39.3263 50.4048 38.8928C50.2309 38.4592 50.1399 37.999 50.1372 37.5333C50.1372 37.057 50.2202 36.5833 50.3888 36.1364C50.5494 35.7055 50.7875 35.3068 51.0926 34.9615C51.3923 34.627 51.7562 34.3541 52.163 34.1587C52.5805 33.9553 53.0381 33.8536 53.5011 33.8563C53.8302 33.8536 54.1567 33.8938 54.4752 33.974C54.7509 34.0463 55.0158 34.156 55.2619 34.3032C55.4868 34.4397 55.6875 34.6083 55.8588 34.8064C56.0273 35.0017 56.1692 35.2184 56.2842 35.4486L55.7383 35.8072C55.5323 35.3898 55.2058 35.0445 54.8044 34.8117C54.4056 34.595 53.956 34.4852 53.5011 34.4932C53.1211 34.4932 52.7437 34.5815 52.4066 34.7609C52.0854 34.9294 51.8018 35.1596 51.5742 35.4433C51.3388 35.7323 51.1568 36.0641 51.0391 36.4174C50.9159 36.784 50.8544 37.1666 50.8544 37.5521C50.8544 37.9508 50.924 38.3469 51.0658 38.7215C51.1969 39.0775 51.395 39.4066 51.6465 39.6929C51.8901 39.9686 52.1844 40.1907 52.5136 40.3539C52.8454 40.5172 53.2121 40.6028 53.584 40.6002C54.0015 40.6002 54.4109 40.5011 54.7803 40.3084C55.2058 40.0756 55.5778 39.7599 55.8748 39.3799V38.1595H54.2665V37.5976H56.4957V41.1808H55.8908V40.1104V40.1211Z" fill="white"/>
<path d="M60.6222 36.4548C60.1807 36.4575 59.7525 36.594 59.3912 36.8455C59.0406 37.0944 58.781 37.453 58.6526 37.8625V41.1889H57.9541V35.8366H58.6125V37.1212C58.7918 36.7332 59.0674 36.4013 59.4153 36.1551C59.7284 35.9303 60.1003 35.8099 60.4858 35.8072C60.5313 35.8019 60.574 35.8019 60.6195 35.8072V36.4548H60.6222Z" fill="white"/>
<path d="M63.6623 41.2906C63.2929 41.2933 62.929 41.2183 62.5918 41.0685C62.2707 40.9267 61.9816 40.7206 61.7435 40.4637C61.5026 40.2041 61.3127 39.9044 61.1842 39.5752C61.0504 39.2354 60.9808 38.8714 60.9835 38.5048C60.9808 38.1381 61.0477 37.7742 61.1842 37.4343C61.3127 37.1105 61.5 36.8162 61.7381 36.5619C61.979 36.3077 62.268 36.107 62.5865 35.9652C63.2689 35.6708 64.0449 35.6708 64.7273 35.9652C65.0432 36.107 65.3295 36.3103 65.565 36.5646C66.044 37.0891 66.3063 37.7742 66.3036 38.4834V38.6466C66.309 38.6841 66.309 38.7215 66.3036 38.759H61.7114C61.7274 39.0373 61.797 39.3076 61.9121 39.5619C62.0191 39.7974 62.1663 40.0114 62.3483 40.1934C62.5222 40.37 62.7309 40.5092 62.9584 40.6082C63.1886 40.7072 63.4401 40.7581 63.6917 40.7581C63.8657 40.7581 64.0396 40.734 64.2055 40.6858C64.3688 40.6403 64.5293 40.5734 64.6765 40.4904C64.821 40.4075 64.9522 40.3058 65.0672 40.1881C65.1796 40.073 65.2706 39.9392 65.3348 39.792L65.9396 39.9553C65.8567 40.1533 65.7389 40.3353 65.5917 40.4904C65.4338 40.6537 65.2546 40.7955 65.0565 40.9106C64.8505 41.031 64.6283 41.1193 64.3982 41.1783C64.16 41.2478 63.9111 41.2852 63.6623 41.2906ZM65.6399 38.2318C65.6078 37.7047 65.383 37.2069 65.0083 36.8349C64.8344 36.6636 64.6283 36.5271 64.4036 36.4335C64.1707 36.3371 63.9218 36.2863 63.6703 36.2889C63.416 36.2889 63.1672 36.3371 62.9317 36.4335C62.7042 36.5271 62.4981 36.6636 62.3215 36.8349C62.1422 37.0115 62.0004 37.2202 61.9014 37.4504C61.7943 37.6966 61.7301 37.9616 61.7114 38.2318H65.6399Z" fill="white"/>
<path d="M68.7445 41.2904C68.5036 41.2904 68.2653 41.2502 68.0405 41.162C67.832 41.0816 67.6389 40.9612 67.4758 40.8087C67.1493 40.5036 66.9646 40.0754 66.9673 39.6285C66.9673 39.4011 67.0208 39.1789 67.1305 38.9809C67.2456 38.7775 67.4035 38.6009 67.5937 38.4671C67.8077 38.3145 68.0486 38.2022 68.3024 38.1326C68.5974 38.0523 68.9018 38.0122 69.2069 38.0149C69.4857 38.0149 69.7638 38.0389 70.0392 38.0871C70.2963 38.1299 70.5481 38.1968 70.7891 38.2931V37.8114C70.81 37.3993 70.6655 36.9925 70.3875 36.6875C70.0932 36.3985 69.6915 36.2486 69.2798 36.2727C68.9902 36.2727 68.704 36.3316 68.4368 36.4359C68.129 36.5563 67.8347 36.7142 67.564 36.9069L67.3179 36.444C67.9042 36.0131 68.6048 35.7696 69.3304 35.7455C69.9109 35.7134 70.484 35.9167 70.9119 36.3101C71.3108 36.7276 71.5194 37.2923 71.487 37.8703V40.2788C71.4607 40.41 71.5464 40.5357 71.6746 40.5625C71.7016 40.5678 71.728 40.5678 71.755 40.5625V41.178C71.6665 41.1967 71.5781 41.2075 71.487 41.2101C71.3372 41.2181 71.19 41.1726 71.0726 41.0763C70.9706 40.98 70.9146 40.8461 70.9146 40.707L70.893 40.2868C70.6493 40.6053 70.3314 40.8596 69.9642 41.0255C69.5822 41.2021 69.1644 41.2904 68.7445 41.2877V41.2904ZM68.9072 40.7551C69.2582 40.7578 69.6031 40.6856 69.9217 40.5411C70.1971 40.4287 70.4354 40.2441 70.6149 40.0058C70.6736 39.9497 70.7216 39.8801 70.754 39.8052C70.7837 39.7409 70.7965 39.674 70.7992 39.6044V38.732C70.5643 38.641 70.3233 38.5741 70.077 38.5259C69.8252 38.4778 69.5687 38.4537 69.3115 38.4537C68.889 38.435 68.4712 38.542 68.1101 38.7614C67.8239 38.9274 67.6497 39.2325 67.647 39.5643C67.647 39.7249 67.6794 39.8827 67.7435 40.0272C67.8077 40.1691 67.8988 40.2949 68.0108 40.4019C68.129 40.5116 68.268 40.5973 68.4179 40.6535C68.5731 40.7177 68.7391 40.7525 68.9072 40.7578V40.7551Z" fill="white"/>
<path d="M75.4586 40.932L75.279 41.0149C75.2014 41.0497 75.111 41.0845 75.0117 41.1166C74.8963 41.1541 74.7816 41.1862 74.6641 41.2103C74.5298 41.2371 74.3907 41.2504 74.2544 41.2504C74.1073 41.2504 73.9628 41.229 73.8238 41.1889C73.6921 41.1514 73.5693 41.0871 73.4647 40.9989C73.3607 40.9106 73.275 40.8008 73.219 40.6751C73.1542 40.5333 73.1225 40.378 73.1252 40.2228V36.3932H72.3867V35.8393H73.1252V34.033H73.8238V35.8393H75.0543V36.3932H73.8238V40.0274C73.8238 40.1987 73.9014 40.3592 74.035 40.4637C74.1606 40.5573 74.3131 40.6055 74.4711 40.6028C74.6533 40.6082 74.8376 40.576 75.0063 40.5065C75.1056 40.4663 75.2014 40.4208 75.2925 40.3673L75.4586 40.932Z" fill="white"/>
<path d="M79.0928 41.1889V33.8992H79.8231V41.1889H79.0928Z" fill="white"/>
<path d="M85.9779 41.1889H85.2799V38.1997C85.3144 37.7207 85.2151 37.2417 84.9958 36.8134C84.8061 36.5244 84.474 36.3612 84.1291 36.3826C83.9172 36.3826 83.7113 36.4228 83.5135 36.495C83.3076 36.5699 83.1146 36.677 82.9432 36.8134C82.7751 36.9553 82.6252 37.1212 82.499 37.3032C82.3654 37.4878 82.2634 37.6939 82.202 37.9133V41.1889H81.5034V35.8367H82.1406V37.0623C82.3627 36.6689 82.6867 36.3424 83.0802 36.1177C83.4838 35.8795 83.9469 35.7537 84.418 35.7591C84.6772 35.751 84.9344 35.8072 85.1672 35.9223C85.3704 36.0293 85.5391 36.1899 85.66 36.3853C85.7936 36.6101 85.8847 36.8562 85.9273 37.1132C85.9833 37.429 86.013 37.7474 86.0103 38.0686V41.1996L85.9779 41.1889Z" fill="white"/>
<path d="M89.9444 40.932L89.7649 41.0149C89.6872 41.0497 89.5968 41.0845 89.4976 41.1166C89.3821 41.1541 89.2674 41.1862 89.1499 41.2103C89.0156 41.2371 88.8766 41.2504 88.7402 41.2504C88.5931 41.2504 88.4486 41.229 88.3096 41.1889C88.178 41.1514 88.0551 41.0871 87.9505 40.9989C87.8466 40.9106 87.7608 40.8008 87.7048 40.6751C87.64 40.5333 87.6083 40.378 87.611 40.2228V36.3932H86.8726V35.8393H87.611V34.033H88.3096V35.8393H89.5401V36.3932H88.3096V40.0274C88.3096 40.1987 88.3872 40.3592 88.5209 40.4637C88.6464 40.5573 88.799 40.6055 88.9569 40.6028C89.1392 40.6082 89.3234 40.576 89.4922 40.5065C89.5914 40.4663 89.6872 40.4208 89.7784 40.3673L89.9444 40.932Z" fill="white"/>
<path d="M92.9735 41.2906C92.6043 41.2933 92.2405 41.2183 91.903 41.0685C91.5817 40.9267 91.2928 40.7206 91.0545 40.4637C90.8143 40.2041 90.6239 39.9044 90.4957 39.5752C90.362 39.2354 90.2918 38.8714 90.2945 38.5048C90.2918 38.1381 90.3593 37.7742 90.4957 37.4343C90.6239 37.1105 90.8116 36.8162 91.0492 36.5619C91.2901 36.3077 91.579 36.107 91.8976 35.9652C92.58 35.6708 93.3562 35.6708 94.0387 35.9652C94.3545 36.107 94.6407 36.3103 94.8763 36.5646C95.3555 37.0891 95.6201 37.7742 95.6147 38.4834V38.6466C95.6201 38.6841 95.6201 38.7215 95.6147 38.759H91.0228C91.039 39.0373 91.1085 39.3076 91.2233 39.5619C91.3306 39.7974 91.4778 40.0114 91.6593 40.1934C91.8335 40.37 92.042 40.5092 92.2695 40.6082C92.4997 40.7072 92.7515 40.7581 93.0032 40.7581C93.1767 40.7581 93.3508 40.734 93.5169 40.6858C93.6802 40.6403 93.8409 40.5734 93.988 40.4904C94.1325 40.4075 94.2634 40.3058 94.3788 40.1881C94.4909 40.073 94.582 39.9392 94.6461 39.792L95.2509 39.9553C95.1679 40.1533 95.0504 40.3353 94.9033 40.4904C94.7454 40.6537 94.5658 40.7955 94.368 40.9106C94.1615 41.031 93.9394 41.1193 93.7093 41.1783C93.4717 41.2478 93.2226 41.2852 92.9735 41.2906ZM94.9458 38.2318C94.9141 37.7047 94.6887 37.2069 94.314 36.8349C94.1406 36.6636 93.934 36.5271 93.7093 36.4335C93.4764 36.3371 93.228 36.2863 92.9762 36.2889C92.7218 36.2889 92.4734 36.3371 92.2378 36.4335C92.0103 36.5271 91.8045 36.6636 91.6276 36.8349C91.4481 37.0115 91.3063 37.2202 91.2071 37.4504C91.1004 37.6966 91.0363 37.9616 91.0174 38.2318H94.9458Z" fill="white"/>
<path d="M98.9173 41.261C98.5663 41.2664 98.2187 41.1861 97.9055 41.0309C97.6004 40.881 97.3277 40.6749 97.1029 40.4207C96.8782 40.1638 96.7013 39.8694 96.5832 39.5483C96.4603 39.2245 96.3989 38.8793 96.3989 38.5314C96.3989 38.1674 96.4576 37.8035 96.5785 37.4609C96.6905 37.1345 96.862 36.8347 97.0867 36.5725C97.3034 36.3209 97.5707 36.1148 97.8704 35.9677C98.1863 35.8151 98.5319 35.7375 98.8822 35.7428C99.3054 35.7322 99.7198 35.8526 100.073 36.0881C100.413 36.3209 100.705 36.6153 100.935 36.9551V35.8365H101.561V41.2101C101.567 41.5474 101.494 41.8845 101.35 42.1896C101.216 42.4653 101.023 42.7088 100.785 42.9041C100.539 43.1022 100.255 43.2467 99.9527 43.335C99.6233 43.4313 99.2838 43.4822 98.9409 43.4795C98.4245 43.5036 97.9109 43.3885 97.4532 43.1504C97.0813 42.9363 96.7654 42.6312 96.538 42.2672L96.9686 41.9274C97.1671 42.2565 97.4614 42.5214 97.8117 42.682C98.1654 42.8426 98.5508 42.9255 98.9409 42.9229C99.19 42.9229 99.4417 42.8881 99.68 42.8159C99.9021 42.7489 100.108 42.6419 100.29 42.4974C100.466 42.3529 100.608 42.1709 100.705 41.9621C100.812 41.7266 100.865 41.467 100.86 41.2075V40.137C100.654 40.4742 100.365 40.7526 100.017 40.9399C99.6854 41.1406 99.3054 41.2503 98.9173 41.261ZM99.1124 40.6749C99.3182 40.6749 99.5248 40.6375 99.7171 40.5626C99.9102 40.4903 100.089 40.3886 100.252 40.2602C100.408 40.1397 100.544 39.9952 100.659 39.8347C100.763 39.6901 100.836 39.5269 100.876 39.3529V37.6991C100.801 37.5064 100.697 37.3271 100.568 37.1639C100.443 37.0033 100.293 36.8615 100.127 36.7437C99.9608 36.6313 99.7813 36.5403 99.5916 36.4761C99.4093 36.4092 99.217 36.3744 99.0212 36.3744C98.7431 36.3691 98.4677 36.436 98.2187 36.5644C97.9858 36.6875 97.7826 36.8561 97.6193 37.0622C97.4532 37.2709 97.3277 37.5064 97.2447 37.7606C97.159 38.0202 97.1158 38.2905 97.1158 38.5635C97.1158 38.8445 97.1671 39.1228 97.271 39.385C97.3675 39.6366 97.512 39.8694 97.6969 40.0675C97.8758 40.2602 98.0904 40.418 98.328 40.5304C98.5744 40.6375 98.8451 40.6857 99.1124 40.6749Z" fill="white"/>
<path d="M105.782 36.4548C105.343 36.4575 104.912 36.594 104.55 36.8455C104.2 37.0944 103.94 37.453 103.812 37.8625V41.1889H103.106V35.8366H103.764V37.1212C103.943 36.7332 104.219 36.4013 104.567 36.1551C104.88 35.9303 105.252 35.8099 105.637 35.8072C105.683 35.8019 105.726 35.8019 105.771 35.8072V36.4441L105.782 36.4548Z" fill="white"/>
<path d="M108.075 41.2904C107.834 41.2904 107.596 41.2502 107.371 41.162C107.163 41.0816 106.97 40.9612 106.807 40.8087C106.48 40.5036 106.295 40.0754 106.298 39.6285C106.298 39.4011 106.352 39.1789 106.461 38.9809C106.577 38.7775 106.735 38.6009 106.924 38.4671C107.138 38.3145 107.379 38.2022 107.634 38.1326C107.928 38.0523 108.233 38.0122 108.538 38.0149C108.816 38.0149 109.095 38.0389 109.37 38.0871C109.628 38.1299 109.879 38.1968 110.12 38.2931V37.8114C110.141 37.3993 109.997 36.9925 109.718 36.6875C109.424 36.3985 109.022 36.2486 108.61 36.2727C108.321 36.2727 108.035 36.3316 107.767 36.4359C107.46 36.5563 107.165 36.7142 106.895 36.9069L106.649 36.444C107.235 36.0131 107.936 35.7696 108.661 35.7455C109.242 35.7134 109.815 35.9167 110.242 36.3101C110.641 36.7276 110.85 37.2923 110.818 37.8703V40.2788C110.791 40.41 110.877 40.5357 111.005 40.5625C111.032 40.5678 111.059 40.5678 111.086 40.5625V41.178C110.997 41.1967 110.909 41.2075 110.818 41.2101C110.668 41.2181 110.521 41.1726 110.403 41.0763C110.302 40.98 110.245 40.8461 110.245 40.707L110.224 40.2868C109.981 40.6053 109.662 40.8596 109.295 41.0255C108.913 41.2021 108.495 41.2904 108.075 41.2877V41.2904ZM108.238 40.7551C108.583 40.7578 108.924 40.6883 109.239 40.5491C109.515 40.4367 109.753 40.2521 109.932 40.0139C109.991 39.9577 110.039 39.8881 110.072 39.8132C110.101 39.749 110.114 39.6821 110.117 39.6125V38.7401C109.881 38.6491 109.638 38.5822 109.392 38.534C109.14 38.4859 108.883 38.4618 108.627 38.4618C108.203 38.443 107.786 38.55 107.425 38.7695C107.138 38.9354 106.965 39.2405 106.962 39.5723C106.962 39.7329 106.994 39.8908 107.058 40.0353C107.123 40.1772 107.213 40.3029 107.326 40.41C107.443 40.5196 107.58 40.6053 107.73 40.6615C107.89 40.7257 108.064 40.7578 108.238 40.7578V40.7551Z" fill="white"/>
<path d="M114.789 40.932L114.61 41.0149C114.533 41.0497 114.442 41.0845 114.342 41.1166C114.228 41.1541 114.112 41.1862 113.995 41.2103C113.858 41.2371 113.721 41.2504 113.582 41.2504C113.435 41.2504 113.291 41.229 113.152 41.1889C113.021 41.1514 112.897 41.0871 112.793 40.9989C112.689 40.9106 112.603 40.8008 112.547 40.6751C112.483 40.5333 112.453 40.378 112.456 40.2228V36.3932H111.717V35.8393H112.456V34.033H113.154V35.8393H114.385V36.3932H113.154V40.0274C113.154 40.1987 113.232 40.3592 113.366 40.4637C113.492 40.5573 113.644 40.6055 113.802 40.6028C113.984 40.6082 114.169 40.576 114.337 40.5065C114.436 40.4663 114.533 40.4208 114.624 40.3673L114.789 40.932Z" fill="white"/>
<path d="M115.662 34.7207V33.6931H116.36V34.7207H115.662ZM115.662 41.1889V35.8367H116.36V41.1889H115.662Z" fill="white"/>
<path d="M120.211 41.2905C119.842 41.2958 119.478 41.2182 119.141 41.0684C118.825 40.9265 118.541 40.7231 118.303 40.4689C118.065 40.212 117.88 39.9122 117.754 39.5858C117.623 39.2433 117.556 38.8819 117.559 38.5154C117.559 38.1487 117.626 37.7848 117.76 37.4449C117.889 37.1184 118.076 36.8187 118.314 36.5618C118.552 36.3076 118.836 36.1015 119.151 35.957C119.486 35.8017 119.853 35.7268 120.222 35.7322C120.591 35.7268 120.958 35.8044 121.292 35.957C121.611 36.1015 121.897 36.3076 122.136 36.5618C122.373 36.8187 122.561 37.1184 122.689 37.4449C122.823 37.7848 122.893 38.1487 122.89 38.5154C122.893 38.8819 122.826 39.2433 122.694 39.5858C122.569 39.9122 122.384 40.212 122.146 40.4689C121.908 40.7231 121.621 40.9265 121.303 41.0684C120.96 41.2209 120.586 41.2958 120.211 41.2905ZM118.271 38.5394C118.271 38.8258 118.322 39.1094 118.427 39.377C118.522 39.6259 118.664 39.8534 118.841 40.0541C119.012 40.2468 119.221 40.402 119.457 40.5117C119.692 40.6214 119.951 40.6776 120.211 40.675C120.474 40.675 120.73 40.6187 120.966 40.5064C121.201 40.394 121.413 40.2361 121.587 40.0434C121.766 39.8427 121.911 39.6125 122.007 39.361C122.213 38.8204 122.213 38.2236 122.007 37.683C121.911 37.4288 121.768 37.196 121.587 36.9953C121.413 36.8026 121.201 36.6447 120.966 36.5323C120.73 36.4199 120.474 36.3611 120.211 36.3637C119.951 36.3637 119.695 36.4199 119.462 36.5323C119.229 36.6474 119.018 36.8053 118.846 37.0006C118.664 37.204 118.522 37.4395 118.427 37.6938C118.322 37.964 118.269 38.2504 118.271 38.5394Z" fill="white"/>
<path d="M128.547 41.1889H127.848V38.1997C127.884 37.7207 127.787 37.2417 127.568 36.8134C127.377 36.5244 127.046 36.3612 126.7 36.3826C126.489 36.3826 126.283 36.4228 126.085 36.495C125.879 36.5699 125.687 36.677 125.515 36.8134C125.338 36.9553 125.18 37.1185 125.049 37.3032C124.916 37.4878 124.814 37.6939 124.752 37.9133V41.1889H124.054V35.8367H124.691V37.0623C124.913 36.6689 125.237 36.3424 125.63 36.1177C126.034 35.8795 126.497 35.7537 126.968 35.7591C127.227 35.751 127.485 35.8072 127.718 35.9223C127.921 36.0293 128.089 36.1899 128.21 36.3853C128.344 36.6101 128.435 36.8562 128.478 37.1132C128.534 37.429 128.563 37.7474 128.561 38.0686V41.1996L128.547 41.1889Z" fill="white"/>
<path d="M130.006 41.1888V40.1826H130.611V41.1888H130.006Z" fill="white"/>
<path d="M86.2217 12.1905H90.9021V8.80786H77.4497V12.1905H82.1597V28.9483H86.219V12.1905H86.2217ZM62.11 16.2046L70.4062 28.9456H74.3771V8.80786H70.3151V21.3669L62.0485 8.80786H58.0504V28.9456H62.1074V16.2046H62.11ZM54.0817 8.80786H50.0327V28.9483H54.0924V8.80786H54.0817Z" fill="white"/>
</g>
<path d="M46.5842 6.60638V39.9856C46.5842 43.6285 43.6277 46.585 39.9786 46.585H6.59944C2.95655 46.585 0 43.6285 0 39.9856V6.60638C0 2.95728 2.95655 0.000732422 6.59944 0.000732422H39.9786C43.6277 0.000732422 46.5842 2.95728 46.5842 6.60638Z" fill="#FBDA16"/>
<path opacity="0.5" d="M46.5922 26.0522V39.9872C46.5922 43.6301 43.6356 46.5865 39.9865 46.5865H24.2006L13.7922 35.6983C12.9645 35.0725 12.2176 34.3582 11.5173 33.5942C10.935 32.9607 10.435 32.2573 9.97844 31.5243C9.52971 30.8023 9.1337 30.0538 8.81227 29.2681C8.44737 28.3752 8.15078 27.4606 7.96138 26.5119C7.90232 26.2168 7.85885 25.9187 7.81539 25.6221V25.619C7.78434 25.4016 7.75484 25.1842 7.72069 24.9668C7.65859 24.5584 7.63368 24.1516 7.62437 23.7432V23.7401C7.6166 23.3861 7.62126 23.032 7.62437 22.678C7.63057 22.0351 7.72845 21.3954 7.83402 20.7618C7.88059 20.4792 7.93493 20.1981 7.99864 19.9202C8.20512 18.9839 8.49395 18.0739 8.87599 17.1919C9.12283 16.6189 9.41942 16.0692 9.72377 15.5226C10.0266 14.9807 10.376 14.4729 10.7487 13.9822C10.9754 13.6841 11.2098 13.3922 11.4458 13.1002C11.6555 12.8441 11.904 12.6204 12.1353 12.3829C12.303 12.212 12.4722 12.0397 12.6446 11.8735C12.8713 11.6546 13.1043 11.4434 13.3542 11.2524C13.966 10.7866 14.5747 10.3145 15.2534 9.93874C15.6338 9.72909 16.0049 9.50392 16.3962 9.31917C17.0174 9.02259 17.654 8.76015 18.3077 8.54119C18.3916 8.51324 18.4738 8.48685 18.5577 8.46201C18.9801 8.33005 19.4071 8.22131 19.8372 8.12506C20.2518 8.03191 20.6727 7.96509 21.0935 7.9061C21.2161 7.89057 21.3373 7.8735 21.4599 7.85797C22.2084 7.76017 22.9615 7.75706 23.7146 7.7788C24.7379 7.80984 25.7456 7.95422 26.7395 8.19803C26.7783 8.20889 26.8342 8.20734 26.859 8.23839L29.9864 11.5071C30.2908 11.4294 30.6075 11.3875 30.9336 11.3875C32.2023 11.386 33.3219 11.9823 34.0268 12.917H34.0299L45.8701 25.3022L45.9166 25.3519H45.9213L46.5922 26.0522Z" fill="url(#paint0_linear_4616_1749)"/>
<path d="M34.8063 15.2913C34.8016 17.3534 33.0781 19.1267 30.9336 19.1127C28.8591 19.1174 27.0935 17.4062 27.0889 15.268C27.0842 13.1034 28.8311 11.3906 30.9259 11.386C33.0858 11.3829 34.811 13.1158 34.8047 15.2913H34.8063Z" fill="white"/>
<path d="M38.6787 23.6221C38.6709 24.5351 38.57 25.4389 38.3914 26.3348C38.1927 27.3318 37.8899 28.2945 37.511 29.2386C37.2641 29.8566 36.9613 30.4452 36.6367 31.0213C36.1942 31.8038 35.6818 32.5414 35.0948 33.2262C34.7097 33.6766 34.3216 34.1253 33.8883 34.5306C33.2408 35.1346 32.5607 35.6967 31.8215 36.1936C31.0405 36.7185 30.2206 37.1672 29.3634 37.5477C28.4814 37.9375 27.5699 38.2418 26.6258 38.4498C26.1584 38.5524 25.6864 38.6145 25.2174 38.6983C24.3184 38.8583 23.4146 38.8552 22.5109 38.835C21.6491 38.8148 20.795 38.6952 19.9534 38.5198C18.7577 38.2713 17.6024 37.8785 16.5031 37.3474C15.7282 36.9747 14.9875 36.5399 14.2748 36.0508C13.2484 35.3458 12.3462 34.5026 11.5092 33.5927C10.9269 32.9591 10.4254 32.2557 9.97038 31.5228C9.52166 30.8007 9.12409 30.0523 8.80266 29.2666C8.43777 28.3737 8.14273 27.4591 7.95327 26.5103C7.8508 25.9963 7.79181 25.4792 7.71263 24.9638C7.59613 24.2028 7.6101 23.4389 7.61631 22.6749C7.62252 22.032 7.71884 21.3923 7.82596 20.7587C8.03096 19.5289 8.37256 18.3348 8.86787 17.1888C9.11478 16.6158 9.41136 16.0661 9.71571 15.5211C10.2018 14.6469 10.812 13.8674 11.4378 13.0971C11.6474 12.841 11.8958 12.6174 12.1272 12.3798C12.5139 11.9838 12.9052 11.5863 13.3446 11.2493C13.9564 10.7819 14.5667 10.3099 15.2452 9.93566C15.6242 9.72601 15.9953 9.50083 16.3866 9.31609C17.0077 9.02105 17.6443 8.75707 18.2981 8.5381C18.8012 8.37044 19.3136 8.23686 19.8276 8.12042C20.3617 7.99933 20.9068 7.92475 21.4503 7.85333C22.1988 7.75553 22.9519 7.75242 23.705 7.77416C24.7283 7.80521 25.736 7.94958 26.7299 8.19339C26.7811 8.20581 26.8634 8.20115 26.8634 8.27412C26.8634 8.33473 26.7904 8.35336 26.7407 8.3813C26.0714 8.75707 25.5015 9.25244 24.9892 9.81767C24.573 10.2773 24.2034 10.7695 23.9099 11.3176C23.6382 11.8254 23.3913 12.341 23.2453 12.8984C23.191 13.1049 23.09 13.1671 22.882 13.1717C21.3199 13.1981 19.8494 13.5816 18.4596 14.3052C17.4705 14.8208 16.5916 15.4761 15.826 16.2789C15.0139 17.1283 14.3633 18.0895 13.8788 19.164C13.4472 20.1221 13.1863 21.1252 13.0651 22.1593C12.9549 23.0988 12.9797 24.0398 13.1475 24.9793C13.3167 25.9203 13.5822 26.8271 13.9968 27.6889C14.5449 28.8272 15.2826 29.8318 16.1987 30.6952C16.7359 31.2029 17.3245 31.6455 17.9689 32.0212C18.5496 32.3597 19.149 32.6532 19.778 32.8784C20.2096 33.0336 20.6552 33.1424 21.1056 33.2371C21.9286 33.4126 22.7608 33.4545 23.5978 33.4343C24.3789 33.4157 25.1413 33.2697 25.8945 33.0694C26.6258 32.8753 27.3199 32.5865 27.9814 32.2278C28.5684 31.9079 29.1258 31.5384 29.6382 31.102C30.3805 30.47 31.0342 29.7635 31.5808 28.956C31.6181 28.9001 31.688 28.8473 31.6398 28.7712C31.5948 28.7013 31.514 28.7231 31.4457 28.7231C30.8898 28.7215 30.3354 28.7215 29.7796 28.7215C27.6724 28.7215 25.5653 28.7215 23.4581 28.7215C23.1693 28.7215 23.1693 28.7215 23.1693 28.4358V23.5895C23.1693 23.3271 23.1724 23.3224 23.4379 23.3224H38.3775C38.6787 23.3224 38.6818 23.3224 38.6787 23.6159V23.6221Z" fill="white"/>
<path d="M34.8063 15.2913C34.8016 17.3534 33.078 19.1267 30.9336 19.1127C28.859 19.1174 27.0935 17.4062 27.0889 15.268C27.0842 13.1034 28.8311 11.3906 30.9258 11.386C33.0858 11.3829 34.811 13.1158 34.8047 15.2913H34.8063Z" fill="white"/>
<path d="M38.6787 23.6221C38.6709 24.5351 38.57 25.4389 38.3914 26.3348C38.1927 27.3318 37.8899 28.2945 37.511 29.2386C37.2641 29.8566 36.9613 30.4452 36.6367 31.0213C36.1942 31.8038 35.6818 32.5414 35.0948 33.2262C34.7097 33.6766 34.3216 34.1253 33.8883 34.5306C33.2408 35.1346 32.5607 35.6967 31.8215 36.1936C31.0405 36.7185 30.2206 37.1672 29.3634 37.5477C28.4814 37.9375 27.5699 38.2418 26.6258 38.4498C26.1584 38.5524 25.6864 38.6145 25.2174 38.6983C24.3184 38.8583 23.4146 38.8552 22.5109 38.835C21.6491 38.8148 20.795 38.6952 19.9534 38.5198C18.7577 38.2713 17.6024 37.8785 16.5031 37.3474C15.7282 36.9747 14.9875 36.5399 14.2748 36.0508C13.2484 35.3458 12.3462 34.5026 11.5092 33.5927C10.9269 32.9591 10.4254 32.2557 9.97038 31.5228C9.52166 30.8007 9.12409 30.0523 8.80266 29.2666C8.43777 28.3737 8.14273 27.4591 7.95327 26.5103C7.8508 25.9963 7.79181 25.4792 7.71263 24.9638C7.59613 24.2028 7.6101 23.4389 7.61631 22.6749C7.62252 22.032 7.71884 21.3923 7.82596 20.7587C8.03096 19.5289 8.37256 18.3348 8.86787 17.1888C9.11478 16.6158 9.41136 16.0661 9.71571 15.5211C10.2018 14.6469 10.812 13.8674 11.4378 13.0971C11.6474 12.841 11.8958 12.6174 12.1272 12.3798C12.5139 11.9838 12.9052 11.5863 13.3446 11.2493C13.9564 10.7819 14.5667 10.3099 15.2452 9.93566C15.6242 9.72601 15.9953 9.50083 16.3866 9.31609C17.0077 9.02105 17.6443 8.75707 18.2981 8.5381C18.8012 8.37044 19.3136 8.23686 19.8276 8.12042C20.3617 7.99933 20.9068 7.92475 21.4503 7.85333C22.1988 7.75553 22.9519 7.75242 23.705 7.77416C24.7283 7.80521 25.736 7.94958 26.7299 8.19339C26.7811 8.20581 26.8634 8.20115 26.8634 8.27412C26.8634 8.33473 26.7904 8.35336 26.7407 8.3813C26.0714 8.75707 25.5015 9.25244 24.9892 9.81767C24.573 10.2773 24.2034 10.7695 23.9099 11.3176C23.6382 11.8254 23.3913 12.341 23.2453 12.8984C23.191 13.1049 23.09 13.1671 22.882 13.1717C21.3199 13.1981 19.8494 13.5816 18.4596 14.3052C17.4705 14.8208 16.5916 15.4761 15.826 16.2789C15.0139 17.1283 14.3633 18.0895 13.8788 19.164C13.4472 20.1221 13.1863 21.1252 13.0651 22.1593C12.9549 23.0988 12.9797 24.0398 13.1475 24.9793C13.3167 25.9203 13.5822 26.8271 13.9968 27.6889C14.5449 28.8272 15.2826 29.8318 16.1987 30.6952C16.7359 31.2029 17.3245 31.6455 17.9689 32.0212C18.5496 32.3597 19.149 32.6532 19.778 32.8784C20.2096 33.0336 20.6552 33.1424 21.1056 33.2371C21.9286 33.4126 22.7608 33.4545 23.5978 33.4343C24.3789 33.4157 25.1413 33.2697 25.8945 33.0694C26.6258 32.8753 27.3199 32.5865 27.9814 32.2278C28.5684 31.9079 29.1258 31.5384 29.6382 31.102C30.3805 30.47 31.0342 29.7635 31.5808 28.956C31.6181 28.9001 31.688 28.8473 31.6398 28.7712C31.5948 28.7013 31.514 28.7231 31.4457 28.7231C30.8898 28.7215 30.3354 28.7215 29.7796 28.7215C27.6724 28.7215 25.5653 28.7215 23.4581 28.7215C23.1693 28.7215 23.1693 28.7215 23.1693 28.4358V23.5895C23.1693 23.3271 23.1724 23.3224 23.4379 23.3224H38.3775C38.6787 23.3224 38.6818 23.3224 38.6787 23.6159V23.6221Z" fill="white"/>
<path d="M38.6787 23.6221C38.6709 24.5351 38.57 25.4389 38.3914 26.3348C38.1927 27.3318 37.8899 28.2945 37.511 29.2386C37.2641 29.8566 36.9613 30.4452 36.6367 31.0213C36.1942 31.8038 35.6818 32.5414 35.0948 33.2262C34.7097 33.6766 34.3216 34.1253 33.8883 34.5306C33.2408 35.1346 32.5607 35.6967 31.8215 36.1936C31.0405 36.7185 30.2206 37.1672 29.3634 37.5477C28.4814 37.9375 27.5699 38.2418 26.6258 38.4498C26.1584 38.5524 25.6864 38.6145 25.2174 38.6983C24.3184 38.8583 23.4146 38.8552 22.5109 38.835C21.6491 38.8148 20.795 38.6952 19.9534 38.5198C18.7577 38.2713 17.6024 37.8785 16.5031 37.3474C15.7282 36.9747 14.9875 36.5399 14.2748 36.0508C13.2484 35.3458 12.3462 34.5026 11.5092 33.5927C10.9269 32.9591 10.4254 32.2557 9.97038 31.5228C9.52166 30.8007 9.12409 30.0523 8.80266 29.2666C8.43777 28.3737 8.14273 27.4591 7.95327 26.5103C7.8508 25.9963 7.79181 25.4792 7.71263 24.9638C7.59613 24.2028 7.6101 23.4389 7.61631 22.6749C7.62252 22.032 7.71884 21.3923 7.82596 20.7587C8.03096 19.5289 8.37256 18.3348 8.86787 17.1888C9.11478 16.6158 9.41136 16.0661 9.71571 15.5211C10.2018 14.6469 10.812 13.8674 11.4378 13.0971C11.6474 12.841 11.8958 12.6174 12.1272 12.3798C12.5139 11.9838 12.9052 11.5863 13.3446 11.2493C13.9564 10.7819 14.5667 10.3099 15.2452 9.93566C15.6242 9.72601 15.9953 9.50083 16.3866 9.31609C17.0077 9.02105 17.6443 8.75707 18.2981 8.5381C18.8012 8.37044 19.3136 8.23686 19.8276 8.12042C20.3617 7.99933 20.9068 7.92475 21.4503 7.85333C22.1988 7.75553 22.9519 7.75242 23.705 7.77416C24.7283 7.80521 25.736 7.94958 26.7299 8.19339C26.7811 8.20581 26.8634 8.20115 26.8634 8.27412C26.8634 8.33473 26.7904 8.35336 26.7407 8.3813C26.0714 8.75707 25.5015 9.25244 24.9892 9.81767C24.573 10.2773 24.2034 10.7695 23.9099 11.3176C23.6382 11.8254 23.3913 12.341 23.2453 12.8984C23.191 13.1049 23.09 13.1671 22.882 13.1717C21.3199 13.1981 19.8494 13.5816 18.4596 14.3052C17.4705 14.8208 16.5916 15.4761 15.826 16.2789C15.0139 17.1283 14.3633 18.0895 13.8788 19.164C13.4472 20.1221 13.1863 21.1252 13.0651 22.1593C12.9549 23.0988 12.9797 24.0398 13.1475 24.9793C13.3167 25.9203 13.5822 26.8271 13.9968 27.6889C14.5449 28.8272 15.2826 29.8318 16.1987 30.6952C16.7359 31.2029 17.3245 31.6455 17.9689 32.0212C18.5496 32.3597 19.149 32.6532 19.778 32.8784C20.2096 33.0336 20.6552 33.1424 21.1056 33.2371C21.9286 33.4126 22.7608 33.4545 23.5978 33.4343C24.3789 33.4157 25.1413 33.2697 25.8945 33.0694C26.6258 32.8753 27.3199 32.5865 27.9814 32.2278C28.5684 31.9079 29.1258 31.5384 29.6382 31.102C30.3805 30.47 31.0342 29.7635 31.5808 28.956C31.6181 28.9001 31.688 28.8473 31.6398 28.7712C31.5948 28.7013 31.514 28.7231 31.4457 28.7231C30.8898 28.7215 30.3354 28.7215 29.7796 28.7215C27.6724 28.7215 25.5653 28.7215 23.4581 28.7215C23.1693 28.7215 23.1693 28.7215 23.1693 28.4358V23.5895C23.1693 23.3271 23.1724 23.3224 23.4379 23.3224H38.3775C38.6787 23.3224 38.6818 23.3224 38.6787 23.6159V23.6221Z" fill="white"/>
<path d="M34.8063 15.2913C34.8016 17.3534 33.078 19.1267 30.9336 19.1127C28.859 19.1174 27.0935 17.4062 27.0889 15.268C27.0842 13.1034 28.8311 11.3906 30.9258 11.386C33.0858 11.3829 34.811 13.1158 34.8047 15.2913H34.8063Z" fill="white"/>
</g>
</g>
<defs>
<linearGradient id="paint0_linear_4616_1749" x1="7.61971" y1="27.178" x2="46.5922" y2="27.178" gradientUnits="userSpaceOnUse">
<stop stop-color="#CE810F"/>
<stop offset="0.41" stop-color="#CF8511" stop-opacity="0.59"/>
<stop offset="0.74" stop-color="#D18F08" stop-opacity="0.26"/>
<stop offset="1" stop-color="#D49D05" stop-opacity="0"/>
</linearGradient>
<clipPath id="clip0_4616_1749">
<rect width="200.47" height="54" fill="white"/>
</clipPath>
<clipPath id="clip1_4616_1749">
<rect width="200.47" height="53.9987" fill="white" transform="translate(0 0.000732422)"/>
</clipPath>
</defs>
</svg>
