<svg width="400" height="400" viewBox="0 0 400 400" fill="none" xmlns="http://www.w3.org/2000/svg">
<path d="M399.933 56.72V343.387C399.912 358.413 393.927 372.817 383.293 383.433C372.66 394.048 358.247 400.007 343.223 400H56.6572C41.633 399.993 27.2261 394.02 16.6023 383.395C5.97856 372.769 0.00706526 358.36 0 343.333V56.6667C0.00706526 41.6399 5.97856 27.2306 16.6023 16.6051C27.2261 5.97956 41.633 0.00706643 56.6572 0L343.276 0C358.309 0.010605 372.721 5.99155 383.346 16.6278C393.971 27.2641 399.937 41.6851 399.933 56.72Z" fill="#FBDA16"/>
<path opacity="0.5" d="M400 223.693V343.347C399.989 358.38 394.009 372.794 383.374 383.418C372.739 394.043 358.321 400.007 343.289 400H207.765L118.447 306.507C111.403 301.089 104.866 295.042 98.9168 288.44C93.9568 282.941 89.5206 276.99 85.6657 270.667C77.3802 257.463 71.5118 242.889 68.3353 227.627C67.8287 225.093 67.4554 222.533 67.0821 219.987C66.8155 218.12 66.5622 216.253 66.2689 214.387C65.7685 210.906 65.4924 207.396 65.4424 203.88C65.3757 200.84 65.4424 197.8 65.4424 194.76C65.6153 189.237 66.217 183.736 67.2421 178.307C67.642 175.88 68.1131 173.471 68.6552 171.08C70.4115 163.053 72.9338 155.212 76.1873 147.667C78.3745 142.769 80.8084 137.985 83.4794 133.333C86.095 128.687 89.0352 124.232 92.2779 120C94.2243 117.44 96.2773 114.933 98.2636 112.427C100.063 110.227 102.263 108.307 104.183 106.267C105.622 104.8 107.075 103.32 108.555 101.893C110.481 99.9995 112.516 98.2188 114.648 96.56C119.803 92.4277 125.252 88.6756 130.951 85.3333C134.218 83.5333 137.404 81.6 140.763 80C146.092 77.4451 151.573 75.2187 157.174 73.3333C157.894 73.0933 158.6 72.8667 159.32 72.6533C162.946 71.52 166.612 70.5867 170.305 69.76C173.998 68.9333 177.477 68.4267 181.09 67.88L184.236 67.4667C190.66 66.727 197.133 66.4996 203.593 66.7867C212.352 67.07 221.056 68.2767 229.562 70.3867C229.895 70.48 230.375 70.4667 230.588 70.7333L257.437 98.7333C263.765 97.1353 270.423 97.4306 276.585 99.5828C282.746 101.735 288.14 105.649 292.098 110.84L393.748 217.187L394.148 217.613L400 223.693Z" fill="url(#paint0_linear_216_381)"/>
<path d="M298.817 131.293C298.738 137.82 296.733 144.179 293.054 149.57C289.375 154.962 284.186 159.146 278.138 161.599C272.089 164.051 265.452 164.662 259.057 163.355C252.663 162.048 246.798 158.881 242.197 154.251C237.596 149.622 234.464 143.736 233.196 137.333C231.927 130.931 232.577 124.295 235.066 118.261C237.554 112.226 241.769 107.061 247.181 103.414C252.594 99.7669 258.963 97.7999 265.489 97.76C269.886 97.7475 274.242 98.6078 278.304 100.291C282.366 101.974 286.054 104.447 289.154 107.566C292.254 110.685 294.704 114.388 296.363 118.461C298.022 122.534 298.856 126.896 298.817 131.293Z" fill="white"/>
<path d="M332.065 202.827C331.984 210.656 331.158 218.46 329.598 226.133C327.855 234.66 325.325 243.007 322.04 251.067C319.878 256.329 317.37 261.442 314.534 266.373C310.734 273.103 306.297 279.452 301.283 285.333C298.037 289.253 294.579 292.992 290.925 296.533C285.399 301.757 279.465 306.532 273.181 310.813C266.503 315.295 259.446 319.185 252.091 322.44C244.533 325.802 236.654 328.393 228.575 330.173C224.576 331.053 220.577 331.6 216.484 332.32C208.797 333.483 201.013 333.876 193.248 333.493C185.863 333.273 178.514 332.381 171.291 330.827C161.044 328.691 151.096 325.311 141.67 320.76C135.021 317.543 128.625 313.826 122.54 309.64C113.851 303.522 105.886 296.436 98.7968 288.52C93.8471 282.996 89.4283 277.019 85.599 270.667C77.2956 257.477 71.4257 242.904 68.2686 227.64C67.3887 223.227 66.9355 218.787 66.2023 214.307C65.4057 207.792 65.1338 201.225 65.3891 194.667C65.5622 189.14 66.1639 183.634 67.1888 178.2C68.9146 167.654 71.9138 157.357 76.1206 147.533C78.3144 142.682 80.7481 137.943 83.4127 133.333C87.7191 125.957 92.6663 118.975 98.197 112.467C99.9967 110.267 102.196 108.347 104.116 106.307C107.387 102.824 110.907 99.5847 114.648 96.6134C119.777 92.4613 125.204 88.6912 130.885 85.3334C134.151 83.5467 137.324 81.6 140.697 80C146.028 77.4508 151.508 75.2245 157.107 73.3334C161.42 71.9168 165.803 70.7241 170.238 69.76C174.824 68.72 179.57 68.08 184.169 67.4667C190.593 66.727 197.066 66.4996 203.526 66.7867C212.286 67.0679 220.991 68.2791 229.495 70.4C229.935 70.5067 230.642 70.4 230.642 71.0934C230.642 71.7867 230.002 71.7734 229.575 72.0134C223.926 75.2807 218.847 79.4463 214.538 84.3467C210.943 88.2415 207.841 92.5627 205.299 97.2134C202.866 101.495 200.95 106.052 199.593 110.787C199.546 111.147 199.427 111.495 199.244 111.809C199.061 112.123 198.817 112.397 198.526 112.615C198.236 112.834 197.905 112.992 197.552 113.081C197.2 113.17 196.833 113.188 196.474 113.133C183.229 113.346 170.221 116.681 158.507 122.867C150.066 127.22 142.407 132.947 135.844 139.813C128.9 147.057 123.246 155.436 119.127 164.587C115.493 172.751 113.136 181.426 112.141 190.307C111.183 198.369 111.422 206.528 112.848 214.52C114.211 222.571 116.665 230.398 120.14 237.787C124.795 247.488 131.204 256.244 139.043 263.613C143.658 267.972 148.752 271.792 154.228 275C159.167 277.926 164.366 280.389 169.758 282.36C173.488 283.646 177.301 284.68 181.17 285.453C188.189 286.853 195.348 287.417 202.5 287.133C209.177 286.872 215.8 285.82 222.23 284C228.464 282.314 234.475 279.888 240.133 276.773C245.198 274.049 249.965 270.805 254.358 267.093C260.723 261.741 266.329 255.546 271.021 248.68C271.355 248.2 271.955 247.747 271.528 247.08C271.101 246.413 270.448 246.667 269.862 246.667H201.393C198.914 246.667 198.9 246.667 198.9 244.227V202.667C198.9 200.4 198.9 200.373 201.22 200.373H329.478C332.065 200.307 332.091 200.32 332.065 202.827Z" fill="white"/>
<path d="M332.065 202.827C331.984 210.656 331.158 218.46 329.598 226.133C327.855 234.66 325.325 243.007 322.04 251.067C319.878 256.329 317.37 261.442 314.534 266.373C310.734 273.103 306.297 279.452 301.283 285.333C298.037 289.253 294.579 292.992 290.925 296.533C285.399 301.757 279.465 306.532 273.181 310.813C266.503 315.295 259.446 319.185 252.091 322.44C244.533 325.802 236.654 328.393 228.575 330.173C224.576 331.053 220.577 331.6 216.484 332.32C208.797 333.483 201.013 333.876 193.248 333.493C185.863 333.273 178.514 332.381 171.291 330.827C161.044 328.691 151.096 325.311 141.67 320.76C135.021 317.543 128.625 313.826 122.54 309.64C113.851 303.522 105.886 296.436 98.7968 288.52C93.8471 282.996 89.4283 277.019 85.599 270.667C77.2956 257.477 71.4257 242.904 68.2686 227.64C67.3887 223.227 66.9355 218.787 66.2023 214.307C65.4057 207.792 65.1338 201.225 65.3891 194.667C65.5622 189.14 66.1639 183.634 67.1888 178.2C68.9146 167.654 71.9138 157.357 76.1206 147.533C78.3144 142.682 80.7481 137.943 83.4127 133.333C87.7191 125.957 92.6663 118.975 98.197 112.467C99.9967 110.267 102.196 108.347 104.116 106.307C107.387 102.824 110.907 99.5847 114.648 96.6134C119.777 92.4613 125.204 88.6912 130.885 85.3334C134.151 83.5467 137.324 81.6 140.697 80C146.028 77.4508 151.508 75.2245 157.107 73.3334C161.42 71.9168 165.803 70.7241 170.238 69.76C174.824 68.72 179.57 68.08 184.169 67.4667C190.593 66.727 197.066 66.4996 203.526 66.7867C212.286 67.0679 220.991 68.2791 229.495 70.4C229.935 70.5067 230.642 70.4 230.642 71.0934C230.642 71.7867 230.002 71.7734 229.575 72.0134C223.926 75.2807 218.847 79.4463 214.538 84.3467C210.943 88.2415 207.841 92.5627 205.299 97.2134C202.866 101.495 200.95 106.052 199.593 110.787C199.546 111.147 199.427 111.495 199.244 111.809C199.061 112.123 198.817 112.397 198.526 112.615C198.236 112.834 197.905 112.992 197.552 113.081C197.2 113.17 196.833 113.188 196.474 113.133C183.229 113.346 170.221 116.681 158.507 122.867C150.066 127.22 142.407 132.947 135.844 139.813C128.9 147.057 123.246 155.436 119.127 164.587C115.493 172.751 113.136 181.426 112.141 190.307C111.183 198.369 111.422 206.528 112.848 214.52C114.211 222.571 116.665 230.398 120.14 237.787C124.795 247.488 131.204 256.244 139.043 263.613C143.658 267.972 148.752 271.792 154.228 275C159.167 277.926 164.366 280.389 169.758 282.36C173.488 283.646 177.301 284.68 181.17 285.453C188.189 286.853 195.348 287.417 202.5 287.133C209.177 286.872 215.8 285.82 222.23 284C228.464 282.314 234.475 279.888 240.133 276.773C245.198 274.049 249.965 270.805 254.358 267.093C260.723 261.741 266.329 255.546 271.021 248.68C271.355 248.2 271.955 247.747 271.528 247.08C271.101 246.413 270.448 246.667 269.862 246.667H201.393C198.914 246.667 198.9 246.667 198.9 244.227V202.667C198.9 200.4 198.9 200.373 201.22 200.373H329.478C332.065 200.307 332.091 200.32 332.065 202.827Z" fill="white"/>
<path d="M298.817 131.293C298.738 137.82 296.733 144.179 293.054 149.57C289.375 154.962 284.186 159.146 278.138 161.599C272.089 164.051 265.452 164.662 259.057 163.355C252.663 162.048 246.798 158.881 242.197 154.251C237.596 149.622 234.464 143.736 233.196 137.333C231.927 130.931 232.577 124.295 235.066 118.261C237.554 112.226 241.769 107.061 247.181 103.414C252.594 99.7669 258.963 97.7999 265.489 97.76C269.886 97.7475 274.242 98.6078 278.304 100.291C282.366 101.974 286.054 104.447 289.154 107.566C292.254 110.685 294.704 114.388 296.363 118.461C298.022 122.534 298.856 126.896 298.817 131.293Z" fill="white"/>
<defs>
<linearGradient id="paint0_linear_216_381" x1="65.4157" y1="233.36" x2="400" y2="233.36" gradientUnits="userSpaceOnUse">
<stop stop-color="#CE810F"/>
<stop offset="0.41" stop-color="#CF8511" stop-opacity="0.50"/>
<stop offset="0.74" stop-color="#D18F08" stop-opacity="0.26"/>
<stop offset="1" stop-color="#D49D05" stop-opacity="0"/>
</linearGradient>
</defs>
</svg>
