<svg width="332" height="80" viewBox="0 0 332 80" fill="none" xmlns="http://www.w3.org/2000/svg">
<g clip-path="url(#clip0_2078_41)">
<path d="M96.4944 69.2671C95.4964 70.473 94.0179 71.1799 92.4516 71.1984C91.6385 71.2076 90.8299 71.0182 90.1045 70.6486C89.4023 70.2882 88.7739 69.7938 88.2564 69.1932C87.7297 68.5879 87.3093 67.8949 87.0228 67.1464C86.7225 66.3979 86.5654 65.6032 86.5608 64.7993C86.5608 63.9769 86.704 63.1591 86.9951 62.3875C87.2723 61.6437 87.6835 60.9552 88.2102 60.3592C88.7277 59.7817 89.3561 59.3104 90.0583 58.9731C90.7791 58.622 91.5692 58.4464 92.3685 58.4511C92.9368 58.4464 93.5004 58.5157 94.0502 58.6544C94.5261 58.7791 94.9835 58.9685 95.4086 59.2226C95.7967 59.4583 96.1432 59.7494 96.4389 60.0913C96.73 60.4285 96.9749 60.8028 97.1736 61.2001L96.231 61.8192C95.8753 61.0985 95.3116 60.5025 94.6185 60.1005C93.9301 59.7263 93.1539 59.5368 92.3685 59.5507C91.7124 59.5507 91.0609 59.7032 90.4788 60.0127C89.9243 60.3038 89.4346 60.7011 89.0419 61.1909C88.6353 61.6899 88.3211 62.2628 88.1178 62.8727C87.9053 63.5056 87.799 64.1663 87.799 64.8317C87.799 65.5201 87.9192 66.2039 88.164 66.8507C88.3904 67.4652 88.7323 68.0335 89.1666 68.5279C89.5871 69.0038 90.0953 69.3872 90.6636 69.6691C91.2365 69.9509 91.8695 70.0988 92.5117 70.0941C93.2325 70.0941 93.9394 69.9232 94.577 69.5905C95.3116 69.1886 95.9538 68.6434 96.4666 67.9873V65.8805H93.6899V64.9102H97.5386V71.0967H96.4944V69.2486V69.2671Z" fill="#1D1D1B"/>
<path d="M104.663 62.9373C103.901 62.942 103.161 63.1776 102.538 63.6119C101.932 64.0416 101.484 64.6607 101.262 65.3676V71.1106H100.057V61.8701H101.193V64.0878C101.503 63.4179 101.979 62.8449 102.579 62.4199C103.12 62.0318 103.762 61.8239 104.427 61.8192C104.506 61.81 104.58 61.81 104.658 61.8192V62.9373H104.663Z" fill="#1D1D1B"/>
<path d="M109.912 71.2862C109.274 71.2908 108.646 71.1614 108.064 70.9027C107.509 70.6578 107.01 70.302 106.599 69.8585C106.183 69.4103 105.855 68.8929 105.633 68.3246C105.402 67.7378 105.282 67.1094 105.287 66.4765C105.282 65.8435 105.398 65.2151 105.633 64.6284C105.855 64.0693 106.178 63.5611 106.59 63.1221C107.005 62.6832 107.504 62.3367 108.054 62.0918C109.232 61.5836 110.572 61.5836 111.751 62.0918C112.296 62.3367 112.79 62.6878 113.197 63.1268C114.024 64.0323 114.476 65.2151 114.472 66.4395V66.7213C114.481 66.786 114.481 66.8507 114.472 66.9154H106.543C106.571 67.3959 106.691 67.8625 106.89 68.3015C107.075 68.7081 107.329 69.0777 107.643 69.3919C107.943 69.6968 108.304 69.9371 108.697 70.108C109.094 70.279 109.528 70.3667 109.962 70.3667C110.263 70.3667 110.563 70.3252 110.85 70.242C111.131 70.1634 111.409 70.0479 111.663 69.9047C111.912 69.7615 112.139 69.5859 112.337 69.3826C112.531 69.1839 112.688 68.9529 112.799 68.6988L113.843 68.9807C113.7 69.3226 113.497 69.6367 113.243 69.9047C112.97 70.1865 112.661 70.4314 112.319 70.6301C111.963 70.838 111.58 70.9905 111.182 71.0921C110.771 71.2122 110.341 71.2769 109.912 71.2862ZM113.326 66.0052C113.271 65.095 112.882 64.2356 112.236 63.5934C111.935 63.2977 111.58 63.0621 111.191 62.9004C110.789 62.734 110.36 62.6463 109.926 62.6509C109.487 62.6509 109.057 62.734 108.65 62.9004C108.258 63.0621 107.902 63.2977 107.597 63.5934C107.287 63.8984 107.042 64.2587 106.872 64.6561C106.687 65.0811 106.576 65.5386 106.543 66.0052H113.326Z" fill="#1D1D1B"/>
<path d="M118.686 71.2862C118.27 71.2862 117.858 71.2169 117.47 71.0644C117.11 70.9258 116.777 70.7179 116.496 70.4545C115.932 69.9278 115.613 69.1886 115.618 68.417C115.618 68.0243 115.71 67.6408 115.9 67.2989C116.098 66.9477 116.371 66.6428 116.699 66.4118C117.068 66.1484 117.484 65.9544 117.923 65.8343C118.431 65.6956 118.958 65.6263 119.485 65.631C119.965 65.631 120.446 65.6725 120.922 65.7557C121.365 65.8296 121.8 65.9451 122.215 66.1115V65.2798C122.252 64.5683 122.003 63.866 121.522 63.3393C121.014 62.8403 120.321 62.5816 119.61 62.6232C119.111 62.6232 118.616 62.7248 118.154 62.905C117.623 63.1129 117.115 63.3855 116.648 63.7182L116.223 62.9189C117.235 62.175 118.445 61.7546 119.697 61.713C120.7 61.6575 121.689 62.0087 122.428 62.6878C123.116 63.4086 123.477 64.3835 123.421 65.3815V69.5397C123.375 69.7661 123.523 69.9833 123.745 70.0295C123.791 70.0387 123.837 70.0387 123.883 70.0295V71.0921C123.731 71.1245 123.578 71.1429 123.421 71.1476C123.163 71.1614 122.908 71.0829 122.705 70.9166C122.53 70.7502 122.433 70.5192 122.433 70.279L122.396 69.5536C121.975 70.1034 121.425 70.5423 120.792 70.8288C120.132 71.1337 119.411 71.2862 118.686 71.2815V71.2862ZM118.967 70.3621C119.573 70.3667 120.169 70.242 120.718 69.9925C121.194 69.7984 121.606 69.4796 121.915 69.0684C122.017 68.9714 122.1 68.8513 122.155 68.7219C122.206 68.611 122.229 68.4955 122.234 68.3754V66.8692C121.827 66.7121 121.411 66.5966 120.986 66.5134C120.552 66.4303 120.109 66.3887 119.665 66.3887C118.935 66.3563 118.214 66.5411 117.591 66.92C117.096 67.2065 116.796 67.7332 116.791 68.3061C116.791 68.5833 116.847 68.8559 116.958 69.1054C117.068 69.3503 117.226 69.5674 117.42 69.7522C117.623 69.9417 117.863 70.0895 118.122 70.1865C118.39 70.2974 118.676 70.3575 118.967 70.3667V70.3621Z" fill="#1D1D1B"/>
<path d="M130.278 70.6671L129.968 70.8103C129.834 70.8703 129.677 70.9304 129.506 70.9859C129.308 71.0505 129.109 71.106 128.906 71.1476C128.675 71.1938 128.434 71.2169 128.199 71.2169C127.945 71.2169 127.695 71.1799 127.455 71.1106C127.228 71.0459 127.016 70.935 126.836 70.7826C126.656 70.6301 126.508 70.4407 126.411 70.2235C126.3 69.9786 126.244 69.7107 126.249 69.4427V62.8311H124.974V61.8747H126.249V58.756H127.455V61.8747H129.58V62.8311H127.455V69.1054C127.455 69.4011 127.589 69.6783 127.82 69.8585C128.037 70.0202 128.3 70.1034 128.573 70.0988C128.887 70.108 129.206 70.0526 129.497 69.9324C129.668 69.8631 129.834 69.7846 129.991 69.6922L130.278 70.6671Z" fill="#1D1D1B"/>
<path d="M136.552 71.1106V58.525H137.813V71.1106H136.552Z" fill="#1D1D1B"/>
<path d="M148.44 71.1106H147.234V65.9498C147.294 65.1227 147.123 64.2957 146.744 63.5565C146.416 63.0575 145.843 62.7756 145.247 62.8126C144.882 62.8126 144.527 62.8819 144.185 63.0066C143.829 63.136 143.496 63.3208 143.201 63.5565C142.91 63.8013 142.651 64.0878 142.434 64.402C142.203 64.7208 142.027 65.0765 141.921 65.4554V71.1106H140.715V61.8701H141.815V63.9861C142.198 63.307 142.757 62.7433 143.436 62.3552C144.134 61.944 144.933 61.7268 145.746 61.7361C146.195 61.7222 146.638 61.8192 147.04 62.0179C147.391 62.2027 147.682 62.4799 147.89 62.8172C148.121 63.2053 148.278 63.6304 148.352 64.0739C148.449 64.6191 148.5 65.1689 148.496 65.7234V71.1291L148.44 71.1106Z" fill="#1D1D1B"/>
<path d="M155.287 70.6671L154.978 70.8103C154.844 70.8703 154.687 70.9304 154.516 70.9859C154.317 71.0505 154.118 71.106 153.915 71.1476C153.684 71.1938 153.444 71.2169 153.208 71.2169C152.954 71.2169 152.705 71.1799 152.464 71.1106C152.238 71.0459 152.025 70.935 151.845 70.7826C151.665 70.6301 151.517 70.4407 151.42 70.2235C151.309 69.9786 151.254 69.7107 151.258 69.4427V62.8311H149.983V61.8747H151.258V58.756H152.464V61.8747H154.59V62.8311H152.464V69.1054C152.464 69.4011 152.598 69.6783 152.829 69.8585C153.047 70.0202 153.31 70.1034 153.582 70.0988C153.897 70.108 154.215 70.0526 154.507 69.9324C154.677 69.8631 154.844 69.7846 155.001 69.6922L155.287 70.6671Z" fill="#1D1D1B"/>
<path d="M160.517 71.2862C159.88 71.2908 159.252 71.1614 158.669 70.9027C158.115 70.6578 157.616 70.302 157.205 69.8585C156.789 69.4103 156.461 68.8929 156.239 68.3246C156.008 67.7378 155.888 67.1094 155.893 66.4765C155.888 65.8435 156.003 65.2151 156.239 64.6284C156.461 64.0693 156.784 63.5611 157.196 63.1221C157.611 62.6832 158.11 62.3367 158.66 62.0918C159.838 61.5836 161.178 61.5836 162.356 62.0918C162.902 62.3367 163.396 62.6878 163.802 63.1268C164.63 64.0323 165.087 65.2151 165.078 66.4395V66.7213C165.087 66.786 165.087 66.8507 165.078 66.9154H157.149C157.177 67.3959 157.297 67.8625 157.496 68.3015C157.681 68.7081 157.935 69.0777 158.249 69.3919C158.549 69.6968 158.91 69.9371 159.302 70.108C159.7 70.279 160.134 70.3667 160.568 70.3667C160.869 70.3667 161.169 70.3252 161.455 70.242C161.737 70.1634 162.014 70.0479 162.269 69.9047C162.518 69.7615 162.744 69.5859 162.943 69.3826C163.137 69.1839 163.294 68.9529 163.405 68.6988L164.449 68.9807C164.306 69.3226 164.103 69.6367 163.849 69.9047C163.576 70.1865 163.267 70.4314 162.925 70.6301C162.569 70.838 162.185 70.9905 161.788 71.0921C161.377 71.2122 160.947 71.2769 160.517 71.2862ZM163.923 66.0052C163.867 65.095 163.479 64.2356 162.832 63.5934C162.532 63.2977 162.176 63.0621 161.788 62.9004C161.386 62.734 160.956 62.6463 160.522 62.6509C160.083 62.6509 159.653 62.734 159.247 62.9004C158.854 63.0621 158.498 63.2977 158.193 63.5934C157.884 63.8984 157.639 64.2587 157.468 64.6561C157.283 65.0811 157.172 65.5386 157.14 66.0052H163.923Z" fill="#1D1D1B"/>
<path d="M170.779 71.2353C170.174 71.2446 169.573 71.106 169.033 70.838C168.506 70.5793 168.035 70.2235 167.647 69.7846C167.258 69.341 166.953 68.8328 166.75 68.2784C166.538 67.7193 166.431 67.1233 166.431 66.5227C166.431 65.8943 166.533 65.266 166.741 64.6746C166.935 64.1109 167.231 63.5934 167.619 63.1406C167.993 62.7063 168.455 62.3506 168.973 62.0964C169.518 61.8331 170.114 61.6991 170.719 61.7083C171.449 61.6899 172.165 61.8978 172.775 62.3044C173.362 62.7063 173.865 63.2146 174.263 63.8013V61.8701H175.344V71.1476C175.353 71.7297 175.228 72.3119 174.979 72.8386C174.748 73.3145 174.415 73.7349 174.004 74.0722C173.579 74.4141 173.089 74.6636 172.567 74.8161C171.999 74.9824 171.412 75.0702 170.821 75.0656C169.929 75.1071 169.042 74.9085 168.252 74.4973C167.61 74.1276 167.064 73.6009 166.672 72.9726L167.416 72.3858C167.757 72.9541 168.266 73.4115 168.871 73.6887C169.481 73.9659 170.146 74.1092 170.821 74.1045C171.25 74.1045 171.685 74.0445 172.096 73.9197C172.479 73.8042 172.835 73.6194 173.149 73.3699C173.454 73.1204 173.699 72.8062 173.865 72.4459C174.05 72.0393 174.143 71.5911 174.133 71.1429V69.2948C173.778 69.877 173.279 70.3575 172.678 70.6809C172.105 71.0274 171.449 71.2169 170.779 71.2353ZM171.116 70.2235C171.472 70.2235 171.828 70.1588 172.161 70.0295C172.493 69.9047 172.803 69.7291 173.085 69.5074C173.353 69.2995 173.588 69.05 173.787 68.7727C173.967 68.5233 174.092 68.2414 174.161 67.9411V65.0858C174.032 64.7531 173.852 64.4435 173.63 64.1617C173.413 63.8845 173.154 63.6396 172.867 63.4363C172.581 63.2423 172.271 63.0852 171.943 62.9743C171.629 62.8588 171.297 62.7987 170.959 62.7987C170.479 62.7895 170.003 62.905 169.573 63.1268C169.171 63.3393 168.82 63.6304 168.538 63.9861C168.252 64.3465 168.035 64.7531 167.891 65.192C167.744 65.6402 167.67 66.1069 167.67 66.5781C167.67 67.0632 167.757 67.5438 167.938 67.9965C168.104 68.4308 168.353 68.8328 168.672 69.1747C168.982 69.5074 169.351 69.78 169.763 69.974C170.188 70.1588 170.654 70.242 171.116 70.2235Z" fill="#1D1D1B"/>
<path d="M182.63 62.9373C181.872 62.942 181.129 63.1776 180.505 63.6119C179.9 64.0416 179.451 64.6607 179.23 65.3676V71.1106H178.01V61.8701H179.146V64.0878C179.456 63.4179 179.932 62.8449 180.532 62.4199C181.073 62.0318 181.715 61.8239 182.381 61.8192C182.459 61.81 182.533 61.81 182.612 61.8192V62.9189L182.63 62.9373Z" fill="#1D1D1B"/>
<path d="M186.59 71.2862C186.174 71.2862 185.763 71.2169 185.375 71.0644C185.014 70.9258 184.681 70.7179 184.4 70.4545C183.836 69.9278 183.517 69.1886 183.522 68.417C183.522 68.0243 183.614 67.6408 183.804 67.2989C184.002 66.9477 184.275 66.6428 184.603 66.4118C184.973 66.1484 185.388 65.9544 185.827 65.8343C186.336 65.6956 186.862 65.6263 187.389 65.631C187.869 65.631 188.35 65.6725 188.826 65.7557C189.269 65.8296 189.704 65.9451 190.12 66.1115V65.2798C190.156 64.5683 189.907 63.866 189.426 63.3393C188.918 62.8403 188.225 62.5816 187.514 62.6232C187.015 62.6232 186.52 62.7248 186.058 62.905C185.527 63.1129 185.019 63.3855 184.552 63.7182L184.127 62.9189C185.139 62.175 186.349 61.7546 187.601 61.713C188.604 61.6575 189.593 62.0087 190.332 62.6878C191.02 63.4086 191.381 64.3835 191.325 65.3815V69.5397C191.279 69.7661 191.427 69.9833 191.649 70.0295C191.695 70.0387 191.741 70.0387 191.787 70.0295V71.0921C191.635 71.1245 191.483 71.1429 191.325 71.1476C191.067 71.1614 190.813 71.0829 190.609 70.9166C190.434 70.7502 190.337 70.5192 190.337 70.279L190.3 69.5536C189.879 70.1034 189.329 70.5423 188.696 70.8288C188.036 71.1337 187.315 71.2862 186.59 71.2815V71.2862ZM186.871 70.3621C187.467 70.3667 188.054 70.2466 188.599 70.0064C189.075 69.8123 189.487 69.4935 189.796 69.0823C189.898 68.9853 189.981 68.8651 190.036 68.7358C190.087 68.6249 190.11 68.5094 190.115 68.3893V66.883C189.708 66.726 189.288 66.6105 188.863 66.5273C188.429 66.4441 187.985 66.4025 187.541 66.4025C186.811 66.3702 186.091 66.555 185.467 66.9339C184.973 67.2203 184.672 67.747 184.668 68.32C184.668 68.5972 184.723 68.8698 184.834 69.1193C184.945 69.3641 185.102 69.5813 185.296 69.7661C185.499 69.9555 185.735 70.1034 185.994 70.2004C186.271 70.3113 186.571 70.3667 186.871 70.3667V70.3621Z" fill="#1D1D1B"/>
<path d="M198.182 70.6671L197.872 70.8103C197.738 70.8703 197.581 70.9304 197.41 70.9859C197.212 71.0505 197.013 71.106 196.81 71.1476C196.574 71.1938 196.338 71.2169 196.098 71.2169C195.844 71.2169 195.595 71.1799 195.354 71.1106C195.128 71.0459 194.915 70.935 194.735 70.7826C194.555 70.6301 194.407 70.4407 194.31 70.2235C194.199 69.9786 194.148 69.7107 194.153 69.4427V62.8311H192.878V61.8747H194.153V58.756H195.359V61.8747H197.484V62.8311H195.359V69.1054C195.359 69.4011 195.493 69.6783 195.724 69.8585C195.941 70.0202 196.204 70.1034 196.477 70.0988C196.791 70.108 197.11 70.0526 197.401 69.9324C197.572 69.8631 197.738 69.7846 197.895 69.6922L198.182 70.6671Z" fill="#1D1D1B"/>
<path d="M199.688 59.9434V58.1692H200.894V59.9434H199.688ZM199.688 71.1106V61.8701H200.894V71.1106H199.688Z" fill="#1D1D1B"/>
<path d="M207.543 71.2862C206.905 71.2954 206.277 71.1614 205.694 70.9027C205.149 70.6578 204.66 70.3067 204.248 69.8677C203.837 69.4242 203.518 68.9067 203.301 68.3431C203.075 67.7517 202.959 67.1279 202.964 66.4949C202.964 65.862 203.079 65.2336 203.31 64.6468C203.532 64.0832 203.856 63.5657 204.267 63.1221C204.678 62.6832 205.168 62.3275 205.713 62.078C206.29 61.81 206.923 61.6806 207.561 61.6899C208.199 61.6806 208.832 61.8146 209.409 62.078C209.959 62.3275 210.453 62.6832 210.865 63.1221C211.276 63.5657 211.599 64.0832 211.821 64.6468C212.052 65.2336 212.172 65.862 212.167 66.4949C212.172 67.1279 212.057 67.7517 211.83 68.3431C211.613 68.9067 211.294 69.4242 210.883 69.8677C210.472 70.3067 209.977 70.6578 209.428 70.9027C208.836 71.166 208.189 71.2954 207.543 71.2862ZM204.193 66.5365C204.193 67.0309 204.281 67.5206 204.461 67.9827C204.627 68.4124 204.872 68.8051 205.177 69.1516C205.473 69.4843 205.833 69.7522 206.24 69.9417C206.646 70.1311 207.094 70.2281 207.543 70.2235C207.995 70.2235 208.439 70.1265 208.845 69.9324C209.252 69.7384 209.617 69.4658 209.917 69.1331C210.227 68.7866 210.476 68.3893 210.643 67.955C210.999 67.0217 210.999 65.9913 210.643 65.058C210.476 64.6191 210.232 64.2172 209.917 63.8706C209.617 63.538 209.252 63.2654 208.845 63.0713C208.439 62.8773 207.995 62.7756 207.543 62.7802C207.094 62.7802 206.651 62.8773 206.249 63.0713C205.847 63.27 205.482 63.5426 205.186 63.8799C204.872 64.231 204.627 64.6376 204.461 65.0765C204.281 65.5432 204.188 66.0375 204.193 66.5365Z" fill="#1D1D1B"/>
<path d="M221.935 71.1106H220.729V65.9498C220.789 65.1227 220.623 64.2957 220.244 63.5565C219.916 63.0575 219.343 62.7756 218.747 62.8126C218.382 62.8126 218.026 62.8819 217.684 63.0066C217.328 63.136 216.996 63.3208 216.7 63.5565C216.395 63.8013 216.122 64.0832 215.896 64.402C215.665 64.7208 215.489 65.0765 215.383 65.4554V71.1106H214.177V61.8701H215.277V63.9861C215.66 63.307 216.219 62.7433 216.899 62.3552C217.596 61.944 218.396 61.7268 219.209 61.7361C219.657 61.7222 220.1 61.8192 220.502 62.0179C220.854 62.2027 221.145 62.4799 221.353 62.8172C221.584 63.2053 221.741 63.6304 221.815 64.0739C221.912 64.6191 221.962 65.1689 221.958 65.7234V71.1291L221.935 71.1106Z" fill="#1D1D1B"/>
<path d="M224.453 71.1106V69.3734H225.497V71.1106H224.453Z" fill="#1D1D1B"/>
<mask id="mask0_2078_41" style="mask-type:luminance" maskUnits="userSpaceOnUse" x="71" y="14" width="276" height="80">
<path d="M346.012 14.004H71.3185V93.2278H346.012V14.004Z" fill="white"/>
</mask>
<g mask="url(#mask0_2078_41)">
<path d="M186.035 15.2053H162.241V49.9775H186.035C184.28 48.2587 182.796 46.2859 181.637 44.119H169.231V35.4329H178.934C178.689 33.4924 178.698 31.5287 178.957 29.5928H169.231V21.0453H181.618C182.778 18.8877 184.261 16.9194 186.017 15.2053" fill="#1D1D1B"/>
<path d="M202.451 44.119C196.07 44.119 190.9 38.9489 190.9 32.5683C190.9 26.1877 196.07 21.0176 202.451 21.0176C205.454 21.0407 208.328 22.2605 210.43 24.4043L215.342 19.4005C211.932 15.9584 207.298 14.0087 202.451 13.9809C192.374 13.9809 184.187 22.3205 184.187 32.5914C184.187 42.8623 192.37 51.1464 202.451 51.1464C212.532 51.1464 220.66 42.8068 220.66 32.5914H202.451V39.2122H211.692C209.608 42.2709 206.152 44.1051 202.451 44.1144" fill="#1D1D1B"/>
<path d="M323.424 21.0407H331.505V15.2053H308.302V21.0453H316.433V49.9775H323.442V21.0407H323.424ZM299.19 38.1357H289.728L294.487 23.7482L299.19 38.1357ZM301.038 43.9757L302.984 49.9821H310.653L298.992 15.2099H290.241L278.478 49.9821H285.893L287.94 43.9757H301.038ZM262.51 21.0361H274.481V15.2053H255.496V49.9775H274.472V44.119H262.505V35.4329H272.388V29.5928H262.505V21.0407L262.51 21.0361ZM232.691 32.4805V21.0962H236.475C239.954 21.0962 242.102 23.4664 242.102 26.8022C242.102 30.138 239.852 32.4897 235.86 32.4897H232.691V32.4805ZM232.691 36.1767L242.051 49.9913H250.548L241.137 36.6434C246.39 35.2758 249.208 31.6442 249.208 26.1507C249.208 19.0078 244.657 15.2007 236.216 15.2007H225.677V49.9729H232.686V36.1582V36.1767H232.691Z" fill="#1D1D1B"/>
</g>
<path d="M148.861 21.0453H156.941V15.2053H133.715V21.0453H141.847V49.9775H148.856V21.0453H148.861ZM107.232 27.9757L121.555 49.9729H128.411V15.2053H121.398V36.8882L107.126 15.2053H100.223V49.9729H107.227V27.9757H107.232ZM93.3711 15.2053H86.3806V49.9775H93.3895V15.2053H93.3711Z" fill="#1D1D1B"/>
<path d="M79.9861 11.3428V68.6618C79.9861 74.9177 74.9085 79.9954 68.6434 79.9954H11.3243C5.06843 79.9954 -0.00924683 74.9177 -0.00924683 68.6618V11.3428C-0.00924683 5.07768 5.06843 0 11.3243 0H68.6434C74.9085 0 79.9861 5.07768 79.9861 11.3428Z" fill="#FAD913"/>
<path opacity="0.5" d="M80 44.7381V68.6665C80 74.9223 74.9223 80 68.6572 80H41.5501L23.6743 61.3018C22.2512 60.2252 20.9714 59.0009 19.7655 57.6887C18.7675 56.6029 17.9082 55.3924 17.1227 54.1357C16.3511 52.8975 15.6719 51.6084 15.1221 50.2593C14.4938 48.7254 13.9855 47.1545 13.6621 45.5282C13.5605 45.0199 13.4866 44.5117 13.4126 43.9988C13.3572 43.62 13.3064 43.2457 13.2509 42.8715C13.1447 42.1692 13.1031 41.4716 13.0846 40.7693C13.0707 40.1548 13.08 39.5495 13.0846 38.9396C13.0938 37.8354 13.2648 36.7358 13.445 35.65C13.5235 35.1649 13.6205 34.6844 13.7268 34.2039C14.0826 32.596 14.5769 31.0344 15.233 29.5189C15.6581 28.5348 16.1663 27.5923 16.6884 26.6543C17.2105 25.7257 17.8065 24.8524 18.4487 24.0069C18.8368 23.4941 19.2388 22.9951 19.6454 22.4915C20.0058 22.0526 20.4308 21.6691 20.8282 21.2579C21.1146 20.9668 21.4057 20.6665 21.7014 20.3846C22.0895 20.0104 22.4915 19.6454 22.9211 19.3174C23.97 18.5181 25.0188 17.7049 26.1831 17.0627C26.8345 16.7023 27.4721 16.3142 28.1467 16C29.214 15.4918 30.3043 15.039 31.4271 14.6647C31.5703 14.6185 31.7135 14.5723 31.8568 14.5308C32.5821 14.3044 33.3168 14.1196 34.056 13.9532C34.7675 13.7915 35.4883 13.6806 36.2137 13.579C36.4262 13.5513 36.6341 13.5235 36.842 13.4958C38.1265 13.3295 39.4201 13.3202 40.7138 13.3618C42.4695 13.4173 44.2021 13.6621 45.907 14.0826C45.9717 14.1011 46.0687 14.0964 46.1103 14.1519L51.479 19.7655C52.0011 19.6315 52.5463 19.5622 53.1054 19.5622C55.2862 19.5622 57.2082 20.5833 58.4187 22.1865H58.4233L78.7571 43.4537L78.8357 43.5368H78.8449L79.9954 44.7381H80Z" fill="url(#paint0_linear_2078_41)"/>
<path d="M59.7632 26.257C59.754 29.8008 56.797 32.8409 53.1146 32.8178C49.5524 32.827 46.5215 29.8885 46.5123 26.2154C46.503 22.4961 49.5062 19.5576 53.1008 19.5484C56.8108 19.5437 59.7724 22.5192 59.7632 26.2524V26.257Z" fill="white"/>
<path d="M66.4164 40.5614C66.4025 42.1323 66.227 43.68 65.922 45.2232C65.5801 46.9373 65.0627 48.5868 64.4112 50.2085C63.9861 51.2665 63.4687 52.2784 62.9096 53.2717C62.1519 54.6162 61.2694 55.8776 60.2622 57.0557C59.6015 57.8273 58.9362 58.5989 58.1923 59.2966C57.0834 60.3361 55.9145 61.2971 54.6439 62.1519C53.3041 63.0528 51.8949 63.8244 50.421 64.4759C48.9056 65.1458 47.3393 65.6679 45.7222 66.0237C44.9183 66.1992 44.1097 66.3101 43.3058 66.4534C41.7626 66.726 40.2102 66.7213 38.6532 66.689C37.1747 66.652 35.7101 66.4487 34.2593 66.1484C32.2079 65.7234 30.2258 65.0442 28.3361 64.134C27.0101 63.4918 25.7349 62.7479 24.5105 61.9116C22.7502 60.7011 21.1978 59.255 19.7609 57.6887C18.7629 56.6029 17.8989 55.3924 17.1181 54.1357C16.3465 52.8975 15.6627 51.6084 15.1129 50.2639C14.4845 48.73 13.9809 47.1591 13.6529 45.5328C13.4773 44.6503 13.3803 43.7632 13.2417 42.8761C13.0384 41.5686 13.0615 40.2564 13.0754 38.9489C13.0846 37.84 13.2509 36.745 13.4311 35.6546C13.7869 33.5432 14.3737 31.4918 15.2192 29.5235C15.6442 28.5394 16.1525 27.5969 16.6746 26.659C17.5108 25.1574 18.555 23.8175 19.6315 22.4961C19.6639 22.4545 19.6962 22.4176 19.7332 22.3806C20.0705 21.9879 20.4539 21.6367 20.8189 21.2671C21.4658 20.6064 22.1126 19.9457 22.8426 19.382C21.2948 22.0479 21.6737 25.5085 23.9931 27.7817C24.6168 28.3962 25.3329 28.8675 26.0953 29.2047C25.6425 29.7776 25.2221 30.3737 24.8432 30.9974C24.4689 31.6119 24.1317 32.2541 23.8314 32.9194C23.0921 34.5642 22.6439 36.2876 22.4314 38.0618C22.2466 39.6743 22.2836 41.2914 22.5746 42.9038C22.8657 44.5209 23.3231 46.078 24.0346 47.5564C24.9772 49.5108 26.2431 51.2342 27.814 52.7219C28.7381 53.5905 29.7453 54.3529 30.8542 54.9997C31.8521 55.5819 32.8825 56.0855 33.959 56.4736C34.6982 56.7416 35.4652 56.9264 36.2368 57.0927C37.6506 57.393 39.0783 57.4669 40.5152 57.43C41.855 57.3976 43.1672 57.1481 44.4609 56.8016C45.7176 56.469 46.9096 55.97 48.0462 55.3555C49.0534 54.8057 50.0098 54.1681 50.8877 53.4196C52.1629 52.3384 53.2856 51.1233 54.2235 49.7372C54.2882 49.6402 54.4083 49.5524 54.3251 49.4184C54.2466 49.2983 54.108 49.3353 53.9925 49.3353C53.0361 49.3353 52.0843 49.3353 51.1325 49.3353C47.5149 49.3353 43.8972 49.3353 40.2749 49.3353C39.9453 49.3353 39.7805 49.172 39.7805 48.8455V40.5244C39.7805 40.0716 39.7852 40.067 40.2426 40.067H65.8989C66.421 40.067 66.421 40.067 66.421 40.5706L66.4164 40.5614Z" fill="white"/>
<path d="M59.7632 26.257C59.754 29.8008 56.797 32.8409 53.1146 32.8178C49.5524 32.827 46.5215 29.8885 46.5123 26.2154C46.503 22.4961 49.5062 19.5576 53.1008 19.5484C56.8108 19.5437 59.7724 22.5192 59.7632 26.2524V26.257Z" fill="black"/>
<path d="M66.4164 40.5614C66.4025 42.1323 66.227 43.68 65.922 45.2232C65.5801 46.9373 65.0627 48.5868 64.4112 50.2085C63.9861 51.2665 63.4687 52.2784 62.9096 53.2717C62.1519 54.6162 61.2694 55.8776 60.2622 57.0557C59.6015 57.8273 58.9362 58.5989 58.1923 59.2966C57.0834 60.3361 55.9145 61.2971 54.6439 62.1519C53.3041 63.0528 51.8949 63.8244 50.421 64.4759C48.9056 65.1458 47.3393 65.6679 45.7222 66.0237C44.9183 66.1992 44.1097 66.3101 43.3058 66.4534C41.7626 66.726 40.2102 66.7213 38.6532 66.689C37.1747 66.652 35.7101 66.4487 34.2593 66.1484C32.2079 65.7234 30.2258 65.0442 28.3361 64.134C27.0101 63.4918 25.7349 62.7479 24.5105 61.9116C22.7502 60.7011 21.1978 59.255 19.7609 57.6887C18.7629 56.6029 17.8989 55.3924 17.1181 54.1357C16.3465 52.8975 15.6627 51.6084 15.1129 50.2639C14.4845 48.73 13.9809 47.1591 13.6529 45.5328C13.4773 44.6503 13.3803 43.7632 13.2417 42.8761C13.0384 41.5686 13.0615 40.2564 13.0754 38.9489C13.0846 37.84 13.2509 36.745 13.4311 35.6546C13.7869 33.5432 14.3737 31.4918 15.2192 29.5235C15.6442 28.5394 16.1525 27.5969 16.6746 26.659C17.5108 25.1574 18.555 23.8175 19.6315 22.4961C19.6639 22.4545 19.6962 22.4176 19.7332 22.3806C20.0705 21.9879 20.4539 21.6367 20.8189 21.2671C21.4658 20.6064 22.1126 19.9457 22.8426 19.382C21.2948 22.0479 21.6737 25.5085 23.9931 27.7817C24.6168 28.3962 25.3329 28.8675 26.0953 29.2047C25.6425 29.7776 25.2221 30.3737 24.8432 30.9974C24.4689 31.6119 24.1317 32.2541 23.8314 32.9194C23.0921 34.5642 22.6439 36.2876 22.4314 38.0618C22.2466 39.6743 22.2836 41.2914 22.5746 42.9038C22.8657 44.5209 23.3231 46.078 24.0346 47.5564C24.9772 49.5108 26.2431 51.2342 27.814 52.7219C28.7381 53.5905 29.7453 54.3529 30.8542 54.9997C31.8521 55.5819 32.8825 56.0855 33.959 56.4736C34.6982 56.7416 35.4652 56.9264 36.2368 57.0927C37.6506 57.393 39.0783 57.4669 40.5152 57.43C41.855 57.3976 43.1672 57.1481 44.4609 56.8016C45.7176 56.469 46.9096 55.97 48.0462 55.3555C49.0534 54.8057 50.0098 54.1681 50.8877 53.4196C52.1629 52.3384 53.2856 51.1233 54.2235 49.7372C54.2882 49.6402 54.4083 49.5524 54.3251 49.4184C54.2466 49.2983 54.108 49.3353 53.9925 49.3353C53.0361 49.3353 52.0843 49.3353 51.1325 49.3353C47.5149 49.3353 43.8972 49.3353 40.2749 49.3353C39.9453 49.3353 39.7805 49.172 39.7805 48.8455V40.5244C39.7805 40.0716 39.7852 40.067 40.2426 40.067H65.8989C66.421 40.067 66.421 40.067 66.421 40.5706L66.4164 40.5614Z" fill="black"/>
<path d="M46.1242 14.2166C46.1242 14.3228 45.9994 14.3506 45.9116 14.4014C44.7612 15.0482 43.7817 15.8984 42.9038 16.8686C42.1877 17.6587 41.5547 18.5042 41.0511 19.4467C40.5844 20.32 40.1594 21.207 39.9099 22.1634C39.8175 22.5192 39.6419 22.6255 39.2862 22.6347C38.9627 22.6393 38.6393 22.6578 38.3251 22.6763C37.5859 22.7317 36.8559 22.8334 36.1397 22.9858C34.6058 23.3 33.1273 23.836 31.695 24.5798C29.9948 25.4623 28.4886 26.5897 27.1718 27.9711C26.7929 28.3685 26.4326 28.7797 26.0907 29.2094C25.3283 28.8721 24.6122 28.4008 23.9884 27.7863C21.6691 25.5131 21.2902 22.0526 22.838 19.3867C22.8611 19.3682 22.8842 19.3497 22.9027 19.3312C23.9515 18.5273 25.0003 17.7187 26.1646 17.0719C26.816 16.7161 27.4536 16.3234 28.1236 16.0092C28.2067 15.9677 28.2991 15.9261 28.3823 15.8891C29.3664 15.4317 30.3737 15.0205 31.404 14.674C31.7459 14.5585 32.0924 14.4522 32.4435 14.3552C32.9702 14.2073 33.5016 14.078 34.0283 13.9578C34.9477 13.7499 35.881 13.6206 36.8143 13.5004C38.0987 13.3341 39.3924 13.3249 40.6861 13.3664C42.4418 13.4219 44.1744 13.6668 45.8839 14.0872C45.9717 14.1103 46.1149 14.0964 46.1103 14.2258L46.1242 14.2166Z" fill="white"/>
<path d="M66.4164 40.5614C66.4025 42.1323 66.227 43.68 65.922 45.2232C65.5801 46.9373 65.0627 48.5868 64.4112 50.2085C63.9861 51.2665 63.4687 52.2784 62.9096 53.2717C62.1519 54.6162 61.2694 55.8776 60.2622 57.0557C59.6015 57.8273 58.9362 58.5989 58.1923 59.2966C57.0834 60.3361 55.9145 61.2971 54.6439 62.1519C53.3041 63.0528 51.8949 63.8244 50.421 64.4759C48.9056 65.1458 47.3393 65.6679 45.7222 66.0237C44.9183 66.1992 44.1097 66.3101 43.3058 66.4534C41.7626 66.726 40.2102 66.7213 38.6532 66.689C37.1747 66.652 35.7101 66.4487 34.2593 66.1484C32.2079 65.7234 30.2258 65.0442 28.3361 64.134C27.0101 63.4918 25.7349 62.7479 24.5105 61.9116C22.7502 60.7011 21.1978 59.255 19.7609 57.6887C18.7629 56.6029 17.8989 55.3924 17.1181 54.1357C16.3465 52.8975 15.6627 51.6084 15.1129 50.2639C14.4845 48.73 13.9809 47.1591 13.6529 45.5328C13.4773 44.6503 13.3803 43.7632 13.2417 42.8761C13.0384 41.5686 13.0615 40.2564 13.0754 38.9489C13.0846 37.84 13.2509 36.745 13.4311 35.6546C13.7869 33.5432 14.3737 31.4918 15.2192 29.5235C15.6442 28.5394 16.1525 27.5969 16.6746 26.659C17.5108 25.1574 18.555 23.8175 19.6315 22.4961C19.6639 22.4545 19.6962 22.4176 19.7332 22.3806C20.0705 21.9879 20.4539 21.6367 20.8189 21.2671C21.4658 20.6064 22.1126 19.9457 22.8426 19.382C21.2948 22.0479 21.6737 25.5085 23.9931 27.7817C24.6168 28.3962 25.3329 28.8675 26.0953 29.2047C25.6425 29.7776 25.2221 30.3737 24.8432 30.9974C24.4689 31.6119 24.1317 32.2541 23.8314 32.9194C23.0921 34.5642 22.6439 36.2876 22.4314 38.0618C22.2466 39.6743 22.2836 41.2914 22.5746 42.9038C22.8657 44.5209 23.3231 46.078 24.0346 47.5564C24.9772 49.5108 26.2431 51.2342 27.814 52.7219C28.7381 53.5905 29.7453 54.3529 30.8542 54.9997C31.8521 55.5819 32.8825 56.0855 33.959 56.4736C34.6982 56.7416 35.4652 56.9264 36.2368 57.0927C37.6506 57.393 39.0783 57.4669 40.5152 57.43C41.855 57.3976 43.1672 57.1481 44.4609 56.8016C45.7176 56.469 46.9096 55.97 48.0462 55.3555C49.0534 54.8057 50.0098 54.1681 50.8877 53.4196C52.1629 52.3384 53.2856 51.1233 54.2235 49.7372C54.2882 49.6402 54.4083 49.5524 54.3251 49.4184C54.2466 49.2983 54.108 49.3353 53.9925 49.3353C53.0361 49.3353 52.0843 49.3353 51.1325 49.3353C47.5149 49.3353 43.8972 49.3353 40.2749 49.3353C39.9453 49.3353 39.7805 49.172 39.7805 48.8455V40.5244C39.7805 40.0716 39.7852 40.067 40.2426 40.067H65.8989C66.421 40.067 66.421 40.067 66.421 40.5706L66.4164 40.5614Z" fill="white"/>
<path d="M59.7632 26.257C59.754 29.8008 56.797 32.8409 53.1146 32.8178C49.5524 32.827 46.5215 29.8885 46.5123 26.2154C46.503 22.4961 49.5062 19.5576 53.1008 19.5484C56.8108 19.5437 59.7724 22.5192 59.7632 26.2524V26.257Z" fill="white"/>
<path d="M35.6084 29.2925C37.4658 27.4675 38.3713 25.0604 38.3251 22.6671C37.5859 22.7225 36.8559 22.8241 36.1398 22.9766C36.1028 24.7185 35.4098 26.4464 34.0606 27.7725C31.9122 29.8839 28.715 30.3552 26.0953 29.1955C25.3329 28.8582 24.6168 28.387 23.9931 27.7725C21.6737 25.4993 21.2948 22.0387 22.8426 19.3728C23.1475 18.8415 23.531 18.3425 23.9931 17.8943C25.2174 16.6884 26.7837 16.0185 28.3916 15.8799C29.3757 15.4225 30.3829 15.0113 31.4132 14.6647C31.7551 14.5492 32.1016 14.443 32.4528 14.3459C29.1077 13.043 25.1435 13.7222 22.4406 16.3742C20.745 18.0375 19.8394 20.1906 19.7332 22.376C19.6038 24.8663 20.5094 27.3982 22.4406 29.2971C23.1614 30.004 23.9746 30.5723 24.8386 30.9974C25.8134 31.4825 26.8622 31.7829 27.9249 31.9076V34.9662H25.7349C25.1296 34.9662 24.6399 35.4467 24.6399 36.0427C24.6399 36.6388 25.1296 37.1193 25.7349 37.1193H27.9249V40.1502C27.9249 40.7416 28.4147 41.2267 29.0199 41.2267C29.6252 41.2267 30.1149 40.7462 30.1149 40.1502V37.1193H32.3049C32.9102 37.1193 33.3999 36.6388 33.3999 36.0427C33.3999 35.4467 32.9102 34.9662 32.3049 34.9662H30.1149V31.9076C32.1247 31.6766 34.0653 30.808 35.6038 29.3018L35.6084 29.2925Z" fill="#64666C"/>
</g>
<defs>
<linearGradient id="paint0_linear_2078_41" x1="13.08" y1="46.6694" x2="80" y2="46.6694" gradientUnits="userSpaceOnUse">
<stop stop-color="#CD8010"/>
<stop offset="0.41" stop-color="#CE8410" stop-opacity="0.59"/>
<stop offset="0.74" stop-color="#D08D08" stop-opacity="0.26"/>
<stop offset="1" stop-color="#D39B02" stop-opacity="0"/>
</linearGradient>
<clipPath id="clip0_2078_41">
<rect width="331.509" height="80" fill="white"/>
</clipPath>
</defs>
</svg>
