<svg id="screenshot" viewBox="682 23.16666666666663 24 24" width="24" height="24" version="1.1" xmlns="http://www.w3.org/2000/svg" xmlns:xlink="http://www.w3.org/1999/xlink" style="-webkit-print-color-adjust: exact;"><g id="shape-222c8fa0-9fb7-11ec-a149-b71a8ea6d39c" height="24px" width="24px"><g id="shape-222c8fb0-9fb7-11ec-a149-b71a8ea6d39c"><path fill="none" d="M682,23.16666666666663L706,23.16666666666663L706,47.16666666666663L682,47.16666666666663L682,23.16666666666663ZZ"/></g><g id="shape-222c8fae-9fb7-11ec-a149-b71a8ea6d39c"><ellipse cx="694" cy="27.16666666666663" rx="2" ry="2" transform="matrix(0.9999999999999999,1.7453292519943295e-8,-1.7453292519943295e-8,0.9999999999999999,4.7414789605682017e-7,-0.000012112585004331322)" style="fill: rgb(0, 0, 0);"/></g><g id="shape-222c8fa5-9fb7-11ec-a149-b71a8ea6d39c"><path d="M701,36.16666666666663L701,34.16666666666663C699.46,34.18666666666661,697.9100000000001,33.41666666666663,696.9300000000001,32.336666666666645L695.6400000000001,30.906666666666638C695.47,30.71666666666664,695.26,30.566666666666606,695.03,30.45666666666665C695.02,30.45666666666665,695.02,30.4466666666666,695.01,30.4466666666666L695,30.4466666666666C694.6500000000001,30.246666666666613,694.25,30.146666666666647,693.81,30.18666666666661C692.76,30.276666666666642,692,31.206666666666592,692,32.256666666666604L692,38.16666666666663C692,39.266666666666595,692.9000000000001,40.16666666666663,694,40.16666666666663L699,40.16666666666663L699,45.16666666666663L701,45.16666666666663L701,39.66666666666663C701,38.566666666666606,700.0999999999999,37.66666666666663,699,37.66666666666663L696,37.66666666666663L696,34.21666666666664C697.29,35.28666666666663,699.25,36.15666666666664,701,36.16666666666663ZZM692,43.16666666666663C690.3399999999999,43.16666666666663,689,41.8266666666666,689,40.16666666666663C689,38.85666666666663,689.8399999999999,37.756666666666604,691,37.33666666666659L691,35.266666666666595C688.72,35.72666666666663,687,37.74666666666661,687,40.16666666666663C687,42.92666666666662,689.24,45.16666666666663,692,45.16666666666663C694.4200000000001,45.16666666666663,696.44,43.4466666666666,696.9000000000001,41.16666666666663L694.8299999999999,41.16666666666663C694.4200000000001,42.3266666666666,693.31,43.16666666666663,692,43.16666666666663ZZ" style="fill: rgb(0, 0, 0);"/></g></g></svg>