<?xml version="1.0" encoding="UTF-8"?>
<svg xmlns="http://www.w3.org/2000/svg" xmlns:xlink="http://www.w3.org/1999/xlink" width="24px" height="24px" viewBox="0 0 24 24" version="1.1">
<g id="surface1">
<path style=" stroke:none;fill-rule:nonzero;fill:rgb(0%,0%,0%);fill-opacity:1;" d="M 14 4 C 14 2.894531 13.105469 2 12 2 C 10.894531 2 10 2.894531 10 4 C 10 5.105469 10.894531 6 12 6 C 13.105469 6 14 5.105469 14 4 Z M 14 4 "/>
<path style=" stroke:none;fill-rule:nonzero;fill:rgb(0%,0%,0%);fill-opacity:1;" d="M 19 13 L 19 11 C 17.460938 11.019531 15.910156 10.25 14.929688 9.171875 L 13.640625 7.738281 C 13.46875 7.550781 13.261719 7.398438 13.03125 7.289062 C 13.019531 7.289062 13.019531 7.28125 13.011719 7.28125 L 13 7.28125 C 12.648438 7.078125 12.25 6.980469 11.808594 7.019531 C 10.761719 7.109375 10 8.039062 10 9.089844 L 10 15 C 10 16.101562 10.898438 17 12 17 L 17 17 L 17 22 L 19 22 L 19 16.5 C 19 15.398438 18.101562 14.5 17 14.5 L 14 14.5 L 14 11.050781 C 15.289062 12.121094 17.25 12.988281 19 13 Z M 19 13 Z M 10 20 C 8.339844 20 7 18.660156 7 17 C 7 15.691406 7.839844 14.589844 9 14.171875 L 9 12.101562 C 6.71875 12.558594 5 14.578125 5 17 C 5 19.761719 7.238281 22 10 22 C 12.421875 22 14.441406 20.28125 14.898438 18 L 12.828125 18 C 12.421875 19.160156 11.308594 20 10 20 Z M 10 20 Z M 10 20 "/>
</g>
</svg>
