<svg width="192" height="auto" viewBox="0 0 192 101" fill="none" xmlns="http://www.w3.org/2000/svg">
    <path d="M54.329 62.79L53.289 58.91H48.509L47.409 62.79H41.959L48.449 42.59H53.839L59.959 62.79H54.339H54.329ZM51.369 51.23C51.179 50.46 51.049 49.62 50.989 48.71C50.929 49.17 50.849 49.63 50.759 50.07C50.659 50.59 50.559 51.1 50.439 51.61L49.629 54.91H52.239L51.369 51.23Z"
          fill="currentColor"></path>
    <path d="M77.4589 62.79L76.9689 54.64C76.9289 54 76.8989 53.38 76.8689 52.79C76.8389 52.19 76.8289 51.46 76.8289 50.59H76.7989C76.6789 51.46 76.5789 52.17 76.4789 52.73C76.3789 53.29 76.2589 53.84 76.0989 54.38L73.6389 62.79H69.2289L67.0789 54.62C66.9289 54.06 66.7889 53.47 66.6889 52.85C66.5789 52.23 66.4889 51.47 66.4089 50.56H66.3789C66.3789 51.47 66.3789 52.23 66.3689 52.85C66.3689 53.47 66.3389 54.1 66.2989 54.73L65.8889 62.79H60.6689L62.6389 42.59H68.9889L70.9589 50.59C71.1089 51.15 71.2389 51.73 71.3389 52.31C71.4389 52.9 71.5289 53.6 71.6289 54.41H71.6589C71.6989 54.02 71.7389 53.67 71.7889 53.34C71.8389 53.01 71.8889 52.69 71.9489 52.37C72.0089 52.05 72.0789 51.73 72.1489 51.4C72.2289 51.07 72.3189 50.7 72.4389 50.3L74.4989 42.59H80.6489L82.5089 62.79H77.4689H77.4589Z"
          fill="currentColor"></path>
    <path d="M95.4784 62.79L94.4384 58.91H89.6584L88.5584 62.79H83.1084L89.5984 42.59H94.9884L101.108 62.79H95.4884H95.4784ZM92.5184 51.23C92.3284 50.46 92.1984 49.62 92.1384 48.71C92.0784 49.17 91.9984 49.63 91.9084 50.07C91.8084 50.59 91.7084 51.1 91.5884 51.61L90.7784 54.91H93.3884L92.5184 51.23Z"
          fill="currentColor"></path>
    <path d="M113.479 62.79H102.349V42.59H107.599V58.5H114.469L113.479 62.79Z" fill="currentColor"></path>
    <path d="M131.888 62.4601L128.438 55.6801C128.178 55.1801 127.908 54.6001 127.638 53.9401C127.368 53.2901 127.128 52.6401 126.928 52.0101C126.988 52.3801 127.048 53.0001 127.108 53.8601C127.178 54.7201 127.208 55.7601 127.208 56.9701V62.4601H122.448V42.9301H127.268L130.828 49.6301C131.108 50.1501 131.388 50.7401 131.668 51.4001C131.948 52.0501 132.208 52.7101 132.448 53.3601C132.408 53.0801 132.378 52.7501 132.368 52.3801C132.348 52.0101 132.328 51.6201 132.308 51.2301C132.288 50.8401 132.278 50.4501 132.278 50.0501V42.9301H137.038V62.4601H131.878H131.888Z"
          fill="currentColor"></path>
    <path d="M139.429 62.4601V42.9301H150.779L150.419 47.0501H144.449V50.3301H149.329V54.3101H144.449V58.2901H151.149V62.4701H139.439L139.429 62.4601Z"
          fill="currentColor"></path>
    <path d="M171.428 62.4601H166.078L165.068 56.8001C164.958 56.2201 164.848 55.6101 164.748 54.9801C164.648 54.3501 164.548 53.7401 164.468 53.1701C164.388 52.6001 164.308 52.0701 164.248 51.5901C164.178 51.1001 164.138 50.7001 164.118 50.3901H164.088C164.068 50.6301 164.028 50.9801 163.978 51.4401C163.918 51.9001 163.848 52.4201 163.768 53.0101C163.688 53.6001 163.588 54.2201 163.478 54.8701C163.368 55.5201 163.258 56.1701 163.138 56.8001L162.098 62.4601H156.638L151.898 42.9301H157.198L158.288 48.2001C158.758 50.4001 159.058 52.0801 159.188 53.2301C159.318 54.3801 159.398 55.1401 159.408 55.5101H159.438C159.498 54.7301 159.608 53.7001 159.778 52.4301C159.948 51.1601 160.158 49.8001 160.418 48.3401L161.428 42.9301H167.008L168.268 49.4601C168.418 50.2101 168.568 51.1001 168.728 52.1401C168.888 53.1801 168.998 54.2901 169.048 55.4901H169.078C169.098 55.0601 169.148 54.5001 169.228 53.8201C169.308 53.1401 169.408 52.4301 169.508 51.6901C169.608 50.9501 169.718 50.2401 169.848 49.5501C169.968 48.8601 170.078 48.2701 170.168 47.7801L171.148 42.9301H176.498L171.428 62.4601Z"
          fill="currentColor"></path>
    <path d="M191.148 55.65C191.148 56.83 190.938 57.86 190.528 58.75C190.118 59.64 189.538 60.38 188.778 60.98C188.018 61.58 187.118 62.03 186.078 62.34C185.028 62.65 183.878 62.8 182.608 62.8C181.128 62.8 179.808 62.64 178.638 62.31C177.468 61.98 176.388 61.56 175.398 61.04L177.168 57.12C177.878 57.53 178.718 57.9 179.688 58.21C180.658 58.53 181.648 58.69 182.658 58.69C183.668 58.69 184.358 58.53 184.778 58.2C185.198 57.87 185.408 57.44 185.408 56.9C185.408 56.47 185.248 56.14 184.928 55.91C184.608 55.68 184.118 55.48 183.438 55.31L181.138 54.72C180.428 54.53 179.788 54.29 179.208 53.99C178.628 53.69 178.128 53.32 177.708 52.87C177.288 52.42 176.958 51.88 176.728 51.26C176.498 50.63 176.378 49.9 176.378 49.06C176.378 48.09 176.568 47.21 176.938 46.41C177.308 45.62 177.838 44.94 178.508 44.38C179.178 43.82 179.978 43.39 180.908 43.08C181.828 42.77 182.848 42.62 183.948 42.62C185.308 42.62 186.598 42.79 187.798 43.12C188.998 43.46 190.048 43.92 190.918 44.52L188.508 48.08C187.858 47.65 187.128 47.31 186.318 47.07C185.518 46.83 184.778 46.71 184.108 46.71C183.438 46.71 182.958 46.85 182.618 47.12C182.278 47.39 182.118 47.72 182.118 48.11C182.118 48.43 182.258 48.74 182.528 49.03C182.798 49.33 183.298 49.57 184.028 49.76L186.018 50.26C186.538 50.39 187.098 50.56 187.698 50.78C188.298 51 188.848 51.3 189.368 51.69C189.878 52.08 190.308 52.6 190.638 53.25C190.978 53.89 191.138 54.7 191.138 55.67L191.148 55.65Z"
          fill="currentColor"></path>
    <path d="M52.7187 14.0101C52.4687 13.0901 51.6687 12.4201 50.7187 12.3201C50.4387 12.2901 50.1587 12.3201 49.8887 12.3901C48.9287 12.6501 48.2487 13.5101 48.1987 14.4901C48.2287 14.5901 48.2687 14.7401 48.2987 14.9201C48.3487 15.1801 48.4087 15.6201 48.4287 16.2101C48.4487 16.8101 48.3987 17.4301 48.2987 18.0501C48.1887 18.7301 47.9887 19.4401 47.7487 20.2401C47.5087 21.0401 47.2187 21.8601 46.8787 22.6901C46.6087 23.3501 46.3087 24.0101 45.9887 24.7201C45.8987 24.9201 45.8087 25.1201 45.7187 25.3201L45.6787 25.4001C45.4887 25.8201 45.2987 26.2501 45.1087 26.6801L44.4987 28.1001C44.0887 29.0401 43.6487 30.0101 43.1887 30.9801C42.7587 31.8901 42.2987 32.8701 41.8787 33.8301C41.5687 34.5201 41.2787 35.2201 40.9987 35.9001C40.8987 36.1401 40.7987 36.3901 40.6987 36.6301C40.3887 37.3701 40.0887 38.0901 39.8087 38.7901L39.6187 39.2501C39.3887 39.8001 39.1787 40.3401 38.9687 40.8501C38.8687 41.1101 38.7687 41.3601 38.6687 41.6001L37.8787 43.6001C37.2887 45.1601 36.8387 45.6401 35.5387 45.7001C35.4887 45.7001 35.4387 45.7001 35.3787 45.7001C35.1687 45.7001 34.9487 45.6801 34.7187 45.6701L32.5687 45.5901C32.3087 45.5901 32.0287 45.5701 31.7487 45.5701C31.1987 45.5501 30.6187 45.5301 30.0187 45.5201H29.5287C28.7687 45.4901 27.9887 45.4701 27.1887 45.4601C26.9287 45.4601 26.6687 45.4601 26.4087 45.4501C25.6787 45.4401 24.9187 45.4201 24.1587 45.4201C23.1787 45.4201 22.1987 45.4401 21.0287 45.4701C19.9487 45.5001 18.8887 45.5201 17.8587 45.5201H16.3187C15.8487 45.5001 15.3887 45.5101 14.9387 45.5201H14.8287C14.6087 45.5201 14.3887 45.5201 14.1787 45.5201C13.4087 45.5201 12.6787 45.5401 11.9687 45.5201C11.2787 45.5001 10.5987 45.4601 9.94871 45.4001C9.74871 45.3801 9.55871 45.3601 9.36871 45.3401C8.54871 45.2401 7.80871 45.1401 7.14871 44.9601C6.52871 44.8001 5.94871 44.5901 5.39871 44.3401C4.8587 44.0801 4.48871 43.8501 4.26871 43.7001C4.13871 43.6101 4.00871 43.5201 3.89871 43.4201C3.70871 43.3501 3.51871 43.3101 3.31871 43.2901C2.54871 43.2101 1.78871 43.5301 1.29871 44.1301C0.498705 45.1201 0.658705 46.5701 1.6387 47.3701C1.9887 47.6501 2.40871 47.8301 2.85871 47.8701C3.14871 47.9001 3.4487 47.8701 3.7387 47.7901C3.8187 47.7301 3.94871 47.6501 4.10871 47.5501C4.33871 47.4201 4.7287 47.2101 5.2887 47.0001C5.8487 46.7901 6.44871 46.6201 7.06871 46.5101C7.74871 46.3801 8.48871 46.3401 9.30871 46.3001C10.1387 46.2601 11.0187 46.2701 11.9087 46.3201C12.6287 46.3601 13.3587 46.4201 14.1287 46.4901C14.3387 46.5101 14.5587 46.5301 14.7687 46.5501H14.9287C15.3687 46.6001 15.8187 46.6401 16.2587 46.6701L17.7987 46.7701C18.5187 46.8201 19.2587 46.8901 20.0087 46.9601C20.3187 46.9901 20.6387 47.0201 20.9487 47.0501C21.3887 47.1001 21.8387 47.1401 22.2787 47.1801C22.9487 47.2401 23.5287 47.3001 24.0687 47.3401C24.8287 47.4001 25.5787 47.4401 26.3087 47.4901C26.5687 47.5101 26.8287 47.5201 27.0887 47.5401C27.8887 47.5901 28.6687 47.6301 29.4187 47.6701L29.9187 47.7001C30.5187 47.7301 31.0887 47.7601 31.6487 47.7801C31.9287 47.7901 32.1987 47.8101 32.4587 47.8201L34.1987 47.8901C34.6187 47.9101 35.5487 47.9401 35.5487 47.9301C38.3187 47.9301 38.9387 47.1801 39.9287 44.4301L40.7087 42.4301C40.7987 42.1901 40.8987 41.9401 40.9987 41.6801C41.1987 41.1601 41.4087 40.6201 41.6187 40.0501L41.7887 39.6001C42.0587 38.8901 42.3387 38.1601 42.6087 37.3901C42.6987 37.1501 42.7887 36.9001 42.8787 36.6601C43.1387 35.9701 43.3987 35.2601 43.6487 34.5401C43.9887 33.5601 44.3187 32.5301 44.6287 31.5701C44.9487 30.5501 45.2887 29.5401 45.6287 28.5701L46.1487 27.1201C46.2987 26.6901 46.4487 26.2601 46.5887 25.8401L46.6387 25.7101C46.7087 25.5001 46.7787 25.3001 46.8487 25.1001C47.0987 24.3701 47.3287 23.6701 47.5787 23.0101C47.8987 22.1701 48.2387 21.3601 48.6087 20.6201C48.9787 19.8801 49.3087 19.2201 49.6987 18.6501C50.0487 18.1201 50.4487 17.6401 50.8587 17.2101C51.2787 16.7901 51.6187 16.5101 51.8287 16.3601C51.9887 16.2401 52.1187 16.1601 52.1987 16.1101C52.6887 15.5301 52.8587 14.7601 52.6587 14.0201L52.7187 14.0101Z"
          fill="#10888A"></path>
    <path d="M33.7389 48.09L33.7089 47.99L33.3789 46.73C33.3089 46.47 33.2389 46.21 33.1689 45.93C33.0289 45.4 32.8789 44.84 32.7189 44.27L32.5889 43.79C32.3889 43.06 32.1789 42.31 31.9589 41.53C31.8889 41.28 31.8189 41.03 31.7489 40.78C31.5489 40.07 31.3489 39.35 31.1289 38.62C30.8489 37.68 30.5389 36.75 30.1789 35.64C29.8389 34.62 29.5189 33.61 29.2289 32.62L28.7989 31.14C28.6689 30.7 28.5289 30.26 28.3989 29.83L28.3589 29.71C28.2989 29.5 28.2289 29.3 28.1689 29.09C27.9389 28.35 27.7189 27.66 27.5289 26.97C27.2889 26.1 27.0989 25.25 26.9589 24.43C26.8189 23.61 26.6989 22.88 26.6789 22.2C26.6589 21.56 26.6789 20.94 26.7789 20.35C26.8689 19.76 26.9889 19.34 27.0689 19.09C27.1289 18.91 27.1889 18.76 27.2289 18.67C27.2789 17.91 26.9689 17.19 26.3689 16.71C26.0189 16.43 25.5989 16.26 25.1489 16.21C24.3689 16.13 23.6189 16.45 23.1289 17.06C22.5089 17.84 22.4589 18.93 22.9989 19.76C23.0789 19.82 23.1989 19.92 23.3389 20.05C23.5289 20.23 23.8389 20.55 24.2089 21.02C24.5689 21.49 24.8989 22.02 25.1889 22.59C25.4989 23.2 25.7589 23.9 26.0289 24.68C26.2989 25.47 26.5489 26.31 26.7589 27.18C26.9289 27.87 27.0789 28.59 27.2289 29.34C27.2689 29.55 27.3189 29.76 27.3589 29.98L27.3889 30.1C27.4789 30.54 27.5789 30.99 27.6789 31.44L28.0189 32.95C28.2389 33.95 28.4489 34.99 28.6489 36.05C28.8389 37.04 29.0489 38.1 29.2689 39.12C29.4289 39.86 29.6089 40.6 29.7789 41.31C29.8389 41.57 29.8989 41.82 29.9589 42.07C30.1489 42.86 30.3289 43.63 30.5189 44.37L30.6289 44.83C30.7689 45.41 30.9089 45.97 31.0389 46.5C31.1089 46.77 31.1789 47.04 31.2389 47.29L31.6589 48.94C31.6589 48.94 31.6789 49.03 31.6889 49.07L31.7689 49.37C31.8089 49.51 31.8389 49.65 31.8789 49.78C32.0389 50.42 32.1189 50.83 31.9989 51.25C31.8889 51.63 31.6589 52.01 31.1189 52.45C31.0789 52.48 31.0289 52.51 30.9889 52.54C30.8089 52.66 30.6289 52.78 30.4389 52.91L28.6589 54.11C28.4389 54.26 28.2189 54.41 27.9889 54.56C27.5289 54.87 27.0489 55.2 26.5589 55.54L26.1389 55.83C25.5189 56.26 24.8789 56.7 24.2289 57.16C24.0189 57.31 23.7989 57.46 23.5889 57.61C22.9889 58.03 22.3689 58.46 21.7589 58.91C20.9189 59.52 20.0589 60.18 19.2589 60.79C18.4089 61.45 17.5589 62.08 16.7289 62.69L15.4789 63.58C15.0989 63.85 14.7289 64.13 14.3689 64.4L14.2789 64.47C14.0989 64.6 13.9289 64.73 13.7589 64.86C13.1389 65.32 12.5489 65.76 11.9689 66.16C11.2289 66.67 10.4889 67.13 9.75894 67.54C9.03894 67.94 8.37894 68.29 7.74894 68.54C7.15894 68.77 6.55894 68.95 5.96894 69.06C5.38894 69.17 4.94894 69.2 4.67894 69.21C4.51894 69.21 4.36894 69.21 4.22894 69.21C3.27894 69.47 2.58894 70.32 2.53894 71.31C2.47894 72.54 3.38894 73.6 4.60894 73.72H4.71894C5.47894 73.76 6.19894 73.43 6.65894 72.83C6.68894 72.74 6.73894 72.59 6.81894 72.42C6.92894 72.18 7.11894 71.78 7.44894 71.28C7.77894 70.78 8.16894 70.29 8.60894 69.84C9.07894 69.34 9.65894 68.87 10.2989 68.35C10.9489 67.83 11.6589 67.32 12.4189 66.83C13.0189 66.44 13.6489 66.06 14.3089 65.67C14.4889 65.56 14.6789 65.45 14.8689 65.34L14.9789 65.27C15.3589 65.04 15.7589 64.8 16.1389 64.56L17.4489 63.74C18.3189 63.2 19.2389 62.66 20.1589 62.12C21.1689 61.53 22.0189 61.04 22.8489 60.52C23.4989 60.12 24.1289 59.71 24.7489 59.32L25.4089 58.9C26.0989 58.46 26.7589 58.03 27.3989 57.62L27.7889 57.36C28.2989 57.03 28.7789 56.71 29.2489 56.41C29.4789 56.26 29.6989 56.11 29.9189 55.97L31.1989 55.12C31.7689 54.79 32.2389 54.47 32.6389 54.16C32.6489 54.16 32.6589 54.15 32.6689 54.14C34.9789 52.29 34.4989 50.65 33.7989 48.13L33.7389 48.09Z"
          fill="#10888A"></path>
    <path d="M32.2282 56.44L31.4982 55.83L29.9382 54.55C29.7282 54.38 29.5182 54.21 29.3082 54.04C28.8782 53.69 28.4282 53.33 27.9582 52.96L27.5682 52.65C26.9782 52.18 26.3682 51.69 25.7282 51.19C25.5282 51.03 25.3282 50.87 25.1182 50.71C24.5382 50.25 23.9482 49.78 23.3382 49.32C22.5082 48.69 21.6382 48.06 20.8182 47.47C19.9482 46.84 19.0882 46.21 18.2682 45.59L17.0582 44.65C16.6982 44.37 16.3282 44.09 15.9682 43.83L15.8682 43.75C15.6882 43.62 15.5182 43.49 15.3482 43.36C14.7282 42.9 14.1482 42.47 13.5882 42.02C12.8882 41.46 12.2282 40.88 11.6282 40.3C11.0382 39.72 10.5082 39.2 10.0882 38.66C9.69817 38.16 9.35817 37.64 9.07817 37.11C8.80817 36.58 8.64817 36.17 8.56817 35.92C8.50817 35.74 8.46817 35.59 8.44817 35.49C8.06817 34.88 7.42817 34.49 6.71817 34.42C6.67817 34.42 6.63817 34.42 6.60817 34.42C5.33817 34.36 4.25817 35.34 4.19817 36.61C4.14817 37.6 4.75817 38.52 5.67817 38.87C5.74817 38.87 5.85817 38.87 5.97817 38.89C6.02817 38.89 6.07817 38.9 6.12817 38.91C6.38817 38.94 6.82817 39.02 7.39817 39.18C7.96817 39.35 8.54817 39.58 9.10817 39.87C9.71817 40.18 10.3382 40.59 11.0182 41.07C11.6982 41.55 12.3982 42.08 13.0782 42.66C13.6282 43.12 14.1682 43.61 14.7382 44.13C14.8982 44.27 15.0582 44.42 15.2182 44.57L15.3082 44.65C15.6382 44.95 15.9882 45.26 16.3382 45.57L17.4982 46.59C18.2582 47.27 19.0482 47.99 19.8282 48.72C20.6882 49.52 21.4082 50.19 22.1282 50.84C22.6982 51.35 23.2782 51.84 23.8382 52.32C24.0382 52.49 24.2282 52.66 24.4282 52.82C25.0382 53.34 25.6282 53.85 26.2082 54.34L26.5882 54.66C27.0382 55.05 27.4782 55.41 27.8982 55.77C28.1182 55.95 28.3282 56.13 28.5282 56.3L30.2282 57.72C31.1182 58.5 31.5482 58.89 31.6282 59.31C31.6882 59.64 31.5882 60.1 31.3282 60.9C31.2782 61.03 31.2282 61.17 31.1782 61.31L30.4382 63.33C30.3482 63.58 30.2582 63.83 30.1682 64.09C29.9782 64.61 29.7882 65.15 29.5882 65.72L29.4282 66.17C29.1782 66.89 28.9182 67.63 28.6482 68.4C28.5682 68.65 28.4782 68.89 28.3882 69.14C28.1482 69.83 27.8982 70.55 27.6682 71.27C27.3482 72.26 27.0382 73.29 26.7482 74.26C26.4482 75.29 26.1282 76.31 25.8082 77.28L25.3182 78.74C25.1782 79.18 25.0382 79.62 24.8982 80.05L24.8582 80.16C24.7882 80.37 24.7282 80.57 24.6682 80.78C24.4382 81.52 24.2182 82.22 23.9782 82.89C23.6782 83.74 23.3482 84.55 22.9982 85.31C22.6482 86.06 22.3282 86.73 21.9582 87.3C21.6182 87.84 21.2382 88.33 20.8282 88.77C20.4182 89.2 20.0782 89.49 19.8782 89.64C19.7282 89.76 19.5982 89.84 19.5082 89.9C18.8882 90.67 18.8282 91.77 19.3782 92.6C19.7582 93.19 20.3882 93.57 21.0882 93.64C21.6082 93.69 22.1182 93.57 22.5682 93.28C23.2082 92.86 23.5882 92.17 23.6182 91.41C23.5882 91.31 23.5482 91.17 23.5082 90.98C23.4482 90.72 23.3782 90.29 23.3482 89.69C23.3182 89.09 23.3482 88.47 23.4382 87.84C23.5282 87.16 23.7182 86.44 23.9382 85.64C24.1582 84.84 24.4382 84.01 24.7582 83.17C25.0082 82.5 25.2982 81.83 25.5982 81.12C25.6782 80.92 25.7682 80.72 25.8482 80.52L25.8982 80.4C26.0682 79.99 26.2482 79.57 26.4282 79.14L27.0082 77.71C27.3982 76.76 27.8182 75.78 28.2582 74.81C28.6682 73.89 29.0982 72.9 29.4982 71.94C29.7882 71.24 30.0682 70.53 30.3282 69.85C30.4282 69.61 30.5182 69.36 30.6182 69.12C30.9182 68.37 31.1982 67.64 31.4682 66.93L31.6482 66.47C31.8682 65.91 32.0682 65.37 32.2682 64.85C32.3682 64.59 32.4582 64.34 32.5482 64.1L32.8182 63.39C34.5182 59.31 34.5982 58.45 32.2682 56.48L32.2282 56.44Z"
          fill="#10888A"></path>
    <path d="M48.2785 96.4C48.1985 96.34 48.0785 96.25 47.9385 96.12C47.7385 95.94 47.4285 95.64 47.0485 95.17C46.6785 94.7 46.3285 94.18 46.0385 93.63C45.7085 93.03 45.4385 92.34 45.1485 91.56C44.8585 90.78 44.5885 89.94 44.3585 89.08C44.1685 88.39 44.0085 87.68 43.8385 86.93C43.7885 86.72 43.7385 86.51 43.6885 86.3L43.6585 86.19C43.5585 85.75 43.4485 85.3 43.3385 84.85L42.9585 83.35C42.7185 82.36 42.4785 81.32 42.2585 80.27C42.0085 79.12 41.7985 78.17 41.5785 77.22C41.3985 76.48 41.2085 75.75 41.0185 75.04C40.9485 74.79 40.8885 74.53 40.8185 74.28C40.6185 73.51 40.4185 72.76 40.2285 72.03L40.0985 71.53C39.9485 70.95 39.7885 70.4 39.6485 69.86C39.5785 69.59 39.4985 69.33 39.4285 69.08L38.9185 67.25C38.0085 63.5 36.9785 63.03 33.3385 62.99C29.6985 62.95 31.7585 62.9 31.7585 62.9C31.4885 62.89 31.2185 62.87 30.9385 62.86C30.3885 62.83 29.8185 62.8 29.2185 62.77L28.7185 62.75C27.9685 62.71 27.1885 62.68 26.3785 62.65C26.1185 62.65 25.8585 62.63 25.5985 62.62C24.8685 62.59 24.1085 62.56 23.3485 62.54C22.3085 62.52 21.2285 62.52 20.2185 62.52C19.1485 62.52 18.0785 62.52 17.0485 62.49L15.5085 62.44C15.0485 62.43 14.5785 62.42 14.1285 62.42H14.0185C13.7985 62.42 13.5785 62.42 13.3585 62.42C12.5885 62.42 11.8585 62.4 11.1485 62.37C10.6685 62.35 10.1885 62.31 9.7285 62.27C9.3285 62.23 8.9385 62.18 8.5585 62.13C7.7385 62.01 7.0085 61.89 6.3485 61.7C5.7385 61.53 5.1585 61.3 4.6185 61.04C4.0885 60.77 3.7185 60.53 3.5085 60.38C3.3485 60.27 3.2285 60.17 3.1585 60.1C2.9485 60.02 2.7385 59.96 2.5185 59.94C1.9885 59.89 1.4785 60.02 1.0385 60.31C-0.0215012 61.01 -0.321501 62.44 0.378499 63.5C0.758499 64.09 1.3885 64.46 2.0785 64.53C2.3585 64.56 2.6285 64.53 2.8985 64.46C2.9785 64.4 3.1085 64.32 3.2785 64.23C3.5085 64.1 3.9085 63.91 4.4685 63.7C5.0285 63.5 5.6385 63.35 6.2585 63.25C6.9385 63.14 7.6785 63.11 8.5085 63.09C9.3385 63.07 10.2185 63.09 11.1085 63.16C11.3685 63.18 11.6485 63.2 11.9585 63.23C12.3985 63.27 12.8485 63.32 13.3085 63.37C13.5185 63.39 13.7385 63.42 13.9585 63.44H14.0785C14.4785 63.5 14.8985 63.54 15.3185 63.58H15.4485L16.9885 63.73C18.0085 63.83 19.0685 63.95 20.1285 64.09C21.2985 64.24 22.2685 64.35 23.2385 64.45C23.3185 64.45 23.3985 64.47 23.4885 64.47C24.1585 64.54 24.8285 64.59 25.4785 64.64C25.7385 64.66 26.0085 64.68 26.2685 64.7C27.0785 64.77 27.8585 64.83 28.6185 64.88L29.1085 64.92C29.7085 64.97 30.2885 65.01 30.8385 65.04C31.1085 65.06 31.3785 65.08 31.6385 65.09L33.2085 65.19C35.4685 65.34 36.1285 65.67 36.5685 67.01C36.6185 67.2 36.6785 67.39 36.7285 67.6L37.3185 69.67C37.3885 69.92 37.4685 70.18 37.5485 70.45C37.6985 70.98 37.8685 71.54 38.0385 72.11L38.1785 72.56C38.3985 73.29 38.6185 74.05 38.8585 74.82C38.9385 75.07 39.0085 75.32 39.0885 75.57C39.2985 76.27 39.5185 77 39.7585 77.72C40.0785 78.71 40.4385 79.73 40.7785 80.68C41.1385 81.69 41.4785 82.7 41.7985 83.68L42.2585 85.15C42.3985 85.6 42.5485 86.05 42.6985 86.48L42.7285 86.57C42.7985 86.78 42.8685 86.98 42.9385 87.19C43.1885 87.92 43.4185 88.61 43.6185 89.3C43.8785 90.16 44.0885 91.01 44.2485 91.83C44.4085 92.64 44.5385 93.37 44.5785 94.05C44.6185 94.69 44.5985 95.31 44.5285 95.9C44.4485 96.49 44.3485 96.92 44.2685 97.17C44.2185 97.36 44.1585 97.5 44.1185 97.6C44.0685 98.59 44.6685 99.51 45.5985 99.86C45.7885 99.93 45.9985 99.98 46.1985 100C47.2285 100.1 48.1985 99.5 48.5685 98.53C48.8385 97.82 48.7485 97.03 48.3185 96.41L48.2785 96.4Z"
          fill="#10888A"></path>
    <path d="M50.4881 37.46C50.4881 37.46 50.4781 37.42 50.4681 37.4C50.4681 37.38 50.4581 37.35 50.4481 37.33C50.3981 37.13 50.3281 36.89 50.2581 36.63C50.1781 36.35 50.0981 36.03 49.9981 35.68C49.9381 35.48 49.8781 35.26 49.8181 35.04L49.2281 32.97C49.1581 32.72 49.0781 32.46 48.9981 32.19C48.8481 31.66 48.6781 31.1 48.5081 30.53L48.3681 30.07C48.1481 29.34 47.9281 28.58 47.6881 27.81C47.6081 27.56 47.5381 27.31 47.4581 27.06C47.2481 26.36 47.0281 25.63 46.7881 24.91C46.4681 23.92 46.1081 22.9 45.7681 21.95C45.4081 20.94 45.0681 19.93 44.7481 18.95L44.2881 17.48C44.1481 17.04 43.9981 16.6 43.8581 16.17L43.8181 16.06C43.7481 15.85 43.6781 15.65 43.6081 15.45C43.3581 14.72 43.1281 14.03 42.9281 13.34C42.6681 12.48 42.4581 11.63 42.2981 10.81C42.1381 9.99999 42.0081 9.26999 41.9681 8.58999C41.9281 7.94999 41.9481 7.32999 42.0181 6.73999C42.0981 6.14999 42.1981 5.71999 42.2781 5.46999C42.3281 5.27999 42.3881 5.13999 42.4281 5.03999C42.4781 4.04999 41.8781 3.12999 40.9481 2.77999C40.7581 2.70999 40.5481 2.65999 40.3481 2.63999C39.3181 2.53999 38.3481 3.13999 37.9781 4.10999C37.7081 4.81999 37.7981 5.60999 38.2281 6.22999C38.3081 6.28999 38.4281 6.37999 38.5681 6.50999C38.7681 6.68999 39.0781 6.98999 39.4581 7.45999C39.8281 7.92999 40.1781 8.44999 40.4681 8.99999C40.7981 9.59999 41.0681 10.3 41.3581 11.07C41.6481 11.85 41.9181 12.69 42.1481 13.55C42.3381 14.24 42.4981 14.95 42.6681 15.71C42.7181 15.92 42.7681 16.13 42.8181 16.34L42.8481 16.47C42.9481 16.9 43.0481 17.35 43.1581 17.79L43.5381 19.29C43.7781 20.29 44.0181 21.32 44.2381 22.37C44.4481 23.36 44.6781 24.41 44.9181 25.42C45.0981 26.16 45.2881 26.89 45.4781 27.6C45.5481 27.85 45.6081 28.1 45.6781 28.36C45.8781 29.14 46.0781 29.89 46.2781 30.62L46.4081 31.11C46.5581 31.69 46.7181 32.24 46.8581 32.78C46.9281 33.05 47.0081 33.31 47.0681 33.56L47.6481 35.63C47.7081 35.85 47.7781 36.07 47.8281 36.27C47.9281 36.62 48.0181 36.94 48.0981 37.22C48.1881 37.53 48.2681 37.8 48.3381 38.02V38.04C48.3881 38.17 48.4581 38.3 48.5581 38.41C48.9681 38.86 49.6581 38.9 50.1081 38.5C50.4181 38.23 50.5281 37.82 50.4481 37.45L50.4881 37.46Z"
          fill="#10888A"></path>
    <path d="M19.6085 26.81C20.2285 27.11 20.8485 27.51 21.5485 27.96C22.2385 28.42 22.9485 28.94 23.6485 29.5C24.2085 29.95 24.7585 30.43 25.3385 30.93C25.4985 31.07 25.6685 31.22 25.8285 31.36L25.8985 31.42C26.2485 31.72 26.5985 32.03 26.9585 32.33L28.1485 33.32C28.9285 33.98 29.7285 34.68 30.5285 35.4C31.3985 36.18 32.1385 36.83 32.8785 37.47C33.4585 37.96 34.0485 38.45 34.6085 38.91C34.8085 39.08 35.0085 39.24 35.2085 39.4C35.8385 39.92 36.4585 40.42 37.0485 40.9L37.4085 41.19C37.8785 41.57 38.3285 41.93 38.7585 42.28C38.9785 42.45 39.1885 42.62 39.3885 42.78L41.0785 44.11C41.2585 44.25 41.4285 44.38 41.5885 44.51C41.8785 44.74 42.1485 44.95 42.3885 45.13C42.6485 45.33 42.8785 45.51 43.0685 45.65C43.4785 45.93 44.0385 45.91 44.4285 45.56C44.8785 45.16 44.9185 44.46 44.5185 44.01C44.4885 43.98 44.4585 43.95 44.4285 43.93C44.3985 43.91 44.4185 43.92 44.4085 43.91C44.3785 43.89 44.3585 43.86 44.3285 43.84C44.1685 43.71 43.9785 43.56 43.7585 43.38C43.5285 43.2 43.2685 42.99 42.9885 42.76C42.8185 42.63 42.6485 42.49 42.4685 42.35L40.7785 41.03C40.5685 40.87 40.3585 40.7 40.1385 40.54C39.6985 40.2 39.2385 39.85 38.7585 39.48L38.3785 39.19C37.7785 38.73 37.1485 38.25 36.4985 37.76C36.2885 37.61 36.0885 37.45 35.8785 37.29C35.2885 36.85 34.6885 36.39 34.0685 35.94C33.2285 35.33 32.3385 34.72 31.5085 34.14C30.6185 33.53 29.7485 32.92 28.9185 32.32L27.6785 31.41C27.3085 31.14 26.9285 30.87 26.5685 30.61L26.4685 30.54C26.2885 30.41 26.1185 30.29 25.9385 30.17C25.3085 29.72 24.7085 29.3 24.1385 28.86C23.4285 28.31 22.7485 27.75 22.1385 27.18C21.5385 26.61 20.9985 26.1 20.5685 25.57C20.1685 25.08 19.8085 24.56 19.5185 24.04C19.2285 23.52 19.0685 23.11 18.9785 22.86C18.9185 22.68 18.8685 22.53 18.8485 22.43C18.4685 21.85 17.8385 21.47 17.1485 21.4C16.8785 21.37 16.5985 21.4 16.3285 21.47C15.7385 21.63 15.2385 22.01 14.9285 22.54C14.6185 23.07 14.5385 23.69 14.6985 24.29C14.8985 25.03 15.4385 25.61 16.1485 25.86C16.2385 25.86 16.3785 25.86 16.5485 25.88H16.5985C16.8585 25.91 17.2985 25.98 17.8785 26.13C18.4585 26.29 19.0385 26.51 19.6085 26.78V26.81Z"
          fill="#10888A"></path>
    <path d="M59.3384 32.77L59.9884 30.72C60.0684 30.47 60.1484 30.22 60.2284 29.95C60.3984 29.42 60.5684 28.86 60.7384 28.28L60.8784 27.83C61.0984 27.1 61.3284 26.34 61.5584 25.56C61.6284 25.31 61.7084 25.07 61.7784 24.82C61.9884 24.12 62.1984 23.39 62.4084 22.65C62.6784 21.64 62.9484 20.6 63.1884 19.62C63.4484 18.58 63.7084 17.55 63.9884 16.56L64.4084 15.08C64.5284 14.64 64.6484 14.19 64.7684 13.76L64.7984 13.64C64.8584 13.43 64.9084 13.22 64.9684 13.01C65.1684 12.26 65.3484 11.56 65.5584 10.87C65.8184 10.01 66.1084 9.18 66.4284 8.41C66.7484 7.64 67.0384 6.96 67.3784 6.37C67.6984 5.82 68.0584 5.31 68.4484 4.85C68.8384 4.4 69.1584 4.1 69.3584 3.93C69.5084 3.8 69.6284 3.71 69.7184 3.66C70.1684 3.05 70.2884 2.27 70.0384 1.55C69.7184 0.62 68.8384 0 67.8684 0C67.6084 0 67.3584 0.0400001 67.1184 0.13C66.1784 0.46 65.5584 1.36 65.5684 2.34C65.6084 2.43 65.6584 2.58 65.6984 2.77C65.7684 3.03 65.8584 3.46 65.9184 4.05C65.9784 4.64 65.9684 5.27 65.9184 5.9C65.8584 6.59 65.7084 7.31 65.5184 8.12C65.3284 8.93 65.0984 9.78 64.8084 10.63C64.5884 11.31 64.3284 11.99 64.0584 12.72C63.9784 12.92 63.9084 13.13 63.8284 13.33L63.7984 13.4C63.6384 13.83 63.4684 14.28 63.3084 14.73L62.7984 16.19C62.4484 17.15 62.0784 18.15 61.6884 19.15C61.3184 20.09 60.9284 21.1 60.5784 22.08C60.3184 22.8 60.0784 23.51 59.8384 24.21C59.7584 24.46 59.6684 24.7 59.5884 24.95C59.3284 25.71 59.0784 26.45 58.8484 27.16L58.6884 27.64C58.4984 28.21 58.3184 28.76 58.1484 29.29C58.0584 29.55 57.9784 29.81 57.8984 30.05L57.2384 32.1C57.1684 32.32 57.1084 32.53 57.0384 32.73C56.9284 33.08 56.8284 33.4 56.7384 33.68C56.6584 33.92 56.5984 34.14 56.5384 34.34C56.3684 34.75 56.4584 35.25 56.8084 35.57C57.2584 35.98 57.9484 35.95 58.3584 35.51C58.4584 35.41 58.5284 35.29 58.5684 35.16C58.6384 34.95 58.7284 34.67 58.8384 34.35C58.9284 34.07 59.0384 33.75 59.1484 33.39C59.2084 33.19 59.2784 32.99 59.3484 32.77H59.3384Z"
          fill="#10888A"></path>
    <path d="M42.0486 66.07C41.8486 66.19 41.6086 66.34 41.3286 66.52C41.0786 66.67 40.7986 66.85 40.4886 67.05C40.3086 67.16 40.1286 67.28 39.9286 67.4L38.1186 68.56C37.8986 68.7 37.6686 68.85 37.4386 69C36.9686 69.3 36.4886 69.62 35.9886 69.95L35.5686 70.23C34.9386 70.64 34.2886 71.07 33.6186 71.52C33.4086 71.66 33.1886 71.81 32.9686 71.95C32.3586 72.36 31.7286 72.78 31.1086 73.21C30.3086 73.77 29.5086 74.34 28.5686 75.04C27.7086 75.68 26.8386 76.29 25.9886 76.88L24.7186 77.74C24.3386 78 23.9586 78.27 23.5986 78.52L23.4986 78.59C23.3186 78.72 23.1486 78.84 22.9686 78.96C22.3386 79.41 21.7386 79.83 21.1386 80.22C20.3886 80.71 19.6286 81.16 18.8986 81.55C18.1686 81.93 17.5086 82.27 16.8586 82.5C16.2586 82.72 15.6586 82.88 15.0686 82.98C14.4786 83.08 14.0386 83.1 13.7786 83.1C13.5886 83.1 13.4286 83.1 13.3286 83.08C12.5886 83.26 11.9986 83.79 11.7286 84.5C11.2786 85.69 11.8786 87.02 13.0686 87.47C13.2586 87.54 13.4586 87.59 13.6586 87.61C14.4286 87.68 15.1886 87.36 15.6686 86.76C15.6986 86.66 15.7586 86.52 15.8386 86.35C15.9486 86.11 16.1586 85.72 16.4886 85.23C16.8286 84.74 17.2286 84.26 17.6786 83.81C18.1586 83.32 18.7486 82.87 19.4086 82.36C20.0686 81.86 20.7986 81.36 21.5586 80.89C22.1686 80.51 22.7986 80.15 23.4786 79.77C23.6686 79.66 23.8486 79.56 24.0386 79.45L24.1286 79.4C24.5186 79.17 24.9286 78.94 25.3286 78.7L26.6586 77.91C27.5386 77.39 28.4686 76.87 29.4086 76.35C30.4386 75.79 31.2886 75.31 32.1386 74.82C32.7886 74.44 33.4386 74.05 34.0586 73.67C34.2886 73.53 34.5086 73.39 34.7286 73.26C35.4286 72.84 36.0986 72.42 36.7486 72.02L37.1486 71.77C37.6586 71.46 38.1486 71.15 38.6186 70.85C38.8586 70.7 39.0786 70.56 39.2986 70.42L41.1086 69.27C41.3086 69.14 41.4886 69.02 41.6686 68.91C41.9786 68.71 42.2586 68.53 42.4986 68.37C42.7486 68.21 42.9686 68.06 43.1586 67.94C43.1786 67.94 43.1886 67.92 43.1986 67.91C43.2086 67.9 43.2886 67.85 43.3386 67.81C43.7886 67.41 43.8286 66.71 43.4286 66.26C43.0686 65.85 42.4686 65.78 42.0186 66.07H42.0486Z"
          fill="#10888A"></path>
    <path d="M134.098 24.85C134.898 24.69 135.618 24.56 136.298 24.52C136.928 24.48 137.538 24.49 138.128 24.56C138.718 24.63 139.138 24.74 139.388 24.81C139.568 24.86 139.718 24.92 139.808 24.95C140.558 24.98 141.268 24.65 141.718 24.05C142.478 23.05 142.278 21.62 141.278 20.86C141.118 20.74 140.938 20.64 140.758 20.56C140.048 20.27 139.238 20.37 138.608 20.8C138.548 20.88 138.458 21 138.328 21.14C138.158 21.34 137.848 21.65 137.398 22.02C136.938 22.39 136.428 22.73 135.878 23.03C135.278 23.36 134.598 23.63 133.838 23.92C133.068 24.21 132.248 24.48 131.388 24.71C130.708 24.9 129.998 25.06 129.258 25.24C129.048 25.29 128.848 25.34 128.638 25.39L128.528 25.42C128.098 25.52 127.648 25.63 127.198 25.74L125.718 26.12C124.738 26.36 123.708 26.6 122.678 26.83C121.698 27.04 120.658 27.28 119.658 27.52C118.928 27.7 118.208 27.89 117.508 28.08C117.258 28.15 117.008 28.21 116.758 28.28C115.988 28.48 115.238 28.69 114.518 28.89L114.048 29.02C113.468 29.18 112.918 29.33 112.388 29.48C112.128 29.55 111.868 29.63 111.628 29.69L109.588 30.27C109.368 30.33 109.158 30.4 108.968 30.45C108.618 30.55 108.298 30.65 108.018 30.73C107.678 30.83 107.428 30.91 107.248 30.96C107.168 30.98 107.098 31 107.018 31.04C106.478 31.3 106.248 31.95 106.498 32.49C106.738 32.99 107.298 33.22 107.808 33.06C108.038 33 108.308 32.92 108.628 32.84C108.908 32.76 109.228 32.67 109.578 32.57C109.778 32.51 109.988 32.45 110.198 32.39L112.238 31.8C112.488 31.72 112.748 31.65 113.018 31.57C113.548 31.41 114.088 31.25 114.648 31.08L115.098 30.94C115.818 30.72 116.568 30.5 117.328 30.25C117.568 30.17 117.818 30.1 118.068 30.02C118.758 29.8 119.478 29.58 120.188 29.35C121.168 29.02 122.168 28.67 123.108 28.33C124.108 27.97 125.098 27.62 126.068 27.3L127.518 26.84C127.958 26.7 128.388 26.55 128.808 26.41L128.918 26.37C129.128 26.3 129.328 26.23 129.528 26.16C130.248 25.91 130.928 25.68 131.608 25.47C132.458 25.21 133.298 25 134.108 24.84L134.098 24.85Z"
          fill="#10888A"></path>
    <path d="M76.3886 35.07L77.9486 33.63C78.1386 33.45 78.3286 33.27 78.5286 33.09C78.9286 32.71 79.3486 32.32 79.7786 31.91L80.1186 31.59C80.6686 31.07 81.2386 30.53 81.8186 29.97C81.9986 29.79 82.1886 29.62 82.3686 29.44C82.8886 28.94 83.4386 28.42 83.9686 27.88C84.6986 27.15 85.4386 26.38 86.1186 25.66C86.8486 24.89 87.5786 24.14 88.3086 23.42L89.3986 22.36C89.7186 22.04 90.0486 21.71 90.3586 21.4L90.4486 21.31C90.5986 21.16 90.7486 21 90.8986 20.85C91.4386 20.3 91.9386 19.79 92.4486 19.3C93.0986 18.69 93.7486 18.12 94.3986 17.62C95.0486 17.12 95.6286 16.67 96.2186 16.34C96.7586 16.02 97.3186 15.76 97.8786 15.56C98.4286 15.36 98.8586 15.27 99.1086 15.22C99.2986 15.18 99.4486 15.17 99.5486 15.16C100.229 14.85 100.719 14.24 100.859 13.5C101.039 12.55 100.589 11.59 99.7486 11.11C99.5286 10.98 99.2886 10.9 99.0386 10.85C98.0686 10.67 97.0886 11.14 96.6286 11.99C96.6086 12.09 96.5886 12.24 96.5386 12.42C96.4686 12.67 96.3386 13.09 96.0986 13.63C95.8586 14.17 95.5486 14.7 95.1886 15.21C94.7986 15.77 94.3086 16.32 93.7586 16.92C93.1986 17.53 92.5786 18.13 91.9186 18.73C91.3886 19.2 90.8386 19.67 90.2486 20.15C90.0886 20.29 89.9186 20.42 89.7586 20.56L89.6986 20.61C89.3486 20.9 88.9786 21.21 88.6286 21.52L87.4786 22.52C86.7086 23.18 85.8986 23.85 85.0686 24.52C84.2886 25.15 83.4686 25.82 82.6786 26.49C82.1086 26.98 81.5486 27.47 80.9986 27.96C80.8086 28.13 80.6086 28.3 80.4186 28.47C79.8186 28.99 79.2486 29.51 78.6986 30.01L78.3286 30.34C77.8886 30.74 77.4586 31.12 77.0486 31.49C76.8486 31.67 76.6486 31.85 76.4586 32.02L74.8886 33.46C74.7186 33.62 74.5586 33.76 74.4086 33.9C74.1386 34.15 73.8986 34.37 73.6886 34.57C73.5086 34.74 73.3386 34.9 73.1986 35.03C72.8486 35.3 72.6786 35.77 72.8186 36.22C72.9986 36.79 73.6086 37.11 74.1886 36.93C74.3186 36.89 74.4386 36.82 74.5386 36.74C74.7086 36.6 74.9186 36.4 75.1686 36.18C75.3886 35.98 75.6286 35.76 75.8986 35.51C76.0486 35.37 76.2086 35.23 76.3686 35.08L76.3886 35.07Z"
          fill="#10888A"></path>
</svg>