<?xml version="1.0" encoding="UTF-8"?>
<svg xmlns="http://www.w3.org/2000/svg" xmlns:xlink="http://www.w3.org/1999/xlink" width="14px" height="18px" viewBox="0 0 14 18" version="1.1">
<g id="surface1">
<path style=" stroke:none;fill-rule:nonzero;fill:rgb(0%,0%,0%);fill-opacity:1;" d="M 4 14 C 4 14.550781 3.550781 15 3 15 C 2.449219 15 2 14.550781 2 14 C 2 13.449219 2.449219 13 3 13 C 3.550781 13 4 13.449219 4 14 Z M 4 14 Z M 7 13 C 6.449219 13 6 13.449219 6 14 C 6 14.550781 6.449219 15 7 15 C 7.550781 15 8 14.550781 8 14 C 8 13.449219 7.550781 13 7 13 Z M 7 13 Z M 11 13 C 10.449219 13 10 13.449219 10 14 C 10 14.550781 10.449219 15 11 15 C 11.550781 15 12 14.550781 12 14 C 12 13.449219 11.550781 13 11 13 Z M 11 13 Z M 14 9 L 14 11 L 0 11 L 0 9 C 0 5.46875 2.609375 2.570312 6 2.078125 L 6 0 L 8 0 L 8 2.078125 C 11.390625 2.570312 14 5.46875 14 9 Z M 14 9 Z M 12 9 C 12 6.238281 9.761719 4 7 4 C 4.238281 4 2 6.238281 2 9 Z M 12 9 Z M 3 16 C 2.449219 16 2 16.449219 2 17 C 2 17.550781 2.449219 18 3 18 C 3.550781 18 4 17.550781 4 17 C 4 16.449219 3.550781 16 3 16 Z M 3 16 Z M 7 16 C 6.449219 16 6 16.449219 6 17 C 6 17.550781 6.449219 18 7 18 C 7.550781 18 8 17.550781 8 17 C 8 16.449219 7.550781 16 7 16 Z M 7 16 Z M 11 16 C 10.449219 16 10 16.449219 10 17 C 10 17.550781 10.449219 18 11 18 C 11.550781 18 12 17.550781 12 17 C 12 16.449219 11.550781 16 11 16 Z M 11 16 Z M 11 16 "/>
</g>
</svg>
