<svg id="screenshot" viewBox="606 26.16666666666663 14 18" width="14" height="18" version="1.1" xmlns="http://www.w3.org/2000/svg" xmlns:xlink="http://www.w3.org/1999/xlink" style="-webkit-print-color-adjust: exact;"><g id="shape-222c8fab-9fb7-11ec-a149-b71a8ea6d39c"><path d="M610,40.16666666666663C610,40.71666666666664,609.55,41.16666666666663,609,41.16666666666663C608.45,41.16666666666663,608,40.71666666666664,608,40.16666666666663C608,39.61666666666662,608.45,39.16666666666663,609,39.16666666666663C609.55,39.16666666666663,610,39.61666666666662,610,40.16666666666663ZZM613,39.16666666666663C612.45,39.16666666666663,612,39.61666666666662,612,40.16666666666663C612,40.71666666666664,612.45,41.16666666666663,613,41.16666666666663C613.55,41.16666666666663,614,40.71666666666664,614,40.16666666666663C614,39.61666666666662,613.55,39.16666666666663,613,39.16666666666663ZZM617,39.16666666666663C616.45,39.16666666666663,616,39.61666666666662,616,40.16666666666663C616,40.71666666666664,616.45,41.16666666666663,617,41.16666666666663C617.55,41.16666666666663,618,40.71666666666664,618,40.16666666666663C618,39.61666666666662,617.55,39.16666666666663,617,39.16666666666663ZZM620,35.16666666666663L620,37.16666666666663L606,37.16666666666663L606,35.16666666666663C606,31.636666666666656,608.6099999999999,28.736666666666622,612,28.24666666666667L612,26.16666666666663L614,26.16666666666663L614,28.24666666666667C617.3900000000001,28.736666666666622,620,31.636666666666656,620,35.16666666666663ZZM618,35.16666666666663C618,32.40666666666664,615.76,30.16666666666663,613,30.16666666666663C610.24,30.16666666666663,608,32.40666666666664,608,35.16666666666663L618,35.16666666666663ZZM609,42.16666666666663C608.45,42.16666666666663,608,42.61666666666662,608,43.16666666666663C608,43.71666666666664,608.45,44.16666666666663,609,44.16666666666663C609.55,44.16666666666663,610,43.71666666666664,610,43.16666666666663C610,42.61666666666662,609.55,42.16666666666663,609,42.16666666666663ZZM613,42.16666666666663C612.45,42.16666666666663,612,42.61666666666662,612,43.16666666666663C612,43.71666666666664,612.45,44.16666666666663,613,44.16666666666663C613.55,44.16666666666663,614,43.71666666666664,614,43.16666666666663C614,42.61666666666662,613.55,42.16666666666663,613,42.16666666666663ZZM617,42.16666666666663C616.45,42.16666666666663,616,42.61666666666662,616,43.16666666666663C616,43.71666666666664,616.45,44.16666666666663,617,44.16666666666663C617.55,44.16666666666663,618,43.71666666666664,618,43.16666666666663C618,42.61666666666662,617.55,42.16666666666663,617,42.16666666666663ZZ" style="fill: rgb(0, 0, 0);"/></g></svg>