<?xml version="1.0" encoding="UTF-8"?>
<svg xmlns="http://www.w3.org/2000/svg" xmlns:xlink="http://www.w3.org/1999/xlink" width="24px" height="24px" viewBox="0 0 24 24" version="1.1">
<g id="surface1">
<path style=" stroke:none;fill-rule:nonzero;fill:rgb(0%,0%,0%);fill-opacity:1;" d="M 20 12 C 20 10.898438 19.101562 10 18 10 L 18 7 C 18 5.898438 17.101562 5 16 5 L 8 5 C 6.898438 5 6 5.898438 6 7 L 6 10 C 4.898438 10 4 10.898438 4 12 L 4 17 L 5.328125 17 L 6 19 L 7 19 L 7.671875 17 L 16.339844 17 L 17 19 L 18 19 L 18.671875 17 L 20 17 Z M 20 12 Z M 16 10 L 13 10 L 13 7 L 16 7 Z M 16 10 Z M 8 7 L 11 7 L 11 10 L 8 10 Z M 8 7 Z M 6 12 L 18 12 L 18 15 L 6 15 Z M 6 12 Z M 6 12 "/>
</g>
</svg>
