<svg xmlns="http://www.w3.org/2000/svg" xml:space="preserve" width="24" height="24" viewBox="0 0 24 24"><path fill="currentColor" d="M18.967 2.78c-1.996-.007-5.084.586-6.977 2.71-1.283-1.543-3.039-2.385-5.023-2.385h-.06c-2.414.02-4.875 1.3-6.126 3.196a.542.542 0 0 0-.088.299v12.556a.543.543 0 0 0 .934.375c1.371-1.429 4.726-1.72 7.21-1.238 1.444.28 2.395.793 2.587 1.271.026.064.03.058.03.055 0 0-.053-.063.015.037.023.039.025.034.02.022l.005.006c.006.007.023.03.04.047a.534.534 0 0 0 .058.052.437.437 0 0 0 .146.084.8.8 0 0 0 .04.014h.001c.05.015.1.02.147.021.013 0 .015 0 .025-.002 0 .002-.013.002.028.002a.523.523 0 0 0 .38-.166c3.553-2.121 8.293-1.393 10.018-.543a.542.542 0 0 0 .783-.486V6.19a.55.55 0 0 0-.017-.134c-.1-.379-.907-1.17-2.08-1.733v-.748a.556.556 0 0 0-.018-.138c-.104-.392-.528-.503-.854-.561a7.32 7.32 0 0 0-1.224-.096Zm-.074 1.083c.483-.007.851.023 1.086.067v11.549c-1.644-.12-4.132.218-5.731.955a.543.543 0 0 0 .455.984c1.988-.916 4.492-1.052 5.705-.799a.543.543 0 0 0 .654-.531V5.548c.563.337.896.663 1.014.807v11.551c-2.175-.736-6.21-1.117-9.556.512V6.553c1.575-2.104 4.58-2.662 6.373-2.69ZM6.916 4.19c1.298-.007 3.113.398 4.52 2.358V18.08c-.751-.465-1.742-.727-2.391-.853-2.357-.459-5.369-.29-7.268.828V6.77c1.078-1.526 3.12-2.565 5.139-2.582Z" style="stroke-width:.395;stroke-dasharray:none"/></svg>