<?xml version="1.0" encoding="UTF-8" standalone="no"?>
<svg
   version="1.1"
   x="0px"
   y="0px"
   viewBox="0 0 24 24"
   enable-background="new 0 0 100 100"
   xml:space="preserve"
   id="svg2"
   sodipodi:docname="book.svg"
   width="24"
   height="24"
   inkscape:export-filename="New folder\book.svg"
   inkscape:export-xdpi="96"
   inkscape:export-ydpi="96"
   inkscape:version="1.3.2 (091e20e, 2023-11-25, custom)"
   xmlns:inkscape="http://www.inkscape.org/namespaces/inkscape"
   xmlns:sodipodi="http://sodipodi.sourceforge.net/DTD/sodipodi-0.dtd"
   xmlns="http://www.w3.org/2000/svg"
   xmlns:svg="http://www.w3.org/2000/svg"><defs
     id="defs2" /><sodipodi:namedview
     id="namedview2"
     pagecolor="#ffffff"
     bordercolor="#999999"
     borderopacity="1"
     inkscape:showpageshadow="2"
     inkscape:pageopacity="0"
     inkscape:pagecheckerboard="0"
     inkscape:deskcolor="#d1d1d1"
     inkscape:zoom="18.39609"
     inkscape:cx="12.910352"
     inkscape:cy="10.029305"
     inkscape:window-width="1920"
     inkscape:window-height="1009"
     inkscape:window-x="-8"
     inkscape:window-y="-8"
     inkscape:window-maximized="1"
     inkscape:current-layer="svg2" /><path
     fill="#000000"
     d="M 22.923377,6.1135227 C 22.845623,5.8194737 22.067673,5.0202109 20.835822,4.4625041 v -0.88886 c 0,-0.02724 -0.0032,-0.054074 -0.0099,-0.080128 C 20.758822,3.2393297 20.462805,3.1532859 20.152176,3.0980285 18.475502,2.7992422 14.212373,3.1038885 11.982334,5.8384129 10.729563,4.2166016 8.964871,3.3312951 6.9669121,3.3312951 c -0.019341,0 -0.03947,0 -0.058416,3.937e-4 C 4.5647828,3.3514314 2.1784415,4.5947216 0.9710622,6.4249331 0.9371205,6.476635 0.9193604,6.5370205 0.9193604,6.5989952 V 19.15669 c 0,0.129066 0.077755,0.245108 0.198138,0.292866 0.1180141,0.04855 0.2557639,0.01894 0.3453602,-0.07421 1.4430142,-1.504192 4.8997751,-1.795085 7.4183404,-1.305659 1.463933,0.284577 2.517775,0.824523 2.752225,1.409069 0.0047,0.01145 0.01229,0.02053 0.01855,0.03156 0.0032,0.0058 0.0032,0.01257 0.0072,0.01855 0.0039,0.0068 0.0099,0.01104 0.01382,0.01697 0.008,0.01036 0.0154,0.01973 0.02407,0.02881 0.01229,0.01299 0.02527,0.02487 0.03946,0.03552 0.0082,0.0068 0.01698,0.01341 0.02684,0.01933 0.01619,0.0099 0.03395,0.01777 0.05169,0.02448 0.009,0.0032 0.01776,0.008 0.02684,0.0099 0.02684,0.008 0.05485,0.01229 0.08407,0.01257 0,0 0,0 7.89e-4,0 v 0 0 c 0.0099,0 0.02092,-0.0032 0.03001,-0.0043 0.0078,7.9e-4 0.01382,0.0043 0.02171,0.0043 0.10024,0 0.186692,-0.05052 0.244318,-0.124332 3.625691,-2.179126 8.452052,-1.450908 10.255819,-0.561654 0.09789,0.04855 0.214322,0.04223 0.306681,-0.0154 0.09236,-0.05762 0.1488,-0.158668 0.1488,-0.267999 V 6.1940082 c -3.94e-4,-0.026835 -0.0035,-0.053684 -0.01064,-0.080518 z M 9.002003,17.450024 C 6.5268539,16.968888 3.3404609,17.195444 1.5505076,18.471502 V 6.695307 C 2.6619758,5.0754685 4.8043942,3.9809728 6.9144469,3.9632118 8.285232,3.9552574 10.193199,4.3823802 11.661475,6.4707247 V 18.517286 C 10.930887,17.909847 9.757452,17.596851 9.002003,17.450024 Z m 13.300122,0.77716 C 20.203911,17.41766 15.797904,16.910078 12.292991,18.786471 V 6.4730927 C 14.459879,3.4950993 19.291765,3.4662873 20.2047,3.7488901 v 0.9180673 c 0,0.00279 0,0.00516 0,0.00754 V 15.719317 c -1.60326,-0.171299 -4.212209,0.159063 -5.861257,0.91846 -0.157879,0.07303 -0.227344,0.2605 -0.154327,0.419168 0.07263,0.158275 0.25971,0.227741 0.418775,0.155116 2.030718,-0.935827 4.578489,-1.079497 5.847838,-0.815048 0.09316,0.01933 0.189454,-0.0039 0.263657,-0.06433 0.07422,-0.06 0.11643,-0.149985 0.11643,-0.245108 V 5.1643146 c 0.836366,0.4282465 1.34434,0.9342491 1.466301,1.1075209 z"
     id="path1"
     style="stroke-width:0.394698" /></svg>
