<?xml version="1.0" encoding="UTF-8"?>
<svg xmlns="http://www.w3.org/2000/svg" xmlns:xlink="http://www.w3.org/1999/xlink" width="24px" height="24px" viewBox="0 0 24 24" version="1.1">
<g id="surface1">
<path style=" stroke:none;fill-rule:nonzero;fill:rgb(0%,0%,0%);fill-opacity:1;" d="M 19 4 L 18 4 L 18 2 L 16 2 L 16 4 L 8 4 L 8 2 L 6 2 L 6 4 L 5 4 C 3.890625 4 3.011719 4.898438 3.011719 6 L 3 20 C 3 21.101562 3.890625 22 5 22 L 19 22 C 20.101562 22 21 21.101562 21 20 L 21 6 C 21 4.898438 20.101562 4 19 4 Z M 19 4 Z M 19 20 L 5 20 L 5 10 L 19 10 Z M 19 20 Z M 19 8 L 5 8 L 5 6 L 19 6 Z M 19 8 Z M 12 13 L 17 13 L 17 18 L 12 18 Z M 12 13 "/>
</g>
</svg>
