<svg width="18" height="20" viewBox="0 0 18 20" fill="none" xmlns="http://www.w3.org/2000/svg">
<path d="M5.82042 14.25C5.14014 14.25 4.56667 14.0151 4.1 13.5454C3.63333 13.0757 3.4 12.5007 3.4 11.8204C3.4 11.1401 3.63486 10.5667 4.10458 10.1C4.57429 9.63333 5.14929 9.4 5.82958 9.4C6.50986 9.4 7.08333 9.63486 7.55 10.1046C8.01667 10.5743 8.25 11.1493 8.25 11.8296C8.25 12.5099 8.01514 13.0833 7.54542 13.55C7.07571 14.0167 6.50071 14.25 5.82042 14.25ZM1.5 20C1.1 20 0.75 19.85 0.45 19.55C0.15 19.25 0 18.9 0 18.5V3C0 2.6 0.15 2.25 0.45 1.95C0.75 1.65 1.1 1.5 1.5 1.5H3.125V0H4.75V1.5H13.25V0H14.875V1.5H16.5C16.9 1.5 17.25 1.65 17.55 1.95C17.85 2.25 18 2.6 18 3V18.5C18 18.9 17.85 19.25 17.55 19.55C17.25 19.85 16.9 20 16.5 20H1.5ZM1.5 18.5H16.5V7.75H1.5V18.5ZM1.5 6.25H16.5V3H1.5V6.25Z" fill="currentColor"/>
</svg>
