<svg width="24" height="24" viewBox="0 0 24 24" fill="none" xmlns="http://www.w3.org/2000/svg">
<g id="event today recurring 1">
<path id="vector" fill-rule="evenodd" clip-rule="evenodd" d="M1.59 20.41C1.98 20.8 2.45 21 3 21H10V19H3V9H17V11H19V5C19 4.45 18.8 3.98 18.41 3.59C18.02 3.2 17.55 3 17 3H16V1H14V3H6V1H4V3H3C2.45 3 1.98 3.2 1.59 3.59C1.2 3.98 1 4.45 1 5V19C1 19.55 1.2 20.02 1.59 20.41ZM13.81 21.86C14.72 22.62 15.78 23 17 23L17.01 22.98C18.4 22.98 19.58 22.5 20.55 21.52C21.52 20.54 22.01 19.37 22.01 17.98C22.01 16.59 21.53 15.42 20.55 14.44C19.57 13.47 18.39 12.98 17.01 12.98C16.32 12.98 15.68 13.11 15.08 13.37C14.48 13.63 13.95 13.98 13.5 14.41V12.98H12V16.98H16V15.48H14.55C14.87 15.16 15.23 14.91 15.65 14.74C16.07 14.57 16.52 14.48 17 14.48C17.97 14.48 18.79 14.82 19.48 15.51C20.17 16.2 20.51 17.02 20.51 17.99C20.51 18.96 20.16 19.79 19.48 20.47C18.79 21.16 17.97 21.5 17 21.5C16.2 21.5 15.5 21.27 14.89 20.8C14.28 20.33 13.87 19.73 13.65 19H12.1C12.33 20.15 12.9 21.1 13.81 21.86ZM17 7H3V5H17V7ZM9.50999 12.62C9.50999 14.0062 8.38622 15.13 6.99999 15.13C5.61376 15.13 4.48999 14.0062 4.48999 12.62C4.48999 11.2338 5.61376 10.11 6.99999 10.11C8.38622 10.11 9.50999 11.2338 9.50999 12.62Z" fill="currentColor"/>
</g>
</svg>
