<?xml version="1.0" encoding="UTF-8" standalone="no"?>
<svg
   width="37.343178"
   height="37.402214"
   viewBox="0 0 37.343178 37.402212"
   fill="none"
   version="1.1"
   id="svg1"
   sodipodi:docname="calendar-events.svg"
   inkscape:version="1.3.2 (091e20e, 2023-11-25, custom)"
   xmlns:inkscape="http://www.inkscape.org/namespaces/inkscape"
   xmlns:sodipodi="http://sodipodi.sourceforge.net/DTD/sodipodi-0.dtd"
   xmlns="http://www.w3.org/2000/svg"
   xmlns:svg="http://www.w3.org/2000/svg">
  <defs
     id="defs1" />
  <sodipodi:namedview
     id="namedview1"
     pagecolor="#ffffff"
     bordercolor="#999999"
     borderopacity="1"
     inkscape:showpageshadow="2"
     inkscape:pageopacity="0"
     inkscape:pagecheckerboard="0"
     inkscape:deskcolor="#d1d1d1"
     inkscape:zoom="8.46875"
     inkscape:cx="6.0221402"
     inkscape:cy="17.298893"
     inkscape:window-width="1920"
     inkscape:window-height="1009"
     inkscape:window-x="-8"
     inkscape:window-y="-8"
     inkscape:window-maximized="1"
     inkscape:current-layer="event today">
    <inkscape:page
       x="0"
       y="0"
       width="37.343178"
       height="37.40221"
       id="page2"
       margin="0"
       bleed="0" />
  </sodipodi:namedview>
  <g
     id="event today"
     transform="translate(6.9077491,5.3136531)">
    <circle
       style="fill:#e9e8e9;fill-opacity:1"
       id="path2"
       cx="11.690034"
       cy="13.461254"
       r="18.302584" />
    <path
       id="Vector"
       d="M 5,22 C 4.45,22 3.97917,21.8042 3.5875,21.4125 3.19583,21.0208 3,20.55 3,20 V 6 C 3,5.45 3.19583,4.97917 3.5875,4.5875 3.97917,4.19583 4.45,4 5,4 H 6 V 2 h 2 v 2 h 8 V 2 h 2 v 2 h 1 c 0.55,0 1.0208,0.19583 1.4125,0.5875 C 20.8042,4.97917 21,5.45 21,6 v 14 c 0,0.55 -0.1958,1.0208 -0.5875,1.4125 C 20.0208,21.8042 19.55,22 19,22 Z M 5,20 H 19 V 10 H 5 Z M 5,8 H 19 V 6 H 5 Z"
       fill="currentColor"
       sodipodi:nodetypes="ssssssccccccccssssssscccccccccc"
       style="fill:#49454f;fill-opacity:1" />
    <path
       d="m 8.1752764,15.708487 c -0.7,0 -1.2917,-0.2417 -1.775,-0.725 -0.4833,-0.4833 -0.725,-1.075 -0.725,-1.775 0,-0.7 0.2417,-1.2917 0.725,-1.775 0.4833,-0.4833 1.075,-0.725 1.775,-0.725 0.7,0 1.2917,0.2417 1.7749998,0.725 0.4832998,0.4833 0.7249998,1.075 0.7249998,1.775 0,0.7 -0.2417,1.2917 -0.7249998,1.775 -0.4832998,0.4833 -1.0749998,0.725 -1.7749998,0.725 z"
       style="fill:#49454f;fill-opacity:1"
       id="path1"
       sodipodi:nodetypes="sssssssss" />
  </g>
</svg>
