<svg width="21" height="22" viewBox="0 0 21 22" fill="none" xmlns="http://www.w3.org/2000/svg">
<path d="M21 17C21 18.38 20.52 19.56 19.54 20.53C18.57 21.51 17.39 22 16 22C14.79 22 13.72 21.62 12.82 20.86C11.91 20.1 11.34 19.15 11.1 18H12.65C12.87 18.73 13.28 19.33 13.89 19.8C14.5 20.26 15.2 20.5 16 20.5C16.97 20.5 17.8 20.15 18.48 19.47C19.16 18.79 19.5 17.96 19.5 17C19.5 16.04 19.16 15.2 18.48 14.52C17.8 13.84 16.97 13.5 16 13.5C15.52 13.5 15.07 13.58 14.65 13.76C14.24 13.93 13.87 14.18 13.55 14.5H15V16H11V12H12.5V13.42C12.95 12.99 13.48 12.64 14.08 12.38C14.68 12.12 15.32 12 16 12C17.39 12 18.57 12.48 19.54 13.46C20.52 14.43 21 15.61 21 17Z" fill="currentColor"/>
<path d="M8.25002 11.83C8.25002 12.51 8.01002 13.08 7.54002 13.55C7.07002 14.01 6.50002 14.25 5.82002 14.25C5.14002 14.25 4.56002 14.01 4.10002 13.54C3.63002 13.07 3.40002 12.5 3.40002 11.82C3.40002 11.14 3.63002 10.56 4.10002 10.1C4.57002 9.63 5.15002 9.4 5.83002 9.4C6.51002 9.4 7.08002 9.63 7.55002 10.1C8.01002 10.57 8.25002 11.15 8.25002 11.83Z" fill="currentColor"/>
<path d="M17.55 1.95C17.25 1.65 16.9 1.5 16.5 1.5H14.88V0H13.25V1.5H4.75V0H3.13V1.5H1.5C1.1 1.5 0.75 1.65 0.45 1.95C0.15 2.25 0 2.6 0 3V18.5C0 18.9 0.15 19.25 0.45 19.55C0.75 19.85 1.1 20 1.5 20H9.6V18.5H1.5V7.75H16.5V10.5H18V3C18 2.6 17.85 2.25 17.55 1.95ZM16.5 6.25H1.5V3H16.5V6.25Z" fill="currentColor"/>
</svg>
