<svg width="21" height="22" viewBox="0 0 21 22" fill="none" xmlns="http://www.w3.org/2000/svg">
<path d="M1.5 20C1.1 20 0.75 19.85 0.45 19.55C0.15 19.25 0 18.9 0 18.5V3C0 2.6 0.15 2.25 0.45 1.95C0.75 1.65 1.1 1.5 1.5 1.5H3.125V0H4.75V1.5H13.25V0H14.875V1.5H16.5C16.9 1.5 17.25 1.65 17.55 1.95C17.85 2.25 18 2.6 18 3V10.5H16.5V7.75H1.5V18.5H9.6V20H1.5ZM16 22C14.7833 22 13.7208 21.6208 12.8125 20.8625C11.9042 20.1042 11.3333 19.15 11.1 18H12.65C12.8667 18.7333 13.2792 19.3333 13.8875 19.8C14.4958 20.2667 15.2 20.5 16 20.5C16.9667 20.5 17.7917 20.1583 18.475 19.475C19.1583 18.7917 19.5 17.9667 19.5 17C19.5 16.0333 19.1583 15.2083 18.475 14.525C17.7917 13.8417 16.9667 13.5 16 13.5C15.5167 13.5 15.0667 13.5875 14.65 13.7625C14.2333 13.9375 13.8667 14.1833 13.55 14.5H15V16H11V12H12.5V13.425C12.95 12.9917 13.475 12.6458 14.075 12.3875C14.675 12.1292 15.3167 12 16 12C17.3833 12 18.5625 12.4875 19.5375 13.4625C20.5125 14.4375 21 15.6167 21 17C21 18.3833 20.5125 19.5625 19.5375 20.5375C18.5625 21.5125 17.3833 22 16 22ZM1.5 6.25H16.5V3H1.5V6.25Z" fill="currentColor"/>
</svg>
