<svg width="24" height="24" viewBox="0 0 24 24" fill="none" xmlns="http://www.w3.org/2000/svg">
<g id="event today">
<path id="Vector" d="M14.5 18C13.8 18 13.2083 17.7583 12.725 17.275C12.2417 16.7917 12 16.2 12 15.5C12 14.8 12.2417 14.2083 12.725 13.725C13.2083 13.2417 13.8 13 14.5 13C15.2 13 15.7917 13.2417 16.275 13.725C16.7583 14.2083 17 14.8 17 15.5C17 16.2 16.7583 16.7917 16.275 17.275C15.7917 17.7583 15.2 18 14.5 18ZM5 22C4.45 22 3.97917 21.8042 3.5875 21.4125C3.19583 21.0208 3 20.55 3 20V6C3 5.45 3.19583 4.97917 3.5875 4.5875C3.97917 4.19583 4.45 4 5 4H6V2H8V4H16V2H18V4H19C19.55 4 20.0208 4.19583 20.4125 4.5875C20.8042 4.97917 21 5.45 21 6V20C21 20.55 20.8042 21.0208 20.4125 21.4125C20.0208 21.8042 19.55 22 19 22H5ZM5 20H19V10H5V20ZM5 8H19V6H5V8Z" fill="currentColor"/>
</g>
</svg>
