<svg width="48" height="48" viewBox="0 0 48 48" fill="none" xmlns="http://www.w3.org/2000/svg">
<g clip-path="url(#clip0_3279_946)">
<rect width="40" height="40" transform="translate(4 4)" fill="none" fill-opacity="0.12"/>
<path fill-rule="evenodd" clip-rule="evenodd" d="M31 16H30V14H28V16H20V14H18V16H17C15.89 16 15 16.9 15 18V32C15 33.1 15.89 34 17 34H31C32.1 34 33 33.1 33 32V18C33 16.9 32.1 16 31 16ZM31 32H17V21H31V32ZM18.5 25C18.5 23.62 19.62 22.5 21 22.5C22.38 22.5 23.5 23.62 23.5 25C23.5 26.38 22.38 27.5 21 27.5C19.62 27.5 18.5 26.38 18.5 25Z" fill="#49454F"/>
</g>
<defs>
<clipPath id="clip0_3279_946">
<rect x="4" y="4" width="40" height="40" rx="20" fill="white"/>
</clipPath>
</defs>
</svg>
