<svg id="screenshot" viewBox="601 201.82456140350877 24 24" width="24" height="24" version="1.1" xmlns="http://www.w3.org/2000/svg" xmlns:xlink="http://www.w3.org/1999/xlink" style="-webkit-print-color-adjust: exact;"><g id="shape-cb7dbb78-9f8e-11ec-a149-b71a8ea6d39c" height="24px" width="24px"><g id="shape-cb7dbb7e-9f8e-11ec-a149-b71a8ea6d39c"><path fill="none" d="M601,201.82456140350877L625,201.82456140350877L625,225.82456140350877L601,225.82456140350877L601,201.82456140350877ZZ"/></g><g id="shape-cb7dbb79-9f8e-11ec-a149-b71a8ea6d39c"><path d="M620,205.82456140350877L619,205.82456140350877L619,203.82456140350877L617,203.82456140350877L617,205.82456140350877L609,205.82456140350877L609,203.82456140350877L607,203.82456140350877L607,205.82456140350877L606,205.82456140350877C604.8900000000001,205.82456140350877,604.01,206.72456140350877,604.01,207.82456140350877L604,221.82456140350877C604,222.92456140350876,604.8900000000001,223.82456140350877,606,223.82456140350877L620,223.82456140350877C621.0999999999999,223.82456140350877,622,222.92456140350876,622,221.82456140350877L622,207.82456140350877C622,206.72456140350877,621.0999999999999,205.82456140350877,620,205.82456140350877ZZM620,221.82456140350877L606,221.82456140350877L606,211.82456140350877L620,211.82456140350877L620,221.82456140350877ZZM620,209.82456140350877L606,209.82456140350877L606,207.82456140350877L620,207.82456140350877L620,209.82456140350877ZZM613,214.82456140350877L618,214.82456140350877L618,219.82456140350877L613,219.82456140350877Z" style="fill: rgb(0, 0, 0);"/></g></g></svg>