<svg width="48" height="48" viewBox="0 0 48 48" fill="none" xmlns="http://www.w3.org/2000/svg">
<rect width="48" height="48" rx="24" fill="#FBDA16"/>
<path d="M18 32.4001C17.66 32.4001 17.375 32.2851 17.145 32.0551C16.915 31.8251 16.8 31.5401 16.8 31.2001V28.8001H32.4V18.0001H34.8C35.14 18.0001 35.425 18.1151 35.655 18.3451C35.885 18.5751 36 18.8601 36 19.2001V37.2001L31.2 32.4001H18ZM12 31.2001V14.4001C12 14.0601 12.115 13.7751 12.345 13.5451C12.575 13.3151 12.86 13.2001 13.2 13.2001H28.8C29.14 13.2001 29.425 13.3151 29.655 13.5451C29.885 13.7751 30 14.0601 30 14.4001V25.2001C30 25.5401 29.885 25.8251 29.655 26.0551C29.425 26.2851 29.14 26.4001 28.8 26.4001H16.8L12 31.2001ZM27.6 24.0001V15.6001H14.4V24.0001H27.6Z" fill="white"/>
</svg>
