<svg width="400" height="400" viewBox="0 0 400 400" fill="none" xmlns="http://www.w3.org/2000/svg">
<path d="M399.933 56.72V343.387C399.912 358.413 393.927 372.817 383.293 383.433C372.66 394.048 358.247 400.007 343.223 400H56.6572C41.633 399.993 27.2261 394.02 16.6023 383.395C5.97856 372.769 0.00706526 358.36 0 343.333V56.6667C0.00706526 41.6399 5.97856 27.2306 16.6023 16.6051C27.2261 5.97956 41.633 0.00706643 56.6572 0H343.276C358.309 0.010605 372.721 5.99155 383.346 16.6278C393.971 27.2641 399.937 41.6851 399.933 56.72Z" fill="#FBDA16"/>
<path d="M187.933 110.391V93.8102C185.919 93.0544 183.966 92.1452 182.09 91.0905C174.748 86.7272 169.218 79.8657 166.51 71.7589C163.801 63.652 164.096 54.8405 167.339 46.9329C169.141 42.6206 171.76 38.6981 175.051 35.3818C178.331 32.0968 182.221 29.4843 186.501 27.6907C190.814 25.8949 195.442 24.9802 200.113 25.0003C207.131 24.9993 213.991 27.0828 219.825 30.9871C225.66 34.8914 230.206 40.4408 232.888 46.9329C236.47 55.6134 236.47 65.3611 232.888 74.0416C231.103 78.3546 228.482 82.2707 225.176 85.5635L225.001 85.739C222.921 87.7872 220.607 89.5834 218.107 91.0905C216.253 92.1863 214.297 93.0972 212.265 93.8102V110.391H295.457C307.397 110.43 318.835 115.197 327.275 123.652C335.715 132.106 340.469 143.561 340.5 155.514V162.211H355.923C362.042 162.234 367.902 164.679 372.226 169.013C376.549 173.347 378.985 179.217 379 185.342V239.062C378.985 245.188 376.549 251.058 372.226 255.392C367.902 259.725 362.042 262.171 355.923 262.194H340.588V268.247C340.549 280.213 335.78 291.676 327.323 300.132C318.866 308.587 307.409 313.347 295.457 313.37H181.331L112.919 372.179C112.165 372.827 111.29 373.32 110.345 373.628C109.4 373.937 108.403 374.055 107.412 373.976C106.421 373.897 105.455 373.623 104.571 373.169C103.686 372.715 102.9 372.09 102.257 371.331C100.973 369.831 100.314 367.894 100.417 365.921L104.069 313.282H103.455C91.5312 313.252 80.1041 308.498 71.6699 300.06C63.2357 291.621 58.4799 280.185 58.4413 268.247V262.194H43.1057C36.9824 262.179 31.1144 259.737 26.7845 255.402C22.4547 251.067 20.0154 245.193 20 239.062V185.342C20.0154 179.217 22.4507 173.347 26.7742 169.013C31.0977 164.679 36.9583 162.234 43.0765 162.211H58.4413V155.485C58.4645 143.537 63.2135 132.085 71.6493 123.635C80.0852 115.184 91.5211 110.422 103.455 110.391H187.933ZM261.69 163.38C267.097 163.38 272.383 164.986 276.88 167.993C281.376 171.001 284.88 175.276 286.95 180.277C289.019 185.279 289.561 190.783 288.506 196.092C287.451 201.402 284.847 206.279 281.023 210.107C277.199 213.935 272.327 216.542 267.024 217.598C261.72 218.654 256.223 218.112 251.227 216.041C246.231 213.969 241.961 210.461 238.956 205.959C235.952 201.458 234.348 196.166 234.348 190.752C234.348 183.493 237.229 176.531 242.356 171.397C247.484 166.264 254.438 163.38 261.69 163.38ZM137.31 163.38C142.718 163.38 148.004 164.986 152.5 167.993C156.997 171.001 160.501 175.276 162.57 180.277C164.64 185.279 165.181 190.783 164.126 196.092C163.071 201.402 160.467 206.279 156.644 210.107C152.82 213.935 147.948 216.542 142.644 217.598C137.341 218.654 131.843 218.112 126.847 216.041C121.851 213.969 117.581 210.461 114.577 205.959C111.573 201.458 109.969 196.166 109.969 190.752C109.969 183.493 112.85 176.531 117.977 171.397C123.105 166.264 130.059 163.38 137.31 163.38ZM155.947 255.088C155.534 254.763 155.162 254.39 154.837 253.977C153.89 252.864 153.354 251.46 153.318 250C153.291 248.531 153.765 247.097 154.661 245.935C154.996 245.512 155.378 245.129 155.801 244.794C157.407 243.527 159.383 242.818 161.428 242.776C163.474 242.734 165.477 243.36 167.134 244.56C172.126 248.503 177.667 251.695 183.58 254.035C188.675 256.008 194.096 257 199.558 256.959C205.089 256.842 210.557 255.753 215.712 253.743C221.696 251.348 227.342 248.182 232.508 244.326C234.203 243.169 236.228 242.595 238.277 242.69C240.327 242.785 242.29 243.544 243.871 244.853C244.267 245.218 244.629 245.62 244.952 246.052C245.811 247.239 246.243 248.682 246.179 250.146C246.054 251.61 245.46 252.995 244.485 254.094C244.114 254.515 243.692 254.889 243.228 255.205C236.659 260.065 229.455 264.001 221.817 266.902C214.781 269.558 207.339 270.973 199.821 271.084C192.294 271.189 184.811 269.921 177.738 267.341C169.942 264.421 162.642 260.318 156.093 255.176L155.947 255.088ZM295.428 125.598H103.455C95.5419 125.629 87.9621 128.791 82.3693 134.396C76.7765 140 73.6248 147.592 73.6017 155.514V268.247C73.6248 276.17 76.7765 283.761 82.3693 289.365C87.9621 294.97 95.5419 298.133 103.455 298.164H112.715C114.717 298.313 116.58 299.248 117.898 300.765C119.216 302.282 119.883 304.258 119.755 306.264L116.834 348.901L173.21 300.328C173.912 299.625 174.745 299.07 175.663 298.693C176.581 298.317 177.564 298.127 178.556 298.134H295.399C303.312 298.103 310.892 294.941 316.485 289.336C322.077 283.732 325.229 276.14 325.252 268.218V155.485C325.237 147.568 322.091 139.98 316.502 134.379C310.913 128.778 303.336 125.621 295.428 125.598Z" fill="black"/>
</svg>
