<svg width="24" height="24" viewBox="0 0 400 400" fill="none" xmlns="http://www.w3.org/2000/svg">
<path d="M399.933 56.72V343.387C399.912 358.413 393.927 372.817 383.293 383.433C372.66 394.048 358.247 400.007 343.223 400H56.6572C41.633 399.993 27.2261 394.02 16.6023 383.395C5.97856 372.769 0.00706526 358.36 0 343.333V56.6667C0.00706526 41.6399 5.97856 27.2306 16.6023 16.6051C27.2261 5.97956 41.633 0.00706643 56.6572 0H343.276C358.309 0.010605 372.721 5.99155 383.346 16.6278C393.971 27.2641 399.937 41.6851 399.933 56.72Z" fill="var(--theme-color, none)"/>
<path d="M199.5 199.5C223.038 199.5 245.612 190.15 262.256 173.506C278.9 156.862 288.25 134.288 288.25 110.75C288.25 87.212 278.9 64.6381 262.256 47.9943C245.612 31.3504 223.038 22 199.5 22C175.962 22 153.388 31.3504 136.744 47.9943C120.1 64.6381 110.75 87.212 110.75 110.75C110.75 134.288 120.1 156.862 136.744 173.506C153.388 190.15 175.962 199.5 199.5 199.5ZM258.667 110.75C258.667 126.442 252.433 141.491 241.337 152.587C230.241 163.683 215.192 169.917 199.5 169.917C183.808 169.917 168.759 163.683 157.663 152.587C146.567 141.491 140.333 126.442 140.333 110.75C140.333 95.058 146.567 80.0087 157.663 68.9128C168.759 57.8169 183.808 51.5833 199.5 51.5833C215.192 51.5833 230.241 57.8169 241.337 68.9128C252.433 80.0087 258.667 95.058 258.667 110.75ZM377 347.417C377 377 347.417 377 347.417 377H51.5833C51.5833 377 22 377 22 347.417C22 317.833 51.5833 229.083 199.5 229.083C347.417 229.083 377 317.833 377 347.417ZM347.417 347.298C347.387 340.021 342.861 318.129 322.803 298.072C303.515 278.783 267.216 258.667 199.5 258.667C131.754 258.667 95.485 278.783 76.1967 298.072C56.1392 318.129 51.6425 340.021 51.5833 347.298H347.417Z" fill="black"/>
</svg>
