<svg width="30" height="30" viewBox="0 0 30 30" fill="none" xmlns="http://www.w3.org/2000/svg">
<path d="M9 22.4C8.66 22.4 8.375 22.285 8.145 22.055C7.915 21.825 7.8 21.54 7.8 21.2V18.8H23.4V7.99995H25.8C26.14 7.99995 26.425 8.11495 26.655 8.34495C26.885 8.57495 27 8.85995 27 9.19995V27.2L22.2 22.4H9ZM3 21.2V4.39995C3 4.05995 3.115 3.77495 3.345 3.54495C3.575 3.31495 3.86 3.19995 4.2 3.19995H19.8C20.14 3.19995 20.425 3.31495 20.655 3.54495C20.885 3.77495 21 4.05995 21 4.39995V15.2C21 15.54 20.885 15.825 20.655 16.055C20.425 16.285 20.14 16.4 19.8 16.4H7.8L3 21.2ZM18.6 14V5.59995H5.4V14H18.6Z" fill="white"/>
</svg>
