<svg width="24" height="25" viewBox="0 0 24 25" fill="none" xmlns="http://www.w3.org/2000/svg">
    <path d="M12 22.97C10.6167 22.97 9.31667 22.7075 8.1 22.1825C6.88333 21.6575 5.825 20.945 4.925 20.045C4.025 19.145 3.3125 18.0866 2.7875 16.87C2.2625 15.6533 2 14.3533 2 12.97C2 11.5866 2.2625 10.2866 2.7875 9.06997C3.3125 7.8533 4.025 6.79497 4.925 5.89497C5.825 4.99497 6.88333 4.28247 8.1 3.75747C9.31667 3.23247 10.6167 2.96997 12 2.96997C13.3833 2.96997 14.6833 3.23247 15.9 3.75747C17.1167 4.28247 18.175 4.99497 19.075 5.89497C19.975 6.79497 20.6875 7.8533 21.2125 9.06997C21.7375 10.2866 22 11.5866 22 12.97C22 14.3533 21.7375 15.6533 21.2125 16.87C20.6875 18.0866 19.975 19.145 19.075 20.045C18.175 20.945 17.1167 21.6575 15.9 22.1825C14.6833 22.7075 13.3833 22.97 12 22.97ZM13 20.895C14.9833 20.645 16.6458 19.7741 17.9875 18.2825C19.3292 16.7908 20 15.02 20 12.97C20 10.92 19.3292 9.14914 17.9875 7.65747C16.6458 6.1658 14.9833 5.29497 13 5.04497L13 20.895Z" fill="currentColor"/>
</svg>
