<svg width="24" height="25" viewBox="0 0 24 25" fill="none" xmlns="http://www.w3.org/2000/svg">
<path d="M8.70933 17.8793C8.36253 17.8793 8.06565 17.7558 7.81869 17.5089C7.57172 17.2619 7.44824 16.965 7.44824 16.6182V10.3128C7.44824 9.96602 7.57172 9.66914 7.81869 9.42218C8.06565 9.17521 8.36253 9.05173 8.70933 9.05173H9.33987V7.79065C9.33987 6.9184 9.64726 6.17489 10.262 5.56011C10.8768 4.94533 11.6203 4.63794 12.4926 4.63794C13.3648 4.63794 14.1083 4.94533 14.7231 5.56011C15.3379 6.17489 15.6453 6.9184 15.6453 7.79065V9.05173H16.2758C16.6226 9.05173 16.9195 9.17521 17.1665 9.42218C17.4134 9.66914 17.5369 9.96602 17.5369 10.3128V16.6182C17.5369 16.965 17.4134 17.2619 17.1665 17.5089C16.9195 17.7558 16.6226 17.8793 16.2758 17.8793H8.70933ZM8.70933 16.6182H16.2758V10.3128H8.70933V16.6182ZM12.4926 14.7266C12.8394 14.7266 13.1363 14.6031 13.3832 14.3562C13.6302 14.1092 13.7537 13.8123 13.7537 13.4655C13.7537 13.1187 13.6302 12.8218 13.3832 12.5749C13.1363 12.3279 12.8394 12.2044 12.4926 12.2044C12.1458 12.2044 11.8489 12.3279 11.6019 12.5749C11.355 12.8218 11.2315 13.1187 11.2315 13.4655C11.2315 13.8123 11.355 14.1092 11.6019 14.3562C11.8489 14.6031 12.1458 14.7266 12.4926 14.7266ZM10.601 9.05173H14.3842V7.79065C14.3842 7.2652 14.2003 6.81856 13.8325 6.45075C13.4647 6.08293 13.018 5.89902 12.4926 5.89902C11.9671 5.89902 11.5205 6.08293 11.1527 6.45075C10.7849 6.81856 10.601 7.2652 10.601 7.79065V9.05173Z" fill="#585858"/>
<circle cx="12" cy="12.5" r="11.4" stroke="#585858" stroke-width="1.2"/>
</svg>
