<svg width="16" height="16" viewBox="0 0 16 16" fill="none" xmlns="http://www.w3.org/2000/svg">
<g id="edit_location">
<path id="Vector" d="M11.7792 3.60093L11.0658 2.8876L7.36583 6.5876V7.3076H8.08583L11.7792 3.60093ZM11.1925 1.29426C11.2849 1.20074 11.3949 1.12648 11.5162 1.0758C11.6375 1.02512 11.7677 0.999023 11.8992 0.999023C12.0306 0.999023 12.1608 1.02512 12.2821 1.0758C12.4034 1.12648 12.5134 1.20074 12.6058 1.29426L13.3725 2.06093C13.7658 2.45426 13.7658 3.0876 13.3725 3.47426L8.51917 8.3276H6.3325V6.15426L11.1925 1.29426ZM8.8125 1.7876L7.59917 3.00093C5.39917 3.03426 3.66583 4.73426 3.66583 7.13426C3.66583 8.69426 4.96583 10.7609 7.66583 13.2276C10.3658 10.7609 11.6658 8.70093 11.6658 7.13426V7.0676L12.8658 5.8676C12.9525 6.2676 12.9992 6.69426 12.9992 7.13426C12.9992 9.3476 11.2192 11.9676 7.66583 15.0009C4.1125 11.9676 2.3325 9.3476 2.3325 7.13426C2.3325 3.81426 4.86583 1.6676 7.66583 1.6676C8.0525 1.6676 8.43917 1.7076 8.8125 1.7876Z" fill="#585858"/>
</g>
</svg>
