<svg width="24" height="24" viewBox="0 0 24 24" fill="none" xmlns="http://www.w3.org/2000/svg">
<g id="edit_location">
<path id="Vector" d="M17.6688 5.40146L16.5988 4.33146L11.0488 9.88146V10.9615H12.1288L17.6688 5.40146ZM16.7888 1.94146C16.9274 1.80117 17.0924 1.68978 17.2744 1.61376C17.4563 1.53774 17.6516 1.4986 17.8488 1.4986C18.046 1.4986 18.2412 1.53774 18.4232 1.61376C18.6051 1.68978 18.7702 1.80117 18.9088 1.94146L20.0588 3.09146C20.6488 3.68146 20.6488 4.63146 20.0588 5.21146L12.7788 12.4915H9.49878V9.23146L16.7888 1.94146ZM13.2188 2.68146L11.3988 4.50146C8.09878 4.55146 5.49878 7.10146 5.49878 10.7015C5.49878 13.0415 7.44878 16.1415 11.4988 19.8415C15.5488 16.1415 17.4988 13.0515 17.4988 10.7015V10.6015L19.2988 8.80146C19.4288 9.40146 19.4988 10.0415 19.4988 10.7015C19.4988 14.0215 16.8288 17.9515 11.4988 22.5015C6.16878 17.9515 3.49878 14.0215 3.49878 10.7015C3.49878 5.72146 7.29878 2.50146 11.4988 2.50146C12.0788 2.50146 12.6588 2.56146 13.2188 2.68146Z" fill="currentColor"/>
</g>
</svg>
