<svg id="screenshot" viewBox="1057 480.271754385965 24 24" width="24" height="24" version="1.1" xmlns="http://www.w3.org/2000/svg" xmlns:xlink="http://www.w3.org/1999/xlink" style="-webkit-print-color-adjust: exact;"><g id="shape-9eafddc0-9fb7-11ec-a149-b71a8ea6d39c" height="24px" width="24px"><g id="shape-9eb02be0-9fb7-11ec-a149-b71a8ea6d39c"><path fill="none" d="M1057,480.271754385965L1081,480.271754385965L1081,504.271754385965L1057,504.271754385965L1057,480.271754385965ZZ"/></g><g id="shape-9eb0c820-9fb7-11ec-a149-b71a8ea6d39c"><path d="M1079,486.271754385965C1079,485.17175438596496,1078.1,484.271754385965,1077,484.271754385965L1061,484.271754385965C1059.9,484.271754385965,1059,485.17175438596496,1059,486.271754385965L1059,498.271754385965C1059,499.371754385965,1059.9,500.271754385965,1061,500.271754385965L1077,500.271754385965C1078.1,500.271754385965,1079,499.371754385965,1079,498.271754385965L1079,486.271754385965ZZM1077,486.271754385965L1069,491.271754385965L1061,486.271754385965L1077,486.271754385965ZZM1077,498.271754385965L1061,498.271754385965L1061,488.271754385965L1069,493.271754385965L1077,488.271754385965L1077,498.271754385965ZZ" style="fill: rgb(0, 0, 0);"/></g></g></svg>