<?xml version="1.0" encoding="UTF-8"?>
<svg xmlns="http://www.w3.org/2000/svg" xmlns:xlink="http://www.w3.org/1999/xlink" width="24px" height="24px" viewBox="0 0 24 24" version="1.1">
<g id="surface1">
<path style=" stroke:none;fill-rule:nonzero;fill:rgb(0%,0%,0%);fill-opacity:1;" d="M 15 18.5 C 12.488281 18.5 10.320312 17.078125 9.238281 15 L 15 15 L 15 13 L 8.578125 13 C 8.53125 12.671875 8.5 12.339844 8.5 12 C 8.5 11.660156 8.53125 11.328125 8.578125 11 L 15 11 L 15 9 L 9.238281 9 C 10.320312 6.921875 12.5 5.5 15 5.5 C 16.609375 5.5 18.089844 6.089844 19.230469 7.070312 L 21 5.300781 C 19.410156 3.871094 17.300781 3 15 3 C 11.078125 3 7.761719 5.511719 6.519531 9 L 3 9 L 3 11 L 6.058594 11 C 6.019531 11.328125 6 11.660156 6 12 C 6 12.339844 6.019531 12.671875 6.058594 13 L 3 13 L 3 15 L 6.519531 15 C 7.761719 18.488281 11.078125 21 15 21 C 17.308594 21 19.410156 20.128906 21 18.699219 L 19.21875 16.929688 C 18.089844 17.910156 16.621094 18.5 15 18.5 Z M 15 18.5 Z M 15 18.5 "/>
</g>
</svg>
