<svg width="28" height="28" viewBox="0 0 28 28" fill="none" xmlns="http://www.w3.org/2000/svg">
<path d="M18.6667 12.6666C19.7713 12.6666 20.6667 11.7712 20.6667 10.6666C20.6667 9.56206 19.7713 8.66663 18.6667 8.66663C17.5622 8.66663 16.6667 9.56206 16.6667 10.6666C16.6667 11.7712 17.5622 12.6666 18.6667 12.6666Z" fill="black"/>
<path d="M9.33342 12.6666C10.438 12.6666 11.3334 11.7712 11.3334 10.6666C11.3334 9.56206 10.438 8.66663 9.33342 8.66663C8.22885 8.66663 7.33342 9.56206 7.33342 10.6666C7.33342 11.7712 8.22885 12.6666 9.33342 12.6666Z" fill="black"/>
<path d="M14.0001 19.3333C12.0267 19.3333 10.3334 18.2533 9.40008 16.6666H7.17342C8.24008 19.4 10.8934 21.3333 14.0001 21.3333C17.1067 21.3333 19.7601 19.4 20.8267 16.6666H18.6001C17.6667 18.2533 15.9734 19.3333 14.0001 19.3333ZM13.9867 0.666626C6.62675 0.666626 0.666748 6.63996 0.666748 14C0.666748 21.36 6.62675 27.3333 13.9867 27.3333C21.3601 27.3333 27.3334 21.36 27.3334 14C27.3334 6.63996 21.3601 0.666626 13.9867 0.666626ZM14.0001 24.6666C8.10675 24.6666 3.33341 19.8933 3.33341 14C3.33341 8.10663 8.10675 3.33329 14.0001 3.33329C19.8934 3.33329 24.6667 8.10663 24.6667 14C24.6667 19.8933 19.8934 24.6666 14.0001 24.6666Z" fill="black"/>
</svg>
