<?xml version="1.0" encoding="UTF-8"?>
<svg xmlns="http://www.w3.org/2000/svg" xmlns:xlink="http://www.w3.org/1999/xlink" width="24px" height="24px" viewBox="0 0 24 24" version="1.1">
<g id="surface1">
<path style=" stroke:none;fill-rule:nonzero;fill:rgb(0%,0%,0%);fill-opacity:1;" d="M 21 10 L 12.648438 10 C 11.828125 7.671875 9.609375 6 7 6 C 3.691406 6 1 8.691406 1 12 C 1 15.308594 3.691406 18 7 18 C 9.609375 18 11.828125 16.328125 12.648438 14 L 13 14 L 15 16 L 17 14 L 19 16 L 23 11.960938 Z M 21 10 Z M 7 15 C 5.351562 15 4 13.648438 4 12 C 4 10.351562 5.351562 9 7 9 C 8.648438 9 10 10.351562 10 12 C 10 13.648438 8.648438 15 7 15 Z M 7 15 Z M 7 15 "/>
</g>
</svg>
