<svg id="screenshot" viewBox="1042 43.333333333333314 24 24" width="24" height="24" version="1.1" xmlns="http://www.w3.org/2000/svg" xmlns:xlink="http://www.w3.org/1999/xlink" style="-webkit-print-color-adjust: exact;"><g id="shape-e614a5e0-a5d6-11ec-9469-bda5f2a532dd" enable-background="new 0 0 24 24" height="24px" width="24px"><g id="shape-e6357450-a5d6-11ec-9469-bda5f2a532dd"><g id="shape-e6361090-a5d6-11ec-9469-bda5f2a532dd"><rect fill="none" x="1042" y="43.333333333333314" transform="matrix(1,0,0,1,0,0)" width="24" height="24"/></g></g><g id="shape-e63637a0-a5d6-11ec-9469-bda5f2a532dd"><g id="shape-e63bdcf0-a5d6-11ec-9469-bda5f2a532dd"><path d="M1063,53.333333333333314L1054.65,53.333333333333314C1053.83,51.003333333333316,1051.61,49.333333333333314,1049,49.333333333333314C1045.69,49.333333333333314,1043,52.02333333333331,1043,55.333333333333314C1043,58.64333333333332,1045.69,61.333333333333314,1049,61.333333333333314C1051.61,61.333333333333314,1053.83,59.66333333333331,1054.65,57.333333333333314L1055,57.333333333333314L1057,59.333333333333314L1059,57.333333333333314L1061,59.333333333333314L1065,55.293333333333315L1063,53.333333333333314ZZM1049,58.333333333333314C1047.35,58.333333333333314,1046,56.98333333333331,1046,55.333333333333314C1046,53.683333333333316,1047.35,52.333333333333314,1049,52.333333333333314C1050.65,52.333333333333314,1052,53.683333333333316,1052,55.333333333333314C1052,56.98333333333331,1050.65,58.333333333333314,1049,58.333333333333314ZZ" style="fill: rgb(0, 0, 0);"/></g></g></g></svg>