<svg xmlns="http://www.w3.org/2000/svg" xmlns:xlink="http://www.w3.org/1999/xlink" width="24px" height="24px" viewBox="0 0 24 24" version="1.1">
    <g id="surface1">
        <path style="fill:none;stroke-width:1;stroke-linecap:round;stroke-linejoin:round;stroke:rgb(11.372549%,11.372549%,10.588235%);stroke-opacity:1;stroke-miterlimit:4;" d="M 13 25.001302 C 15.462891 25.005534 17.870768 24.243815 19.885091 22.830404 L 25.001302 25.001302 L 22.847331 19.855469 C 23.22819 19.313802 23.5625 18.742513 23.85026 18.141602 L 18.196615 18.141602 C 17.286784 20.968424 15.10319 23.37207 13 25.001302 Z M 13 25.001302 " transform="matrix(0.923077,0,0,0.923077,0,0)"/>
        <path style="fill:none;stroke-width:1;stroke-linecap:round;stroke-linejoin:round;stroke:rgb(11.372549%,11.372549%,10.588235%);stroke-opacity:1;stroke-miterlimit:4;" d="M 0.998698 13 C 0.998698 14.574219 1.307617 16.135742 1.91276 17.591471 C 2.513672 19.051432 3.398112 20.371745 4.511068 21.488932 C 5.628255 22.601888 6.948568 23.486328 8.408529 24.08724 C 9.864258 24.692383 11.425781 25.001302 13 25.001302 C 15.10319 23.37207 17.286784 20.968424 18.196615 18.141602 L 23.846029 18.141602 C 24.616211 16.516602 25.009766 14.739258 25.001302 12.940755 C 24.988607 11.138021 24.573893 9.364909 23.786784 7.748372 C 22.999674 6.131836 21.857096 4.709961 20.447917 3.592773 C 19.034505 2.479818 17.392578 1.692708 15.636393 1.299154 C 13.880208 0.901367 12.056315 0.905599 10.304362 1.311849 C 8.552409 1.713867 6.910482 2.50944 5.505534 3.630859 C 4.100586 4.75651 2.966471 6.182617 2.187826 7.803385 C 1.404948 9.424154 0.998698 11.201497 0.998698 13 Z M 0.998698 13 " transform="matrix(0.923077,0,0,0.923077,0,0)"/>
        <path style="fill:none;stroke-width:1;stroke-linecap:round;stroke-linejoin:round;stroke:rgb(11.372549%,11.372549%,10.588235%);stroke-opacity:1;stroke-miterlimit:4;" d="M 23.846029 7.86263 L 2.153971 7.86263 " transform="matrix(0.923077,0,0,0.923077,0,0)"/>
        <path style="fill:none;stroke-width:1;stroke-linecap:round;stroke-linejoin:round;stroke:rgb(11.372549%,11.372549%,10.588235%);stroke-opacity:1;stroke-miterlimit:4;" d="M 2.153971 18.145833 L 18.196615 18.145833 " transform="matrix(0.923077,0,0,0.923077,0,0)"/>
        <path style="fill:none;stroke-width:1;stroke-linecap:round;stroke-linejoin:round;stroke:rgb(11.372549%,11.372549%,10.588235%);stroke-opacity:1;stroke-miterlimit:4;" d="M 19.000651 13 C 19.004883 14.747721 18.734049 16.482747 18.196615 18.141602 " transform="matrix(0.923077,0,0,0.923077,0,0)"/>
        <path style="fill:none;stroke-width:1;stroke-linecap:round;stroke-linejoin:round;stroke:rgb(11.372549%,11.372549%,10.588235%);stroke-opacity:1;stroke-miterlimit:4;" d="M 19.000651 13 C 19.004883 11.25651 18.734049 9.517253 18.200846 7.858398 C 17.286784 5.035807 15.10319 2.62793 13 0.998698 " transform="matrix(0.923077,0,0,0.923077,0,0)"/>
        <path style="fill:none;stroke-width:1;stroke-linecap:round;stroke-linejoin:round;stroke:rgb(11.372549%,11.372549%,10.588235%);stroke-opacity:1;stroke-miterlimit:4;" d="M 13 25.001302 C 10.901042 23.37207 8.713216 20.968424 7.803385 18.141602 C 7.265951 16.482747 6.995117 14.747721 6.999349 13 " transform="matrix(0.923077,0,0,0.923077,0,0)"/>
        <path style="fill:none;stroke-width:1;stroke-linecap:round;stroke-linejoin:round;stroke:rgb(11.372549%,11.372549%,10.588235%);stroke-opacity:1;stroke-miterlimit:4;" d="M 6.999349 13 C 6.995117 11.252279 7.265951 9.517253 7.803385 7.858398 C 8.713216 5.031576 10.892578 2.62793 13 0.998698 " transform="matrix(0.923077,0,0,0.923077,0,0)"/>
    </g>
</svg>