<svg width="19" height="18" viewBox="0 0 19 18" fill="none" xmlns="http://www.w3.org/2000/svg">
  <path
    d="M0.549956 5.9302C0.883263 5.02694 1.34656 4.19034 1.94318 3.43374C2.99309 2.08718 4.31965 1.12725 5.92286 0.547301C6.95944 0.170664 8.02936 -0.0126542 9.1326 0.000678042C9.98587 0.0106772 10.8291 0.130668 11.6457 0.383981C14.0555 1.13725 15.8787 2.60714 17.062 4.84696C17.6553 5.9702 17.9719 7.17344 18.0452 8.44C18.0952 9.30327 18.0319 10.1565 17.8119 10.9965C17.6519 11.6097 17.4086 12.193 17.1586 12.7763C17.0286 13.0796 16.9053 13.3896 16.7787 13.6996C16.7487 13.7696 16.752 13.8329 16.7787 13.9029C17.162 14.8028 17.5386 15.7028 17.9219 16.6027C18.0152 16.826 18.1319 17.0426 18.0919 17.296C18.0919 17.3093 18.0919 17.3226 18.0919 17.3393C18.0819 17.386 18.0786 17.4359 18.0552 17.4759C17.9186 17.7259 17.7186 17.9059 17.4353 17.9759C17.1953 18.0326 16.962 17.9792 16.742 17.8859C15.8487 17.5026 14.9555 17.1193 14.0622 16.7293C13.9156 16.666 13.7856 16.6627 13.6489 16.7427C13.6256 16.7593 13.5989 16.7693 13.5756 16.786C12.3757 17.4759 11.0824 17.8692 9.70589 17.9726C8.89595 18.0359 8.09268 17.9892 7.29608 17.8359C5.7762 17.5426 4.40631 16.9227 3.22974 15.9161C1.10658 14.0996 0.0599952 11.7764 0 9.46992C0 7.94004 0.186652 6.92013 0.549956 5.9302ZM4.78295 2.96711C4.11967 3.43374 3.55971 4.00036 3.06309 4.65697H4.17967C4.38632 4.65697 4.59297 4.65031 4.79962 4.65697C4.86294 4.65697 4.89627 4.63031 4.91627 4.57698C5.12292 4.06369 5.38624 3.58039 5.69954 3.12376C5.92286 2.79712 6.16951 2.48715 6.40615 2.16717C6.42282 2.14717 6.43948 2.12717 6.46615 2.08718C5.85286 2.31383 5.29624 2.60047 4.77962 2.96377L4.78295 2.96711ZM5.74954 9.35326C5.7762 10.1165 5.8862 10.8665 6.06618 11.6064C6.07951 11.6631 6.11284 11.6597 6.15284 11.6597H8.89595C9.88921 11.6597 10.8825 11.6597 11.8757 11.6597C11.939 11.6597 11.9624 11.6431 11.979 11.5798C12.219 10.6132 12.3257 9.62991 12.289 8.63332C12.2624 7.88005 12.159 7.13677 11.9824 6.4035C11.9724 6.3635 11.9624 6.3435 11.9124 6.3435C9.9792 6.3435 8.04269 6.3435 6.10951 6.3435C6.10284 6.3435 6.09618 6.3435 6.06951 6.3435C6.01618 6.58349 5.96286 6.82347 5.91619 7.06678C5.77287 7.82005 5.71954 8.57999 5.74621 9.34993L5.74954 9.35326ZM9.01594 1.87386C8.11268 2.67046 7.32275 3.55039 6.74279 4.62031H11.2858C11.2124 4.20034 9.69589 2.36382 9.01594 1.87386ZM11.5957 2.10384C11.7957 2.37049 11.989 2.62047 12.1724 2.87711C12.539 3.38707 12.849 3.9337 13.1056 4.50698C13.1489 4.60364 13.2089 4.65364 13.3223 4.65364C13.7922 4.65364 14.2655 4.65364 14.7355 4.65697H14.9788C14.0922 3.4704 12.9756 2.61714 11.5924 2.10384H11.5957ZM16.222 10.6198C16.3487 10.1099 16.4087 9.58658 16.412 9.05662C16.4187 8.13669 16.2454 7.25343 15.9287 6.3935C15.9121 6.35017 15.8954 6.32684 15.8421 6.32684C15.1388 6.32684 14.4322 6.32017 13.7289 6.31351C13.7156 6.31351 13.7022 6.31351 13.6756 6.31351C14.0589 8.10003 14.0589 9.88322 13.6756 11.6597H15.9287C16.0287 11.3098 16.1387 10.9665 16.2254 10.6165L16.222 10.6198ZM12.0524 15.7128C12.4223 15.5494 12.7723 15.3528 13.1056 15.1261C13.4756 14.8728 13.8589 14.8428 14.2689 15.0195C14.7155 15.2128 15.1655 15.4028 15.6121 15.5928C15.6321 15.5994 15.6554 15.6061 15.6754 15.6161C15.5454 15.3061 15.4221 14.9995 15.2954 14.6962C15.2388 14.5562 15.1788 14.4195 15.1121 14.2829C15.0321 14.1062 14.9788 13.9196 14.9755 13.7262C14.9755 13.5996 14.9988 13.4696 15.0121 13.3363C15.0088 13.3363 14.9888 13.3363 14.9721 13.3363C14.3955 13.3363 13.8189 13.3363 13.2456 13.3396C13.1956 13.3396 13.1689 13.3496 13.1489 13.3996C12.7723 14.2862 12.2457 15.0828 11.6357 15.8227C11.6157 15.8461 11.5991 15.8661 11.5891 15.9027C11.7457 15.8394 11.9024 15.7794 12.0524 15.7128ZM9.00595 16.0994C9.57257 15.7694 11.0258 14.0262 11.2824 13.3696H6.73613C7.31941 14.4362 8.11268 15.3128 9.00595 16.0994ZM3.21641 13.6029C3.59305 14.0862 4.04968 14.4829 4.54297 14.8395C5.11626 15.2495 5.72621 15.5928 6.37949 15.8561C6.39949 15.8627 6.41949 15.8694 6.45282 15.8827C6.34283 15.7128 6.2395 15.5561 6.13951 15.3994C5.74287 14.7695 5.34624 14.1429 4.95627 13.5129C4.87961 13.3863 4.79295 13.3296 4.6363 13.3329C4.12967 13.3396 3.62304 13.3329 3.11308 13.3263H3.01309C3.08642 13.4296 3.14641 13.5196 3.20974 13.6063L3.21641 13.6029ZM1.6332 9.30993C1.66653 10.0965 1.83652 10.8565 2.10983 11.5931C2.12316 11.6331 2.14316 11.6631 2.19316 11.6631C2.89977 11.6631 3.60638 11.6697 4.31632 11.6731C4.32965 11.6731 4.33965 11.6731 4.36298 11.6731C3.98301 9.88989 3.98301 8.11003 4.36298 6.32017H4.26966C3.57638 6.32351 2.8831 6.33017 2.18982 6.33017C2.13983 6.33017 2.1165 6.34684 2.10316 6.39017C1.75653 7.33343 1.58654 8.30335 1.62987 9.30993H1.6332Z"
    fill="black" />
</svg>