<svg id="screenshot" viewBox="643 24.16666666666663 21 22" width="21" height="22" version="1.1" xmlns="http://www.w3.org/2000/svg" xmlns:xlink="http://www.w3.org/1999/xlink" style="-webkit-print-color-adjust: exact;"><g id="shape-222c8fa1-9fb7-11ec-a149-b71a8ea6d39c"><path d="M653.5,31.16666666666663C655.4300000000001,31.16666666666663,657,32.73666666666662,657,34.66666666666663C657,36.596666666666636,655.4300000000001,38.16666666666663,653.5,38.16666666666663C651.5699999999999,38.16666666666663,650,36.596666666666636,650,34.66666666666663C650,32.73666666666662,651.5699999999999,31.16666666666663,653.5,31.16666666666663ZZM658.03,31.546666666666624L662,27.586666666666645L662,30.16666666666663L664,30.16666666666663L664,24.16666666666663L658,24.16666666666663L658,26.16666666666663L660.5799999999999,26.16666666666663L656.6099999999999,30.136666666666656C655.73,29.526666666666642,654.6600000000001,29.16666666666663,653.5,29.16666666666663C652.3399999999999,29.16666666666663,651.27,29.526666666666642,650.3900000000001,30.136666666666656L649.74,29.486666666666622L651.1500000000001,28.076666666666654L649.74,26.656666666666638L648.3199999999999,28.066666666666663L646.4200000000001,26.16666666666663L649,26.16666666666663L649,24.16666666666663L643,24.16666666666663L643,30.16666666666663L645,30.16666666666663L645,27.586666666666645L646.9100000000001,29.486666666666622L645.49,30.906666666666638L646.9000000000001,32.31666666666666L648.31,30.906666666666638L648.96,31.556666666666615C648.3599999999999,32.43666666666667,648,33.50666666666666,648,34.66666666666663C648,37.36666666666662,649.94,39.60666666666663,652.5,40.076666666666654L652.5,42.16666666666663L650.5,42.16666666666663L650.5,44.16666666666663L652.5,44.16666666666663L652.5,46.16666666666663L654.5,46.16666666666663L654.5,44.16666666666663L656.5,44.16666666666663L656.5,42.16666666666663L654.5,42.16666666666663L654.5,40.076666666666654C657.06,39.60666666666663,659,37.36666666666662,659,34.66666666666663C659,33.50666666666666,658.6400000000001,32.43666666666667,658.03,31.546666666666624ZZ" style="fill: rgb(0, 0, 0);"/></g></svg>