<?xml version="1.0" encoding="UTF-8"?>
<svg xmlns="http://www.w3.org/2000/svg" xmlns:xlink="http://www.w3.org/1999/xlink" width="21px" height="22px" viewBox="0 0 21 22" version="1.1">
<g id="surface1">
<path style=" stroke:none;fill-rule:nonzero;fill:rgb(0%,0%,0%);fill-opacity:1;" d="M 10.5 7 C 12.429688 7 14 8.570312 14 10.5 C 14 12.429688 12.429688 14 10.5 14 C 8.570312 14 7 12.429688 7 10.5 C 7 8.570312 8.570312 7 10.5 7 Z M 10.5 7 Z M 15.03125 7.378906 L 19 3.421875 L 19 6 L 21 6 L 21 0 L 15 0 L 15 2 L 17.578125 2 L 13.609375 5.96875 C 12.730469 5.359375 11.660156 5 10.5 5 C 9.339844 5 8.269531 5.359375 7.390625 5.96875 L 6.738281 5.320312 L 8.148438 3.910156 L 6.738281 2.488281 L 5.320312 3.898438 L 3.421875 2 L 6 2 L 6 0 L 0 0 L 0 6 L 2 6 L 2 3.421875 L 3.910156 5.320312 L 2.488281 6.738281 L 3.898438 8.148438 L 5.308594 6.738281 L 5.960938 7.390625 C 5.359375 8.269531 5 9.339844 5 10.5 C 5 13.199219 6.941406 15.441406 9.5 15.910156 L 9.5 18 L 7.5 18 L 7.5 20 L 9.5 20 L 9.5 22 L 11.5 22 L 11.5 20 L 13.5 20 L 13.5 18 L 11.5 18 L 11.5 15.910156 C 14.058594 15.441406 16 13.199219 16 10.5 C 16 9.339844 15.640625 8.269531 15.03125 7.378906 Z M 15.03125 7.378906 Z M 15.03125 7.378906 "/>
</g>
</svg>
