<svg xmlns="http://www.w3.org/2000/svg" width="24" height="24" viewBox="0 0 24 24">
  <path
    d="M 10.800781 18 L 6 18 C 4.339844 18 2.925781 17.414062 1.753906 16.246094 C 0.585938 15.074219 0 13.660156 0 12 C 0 10.339844 0.585938 8.925781 1.753906 7.753906 C 2.925781 6.585938 4.339844 6 6 6 L 10.800781 6 L 10.800781 8.398438 L 6 8.398438 C 5 8.398438 4.148438 8.75 3.449219 9.449219 C 2.75 10.148438 2.398438 11 2.398438 12 C 2.398438 13 2.75 13.851562 3.449219 14.550781 C 4.148438 15.25 5 15.601562 6 15.601562 L 10.800781 15.601562 Z M 7.199219 13.199219 L 7.199219 10.800781 L 16.800781 10.800781 L 16.800781 13.199219 Z M 13.199219 18 L 13.199219 15.601562 L 18 15.601562 C 19 15.601562 19.851562 15.25 20.550781 14.550781 C 21.25 13.851562 21.601562 13 21.601562 12 C 21.601562 11 21.25 10.148438 20.550781 9.449219 C 19.851562 8.75 19 8.398438 18 8.398438 L 13.199219 8.398438 L 13.199219 6 L 18 6 C 19.660156 6 21.074219 6.585938 22.246094 7.753906 C 23.414062 8.925781 24 10.339844 24 12 C 24 13.660156 23.414062 15.074219 22.246094 16.246094 C 21.074219 17.414062 19.660156 18 18 18 Z M 13.199219 18 "
    fill="currentColor" />
</svg>