<svg width="22" height="28" viewBox="0 0 22 28" fill="none" xmlns="http://www.w3.org/2000/svg">
  <path
    d="M11 14C9.53337 14 8.33337 12.8 8.33337 11.3333C8.33337 9.86667 9.53337 8.66667 11 8.66667C12.4667 8.66667 13.6667 9.86667 13.6667 11.3333C13.6667 12.8 12.4667 14 11 14ZM19 11.6C19 6.76 15.4667 3.33334 11 3.33334C6.53337 3.33334 3.00004 6.76 3.00004 11.6C3.00004 14.72 5.60004 18.8533 11 23.7867C16.4 18.8533 19 14.72 19 11.6ZM11 0.666672C16.6 0.666672 21.6667 4.96 21.6667 11.6C21.6667 16.0267 18.1067 21.2667 11 27.3333C3.89337 21.2667 0.333374 16.0267 0.333374 11.6C0.333374 4.96 5.40004 0.666672 11 0.666672Z"
    fill="black" />
</svg>