<svg width="24" height="24" viewBox="0 0 24 24" fill="none" xmlns="http://www.w3.org/2000/svg">
<g clip-path="url(#clip0_304_819)">
<path d="M12.0941 4.09412C9.60001 4.09412 7.62354 6.11765 7.62354 8.5647C7.62354 11.0118 9.64706 13.0353 12.0941 13.0353C14.5412 13.0353 16.5647 11.0118 16.5647 8.5647C16.5647 6.11765 14.5412 4.09412 12.0941 4.09412Z" stroke="black" stroke-miterlimit="10"/>
<path d="M12.0941 0.752945C7.67059 0.752945 4.04706 4.32942 4.04706 8.75295C4.04706 15.2941 11.3882 22.7294 11.7176 23.0118L12.0471 23.3412L12.3765 23.0118C12.7529 22.6824 20.0941 14.9647 20.0941 8.75295C20.0941 4.32942 16.5176 0.752945 12.0941 0.752945Z" stroke="black" stroke-miterlimit="10"/>
</g>
<defs>
<clipPath id="clip0_304_819">
<rect width="24" height="24" fill="white"/>
</clipPath>
</defs>
</svg>
