<svg width="32" height="32" viewBox="0 0 32 32" fill="none" xmlns="http://www.w3.org/2000/svg">
<path fill-rule="evenodd" clip-rule="evenodd" d="M4 15.6401C4 8.95176 9.24004 4.00008 16 4.00008C22.76 4.00008 28 8.95176 28 15.6401C28 22.3284 22.76 27.2801 16 27.2801C14.7858 27.2801 13.6209 27.1198 12.5264 26.8188C12.3136 26.7602 12.0874 26.7768 11.8854 26.8658L9.50361 27.9173C8.88057 28.1923 8.17727 27.7493 8.15639 27.0684L8.09104 24.9338C8.083 24.6708 7.96468 24.425 7.76867 24.2496C5.43376 22.1615 4 19.1385 4 15.6401ZM12.319 13.4517L8.79405 19.0441C8.45577 19.5808 9.11548 20.1856 9.62085 19.8021L13.4073 16.9285C13.6634 16.7341 14.0174 16.7331 14.2746 16.926L17.0782 19.0287C17.9195 19.6597 19.1202 19.4382 19.681 18.5485L23.206 12.956C23.5442 12.4193 22.8845 11.8145 22.3791 12.198L18.5927 15.0717C18.3366 15.2661 17.9826 15.2671 17.7254 15.0741L14.9218 12.9714C14.0805 12.3405 12.8798 12.562 12.319 13.4517Z" fill="#585858"/>
</svg>
