<svg width="25" height="22" viewBox="-0.5 -0.3333 25 22" fill="none" xmlns="http://www.w3.org/2000/svg">
  <path fill-rule="evenodd" clip-rule="evenodd"
    d="M9.35348 16.5029H3.97648C3.54448 16.5029 3.19348 16.8539 3.19348 17.2849C3.19348 17.7169 3.54448 18.0669 3.97648 18.0669H9.35348C9.78448 18.0669 10.1355 17.7169 10.1355 17.2849C10.1355 16.8539 9.78448 16.5029 9.35348 16.5029Z"
    fill="#000000" />
  <path fill-rule="evenodd" clip-rule="evenodd"
    d="M17.3922 16.5029H12.0152C11.5842 16.5029 11.2332 16.8539 11.2332 17.2849C11.2332 17.7169 11.5842 18.0669 12.0152 18.0669H17.3922C17.8242 18.0669 18.1752 17.7169 18.1752 17.2849C18.1752 16.8539 17.8242 16.5029 17.3922 16.5029Z"
    fill="#000000" />
  <path fill-rule="evenodd" clip-rule="evenodd"
    d="M17.3921 3.19431H3.97609C3.54509 3.19431 3.19409 3.54531 3.19409 3.97631C3.19409 4.40831 3.54509 4.75831 3.97609 4.75831H17.3921C17.8241 4.75831 18.1751 4.40831 18.1751 3.97631C18.1751 3.54531 17.8241 3.19431 17.3921 3.19431Z"
    fill="#000000" />
  <path fill-rule="evenodd" clip-rule="evenodd"
    d="M17.3922 5.8555H12.0152C11.5842 5.8555 11.2332 6.2065 11.2332 6.6375C11.2332 7.0695 11.5842 7.4205 12.0152 7.4205H17.3922C17.8242 7.4205 18.1752 7.0695 18.1752 6.6375C18.1752 6.2065 17.8242 5.8555 17.3922 5.8555Z"
    fill="#000000" />
  <path fill-rule="evenodd" clip-rule="evenodd"
    d="M17.3922 8.51761H12.0152C11.5842 8.51761 11.2332 8.86861 11.2332 9.29961C11.2332 9.73161 11.5842 10.0816 12.0152 10.0816H17.3922C17.8242 10.0816 18.1752 9.73161 18.1752 9.29961C18.1752 8.86861 17.8242 8.51761 17.3922 8.51761Z"
    fill="#000000" />
  <path fill-rule="evenodd" clip-rule="evenodd"
    d="M17.3922 11.1797H12.0152C11.5842 11.1797 11.2332 11.5307 11.2332 11.9617C11.2332 12.3937 11.5842 12.7437 12.0152 12.7437H17.3922C17.8242 12.7437 18.1752 12.3937 18.1752 11.9617C18.1752 11.5307 17.8242 11.1797 17.3922 11.1797Z"
    fill="#000000" />
  <path fill-rule="evenodd" clip-rule="evenodd"
    d="M17.3922 13.8408H12.0152C11.5842 13.8408 11.2332 14.1928 11.2332 14.6238C11.2332 15.0558 11.5842 15.4058 12.0152 15.4058H17.3922C17.8242 15.4058 18.1752 15.0558 18.1752 14.6238C18.1752 14.1928 17.8242 13.8408 17.3922 13.8408Z"
    fill="#000000" />
  <path fill-rule="evenodd" clip-rule="evenodd"
    d="M9.35348 13.8408H3.97648C3.54448 13.8408 3.19348 14.1928 3.19348 14.6238C3.19348 15.0558 3.54448 15.4058 3.97648 15.4058H9.35348C9.78448 15.4058 10.1355 15.0558 10.1355 14.6238C10.1355 14.1928 9.78448 13.8408 9.35348 13.8408Z"
    fill="#000000" />
  <mask id="mask0" mask-type="alpha" maskUnits="userSpaceOnUse" x="0" y="-1" width="25" height="23">
    <path fill-rule="evenodd" clip-rule="evenodd" d="M0 21.2617H24.031V-0.000305176H0V21.2617Z" fill="white" />
  </mask>
  <g mask="url(#mask0)">
    <path fill-rule="evenodd" clip-rule="evenodd"
      d="M4.75797 11.2327H8.57097V7.42068H4.75797V11.2327ZM9.35397 5.85568H3.97697C3.54497 5.85568 3.19397 6.20568 3.19397 6.63768V12.0147C3.19397 12.4467 3.54497 12.7977 3.97697 12.7977H9.35397C9.78497 12.7977 10.136 12.4467 10.136 12.0147V6.63768C10.136 6.20568 9.78497 5.85568 9.35397 5.85568Z"
      fill="#000000" />
    <path fill-rule="evenodd" clip-rule="evenodd"
      d="M21.3852 19.1328C21.8162 19.1328 22.1672 18.7818 22.1672 18.3508C22.1672 17.9188 21.8162 17.5678 21.3682 17.5518V4.22679H22.4662V18.3508C22.4662 19.0928 21.8612 19.6968 21.1182 19.6968H2.91124C2.16924 19.6968 1.56424 19.0928 1.56424 18.3508V1.56479H19.8042V17.5518C19.8042 18.4238 20.5132 19.1328 21.3852 19.1328ZM22.7162 2.66079H21.3682V1.31479C21.3682 0.589786 20.7792 -0.000213623 20.0542 -0.000213623H1.31424C0.590244 -0.000213623 0.000244141 0.589786 0.000244141 1.31479V18.3508C0.000244141 19.9558 1.30624 21.2618 2.91124 21.2618H21.1182C22.7242 21.2618 24.0312 19.9558 24.0312 18.3508V3.97679C24.0312 3.25079 23.4412 2.66079 22.7162 2.66079Z"
      fill="#000000" />
  </g>
</svg>