<svg width="24" height="24" viewBox="0 0 24 24" fill="none" xmlns="http://www.w3.org/2000/svg">
<path d="M4.07175 21.2033C3.44204 21.2033 2.90544 20.9816 2.46195 20.5381C2.01849 20.0946 1.79675 19.558 1.79675 18.9283V5.07178C1.79675 4.44206 2.0185 3.90546 2.462 3.46198C2.90547 3.01849 3.44206 2.79675 4.07178 2.79675H19.9283C20.558 2.79675 21.0946 3.01849 21.5381 3.46198C21.9816 3.90546 22.2033 4.44206 22.2033 5.07178V18.9283C22.2033 19.558 21.9816 20.0946 21.5381 20.5381C21.0946 20.9816 20.558 21.2033 19.9283 21.2033H4.07175ZM4.07175 18.9283H19.9283V5.07178H4.07175V18.9283ZM6.03588 16.9642H17.9641V14.9642H6.03588V16.9642ZM6.03588 13H10.0359V7.0359H6.03588V13ZM12 13H17.9641V11H12V13ZM12 9.0359H17.9641V7.0359H12V9.0359Z" fill="currentColor"/>
</svg>
