<svg width="24" height="24" viewBox="0 0 24 24" fill="none" xmlns="http://www.w3.org/2000/svg">
<g id="wifi_off">
<path id="Vector" d="M21 12.17L23 10.17C19.27 6.44 14.13 5.02 9.3 5.86L11.88 8.44C15.18 8.42 18.49 9.66 21 12.17ZM19 14.17C17.92 13.09 16.64 12.32 15.28 11.84L18.3 14.86L19 14.17ZM9 18.17L12 21.17L15 18.17C13.35 16.51 10.66 16.51 9 18.17ZM3.41 2.81L2 4.22L5.05 7.27C3.59 8 2.22 8.96 1 10.17L3 12.17C4.23 10.94 5.65 10.01 7.17 9.39L9.41 11.63C7.79 12.06 6.27 12.91 5 14.17L7 16.17C8.35 14.82 10.11 14.13 11.89 14.11L18.97 21.19L20.38 19.78L3.41 2.81Z" fill="currentcolor"/>
</g>
</svg>
