<?xml version="1.0" encoding="UTF-8" standalone="no"?>
<svg
   width="24"
   height="24"
   viewBox="0 0 24 24"
   fill="none"
   version="1.1"
   id="svg1"
   sodipodi:docname="no-sound.svg"
   inkscape:version="1.3.2 (091e20e, 2023-11-25, custom)"
   xmlns:inkscape="http://www.inkscape.org/namespaces/inkscape"
   xmlns:sodipodi="http://sodipodi.sourceforge.net/DTD/sodipodi-0.dtd"
   xmlns="http://www.w3.org/2000/svg"
   xmlns:svg="http://www.w3.org/2000/svg">
  <defs
     id="defs1" />
  <sodipodi:namedview
     id="namedview1"
     pagecolor="#ffffff"
     bordercolor="#999999"
     borderopacity="1"
     inkscape:showpageshadow="2"
     inkscape:pageopacity="0"
     inkscape:pagecheckerboard="0"
     inkscape:deskcolor="#d1d1d1"
     inkscape:zoom="20.53135"
     inkscape:cx="13.296739"
     inkscape:cy="11.421557"
     inkscape:window-width="1920"
     inkscape:window-height="1009"
     inkscape:window-x="-8"
     inkscape:window-y="-8"
     inkscape:window-maximized="1"
     inkscape:current-layer="svg1" />
  <path
     d="m 16.358167,22.405586 c -0.263674,0 -0.51229,-0.05647 -0.745817,-0.169406 -0.233543,-0.113091 -0.478379,-0.29376 -0.734524,-0.542469 L 10.063938,17.128393 C 9.988598,17.060663 9.894424,17.026719 9.781425,17.026719 H 6.5382598 c -0.7608761,0 -1.3447246,-0.207144 -1.7515378,-0.621494 C 4.3799135,15.99089 4.1765092,15.373145 4.1765092,14.55199 v -4.203688 c 0,-0.8136106 0.2034043,-1.4275911 0.6102128,-1.8419412 C 5.1935352,8.084497 5.7773837,7.8735574 6.5382598,7.8735574 H 9.781425 c 0.112999,0 0.207175,-0.033897 0.282513,-0.1017052 l 4.813888,-4.5200968 c 0.286277,-0.2787344 0.534878,-0.4783725 0.745817,-0.5989084 0.21094,-0.1205358 0.448247,-0.1808029 0.711922,-0.1808029 0.384202,0 0.696847,0.1318357 0.937919,0.3955087 0.241071,0.2561453 0.361599,0.5687747 0.361599,0.937919 V 21.139979 c 0,0.361646 -0.120528,0.662967 -0.361599,0.904115 -0.233543,0.240995 -0.538643,0.361492 -0.915317,0.361492 z"
     fill="currentColor"
     id="path1"
     style="stroke-width:1.54286" />
</svg>
