<svg xmlns="http://www.w3.org/2000/svg" width="24" height="24" fill="none" viewBox="0 0 24 24"><path fill="currentColor" d="M16.358 22.406c-.264 0-.512-.057-.746-.17a2.904 2.904 0 0 1-.734-.542l-4.814-4.566a.407.407 0 0 0-.283-.101H6.538c-.76 0-1.344-.207-1.751-.622-.407-.414-.61-1.032-.61-1.853v-4.204c0-.813.203-1.427.61-1.842.407-.422.99-.632 1.751-.632h3.243a.407.407 0 0 0 .283-.102l4.814-4.52c.286-.279.535-.479.746-.6.21-.12.448-.18.712-.18.384 0 .696.132.937.396.242.256.362.568.362.937V21.14c0 .362-.12.663-.362.904-.233.241-.538.362-.915.362z" style="stroke-width:1.54286"/></svg>