<svg width="10" height="14" viewBox="0 0 10 14" fill="none" xmlns="http://www.w3.org/2000/svg">
<path d="M8.32166 13.5898C8.15076 13.5898 7.98962 13.5532 7.83826 13.48C7.68689 13.4067 7.5282 13.2896 7.36218 13.1284L4.24207 10.1694C4.19324 10.1255 4.1322 10.1035 4.05896 10.1035H1.95691C1.46375 10.1035 1.08533 9.96924 0.821655 9.70068C0.557983 9.43213 0.426147 9.03174 0.426147 8.49951V5.7749C0.426147 5.24756 0.557983 4.84961 0.821655 4.58105C1.08533 4.30762 1.46375 4.1709 1.95691 4.1709H4.05896C4.1322 4.1709 4.19324 4.14893 4.24207 4.10498L7.36218 1.17529C7.54773 0.994629 7.70886 0.865234 7.84558 0.787109C7.9823 0.708984 8.13611 0.669922 8.30701 0.669922C8.55603 0.669922 8.75867 0.755371 8.91492 0.92627C9.07117 1.09229 9.14929 1.29492 9.14929 1.53418V12.7695C9.14929 13.0039 9.07117 13.1992 8.91492 13.3555C8.76355 13.5117 8.5658 13.5898 8.32166 13.5898Z" fill="currentColor"/>
</svg>
