<svg width="24" height="24" viewBox="0 0 24 24" fill="none" xmlns="http://www.w3.org/2000/svg">
<g id="handshake">
<path id="Vector" d="M12.222 19.855C12.042 20.035 11.722 20.065 11.512 19.855C11.332 19.675 11.302 19.355 11.512 19.145L14.902 15.755L13.492 14.345L10.102 17.735C9.91205 17.935 9.59204 17.925 9.39205 17.735C9.18204 17.525 9.21204 17.205 9.39205 17.025L12.782 13.635L11.372 12.225L7.98205 15.615C7.80205 15.795 7.48205 15.825 7.27205 15.615C7.08205 15.425 7.08205 15.105 7.27205 14.905L10.662 11.515L9.24204 10.105L5.85205 13.495C5.67205 13.675 5.35205 13.705 5.14205 13.495C4.95204 13.295 4.95204 12.985 5.14205 12.785L9.52205 8.405L11.392 10.265C12.342 11.215 13.982 11.205 14.932 10.265C15.912 9.285 15.912 7.705 14.932 6.725L13.072 4.865L13.352 4.585C14.132 3.805 15.402 3.805 16.182 4.585L20.422 8.825C21.202 9.605 21.202 10.875 20.422 11.655L12.222 19.855ZM21.832 13.075C23.392 11.515 23.392 8.985 21.832 7.415L17.592 3.175C16.032 1.615 13.502 1.615 11.932 3.175L11.652 3.455L11.372 3.175C9.81204 1.615 7.28205 1.615 5.71205 3.175L2.17205 6.715C0.752045 8.135 0.622045 10.345 1.77205 11.905L3.22205 10.455C2.83205 9.705 2.96205 8.755 3.59205 8.125L7.13205 4.585C7.91205 3.805 9.18204 3.805 9.96204 4.585L13.522 8.145C13.702 8.325 13.732 8.645 13.522 8.855C13.312 9.065 12.992 9.035 12.812 8.855L9.52205 5.575L3.72205 11.365C2.74205 12.335 2.74205 13.925 3.72205 14.905C4.11205 15.295 4.61205 15.535 5.14205 15.605C5.21205 16.125 5.44205 16.625 5.84205 17.025C6.24205 17.425 6.74205 17.655 7.26205 17.725C7.33205 18.245 7.56205 18.745 7.96205 19.145C8.36205 19.545 8.86204 19.775 9.38204 19.845C9.45204 20.385 9.69204 20.875 10.082 21.265C10.552 21.735 11.182 21.995 11.852 21.995C12.522 21.995 13.152 21.735 13.622 21.265L21.832 13.075Z" fill="currentColor"/>
</g>
</svg>
