<svg width="23" height="20" viewBox="0 0 23 20" fill="none" xmlns="http://www.w3.org/2000/svg">
  <path
    d="M12.22 17.85C12.04 18.03 11.72 18.06 11.51 17.85C11.33 17.67 11.3 17.35 11.51 17.14L14.9 13.75L13.49 12.34L10.1 15.73C9.91 15.93 9.59 15.92 9.39 15.73C9.18 15.52 9.21 15.2 9.39 15.02L12.78 11.63L11.37 10.22L7.98 13.61C7.8 13.79 7.48 13.82 7.27 13.61C7.08 13.42 7.08 13.1 7.27 12.9L10.66 9.51L9.24 8.1L5.85 11.49C5.67 11.67 5.35 11.7 5.14 11.49C4.95 11.29 4.95 10.98 5.14 10.78L9.52 6.4L11.39 8.26C12.34 9.21 13.98 9.2 14.93 8.26C15.91 7.28 15.91 5.7 14.93 4.72L13.07 2.86L13.35 2.58C14.13 1.8 15.4 1.8 16.18 2.58L20.42 6.82C21.2 7.6 21.2 8.87 20.42 9.65L12.22 17.85ZM21.83 11.07C23.39 9.51 23.39 6.98 21.83 5.41L17.59 1.17C16.03 -0.39 13.5 -0.39 11.93 1.17L11.65 1.45L11.37 1.17C9.81 -0.39 7.28 -0.39 5.71 1.17L2.17 4.71C0.75 6.13 0.62 8.34 1.77 9.9L3.22 8.45C2.83 7.7 2.96 6.75 3.59 6.12L7.13 2.58C7.91 1.8 9.18 1.8 9.96 2.58L13.52 6.14C13.7 6.32 13.73 6.64 13.52 6.85C13.31 7.06 12.99 7.03 12.81 6.85L9.52 3.57L3.72 9.36C2.74 10.33 2.74 11.92 3.72 12.9C4.11 13.29 4.61 13.53 5.14 13.6C5.21 14.12 5.44 14.62 5.84 15.02C6.24 15.42 6.74 15.65 7.26 15.72C7.33 16.24 7.56 16.74 7.96 17.14C8.36 17.54 8.86 17.77 9.38 17.84C9.45 18.38 9.69 18.87 10.08 19.26C10.55 19.73 11.18 19.99 11.85 19.99C12.52 19.99 13.15 19.73 13.62 19.26L21.83 11.07Z"
    fill="black" />
</svg>