<svg xmlns="http://www.w3.org/2000/svg" xml:space="preserve" id="svg1" width="24" height="24" version="1.1" viewBox="0 0 6.35 6.35"><g id="layer1" transform="translate(-1.827 -3.881)"><g id="g4" style="fill:currentColor;fill-opacity:1;stroke-width:1.0002;stroke-dasharray:none" transform="matrix(.05265 0 0 .05265 2.362 4.474)"><path id="path1-3" d="M81.667 93.159H59.989a2 2 0 0 1-2-2V8.841a2 2 0 0 1 2-2h21.678a2 2 0 0 1 2 2v82.318a2 2 0 0 1-2 2zm-41.656 0H18.333a2 2 0 0 1-2-2V8.841a2 2 0 0 1 2-2h21.678a2 2 0 0 1 2 2v82.318a2 2 0 0 1-2 2z" style="fill:currentColor;fill-opacity:1;stroke-width:1.0002;stroke-dasharray:none"/></g></g><style id="style1" type="text/css">.st0{display:none}.st1{display:inline}</style></svg>