<?xml version="1.0" encoding="UTF-8"?>
<svg xmlns="http://www.w3.org/2000/svg" xmlns:xlink="http://www.w3.org/1999/xlink" width="24px" height="24px" viewBox="0 0 24 24" version="1.1">
<g id="surface1">
<path style=" stroke:none;fill-rule:nonzero;fill:rgb(0%,0%,0%);fill-opacity:1;" d="M 7 9.5 C 7 8.121094 5.878906 7 4.5 7 C 3.121094 7 2 8.121094 2 9.5 C 2 10.878906 3.121094 12 4.5 12 C 5.878906 12 7 10.878906 7 9.5 Z M 7 9.5 "/>
<path style=" stroke:none;fill-rule:nonzero;fill:rgb(0%,0%,0%);fill-opacity:1;" d="M 11.5 5.5 C 11.5 4.121094 10.378906 3 9 3 C 7.621094 3 6.5 4.121094 6.5 5.5 C 6.5 6.878906 7.621094 8 9 8 C 10.378906 8 11.5 6.878906 11.5 5.5 Z M 11.5 5.5 "/>
<path style=" stroke:none;fill-rule:nonzero;fill:rgb(0%,0%,0%);fill-opacity:1;" d="M 17.5 5.5 C 17.5 4.121094 16.378906 3 15 3 C 13.621094 3 12.5 4.121094 12.5 5.5 C 12.5 6.878906 13.621094 8 15 8 C 16.378906 8 17.5 6.878906 17.5 5.5 Z M 17.5 5.5 "/>
<path style=" stroke:none;fill-rule:nonzero;fill:rgb(0%,0%,0%);fill-opacity:1;" d="M 22 9.5 C 22 8.121094 20.878906 7 19.5 7 C 18.121094 7 17 8.121094 17 9.5 C 17 10.878906 18.121094 12 19.5 12 C 20.878906 12 22 10.878906 22 9.5 Z M 22 9.5 "/>
<path style=" stroke:none;fill-rule:nonzero;fill:rgb(0%,0%,0%);fill-opacity:1;" d="M 17.339844 14.859375 C 16.46875 13.839844 15.738281 12.96875 14.859375 11.949219 C 14.398438 11.410156 13.808594 10.871094 13.109375 10.628906 C 13 10.589844 12.890625 10.558594 12.78125 10.539062 C 12.53125 10.5 12.261719 10.5 12 10.5 C 11.738281 10.5 11.46875 10.5 11.210938 10.550781 C 11.101562 10.570312 10.988281 10.601562 10.878906 10.640625 C 10.179688 10.878906 9.601562 11.421875 9.128906 11.960938 C 8.261719 12.980469 7.53125 13.851562 6.648438 14.871094 C 5.339844 16.179688 3.730469 17.628906 4.03125 19.660156 C 4.320312 20.679688 5.050781 21.691406 6.359375 21.980469 C 7.089844 22.128906 9.421875 21.539062 11.898438 21.539062 L 12.078125 21.539062 C 14.558594 21.539062 16.890625 22.121094 17.621094 21.980469 C 18.929688 21.691406 19.660156 20.671875 19.949219 19.660156 C 20.261719 17.621094 18.648438 16.171875 17.339844 14.859375 Z M 17.339844 14.859375 Z M 17.339844 14.859375 "/>
</g>
</svg>
