<svg id="screenshot" viewBox="1057 514.0554385964913 24 24" width="24" height="24" version="1.1" xmlns="http://www.w3.org/2000/svg" xmlns:xlink="http://www.w3.org/1999/xlink" style="-webkit-print-color-adjust: exact;"><g id="shape-99c10c80-9fb7-11ec-a149-b71a8ea6d39c" height="24px" width="24px"><g id="shape-99c181b0-9fb7-11ec-a149-b71a8ea6d39c"><path fill="none" d="M1057,514.0554385964913L1081,514.0554385964913L1081,538.0554385964913L1057,538.0554385964913L1057,514.0554385964913ZZ"/></g><g id="shape-99c29320-9fb7-11ec-a149-b71a8ea6d39c"><path d="M1063.54,519.0554385964913C1063.6,519.9454385964913,1063.75,520.8154385964913,1063.99,521.6454385964913L1062.79,522.8454385964912C1062.38,521.6454385964913,1062.12,520.3754385964913,1062.03,519.0554385964913L1063.54,519.0554385964913ZM1073.4,531.0754385964913C1074.25,531.3154385964913,1075.12,531.4654385964913,1076,531.5254385964913L1076,533.0154385964913C1074.68,532.9254385964913,1073.41,532.6654385964913,1072.2,532.2654385964913L1073.4,531.0754385964913ZM1064.5,517.0554385964913L1061,517.0554385964913C1060.45,517.0554385964913,1060,517.5054385964913,1060,518.0554385964913C1060,527.4454385964913,1067.61,535.0554385964913,1077,535.0554385964913C1077.55,535.0554385964913,1078,534.6054385964912,1078,534.0554385964913L1078,530.5654385964913C1078,530.0154385964913,1077.55,529.5654385964913,1077,529.5654385964913C1075.76,529.5654385964913,1074.55,529.3654385964912,1073.43,528.9954385964913C1073.33,528.9554385964913,1073.22,528.9454385964913,1073.12,528.9454385964913C1072.86,528.9454385964913,1072.61,529.0454385964913,1072.41,529.2354385964912L1070.21,531.4354385964913C1067.38,529.9854385964912,1065.06,527.6754385964913,1063.62,524.8454385964912L1065.82,522.6454385964913C1066.1,522.3654385964912,1066.18,521.9754385964912,1066.07,521.6254385964913C1065.7,520.5054385964913,1065.5,519.3054385964913,1065.5,518.0554385964913C1065.5,517.5054385964913,1065.05,517.0554385964913,1064.5,517.0554385964913ZZ" style="fill: rgb(0, 0, 0);"/></g></g></svg>