<svg xmlns="http://www.w3.org/2000/svg" width="24" height="24" fill="none" viewBox="0 0 24 24"><path fill="currentColor" d="M11.998 22.515c-2.843 0-5.25-.987-7.224-2.96-1.973-1.972-2.959-4.38-2.959-7.223s.986-5.25 2.96-7.223c1.972-1.973 4.38-2.96 7.223-2.96 1.464 0 2.864.303 4.2.907a9.701 9.701 0 0 1 3.437 2.594v-3.5h2.546v8.91h-8.91V8.513h5.346a7.43 7.43 0 0 0-2.785-2.8 7.545 7.545 0 0 0-3.834-1.019c-2.122 0-3.925.742-5.41 2.227-1.485 1.485-2.227 3.289-2.227 5.41 0 2.122.742 3.925 2.227 5.41 1.485 1.485 3.288 2.227 5.41 2.227 1.633 0 3.108-.466 4.423-1.4a7.394 7.394 0 0 0 2.768-3.691h2.673c-.594 2.249-1.803 4.084-3.627 5.505-1.825 1.421-3.904 2.132-6.237 2.132z" style="stroke-width:.850993"/></svg>