<svg width="25" height="25" viewBox="0 0 25 25" fill="none" xmlns="http://www.w3.org/2000/svg">
<path d="M12.1283 24.8633C8.78783 24.8633 5.95842 23.7041 3.64004 21.3857C1.32166 19.0673 0.162476 16.2379 0.162476 12.8975C0.162476 9.557 1.32166 6.72758 3.64004 4.4092C5.95842 2.09083 8.78783 0.931641 12.1283 0.931641C13.8484 0.931641 15.4937 1.28688 17.0642 1.99735C18.6347 2.70782 19.9809 3.72366 21.1026 5.04489V0.931641H24.0941V11.4017H13.624V8.41027H19.9061C19.1083 7.01426 18.0177 5.9174 16.6342 5.11967C15.2506 4.32195 13.7487 3.92309 12.1283 3.92309C9.63541 3.92309 7.51646 4.7956 5.77145 6.54061C4.02644 8.28563 3.15393 10.4046 3.15393 12.8975C3.15393 15.3903 4.02644 17.5093 5.77145 19.2543C7.51646 20.9993 9.63541 21.8718 12.1283 21.8718C14.0478 21.8718 15.7804 21.3234 17.3259 20.2265C18.8715 19.1296 19.9559 17.6838 20.5791 15.8889H23.7202C23.0222 18.5314 21.6012 20.6877 19.4573 22.3579C17.3135 24.0281 14.8705 24.8633 12.1283 24.8633Z" fill="#000"/>
</svg>
