<?xml version="1.0" encoding="UTF-8" standalone="no"?>
<svg
   width="24"
   height="24"
   viewBox="0 0 24 24"
   fill="none"
   version="1.1"
   id="svg1"
   sodipodi:docname="playback.svg"
   inkscape:version="1.3.2 (091e20e, 2023-11-25, custom)"
   xmlns:inkscape="http://www.inkscape.org/namespaces/inkscape"
   xmlns:sodipodi="http://sodipodi.sourceforge.net/DTD/sodipodi-0.dtd"
   xmlns="http://www.w3.org/2000/svg"
   xmlns:svg="http://www.w3.org/2000/svg">
  <defs
     id="defs1" />
  <sodipodi:namedview
     id="namedview1"
     pagecolor="#ffffff"
     bordercolor="#999999"
     borderopacity="1"
     inkscape:showpageshadow="2"
     inkscape:pageopacity="0"
     inkscape:pagecheckerboard="0"
     inkscape:deskcolor="#d1d1d1"
     showgrid="false"
     inkscape:zoom="22.995113"
     inkscape:cx="7.5233378"
     inkscape:cy="12.502657"
     inkscape:window-width="1920"
     inkscape:window-height="1009"
     inkscape:window-x="-8"
     inkscape:window-y="-8"
     inkscape:window-maximized="1"
     inkscape:current-layer="svg1" />
  <path
     d="m 11.997836,22.51497 c -2.8427175,0 -5.2505261,-0.986472 -7.2234516,-2.959414 -1.9729256,-1.972943 -2.9593833,-4.380743 -2.9593833,-7.223401 0,-2.8427422 0.9864577,-5.2505593 2.9593833,-7.2234849 1.9729255,-1.9729171 4.3807341,-2.959379 7.2234516,-2.959379 1.463793,0 2.863932,0.302306 4.200417,0.9069111 1.336485,0.6046051 2.482092,1.469078 3.436651,2.5934358 V 2.1492911 H 22.18065 V 11.05924 H 13.270666 V 8.5135534 H 18.61669 C 17.937768,7.3255584 17.009675,6.392138 15.832326,5.7132752 14.654892,5.0344209 13.376785,4.6949938 11.997836,4.6949938 c -2.1214327,0 -3.9246447,0.7425001 -5.4096363,2.2274917 -1.4849916,1.4850001 -2.2274916,3.2882295 -2.2274916,5.4096695 0,2.121356 0.7425,3.924611 2.2274916,5.409594 1.4849916,1.484983 3.2882036,2.227475 5.4096363,2.227475 1.633481,0 3.107912,-0.466685 4.423122,-1.40014 1.315295,-0.933454 2.238112,-2.16382 2.768451,-3.691268 h 2.673054 c -0.593993,2.24875 -1.803254,4.083747 -3.627698,5.505075 -1.82436,1.421329 -3.903336,2.132079 -6.236929,2.132079 z"
     fill="currentColor"
     id="path1"
     style="stroke-width:0.850993" />
</svg>
