<svg xmlns="http://www.w3.org/2000/svg" width="24" height="24" fill="none" viewBox="0 0 24 24"><path fill="currentColor" d="M3.607 22.46c-.55 0-1.02-.197-1.412-.588a1.926 1.926 0 0 1-.588-1.413v-16c0-.55.196-1.02.588-1.412a1.926 1.926 0 0 1 1.412-.588h8.15l-2 2h-6.15v16h11v-2h2v2c0 .55-.196 1.021-.587 1.413a1.926 1.926 0 0 1-1.413.587zm2-4v-2h7v2zm0-3v-2h5v2zm9 0-4-4h-3v-5h3l4-4zm2-3.05v-6.9c.6.35 1.084.824 1.45 1.424.367.6.55 1.275.55 2.025s-.183 1.425-.55 2.025c-.366.6-.85 1.075-1.45 1.425zm0 4.3v-2.1c1.167-.417 2.125-1.138 2.875-2.163s1.125-2.188 1.125-3.488c0-1.3-.375-2.462-1.125-3.487s-1.708-1.746-2.875-2.163v-2.1c1.734.45 3.167 1.388 4.3 2.813 1.134 1.425 1.7 3.07 1.7 4.937 0 1.867-.566 3.513-1.7 4.938-1.133 1.425-2.566 2.362-4.3 2.812z"/></svg>