<svg width="26" height="26" viewBox="0 0 26 26" fill="none" xmlns="http://www.w3.org/2000/svg">
<path d="M20.6527 10.8249C20.653 12.7684 20.077 14.6683 18.9975 16.2844C17.918 17.9005 16.3835 19.1602 14.5881 19.9042C12.7927 20.6482 10.817 20.8431 8.91077 20.4642C7.00459 20.0854 5.25356 19.1498 3.87912 17.7757C2.50467 16.4017 1.56854 14.651 1.1891 12.7449C0.809665 10.8388 1.00396 8.86305 1.74742 7.06741C2.49089 5.27177 3.75012 3.73692 5.36589 2.65694C6.98167 1.57696 8.8814 1.00037 10.8249 1.00008C12.1167 0.994807 13.3968 1.24531 14.5914 1.73715C15.7859 2.22899 16.8713 2.95244 17.7849 3.86578C18.6985 4.77911 19.4223 5.86427 19.9145 7.05868C20.4067 8.25308 20.6576 9.53311 20.6527 10.8249Z" stroke="#1D1D1B" stroke-linecap="round" stroke-linejoin="round"/>
<path d="M24.7679 25L17.6545 17.8881" stroke="#1D1D1B" stroke-linecap="round" stroke-linejoin="round"/>
</svg>
