<svg width="18" height="18" viewBox="0 0 18 18" fill="none" xmlns="http://www.w3.org/2000/svg">
  <path
    d="M12.755 11.255H11.965L11.685 10.985C12.665 9.845 13.255 8.365 13.255 6.755C13.255 3.165 10.345 0.255001 6.755 0.255001C3.165 0.255001 0.255 3.165 0.255 6.755C0.255 10.345 3.165 13.255 6.755 13.255C8.365 13.255 9.845 12.665 10.985 11.685L11.255 11.965V12.755L16.255 17.745L17.745 16.255L12.755 11.255ZM6.755 11.255C4.265 11.255 2.255 9.245 2.255 6.755C2.255 4.265 4.265 2.255 6.755 2.255C9.245 2.255 11.255 4.265 11.255 6.755C11.255 9.245 9.245 11.255 6.755 11.255Z"
    fill="black" />
</svg>