<svg width="20" height="24" viewBox="0 0 20 24" fill="none" xmlns="http://www.w3.org/2000/svg">
<path d="M7.8 16.2H11.4V13.2H14.4V9.6H11.4V6.6H7.8V9.6H4.8V13.2H7.8V16.2ZM9.6 24C6.82 23.3 4.525 21.705 2.715 19.215C0.905 16.725 0 13.96 0 10.92V3.6L9.6 0L19.2 3.6V10.92C19.2 13.96 18.295 16.725 16.485 19.215C14.675 21.705 12.38 23.3 9.6 24ZM9.6 21.48C11.68 20.82 13.4 19.5 14.76 17.52C16.12 15.54 16.8 13.34 16.8 10.92V5.25L9.6 2.55L2.4 5.25V10.92C2.4 13.34 3.08 15.54 4.44 17.52C5.8 19.5 7.52 20.82 9.6 21.48Z" fill="#1E1E1E"/>
</svg>
