<svg width="24" height="27" viewBox="0 0 24 27" fill="none" xmlns="http://www.w3.org/2000/svg">
<path d="M20.2053 26.6297C19.1512 26.6297 18.2552 26.2597 17.5173 25.5197C16.7795 24.7797 16.4105 23.8811 16.4105 22.8239C16.4105 22.6759 16.4272 22.4949 16.4605 22.281C16.4938 22.067 16.5437 21.8744 16.6103 21.7032L6.52427 15.8447C6.1914 16.2219 5.78086 16.527 5.29265 16.7601C4.80444 16.9931 4.30513 17.1096 3.79473 17.1096C2.74064 17.1096 1.84466 16.7406 1.1068 16.0028C0.368932 15.2649 0 14.3689 0 13.3148C0 12.2607 0.368932 11.3648 1.1068 10.6269C1.84466 9.88904 2.74064 9.52011 3.79473 9.52011C4.30513 9.52011 4.79334 9.61997 5.25936 9.81969C5.72538 10.0194 6.14702 10.3079 6.52427 10.6852L16.6103 4.8932C16.5437 4.73629 16.4938 4.55974 16.4605 4.36357C16.4272 4.16742 16.4105 3.97781 16.4105 3.79473C16.4105 2.74064 16.7795 1.84466 17.5173 1.1068C18.2552 0.368932 19.1512 0 20.2053 0C21.2594 0 22.1553 0.368932 22.8932 1.1068C23.6311 1.84466 24 2.74064 24 3.79473C24 4.84882 23.6311 5.7448 22.8932 6.48266C22.1553 7.22053 21.2594 7.58946 20.2053 7.58946C19.687 7.58946 19.1913 7.50624 18.7181 7.33981C18.2449 7.17337 17.8419 6.90153 17.509 6.52427L7.42302 12.1165C7.46741 12.294 7.50624 12.4993 7.53953 12.7323C7.57282 12.9653 7.58946 13.1622 7.58946 13.3229C7.58946 13.4836 7.57282 13.65 7.53953 13.8222C7.50624 13.9944 7.46741 14.1692 7.42302 14.3467L17.509 20.0721C17.8419 19.7614 18.2302 19.5118 18.6741 19.3232C19.1179 19.1345 19.6283 19.0402 20.2053 19.0402C21.2594 19.0402 22.1553 19.4092 22.8932 20.147C23.6311 20.8849 24 21.7809 24 22.835C24 23.889 23.6311 24.785 22.8932 25.5229C22.1553 26.2607 21.2594 26.6297 20.2053 26.6297ZM20.2064 5.59223C20.7161 5.59223 21.1429 5.41986 21.4868 5.07512C21.8308 4.73038 22.0028 4.30319 22.0028 3.79357C22.0028 3.28394 21.8304 2.85714 21.4857 2.51318C21.1409 2.16921 20.7137 1.99723 20.2041 1.99723C19.6945 1.99723 19.2677 2.1696 18.9237 2.51434C18.5798 2.85908 18.4078 3.28627 18.4078 3.79589C18.4078 4.30552 18.5801 4.73232 18.9249 5.07628C19.2696 5.42025 19.6968 5.59223 20.2064 5.59223ZM3.79589 15.1123C4.30552 15.1123 4.73232 14.94 5.07628 14.5952C5.42025 14.2505 5.59223 13.8233 5.59223 13.3137C5.59223 12.804 5.41986 12.3773 5.07512 12.0333C4.73037 11.6893 4.30319 11.5173 3.79356 11.5173C3.28394 11.5173 2.85714 11.6897 2.51318 12.0345C2.16921 12.3792 1.99723 12.8064 1.99723 13.316C1.99723 13.8256 2.1696 14.2524 2.51434 14.5964C2.85908 14.9404 3.28627 15.1123 3.79589 15.1123ZM20.2064 24.6325C20.7161 24.6325 21.1429 24.4601 21.4868 24.1153C21.8308 23.7706 22.0028 23.3434 22.0028 22.8338C22.0028 22.3242 21.8304 21.8974 21.4857 21.5534C21.1409 21.2094 20.7137 21.0374 20.2041 21.0374C19.6945 21.0374 19.2677 21.2098 18.9237 21.5546C18.5798 21.8993 18.4078 22.3265 18.4078 22.8361C18.4078 23.3457 18.5801 23.7725 18.9249 24.1165C19.2696 24.4605 19.6968 24.6325 20.2064 24.6325Z" fill="#585858"/>
</svg>
