<svg width="25" height="24" viewBox="0 0 25 24" fill="none" xmlns="http://www.w3.org/2000/svg">
<path d="M14.9176 4.15898C15.0117 4.15898 15.1058 4.20605 15.1999 4.2531L23.247 10.9354C23.4823 11.1237 23.5294 11.4531 23.3411 11.6884C23.3411 11.7355 23.2941 11.7355 23.247 11.7825L15.1999 18.4648C14.9647 18.6531 14.6352 18.606 14.447 18.4178C14.3529 18.3237 14.3058 18.1825 14.3058 18.0884V15.1707C12.8941 15.1707 6.1176 15.3119 1.27054 19.5943C1.03524 19.7825 0.70583 19.7825 0.517595 19.5472C0.376418 19.406 0.32936 19.2178 0.423477 19.0296C2.6823 12.1119 9.50583 9.10016 14.3529 7.78252V4.67662C14.3529 4.39426 14.5882 4.15898 14.8705 4.15898H14.9176ZM15.3882 5.85309V8.20603C15.3882 8.44132 15.1999 8.67663 14.9647 8.72369C10.7294 9.80605 4.84701 12.3001 2.16465 17.6178C7.67054 13.9001 14.3529 14.0884 14.8235 14.1355C15.1058 14.1355 15.3411 14.3707 15.3411 14.6531V16.959L22.0235 11.406C22.0705 11.406 15.3882 5.85309 15.3882 5.85309Z" fill="black"/>
</svg>
