<svg width="21" height="15" viewBox="0 0 21 15" fill="none" xmlns="http://www.w3.org/2000/svg">
<path d="M8.50232 13.5898C8.33142 13.5898 8.17029 13.5532 8.01892 13.48C7.86755 13.4067 7.70886 13.2896 7.54285 13.1284L4.42273 10.1694C4.3739 10.1255 4.31287 10.1035 4.23962 10.1035H2.13757C1.64441 10.1035 1.26599 9.96924 1.00232 9.70068C0.738647 9.43213 0.606812 9.03174 0.606812 8.49951V5.7749C0.606812 5.24756 0.738647 4.84961 1.00232 4.58105C1.26599 4.30762 1.64441 4.1709 2.13757 4.1709H4.23962C4.31287 4.1709 4.3739 4.14893 4.42273 4.10498L7.54285 1.17529C7.72839 0.994629 7.88953 0.865234 8.02625 0.787109C8.16296 0.708984 8.31677 0.669922 8.48767 0.669922C8.73669 0.669922 8.93933 0.755371 9.09558 0.92627C9.25183 1.09229 9.32996 1.29492 9.32996 1.53418V12.7695C9.32996 13.0039 9.25183 13.1992 9.09558 13.3555C8.94421 13.5117 8.74646 13.5898 8.50232 13.5898ZM11.9374 10.2427C11.7909 10.1401 11.7079 10.0083 11.6884 9.84717C11.6688 9.68604 11.7152 9.52734 11.8275 9.37109C12.0375 9.07324 12.201 8.73145 12.3182 8.3457C12.4354 7.95508 12.494 7.54736 12.494 7.12256C12.494 6.69775 12.4354 6.29004 12.3182 5.89941C12.2059 5.50879 12.0424 5.16699 11.8275 4.87402C11.7103 4.72266 11.6615 4.56641 11.681 4.40527C11.7054 4.23926 11.7909 4.10498 11.9374 4.00244C12.0643 3.91455 12.2035 3.88525 12.3549 3.91455C12.5062 3.94385 12.6307 4.0293 12.7284 4.1709C13.0116 4.54199 13.2313 4.98633 13.3876 5.50391C13.5487 6.02148 13.6293 6.56104 13.6293 7.12256C13.6293 7.68408 13.5487 8.22363 13.3876 8.74121C13.2313 9.25879 13.0116 9.70312 12.7284 10.0742C12.6307 10.2158 12.5062 10.3013 12.3549 10.3306C12.2035 10.355 12.0643 10.3257 11.9374 10.2427ZM14.662 12.1543C14.5302 12.0615 14.4545 11.9395 14.4349 11.7881C14.4154 11.6318 14.4569 11.478 14.5594 11.3267C14.955 10.7554 15.2626 10.1084 15.4823 9.38574C15.7069 8.6582 15.8192 7.90381 15.8192 7.12256C15.8192 6.34131 15.7094 5.58691 15.4896 4.85938C15.2699 4.13184 14.9598 3.48486 14.5594 2.91846C14.452 2.76709 14.4081 2.61572 14.4276 2.46436C14.452 2.30811 14.5302 2.18359 14.662 2.09082C14.7987 1.99805 14.9427 1.96631 15.0941 1.99561C15.2455 2.0249 15.37 2.11035 15.4677 2.25195C15.9413 2.88672 16.3075 3.63135 16.5663 4.48584C16.8251 5.34033 16.9545 6.21924 16.9545 7.12256C16.9545 8.02588 16.8226 8.90234 16.559 9.75195C16.3002 10.6016 15.9364 11.3486 15.4677 11.9932C15.37 12.1348 15.2455 12.2202 15.0941 12.2495C14.9427 12.2739 14.7987 12.2422 14.662 12.1543ZM17.4086 14.0952C17.2719 14.0024 17.1937 13.8755 17.1742 13.7144C17.1547 13.5581 17.1962 13.4067 17.2987 13.2603C17.6747 12.7036 17.9994 12.1006 18.2728 11.4512C18.5511 10.7969 18.766 10.1084 18.9174 9.38574C19.0687 8.6582 19.1444 7.90381 19.1444 7.12256C19.1444 6.33643 19.0687 5.58203 18.9174 4.85938C18.766 4.13184 18.5511 3.4458 18.2728 2.80127C17.9994 2.15186 17.6747 1.54639 17.2987 0.984863C17.1962 0.833496 17.1547 0.679687 17.1742 0.523438C17.1937 0.367188 17.2719 0.242676 17.4086 0.149902C17.5355 0.0571289 17.6771 0.027832 17.8334 0.0620117C17.9896 0.0913086 18.1166 0.181641 18.2142 0.333008C18.6342 0.953125 18.9979 1.62451 19.3055 2.34717C19.6132 3.06494 19.85 3.82422 20.016 4.625C20.182 5.42578 20.265 6.2583 20.265 7.12256C20.265 7.98682 20.182 8.81934 20.016 9.62012C19.8549 10.4209 19.6205 11.1826 19.3129 11.9053C19.0101 12.623 18.6439 13.292 18.2142 13.9121C18.1166 14.0586 17.9896 14.1489 17.8334 14.1831C17.6771 14.2173 17.5355 14.188 17.4086 14.0952Z" fill="currentColor"/>
</svg>
