<svg xmlns="http://www.w3.org/2000/svg" width="24" height="24" fill="none" viewBox="0 0 24 24"><path fill="currentColor" d="M9.878 19.125c-.188 0-.365-.04-.53-.12-.167-.081-.342-.21-.524-.387l-3.428-3.251a.29.29 0 0 0-.201-.072h-2.31c-.541 0-.957-.148-1.247-.443-.29-.295-.434-.735-.434-1.32V10.54c0-.58.144-1.017.434-1.312.29-.3.706-.45 1.247-.45h2.31a.29.29 0 0 0 .201-.073l3.428-3.218c.204-.199.38-.341.531-.427.15-.086.32-.129.507-.129.274 0 .496.094.668.282a.938.938 0 0 1 .257.668v12.344a.874.874 0 0 1-.257.644.867.867 0 0 1-.652.257zm3.774-3.677a.605.605 0 0 1-.273-.435.729.729 0 0 1 .152-.523c.231-.327.41-.703.54-1.127a4.65 4.65 0 0 0 .193-1.343c0-.467-.065-.915-.193-1.344a3.538 3.538 0 0 0-.54-1.127.688.688 0 0 1-.16-.515.637.637 0 0 1 .281-.442c.14-.097.293-.13.459-.097a.636.636 0 0 1 .41.282c.311.407.553.896.724 1.464.177.569.266 1.162.266 1.779a5.95 5.95 0 0 1-.266 1.778 4.563 4.563 0 0 1-.724 1.464.636.636 0 0 1-.41.282.627.627 0 0 1-.459-.096zm2.994 2.1a.565.565 0 0 1-.25-.403.726.726 0 0 1 .137-.506 7.6 7.6 0 0 0 1.014-2.133c.247-.8.37-1.628.37-2.486a8.55 8.55 0 0 0-.362-2.487 7.338 7.338 0 0 0-1.022-2.132.695.695 0 0 1-.145-.5.597.597 0 0 1 .258-.41.61.61 0 0 1 .474-.104.636.636 0 0 1 .41.281c.521.698.923 1.516 1.208 2.455a9.94 9.94 0 0 1 .426 2.897c0 .992-.145 1.955-.434 2.888-.285.934-.684 1.755-1.2 2.463a.636.636 0 0 1-.41.281.658.658 0 0 1-.474-.104zm3.017 2.132a.568.568 0 0 1-.257-.418.699.699 0 0 1 .136-.5 12.144 12.144 0 0 0 1.778-4.257c.167-.798.25-1.627.25-2.485 0-.864-.083-1.693-.25-2.487-.165-.8-.402-1.553-.707-2.261-.3-.714-.657-1.379-1.07-1.996a.726.726 0 0 1-.137-.507.563.563 0 0 1 .257-.41.556.556 0 0 1 .467-.097.626.626 0 0 1 .418.298c.462.681.861 1.42 1.2 2.213.337.789.597 1.623.78 2.503.182.88.273 1.794.273 2.744 0 .95-.09 1.864-.273 2.744-.177.88-.435 1.716-.773 2.51a12.15 12.15 0 0 1-1.207 2.205.663.663 0 0 1-.418.298.556.556 0 0 1-.467-.097z" style="stroke-width:1.09867"/></svg>