<?xml version="1.0" encoding="UTF-8" standalone="no"?>
<svg
   width="24"
   height="24"
   viewBox="0 0 24 24"
   fill="none"
   version="1.1"
   id="svg1"
   sodipodi:docname="sound.svg"
   inkscape:version="1.3.2 (091e20e, 2023-11-25, custom)"
   xmlns:inkscape="http://www.inkscape.org/namespaces/inkscape"
   xmlns:sodipodi="http://sodipodi.sourceforge.net/DTD/sodipodi-0.dtd"
   xmlns="http://www.w3.org/2000/svg"
   xmlns:svg="http://www.w3.org/2000/svg">
  <defs
     id="defs1" />
  <sodipodi:namedview
     id="namedview1"
     pagecolor="#ffffff"
     bordercolor="#999999"
     borderopacity="1"
     inkscape:showpageshadow="2"
     inkscape:pageopacity="0"
     inkscape:pagecheckerboard="0"
     inkscape:deskcolor="#d1d1d1"
     showgrid="false"
     inkscape:zoom="18.957196"
     inkscape:cx="11.34134"
     inkscape:cy="12.211722"
     inkscape:window-width="1920"
     inkscape:window-height="1009"
     inkscape:window-x="-8"
     inkscape:window-y="-8"
     inkscape:window-maximized="1"
     inkscape:current-layer="svg1" />
  <path
     d="m 9.8781462,19.124925 c -0.1877612,0 -0.36479,-0.04021 -0.5310953,-0.120635 C 9.1807462,18.92376 9.0063988,18.795105 8.8240092,18.618 L 5.396037,15.367045 C 5.34239,15.318815 5.2753376,15.294635 5.1948602,15.294635 H 2.8854078 c -0.5418185,0 -0.957576,-0.147507 -1.2472614,-0.442564 C 1.3484576,14.557027 1.2036149,14.11713 1.2036149,13.532387 v -2.993434 c 0,-0.5793686 0.1448427,-1.0165841 0.4345315,-1.311642 C 1.9278318,8.9269025 2.3435893,8.7766929 2.8854078,8.7766929 h 2.3094524 c 0.080478,0 0.147529,-0.024138 0.2011768,-0.072424 L 8.8240092,5.4855157 C 9.0278558,5.2870296 9.2048949,5.1448677 9.3551043,5.0590343 9.5053029,4.9732002 9.6742896,4.9302848 9.8620508,4.9302848 c 0.2735892,0 0.4962242,0.09388 0.6678902,0.2816409 0.171667,0.1824007 0.257505,0.4050236 0.257505,0.6678907 V 18.223688 c 0,0.257528 -0.08584,0.472097 -0.257505,0.643819 -0.166305,0.171611 -0.383566,0.257418 -0.6517948,0.257418 z m 3.7740078,-3.677348 c -0.160955,-0.112724 -0.252144,-0.257528 -0.273568,-0.434556 -0.02153,-0.177028 0.02944,-0.351386 0.152825,-0.523053 0.230719,-0.327239 0.410352,-0.702752 0.539115,-1.126562 0.128764,-0.429161 0.193145,-0.87711 0.193145,-1.343823 0,-0.466724 -0.06438,-0.914662 -0.193145,-1.343835 -0.12338,-0.429161 -0.303012,-0.8046851 -0.539115,-1.1265606 -0.128764,-0.1662942 -0.18238,-0.3379609 -0.160956,-0.515 0.02681,-0.1823897 0.120744,-0.3299186 0.281699,-0.4425759 0.139421,-0.096562 0.292356,-0.1287528 0.458693,-0.096562 0.166228,0.032192 0.303012,0.126072 0.410352,0.2816432 0.311143,0.4077044 0.55252,0.8958861 0.724242,1.4645333 0.176995,0.568636 0.265548,1.161434 0.265548,1.778357 0,0.616923 -0.08856,1.209709 -0.265548,1.778356 -0.171722,0.568649 -0.413099,1.056819 -0.724242,1.464513 -0.10734,0.15557 -0.244124,0.249506 -0.410352,0.281698 -0.166337,0.02681 -0.319272,-0.0053 -0.458693,-0.09658 z m 2.993427,2.100211 c -0.144804,-0.101959 -0.227972,-0.235994 -0.249507,-0.402331 -0.02142,-0.171722 0.02417,-0.340696 0.136785,-0.506925 0.434632,-0.627669 0.772582,-1.338506 1.013959,-2.132468 0.246761,-0.799324 0.370141,-1.628148 0.370141,-2.486481 0,-0.858333 -0.120634,-1.687168 -0.36212,-2.4864801 C 17.313462,8.7337789 16.972765,8.0229636 16.532859,7.4006787 16.414862,7.2343736 16.36663,7.0680684 16.388054,6.9017741 c 0.02681,-0.1716666 0.112723,-0.3084726 0.257527,-0.410396 0.150188,-0.1019233 0.308396,-0.1367949 0.474735,-0.104604 0.166338,0.032179 0.303122,0.126061 0.410462,0.2816323 0.520328,0.6974005 0.92266,1.5155009 1.206995,2.4543005 0.284334,0.9387991 0.426501,1.9044281 0.426501,2.8968761 0,0.992448 -0.144913,1.955385 -0.434522,2.888823 -0.284335,0.933483 -0.68403,1.754187 -1.198974,2.462388 -0.10734,0.15557 -0.244124,0.249396 -0.410462,0.281588 -0.166339,0.02681 -0.324547,-0.008 -0.474735,-0.104588 z m 3.017598,2.132402 c -0.150188,-0.101959 -0.236103,-0.241377 -0.257527,-0.418372 -0.02142,-0.171722 0.02417,-0.33806 0.136785,-0.498905 0.413098,-0.611627 0.769835,-1.274123 1.07021,-1.987597 0.30576,-0.718858 0.541863,-1.47529 0.7082,-2.269252 0.166229,-0.799324 0.249399,-1.628148 0.249399,-2.486481 0,-0.863695 -0.08317,-1.692529 -0.249399,-2.4864801 C 21.15451,8.7337789 20.918407,7.9800496 20.612647,7.271926 20.312272,6.5584408 19.955535,5.893231 19.542437,5.2763 19.429822,5.1099981 19.384228,4.9410133 19.405652,4.7693477 c 0.02142,-0.1716667 0.107339,-0.3084639 0.257527,-0.4103916 0.139422,-0.1019274 0.294992,-0.1341142 0.466714,-0.096562 0.171612,0.032187 0.311143,0.1314327 0.418373,0.2977346 0.461439,0.6813019 0.861025,1.4189303 1.198974,2.2128927 0.338061,0.7885901 0.598225,1.6227858 0.780602,2.5025762 0.18238,0.8797884 0.273569,1.7944524 0.273569,2.7439854 0,0.949534 -0.09119,1.864195 -0.273569,2.743986 -0.176993,0.87979 -0.434522,1.716645 -0.772472,2.510652 -0.332676,0.788513 -0.735007,1.523521 -1.207104,2.204804 -0.10723,0.160954 -0.246761,0.260164 -0.418373,0.297738 -0.171722,0.03757 -0.327292,0.0053 -0.466714,-0.09658 z"
     fill="currentColor"
     id="path1"
     style="stroke-width:1.09867" />
</svg>
