<?xml version="1.0" encoding="UTF-8" standalone="no"?>
<!-- Created with Inkscape (http://www.inkscape.org/) -->

<svg
   width="22.444601mm"
   height="19.692926mm"
   viewBox="0 0 22.4446 19.692927"
   version="1.1"
   id="svg1"
   xml:space="preserve"
   xmlns:inkscape="http://www.inkscape.org/namespaces/inkscape"
   xmlns:sodipodi="http://sodipodi.sourceforge.net/DTD/sodipodi-0.dtd"
   xmlns="http://www.w3.org/2000/svg"
   xmlns:svg="http://www.w3.org/2000/svg"><sodipodi:namedview
     id="namedview1"
     bordercolor="#999999"
     borderopacity="1"
     inkscape:showpageshadow="2"
     inkscape:pageopacity="0"
     inkscape:pagecheckerboard="0"
     inkscape:deskcolor="#d1d1d1"
     inkscape:document-units="mm" /><defs
     id="defs1" /><g
     inkscape:label="Layer 1"
     inkscape:groupmode="layer"
     id="layer1"
     transform="translate(-2.4230249,-4.4901425)"><g
       id="g1"
       transform="matrix(0.26458333,0,0,0.26458333,0.41483744,1.1087567)"><g
         class="st0"
         id="g3"><g
           class="st1"
           id="g2"><path
             d="M 80.59,70.5 94.03,57.07 c 0.78,-0.78 0.78,-2.05 0,-2.83 l -6.36,-6.36 c -0.39,-0.39 -0.9,-0.59 -1.41,-0.59 -0.51,0 -1.02,0.2 -1.41,0.59 L 71.39,61.31 57.96,47.88 c -0.39,-0.39 -0.9,-0.59 -1.41,-0.59 -0.51,0 -1.02,0.2 -1.41,0.59 l -6.36,6.36 c -0.78,0.78 -0.78,2.05 0,2.83 L 62.2,70.5 48.77,83.94 c -0.78,0.78 -0.78,2.05 0,2.83 l 6.36,6.36 c 0.39,0.39 0.9,0.59 1.41,0.59 0.51,0 1.02,-0.2 1.41,-0.59 L 71.39,79.7 84.83,93.13 c 0.39,0.39 0.9,0.59 1.41,0.59 0.51,0 1.02,-0.2 1.41,-0.59 l 6.36,-6.36 c 0.78,-0.78 0.78,-2.05 0,-2.83 z"
             id="path1" /><path
             d="M 56.54,70.5 45.94,59.9 c -1.13,-1.13 -1.76,-2.64 -1.76,-4.24 0,-1.6 0.62,-3.11 1.76,-4.24 l 6.36,-6.36 c 1.13,-1.13 2.64,-1.76 4.24,-1.76 0.05,0 0.09,0.01 0.14,0.01 V 10.43 C 56.68,8.82 55.75,7.35 54.28,6.67 52.84,6 51.13,6.22 49.9,7.24 L 26.25,26.97 H 9.53 c -2.28,0 -4.13,1.85 -4.13,4.13 v 24.81 c 0,2.28 1.85,4.13 4.13,4.13 h 16.72 l 22.22,18.53 z"
             id="path2" /></g></g><g
         class="st0"
         id="g6"><g
           class="st1"
           id="g5"><path
             d="M 83.23,50 93.55,40.25 C 94.47,39.38 95,38.16 95,36.89 95,35.62 94.47,34.4 93.55,33.53 L 83.23,23.78 93.55,14.03 87.19,7.3 v 0 L 73.31,20.41 c -0.92,0.87 -1.45,2.09 -1.45,3.36 0,1.27 0.53,2.49 1.45,3.36 l 10.32,9.75 -10.32,9.75 c -0.92,0.87 -1.45,2.09 -1.45,3.36 0,1.27 0.53,2.49 1.45,3.36 l 10.32,9.75 -10.32,9.75 c -0.92,0.87 -1.45,2.09 -1.45,3.36 0,1.27 0.53,2.49 1.45,3.36 L 87.19,92.7 93.54,85.97 83.22,76.22 93.54,66.47 C 94.47,65.6 95,64.38 95,63.11 95,61.84 94.47,60.62 93.55,59.75 Z"
             id="path3" /><path
             d="m 56.29,15.8 c 0,-1.62 -0.93,-3.09 -2.4,-3.76 -1.45,-0.67 -3.16,-0.44 -4.38,0.58 l -10.34,8.62 17.12,17.12 z"
             id="path4" /><path
             d="M 44.55,39.71 32.03,27.19 15,10.15 8.45,16.7 24.1,32.34 H 9.14 C 6.85,32.34 5,34.19 5,36.48 v 24.81 c 0,2.28 1.85,4.14 4.14,4.14 h 16.71 l 23.66,19.73 c 0.74,0.62 1.68,0.95 2.65,0.95 0.6,0 1.19,-0.12 1.74,-0.37 1.47,-0.68 2.4,-2.15 2.4,-3.76 V 64.54 l 9.43,9.43 6.54,-6.54 z"
             id="path5" /></g></g><g
         class="st0"
         id="g8"><g
           class="st1"
           id="g7"><path
             d="m 67.66,17.67 c 0,-1.62 -0.93,-3.09 -2.4,-3.76 -1.45,-0.67 -3.16,-0.44 -4.38,0.58 l -10.34,8.62 17.12,17.12 z"
             id="path6" /><path
             d="M 55.92,41.58 43.4,29.06 26.37,12.02 19.83,18.56 35.48,34.21 H 20.51 c -2.28,0 -4.14,1.85 -4.14,4.14 v 24.81 c 0,2.28 1.85,4.14 4.14,4.14 h 16.71 l 23.66,19.73 c 0.74,0.62 1.68,0.95 2.65,0.95 0.6,0 1.19,-0.12 1.74,-0.37 1.47,-0.68 2.4,-2.15 2.4,-3.76 V 66.41 l 9.43,9.43 6.54,-6.54 z"
             id="path7" /></g></g><g
         id="g11"><g
           id="g10"
           style="fill:currentColor;fill-opacity:1"><path
             d="M 56.48,13.16 C 55.03,12.49 53.32,12.72 52.1,13.74 L 28.44,33.47 H 11.72 c -2.28,0 -4.13,1.85 -4.13,4.13 v 24.81 c 0,2.28 1.85,4.13 4.13,4.13 h 16.72 l 23.65,19.72 c 0.74,0.62 1.68,0.95 2.65,0.95 0.6,0 1.19,-0.12 1.74,-0.37 1.47,-0.68 2.4,-2.15 2.4,-3.76 V 16.93 c 0,-1.62 -0.94,-3.09 -2.4,-3.77 z"
             id="path8"
             style="fill:currentColor;fill-opacity:1" /><path
             d="m 86.73,31.44 c -3.6,-5.38 -8.7,-9.88 -14.78,-13.16 -1.46,-0.79 -3.28,-0.24 -4.07,1.21 -0.79,1.46 -0.24,3.28 1.21,4.07 5.3,2.86 9.65,6.74 12.65,11.22 3,4.49 4.67,9.56 4.68,14.96 0,5.41 -1.67,10.47 -4.68,14.96 -3,4.48 -7.35,8.36 -12.65,11.22 -1.46,0.79 -2,2.61 -1.21,4.07 0.79,1.46 2.61,2 4.07,1.21 6.08,-3.29 11.18,-7.79 14.78,-13.16 3.6,-5.37 5.69,-11.64 5.69,-18.3 0,-6.66 -2.09,-12.93 -5.69,-18.3 z"
             id="path9"
             style="fill:currentColor;fill-opacity:1" /><path
             d="m 68.84,61.74 c -1.37,0.93 -1.73,2.79 -0.81,4.17 0.93,1.37 2.79,1.73 4.17,0.81 5.39,-3.64 8.92,-9.89 8.92,-16.97 0,-7.07 -3.53,-13.33 -8.92,-16.97 -1.37,-0.93 -3.24,-0.57 -4.17,0.81 -0.93,1.37 -0.57,3.24 0.81,4.17 3.76,2.54 6.28,6.94 6.28,12 0,5.03 -2.52,9.43 -6.28,11.98 z"
             id="path10"
             style="fill:currentColor;fill-opacity:1" /></g></g></g></g><style
     type="text/css"
     id="style1">
	.st0{display:none;}
	.st1{display:inline;}
</style></svg>
