<?xml version="1.0" encoding="UTF-8" standalone="no"?>
<!-- Created with Inkscape (http://www.inkscape.org/) -->

<svg
   width="24"
   height="24"
   viewBox="0 0 24 24"
   version="1.1"
   id="svg1"
   xml:space="preserve"
   xmlns="http://www.w3.org/2000/svg"
   xmlns:svg="http://www.w3.org/2000/svg"><defs
     id="defs1" /><g
     id="layer1"
     style="display:inline"><g
       id="g1"
       transform="matrix(1.0402761,0,0,1.0402761,-32.20264,-61.436195)"><path
         d="m 43.084173,78.555943 4.660243,2.451552 c 0.962251,0.507703 2.088893,-0.313088 1.902719,-1.382942 l -0.890923,-5.189728 c -0.07374,-0.426722 0.06769,-0.860685 0.377179,-1.160498 l 3.769288,-3.676144 c 0.779699,-0.757947 0.349356,-2.082861 -0.727739,-2.237593 l -5.2114,-0.757944 c -0.426721,-0.06166 -0.797832,-0.331222 -0.987628,-0.718052 L 43.645265,61.16153 c -0.482333,-0.974322 -1.872514,-0.974322 -2.354846,0 l -2.330648,4.723064 c -0.192206,0.38683 -0.559699,0.656406 -0.987628,0.718052 l -5.211399,0.757944 c -1.077095,0.158367 -1.507438,1.479617 -0.727739,2.237593 l 3.769289,3.676144 c 0.309467,0.299795 0.452099,0.736179 0.377176,1.160498 l -0.89092,5.189728 c -0.182534,1.071029 0.940498,1.890645 1.902719,1.382942 l 4.660242,-2.451552 c 0.383211,-0.200682 0.83893,-0.200682 1.222141,0 z"
         id="path1"
         style="fill:"currentColor";stroke-width:0.309465" /></g></g></svg>
