<svg width="24" height="24" viewBox="0 0 24 18" fill="currentColor" xmlns="http://www.w3.org/2000/svg">
<path d="M0 17.4545V14.4C0 13.7818 0.159091 13.2136 0.477273 12.6955C0.795455 12.1773 1.21818 11.7818 1.74545 11.5091C2.87273 10.9455 4.01818 10.5227 5.18182 10.2409C6.34545 9.95909 7.52727 9.81818 8.72727 9.81818C9.92727 9.81818 11.1091 9.95909 12.2727 10.2409C13.4364 10.5227 14.5818 10.9455 15.7091 11.5091C16.2364 11.7818 16.6591 12.1773 16.9773 12.6955C17.2955 13.2136 17.4545 13.7818 17.4545 14.4V17.4545H0ZM19.6364 17.4545V14.1818C19.6364 13.3818 19.4136 12.6136 18.9682 11.8773C18.5227 11.1409 17.8909 10.5091 17.0727 9.98182C18 10.0909 18.8727 10.2773 19.6909 10.5409C20.5091 10.8045 21.2727 11.1273 21.9818 11.5091C22.6364 11.8727 23.1364 12.2773 23.4818 12.7227C23.8273 13.1682 24 13.6545 24 14.1818V17.4545H19.6364ZM8.72727 8.72727C7.52727 8.72727 6.5 8.3 5.64545 7.44545C4.79091 6.59091 4.36364 5.56364 4.36364 4.36364C4.36364 3.16364 4.79091 2.13636 5.64545 1.28182C6.5 0.427273 7.52727 0 8.72727 0C9.92727 0 10.9545 0.427273 11.8091 1.28182C12.6636 2.13636 13.0909 3.16364 13.0909 4.36364C13.0909 5.56364 12.6636 6.59091 11.8091 7.44545C10.9545 8.3 9.92727 8.72727 8.72727 8.72727ZM19.6364 4.36364C19.6364 5.56364 19.2091 6.59091 18.3545 7.44545C17.5 8.3 16.4727 8.72727 15.2727 8.72727C15.0727 8.72727 14.8182 8.70455 14.5091 8.65909C14.2 8.61364 13.9455 8.56364 13.7455 8.50909C14.2364 7.92727 14.6136 7.28182 14.8773 6.57273C15.1409 5.86364 15.2727 5.12727 15.2727 4.36364C15.2727 3.6 15.1409 2.86364 14.8773 2.15455C14.6136 1.44545 14.2364 0.8 13.7455 0.218182C14 0.127273 14.2545 0.0681818 14.5091 0.0409091C14.7636 0.0136364 15.0182 0 15.2727 0C16.4727 0 17.5 0.427273 18.3545 1.28182C19.2091 2.13636 19.6364 3.16364 19.6364 4.36364ZM2.18182 15.2727H15.2727V14.4C15.2727 14.2 15.2227 14.0182 15.1227 13.8545C15.0227 13.6909 14.8909 13.5636 14.7273 13.4727C13.7455 12.9818 12.7545 12.6136 11.7545 12.3682C10.7545 12.1227 9.74545 12 8.72727 12C7.70909 12 6.7 12.1227 5.7 12.3682C4.7 12.6136 3.70909 12.9818 2.72727 13.4727C2.56364 13.5636 2.43182 13.6909 2.33182 13.8545C2.23182 14.0182 2.18182 14.2 2.18182 14.4V15.2727ZM8.72727 6.54545C9.32727 6.54545 9.84091 6.33182 10.2682 5.90455C10.6955 5.47727 10.9091 4.96364 10.9091 4.36364C10.9091 3.76364 10.6955 3.25 10.2682 2.82273C9.84091 2.39545 9.32727 2.18182 8.72727 2.18182C8.12727 2.18182 7.61364 2.39545 7.18636 2.82273C6.75909 3.25 6.54545 3.76364 6.54545 4.36364C6.54545 4.96364 6.75909 5.47727 7.18636 5.90455C7.61364 6.33182 8.12727 6.54545 8.72727 6.54545Z" fill="#1E1E1E"/>
</svg>
