<svg width="24" height="24" viewBox="0 0 24 24" fill="none" xmlns="http://www.w3.org/2000/svg">
<g id="timer">
<path id="Vector" d="M15 1.5H9V3.5H15V1.5ZM11 14.5H13V8.5H11V14.5ZM19.03 7.89L20.45 6.47C20.02 5.96 19.55 5.48 19.04 5.06L17.62 6.48C16.07 5.24 14.12 4.5 12 4.5C7.03 4.5 3 8.53 3 13.5C3 18.47 7.02 22.5 12 22.5C16.98 22.5 21 18.47 21 13.5C21 11.38 20.26 9.43 19.03 7.89ZM12 20.5C8.13 20.5 5 17.37 5 13.5C5 9.63 8.13 6.5 12 6.5C15.87 6.5 19 9.63 19 13.5C19 17.37 15.87 20.5 12 20.5Z" fill="currentColor"/>
</g>
</svg>
