<?xml version="1.0" encoding="UTF-8"?>
<svg xmlns="http://www.w3.org/2000/svg" xmlns:xlink="http://www.w3.org/1999/xlink" width="24px" height="24px" viewBox="0 0 24 24" version="1.1">
<g id="surface1">
<path style=" stroke:none;fill-rule:nonzero;fill:rgb(0%,0%,0%);fill-opacity:1;" d="M 15 1 L 9 1 L 9 3 L 15 3 Z M 15 1 Z M 11 14 L 13 14 L 13 8 L 11 8 Z M 11 14 Z M 19.03125 7.390625 L 20.449219 5.96875 C 20.019531 5.460938 19.550781 4.980469 19.039062 4.558594 L 17.621094 5.980469 C 16.070312 4.738281 14.121094 4 12 4 C 7.03125 4 3 8.03125 3 13 C 3 17.96875 7.019531 22 12 22 C 16.980469 22 21 17.96875 21 13 C 21 10.878906 20.261719 8.929688 19.03125 7.390625 Z M 19.03125 7.390625 Z M 12 20 C 8.128906 20 5 16.871094 5 13 C 5 9.128906 8.128906 6 12 6 C 15.871094 6 19 9.128906 19 13 C 19 16.871094 15.871094 20 12 20 Z M 12 20 Z M 12 20 "/>
</g>
</svg>
