<svg width="32" height="32" viewBox="0 0 32 32" fill="none" xmlns="http://www.w3.org/2000/svg">
<path d="M26.6033 10.5601C26.6195 10.7952 26.6195 11.0303 26.6195 11.2675C26.6195 18.4967 21.1161 26.8342 11.0528 26.8342V26.8299C8.08013 26.8342 5.16917 25.9827 2.66663 24.3772C3.09888 24.4292 3.53331 24.4552 3.96881 24.4562C6.43235 24.4584 8.82547 23.6318 10.7636 22.1097C8.42247 22.0653 6.36952 20.5388 5.65234 18.3104C6.47244 18.4686 7.31745 18.4361 8.12238 18.2161C5.57 17.7005 3.73373 15.4579 3.73373 12.8536C3.73373 12.8297 3.73373 12.807 3.73373 12.7842C4.49424 13.2078 5.34575 13.4429 6.21677 13.4689C3.81281 11.8623 3.0718 8.66424 4.52349 6.16387C7.3012 9.58184 11.3995 11.6597 15.799 11.8796C15.3581 9.97943 15.9604 7.98823 17.3818 6.65246C19.5853 4.58109 23.0509 4.68726 25.1223 6.88971C26.3476 6.64812 27.5219 6.19853 28.5966 5.56152C28.1882 6.82796 27.3334 7.90373 26.1916 8.58732C27.276 8.45949 28.3355 8.16915 29.3333 7.72606C28.5988 8.82674 27.6736 9.78551 26.6033 10.5601Z" fill="#585858"/>
</svg>
