<?xml version="1.0" encoding="utf-8"?>
<!-- Generator: Adobe Illustrator 22.0.1, SVG Export Plug-In . SVG Version: 6.00 Build 0)  -->
<svg version="1.1" id="Ebene_1" xmlns="http://www.w3.org/2000/svg" xmlns:xlink="http://www.w3.org/1999/xlink"
	 viewBox="-3.35 0 50 50" style="enable-background:new 0 0 50 50;" xml:space="preserve">
<style type="text/css">
	.st0{stroke:#000000;stroke-width:0.5;stroke-miterlimit:10;}
	.st1{fill:none;stroke:#000000;stroke-miterlimit:10;}
</style>
<g>
	<g>
		<g>
			<path class="st0" d="M21.5,36.3c-8.2,0-14.8-6.6-14.8-14.8S13.4,6.8,21.5,6.8s14.8,6.6,14.8,14.8C36.3,29.7,29.7,36.3,21.5,36.3z
				 M21.5,7.2c-7.9,0-14.3,6.4-14.3,14.3s6.4,14.3,14.3,14.3s14.3-6.4,14.3-14.3S29.4,7.2,21.5,7.2z"/>
		</g>
		<g>
			<rect x="7" y="21.3" class="st0" width="29.3" height="0.5"/>
		</g>
	</g>
	<g>
		<path class="st0" d="M21.3,15.3c-1.6,0-3.1-0.2-4.4-0.4c-4-0.8-6.7-2.3-6.8-2.5v-0.3l0.3,0.3l-0.2-0.2h0.2c0-0.1-0.1-0.2-0.1-0.2
			c0.1,0.1,0.8,0.5,1.9,1c1,0.4,2.7,1,4.8,1.4c3.6,0.6,9.2,0.7,15.5-2.4l0.2,0.4C28.6,14.7,24.6,15.3,21.3,15.3z"/>
	</g>
	<g>
		<path class="st0" d="M32.7,30.9c-6.2-3.2-11.9-3.1-15.5-2.4c-2.1,0.4-3.8,1-4.8,1.4c-1.2,0.5-1.8,0.9-1.9,1c0,0,0.1-0.1,0.1-0.2
			h-0.2l-0.2,0.2v-0.3c0.2-0.2,2.8-1.8,6.8-2.5c3.7-0.7,9.5-0.8,15.9,2.4L32.7,30.9z"/>
	</g>
	<g>
		<path class="st0" d="M21.5,36.3c-4.2,0-7.7-6.6-7.7-14.8c0-3.9,0.8-7.6,2.2-10.4c1.5-2.8,3.4-4.4,5.5-4.4s4,1.6,5.5,4.4
			c1.4,2.8,2.2,6.5,2.2,10.4C29.2,29.7,25.8,36.3,21.5,36.3z M21.5,7.2c-4,0-7.2,6.4-7.2,14.3c0,3.8,0.8,7.5,2.2,10.2
			s3.2,4.2,5.1,4.2s3.7-1.5,5.1-4.2s2.2-6.4,2.2-10.2C28.8,13.6,25.5,7.2,21.5,7.2z"/>
	</g>
	<g>
		<rect x="21.3" y="7" class="st0" width="0.5" height="29.1"/>
	</g>
</g>
<path class="st1" d="M31,0.3H12.3c-6.6,0-12,5.4-12,12V31c0,6.6,5.4,12,12,12h10.6c0,0,0.2,6.7,10.7,6.7c-4.2,0.1-4.6-3.2-4.5-6.7
	H31c6.6,0,12-5.4,12-12V12.3C43,5.7,37.6,0.3,31,0.3z"/>
</svg>
