
<?xml version="1.0" encoding="utf-8"?>
<!-- Generator: Adobe Illustrator 22.0.1, SVG Export Plug-In . SVG Version: 6.00 Build 0)  -->
<svg version="1.1" id="Ebene_1" xmlns="http://www.w3.org/2000/svg" xmlns:xlink="http://www.w3.org/1999/xlink" x="0px" y="0px"
	 viewBox="0 0 36.7 57" style="enable-background:new 0 0 36.7 57;" xml:space="preserve">
<style type="text/css">
	.st0{fill:none;stroke:#000000;stroke-miterlimit:10;}
</style>
<path class="st0" d="M32.9,17.7c0-0.2,0-0.2,0-0.2c0,0,0,0,0,0c0-8-6.5-14.5-14.5-14.5S3.9,9.5,3.9,17.5c0,0,0,0.1,0,0.3
	c0,0.2,0,0.4,0,0.6c0.2,3.7,1.7,19.6,14.4,37h0.2c12.7-17.4,14.2-33.3,14.4-37C32.9,18.1,32.9,17.9,32.9,17.7z M18.4,55.1"/>
<circle class="st0" cx="18.7" cy="17.9" r="10.2"/>
</svg>
